<?xml version="1.0" encoding="UTF-8" standalone="no"?>
<svg width="431px" height="388px" viewBox="0 0 431 388" version="1.1" xmlns="http://www.w3.org/2000/svg" xmlns:xlink="http://www.w3.org/1999/xlink">
    <!-- Generator: Sketch 39.1 (31720) - http://www.bohemiancoding.com/sketch -->
    <title>Group 11</title>
    <desc>Created with Sketch.</desc>
    <defs></defs>
    <g id="Page-1" stroke="none" stroke-width="1" fill="none" fill-rule="evenodd">
        <g id="Group-11" transform="translate(-1.000000, -5.000000)">
            <g id="Group-10">
                <path d="M289.7241,114.3157 C276.5571,79.1947 242.6771,54.1967 202.9571,54.1967 L202.9571,5.2377 C265.6551,5.2377 318.8331,45.9877 337.4541,102.4467" id="Fill-13" fill="#41AAE0"></path>
                <path d="M289.7241,114.3157 C293.5171,124.4317 295.5911,135.3887 295.5911,146.8307 C295.5911,173.4127 284.3941,197.3797 266.4591,214.2727 L300.8211,249.1597 C327.7681,223.3797 344.5501,187.0657 344.5501,146.8307 C344.5501,131.3277 342.0591,116.4067 337.4541,102.4467 L289.7241,114.3157 Z" id="Fill-14" fill="#516F9A"></path>
                <path d="M266.4556,214.2688 L300.8186,249.1578 L300.8206,249.1598 C275.3946,273.4808 240.9206,288.4218 202.9576,288.4218 C124.7596,288.4218 61.3656,225.0298 61.3656,146.8308 C61.3656,68.6308 124.7596,5.2378 202.9576,5.2378 L202.9576,54.1968 C151.7986,54.1968 110.3246,95.6698 110.3246,146.8308 C110.3246,197.9908 151.7986,239.4628 202.9576,239.4628 C227.5356,239.4628 249.8766,229.8918 266.4596,214.2728" id="Fill-15" fill="#516F9A"></path>
                <polyline id="Stroke-16" stroke="#41AAE0" stroke-width="3.338" stroke-linecap="round" points="314.7856 45.8513 340.6556 15.8083 376.5406 15.8083"></polyline>
                <polyline id="Stroke-17" stroke="#516F9A" stroke-width="3.338" stroke-linecap="round" points="113.6626 273.4006 87.7926 303.4436 51.9076 303.4436"></polyline>
                <text id="20%" font-family="OpenSans-Extrabold, Open Sans" font-size="20.0288" font-weight="600" fill="#41AAE0">
                    <tspan x="389.8931" y="21.8603937">20%</tspan>
                </text>
                <text id="80%" font-family="OpenSans-Extrabold, Open Sans" font-size="20.0288" font-weight="600" fill="#516F9A">
                    <tspan x="0.9938904" y="308.774394">80%</tspan>
                </text>
                <path d="M113.663,376.327 C113.663,385.084027 120.761491,392.183 129.527614,392.183 L183.207386,392.183 C191.96917,392.183 199.072,385.085952 199.072,376.327 L199.072,376.327 C199.072,367.569973 191.973509,360.471 183.207386,360.471 L129.527614,360.471 C120.76583,360.471 113.663,367.568048 113.663,376.327 L113.663,376.327 Z" id="Fill-19" fill="#516F9A"></path>
                <path d="M206.33,376.327 C206.33,385.084027 213.427896,392.183 222.193042,392.183 L282.136958,392.183 C290.897874,392.183 298,385.085952 298,376.327 L298,376.327 C298,367.569973 290.902104,360.471 282.136958,360.471 L222.193042,360.471 C213.432126,360.471 206.33,367.568048 206.33,376.327 L206.33,376.327 Z" id="Fill-21" fill="#41AAE0"></path>
                <text id="Male" font-family="OpenSans-Extrabold, Open Sans" font-size="20.0288" font-weight="600" fill="#FEFEFE">
                    <tspan x="130.6587" y="382.669782">Male</tspan>
                </text>
                <text id="Female" font-family="OpenSans-Extrabold, Open Sans" font-size="20.0288" font-weight="600" fill="#FEFEFE">
                    <tspan x="215.536434" y="382.669782">Female</tspan>
                </text>
            </g>
            <polygon id="Path-4" fill="#516F9A" points="262.882812 218.136719 273.78125 208.148438 306.271484 243.681641 296.048828 252.884766"></polygon>
        </g>
    </g>
</svg>