<?xml version="1.0" encoding="UTF-8" standalone="no"?>
<svg width="431px" height="388px" viewBox="0 0 431 388" version="1.1" xmlns="http://www.w3.org/2000/svg" xmlns:xlink="http://www.w3.org/1999/xlink">
    <!-- Generator: Sketch 39.1 (31720) - http://www.bohemiancoding.com/sketch -->
    <title>Group 6</title>
    <desc>Created with Sketch.</desc>
    <defs></defs>
    <g id="Page-1" stroke="none" stroke-width="1" fill="none" fill-rule="evenodd">
        <g id="Group-6" transform="translate(0.000000, -5.000000)">
            <g id="Group-9" transform="translate(50.000000, 4.637000)">
                <path d="M151.9576,0.6011 C230.1566,0.6011 293.5506,63.9931 293.5506,142.1931 C293.5506,182.4291 276.7686,218.7431 249.8206,244.5221 L215.4596,209.6361 C233.3936,192.7421 244.5916,168.7751 244.5916,142.1931 C244.5916,91.0331 203.1176,49.5601 151.9576,49.5601 L151.9576,0.6011 Z" id="Fill-1" fill="#41AAE0"></path>
                <path d="M215.4556,209.6318 L249.8186,244.5208 L249.8206,244.5228 C224.3946,268.8438 189.9206,283.7848 151.9576,283.7848 C73.7596,283.7848 10.3656,220.3928 10.3656,142.1938 C10.3656,63.9938 73.7596,0.6008 151.9576,0.6008 L151.9576,49.5598 C100.7986,49.5598 59.3246,91.0328 59.3246,142.1938 C59.3246,193.3538 100.7986,234.8258 151.9576,234.8258 C176.5356,234.8258 198.8766,225.2548 215.4596,209.6358" id="Fill-3" fill="#516F9A"></path>
                <polyline id="Stroke-5" stroke="#41AAE0" stroke-width="3.338" stroke-linecap="round" points="263.7856 41.2143 289.6556 11.1713 325.5406 11.1713"></polyline>
                <polyline id="Stroke-7" stroke="#516F9A" stroke-width="3.338" stroke-linecap="round" points="62.6626 268.7636 36.7926 298.8066 0.9076 298.8066"></polyline>
            </g>
            <text id="38%" font-family="OpenSans-Extrabold, Open Sans" font-size="20.0288" font-weight="600" fill="#41AAE0">
                <tspan x="388.8931" y="21.8603937">38%</tspan>
            </text>
            <text id="62%" font-family="OpenSans-Extrabold, Open Sans" font-size="20.0288" font-weight="600" fill="#516F9A">
                <tspan x="0" y="308.773994">62%</tspan>
            </text>
            <path d="M208.086,376.327 C208.086,385.084027 215.191642,392.183 223.942276,392.183 L261.676317,392.183 C270.433497,392.183 277.532594,385.085952 277.532594,376.327 L277.532594,376.327 C277.532594,367.569973 270.426952,360.471 261.676317,360.471 L223.942276,360.471 C215.185097,360.471 208.086,367.568048 208.086,376.327 L208.086,376.327 Z" id="Fill-11" fill="#41AAE0"></path>
            <path d="M128.625406,376.327 C128.625406,385.084027 135.731048,392.183 144.481683,392.183 L182.215724,392.183 C190.972903,392.183 198.072,385.085952 198.072,376.327 L198.072,376.327 C198.072,367.569973 190.966358,360.471 182.215724,360.471 L144.481683,360.471 C135.724503,360.471 128.625406,367.568048 128.625406,376.327 L128.625406,376.327 Z" id="Fill-12" fill="#516F9A"></path>
            <text id="Cash" font-family="OpenSans-Extrabold, Open Sans" font-size="20.0288" font-weight="600" fill="#FEFEFE">
                <tspan x="138.9927" y="382.669782">Cash</tspan>
            </text>
            <text id="Card" font-family="OpenSans-Extrabold, Open Sans" font-size="20.0288" font-weight="600" fill="#FEFEFE">
                <tspan x="218.539894" y="382.669782">Ca</tspan>
                <tspan x="244.01598" y="382.669782" letter-spacing="-0.3605184">r</tspan>
                <tspan x="252.652774" y="382.669782">d</tspan>
            </text>
        </g>
    </g>
</svg>