<?xml version="1.0" encoding="UTF-8" standalone="no"?>
<svg width="431px" height="416px" viewBox="0 0 431 416" version="1.1" xmlns="http://www.w3.org/2000/svg" xmlns:xlink="http://www.w3.org/1999/xlink">
    <!-- Generator: Sketch 39.1 (31720) - http://www.bohemiancoding.com/sketch -->
    <title>Group 8</title>
    <desc>Created with Sketch.</desc>
    <defs></defs>
    <g id="Page-1" stroke="none" stroke-width="1" fill="none" fill-rule="evenodd">
        <g id="Group-8" transform="translate(0.000000, -8.000000)">
            <g id="Group-7">
                <path d="M288.7241,145.3157 C275.5571,110.1947 241.6771,85.1967 201.9571,85.1967 L201.9571,36.2377 C264.6551,36.2377 317.8331,76.9877 336.4541,133.4467" id="Fill-22" fill="#41AAE0"></path>
                <path d="M288.7241,145.3157 C292.5171,155.4317 294.5911,166.3887 294.5911,177.8307 C294.5911,204.4127 283.3941,228.3797 265.4591,245.2727 L299.8211,280.1597 C326.7681,254.3797 343.5501,218.0657 343.5501,177.8307 C343.5501,162.3277 341.0591,147.4067 336.4541,133.4467 L288.7241,145.3157 Z" id="Fill-23" fill="#41AAE0"></path>
                <path d="M97.4634,82.282 C123.3524,53.985 160.5814,36.238 201.9574,36.238 L201.9574,85.197 C174.9214,85.197 150.5904,96.78 133.6554,115.253" id="Fill-24" fill="#324662"></path>
                <path d="M173.4233,316.5462 C108.9023,303.3432 60.3653,246.2552 60.3653,177.8302 C60.3653,141.0062 74.4233,107.4662 97.4633,82.2822 L133.6553,115.2532 C118.5463,131.7362 109.3243,153.7072 109.3243,177.8302 C109.3243,222.4822 140.9183,259.7562 182.9713,268.5162" id="Fill-25" fill="#516F9A"></path>
                <path d="M173.4233,316.5462 C182.6403,318.4322 192.1833,319.4222 201.9573,319.4222 C239.9203,319.4222 274.3953,304.4802 299.8203,280.1592 L299.8193,280.1572 L265.4553,245.2692 L265.4593,245.2732 C248.8763,260.8922 226.5353,270.4632 201.9573,270.4632 C195.4503,270.4632 189.1003,269.7922 182.9713,268.5162" id="Fill-26" fill="#516F9A"></path>
                <polyline id="Stroke-27" stroke="#41AAE0" stroke-width="3.338" stroke-linecap="round" points="313.7856 76.8513 339.6556 46.8083 375.5406 46.8083"></polyline>
                <polyline id="Stroke-28" stroke="#516F9A" stroke-width="3.338" stroke-linecap="round" points="112.6626 304.4006 86.7926 334.4436 50.9076 334.4436"></polyline>
                <text id="53%" font-family="OpenSans-Extrabold, Open Sans" font-size="20.0288" font-weight="600" fill="#41AAE0">
                    <tspan x="388.8931" y="52.8603937">53%</tspan>
                </text>
                <text id="33%" font-family="OpenSans-Extrabold, Open Sans" font-size="20.0288" font-weight="600" fill="#516F9A">
                    <tspan x="0" y="340.773994">33%</tspan>
                </text>
                <g id="Group-34" transform="translate(0.000000, 0.637000)">
                    <text id="14%" font-family="OpenSans-Extrabold, Open Sans" font-size="20.0288" font-weight="600" fill="#516F9A">
                        <tspan x="0" y="21.5392937">14%</tspan>
                    </text>
                    <path d="M158.535,406.69 C158.535,415.447027 165.633491,422.546 174.399614,422.546 L228.079386,422.546 C236.84117,422.546 243.944,415.448952 243.944,406.69 L243.944,406.69 C243.944,397.932973 236.845509,390.834 228.079386,390.834 L174.399614,390.834 C165.63783,390.834 158.535,397.931048 158.535,406.69 L158.535,406.69 Z" id="Fill-31" fill="#516F9A"></path>
                    <path d="M63.533,406.69 C63.533,415.447027 70.6314909,422.546 79.3976142,422.546 L133.077386,422.546 C141.83917,422.546 148.942,415.448952 148.942,406.69 L148.942,406.69 C148.942,397.932973 141.843509,390.834 133.077386,390.834 L79.3976142,390.834 C70.6358297,390.834 63.533,397.931048 63.533,406.69 L63.533,406.69 Z" id="Fill-32" fill="#324662"></path>
                    <path d="M251.202,406.69 C251.202,415.447027 258.300491,422.546 267.066614,422.546 L320.746386,422.546 C329.50817,422.546 336.611,415.448952 336.611,406.69 L336.611,406.69 C336.611,397.932973 329.512509,390.834 320.746386,390.834 L267.066614,390.834 C258.30483,390.834 251.202,397.931048 251.202,406.69 L251.202,406.69 Z" id="Fill-33" fill="#41AAE0"></path>
                </g>
                <text id="25-34" font-family="OpenSans-Extrabold, Open Sans" font-size="20.0288" font-weight="600" fill="#FEFEFE">
                    <tspan x="175.7808" y="413.914594">25-34</tspan>
                </text>
                <text id="35-44" font-family="OpenSans-Extrabold, Open Sans" font-size="20.0288" font-weight="600" fill="#FEFEFE">
                    <tspan x="79.7827616" y="413.914594">35-44</tspan>
                </text>
                <text id="18-24" font-family="OpenSans-Extrabold, Open Sans" font-size="20.0288" font-weight="600" fill="#FEFEFE">
                    <tspan x="266.91184" y="414.416754">18-24</tspan>
                </text>
                <polyline id="Stroke-35" stroke="#324662" stroke-width="4" stroke-linecap="round" points="112.6626 46.8079 86.7926 16.7649 50.9076 16.7649"></polyline>
            </g>
            <polygon id="Path-3" fill="#516F9A" points="179.349609 267.672852 186.881836 269.485352 177.515625 316.694336 169.52832 315.402344"></polygon>
        </g>
    </g>
</svg>