<?xml version="1.0" encoding="UTF-8" standalone="no"?>
<svg width="149px" height="149px" viewBox="0 0 149 149" version="1.1" xmlns="http://www.w3.org/2000/svg" xmlns:xlink="http://www.w3.org/1999/xlink">
    <!-- Generator: Sketch 39.1 (31720) - http://www.bohemiancoding.com/sketch -->
    <title>Group 24</title>
    <desc>Created with Sketch.</desc>
    <defs></defs>
    <g id="Page-1" stroke="none" stroke-width="1" fill="none" fill-rule="evenodd">
        <g id="Group-24">
            <rect id="Rectangle-8-Copy" fill="#F3F4F8" x="0" y="0" width="149" height="149"></rect>
            <g id="Group-18-Copy" transform="translate(40.000000, 1.000000)" stroke="#40AAE0" stroke-width="4">
                <g id="Icon" transform="translate(35.263889, 72.500000) rotate(-90.000000) translate(-35.263889, -72.500000) translate(-36.736111, 38.000000)">
                    <path d="M0,12.6929241 C0,11.2595722 1.45333333,9.13008611 2.88622917,9.13008611 L27.6882708,9.13008611 C29.13025,9.13008611 29.5208333,11.2709843 29.5208333,12.6929241 L29.5208333,61.3127667 C29.5208333,62.7461185 29.1234375,63.9078639 27.6882708,63.9078639 L2.88622917,63.9078639 C1.44425,63.9078639 0,62.7347065 0,61.3127667 L0,12.6929241 L0,12.6929241 Z" id="Stroke-70"></path>
                    <path d="M21.615234,56.0000004 L10.2855107,56 C9.49921025,56 8.71167149,55.142492 8.71167149,54.103139 L8.71167149,17.062283 L8.71167149,20.5649385" id="Stroke-70-Copy" stroke-linecap="round" stroke-linejoin="round"></path>
                    <path d="M96.8349073,31.6965996 C94.3125701,41.68898 90.7671327,57.7030284 89.557125,60.8466991 C87.6019375,65.9204907 81.0596667,66.1898148 79.6562917,66.1898148 L74.9375,66.1898148" id="Stroke-72" stroke-linecap="round" stroke-linejoin="bevel"></path>
                    <path d="M50.2776687,66.1998448 C45.1092521,64.3008818 32.2828674,60.5138866 32.2828674,60.5138866" id="Stroke-76" stroke-linecap="round" stroke-linejoin="bevel"></path>
                    <path d="M49.9583333,66.1898148 L79.4791667,66.1898148" id="Stroke-78" stroke-linecap="round"></path>
                    <path d="M97.0504049,31.6906919 L132.976515,31.6906919 C132.976515,31.6906919 143.417321,33.247588 143.417321,23.4347964 C143.417321,13.6220048 132.976515,15.0518568 132.976515,15.0518568 L71.8627821,13.1338727 C71.8627821,13.1338727 66.5494789,0.637469255 60.9166558,0.637469256 C54.450103,0.637469255 29.4150391,15.051857 29.4150391,15.051857" id="Path-3"></path>
                </g>
            </g>
            <path d="M97,65 L97,90.8980309" id="Path-5" stroke="#40AAE0" stroke-width="4" stroke-linecap="round" stroke-linejoin="round"></path>
        </g>
    </g>
</svg>