<?xml version="1.0" encoding="UTF-8" standalone="no"?>
<svg width="149px" height="149px" viewBox="0 0 149 149" version="1.1" xmlns="http://www.w3.org/2000/svg" xmlns:xlink="http://www.w3.org/1999/xlink">
    <!-- Generator: Sketch 39.1 (31720) - http://www.bohemiancoding.com/sketch -->
    <title>Group 23</title>
    <desc>Created with Sketch.</desc>
    <defs></defs>
    <g id="Page-1" stroke="none" stroke-width="1" fill="none" fill-rule="evenodd">
        <g id="Group-23">
            <rect id="Rectangle-8" fill="#F3F4F8" x="0" y="0" width="149" height="149"></rect>
            <g id="Icon" transform="translate(6.000000, 28.000000)" stroke="#40AAE0" stroke-width="4" stroke-linecap="round" stroke-linejoin="round">
                <path d="M68.5,61.75 C59.493881,61.75 52.1904762,54.47325 52.1904762,45.5 C52.1904762,36.52675 59.493881,29.25 68.5,29.25 C77.506119,29.25 84.8095238,36.52675 84.8095238,45.5 L84.8095238,45.5 L84.8095238,45.5" id="Stroke-92"></path>
                <path d="M93.3040675,45.5 C93.3040675,59.1468177 82.1968061,70.2135417 68.5,70.2135417 C54.8031939,70.2135417 43.6959325,59.1468177 43.6959325,45.5 C43.6959325,31.8531823 54.8031939,20.7864583 68.5,20.7864583 C82.1968061,20.7864583 93.3040675,31.8531823 93.3040675,45.5 L93.3040675,45.5 Z" id="Stroke-92-Copy"></path>
                <path d="M0,45.5 C9.77592857,20.17925 42.6559286,0 68.6239524,0 C94.5952381,0 126.917452,19.84125 137,44.86625" id="Stroke-94"></path>
                <path d="M0,45.5 C9.77592857,70.82075 42.6559286,91 68.6239524,91 C94.5952381,91 126.917452,71.15875 137,46.13375" id="Stroke-96"></path>
            </g>
        </g>
    </g>
</svg>