<?xml version="1.0" encoding="UTF-8" standalone="no"?>
<svg width="460px" height="456px" viewBox="0 0 460 456" version="1.1" xmlns="http://www.w3.org/2000/svg" xmlns:xlink="http://www.w3.org/1999/xlink">
    <!-- Generator: Sketch 39.1 (31720) - http://www.bohemiancoding.com/sketch -->
    <title>Group 5</title>
    <desc>Created with Sketch.</desc>
    <defs>
        <rect id="path-1" x="0" y="0" width="450" height="446"></rect>
        <filter x="-50%" y="-50%" width="200%" height="200%" filterUnits="objectBoundingBox" id="filter-2">
            <feOffset dx="0" dy="2" in="SourceAlpha" result="shadowOffsetOuter1"></feOffset>
            <feGaussianBlur stdDeviation="2.5" in="shadowOffsetOuter1" result="shadowBlurOuter1"></feGaussianBlur>
            <feColorMatrix values="0 0 0 0 0.692548895   0 0 0 0 0.692548895   0 0 0 0 0.692548895  0 0 0 0.5 0" type="matrix" in="shadowBlurOuter1"></feColorMatrix>
        </filter>
    </defs>
    <g id="Page-1" stroke="none" stroke-width="1" fill="none" fill-rule="evenodd">
        <g id="Group-5" transform="translate(5.000000, 3.000000)">
            <g id="Rectangle-7">
                <use fill="black" fill-opacity="1" filter="url(#filter-2)" xlink:href="#path-1"></use>
                <use fill="#FFFFFF" fill-rule="evenodd" xlink:href="#path-1"></use>
            </g>
            <g id="Group-4" transform="translate(26.000000, 17.000000)">
                <path d="M20.5,11.9205 C20.5,18.227868 25.610949,23.341 31.9201152,23.341 L244.616885,23.341 C250.92404,23.341 256.037,18.2292548 256.037,11.9205 L256.037,11.9205 C256.037,5.61313201 250.926051,0.5 244.616885,0.5 L31.9201152,0.5 C25.6129597,0.5 20.5,5.6117452 20.5,11.9205 L20.5,11.9205 Z" id="Stroke-1" stroke="#40AAE0"></path>
                <path d="M20.5,40.7135 C20.5,47.020868 25.610949,52.134 31.9201152,52.134 L244.616885,52.134 C250.92404,52.134 256.037,47.0222548 256.037,40.7135 L256.037,40.7135 C256.037,34.406132 250.926051,29.293 244.616885,29.293 L31.9201152,29.293 C25.6129597,29.293 20.5,34.4047452 20.5,40.7135 L20.5,40.7135 Z" id="Stroke-3" stroke="#40AAE0"></path>
                <path d="M20.5,71.2135 C20.5,77.520868 25.6192734,82.634 31.9140972,82.634 L123.489903,82.634 C129.793735,82.634 134.904,77.5222548 134.904,71.2135 L134.904,71.2135 C134.904,64.906132 129.784727,59.793 123.489903,59.793 L31.9140972,59.793 C25.6102654,59.793 20.5,64.9047452 20.5,71.2135 L20.5,71.2135 Z" id="Stroke-4" stroke="#40AAE0"></path>
                <path d="M141.633,71.2135 C141.633,77.520868 146.752273,82.634 153.047097,82.634 L244.622903,82.634 C250.926735,82.634 256.037,77.5222548 256.037,71.2135 L256.037,71.2135 C256.037,64.906132 250.917727,59.793 244.622903,59.793 L153.047097,59.793 C146.743265,59.793 141.633,64.9047452 141.633,71.2135 L141.633,71.2135 Z" id="Stroke-5" stroke="#40AAE0"></path>
                <text id="Get-out-of-car" font-family="OpenSans-Light, Open Sans" font-size="10" font-weight="300" fill="#221F20">
                    <tspan x="107.3848" y="14.4981359">Get out of car</tspan>
                </text>
                <text id="Locate-kiosk" font-family="OpenSans-Light, Open Sans" font-size="10" font-weight="300" fill="#221F20">
                    <tspan x="110.8048" y="42.8981359">Locate kiosk</tspan>
                </text>
                <path d="M138.2684,230.5573 L95.8118105,230.5573 C89.5006259,230.5573 84.3844,225.445555 84.3844,219.1368 L84.3844,219.1368 C84.3844,212.829432 89.4917206,207.7163 95.8027092,207.7163 L180.734091,207.7163 C187.040249,207.7163 192.1524,212.828045 192.1524,219.1368 L192.1524,219.1368 C192.1524,225.444168 187.034545,230.5573 180.72499,230.5573 L138.2684,230.5573 Z" id="Stroke-6" stroke="#40AAE0"></path>
                <text id="Scan-ticket-barcode" font-family="OpenSans-Light, Open Sans" font-size="10" font-weight="300" fill="#221F20">
                    <tspan x="94.3574" y="221.323336">Scan ticket barcode</tspan>
                </text>
                <path d="M138.2684,411.5129 L95.8118105,411.5129 C89.5006259,411.5129 84.3844,406.401155 84.3844,400.0924 L84.3844,400.0924 C84.3844,393.785032 89.4917206,388.6719 95.8027092,388.6719 L180.734091,388.6719 C187.040249,388.6719 192.1524,393.783645 192.1524,400.0924 L192.1524,400.0924 C192.1524,406.399768 187.034545,411.5129 180.72499,411.5129 L138.2684,411.5129 Z" id="Stroke-7" stroke="#40AAE0"></path>
                <text id="Transaction-complete" font-family="OpenSans-Light, Open Sans" font-size="10" font-weight="300" fill="#221F20">
                    <tspan x="90.0493" y="402.278936">Transaction complete</tspan>
                </text>
                <text id="Locate-spot-number" font-family="OpenSans-Light, Open Sans" font-size="10" font-weight="300" fill="#221F20">
                    <tspan x="31.9593" y="73.7189359">Locate spot number</tspan>
                </text>
                <text id="Locate-QR-code" font-family="OpenSans-Light, Open Sans" font-size="10" font-weight="300" fill="#221F20">
                    <tspan x="163.7993" y="73.7189359">Locate QR code</tspan>
                </text>
                <path d="M20.5,100.8235 C20.5,107.130868 25.6192734,112.244 31.9140972,112.244 L123.489903,112.244 C129.793735,112.244 134.904,107.132255 134.904,100.8235 L134.904,100.8235 C134.904,94.516132 129.784727,89.403 123.489903,89.403 L31.9140972,89.403 C25.6102654,89.403 20.5,94.5147452 20.5,100.8235 L20.5,100.8235 Z" id="Stroke-8" stroke="#40AAE0"></path>
                <path d="M141.633,100.8235 C141.633,107.130868 146.752273,112.244 153.047097,112.244 L244.622903,112.244 C250.926735,112.244 256.037,107.132255 256.037,100.8235 L256.037,100.8235 C256.037,94.516132 250.917727,89.403 244.622903,89.403 L153.047097,89.403 C146.743265,89.403 141.633,94.5147452 141.633,100.8235 L141.633,100.8235 Z" id="Stroke-9" stroke="#40AAE0"></path>
                <text id="Approach-kiosk" font-family="OpenSans-Light, Open Sans" font-size="10" font-weight="300" fill="#221F20">
                    <tspan x="43.0557" y="103.329236">Approach kiosk</tspan>
                </text>
                <text id="Open-App" font-family="OpenSans-Light, Open Sans" font-size="10" font-weight="300" fill="#221F20">
                    <tspan x="176.4157" y="103.329236">Open App</tspan>
                </text>
                <path d="M20.5,130.4345 C20.5,136.741868 25.6192734,141.855 31.9140972,141.855 L123.489903,141.855 C129.793735,141.855 134.904,136.743255 134.904,130.4345 L134.904,130.4345 C134.904,124.127132 129.784727,119.014 123.489903,119.014 L31.9140972,119.014 C25.6102654,119.014 20.5,124.125745 20.5,130.4345 L20.5,130.4345 Z" id="Stroke-10" stroke="#40AAE0"></path>
                <path d="M141.633,130.4345 C141.633,136.741868 146.752273,141.855 153.047097,141.855 L244.622903,141.855 C250.926735,141.855 256.037,136.743255 256.037,130.4345 L256.037,130.4345 C256.037,124.127132 250.917727,119.014 244.622903,119.014 L153.047097,119.014 C146.743265,119.014 141.633,124.125745 141.633,130.4345 L141.633,130.4345 Z" id="Stroke-11" stroke="#40AAE0"></path>
                <text id="Select-Language" font-family="OpenSans-Light, Open Sans" font-size="10" font-weight="300" fill="#221F20">
                    <tspan x="40.9561" y="132.940536">Select Language</tspan>
                </text>
                <text id="Scan-QR-code" font-family="OpenSans-Light, Open Sans" font-size="10" font-weight="300" fill="#221F20">
                    <tspan x="168.0361" y="132.940536">Scan QR code</tspan>
                </text>
                <path d="M20.5,160.0455 C20.5,166.352868 25.6192734,171.466 31.9140972,171.466 L123.489903,171.466 C129.793735,171.466 134.904,166.354255 134.904,160.0455 L134.904,160.0455 C134.904,153.738132 129.784727,148.625 123.489903,148.625 L31.9140972,148.625 C25.6102654,148.625 20.5,153.736745 20.5,160.0455 L20.5,160.0455 Z" id="Stroke-12" stroke="#40AAE0"></path>
                <path d="M141.633,160.0455 C141.633,166.352868 146.752273,171.466 153.047097,171.466 L244.622903,171.466 C250.926735,171.466 256.037,166.354255 256.037,160.0455 L256.037,160.0455 C256.037,153.738132 250.917727,148.625 244.622903,148.625 L153.047097,148.625 C146.743265,148.625 141.633,153.736745 141.633,160.0455 L141.633,160.0455 Z" id="Stroke-13" stroke="#40AAE0"></path>
                <text id="Select-Transaction" font-family="OpenSans-Light, Open Sans" font-size="10" font-weight="300" fill="#221F20">
                    <tspan x="36.4912" y="162.550936">Select Transaction</tspan>
                </text>
                <text id="Select-Language" font-family="OpenSans-Light, Open Sans" font-size="10" font-weight="300" fill="#221F20">
                    <tspan x="162.7212" y="162.550936">Select Language</tspan>
                </text>
                <path d="M0.5,189.6555 C0.5,195.962868 5.6192734,201.076 11.9140972,201.076 L103.489903,201.076 C109.793735,201.076 114.904,195.964255 114.904,189.6555 L114.904,189.6555 C114.904,183.348132 109.784727,178.235 103.489903,178.235 L11.9140972,178.235 C5.61026539,178.235 0.5,183.346745 0.5,189.6555 L0.5,189.6555 Z" id="Stroke-14" stroke="#40AAE0"></path>
                <path d="M161.633,189.6555 C161.633,195.962868 166.752273,201.076 173.047097,201.076 L264.622903,201.076 C270.926735,201.076 276.037,195.964255 276.037,189.6555 L276.037,189.6555 C276.037,183.348132 270.917727,178.235 264.622903,178.235 L173.047097,178.235 C166.743265,178.235 161.633,183.346745 161.633,189.6555 L161.633,189.6555 Z" id="Stroke-16" stroke="#40AAE0"></path>
                <text id="Type-in-spot-num." font-family="OpenSans-Light, Open Sans" font-size="10" font-weight="300" fill="#221F20">
                    <tspan x="17.3623" y="192.161236">Type in spot num.</tspan>
                </text>
                <path d="M0.5,248.9635 C0.5,255.270868 5.6192734,260.384 11.9140972,260.384 L103.489903,260.384 C109.793735,260.384 114.904,255.272255 114.904,248.9635 L114.904,248.9635 C114.904,242.656132 109.784727,237.543 103.489903,237.543 L11.9140972,237.543 C5.61026539,237.543 0.5,242.654745 0.5,248.9635 L0.5,248.9635 Z" id="Stroke-17" stroke="#40AAE0"></path>
                <text id="Select-time-desired" font-family="OpenSans-Light, Open Sans" font-size="10" font-weight="300" fill="#221F20">
                    <tspan x="14.584" y="251.469336">Select time desired</tspan>
                </text>
                <path d="M0.5,279.0795 C0.5,285.386868 5.6192734,290.5 11.9140972,290.5 L103.489903,290.5 C109.793735,290.5 114.904,285.388255 114.904,279.0795 L114.904,279.0795 C114.904,272.772132 109.784727,267.659 103.489903,267.659 L11.9140972,267.659 C5.61026539,267.659 0.5,272.770745 0.5,279.0795 L0.5,279.0795 Z" id="Stroke-19" stroke="#40AAE0"></path>
                <text id="Select-payment" font-family="OpenSans-Light, Open Sans" font-size="10" font-weight="300" fill="#221F20">
                    <tspan x="22.9902" y="281.584536">Select payment</tspan>
                </text>
                <path d="M0.5,309.1945 C0.5,315.501868 5.6192734,320.615 11.9140972,320.615 L103.489903,320.615 C109.793735,320.615 114.904,315.503255 114.904,309.1945 L114.904,309.1945 C114.904,302.887132 109.784727,297.774 103.489903,297.774 L11.9140972,297.774 C5.61026539,297.774 0.5,302.885745 0.5,309.1945 L0.5,309.1945 Z" id="Stroke-21" stroke="#40AAE0"></path>
                <text id="Insert-payment" font-family="OpenSans-Light, Open Sans" font-size="10" font-weight="300" fill="#221F20">
                    <tspan x="23.4805" y="311.700336">Insert payment</tspan>
                </text>
                <path d="M0.5,339.3095 C0.5,345.616868 5.6192734,350.73 11.9140972,350.73 L103.489903,350.73 C109.793735,350.73 114.904,345.618255 114.904,339.3095 L114.904,339.3095 C114.904,333.002132 109.784727,327.889 103.489903,327.889 L11.9140972,327.889 C5.61026539,327.889 0.5,333.000745 0.5,339.3095 L0.5,339.3095 Z" id="Stroke-23" stroke="#40AAE0"></path>
                <text id="Wait-for-ticket" font-family="OpenSans-Light, Open Sans" font-size="10" font-weight="300" fill="#221F20">
                    <tspan x="26.4785" y="341.815536">Wait for ticket</tspan>
                </text>
                <path d="M0.5,369.4255 C0.5,375.732868 5.6192734,380.846 11.9140972,380.846 L103.489903,380.846 C109.793735,380.846 114.904,375.734255 114.904,369.4255 L114.904,369.4255 C114.904,363.118132 109.784727,358.005 103.489903,358.005 L11.9140972,358.005 C5.61026539,358.005 0.5,363.116745 0.5,369.4255 L0.5,369.4255 Z" id="Stroke-25" stroke="#40AAE0"></path>
                <text id="Wait-for-screen" font-family="OpenSans-Light, Open Sans" font-size="10" font-weight="300" fill="#221F20">
                    <tspan x="23.4102" y="371.930736">Wait for screen</tspan>
                </text>
                <path d="M161.633,248.9635 C161.633,255.270868 166.752273,260.384 173.047097,260.384 L264.622903,260.384 C270.926735,260.384 276.037,255.272255 276.037,248.9635 L276.037,248.9635 C276.037,242.656132 270.917727,237.543 264.622903,237.543 L173.047097,237.543 C166.743265,237.543 161.633,242.654745 161.633,248.9635 L161.633,248.9635 Z" id="Stroke-27" stroke="#40AAE0"></path>
                <text id="Conﬁrm-account-" font-family="OpenSans-Light, Open Sans" font-size="10" font-weight="300" fill="#221F20">
                    <tspan x="181.3418" y="251.469336">Conﬁrm account </tspan>
                </text>
                <path d="M283.633,248.9635 C283.633,255.270868 288.752273,260.384 295.047097,260.384 L386.622903,260.384 C392.926735,260.384 398.037,255.272255 398.037,248.9635 L398.037,248.9635 C398.037,242.656132 392.917727,237.543 386.622903,237.543 L295.047097,237.543 C288.743265,237.543 283.633,242.654745 283.633,248.9635 L283.633,248.9635 Z" id="Stroke-28" stroke="#40AAE0"></path>
                <text id="Enter-credit-card-" font-family="OpenSans-Light, Open Sans" font-size="10" font-weight="300" fill="#221F20">
                    <tspan x="303.0537" y="251.469336">Enter credit card </tspan>
                </text>
                <path d="M283.633,339.0595 C283.633,345.366868 288.752273,350.48 295.047097,350.48 L386.622903,350.48 C392.926735,350.48 398.037,345.368255 398.037,339.0595 L398.037,339.0595 C398.037,332.752132 392.917727,327.639 386.622903,327.639 L295.047097,327.639 C288.743265,327.639 283.633,332.750745 283.633,339.0595 L283.633,339.0595 Z" id="Stroke-30" stroke="#40AAE0"></path>
                <text id="Failure-notiﬁcation" font-family="OpenSans-Light, Open Sans" font-size="10" font-weight="300" fill="#221F20">
                    <tspan x="299.1377" y="341.565536">Failure notiﬁcation</tspan>
                </text>
                <path d="M283.633,368.8535 C283.633,375.160868 288.752273,380.274 295.047097,380.274 L386.622903,380.274 C392.926735,380.274 398.037,375.162255 398.037,368.8535 L398.037,368.8535 C398.037,362.546132 392.917727,357.433 386.622903,357.433 L295.047097,357.433 C288.743265,357.433 283.633,362.544745 283.633,368.8535 L283.633,368.8535 Z" id="Stroke-32" stroke="#40AAE0"></path>
                <text id="Repeat-transaction" font-family="OpenSans-Light, Open Sans" font-size="10" font-weight="300" fill="#221F20">
                    <tspan x="298.2031" y="371.359436">Repeat transaction</tspan>
                </text>
                <path d="M283.633,398.6475 C283.633,404.954868 288.752273,410.068 295.047097,410.068 L386.622903,410.068 C392.926735,410.068 398.037,404.956255 398.037,398.6475 L398.037,398.6475 C398.037,392.340132 392.917727,387.227 386.622903,387.227 L295.047097,387.227 C288.743265,387.227 283.633,392.338745 283.633,398.6475 L283.633,398.6475 Z" id="Stroke-34" stroke="#40AAE0"></path>
                <text id="Notify-Park-ATL" font-family="OpenSans-Light, Open Sans" font-size="10" font-weight="300" fill="#221F20">
                    <tspan x="306.6602" y="401.152936">Notify Park ATL</tspan>
                </text>
                <text id="Select-Transaction" font-family="OpenSans-Light, Open Sans" font-size="10" font-weight="300" fill="#221F20">
                    <tspan x="178.2602" y="192.162936">Select Transaction</tspan>
                </text>
                <path d="M138.2683,23.3407 L138.2683,29.1817" id="Stroke-36" stroke="#40AAE0"></path>
                <path d="M77.3842,59.7928 L77.3842,52.1338" id="Stroke-37" stroke="#40AAE0"></path>
                <path d="M198.5171,59.7928 L198.5171,52.1338" id="Stroke-38" stroke="#40AAE0"></path>
                <path d="M198.8348,82.634 L198.8348,89.403" id="Stroke-39" stroke="#40AAE0"></path>
                <path d="M77.7018,82.634 L77.7018,89.403" id="Stroke-40" stroke="#40AAE0"></path>
                <path d="M77.3842,112.2445 L77.3842,119.0135" id="Stroke-41" stroke="#40AAE0"></path>
                <path d="M198.5171,112.2445 L198.5171,119.0135" id="Stroke-42" stroke="#40AAE0"></path>
                <path d="M198.8348,141.855 L198.8348,148.624" id="Stroke-43" stroke="#40AAE0"></path>
                <path d="M77.7018,141.855 L77.7018,148.624" id="Stroke-44" stroke="#40AAE0"></path>
                <path d="M198.8348,171.4655 L198.8348,178.2345" id="Stroke-45" stroke="#40AAE0"></path>
                <path d="M77.7018,171.4655 L77.7018,178.2345" id="Stroke-46" stroke="#40AAE0"></path>
                <path d="M123.7175,171.1047 L123.7175,207.7157" id="Stroke-47" stroke="#40AAE0"></path>
                <path d="M57.7018,201.076 L57.7018,237.007" id="Stroke-48" stroke="#40AAE0"></path>
                <path d="M219.1524,201.076 L219.1524,237.543" id="Stroke-49" stroke="#40AAE0"></path>
                <path d="M114.9037,248.6135 L123.7177,248.6135" id="Stroke-50" stroke="#40AAE0"></path>
                <path d="M123.7175,248.6135 L123.7175,230.5575" id="Stroke-51" stroke="#40AAE0"></path>
                <path d="M161.95,280.3045 C161.95,286.611868 167.069273,291.725 173.364097,291.725 L264.939903,291.725 C271.243735,291.725 276.354,286.613255 276.354,280.3045 L276.354,280.3045 C276.354,273.997132 271.234727,268.884 264.939903,268.884 L173.364097,268.884 C167.060265,268.884 161.95,273.995745 161.95,280.3045 L161.95,280.3045 Z" id="Stroke-52" stroke="#40AAE0"></path>
                <text id="Select-time-desired" font-family="OpenSans-Light, Open Sans" font-size="10" font-weight="300" fill="#221F20">
                    <tspan x="176.0347" y="282.810136">Select time desired</tspan>
                </text>
                <path d="M161.95,309.4645 C161.95,315.771868 167.069273,320.885 173.364097,320.885 L264.939903,320.885 C271.243735,320.885 276.354,315.773255 276.354,309.4645 L276.354,309.4645 C276.354,303.157132 271.234727,298.044 264.939903,298.044 L173.364097,298.044 C167.060265,298.044 161.95,303.155745 161.95,309.4645 L161.95,309.4645 Z" id="Stroke-53" stroke="#40AAE0"></path>
                <text id="Complete-transaction" font-family="OpenSans-Light, Open Sans" font-size="10" font-weight="300" fill="#221F20">
                    <tspan x="170.2275" y="311.970336">Complete transaction</tspan>
                </text>
                <path d="M161.95,339.0595 C161.95,345.366868 167.069273,350.48 173.364097,350.48 L264.939903,350.48 C271.243735,350.48 276.354,345.368255 276.354,339.0595 L276.354,339.0595 C276.354,332.752132 271.234727,327.639 264.939903,327.639 L173.364097,327.639 C167.060265,327.639 161.95,332.750745 161.95,339.0595 L161.95,339.0595 Z" id="Stroke-54" stroke="#40AAE0"></path>
                <text id="Wait-for-comﬁrmation" font-family="OpenSans-Light, Open Sans" font-size="10" font-weight="300" fill="#221F20">
                    <tspan x="170.2397" y="341.565036">Wait for comﬁrmation</tspan>
                </text>
                <path d="M218.5171,268.8838 L218.5171,260.3838" id="Stroke-55" stroke="#40AAE0"></path>
                <path d="M276.3543,189.4104 L340.8343,189.4104" id="Stroke-56" stroke="#40AAE0"></path>
                <path d="M340.8348,189.4104 L340.8348,237.0074" id="Stroke-57" stroke="#40AAE0"></path>
                <path d="M340.8348,260.3842 L340.8348,280.3042" id="Stroke-58" stroke="#40AAE0"></path>
                <path d="M340.8348,280.3044 L276.3548,280.3044" id="Stroke-59" stroke="#40AAE0"></path>
                <path d="M152.8191,230.5573 L152.8191,280.3043" id="Stroke-60" stroke="#40AAE0"></path>
                <path d="M152.8191,280.3044 L161.6331,280.3044" id="Stroke-61" stroke="#40AAE0"></path>
                <path d="M57.7018,260.3842 L57.7018,268.0492" id="Stroke-62" stroke="#40AAE0"></path>
                <path d="M57.7018,290.4996 L57.7018,297.2686" id="Stroke-63" stroke="#40AAE0"></path>
                <path d="M57.7018,320.086 L57.7018,327.384" id="Stroke-64" stroke="#40AAE0"></path>
                <path d="M57.7018,350.7304 L57.7018,357.4994" id="Stroke-65" stroke="#40AAE0"></path>
                <path d="M219.1681,291.725 L219.1681,298.044" id="Stroke-66" stroke="#40AAE0"></path>
                <path d="M219.1681,320.615 L219.1681,327.384" id="Stroke-67" stroke="#40AAE0"></path>
                <path d="M276.3543,310.8768 L340.8343,310.8768" id="Stroke-68" stroke="#40AAE0"></path>
                <path d="M340.8348,310.8768 L340.8348,327.3848" id="Stroke-69" stroke="#40AAE0"></path>
                <path d="M100.28,380.8458 L100.28,388.7138" id="Stroke-70" stroke="#40AAE0"></path>
                <path d="M340.8348,350.4803 L340.8348,357.4333" id="Stroke-71" stroke="#40AAE0"></path>
                <path d="M340.8348,380.2741 L340.8348,387.2271" id="Stroke-72" stroke="#40AAE0"></path>
                <path d="M177.9466,350.4803 L177.9466,388.3243" id="Stroke-73" stroke="#40AAE0"></path>
            </g>
        </g>
    </g>
</svg>