<?xml version="1.0" encoding="UTF-8" standalone="no"?>
<svg width="150px" height="150px" viewBox="0 0 150 150" version="1.1" xmlns="http://www.w3.org/2000/svg" xmlns:xlink="http://www.w3.org/1999/xlink">
    <!-- Generator: Sketch 39.1 (31720) - http://www.bohemiancoding.com/sketch -->
    <title>Group 15</title>
    <desc>Created with Sketch.</desc>
    <defs>
        <rect id="path-1" x="0" y="0" width="72" height="72" rx="8"></rect>
        <mask id="mask-2" maskContentUnits="userSpaceOnUse" maskUnits="objectBoundingBox" x="0" y="0" width="72" height="72" fill="white">
            <use xlink:href="#path-1"></use>
        </mask>
        <rect id="path-3" x="0" y="78" width="72" height="72" rx="8"></rect>
        <mask id="mask-4" maskContentUnits="userSpaceOnUse" maskUnits="objectBoundingBox" x="0" y="0" width="72" height="72" fill="white">
            <use xlink:href="#path-3"></use>
        </mask>
        <rect id="path-5" x="78" y="0" width="72" height="72" rx="8"></rect>
        <mask id="mask-6" maskContentUnits="userSpaceOnUse" maskUnits="objectBoundingBox" x="0" y="0" width="72" height="72" fill="white">
            <use xlink:href="#path-5"></use>
        </mask>
        <rect id="path-7" x="78" y="78" width="72" height="72" rx="8"></rect>
        <mask id="mask-8" maskContentUnits="userSpaceOnUse" maskUnits="objectBoundingBox" x="0" y="0" width="72" height="72" fill="white">
            <use xlink:href="#path-7"></use>
        </mask>
        <path d="M1.908,0.333 L0.334,1.906 C-0.115,2.355 -0.108,3.066 0.334,3.508 L30.49,33.668 C30.935,34.112 31.65,34.11 32.092,33.667 L33.665,32.094 C34.115,31.645 34.108,30.934 33.666,30.492 L3.51,0.332 C3.288,0.11 2.999,0 2.71,0 C2.42,0 2.129,0.111 1.908,0.333 L1.908,0.333 Z" id="path-9"></path>
        <path d="M1.908,0.333 L0.334,1.906 C-0.115,2.355 -0.108,3.066 0.334,3.508 L30.49,33.668 C30.935,34.112 31.65,34.11 32.092,33.667 L33.665,32.094 C34.115,31.645 34.108,30.934 33.666,30.492 L3.51,0.332 C3.288,0.11 2.999,1.13686838e-13 2.71,1.13686838e-13 C2.42,1.13686838e-13 2.129,0.111 1.908,0.333 L1.908,0.333 Z" id="path-11"></path>
        <path d="M1.908,0.333 L0.334,1.906 C-0.115,2.355 -0.108,3.066 0.334,3.508 L30.49,33.668 C30.935,34.112 31.65,34.11 32.092,33.667 L33.665,32.094 C34.115,31.645 34.108,30.934 33.666,30.492 L3.51,0.332 C3.288,0.11 2.999,1.13686838e-13 2.71,1.13686838e-13 C2.42,1.13686838e-13 2.129,0.111 1.908,0.333 L1.908,0.333 Z" id="path-13"></path>
    </defs>
    <g id="Page-1" stroke="none" stroke-width="1" fill="none" fill-rule="evenodd">
        <g id="Group-15">
            <use id="Rectangle-2" stroke="#01B4DC" mask="url(#mask-2)" stroke-width="8" xlink:href="#path-1"></use>
            <use id="Rectangle-2-Copy-2" stroke="#01B4DC" mask="url(#mask-4)" stroke-width="8" xlink:href="#path-3"></use>
            <use id="Rectangle-2-Copy" stroke="#01B4DC" mask="url(#mask-6)" stroke-width="8" xlink:href="#path-5"></use>
            <use id="Rectangle-2-Copy-3" stroke="#01B4DC" mask="url(#mask-8)" stroke-width="8" xlink:href="#path-7"></use>
            <g id="Icon-Copy-2" transform="translate(19.000000, 97.000000)">
                <g id="Group-22">
                    <mask id="mask-10" fill="white">
                        <use xlink:href="#path-9"></use>
                    </mask>
                    <g id="Clip-21"></g>
                </g>
                <path d="M2.032,2.047 L31.873,31.716" id="Stroke-23" stroke="#01B4DC" stroke-width="4" stroke-linecap="round"></path>
                <path d="M31.8732,2.047 L2.0322,31.716" id="Stroke-25" stroke="#01B4DC" stroke-width="4" stroke-linecap="round"></path>
            </g>
            <g id="Icon-Copy" transform="translate(114.041631, 36.041631) rotate(45.000000) translate(-114.041631, -36.041631) translate(97.041631, 19.041631)">
                <g id="Group-22">
                    <mask id="mask-12" fill="white">
                        <use xlink:href="#path-11"></use>
                    </mask>
                    <g id="Clip-21"></g>
                </g>
                <path d="M2.032,2.047 L31.873,31.716" id="Stroke-23" stroke="#01B4DC" stroke-width="4" stroke-linecap="round"></path>
                <path d="M31.8732,2.047 L2.0322,31.716" id="Stroke-25" stroke="#01B4DC" stroke-width="4" stroke-linecap="round"></path>
            </g>
            <path d="M129.012477,99.0482617 L99.1714766,128.717262" id="Stroke-25" stroke="#01B4DC" stroke-width="4" stroke-linecap="round" transform="translate(114.091977, 113.882762) rotate(45.000000) translate(-114.091977, -113.882762) "></path>
            <g id="Group-22" transform="translate(36.958369, 36.041631) rotate(45.000000) translate(-36.958369, -36.041631) translate(19.958369, 19.041631)">
                <mask id="mask-14" fill="white">
                    <use xlink:href="#path-13"></use>
                </mask>
                <g id="Clip-21"></g>
            </g>
            <path d="M51.9292154,21.0898923 L22.0882154,50.7588923" id="Stroke-25" stroke="#01B4DC" stroke-width="4" stroke-linecap="round" transform="translate(37.008715, 35.924392) rotate(45.000000) translate(-37.008715, -35.924392) "></path>
            <circle id="Oval" fill="#01B4DC" cx="114" cy="100" r="3"></circle>
            <circle id="Oval-Copy" fill="#01B4DC" cx="114" cy="128" r="3"></circle>
        </g>
    </g>
</svg>