<?xml version="1.0" encoding="UTF-8" standalone="no"?>
<svg width="100px" height="144px" viewBox="0 0 100 144" version="1.1" xmlns="http://www.w3.org/2000/svg" xmlns:xlink="http://www.w3.org/1999/xlink">
    <!-- Generator: Sketch 39.1 (31720) - http://www.bohemiancoding.com/sketch -->
    <title>Group 19</title>
    <desc>Created with Sketch.</desc>
    <defs></defs>
    <g id="Page-1" stroke="none" stroke-width="1" fill="none" fill-rule="evenodd">
        <g id="Group-19" transform="translate(2.000000, 2.000000)" stroke="#01B4DC" stroke-width="4">
            <path d="M46.7929688,14 L57.0010378,14 C61.9710274,14 66,18.0304669 66,23.0002635 L66,52.9997365 C66,57.9704448 61.9707562,62 56.9958392,62 L9.00416082,62 C4.03130011,62 0,57.9695331 0,52.9997365 L0,23.0002635 L0,23.0002635 C0,18.0295552 4.03377672,14 8.99731309,14 L19.3544922,14" id="Rectangle"></path>
            <path d="M66.3378906,38 L79.0029594,38 L79.0029594,38 C88.3901657,38 96,45.6090949 96,55 L96,55 C96,64.3888407 88.3867981,72 79.0029594,72 L16.9970406,72" id="Rectangle-4"></path>
            <circle id="Oval-5" cx="33" cy="14" r="14"></circle>
            <circle id="Oval-5-Copy-2" cx="47.5" cy="130.5" r="9.5"></circle>
            <rect id="Rectangle-5" stroke-linecap="round" stroke-linejoin="round" x="14" y="40" width="38" height="11" rx="5.5"></rect>
            <path d="M9.50062857,91 C4.2535763,91 0,86.7478587 0,81.5 C0,76.2532949 4.24886942,72 9.50062857,72 L73.4993714,72" id="Rectangle-6"></path>
            <path d="M9.50062857,91 L86.4993714,91 C91.7464237,91 96,95.2521413 96,100.5 C96,105.746705 91.7511306,110 86.4993714,110 L54.5357194,110 C50.6699545,110 47.5361328,113.136363 47.5361328,117.001066 L47.5361328,120.743559" id="Rectangle-6-Copy"></path>
        </g>
    </g>
</svg>