<?xml version="1.0" encoding="UTF-8" standalone="no"?>
<svg width="151px" height="152px" viewBox="0 0 151 152" version="1.1" xmlns="http://www.w3.org/2000/svg" xmlns:xlink="http://www.w3.org/1999/xlink">
    <!-- Generator: Sketch 39.1 (31720) - http://www.bohemiancoding.com/sketch -->
    <title>Group 17</title>
    <desc>Created with Sketch.</desc>
    <defs></defs>
    <g id="Page-1" stroke="none" stroke-width="1" fill="none" fill-rule="evenodd" stroke-linecap="round">
        <g id="Group-17" transform="translate(2.000000, 2.000000)" stroke="#01B4DC" stroke-width="4">
            <path d="M54.8764433,92.6941986 L54.8764433,63.1143105 C54.8764433,58.701139 58.4628207,55.1235567 62.871794,55.1235567 L192.698848,55.1235567 C197.114558,55.1235567 200.694199,58.7082476 200.694199,63.1216657 L200.694199,81.6014252" id="Path-2-Copy-2" transform="translate(127.785321, 73.908878) rotate(90.000000) translate(-127.785321, -73.908878) "></path>
            <path d="M-41.0788475,105.194199 L-41.0788475,50.6276461 C-41.0788475,46.2071096 -37.4924701,42.6235567 -33.0834969,42.6235567 L96.7435572,42.6235567 C101.159267,42.6235567 104.738908,46.2082476 104.738908,50.6216657 L104.738908,69.1014252" id="Path-2-Copy-3" transform="translate(31.830030, 73.908878) scale(-1, 1) rotate(90.000000) translate(-31.830030, -73.908878) "></path>
            <path d="M99.7662272,14.8930141 C99.7662272,22.6817485 93.4633837,28.9829664 85.6762749,28.9829664 C77.8875405,28.9829664 71.5863226,22.6817485 71.5863226,14.8930141 C71.5863226,7.10590535 77.8875405,0.8046875 85.6762749,0.8046875 C93.4633837,0.8046875 99.7662272,7.10590535 99.7662272,14.8930141 L99.7662272,14.8930141 L99.7662272,14.8930141 Z" id="Shape" stroke-linejoin="round"></path>
            <path d="M117.975699,75.367473 C115.223387,74.1286887 97.0610533,65.1027956 97.0610533,65.1027956 C97.0610533,65.1027956 90.6216508,51.3721233 87.2905891,43.8597581 C84.1546114,36.7863321 81.8981382,34.9444127 77.4388398,34.9444127 L70.5588723,34.9444127 C66.9546928,34.9444127 65.6346234,36.2644821 63.4317983,37.5032664 L44.8305251,53.3262161 C43.2048239,54.2609943 42.1594981,55.6639745 41.528726,57.6457042 L37.5376296,84.421003 C36.9605056,88.6884686 39.2169789,90.5043769 41.7758326,91.026227 C43.8404731,91.466792 46.9488138,90.4214661 47.5812116,87.4204217 C48.0770504,84.9444788 51.8454258,63.0381551 51.8454258,63.0381551 L63.982911,53.7098816 C61.97517,63.0121439 59.9381664,73.1922848 59.276506,76.6615312 C58.1206324,82.5790835 61.0647773,87.0627674 63.4041613,90.5840362 C65.52245,93.7769134 92.9870461,137.066085 96.5928513,141.769239 C100.223042,146.477269 103.528093,148.815027 108.562889,146.007442 C112.799467,143.640421 112.084158,138.24797 109.7464,134.255248 C107.408641,130.262525 79.6969388,85.1915854 79.6969388,85.1915854 L84.3464442,65.1027956 C84.3464442,65.1027956 87.5653326,69.6986529 89.217045,72.2851435 C90.0136386,73.4979166 90.8411205,73.9921298 93.014683,75.1740146 C95.5735367,76.5786204 107.985765,82.2198036 111.754141,83.9267898 C115.111214,85.4126807 119.266506,85.9914303 120.919844,83.0180229 C122.597568,80.0722523 120.480905,76.5233466 117.975699,75.367473 L117.975699,75.367473 L117.975699,75.367473 Z" id="Shape" stroke-linejoin="round"></path>
            <path d="M57.3735856,93.4696559 L51.7600394,113.256065 C51.7600394,113.256065 40.037108,130.208877 36.7889571,134.941293 C34.340651,138.517836 32.4954802,142.866587 36.6800351,146.031827 C41.38644,149.580733 45.1564411,144.957239 47.5771102,142.204926 C49.8059466,139.701347 58.8871135,127.014374 61.4459671,123.79386 C63.1529534,121.620298 64.0877316,119.806015 64.8323027,117.988481 C65.298879,116.77896 67.1440498,111.770174 68.3259346,108.522023 L57.3735856,93.4696559 L57.3735856,93.4696559 Z" id="Shape" stroke-linejoin="round"></path>
        </g>
    </g>
</svg>