<?xml version="1.0" encoding="UTF-8" standalone="no"?>
<svg width="1695px" height="1128px" viewBox="0 0 1695 1128" version="1.1" xmlns="http://www.w3.org/2000/svg" xmlns:xlink="http://www.w3.org/1999/xlink">
    <!-- Generator: Sketch 40 (33762) - http://www.bohemiancoding.com/sketch -->
    <title>Group 52</title>
    <desc>Created with Sketch.</desc>
    <defs>
        <path d="M267.928695,58.5465256 C267.927642,58.5465261 267.92659,58.5465264 267.925537,58.5465264 C257.255431,58.5465264 248.604517,49.9636248 248.604517,39.3834946 L248.604517,23.9157737 C248.604517,13.3341138 257.257678,4.75274191 267.925537,4.75274191 L311.339904,4.75274191 C322.010011,4.75274191 330.660924,13.3356435 330.660924,23.9157737 L330.660924,24.2647849 C330.660924,27.4214179 328.080162,29.9803745 324.896631,29.9803745 C321.7131,29.9803745 319.132338,27.4214179 319.132338,24.2647849 L319.132338,23.9157737 C319.132338,19.6473946 315.641419,16.1839211 311.339904,16.1839211 L267.925537,16.1839211 C263.625138,16.1839211 260.133103,19.6469852 260.133103,23.9157737 L260.133103,39.3834946 C260.133103,43.6518737 263.624022,47.1153472 267.925537,47.1153472 C267.92659,47.1153472 267.927642,47.1153475 267.928695,47.115348 C267.929747,47.1153475 267.9308,47.1153472 267.931853,47.1153472 L297.796071,47.1153472 C300.979602,47.1153472 303.560364,49.6743038 303.560364,52.8309368 C303.560364,55.9875698 300.979602,58.5465264 297.796071,58.5465264 L267.931853,58.5465264 C267.9308,58.5465264 267.929747,58.5465261 267.928695,58.5465256 Z" id="path-1"></path>
        <path d="M267.928695,58.5465256 C267.927642,58.5465261 267.92659,58.5465264 267.925537,58.5465264 C257.255431,58.5465264 248.604517,49.9636248 248.604517,39.3834946 L248.604517,23.9157737 C248.604517,13.3341138 257.257678,4.75274191 267.925537,4.75274191 L311.339904,4.75274191 C322.010011,4.75274191 330.660924,13.3356435 330.660924,23.9157737 L330.660924,24.2647849 C330.660924,27.4214179 328.080162,29.9803745 324.896631,29.9803745 C321.7131,29.9803745 319.132338,27.4214179 319.132338,24.2647849 L319.132338,23.9157737 C319.132338,19.6473946 315.641419,16.1839211 311.339904,16.1839211 L267.925537,16.1839211 C263.625138,16.1839211 260.133103,19.6469852 260.133103,23.9157737 L260.133103,39.3834946 C260.133103,43.6518737 263.624022,47.1153472 267.925537,47.1153472 C267.92659,47.1153472 267.927642,47.1153475 267.928695,47.115348 C267.929747,47.1153475 267.9308,47.1153472 267.931853,47.1153472 L297.796071,47.1153472 C300.979602,47.1153472 303.560364,49.6743038 303.560364,52.8309368 C303.560364,55.9875698 300.979602,58.5465264 297.796071,58.5465264 L267.931853,58.5465264 C267.9308,58.5465264 267.929747,58.5465261 267.928695,58.5465256 Z" id="path-3"></path>
        <path d="M267.928695,58.5465256 C267.927642,58.5465261 267.92659,58.5465264 267.925537,58.5465264 C257.255431,58.5465264 248.604517,49.9636248 248.604517,39.3834946 L248.604517,23.9157737 C248.604517,13.3341138 257.257678,4.75274191 267.925537,4.75274191 L311.339904,4.75274191 C322.010011,4.75274191 330.660924,13.3356435 330.660924,23.9157737 L330.660924,24.2647849 C330.660924,27.4214179 328.080162,29.9803745 324.896631,29.9803745 C321.7131,29.9803745 319.132338,27.4214179 319.132338,24.2647849 L319.132338,23.9157737 C319.132338,19.6473946 315.641419,16.1839211 311.339904,16.1839211 L267.925537,16.1839211 C263.625138,16.1839211 260.133103,19.6469852 260.133103,23.9157737 L260.133103,39.3834946 C260.133103,43.6518737 263.624022,47.1153472 267.925537,47.1153472 C267.92659,47.1153472 267.927642,47.1153475 267.928695,47.115348 C267.929747,47.1153475 267.9308,47.1153472 267.931853,47.1153472 L297.796071,47.1153472 C300.979602,47.1153472 303.560364,49.6743038 303.560364,52.8309368 C303.560364,55.9875698 300.979602,58.5465264 297.796071,58.5465264 L267.931853,58.5465264 C267.9308,58.5465264 267.929747,58.5465261 267.928695,58.5465256 Z" id="path-5"></path>
        <path d="M0,70.9036537 C0,62.6188401 6.70138367,56.4318072 14.9595678,57.0838665 L293.040432,79.0408984 C301.302373,79.6932544 308,86.9289753 308,95.2277468 L308,177.127159 C308,185.414553 301.280543,192.142473 293.001316,192.154375 L14.998684,192.554047 C6.71513958,192.565956 0,185.86785 0,177.574627 L0,70.9036537 Z" id="path-7"></path>
        <filter x="-50%" y="-50%" width="200%" height="200%" filterUnits="objectBoundingBox" id="filter-8">
            <feOffset dx="0" dy="3" in="SourceAlpha" result="shadowOffsetOuter1"></feOffset>
            <feGaussianBlur stdDeviation="5.5" in="shadowOffsetOuter1" result="shadowBlurOuter1"></feGaussianBlur>
            <feColorMatrix values="0 0 0 0 0.0734215561   0 0 0 0 0.0734215561   0 0 0 0 0.0734215561  0 0 0 0.1 0" type="matrix" in="shadowBlurOuter1"></feColorMatrix>
        </filter>
        <path d="M27.0439024,19.0184597 C27.0439024,14.0513386 31.0801773,9.86520332 36.0359908,9.66938095 L271.753669,0.355310411 C276.719862,0.15907789 280.745757,4.02100648 280.745757,8.99966295 L280.745757,108.804503 C280.745757,113.77488 276.709482,117.797868 271.753669,117.790136 L36.0359908,117.422339 C31.0697975,117.41459 27.0439024,113.378558 27.0439024,108.41454 L27.0439024,19.0184597 Z" id="path-9"></path>
        <filter x="-50%" y="-50%" width="200%" height="200%" filterUnits="objectBoundingBox" id="filter-10">
            <feOffset dx="0" dy="3" in="SourceAlpha" result="shadowOffsetOuter1"></feOffset>
            <feGaussianBlur stdDeviation="5" in="shadowOffsetOuter1" result="shadowBlurOuter1"></feGaussianBlur>
            <feColorMatrix values="0 0 0 0 0.138525723   0 0 0 0 0.138525723   0 0 0 0 0.138525723  0 0 0 0.4 0" type="matrix" in="shadowBlurOuter1"></feColorMatrix>
        </filter>
        <path d="M0.317593596,70.9029802 C0.142191496,62.6185385 6.70138367,56.4318072 14.9595678,57.0838665 L293.040432,79.0408984 C301.302373,79.6932544 308.174141,86.9306278 308.389449,95.2250358 L310.454301,174.770495 C310.669388,183.056391 304.124293,189.783098 295.845066,189.795 L17.842434,190.194672 C9.55888958,190.206581 2.70175505,183.509651 2.5261564,175.215926 L0.317593596,70.9029802 Z" id="path-11"></path>
        <filter x="-50%" y="-50%" width="200%" height="200%" filterUnits="objectBoundingBox" id="filter-12">
            <feOffset dx="0" dy="3" in="SourceAlpha" result="shadowOffsetOuter1"></feOffset>
            <feGaussianBlur stdDeviation="5.5" in="shadowOffsetOuter1" result="shadowBlurOuter1"></feGaussianBlur>
            <feColorMatrix values="0 0 0 0 0.0734215561   0 0 0 0 0.0734215561   0 0 0 0 0.0734215561  0 0 0 0.1 0" type="matrix" in="shadowBlurOuter1"></feColorMatrix>
        </filter>
        <path d="M27.0439024,19.0184597 C27.0439024,14.0513386 31.0801773,9.86520332 36.0359908,9.66938095 L271.753669,0.355310411 C276.719862,0.15907789 280.745757,4.02100648 280.745757,8.99966295 L280.745757,108.804503 C280.745757,113.77488 276.709482,117.797868 271.753669,117.790136 L36.0359908,117.422339 C31.0697975,117.41459 27.0439024,113.378558 27.0439024,108.41454 L27.0439024,19.0184597 Z" id="path-13"></path>
        <filter x="-50%" y="-50%" width="200%" height="200%" filterUnits="objectBoundingBox" id="filter-14">
            <feOffset dx="0" dy="3" in="SourceAlpha" result="shadowOffsetOuter1"></feOffset>
            <feGaussianBlur stdDeviation="5" in="shadowOffsetOuter1" result="shadowBlurOuter1"></feGaussianBlur>
            <feColorMatrix values="0 0 0 0 0.138525723   0 0 0 0 0.138525723   0 0 0 0 0.138525723  0 0 0 0.4 0" type="matrix" in="shadowBlurOuter1"></feColorMatrix>
        </filter>
        <path d="M0,70.8993233 C0,62.6169012 6.70138367,56.4318072 14.9595678,57.0838665 L293.040432,79.0408984 C301.302373,79.6932544 308,86.9357839 308,95.2315429 L308,179.349926 C308,187.639416 301.280543,194.369035 293.001316,194.380938 L14.998684,194.780609 C6.71513958,194.792518 0,188.079308 0,179.80552 L0,70.8993233 Z" id="path-15"></path>
        <filter x="-50%" y="-50%" width="200%" height="200%" filterUnits="objectBoundingBox" id="filter-16">
            <feOffset dx="0" dy="3" in="SourceAlpha" result="shadowOffsetOuter1"></feOffset>
            <feGaussianBlur stdDeviation="5.5" in="shadowOffsetOuter1" result="shadowBlurOuter1"></feGaussianBlur>
            <feColorMatrix values="0 0 0 0 0.0734215561   0 0 0 0 0.0734215561   0 0 0 0 0.0734215561  0 0 0 0.1 0" type="matrix" in="shadowBlurOuter1"></feColorMatrix>
        </filter>
        <path d="M27.0439024,19.0184597 C27.0439024,14.0513386 31.0801773,9.86520332 36.0359908,9.66938095 L271.753669,0.355310411 C276.719862,0.15907789 280.745757,4.02100648 280.745757,8.99966295 L280.745757,108.804503 C280.745757,113.77488 276.709482,117.797868 271.753669,117.790136 L36.0359908,117.422339 C31.0697975,117.41459 27.0439024,113.378558 27.0439024,108.41454 L27.0439024,19.0184597 Z" id="path-17"></path>
        <filter x="-50%" y="-50%" width="200%" height="200%" filterUnits="objectBoundingBox" id="filter-18">
            <feOffset dx="0" dy="3" in="SourceAlpha" result="shadowOffsetOuter1"></feOffset>
            <feGaussianBlur stdDeviation="5" in="shadowOffsetOuter1" result="shadowBlurOuter1"></feGaussianBlur>
            <feColorMatrix values="0 0 0 0 0.138525723   0 0 0 0 0.138525723   0 0 0 0 0.138525723  0 0 0 0.4 0" type="matrix" in="shadowBlurOuter1"></feColorMatrix>
        </filter>
    </defs>
    <g id="Page-1" stroke="none" stroke-width="1" fill="none" fill-rule="evenodd">
        <g id="Group-52" transform="translate(0.000000, 7.000000)">
            <g id="Group-51">
                <g id="Group-40" transform="translate(0.000000, 238.000000)">
                    <rect id="Rectangle-18" fill="#FFFFFF" x="0" y="0" width="525" height="500" rx="15"></rect>
                    <g id="Group" transform="translate(97.000000, 220.000000)">
                        <path d="M0.173816314,31.279112 C0.517562282,33.496756 1.82525221,35.5440244 3.91384326,36.749873 C5.57295058,37.7077591 7.44194387,37.973828 9.18726557,37.6383381 L14.6962724,37.6383381 C14.6962724,37.6383381 14.6947259,37.6369527 14.6917523,37.6341927 L19.5582724,37.6341927 L13.6564781,47.8564004 C11.5380124,51.5256906 12.800327,56.2205514 16.4592734,58.3330451 C20.1256802,60.449846 24.8170678,59.1881492 26.9337115,55.5220147 L38.9463557,34.7155046 C39.9785603,33.4100249 40.594995,31.7611569 40.594995,29.9685784 C40.594995,28.9462707 40.3938994,27.9698857 40.0290017,27.0770541 C39.4180118,25.5104688 38.2912852,24.1340202 36.7258885,23.230238 C35.1359348,22.3122778 33.353227,22.0296651 31.6713279,22.3029638 L21.1062589,22.3029641 L26.9832537,12.1237106 C29.1017194,8.45442044 27.8394047,3.75955959 24.1804584,1.64706591 C20.5140516,-0.469735021 15.822664,0.791961807 13.7060203,4.45809629 L1.73874545,25.1860243 C0.689493188,26.497072 0.0617647843,28.1596535 0.0617647843,29.9685784 C0.0617647843,30.4152353 0.100152086,30.853126 0.173816314,31.279112 Z" id="Combined-Shape" fill="#4990E2"></path>
                        <path d="M66.4017361,25.6578264 L54.0909757,4.33496386 C51.974332,0.668829383 47.2829444,-0.592867445 43.6165377,1.52393349 C39.9575913,3.63642716 38.6952767,8.33128801 40.8137423,12.0005782 L51.1875721,29.9685784 L40.8137423,47.9365786 C38.6952767,51.6058688 39.9575913,56.3007296 43.6165377,58.4132233 C47.2829444,60.5300242 51.974332,59.2683274 54.0909757,55.6021929 L66.4017361,34.2793304 C67.2593115,33.0057781 67.7157947,31.4990997 67.7140987,29.9685784 C67.7157947,28.4380571 67.2593115,26.9313787 66.4017361,25.6578264 Z" id="Combined-Shape" fill="#4990E2"></path>
                        <path d="M305.870289,25.8980848 C307.388836,25.888083 308.903016,26.5124294 309.982831,27.7429458 L328.907162,49.3083959 C330.880458,51.5570891 330.655933,54.9785723 328.405671,56.9504924 C326.155409,58.9224125 322.731538,58.6980436 320.758242,56.4493504 L303.452873,36.7288076 L295.510976,36.7288076 C292.518055,36.7288076 290.091813,34.3042573 290.091813,31.313423 C290.091813,28.3225887 292.518055,25.8980384 295.510976,25.8980384 L305.847603,25.8980384 C305.855169,25.8980384 305.862731,25.8980539 305.870289,25.8980848 Z" id="Combined-Shape" fill="#4990E2"></path>
                        <path d="M227.242725,36.7288076 C230.235646,36.7288076 232.661888,34.3042573 232.661888,31.313423 C232.661888,28.3225887 230.235646,25.8980384 227.242725,25.8980384 L183.84099,25.8980384 C180.848069,25.8980384 178.421827,28.3225887 178.421827,31.313423 C178.421827,34.3042573 180.848069,36.7288076 183.84099,36.7288076 L227.242725,36.7288076 Z" id="Line-Copy-21" fill="#4990E2"></path>
                        <path d="M181.121793,4.41653076 C169.141814,4.41653076 159.427513,14.0508853 159.427513,25.9276897 L159.427513,36.699156 C159.427513,48.5799617 169.139066,58.210315 181.121793,58.2103151 L235.380551,58.2103153 C238.376815,58.2103153 240.805768,55.8018855 240.805768,52.8309368 C240.805768,49.8599882 238.376816,47.4515584 235.380551,47.4515584 L181.121793,47.4515582 C175.131811,47.4515581 170.277947,42.6382783 170.277947,36.699156 L170.277947,25.9276897 C170.277947,19.9922499 175.134881,15.1752877 181.121793,15.1752877 L235.38055,15.1752877 C238.376814,15.1752877 240.805767,12.7668579 240.805767,9.79590921 C240.805767,6.82496052 238.376814,4.41653076 235.38055,4.41653076 L181.121793,4.41653076 Z" id="Mask" fill="#4990E2"></path>
                        <path d="M148.577079,15.2112938 C151.57,15.2112938 153.996242,12.7867435 153.996242,9.79590921 C153.996242,6.80507487 151.57,4.38052459 148.577079,4.38052459 L80.7618672,4.38052459 C77.7689463,4.38052459 75.3427044,6.80507487 75.3427044,9.79590921 C75.3427044,12.7867435 77.7689463,15.2112938 80.7618672,15.2112938 L148.577079,15.2112938 Z" id="Line-Copy-22" fill="#4990E2"></path>
                        <path d="M107.894006,15.2112938 L80.7618672,15.2112938 C77.7689463,15.2112938 75.3427044,12.7867435 75.3427044,9.79590921 C75.3427044,6.80507487 77.7689463,4.38052459 80.7618672,4.38052459 L148.577079,4.38052459 C151.57,4.38052459 153.996242,6.80507487 153.996242,9.79590921 C153.996242,12.7867435 151.57,15.2112938 148.577079,15.2112938 L118.732332,15.2112938 L118.732332,53.0732745 C118.732332,56.0641088 116.30609,58.4886591 113.313169,58.4886591 C110.320248,58.4886591 107.894006,56.0641088 107.894006,53.0732745 L107.894006,15.2112938 Z" id="Combined-Shape" fill="#4990E2"></path>
                        <mask id="mask-2" fill="white">
                            <use xlink:href="#path-1"></use>
                        </mask>
                        <use id="Combined-Shape" fill="#4990E2" xlink:href="#path-1"></use>
                    </g>
                </g>
                <g id="Group-40-Copy" transform="translate(585.000000, 238.000000)">
                    <rect id="Rectangle-18" fill="#4A90E2" x="0" y="0" width="525" height="500" rx="15"></rect>
                    <g id="Group" transform="translate(97.000000, 220.000000)">
                        <path d="M0.173816314,31.279112 C0.517562282,33.496756 1.82525221,35.5440244 3.91384326,36.749873 C5.57295058,37.7077591 7.44194387,37.973828 9.18726557,37.6383381 L14.6962724,37.6383381 C14.6962724,37.6383381 14.6947259,37.6369527 14.6917523,37.6341927 L19.5582724,37.6341927 L13.6564781,47.8564004 C11.5380124,51.5256906 12.800327,56.2205514 16.4592734,58.3330451 C20.1256802,60.449846 24.8170678,59.1881492 26.9337115,55.5220147 L38.9463557,34.7155046 C39.9785603,33.4100249 40.594995,31.7611569 40.594995,29.9685784 C40.594995,28.9462707 40.3938994,27.9698857 40.0290017,27.0770541 C39.4180118,25.5104688 38.2912852,24.1340202 36.7258885,23.230238 C35.1359348,22.3122778 33.353227,22.0296651 31.6713279,22.3029638 L21.1062589,22.3029641 L26.9832537,12.1237106 C29.1017194,8.45442044 27.8394047,3.75955959 24.1804584,1.64706591 C20.5140516,-0.469735021 15.822664,0.791961807 13.7060203,4.45809629 L1.73874545,25.1860243 C0.689493188,26.497072 0.0617647843,28.1596535 0.0617647843,29.9685784 C0.0617647843,30.4152353 0.100152086,30.853126 0.173816314,31.279112 Z" id="Combined-Shape" fill="#FFFFFF"></path>
                        <path d="M66.4017361,25.6578264 L54.0909757,4.33496386 C51.974332,0.668829383 47.2829444,-0.592867445 43.6165377,1.52393349 C39.9575913,3.63642716 38.6952767,8.33128801 40.8137423,12.0005782 L51.1875721,29.9685784 L40.8137423,47.9365786 C38.6952767,51.6058688 39.9575913,56.3007296 43.6165377,58.4132233 C47.2829444,60.5300242 51.974332,59.2683274 54.0909757,55.6021929 L66.4017361,34.2793304 C67.2593115,33.0057781 67.7157947,31.4990997 67.7140987,29.9685784 C67.7157947,28.4380571 67.2593115,26.9313787 66.4017361,25.6578264 Z" id="Combined-Shape" fill="#FFFFFF"></path>
                        <path d="M305.870289,25.8980848 C307.388836,25.888083 308.903016,26.5124294 309.982831,27.7429458 L328.907162,49.3083959 C330.880458,51.5570891 330.655933,54.9785723 328.405671,56.9504924 C326.155409,58.9224125 322.731538,58.6980436 320.758242,56.4493504 L303.452873,36.7288076 L295.510976,36.7288076 C292.518055,36.7288076 290.091813,34.3042573 290.091813,31.313423 C290.091813,28.3225887 292.518055,25.8980384 295.510976,25.8980384 L305.847603,25.8980384 C305.855169,25.8980384 305.862731,25.8980539 305.870289,25.8980848 Z" id="Combined-Shape" fill="#FFFFFF"></path>
                        <path d="M227.242725,36.7288076 C230.235646,36.7288076 232.661888,34.3042573 232.661888,31.313423 C232.661888,28.3225887 230.235646,25.8980384 227.242725,25.8980384 L183.84099,25.8980384 C180.848069,25.8980384 178.421827,28.3225887 178.421827,31.313423 C178.421827,34.3042573 180.848069,36.7288076 183.84099,36.7288076 L227.242725,36.7288076 Z" id="Line-Copy-21" fill="#FFFFFF"></path>
                        <path d="M181.121793,4.41653076 C169.141814,4.41653076 159.427513,14.0508853 159.427513,25.9276897 L159.427513,36.699156 C159.427513,48.5799617 169.139066,58.210315 181.121793,58.2103151 L235.380551,58.2103153 C238.376815,58.2103153 240.805768,55.8018855 240.805768,52.8309368 C240.805768,49.8599882 238.376816,47.4515584 235.380551,47.4515584 L181.121793,47.4515582 C175.131811,47.4515581 170.277947,42.6382783 170.277947,36.699156 L170.277947,25.9276897 C170.277947,19.9922499 175.134881,15.1752877 181.121793,15.1752877 L235.38055,15.1752877 C238.376814,15.1752877 240.805767,12.7668579 240.805767,9.79590921 C240.805767,6.82496052 238.376814,4.41653076 235.38055,4.41653076 L181.121793,4.41653076 Z" id="Mask" fill="#FFFFFF"></path>
                        <path d="M107.894006,15.2112938 L80.7618672,15.2112938 C77.7689463,15.2112938 75.3427044,12.7867435 75.3427044,9.79590921 C75.3427044,6.80507487 77.7689463,4.38052459 80.7618672,4.38052459 L148.577079,4.38052459 C151.57,4.38052459 153.996242,6.80507487 153.996242,9.79590921 C153.996242,12.7867435 151.57,15.2112938 148.577079,15.2112938 L118.732332,15.2112938 L118.732332,53.0732745 C118.732332,56.0641088 116.30609,58.4886591 113.313169,58.4886591 C110.320248,58.4886591 107.894006,56.0641088 107.894006,53.0732745 L107.894006,15.2112938 Z" id="Combined-Shape" fill="#FFFFFF"></path>
                        <mask id="mask-4" fill="white">
                            <use xlink:href="#path-3"></use>
                        </mask>
                        <use id="Combined-Shape" fill="#FFFFFF" xlink:href="#path-3"></use>
                    </g>
                </g>
                <g id="Group-40-Copy-2" transform="translate(1170.000000, 238.000000)">
                    <rect id="Rectangle-18" fill="#3F3F3F" x="0" y="0" width="525" height="500" rx="15"></rect>
                    <g id="Group" transform="translate(97.000000, 220.000000)">
                        <path d="M0.173816314,31.279112 C0.517562282,33.496756 1.82525221,35.5440244 3.91384326,36.749873 C5.57295058,37.7077591 7.44194387,37.973828 9.18726557,37.6383381 L14.6962724,37.6383381 C14.6962724,37.6383381 14.6947259,37.6369527 14.6917523,37.6341927 L19.5582724,37.6341927 L13.6564781,47.8564004 C11.5380124,51.5256906 12.800327,56.2205514 16.4592734,58.3330451 C20.1256802,60.449846 24.8170678,59.1881492 26.9337115,55.5220147 L38.9463557,34.7155046 C39.9785603,33.4100249 40.594995,31.7611569 40.594995,29.9685784 C40.594995,28.9462707 40.3938994,27.9698857 40.0290017,27.0770541 C39.4180118,25.5104688 38.2912852,24.1340202 36.7258885,23.230238 C35.1359348,22.3122778 33.353227,22.0296651 31.6713279,22.3029638 L21.1062589,22.3029641 L26.9832537,12.1237106 C29.1017194,8.45442044 27.8394047,3.75955959 24.1804584,1.64706591 C20.5140516,-0.469735021 15.822664,0.791961807 13.7060203,4.45809629 L1.73874545,25.1860243 C0.689493188,26.497072 0.0617647843,28.1596535 0.0617647843,29.9685784 C0.0617647843,30.4152353 0.100152086,30.853126 0.173816314,31.279112 Z" id="Combined-Shape" fill="#4990E2"></path>
                        <path d="M66.4017361,25.6578264 L54.0909757,4.33496386 C51.974332,0.668829383 47.2829444,-0.592867445 43.6165377,1.52393349 C39.9575913,3.63642716 38.6952767,8.33128801 40.8137423,12.0005782 L51.1875721,29.9685784 L40.8137423,47.9365786 C38.6952767,51.6058688 39.9575913,56.3007296 43.6165377,58.4132233 C47.2829444,60.5300242 51.974332,59.2683274 54.0909757,55.6021929 L66.4017361,34.2793304 C67.2593115,33.0057781 67.7157947,31.4990997 67.7140987,29.9685784 C67.7157947,28.4380571 67.2593115,26.9313787 66.4017361,25.6578264 Z" id="Combined-Shape" fill="#4990E2"></path>
                        <path d="M305.870289,25.8980848 C307.388836,25.888083 308.903016,26.5124294 309.982831,27.7429458 L328.907162,49.3083959 C330.880458,51.5570891 330.655933,54.9785723 328.405671,56.9504924 C326.155409,58.9224125 322.731538,58.6980436 320.758242,56.4493504 L303.452873,36.7288076 L295.510976,36.7288076 C292.518055,36.7288076 290.091813,34.3042573 290.091813,31.313423 C290.091813,28.3225887 292.518055,25.8980384 295.510976,25.8980384 L305.847603,25.8980384 C305.855169,25.8980384 305.862731,25.8980539 305.870289,25.8980848 Z" id="Combined-Shape" fill="#4990E2"></path>
                        <path d="M227.242725,36.7288076 C230.235646,36.7288076 232.661888,34.3042573 232.661888,31.313423 C232.661888,28.3225887 230.235646,25.8980384 227.242725,25.8980384 L183.84099,25.8980384 C180.848069,25.8980384 178.421827,28.3225887 178.421827,31.313423 C178.421827,34.3042573 180.848069,36.7288076 183.84099,36.7288076 L227.242725,36.7288076 Z" id="Line-Copy-21" fill="#4990E2"></path>
                        <path d="M181.121793,4.41653076 C169.141814,4.41653076 159.427513,14.0508853 159.427513,25.9276897 L159.427513,36.699156 C159.427513,48.5799617 169.139066,58.210315 181.121793,58.2103151 L235.380551,58.2103153 C238.376815,58.2103153 240.805768,55.8018855 240.805768,52.8309368 C240.805768,49.8599882 238.376816,47.4515584 235.380551,47.4515584 L181.121793,47.4515582 C175.131811,47.4515581 170.277947,42.6382783 170.277947,36.699156 L170.277947,25.9276897 C170.277947,19.9922499 175.134881,15.1752877 181.121793,15.1752877 L235.38055,15.1752877 C238.376814,15.1752877 240.805767,12.7668579 240.805767,9.79590921 C240.805767,6.82496052 238.376814,4.41653076 235.38055,4.41653076 L181.121793,4.41653076 Z" id="Mask" fill="#4990E2"></path>
                        <path d="M107.894006,15.2112938 L80.7618672,15.2112938 C77.7689463,15.2112938 75.3427044,12.7867435 75.3427044,9.79590921 C75.3427044,6.80507487 77.7689463,4.38052459 80.7618672,4.38052459 L148.577079,4.38052459 C151.57,4.38052459 153.996242,6.80507487 153.996242,9.79590921 C153.996242,12.7867435 151.57,15.2112938 148.577079,15.2112938 L118.732332,15.2112938 L118.732332,53.0732745 C118.732332,56.0641088 116.30609,58.4886591 113.313169,58.4886591 C110.320248,58.4886591 107.894006,56.0641088 107.894006,53.0732745 L107.894006,15.2112938 Z" id="Combined-Shape" fill="#4990E2"></path>
                        <mask id="mask-6" fill="white">
                            <use xlink:href="#path-5"></use>
                        </mask>
                        <use id="Combined-Shape" fill="#4990E2" xlink:href="#path-5"></use>
                    </g>
                </g>
                <g id="Group-42" transform="translate(694.000000, 1.000000)">
                    <g id="Rectangle-7">
                        <use fill="black" fill-opacity="1" filter="url(#filter-8)" xlink:href="#path-7"></use>
                        <use fill="#FFFFFF" fill-rule="evenodd" xlink:href="#path-7"></use>
                    </g>
                    <g id="Rectangle-1">
                        <use fill="black" fill-opacity="1" filter="url(#filter-10)" xlink:href="#path-9"></use>
                        <use fill="#4A90E2" fill-rule="evenodd" xlink:href="#path-9"></use>
                    </g>
                    <text id="Color-1:-#F095FF" font-family="OpenSans-Light, Open Sans" font-size="24" font-weight="300" fill="#4A90E2">
                        <tspan x="67.9604484" y="165">Color 1: </tspan>
                        <tspan x="157.632323" y="165">#F095FF</tspan>
                    </text>
                </g>
                <g id="Group-41" transform="translate(109.000000, 1.000000)">
                    <g id="Rectangle-7">
                        <use fill="black" fill-opacity="1" filter="url(#filter-12)" xlink:href="#path-11"></use>
                        <use fill="#FFFFFF" fill-rule="evenodd" xlink:href="#path-11"></use>
                    </g>
                    <g id="Rectangle-1">
                        <use fill="black" fill-opacity="1" filter="url(#filter-14)" xlink:href="#path-13"></use>
                        <use fill="#FFFFFF" fill-rule="evenodd" xlink:href="#path-13"></use>
                    </g>
                    <text id="Color-2:-#FFFFF" font-family="OpenSans-Light, Open Sans" font-size="24" font-weight="300" fill="#A1A1A1">
                        <tspan x="71.4624015" y="165">Color 2: </tspan>
                        <tspan x="161.134277" y="165">#FFFFF</tspan>
                    </text>
                </g>
                <g id="Group-43" transform="translate(1279.000000, 0.000000)">
                    <g id="Rectangle-7">
                        <use fill="black" fill-opacity="1" filter="url(#filter-16)" xlink:href="#path-15"></use>
                        <use fill="#FFFFFF" fill-rule="evenodd" xlink:href="#path-15"></use>
                    </g>
                    <g id="Rectangle-1">
                        <use fill="black" fill-opacity="1" filter="url(#filter-18)" xlink:href="#path-17"></use>
                        <use fill="#3F3F3F" fill-rule="evenodd" xlink:href="#path-17"></use>
                    </g>
                    <text id="Color-3:-#3F3F3F" font-family="OpenSans-Light, Open Sans" font-size="24" font-weight="300" fill="#3F3F3F">
                        <tspan x="62.9604484" y="163">Color 3: </tspan>
                        <tspan x="152.632323" y="163">#3F3F3F</tspan>
                    </text>
                </g>
            </g>
            <text id="Font:-Avenir-ABCDEFGHIJKLMNOPQRSTUVWXYZ-abcdefghijklmnopqrstuvwxyz-1234567890!@#$%^&amp;*(?" font-family="Avenir-Light, Avenir" font-size="64" font-weight="300" fill="#4A90E2">
                <tspan x="674.956" y="850">Font: Avenir</tspan>
                <tspan x="308.108" y="937">ABCDEFGHIJKLMNOPQRSTUVWXYZ</tspan>
                <tspan x="436.268" y="1024">abcdefghijklmnopqrstuvwxyz</tspan>
                <tspan x="503.116" y="1111">1234567890!@#$%^&amp;*(?</tspan>
            </text>
        </g>
    </g>
</svg>