<?xml version="1.0" encoding="UTF-8" standalone="no"?>
<svg width="415px" height="187px" viewBox="0 0 415 187" version="1.1" xmlns="http://www.w3.org/2000/svg" xmlns:xlink="http://www.w3.org/1999/xlink">
    <!-- Generator: Sketch 40 (33762) - http://www.bohemiancoding.com/sketch -->
    <title>Group 2 Copy</title>
    <desc>Created with Sketch.</desc>
    <defs></defs>
    <g id="Page-1" stroke="none" stroke-width="1" fill="none" fill-rule="evenodd">
        <g id="Group-2-Copy">
            <g id="Group">
                <path id="Stroke-1" stroke="#AD4142" stroke-width="54" stroke-linecap="round" stroke-linejoin="round"></path>
                <path d="M65.5733786,131.099916 C54.978209,131.099916 46.3561194,122.508024 46.3561194,111.934943 L46.3561194,38.1861862 L7.85402985,38.1861862 C3.65785617,38.1861862 0.252265943,34.7898619 0.252265943,30.6051051 C0.252265943,26.4203483 3.65785617,23.024024 7.85402985,23.024024 L53.9578833,23.024024 C58.154057,23.024024 61.5596472,26.4203483 61.5596472,30.6051051 L61.5596472,111.934943 C61.5596472,114.138511 63.3637992,115.937754 65.5733786,115.937754 C67.7829579,115.937754 69.5871099,114.138511 69.5871099,111.934943 L69.5871099,30.6051051 C69.5871099,26.4203483 72.9927001,23.024024 77.1888738,23.024024 L123.292727,23.024024 C127.488901,23.024024 130.894491,26.4203483 130.894491,30.6051051 C130.894491,34.7898619 127.488901,38.1861862 123.292727,38.1861862 L84.7906377,38.1861862 L84.7906377,111.934943 C84.7906377,122.508024 76.1685482,131.099916 65.5733786,131.099916" id="Fill-2" fill="#66757F"></path>
                <path id="Stroke-3" stroke="#AD4142" stroke-width="54"></path>
                <path d="M254.049824,130.149754 L161.369118,130.149754 C150.767191,130.149754 142.151859,121.557862 142.151859,110.99152 L142.151859,30.6051051 C142.151859,26.4203483 145.557449,23.024024 149.753623,23.024024 C153.949796,23.024024 157.355387,26.4203483 157.355387,30.6051051 L157.355387,110.99152 C157.355387,113.195087 159.159539,114.987592 161.369118,114.987592 L254.049824,114.987592 C256.259403,114.987592 258.056798,113.195087 258.056798,110.99152 C258.056798,108.781213 256.259403,106.988709 254.049824,106.988709 L172.842714,106.988709 C168.64654,106.988709 165.24095,103.592384 165.24095,99.4076276 L165.24095,76.5835195 C165.24095,74.5686366 166.03829,72.6413574 167.470801,71.2194835 C168.896554,69.7976096 170.829091,69.0024384 172.842714,69.0024384 L172.849471,69.0024384 L254.049824,69.0091772 C256.259403,69.0091772 258.056798,67.2166727 258.056798,65.0063664 C258.056798,62.8027988 256.259403,61.0102943 254.049824,61.0102943 L172.842714,61.0102943 C168.64654,61.0102943 165.24095,57.61397 165.24095,53.4292132 L165.24095,30.6051051 C165.24095,28.5902222 166.03829,26.6629429 167.470801,25.2410691 C168.896554,23.8191952 170.829091,23.024024 172.842714,23.024024 L172.849471,23.024024 L265.658562,23.0307628 C269.854735,23.0307628 273.260326,26.4270871 273.260326,30.6118438 C273.260326,34.7966006 269.854735,38.1929249 265.658562,38.1929249 L180.444478,38.1929249 L180.444478,45.8481321 L254.049824,45.8481321 C264.644993,45.8481321 273.260326,54.440024 273.260326,65.0063664 C273.260326,75.5794474 264.644993,84.1713393 254.049824,84.1713393 L180.444478,84.1713393 L180.444478,91.8265465 L254.049824,91.8265465 C264.644993,91.8265465 273.260326,100.418438 273.260326,110.99152 C273.260326,121.557862 264.644993,130.149754 254.049824,130.149754" id="Fill-4" fill="#66757F"></path>
                <path d="M407.206784,15.1621622 L7.85402985,15.1621622 C3.65785617,15.1621622 0.252265943,11.7658378 0.252265943,7.58108108 C0.252265943,3.39632432 3.65785617,0 7.85402985,0 L407.206784,0 C411.402958,0 414.808548,3.39632432 414.808548,7.58108108 C414.808548,11.7658378 411.402958,15.1621622 407.206784,15.1621622" id="Fill-5" fill="#3498DB"></path>
                <path d="M330.265672,130.149754 L302.987164,130.149754 C292.385237,130.149754 283.769905,121.557862 283.769905,110.99152 L283.769905,30.6051051 C283.769905,26.4203483 287.175495,23.024024 291.371669,23.024024 C295.567843,23.024024 298.973433,26.4203483 298.973433,30.6051051 L298.973433,110.99152 C298.973433,113.195087 300.770828,114.987592 302.987164,114.987592 L330.265672,114.987592 C332.475251,114.987592 334.272646,113.195087 334.272646,110.99152 C334.272646,108.781213 332.475251,106.988709 330.265672,106.988709 L314.595902,106.988709 C310.399729,106.988709 306.994138,103.592384 306.994138,99.4076276 L306.994138,30.6051051 C306.994138,26.4203483 310.399729,23.024024 314.595902,23.024024 L384.052374,23.024024 C388.248548,23.024024 391.654138,26.4203483 391.654138,30.6051051 L391.654138,45.6661862 C391.654138,47.8697538 393.451533,49.668997 395.661113,49.668997 C397.877449,49.668997 399.674844,47.8697538 399.674844,45.6661862 L399.674844,30.6051051 C399.674844,26.4203483 403.080434,23.024024 407.276608,23.024024 C411.472782,23.024024 414.878372,26.4203483 414.878372,30.6051051 L414.878372,45.6661862 C414.878372,56.2392673 406.263039,64.8311592 395.661113,64.8311592 C385.065943,64.8311592 376.450611,56.2392673 376.450611,45.6661862 L376.450611,38.1861862 L322.197666,38.1861862 L322.197666,91.8265465 L330.265672,91.8265465 C340.860841,91.8265465 349.476174,100.418438 349.476174,110.99152 C349.476174,121.557862 340.860841,130.149754 330.265672,130.149754" id="Fill-6" fill="#66757F"></path>
                <path d="M395.515271,130.41762 C390.379858,130.41762 385.555271,128.422953 381.919939,124.80425 L338.660834,81.662845 C331.167185,74.1895838 331.167185,62.0328991 338.660834,54.5596378 C345.911228,47.3357099 358.574077,47.3222324 365.837985,54.5596378 L409.103847,97.7010432 C412.732422,101.326485 414.732531,106.137944 414.732531,111.259386 C414.732531,116.374088 412.732422,121.185548 409.09709,124.80425 C405.468514,128.422953 400.650685,130.41762 395.515271,130.41762 L395.515271,130.41762 Z M352.24941,64.1084306 C351.175027,64.1084306 350.168216,64.5262324 349.418175,65.2809711 C347.850522,66.8443585 347.850522,69.3781243 349.418175,70.9347729 L392.67728,114.082917 C394.190875,115.605872 396.826153,115.599133 398.346506,114.089656 C399.110061,113.32144 399.529003,112.324106 399.529003,111.259386 C399.529003,110.187926 399.110061,109.183854 398.346506,108.429115 L355.080645,65.2809711 C354.330604,64.5262324 353.323792,64.1084306 352.24941,64.1084306 L352.24941,64.1084306 Z" id="Fill-7" fill="#66757F"></path>
            </g>
            <path d="M123.74095,178.949453 C124.511262,178.949453 125.038318,178.423832 125.038318,177.655616 L125.038318,154.204805 C125.038318,153.436589 124.511262,152.910967 123.74095,152.910967 C123.051723,152.910967 122.443582,153.436589 122.443582,154.204805 L122.443582,177.655616 C122.443582,178.423832 123.051723,178.949453 123.74095,178.949453 L123.74095,178.949453 Z M131.849498,178.868589 C132.498182,178.868589 133.06578,178.342967 133.06578,177.655616 L133.06578,162.857345 L135.903772,162.857345 C137.484939,162.857345 138.741764,164.110751 138.741764,165.687616 L138.741764,177.655616 C138.741764,178.342967 139.26882,178.868589 139.958046,178.868589 C140.60673,178.868589 141.174328,178.342967 141.174328,177.655616 L141.174328,165.687616 C141.174328,162.77648 138.782307,160.431399 135.903772,160.431399 L131.849498,160.431399 C131.160271,160.431399 130.633216,160.957021 130.633216,161.644372 L130.633216,177.655616 C130.633216,178.342967 131.160271,178.868589 131.849498,178.868589 L131.849498,178.868589 Z M145.958372,162.857345 L147.985509,162.857345 L147.985509,173.612372 C147.985509,176.523508 150.336988,178.868589 153.256065,178.868589 C153.945292,178.868589 154.472347,178.342967 154.472347,177.655616 C154.472347,176.968264 153.945292,176.442643 153.256065,176.442643 C151.674898,176.442643 150.418073,175.189237 150.418073,173.612372 L150.418073,162.857345 L153.256065,162.857345 C153.945292,162.857345 154.472347,162.331724 154.472347,161.644372 C154.472347,160.957021 153.945292,160.431399 153.256065,160.431399 L150.418073,160.431399 L150.418073,153.396156 C150.418073,152.708805 149.891018,152.183183 149.201791,152.183183 C148.512564,152.183183 147.985509,152.708805 147.985509,153.396156 L147.985509,160.431399 L145.958372,160.431399 C145.269145,160.431399 144.74209,160.957021 144.74209,161.644372 C144.74209,162.331724 145.269145,162.857345 145.958372,162.857345 L145.958372,162.857345 Z M161.283528,178.464264 C163.270122,179.272913 165.540516,178.828156 167.040597,177.332156 C167.283853,177.089562 167.405482,176.806535 167.405482,176.483075 C167.405482,176.119183 167.283853,175.836156 167.040597,175.633994 C166.797341,175.391399 166.513541,175.270102 166.148657,175.270102 C165.824315,175.270102 165.540516,175.391399 165.297259,175.633994 C164.486404,176.442643 163.310665,176.685237 162.216011,176.24048 C161.121357,175.795724 160.472673,174.74448 160.472673,173.612372 L160.472673,170.782102 L167.364939,170.782102 C168.054166,170.782102 168.581221,170.25648 168.581221,169.569129 L168.581221,165.525886 C168.581221,162.614751 166.229742,160.26967 163.310665,160.26967 C160.391588,160.26967 158.040109,162.614751 158.040109,165.525886 L158.040109,173.612372 C158.040109,175.755291 159.296934,177.655616 161.283528,178.464264 L161.283528,178.464264 Z M163.310665,162.695616 C164.891832,162.695616 166.148657,163.949021 166.148657,165.525886 L166.148657,168.356156 L160.472673,168.356156 L160.472673,165.525886 C160.472673,163.949021 161.729498,162.695616 163.310665,162.695616 L163.310665,162.695616 Z M175.554573,178.706859 C176.162714,179.030318 176.892483,178.868589 177.216825,178.262102 C177.58171,177.655616 177.378996,176.927832 176.770855,176.604372 C176.162714,176.24048 175.757286,175.633994 175.757286,174.865778 L175.757286,153.396156 C175.757286,152.708805 175.230231,152.183183 174.541004,152.183183 C173.89232,152.183183 173.324722,152.708805 173.324722,153.396156 L173.324722,174.865778 C173.324722,176.442643 174.216662,177.89821 175.554573,178.706859 L175.554573,178.706859 Z M183.663121,178.706859 C184.271262,179.030318 185.001031,178.868589 185.325373,178.262102 C185.690258,177.655616 185.487544,176.927832 184.879403,176.604372 C184.271262,176.24048 183.865834,175.633994 183.865834,174.865778 L183.865834,153.396156 C183.865834,152.708805 183.338779,152.183183 182.649552,152.183183 C182.000868,152.183183 181.43327,152.708805 181.43327,153.396156 L181.43327,174.865778 C181.43327,176.442643 182.32521,177.89821 183.663121,178.706859 L183.663121,178.706859 Z M190.879729,157.035075 C191.812212,157.035075 192.501438,156.347724 192.501438,155.417778 C192.501438,154.487832 191.812212,153.80048 190.879729,153.80048 C189.947246,153.80048 189.258019,154.487832 189.258019,155.417778 C189.258019,156.347724 189.947246,157.035075 190.879729,157.035075 L190.879729,157.035075 Z M192.096011,177.655616 L192.096011,161.482643 C192.096011,160.795291 191.568955,160.26967 190.879729,160.26967 C190.231045,160.26967 189.663446,160.795291 189.663446,161.482643 L189.663446,177.655616 C189.663446,178.342967 190.231045,178.868589 190.879729,178.868589 C191.568955,178.868589 192.096011,178.342967 192.096011,177.655616 L192.096011,177.655616 Z M202.556038,178.706859 L205.39403,178.706859 L205.39403,181.698859 C205.39403,182.830967 204.745346,183.88221 203.650692,184.326967 C202.556038,184.771724 201.380299,184.529129 200.569444,183.72048 C200.326187,183.477886 200.042388,183.356589 199.677503,183.356589 C199.353161,183.356589 199.069362,183.477886 198.826106,183.72048 C198.582849,183.922643 198.461221,184.20567 198.461221,184.529129 C198.461221,184.893021 198.582849,185.176048 198.826106,185.418643 C200.407273,186.914643 202.596581,187.359399 204.583175,186.550751 C206.569769,185.742102 207.826594,183.841778 207.826594,181.698859 L207.826594,161.644372 C207.826594,160.957021 207.299539,160.431399 206.610312,160.431399 L202.556038,160.431399 C199.636961,160.431399 197.285482,162.77648 197.285482,165.687616 L197.285482,173.450643 C197.285482,176.361778 199.636961,178.706859 202.556038,178.706859 L202.556038,178.706859 Z M202.556038,162.857345 L205.39403,162.857345 L205.39403,176.280913 L202.556038,176.280913 C200.974871,176.280913 199.718046,175.027508 199.718046,173.450643 L199.718046,165.687616 C199.718046,164.110751 200.974871,162.857345 202.556038,162.857345 L202.556038,162.857345 Z M216.097313,178.464264 C218.083908,179.272913 220.354301,178.828156 221.854383,177.332156 C222.097639,177.089562 222.219267,176.806535 222.219267,176.483075 C222.219267,176.119183 222.097639,175.836156 221.854383,175.633994 C221.611126,175.391399 221.327327,175.270102 220.962442,175.270102 C220.6381,175.270102 220.354301,175.391399 220.111045,175.633994 C219.30019,176.442643 218.12445,176.685237 217.029796,176.24048 C215.935142,175.795724 215.286459,174.74448 215.286459,173.612372 L215.286459,170.782102 L222.178725,170.782102 C222.867951,170.782102 223.395007,170.25648 223.395007,169.569129 L223.395007,165.525886 C223.395007,162.614751 221.043528,160.26967 218.12445,160.26967 C215.205373,160.26967 212.853894,162.614751 212.853894,165.525886 L212.853894,173.612372 C212.853894,175.755291 214.110719,177.655616 216.097313,178.464264 L216.097313,178.464264 Z M218.12445,162.695616 C219.705617,162.695616 220.962442,163.949021 220.962442,165.525886 L220.962442,168.356156 L215.286459,168.356156 L215.286459,165.525886 C215.286459,163.949021 216.543284,162.695616 218.12445,162.695616 L218.12445,162.695616 Z M229.476418,178.868589 C230.125102,178.868589 230.6927,178.342967 230.6927,177.655616 L230.6927,162.857345 L233.530692,162.857345 C235.111859,162.857345 236.368684,164.110751 236.368684,165.687616 L236.368684,177.655616 C236.368684,178.342967 236.895739,178.868589 237.584966,178.868589 C238.23365,178.868589 238.801248,178.342967 238.801248,177.655616 L238.801248,165.687616 C238.801248,162.77648 236.409227,160.431399 233.530692,160.431399 L229.476418,160.431399 C228.787191,160.431399 228.260136,160.957021 228.260136,161.644372 L228.260136,177.655616 C228.260136,178.342967 228.787191,178.868589 229.476418,178.868589 L229.476418,178.868589 Z M243.585292,162.857345 L245.612429,162.857345 L245.612429,173.612372 C245.612429,176.523508 247.963908,178.868589 250.882985,178.868589 C251.572212,178.868589 252.099267,178.342967 252.099267,177.655616 C252.099267,176.968264 251.572212,176.442643 250.882985,176.442643 C249.301818,176.442643 248.044993,175.189237 248.044993,173.612372 L248.044993,162.857345 L250.882985,162.857345 C251.572212,162.857345 252.099267,162.331724 252.099267,161.644372 C252.099267,160.957021 251.572212,160.431399 250.882985,160.431399 L248.044993,160.431399 L248.044993,153.396156 C248.044993,152.708805 247.517938,152.183183 246.828711,152.183183 C246.139484,152.183183 245.612429,152.708805 245.612429,153.396156 L245.612429,160.431399 L243.585292,160.431399 C242.896065,160.431399 242.369009,160.957021 242.369009,161.644372 C242.369009,162.331724 242.896065,162.857345 243.585292,162.857345 L243.585292,162.857345 Z M263.856662,154.366535 L263.856662,177.493886 C263.856662,178.262102 264.383718,178.787724 265.15403,178.787724 L273.262578,178.787724 C274.03289,178.787724 274.559946,178.262102 274.559946,177.493886 C274.559946,176.72567 274.03289,176.200048 273.262578,176.200048 L266.451398,176.200048 L266.451398,166.819724 L272.451723,166.819724 C273.222035,166.819724 273.749091,166.294102 273.749091,165.525886 C273.749091,164.75767 273.222035,164.232048 272.451723,164.232048 L266.451398,164.232048 L266.451398,155.660372 L273.262578,155.660372 C274.03289,155.660372 274.559946,155.134751 274.559946,154.366535 C274.559946,153.598318 274.03289,153.072697 273.262578,153.072697 L265.15403,153.072697 C264.383718,153.072697 263.856662,153.598318 263.856662,154.366535 L263.856662,154.366535 Z M277.397938,154.568697 L283.884776,178.019508 C284.046947,178.545129 284.53346,178.949453 285.141601,178.949453 C285.749742,178.949453 286.236255,178.545129 286.357883,178.019508 L292.844722,154.568697 C293.047436,153.881345 292.642008,153.153562 291.952782,152.951399 C291.263555,152.78967 290.533786,153.193994 290.371615,153.881345 C289.682388,156.347724 288.993161,158.77367 288.344478,161.118751 C287.249824,165.081129 285.911913,169.852156 285.141601,172.803724 C284.249661,169.852156 282.992836,165.121562 281.898182,161.118751 C281.249498,158.77367 280.560271,156.347724 279.871045,153.881345 C279.708874,153.193994 278.979104,152.78967 278.289878,152.951399 C277.600651,153.153562 277.195224,153.881345 277.397938,154.568697 L277.397938,154.568697 Z M308.818562,178.747291 C311.494383,179.475075 314.372917,178.302535 315.75137,175.876589 C316.075712,175.270102 315.872999,174.461453 315.264858,174.097562 C314.656716,173.774102 313.845862,173.976264 313.480977,174.582751 C312.670122,175.997886 311.048412,176.685237 309.467246,176.24048 C307.886079,175.795724 306.831967,174.421021 306.831967,172.803724 L306.831967,159.056697 C306.831967,157.439399 307.886079,156.064697 309.467246,155.61994 C311.048412,155.175183 312.670122,155.862535 313.480977,157.27767 C313.845862,157.884156 314.656716,158.126751 315.264858,157.762859 C315.872999,157.398967 316.075712,156.590318 315.75137,155.983832 C314.332374,153.598318 311.534925,152.344913 308.818562,153.113129 C306.061655,153.881345 304.237232,156.266859 304.237232,159.056697 L304.237232,172.803724 C304.237232,175.593562 306.061655,177.979075 308.818562,178.747291 L308.818562,178.747291 Z M321.630068,178.868589 C322.319294,178.868589 322.84635,178.342967 322.84635,177.655616 L322.84635,162.857345 L325.684342,162.857345 C327.265509,162.857345 328.522334,164.110751 328.522334,165.687616 L328.522334,177.655616 C328.522334,178.342967 329.089932,178.868589 329.738616,178.868589 C330.427843,178.868589 330.954898,178.342967 330.954898,177.655616 L330.954898,165.687616 C330.954898,162.77648 328.603419,160.431399 325.684342,160.431399 L322.84635,160.431399 L322.84635,153.396156 C322.84635,152.708805 322.319294,152.183183 321.630068,152.183183 C320.981384,152.183183 320.413786,152.708805 320.413786,153.396156 L320.413786,177.655616 C320.413786,178.342967 320.981384,178.868589 321.630068,178.868589 L321.630068,178.868589 Z M342.793379,168.194426 L339.955387,168.194426 C337.036309,168.194426 334.68483,170.539508 334.68483,173.450643 C334.68483,176.361778 337.036309,178.706859 339.955387,178.706859 L344.009661,178.706859 C344.658345,178.706859 345.225943,178.181237 345.225943,177.493886 L345.225943,165.445021 C345.225943,163.342535 343.969118,161.482643 342.023066,160.673994 C340.077015,159.865345 337.847164,160.310102 336.347083,161.806102 C336.103826,162.008264 335.982198,162.291291 335.982198,162.655183 C335.982198,162.978643 336.103826,163.26167 336.347083,163.504264 C336.590339,163.746859 336.874138,163.868156 337.19848,163.868156 C337.563365,163.868156 337.847164,163.746859 338.090421,163.504264 C338.860733,162.695616 339.995929,162.453021 341.090583,162.897778 C342.104152,163.342535 342.793379,164.312913 342.793379,165.445021 L342.793379,168.194426 Z M337.117395,173.450643 C337.117395,171.873778 338.37422,170.620372 339.955387,170.620372 L342.793379,170.620372 L342.793379,176.280913 L339.955387,176.280913 C338.37422,176.280913 337.117395,175.027508 337.117395,173.450643 L337.117395,173.450643 Z M351.793867,178.868589 C352.483094,178.868589 353.010149,178.342967 353.010149,177.655616 L353.010149,162.857345 L355.848141,162.857345 C356.334654,162.857345 356.821167,162.978643 357.267137,163.221237 C357.875278,163.585129 358.605047,163.382967 358.929389,162.77648 C359.253731,162.169994 359.09156,161.482643 358.483419,161.118751 C357.632022,160.673994 356.780624,160.431399 355.848141,160.431399 L351.793867,160.431399 C351.10464,160.431399 350.577585,160.957021 350.577585,161.644372 L350.577585,177.655616 C350.577585,178.342967 351.10464,178.868589 351.793867,178.868589 L351.793867,178.868589 Z M367.483908,178.706859 L370.3219,178.706859 L370.3219,181.698859 C370.3219,182.830967 369.673216,183.88221 368.578562,184.326967 C367.483908,184.771724 366.308168,184.529129 365.497313,183.72048 C365.254057,183.477886 364.970258,183.356589 364.605373,183.356589 C364.281031,183.356589 363.997232,183.477886 363.753976,183.72048 C363.510719,183.922643 363.389091,184.20567 363.389091,184.529129 C363.389091,184.893021 363.510719,185.176048 363.753976,185.418643 C365.335142,186.914643 367.52445,187.359399 369.511045,186.550751 C371.497639,185.742102 372.754464,183.841778 372.754464,181.698859 L372.754464,161.644372 C372.754464,160.957021 372.227408,160.431399 371.538182,160.431399 L367.483908,160.431399 C364.56483,160.431399 362.213351,162.77648 362.213351,165.687616 L362.213351,173.450643 C362.213351,176.361778 364.56483,178.706859 367.483908,178.706859 L367.483908,178.706859 Z M367.483908,162.857345 L370.3219,162.857345 L370.3219,176.280913 L367.483908,176.280913 C365.902741,176.280913 364.645916,175.027508 364.645916,173.450643 L364.645916,165.687616 C364.645916,164.110751 365.902741,162.857345 367.483908,162.857345 L367.483908,162.857345 Z M379.484559,157.035075 C380.417042,157.035075 381.106269,156.347724 381.106269,155.417778 C381.106269,154.487832 380.417042,153.80048 379.484559,153.80048 C378.552076,153.80048 377.862849,154.487832 377.862849,155.417778 C377.862849,156.347724 378.552076,157.035075 379.484559,157.035075 L379.484559,157.035075 Z M380.700841,177.655616 L380.700841,161.482643 C380.700841,160.795291 380.173786,160.26967 379.484559,160.26967 C378.835875,160.26967 378.268277,160.795291 378.268277,161.482643 L378.268277,177.655616 C378.268277,178.342967 378.835875,178.868589 379.484559,178.868589 C380.173786,178.868589 380.700841,178.342967 380.700841,177.655616 L380.700841,177.655616 Z M387.593107,178.868589 C388.241791,178.868589 388.809389,178.342967 388.809389,177.655616 L388.809389,162.857345 L391.647381,162.857345 C393.228548,162.857345 394.485373,164.110751 394.485373,165.687616 L394.485373,177.655616 C394.485373,178.342967 395.012429,178.868589 395.701655,178.868589 C396.350339,178.868589 396.917938,178.342967 396.917938,177.655616 L396.917938,165.687616 C396.917938,162.77648 394.525916,160.431399 391.647381,160.431399 L387.593107,160.431399 C386.903881,160.431399 386.376825,160.957021 386.376825,161.644372 L386.376825,177.655616 C386.376825,178.342967 386.903881,178.868589 387.593107,178.868589 L387.593107,178.868589 Z M407.053623,178.706859 L409.891615,178.706859 L409.891615,181.698859 C409.891615,182.830967 409.242931,183.88221 408.148277,184.326967 C407.053623,184.771724 405.877883,184.529129 405.067028,183.72048 C404.823772,183.477886 404.539973,183.356589 404.175088,183.356589 C403.850746,183.356589 403.566947,183.477886 403.323691,183.72048 C403.080434,183.922643 402.958806,184.20567 402.958806,184.529129 C402.958806,184.893021 403.080434,185.176048 403.323691,185.418643 C404.904858,186.914643 407.094166,187.359399 409.08076,186.550751 C411.067354,185.742102 412.324179,183.841778 412.324179,181.698859 L412.324179,161.644372 C412.324179,160.957021 411.797123,160.431399 411.107897,160.431399 L407.053623,160.431399 C404.134545,160.431399 401.783066,162.77648 401.783066,165.687616 L401.783066,173.450643 C401.783066,176.361778 404.134545,178.706859 407.053623,178.706859 L407.053623,178.706859 Z M407.053623,162.857345 L409.891615,162.857345 L409.891615,176.280913 L407.053623,176.280913 C405.472456,176.280913 404.215631,175.027508 404.215631,173.450643 L404.215631,165.687616 C404.215631,164.110751 405.472456,162.857345 407.053623,162.857345 L407.053623,162.857345 Z" id="Intelligent-EV-Charg" fill="#3498DB"></path>
        </g>
    </g>
</svg>