<?xml version="1.0" encoding="UTF-8" standalone="no"?>
<svg width="2787px" height="871px" viewBox="0 0 2787 871" version="1.1" xmlns="http://www.w3.org/2000/svg" xmlns:xlink="http://www.w3.org/1999/xlink">
    <!-- Generator: Sketch 40 (33762) - http://www.bohemiancoding.com/sketch -->
    <title>Path 2 Copy + fullstory_logo_white + Path 2 + Path 2 Copy 2 + Path 2 Copy + Line + Line Copy + Line Copy 2 + Line Copy 3 + Line Copy 4 Mask</title>
    <desc>Created with Sketch.</desc>
    <defs>
        <rect id="path-1" x="0" y="0" width="2787" height="871"></rect>
        <path d="M0.53774217,56.6274669 C4.16786483,59.4521176 10.487021,61.3352719 17.0749676,61.3352719 C28.0998921,61.3352719 37.1079205,56.089492 37.1079205,44.5218212 C37.1079205,33.8958081 30.2510222,29.9950463 20.0329529,26.9014888 C11.0247632,24.0768382 7.79798749,21.2521875 7.79798749,15.8717929 C7.79798749,10.3571063 11.9660137,6.85986593 18.419565,6.85986593 C25.1419069,6.85986593 29.8476752,9.41544846 34.418887,13.181757 L34.418887,4.43873678 C29.8476752,1.21056458 24.2008177,0 18.419565,0 C7.79798749,0 0,5.51484798 0,15.8717929 C0,25.2874027 4.43681658,29.5915247 14.7894424,33.0887651 C24.0664225,36.1824839 29.1753765,38.0654768 29.1753765,45.0599575 C29.1753765,51.6507553 24.4697695,54.4754059 17.0749676,54.4754059 C10.6214162,54.4754059 5.51246226,51.9198234 0.53774217,47.4810866 L0.53774217,56.6274669 L0.53774217,56.6274669 Z" id="path-3"></path>
        <path d="M0,21.5767802 L9.04997646,21.5767802 L9.04997646,58.9580459 C9.04997646,71.3267877 15.3984963,75.8620468 23.9081492,75.8620468 C29.0409813,75.8620468 33.5960592,74.4203451 37.1079205,72.6338746 L34.0558747,66.6549768 C34.0558747,66.6549768 28.2192828,68.8530393 25.6639992,68.8530393 C20.1260454,68.8530393 17.1543463,65.8295332 17.1543463,58.1334093 L17.1543463,21.5767802 L33.7685303,21.5767802 L33.7685303,14.5677727 L17.1543463,14.5677727 L17.1543463,0 L9.04997646,0 L9.04997646,14.5677727 L0,14.5677727 L0,21.5767802 L0,21.5767802 Z" id="path-5"></path>
        <path d="M7.94609649,10.6500629 C10.9921727,8.89748823 15.2300586,7.6841797 20.9248337,7.6841797 C22.5562915,7.6841797 26.9919787,8.03185385 26.9919787,8.03185385 L29.0409813,0.653704871 C29.0409813,0.653704871 23.9636497,0 21.4545089,0 C13.5084124,0 6.09199118,2.42661705 0,6.33609499 L0,59.7211858 L7.94609649,59.7211858 L7.94609649,10.6500629 L7.94609649,10.6500629 Z" id="path-7"></path>
        <polygon id="path-9" points="4.12204461 0 3.47394671 0 0 12.3437235 19.7773923 63.3580446 11.8148392 83.9324773 19.7773923 83.9324773 51.6284111 0 43.2607364 0 23.8263504 54.0928675"></polygon>
        <path d="M50.0150233,0.205957387 L41.9582484,0.205957387 L41.9582484,53.3857364 C37.6613125,53.9340415 33.0959089,54.2081133 29.0676022,54.2081133 C19.8023998,54.2081133 11.0741329,51.3298749 11.0741329,40.090832 L11.0741329,0 L0,0 L3.03720262,7.08212559 L3.01751929,40.5019397 C3.01751929,55.4415979 12.6855846,61.3352719 29.604699,61.3352719 C35.6471592,61.3352719 42.8982082,60.6499309 50.0150233,59.2794104 L50.0150233,0.205957387 L50.0150233,0.205957387 Z" id="path-11"></path>
        <path d="M27.351729,0.00645634441 C31.4253949,0.0927714736 34.4476325,1.04650011 37.1079205,2.98492943 L37.1079205,10.7185002 C34.3148235,8.683299 31.1227356,7.19091499 26.8666185,7.19091499 C20.7484904,7.19091499 16.1338785,9.87158919 16.1338785,19.5047779 L16.1338785,33.8644949 L29.3973786,33.8644949 L32.267757,40.4799882 L16.1338785,40.4799882 L16.1338785,93.6169939 L8.06693924,93.6169939 L8.06693924,40.4799882 L0,40.4799882 L0,33.8644949 L8.06693924,33.8644949 L8.06693924,19.3690332 C8.06693924,7.23869869 14.9160297,0.247677826 26.1296794,0.00645634441 L27.351729,0.00645634441 L27.351729,0.00645634441 L27.351729,0.00645634441 Z" id="path-13"></path>
        <polygon id="path-15" points="0 92.0029078 8.06693924 92.0029078 8.06693924 0 0 0"></polygon>
        <polygon id="path-17" points="0 92.0029078 8.06693924 92.0029078 8.06693924 0 0 0"></polygon>
        <path d="M56.4685747,30.6676359 C56.4685747,12.6917204 44.8820299,0 28.2342873,0 C11.5865448,0 0,12.6917204 0,30.6676359 C0,48.6435514 11.5865448,61.3352719 28.2342873,61.3352719 C30.2308548,61.3352719 31.8494055,59.6656612 31.8494055,57.6060873 C31.8494055,55.5466749 30.2308548,53.8770642 28.2342873,53.8770642 C15.6800325,53.8770642 7.2302363,44.6212489 7.2302363,30.6676359 C7.2302363,16.714023 15.6800325,7.45820765 28.2342873,7.45820765 C40.7885422,7.45820765 49.2383384,16.714023 49.2383384,30.6676359 C49.2383384,34.0764244 48.7302826,37.2430999 47.7525695,40.080179 C47.0836589,42.0206333 48.0665348,44.1531639 49.947745,44.8430243 C51.8289553,45.5328847 53.8961891,44.5190772 54.5649384,42.5784615 C55.8249943,38.9227179 56.4685747,34.9112297 56.4685747,30.6676359 L56.4685747,30.6676359 Z" id="path-19"></path>
    </defs>
    <g id="Page-1" stroke="none" stroke-width="1" fill="none" fill-rule="evenodd">
        <g id="Path-2-Copy-+-fullstory_logo_white-+-Path-2-+-Path-2-Copy-2-+-Path-2-Copy-+-Line-+-Line-Copy-+-Line-Copy-2-+-Line-Copy-3-+-Line-Copy-4-Mask">
            <mask id="mask-2" fill="white">
                <use xlink:href="#path-1"></use>
            </mask>
            <use id="Mask" fill="#488FDD" xlink:href="#path-1"></use>
            <polygon id="Path-2-Copy" fill="#4080C8" mask="url(#mask-2)" transform="translate(2131.900635, 435.377441) scale(-1, -1) translate(-2131.900635, -435.377441) " points="1537 1.13686838e-13 1537 870.754883 2726.80127 870.754883 1812.8833 1.13686838e-13"></polygon>
            <g id="fullstory_logo_white" mask="url(#mask-2)">
                <g transform="translate(1204.000000, 376.000000)">
                    <g id="Group-3" transform="translate(145.204906, 33.895808)">
                        <mask id="mask-4" fill="white">
                            <use xlink:href="#path-3"></use>
                        </mask>
                        <g id="Clip-2"></g>
                        <polygon id="Fill-1" fill="#FFFFFF" mask="url(#mask-4)" points="-0.0193606542 61.3481846 37.1143741 61.3481846 37.1143741 -0.0129126888 -0.0193606542 -0.0129126888"></polygon>
                    </g>
                    <g id="Group-6" transform="translate(187.152990, 19.369033)">
                        <mask id="mask-6" fill="white">
                            <use xlink:href="#path-5"></use>
                        </mask>
                        <g id="Clip-5"></g>
                        <polygon id="Fill-4" fill="#FFFFFF" mask="url(#mask-6)" points="-0.0129071028 75.8749595 37.1208276 75.8749595 37.1208276 -0.0129126888 -0.0129071028 -0.0129126888"></polygon>
                    </g>
                    <g id="Group-9" transform="translate(295.249976, 33.895808)">
                        <mask id="mask-8" fill="white">
                            <use xlink:href="#path-7"></use>
                        </mask>
                        <g id="Clip-8"></g>
                        <polygon id="Fill-7" fill="#FFFFFF" mask="url(#mask-8)" points="-0.0193606542 59.7211858 29.0409813 59.7211858 29.0409813 -0.0129126888 -0.0193606542 -0.0129126888"></polygon>
                    </g>
                    <g id="Group-12" transform="translate(325.904345, 33.895808)">
                        <mask id="mask-10" fill="white">
                            <use xlink:href="#path-9"></use>
                        </mask>
                        <g id="Clip-11"></g>
                        <polygon id="Fill-10" fill="#FFFFFF" mask="url(#mask-10)" points="-0.00645355139 83.9324773 51.6284111 83.9324773 51.6284111 -0.0129126888 -0.00645355139 -0.0129126888"></polygon>
                    </g>
                    <g id="Group-15" transform="translate(35.494533, 33.895808)">
                        <mask id="mask-12" fill="white">
                            <use xlink:href="#path-11"></use>
                        </mask>
                        <g id="Clip-14"></g>
                        <polygon id="Fill-13" fill="#FFFFFF" mask="url(#mask-12)" points="-0.00645355139 61.3481846 50.0214768 61.3481846 50.0214768 -0.0129126888 -0.00645355139 -0.0129126888"></polygon>
                    </g>
                    <g id="Group-18">
                        <mask id="mask-14" fill="white">
                            <use xlink:href="#path-13"></use>
                        </mask>
                        <g id="Clip-17"></g>
                        <polygon id="Fill-16" fill="#FFFFFF" mask="url(#mask-14)" points="0 93.6169939 37.1143741 93.6169939 37.1143741 0.00645634441 0 0.00645634441"></polygon>
                    </g>
                    <g id="Group-21" transform="translate(124.230864, 1.614086)">
                        <mask id="mask-16" fill="white">
                            <use xlink:href="#path-15"></use>
                        </mask>
                        <g id="Clip-20"></g>
                        <polygon id="Fill-19" fill="#FFFFFF" mask="url(#mask-16)" points="-0.0129071028 92.0029078 8.07984634 92.0029078 8.07984634 0 -0.0129071028 0"></polygon>
                    </g>
                    <g id="Group-24" transform="translate(100.030047, 1.614086)">
                        <mask id="mask-18" fill="white">
                            <use xlink:href="#path-17"></use>
                        </mask>
                        <g id="Clip-23"></g>
                        <polygon id="Fill-22" fill="#FFFFFF" mask="url(#mask-18)" points="-0.0129071028 92.0029078 8.07984634 92.0029078 8.07984634 0 -0.0129071028 0"></polygon>
                    </g>
                    <g id="Group-27" transform="translate(229.101074, 33.895808)">
                        <mask id="mask-20" fill="white">
                            <use xlink:href="#path-19"></use>
                        </mask>
                        <g id="Clip-26"></g>
                        <polygon id="Fill-25" fill="#FFFFFF" mask="url(#mask-20)" points="-0.00645355139 61.3481846 56.4685747 61.3481846 56.4685747 -0.0129126888 -0.00645355139 -0.0129126888"></polygon>
                    </g>
                </g>
            </g>
            <polygon id="Path-2" fill="#F6BE00" mask="url(#mask-2)" points="0 1.13686838e-13 0 870.754883 1189.80127 870.754883 275.883301 1.13686838e-13"></polygon>
            <polygon id="Path-2-Copy-2" fill="#F6B400" mask="url(#mask-2)" points="-595 1.13686838e-13 -595 870.754883 594.80127 870.754883 -319.116699 1.13686838e-13"></polygon>
            <polygon id="Path-2-Copy" fill="#F65C8C" mask="url(#mask-2)" transform="translate(2191.900635, 435.377441) scale(-1, -1) translate(-2191.900635, -435.377441) " points="1597 1.13686838e-13 1597 870.754883 2786.80127 870.754883 1872.8833 1.13686838e-13"></polygon>
            <path d="M1711.5,-40.5 L2786.5,980.5" id="Line" stroke="#FFFFFF" stroke-width="7" stroke-linecap="square" mask="url(#mask-2)"></path>
            <path d="M2257.5,-40.5 L3332.5,980.5" id="Line-Copy" stroke="#FFFFFF" stroke-width="7" stroke-linecap="square" mask="url(#mask-2)"></path>
            <path d="M2341.5,-40.5 L3416.5,980.5" id="Line-Copy-2" stroke="#FFFFFF" stroke-width="7" stroke-linecap="square" opacity="0.8" mask="url(#mask-2)"></path>
            <path d="M2425.5,-40.5 L3500.5,980.5" id="Line-Copy-3" stroke="#FFFFFF" stroke-width="7" stroke-linecap="square" opacity="0.6" mask="url(#mask-2)"></path>
            <path d="M2509.5,-40.5 L3584.5,980.5" id="Line-Copy-4" stroke="#FFFFFF" stroke-width="7" stroke-linecap="square" opacity="0.4" mask="url(#mask-2)"></path>
        </g>
    </g>
</svg>