<?xml version="1.0" encoding="UTF-8" standalone="no"?>
<svg width="2340px" height="730px" viewBox="0 0 2340 730" version="1.1" xmlns="http://www.w3.org/2000/svg" xmlns:xlink="http://www.w3.org/1999/xlink">
    <!-- Generator: Sketch 40 (33762) - http://www.bohemiancoding.com/sketch -->
    <title>fullstory_logo_white</title>
    <desc>Created with Sketch.</desc>
    <defs>
        <path d="M3.333,350.833 C25.833,368.333 65,380 105.833,380 C174.167,380 230,347.5 230,275.833 C230,210 187.5,185.833 124.167,166.667 C68.333,149.167 48.333,131.667 48.333,98.333 C48.333,64.167 74.167,42.5 114.167,42.5 C155.833,42.5 185,58.333 213.333,81.667 L213.333,27.5 C185,7.5 150,0 114.167,0 C48.333,0 0,34.167 0,98.333 C0,156.667 27.5,183.333 91.667,205 C149.167,224.167 180.833,235.833 180.833,279.167 C180.833,320 151.667,337.5 105.833,337.5 C65.833,337.5 34.167,321.667 3.333,294.167 L3.333,350.833 L3.333,350.833 Z" id="path-1"></path>
        <path d="M0,133.678 L56.093,133.678 L56.093,365.272 C56.093,441.902 95.442,470 148.186,470 C180,470 208.233,461.068 230,450 L211.083,412.958 C211.083,412.958 174.907,426.576 159.069,426.576 C124.744,426.576 106.325,407.844 106.325,360.163 L106.325,133.678 L209.302,133.678 L209.302,90.254 L106.325,90.254 L106.325,0 L56.093,0 L56.093,90.254 L0,90.254 L0,133.678 L0,133.678 Z" id="path-3"></path>
        <path d="M49.251,65.982 C68.131,55.124 94.398,47.607 129.695,47.607 C139.807,47.607 167.3,49.761 167.3,49.761 L180,4.05 C180,4.05 148.53,0 132.978,0 C83.727,0 37.759,15.034 0,39.255 L0,370 L49.251,370 L49.251,65.982 L49.251,65.982 Z" id="path-5"></path>
        <polygon id="path-7" points="25.549 0 21.532 0 0 76.475 122.583 392.532 73.23 520 122.583 520 320 0 268.136 0 147.679 335.13"></polygon>
        <path d="M310,1.276 L260.063,1.276 L260.063,330.749 C233.43,334.146 205.133,335.844 180.165,335.844 C122.738,335.844 68.639,318.012 68.639,248.381 L68.639,0 L0,0 L18.825,43.877 L18.703,250.928 C18.703,343.486 78.627,380 183.494,380 C220.946,380 265.889,375.754 310,367.263 L310,1.276 L310,1.276 Z" id="path-9"></path>
        <path d="M169.529782,0.04 C194.778924,0.574761616 213.511169,6.48354573 230,18.493 L230,66.406 C212.688,53.797 192.903,44.551 166.523,44.551 C128.602,44.551 100,61.159 100,120.841 L100,209.806 L182.209,209.806 L200,250.792 L100,250.792 L100,580 L50,580 L50,250.792 L0,250.792 L0,209.806 L50,209.806 L50,120 C50,44.8470418 92.4516058,1.53447716 161.95535,0.04 L169.529782,0.04 L169.529782,0.04 L169.529782,0.04 Z" id="path-11"></path>
        <polygon id="path-13" points="0 570 50 570 50 0 0 0"></polygon>
        <polygon id="path-15" points="0 570 50 570 50 0 0 0"></polygon>
        <path d="M350,190 C350,78.631 278.185,0 175,0 C71.815,0 0,78.631 0,190 C0,301.369 71.815,380 175,380 C187.375,380 197.407,369.656 197.407,356.896 C197.407,344.137 187.375,333.793 175,333.793 C97.187,333.793 44.814,276.449 44.814,190 C44.814,103.551 97.187,46.207 175,46.207 C252.813,46.207 305.186,103.551 305.186,190 C305.186,211.119 302.037,230.738 295.977,248.315 C291.831,260.337 297.923,273.549 309.583,277.823 C321.243,282.097 334.056,275.816 338.201,263.793 C346.011,241.144 350,216.291 350,190 L350,190 Z" id="path-17"></path>
    </defs>
    <g id="Page-1" stroke="none" stroke-width="1" fill="none" fill-rule="evenodd">
        <g id="fullstory_logo_white">
            <g id="Group-3" transform="translate(900.000000, 210.000000)">
                <mask id="mask-2" fill="white">
                    <use xlink:href="#path-1"></use>
                </mask>
                <g id="Clip-2"></g>
                <polygon id="Fill-1" fill="#FFFFFF" mask="url(#mask-2)" points="-0.12 380.08 230.04 380.08 230.04 -0.08 -0.12 -0.08"></polygon>
            </g>
            <g id="Group-6" transform="translate(1160.000000, 120.000000)">
                <mask id="mask-4" fill="white">
                    <use xlink:href="#path-3"></use>
                </mask>
                <g id="Clip-5"></g>
                <polygon id="Fill-4" fill="#FFFFFF" mask="url(#mask-4)" points="-0.08 470.08 230.08 470.08 230.08 -0.08 -0.08 -0.08"></polygon>
            </g>
            <g id="Group-9" transform="translate(1830.000000, 210.000000)">
                <mask id="mask-6" fill="white">
                    <use xlink:href="#path-5"></use>
                </mask>
                <g id="Clip-8"></g>
                <polygon id="Fill-7" fill="#FFFFFF" mask="url(#mask-6)" points="-0.12 370 180 370 180 -0.08 -0.12 -0.08"></polygon>
            </g>
            <g id="Group-12" transform="translate(2020.000000, 210.000000)">
                <mask id="mask-8" fill="white">
                    <use xlink:href="#path-7"></use>
                </mask>
                <g id="Clip-11"></g>
                <polygon id="Fill-10" fill="#FFFFFF" mask="url(#mask-8)" points="-0.04 520 320 520 320 -0.08 -0.04 -0.08"></polygon>
            </g>
            <g id="Group-15" transform="translate(220.000000, 210.000000)">
                <mask id="mask-10" fill="white">
                    <use xlink:href="#path-9"></use>
                </mask>
                <g id="Clip-14"></g>
                <polygon id="Fill-13" fill="#FFFFFF" mask="url(#mask-10)" points="-0.04 380.08 310.04 380.08 310.04 -0.08 -0.04 -0.08"></polygon>
            </g>
            <g id="Group-18">
                <mask id="mask-12" fill="white">
                    <use xlink:href="#path-11"></use>
                </mask>
                <g id="Clip-17"></g>
                <polygon id="Fill-16" fill="#FFFFFF" mask="url(#mask-12)" points="0 580 230.04 580 230.04 0.04 0 0.04"></polygon>
            </g>
            <g id="Group-21" transform="translate(770.000000, 10.000000)">
                <mask id="mask-14" fill="white">
                    <use xlink:href="#path-13"></use>
                </mask>
                <g id="Clip-20"></g>
                <polygon id="Fill-19" fill="#FFFFFF" mask="url(#mask-14)" points="-0.08 570 50.08 570 50.08 0 -0.08 0"></polygon>
            </g>
            <g id="Group-24" transform="translate(620.000000, 10.000000)">
                <mask id="mask-16" fill="white">
                    <use xlink:href="#path-15"></use>
                </mask>
                <g id="Clip-23"></g>
                <polygon id="Fill-22" fill="#FFFFFF" mask="url(#mask-16)" points="-0.08 570 50.08 570 50.08 0 -0.08 0"></polygon>
            </g>
            <g id="Group-27" transform="translate(1420.000000, 210.000000)">
                <mask id="mask-18" fill="white">
                    <use xlink:href="#path-17"></use>
                </mask>
                <g id="Clip-26"></g>
                <polygon id="Fill-25" fill="#FFFFFF" mask="url(#mask-18)" points="-0.04 380.08 350 380.08 350 -0.08 -0.04 -0.08"></polygon>
            </g>
        </g>
    </g>
</svg>