<?xml version="1.0" encoding="UTF-8"?>
<svg width="797px" height="694px" viewBox="0 0 797 694" version="1.1" xmlns="http://www.w3.org/2000/svg" xmlns:xlink="http://www.w3.org/1999/xlink">
    <!-- Generator: Sketch 42 (36781) - http://www.bohemiancoding.com/sketch -->
    <title>Group 35</title>
    <desc>Created with Sketch.</desc>
    <defs>
        <rect id="path-1" x="10" y="59" width="234" height="128" rx="4"></rect>
        <mask id="mask-2" maskContentUnits="userSpaceOnUse" maskUnits="objectBoundingBox" x="0" y="0" width="234" height="128" fill="white">
            <use xlink:href="#path-1"></use>
        </mask>
        <rect id="path-3" x="0" y="49" width="30" height="30" rx="4"></rect>
        <filter x="-50%" y="-50%" width="200%" height="200%" filterUnits="objectBoundingBox" id="filter-4">
            <feOffset dx="0" dy="1" in="SourceAlpha" result="shadowOffsetOuter1"></feOffset>
            <feGaussianBlur stdDeviation="1.5" in="shadowOffsetOuter1" result="shadowBlurOuter1"></feGaussianBlur>
            <feColorMatrix values="0 0 0 0 0.673256803   0 0 0 0 0.673256803   0 0 0 0 0.673256803  0 0 0 0.444378397 0" type="matrix" in="shadowBlurOuter1"></feColorMatrix>
        </filter>
        <rect id="path-5" x="10" y="207" width="234" height="128" rx="4"></rect>
        <mask id="mask-6" maskContentUnits="userSpaceOnUse" maskUnits="objectBoundingBox" x="0" y="0" width="234" height="128" fill="white">
            <use xlink:href="#path-5"></use>
        </mask>
        <rect id="path-7" x="264" y="59" width="234" height="128" rx="4"></rect>
        <mask id="mask-8" maskContentUnits="userSpaceOnUse" maskUnits="objectBoundingBox" x="0" y="0" width="234" height="128" fill="white">
            <use xlink:href="#path-7"></use>
        </mask>
        <rect id="path-9" x="264" y="207" width="234" height="128" rx="4"></rect>
        <mask id="mask-10" maskContentUnits="userSpaceOnUse" maskUnits="objectBoundingBox" x="0" y="0" width="234" height="128" fill="white">
            <use xlink:href="#path-9"></use>
        </mask>
        <rect id="path-11" x="518" y="59" width="234" height="128" rx="4"></rect>
        <mask id="mask-12" maskContentUnits="userSpaceOnUse" maskUnits="objectBoundingBox" x="0" y="0" width="234" height="128" fill="white">
            <use xlink:href="#path-11"></use>
        </mask>
        <rect id="path-13" x="518" y="207" width="234" height="128" rx="4"></rect>
        <mask id="mask-14" maskContentUnits="userSpaceOnUse" maskUnits="objectBoundingBox" x="0" y="0" width="234" height="128" fill="white">
            <use xlink:href="#path-13"></use>
        </mask>
        <rect id="path-15" x="254" y="49" width="30" height="30" rx="4"></rect>
        <filter x="-50%" y="-50%" width="200%" height="200%" filterUnits="objectBoundingBox" id="filter-16">
            <feOffset dx="0" dy="1" in="SourceAlpha" result="shadowOffsetOuter1"></feOffset>
            <feGaussianBlur stdDeviation="1.5" in="shadowOffsetOuter1" result="shadowBlurOuter1"></feGaussianBlur>
            <feColorMatrix values="0 0 0 0 0.673256803   0 0 0 0 0.673256803   0 0 0 0 0.673256803  0 0 0 0.444378397 0" type="matrix" in="shadowBlurOuter1"></feColorMatrix>
        </filter>
        <rect id="path-17" x="508" y="49" width="30" height="30" rx="4"></rect>
        <filter x="-50%" y="-50%" width="200%" height="200%" filterUnits="objectBoundingBox" id="filter-18">
            <feOffset dx="0" dy="1" in="SourceAlpha" result="shadowOffsetOuter1"></feOffset>
            <feGaussianBlur stdDeviation="1.5" in="shadowOffsetOuter1" result="shadowBlurOuter1"></feGaussianBlur>
            <feColorMatrix values="0 0 0 0 0.673256803   0 0 0 0 0.673256803   0 0 0 0 0.673256803  0 0 0 0.444378397 0" type="matrix" in="shadowBlurOuter1"></feColorMatrix>
        </filter>
        <rect id="path-19" x="508" y="197" width="30" height="30" rx="4"></rect>
        <filter x="-50%" y="-50%" width="200%" height="200%" filterUnits="objectBoundingBox" id="filter-20">
            <feOffset dx="0" dy="1" in="SourceAlpha" result="shadowOffsetOuter1"></feOffset>
            <feGaussianBlur stdDeviation="1.5" in="shadowOffsetOuter1" result="shadowBlurOuter1"></feGaussianBlur>
            <feColorMatrix values="0 0 0 0 0.673256803   0 0 0 0 0.673256803   0 0 0 0 0.673256803  0 0 0 0.444378397 0" type="matrix" in="shadowBlurOuter1"></feColorMatrix>
        </filter>
        <rect id="path-21" x="254" y="197" width="30" height="30" rx="4"></rect>
        <filter x="-50%" y="-50%" width="200%" height="200%" filterUnits="objectBoundingBox" id="filter-22">
            <feOffset dx="0" dy="1" in="SourceAlpha" result="shadowOffsetOuter1"></feOffset>
            <feGaussianBlur stdDeviation="1.5" in="shadowOffsetOuter1" result="shadowBlurOuter1"></feGaussianBlur>
            <feColorMatrix values="0 0 0 0 0.673256803   0 0 0 0 0.673256803   0 0 0 0 0.673256803  0 0 0 0.444378397 0" type="matrix" in="shadowBlurOuter1"></feColorMatrix>
        </filter>
        <rect id="path-23" x="0" y="197" width="30" height="30" rx="4"></rect>
        <filter x="-50%" y="-50%" width="200%" height="200%" filterUnits="objectBoundingBox" id="filter-24">
            <feOffset dx="0" dy="1" in="SourceAlpha" result="shadowOffsetOuter1"></feOffset>
            <feGaussianBlur stdDeviation="1.5" in="shadowOffsetOuter1" result="shadowBlurOuter1"></feGaussianBlur>
            <feColorMatrix values="0 0 0 0 0.673256803   0 0 0 0 0.673256803   0 0 0 0 0.673256803  0 0 0 0.444378397 0" type="matrix" in="shadowBlurOuter1"></feColorMatrix>
        </filter>
        <rect id="path-25" x="10" y="423" width="234" height="128" rx="4"></rect>
        <mask id="mask-26" maskContentUnits="userSpaceOnUse" maskUnits="objectBoundingBox" x="0" y="0" width="234" height="128" fill="white">
            <use xlink:href="#path-25"></use>
        </mask>
        <rect id="path-27" x="0" y="413" width="30" height="30" rx="4"></rect>
        <filter x="-50%" y="-50%" width="200%" height="200%" filterUnits="objectBoundingBox" id="filter-28">
            <feOffset dx="0" dy="1" in="SourceAlpha" result="shadowOffsetOuter1"></feOffset>
            <feGaussianBlur stdDeviation="1.5" in="shadowOffsetOuter1" result="shadowBlurOuter1"></feGaussianBlur>
            <feColorMatrix values="0 0 0 0 0.673256803   0 0 0 0 0.673256803   0 0 0 0 0.673256803  0 0 0 0.444378397 0" type="matrix" in="shadowBlurOuter1"></feColorMatrix>
        </filter>
        <rect id="path-29" x="10" y="571" width="234" height="128" rx="4"></rect>
        <mask id="mask-30" maskContentUnits="userSpaceOnUse" maskUnits="objectBoundingBox" x="0" y="0" width="234" height="128" fill="white">
            <use xlink:href="#path-29"></use>
        </mask>
        <rect id="path-31" x="264" y="571" width="488" height="128" rx="4"></rect>
        <mask id="mask-32" maskContentUnits="userSpaceOnUse" maskUnits="objectBoundingBox" x="0" y="0" width="488" height="128" fill="white">
            <use xlink:href="#path-31"></use>
        </mask>
        <rect id="path-33" x="264" y="423" width="234" height="128" rx="4"></rect>
        <mask id="mask-34" maskContentUnits="userSpaceOnUse" maskUnits="objectBoundingBox" x="0" y="0" width="234" height="128" fill="white">
            <use xlink:href="#path-33"></use>
        </mask>
        <rect id="path-35" x="518" y="423" width="234" height="128" rx="4"></rect>
        <mask id="mask-36" maskContentUnits="userSpaceOnUse" maskUnits="objectBoundingBox" x="0" y="0" width="234" height="128" fill="white">
            <use xlink:href="#path-35"></use>
        </mask>
        <rect id="path-37" x="254" y="413" width="30" height="30" rx="4"></rect>
        <filter x="-50%" y="-50%" width="200%" height="200%" filterUnits="objectBoundingBox" id="filter-38">
            <feOffset dx="0" dy="1" in="SourceAlpha" result="shadowOffsetOuter1"></feOffset>
            <feGaussianBlur stdDeviation="1.5" in="shadowOffsetOuter1" result="shadowBlurOuter1"></feGaussianBlur>
            <feColorMatrix values="0 0 0 0 0.673256803   0 0 0 0 0.673256803   0 0 0 0 0.673256803  0 0 0 0.444378397 0" type="matrix" in="shadowBlurOuter1"></feColorMatrix>
        </filter>
        <rect id="path-39" x="508" y="413" width="30" height="30" rx="4"></rect>
        <filter x="-50%" y="-50%" width="200%" height="200%" filterUnits="objectBoundingBox" id="filter-40">
            <feOffset dx="0" dy="1" in="SourceAlpha" result="shadowOffsetOuter1"></feOffset>
            <feGaussianBlur stdDeviation="1.5" in="shadowOffsetOuter1" result="shadowBlurOuter1"></feGaussianBlur>
            <feColorMatrix values="0 0 0 0 0.673256803   0 0 0 0 0.673256803   0 0 0 0 0.673256803  0 0 0 0.444378397 0" type="matrix" in="shadowBlurOuter1"></feColorMatrix>
        </filter>
        <rect id="path-41" x="0" y="561" width="30" height="30" rx="4"></rect>
        <filter x="-50%" y="-50%" width="200%" height="200%" filterUnits="objectBoundingBox" id="filter-42">
            <feOffset dx="0" dy="1" in="SourceAlpha" result="shadowOffsetOuter1"></feOffset>
            <feGaussianBlur stdDeviation="1.5" in="shadowOffsetOuter1" result="shadowBlurOuter1"></feGaussianBlur>
            <feColorMatrix values="0 0 0 0 0.673256803   0 0 0 0 0.673256803   0 0 0 0 0.673256803  0 0 0 0.444378397 0" type="matrix" in="shadowBlurOuter1"></feColorMatrix>
        </filter>
        <path d="M0.99037727,0.172848863 L0.173367929,0.989339139 C-0.0596925504,1.22239962 -0.0560590908,1.5914553 0.173367929,1.82088232 L15.8263118,17.4759025 C16.057296,17.7063676 16.428428,17.7053295 16.657855,17.4753834 L17.4743453,16.6588931 C17.7079248,16.4258327 17.7042914,16.056777 17.4748643,15.82735 L1.82192045,0.172329798 C1.70668787,0.0570972221 1.5566779,6.25277607e-13 1.40666793,6.25277607e-13 C1.25613889,6.25277607e-13 1.10509078,0.0576162877 0.99037727,0.172848863 L0.99037727,0.172848863 Z" id="path-43"></path>
    </defs>
    <g id="Page-1" stroke="none" stroke-width="1" fill="none" fill-rule="evenodd">
        <g id="Artboard" transform="translate(-5035.000000, -1557.000000)">
            <g id="Group-35" transform="translate(5038.000000, 1552.000000)">
                <g id="Group-12">
                    <path d="M242.5,549.5 L265.5,572.5" id="Line" stroke="#5CCD38" stroke-linecap="square"></path>
                    <path d="M635.5,550.5 L635.5,571.523796" id="Line" stroke="#5CCD38" stroke-linecap="square"></path>
                    <path d="M381.5,550.5 L381.5,571.5" id="Line" stroke="#5CCD38" stroke-linecap="square"></path>
                    <path d="M243.5,634.5 L264.523796,634.5" id="Line" stroke="#5CCD38" stroke-linecap="square"></path>
                    <path d="M752,642 L752,642 C756.142136,642 759.5,638.642136 759.5,634.5 C759.5,630.357864 756.142136,627 752,627" id="Oval-3-Copy" stroke="#5CCD38"></path>
                    <use id="Rectangle-33-Copy" stroke-opacity="0.497650589" stroke="#B3C3CF" mask="url(#mask-2)" stroke-width="2" fill="#FFFFFF" xlink:href="#path-1"></use>
                    <g id="Rectangle-33-Copy">
                        <use fill="black" fill-opacity="1" filter="url(#filter-4)" xlink:href="#path-3"></use>
                        <use fill="#5CCD38" fill-rule="evenodd" xlink:href="#path-3"></use>
                    </g>
                    <use id="Rectangle-33-Copy-4" stroke-opacity="0.497650589" stroke="#B3C3CF" mask="url(#mask-6)" stroke-width="2" fill="#FFFFFF" xlink:href="#path-5"></use>
                    <use id="Rectangle-33-Copy-2" stroke-opacity="0.497650589" stroke="#B3C3CF" mask="url(#mask-8)" stroke-width="2" fill="#FFFFFF" xlink:href="#path-7"></use>
                    <use id="Rectangle-33-Copy-5" stroke-opacity="0.497650589" stroke="#B3C3CF" mask="url(#mask-10)" stroke-width="2" fill="#FFFFFF" xlink:href="#path-9"></use>
                    <use id="Rectangle-33-Copy-3" stroke-opacity="0.497650589" stroke="#B3C3CF" mask="url(#mask-12)" stroke-width="2" fill="#FFFFFF" xlink:href="#path-11"></use>
                    <use id="Rectangle-33-Copy-6" stroke="#5CCD38" mask="url(#mask-14)" stroke-width="2" fill="#FFFFFF" xlink:href="#path-13"></use>
                    <g id="Icon" transform="translate(614.000000, 231.000000)" stroke="#646464" stroke-width="4" stroke-linecap="round">
                        <path d="M40.2501,34 C40.2501,27.373 31.2961,22 20.2501,22 C9.2041,22 0.2501,27.373 0.2501,34" id="Stroke-13"></path>
                        <path d="M20.2501,22.0087 C26.3251,22.0087 31.2501,17.0837 31.2501,11.0087 C31.2501,4.9337 26.3251,0.0087 20.2501,0.0087 C14.1751,0.0087 9.2501,4.9337 9.2501,11.0087 C9.2501,17.0837 14.1751,22.0087 20.2501,22.0087 L20.2501,22.0087 Z" id="Stroke-15"></path>
                        <path d="M40.3000488,34 L40.3000488,40.565 C40.3000488,41.151 40.1010488,42 39.5210488,42 L1.57904883,42 C1.01104883,42 0.300048828,41.144 0.300048828,40.565 L0.300048828,34" id="Stroke-17"></path>
                    </g>
                    <g id="Icon" transform="translate(359.000000, 88.000000)" stroke="#646464" stroke-width="4">
                        <path d="M0,15.5612 C0,14.9332 0.64,14.0002 1.271,14.0002 L12.193,14.0002 C12.828,14.0002 13,14.9382 13,15.5612 L13,36.8632 C13,37.4912 12.825,38.0002 12.193,38.0002 L1.271,38.0002 C0.636,38.0002 0,37.4862 0,36.8632 L0,15.5612 L0,15.5612 Z" id="Stroke-70"></path>
                        <path d="M29,12 L41.372,12 C42.837,12 44.129,15.754 43.837,17.129 C43.837,17.129 40.298,31.436 39.438,33.659 C38.577,35.882 35.696,36 35.078,36 L33,36" id="Stroke-72" stroke-linecap="round" stroke-linejoin="bevel"></path>
                        <path d="M14.0294,17.1202 L16.2954,16.2212 L21.1254,7.6552 C21.1254,7.6552 20.9344,3.1152 21.4154,1.7492 C21.8974,0.3842 26.3254,-2.1048 28.9324,3.4742 C31.5384,9.0522 28.9324,12.1702 28.9324,12.1702" id="Stroke-74" stroke-linecap="round"></path>
                        <path d="M21.8624,36.3777 C19.5864,35.5457 13.7284,33.3387 13.7284,33.3387" id="Stroke-76" stroke-linecap="round" stroke-linejoin="bevel"></path>
                        <path d="M22,36 L35,36" id="Stroke-78" stroke-linecap="round"></path>
                    </g>
                    <g id="Icon" transform="translate(614.000000, 84.000000)" stroke="#646464" stroke-width="4">
                        <path d="M25.9968,20.7216 C25.9968,24.0356 23.3108,26.7216 19.9968,26.7216 C16.6828,26.7216 13.9968,24.0356 13.9968,20.7216 C13.9968,17.4076 16.6828,14.7216 19.9968,14.7216 C23.3108,14.7216 25.9968,17.4076 25.9968,20.7216 L25.9968,20.7216 Z" id="Stroke-146"></path>
                        <path d="M37.2083,20.2228 C37.2083,18.3648 36.8993,16.5818 36.3483,14.9078 L39.4343,12.7098 C39.8843,12.3898 39.9893,11.7648 39.6683,11.3148 L35.0273,4.7988 C34.7063,4.3498 34.0823,4.2448 33.6323,4.5648 L30.4513,6.7568 C28.8643,5.5348 27.0003,4.5758 25.0003,3.9728 L25.0003,0.9998 C25.0003,-0.0002 24.7603,-0.0002 24.2083,-0.0002 L16.2083,-0.0002 L15.0003,0.9998 L15.0003,3.9728 C13.0003,4.5958 11.2183,5.5968 9.5923,6.8788 L6.2633,4.5148 C5.8113,4.1978 5.2133,4.3078 4.8973,4.7608 L0.3243,11.3158 C0.0083,11.7688 0.1253,12.3918 0.5773,12.7088 L3.9953,15.0968 C3.4833,16.7148 3.2063,18.4358 3.2063,20.2228 C3.2063,22.1068 3.5263,23.9138 4.0923,25.6078 L0.9813,27.8238 C0.5313,28.1448 0.4263,28.7688 0.7473,29.2188 L5.3893,35.7348 C5.7093,36.1838 6.3333,36.2888 6.7833,35.9688 L9.8163,33.7338 C11.3893,34.9338 13.0003,35.8778 15.0003,36.4728 L15.0003,40.3108 C15.0003,40.8628 15.6553,41.9998 16.2083,41.9998 L24.2083,41.9998 C24.7603,41.9998 25.0003,40.8628 25.0003,40.3108 L25.0003,36.4728 C27.0003,35.8688 28.8723,34.9068 30.4633,33.6808 L33.3813,35.6858 C33.8343,36.0028 34.4833,35.8928 34.8003,35.4398 L39.3983,28.8838 C39.7153,28.4318 39.6113,27.8078 39.1583,27.4918 L36.3533,25.5248 C36.9013,23.8548 37.2083,22.0758 37.2083,20.2228 Z" id="Stroke-148" stroke-linejoin="round"></path>
                    </g>
                    <g id="Icon" transform="translate(362.000000, 229.000000)" stroke="#646464" stroke-width="4" stroke-linecap="round">
                        <path d="M29.3721,44 L9.6281,44 C5.7621,44 3.0001,40.366 3.0001,36.5 L3.0001,9.086 C3.0001,7.982 3.5231,8 4.6281,8 L33.3721,8 C34.4771,8 35.0001,7.982 35.0001,9.086 L35.0001,37.5 C35.0001,40.814 32.6861,44 29.3721,44 L29.3721,44 Z" id="Stroke-262"></path>
                        <path d="M0,8 L38,8" id="Stroke-264"></path>
                        <path d="M26,6 C26,6.552 25.552,7 25,7 L13,7 C12.448,7 12,6.552 12,6 L12,1 C12,0.448 12.448,0 13,0 L25,0 C25.552,0 26,0.448 26,1 L26,6 L26,6 Z" id="Stroke-266"></path>
                        <path d="M11,17 L11,35" id="Stroke-268"></path>
                        <path d="M19,17 L19,35" id="Stroke-270"></path>
                        <path d="M27,17 L27,35" id="Stroke-272"></path>
                    </g>
                    <text id="Sign-Up-for-FullStor" font-family="AvenirNext-DemiBold, Avenir Next" font-size="20" font-weight="500" fill="#579AE4">
                        <tspan x="32.05" y="158">Sign Up for FullStory</tspan>
                    </text>
                    <text id="Engaging-Info-Emails" font-family="AvenirNext-DemiBold, Avenir Next" font-size="20" font-weight="500" fill="#579AE4">
                        <tspan x="29.34" y="305">Engaging Info Emails</tspan>
                    </text>
                    <text id="Activate-Account" font-family="AvenirNext-DemiBold, Avenir Next" font-size="20" font-weight="500" fill="#579AE4">
                        <tspan x="303.03" y="158">Activate Account</tspan>
                    </text>
                    <text id="Trial-Expire" font-family="AvenirNext-DemiBold, Avenir Next" font-size="20" font-weight="500" fill="#579AE4">
                        <tspan x="330.04" y="305">Trial Expire</tspan>
                    </text>
                    <text id="Set-Up-Account" font-family="AvenirNext-DemiBold, Avenir Next" font-size="20" font-weight="500" fill="#579AE4">
                        <tspan x="563.87" y="158">Set Up Account</tspan>
                    </text>
                    <text id="New-Customer" font-family="AvenirNext-DemiBold, Avenir Next" font-size="20" font-weight="500" fill="#579AE4">
                        <tspan x="566.42" y="305">New Customer</tspan>
                    </text>
                    <g id="Icon" transform="translate(107.000000, 83.000000)" stroke="#646464" stroke-width="4" stroke-linecap="round" stroke-linejoin="round">
                        <polyline id="Stroke-80" points="34 27 34 43 0 43 0 9 14 9"></polyline>
                        <polygon id="Stroke-82" points="23.2151 28.2505 42.8151 8.5745 34.3511 0.1435 14.7511 19.8195 13.1851 29.8565"></polygon>
                        <path d="M29.2851,5.9728 L37.0631,13.7508" id="Stroke-84"></path>
                    </g>
                    <g id="Icon" transform="translate(104.000000, 238.000000)" stroke="#646464">
                        <path d="M44.1478,35 L1.8518,35 C1.2118,35 0.9998,33.974 0.9998,33.331 L0.9998,1.669 C0.9998,1.402 0.9338,1.156 1.0848,0.959 C1.1408,0.885 1.1278,1.069 1.1988,1.011 C1.3988,0.848 1.5758,1 1.8518,1 L44.1478,1 C44.7888,1 44.9998,1.026 44.9998,1.669 L44.9998,33.331 C44.9998,33.974 44.7888,35 44.1478,35 L44.1478,35 Z" id="Stroke-98" stroke-width="4"></path>
                        <path d="M0.9287,0.9586 L18.2667,17.9286 C20.9867,20.4926 25.3307,20.4746 28.0267,17.8886 L45.1457,1.0766" id="Stroke-100" stroke-width="4.104"></path>
                        <path d="M45.1458,33.923 L31.0608,14.909" id="Stroke-102" stroke-width="4.104"></path>
                        <path d="M0.8542,33.923 L15.2312,14.909" id="Stroke-104" stroke-width="4.104"></path>
                    </g>
                    <g id="Rectangle-33-Copy-7">
                        <use fill="black" fill-opacity="1" filter="url(#filter-16)" xlink:href="#path-15"></use>
                        <use fill="#5CCD38" fill-rule="evenodd" xlink:href="#path-15"></use>
                    </g>
                    <g id="Rectangle-33-Copy-8">
                        <use fill="black" fill-opacity="1" filter="url(#filter-18)" xlink:href="#path-17"></use>
                        <use fill="#5CCD38" fill-rule="evenodd" xlink:href="#path-17"></use>
                    </g>
                    <g id="Rectangle-33-Copy-9">
                        <use fill="black" fill-opacity="1" filter="url(#filter-20)" xlink:href="#path-19"></use>
                        <use fill="#5CCD38" fill-rule="evenodd" xlink:href="#path-19"></use>
                    </g>
                    <g id="Rectangle-33-Copy-10">
                        <use fill="black" fill-opacity="1" filter="url(#filter-22)" xlink:href="#path-21"></use>
                        <use fill="#5CCD38" fill-rule="evenodd" xlink:href="#path-21"></use>
                    </g>
                    <g id="Rectangle-33-Copy-11">
                        <use fill="black" fill-opacity="1" filter="url(#filter-24)" xlink:href="#path-23"></use>
                        <use fill="#5CCD38" fill-rule="evenodd" xlink:href="#path-23"></use>
                    </g>
                    <text id="1" font-family="AvenirNext-DemiBold, Avenir Next" font-size="20" font-weight="500" fill="#FFFFFF">
                        <tspan x="8.4" y="71">1</tspan>
                    </text>
                    <text id="4" font-family="AvenirNext-DemiBold, Avenir Next" font-size="20" font-weight="500" fill="#FFFFFF">
                        <tspan x="8.4" y="219">4</tspan>
                    </text>
                    <text id="2" font-family="AvenirNext-DemiBold, Avenir Next" font-size="20" font-weight="500" fill="#FFFFFF">
                        <tspan x="263.4" y="71">2</tspan>
                    </text>
                    <text id="5" font-family="AvenirNext-DemiBold, Avenir Next" font-size="20" font-weight="500" fill="#FFFFFF">
                        <tspan x="263.4" y="219">5</tspan>
                    </text>
                    <text id="6" font-family="AvenirNext-DemiBold, Avenir Next" font-size="20" font-weight="500" fill="#FFFFFF">
                        <tspan x="516.4" y="219">6</tspan>
                    </text>
                    <text id="3" font-family="AvenirNext-DemiBold, Avenir Next" font-size="20" font-weight="500" fill="#FFFFFF">
                        <tspan x="517.4" y="71">3</tspan>
                    </text>
                    <use id="Rectangle-33-Copy" stroke-opacity="0.497650589" stroke="#B3C3CF" mask="url(#mask-26)" stroke-width="2" fill="#FFFFFF" xlink:href="#path-25"></use>
                    <g id="Rectangle-33-Copy">
                        <use fill="black" fill-opacity="1" filter="url(#filter-28)" xlink:href="#path-27"></use>
                        <use fill="#E96868" fill-rule="evenodd" xlink:href="#path-27"></use>
                    </g>
                    <use id="Rectangle-33-Copy-4" stroke-opacity="0.497650589" stroke="#B3C3CF" mask="url(#mask-30)" stroke-width="2" fill="#FFFFFF" xlink:href="#path-29"></use>
                    <use id="Rectangle-33-Copy-12" stroke="#5CCD38" mask="url(#mask-32)" stroke-width="2" fill="#FFFFFF" xlink:href="#path-31"></use>
                    <use id="Rectangle-33-Copy-2" stroke-opacity="0.497650589" stroke="#B3C3CF" mask="url(#mask-34)" stroke-width="2" fill="#FFFFFF" xlink:href="#path-33"></use>
                    <use id="Rectangle-33-Copy-3" stroke-opacity="0.497650589" stroke="#B3C3CF" mask="url(#mask-36)" stroke-width="2" fill="#FFFFFF" xlink:href="#path-35"></use>
                    <text id="Trial-+-Credit-Card" font-family="AvenirNext-DemiBold, Avenir Next" font-size="20" font-weight="500" fill="#579AE4">
                        <tspan x="42.9" y="507">Trial + Credit Card </tspan>
                        <tspan x="86.45" y="534">Aversion </tspan>
                    </text>
                    <text id="Last-Email-Ever" font-family="AvenirNext-DemiBold, Avenir Next" font-size="20" font-weight="500" fill="#579AE4">
                        <tspan x="57.2" y="669">Last Email Ever</tspan>
                    </text>
                    <text id="Turning-Sad-Path-int" font-family="AvenirNext-DemiBold, Avenir Next" font-size="20" font-weight="500" fill="#579AE4">
                        <tspan x="348.6" y="669">Turning Sad Path into Happy Path!</tspan>
                    </text>
                    <text id="Integrations" font-family="AvenirNext-DemiBold, Avenir Next" font-size="20" font-weight="500" fill="#579AE4">
                        <tspan x="325.55" y="519">Integrations</tspan>
                    </text>
                    <text id="No-Sessions-Recorded" font-family="AvenirNext-DemiBold, Avenir Next" font-size="20" font-weight="500" fill="#579AE4">
                        <tspan x="579.2" y="507">No Sessions </tspan>
                        <tspan x="590.23" y="534">Recorded</tspan>
                    </text>
                    <g id="Rectangle-33-Copy-7">
                        <use fill="black" fill-opacity="1" filter="url(#filter-38)" xlink:href="#path-37"></use>
                        <use fill="#E96868" fill-rule="evenodd" xlink:href="#path-37"></use>
                    </g>
                    <g id="Rectangle-33-Copy-8">
                        <use fill="black" fill-opacity="1" filter="url(#filter-40)" xlink:href="#path-39"></use>
                        <use fill="#E96868" fill-rule="evenodd" xlink:href="#path-39"></use>
                    </g>
                    <g id="Rectangle-33-Copy-11">
                        <use fill="black" fill-opacity="1" filter="url(#filter-42)" xlink:href="#path-41"></use>
                        <use fill="#E96868" fill-rule="evenodd" xlink:href="#path-41"></use>
                    </g>
                    <text id="1" font-family="AvenirNext-DemiBold, Avenir Next" font-size="20" font-weight="500" fill="#FFFFFF">
                        <tspan x="8.4" y="435">1</tspan>
                    </text>
                    <text id="4" font-family="AvenirNext-DemiBold, Avenir Next" font-size="20" font-weight="500" fill="#FFFFFF">
                        <tspan x="8.4" y="583">4</tspan>
                    </text>
                    <text id="2" font-family="AvenirNext-DemiBold, Avenir Next" font-size="20" font-weight="500" fill="#FFFFFF">
                        <tspan x="263.4" y="435">2</tspan>
                    </text>
                    <text id="3" font-family="AvenirNext-DemiBold, Avenir Next" font-size="20" font-weight="500" fill="#FFFFFF">
                        <tspan x="517.4" y="435">3</tspan>
                    </text>
                    <g id="Icon" transform="translate(107.000000, 445.000000)" stroke="#43484D" stroke-width="4" stroke-linecap="round" stroke-linejoin="round">
                        <path d="M41,31 L1,31 C0.448,31 0,30.105 0,29.618 L0,1.382 C0,0.895 0.448,1 1,1 L41,1 C41.552,1 42,0.895 42,1.382 L42,29.618 C42,30.105 41.552,31 41,31 L41,31 Z" id="Stroke-421"></path>
                        <polygon id="Stroke-422" points="0 16 42 16 42 8 0 8"></polygon>
                    </g>
                    <g id="Icon" transform="translate(360.000000, 446.000000)" stroke="#43484D" stroke-width="4" stroke-linecap="round">
                        <path d="M9,41 C9,41.552 8.552,42 8,42 L1,42 C0.448,42 0,41.552 0,41 L0,16 C0,15.448 0.448,15 1,15 L8,15 C8.552,15 9,15.448 9,16 L9,41 L9,41 Z" id="Stroke-274"></path>
                        <path d="M43,41 C43,41.552 42.552,42 42,42 L35,42 C34.448,42 34,41.552 34,41 L34,26 C34,25.448 34.448,25 35,25 L42,25 C42.552,25 43,25.448 43,26 L43,41 L43,41 Z" id="Stroke-276"></path>
                        <path d="M26,41 C26,41.552 25.552,42 25,42 L18,42 C17.448,42 17,41.552 17,41 L17,1 C17,0.448 17.448,0 18,0 L25,0 C25.552,0 26,0.448 26,1 L26,41 L26,41 Z" id="Stroke-278"></path>
                    </g>
                    <g id="Icon" transform="translate(622.000000, 438.000000)" stroke="#43484D" stroke-width="4" stroke-linecap="round" stroke-linejoin="round">
                        <path d="M21,20 C21,23.314 18.314,26 15,26 L13,26 C9.686,26 7,23.314 7,20 L7,6 C7,2.686 9.686,0 13,0 L15,0 C18.314,0 21,2.686 21,6 L21,20 L21,20 Z" id="Stroke-455"></path>
                        <path d="M28,21 C28,27.627 21.732,33 14,33 C6.268,33 0,27.627 0,21" id="Stroke-456"></path>
                        <path d="M14,34 L14,42" id="Stroke-457"></path>
                        <path d="M4,42 L24,42" id="Stroke-458"></path>
                    </g>
                    <g id="Icon" transform="translate(106.000000, 593.000000)" stroke="#43484D" stroke-width="4" stroke-linecap="round" stroke-linejoin="round">
                        <path d="M10,32.017 L20.725,44.757 C20.917,44.984 21.23,44.981 21.419,44.757 L32.159,32" id="Stroke-136"></path>
                        <path d="M2.974,16.542 C2.131,15.38 1.524,14.04 1.22,12.591 C1.076,11.903 1,11.191 1,10.461 C1,4.683 5.745,0 11.598,0 C16.427,0 20.501,3.188 21.78,7.547 L22.221,7.556 C23.499,3.196 27.573,0.008 32.402,0.008 C38.255,0.008 43,4.692 43,10.469 C43,11.199 42.924,11.912 42.78,12.599 C42.468,14.09 41.834,15.464 40.954,16.649" id="Stroke-138"></path>
                        <polyline id="Stroke-140" points="0 24.928 8.16 24.777 12.696 18 19.232 29.71 24.798 25.271 41.023 25.271"></polyline>
                    </g>
                    <text id="Happy-Path" font-family="OpenSans-Semibold, Open Sans" font-size="20" font-weight="500" fill="#5CCD38">
                        <tspan x="320.738281" y="21">Happy Path</tspan>
                    </text>
                    <text id="Sad-Path" font-family="OpenSans-Semibold, Open Sans" font-size="20" font-weight="500" fill="#E96868">
                        <tspan x="333.641602" y="385">Sad Path</tspan>
                    </text>
                    <path d="M760.609375,633.992188 L788.696482,633.992188 C790.904975,633.992188 792.695312,632.201498 792.695312,629.996841 L792.695312,275.330449 C792.695312,273.12388 790.912229,271.335103 788.699379,271.335103 L788.745933,271.335103 C786.53904,271.335103 782.961762,271.357951 780.756584,271.386125 L769.550781,271.529297" id="Path-4" stroke="#5CCD38" stroke-linecap="round" stroke-linejoin="round"></path>
                    <g id="Group-18" transform="translate(370.000000, 594.000000)">
                        <g id="Icon-Copy" stroke="#43484D" stroke-width="4" stroke-linecap="round">
                            <path d="M40.2501,34 C40.2501,27.373 31.2961,22 20.2501,22 C9.2041,22 0.2501,27.373 0.2501,34" id="Stroke-13"></path>
                            <path d="M20.2501,22.0087 C26.3251,22.0087 31.2501,17.0837 31.2501,11.0087 C31.2501,4.9337 26.3251,0.0087 20.2501,0.0087 C14.1751,0.0087 9.2501,4.9337 9.2501,11.0087 C9.2501,17.0837 14.1751,22.0087 20.2501,22.0087 L20.2501,22.0087 Z" id="Stroke-15"></path>
                            <path d="M40.3000488,34 L40.3000488,40.565 C40.3000488,41.151 40.1010488,42 39.5210488,42 L1.57904883,42 C1.01104883,42 0.300048828,41.144 0.300048828,40.565 L0.300048828,34" id="Stroke-17"></path>
                        </g>
                        <g id="Icon" transform="translate(66.000000, 14.000000)" stroke="#43484D" stroke-width="4" stroke-linecap="round" stroke-linejoin="round">
                            <polygon id="Stroke-52" points="29.8368913 11.0927235 19.0297174 0.000194117647"></polygon>
                            <path d="M0,11 L29.3478261,11" id="Stroke-54"></path>
                            <path d="M29.8368913,11.0927235 L19.050587,22.0001941" id="Stroke-56"></path>
                        </g>
                        <g id="Icon-Copy-2" transform="translate(203.727922, 24.727922) rotate(45.000000) translate(-203.727922, -24.727922) translate(194.727922, 15.727922)">
                            <g id="Group-22" transform="translate(0.000000, 0.000000)">
                                <mask id="mask-44" fill="white">
                                    <use xlink:href="#path-43"></use>
                                </mask>
                                <g id="Clip-21"></g>
                            </g>
                            <path d="M1.05474141,1.0625274 L16.5441796,16.4626863" id="Stroke-23" stroke="#43484D" stroke-width="4" stroke-linecap="round"></path>
                            <path d="M16.5442834,1.0625274 L1.05484522,16.4626863" id="Stroke-25" stroke="#43484D" stroke-width="4" stroke-linecap="round"></path>
                        </g>
                        <g id="Icon" transform="translate(121.000000, 0.000000)" stroke="#43484D">
                            <path d="M17.4097,43.2341 C19.4447,43.2341 21.0937,41.5391 21.0937,39.4491 C21.0937,37.3591 19.4447,35.6641 17.4097,35.6641 C15.3747,35.6641 13.7257,37.3591 13.7257,39.4491 C13.7257,41.5391 15.3747,43.2341 17.4097,43.2341 L17.4097,43.2341 Z" id="Stroke-224" stroke-width="3.652"></path>
                            <path d="M33.0675,43.2341 C35.1025,43.2341 36.7515,41.5391 36.7515,39.4491 C36.7515,37.3591 35.1025,35.6641 33.0675,35.6641 C31.0325,35.6641 29.3835,37.3591 29.3835,39.4491 C29.3835,41.5391 31.0325,43.2341 33.0675,43.2341 L33.0675,43.2341 Z" id="Stroke-226" stroke-width="3.652"></path>
                            <path d="M7.9869,6 L43.4109,6 C43.9299,6 44.2329,6.07 44.0809,6.555 L38.6819,23.946 C38.5329,24.422 38.1259,25 37.7699,25 L13.6279,25 C13.2729,25 12.8679,24.277 12.7159,23.792 L7.3169,6.727 C7.1669,6.251 7.4649,6 7.9869,6 L7.9869,6 Z" id="Stroke-228" stroke-width="4"></path>
                            <path d="M7.2782,5.8577 L5.4362,1.2337" id="Stroke-230" stroke-width="3.652" stroke-linecap="round"></path>
                            <path d="M13.7256,24.7824 C13.3856,24.7824 12.9966,25.1664 12.8506,25.6584 L10.0416,33.2984" id="Stroke-232" stroke-width="3.652" stroke-linecap="round"></path>
                            <path d="M0,0 L5,0" id="Stroke-234" stroke-width="4" stroke-linecap="round"></path>
                            <path d="M10,34 L39,34" id="Stroke-236" stroke-width="4" stroke-linecap="round"></path>
                        </g>
                        <g id="Icon" transform="translate(242.000000, 0.000000)" stroke="#43484D" stroke-width="4" stroke-linecap="round" stroke-linejoin="round">
                            <path d="M1.79234,18.1751684 L21.38224,41.6973789 C21.71994,42.1030105 22.27214,42.0974842 22.60544,41.6973789 L42.19424,18.1751684 L41.41324,19.1809579 C42.56604,17.7319579 43.39214,15.9856421 43.76944,14.0658 C43.92014,13.2976421 44.00044,12.5018526 44.00044,11.6872737 C44.00044,5.23806316 39.02954,0.0090631579 32.89704,0.0090631579 C27.83814,0.0090631579 23.57014,3.56801053 22.23144,8.43448421 L21.76944,8.42564211 C20.42964,3.55806316 16.16164,0.000221052633 11.10274,0.000221052633 C4.97134,0.000221052633 0.00044,5.22811579 0.00044,11.6784316 C0.00044,12.4930105 0.07964,13.2876947 0.23034,14.0558526 C0.60764,15.9756947 1.43374,17.7231158 2.58764,19.1721158" id="Stroke-1"></path>
                        </g>
                    </g>
                </g>
                <path d="M769.5,271.5 L778.014693,262.985307" id="Line" stroke="#5CCD38" stroke-linecap="round" stroke-linejoin="round"></path>
                <path d="M769.5,280.5 L778.014693,271.985307" id="Line" stroke="#5CCD38" stroke-linecap="round" stroke-linejoin="round" transform="translate(774.000000, 276.000000) scale(1, -1) translate(-774.000000, -276.000000) "></path>
            </g>
        </g>
    </g>
</svg>