<!-- Generator: Adobe Illustrator 18.1.0, SVG Export Plug-In  -->
<svg version="1.1"
	 xmlns="http://www.w3.org/2000/svg" xmlns:xlink="http://www.w3.org/1999/xlink" xmlns:a="http://ns.adobe.com/AdobeSVGViewerExtensions/3.0/"
	 x="0px" y="0px" width="134.136px" height="134.135px" viewBox="0 0 134.136 134.135" enable-background="new 0 0 134.136 134.135"
	 xml:space="preserve">
<defs>
</defs>
<g>
	<circle fill="#45C1C2" cx="67.068" cy="67.068" r="67.068"/>
	<g>
		<path fill-rule="evenodd" clip-rule="evenodd" fill="#FFFFFF" d="M97.667,28.475c0.777,0.239,1.554,0.483,2.333,0.721
			c6.765,2.058,11.891,10.267,7.143,19.098c3.165,2.825,5.425,6.293,6.064,10.633c0.179,1.219,0.266,2.461,0.269,3.694
			c0.027,8.917-0.002,17.836,0.052,26.754c0.008,1.402-0.207,2.581-1.752,2.768c-1.674,0.201-2.185-0.913-2.432-2.426
			c-0.902-5.503-3.899-8.028-9.467-8.054c-5.946-0.03-11.891-0.058-17.836,0.016c-2.315,0.027-3.41-0.868-3.21-3.228
			c0.056-0.656,0.011-1.32,0.007-1.98c-0.022-3.479-1.138-4.679-4.533-4.714c-3.962-0.042-7.927-0.042-11.891,0.001
			c-3.284,0.036-4.408,1.22-4.461,4.529c-0.086,5.369-0.086,5.369-5.513,5.369c-5.203,0-10.404-0.025-15.607,0.009
			c-5.528,0.034-8.668,2.7-9.424,8.104c-0.202,1.445-0.7,2.473-2.218,2.379c-1.544-0.095-1.912-1.266-1.907-2.668
			c0.03-9.578-0.046-19.158,0.067-28.735c0.059-5.075,2.574-9.095,6.169-12.403c-2.954-7.31-1.997-13.04,3.069-16.855
			c1.784-1.343,4.062-2.027,6.114-3.012c1.158,0,2.314,0,3.469,0c0.61,0.204,1.212,0.431,1.83,0.611
			c6.991,2.048,11.196,9.493,8.595,16.178c-1.15,2.957-0.316,4.484,1.937,6.103c0.938-0.987,1.891-1.988,2.924-3.075
			c-0.29-0.602-0.591-1.172-0.844-1.763c-2.975-6.979,0.548-14.815,7.755-17.246c0.853-0.288,1.717-0.539,2.576-0.808
			c0.991,0,1.983,0,2.973,0c0.369,0.152,0.727,0.354,1.112,0.448c5.696,1.403,9.681,5.587,10.032,11.359
			c0.161,2.672-0.781,5.411-1.289,8.536c0.538,0.562,1.486,1.552,2.532,2.645c1.04-1.1,1.982-2.097,3.001-3.176
			c-0.292-0.612-0.594-1.183-0.847-1.775c-3.07-7.175,0.866-15.354,8.389-17.455c0.62-0.173,1.229-0.387,1.844-0.582
			C95.684,28.475,96.676,28.475,97.667,28.475z M108.989,80.54c0.202-0.506,0.362-0.721,0.362-0.936
			c0.01-6.108,0.112-12.219-0.036-18.324c-0.101-4.184-1.896-7.686-5.396-10.088c-2.007-1.376-2.298-2.621-0.762-4.637
			c2.505-3.288,2.321-7.479-0.156-10.536c-2.945-3.637-8.264-4.303-11.995-1.503c-3.729,2.798-4.532,8.001-1.839,11.934
			c1.757,2.57,1.608,2.736-0.681,4.82c-1.495,1.361-2.585,3.158-3.928,4.695c-0.656,0.753-1.465,1.875-2.228,1.892
			c-0.744,0.016-1.599-1.083-2.255-1.827c-1.405-1.591-2.498-3.532-4.114-4.843c-1.918-1.558-2.088-2.726-0.616-4.705
			c2.978-4.001,1.937-9.473-2.093-12.203c-3.496-2.368-8.167-1.894-11.1,1.128c-2.972,3.061-3.392,7.563-0.751,11.078
			c1.479,1.968,1.295,3.129-0.616,4.701c-1.667,1.371-2.773,3.405-4.238,5.048c-0.593,0.664-1.453,1.433-2.235,1.48
			c-0.637,0.039-1.438-0.832-1.986-1.458c-1.505-1.718-2.715-3.749-4.417-5.223c-1.677-1.45-1.953-2.493-0.599-4.312
			c2.899-3.898,2.364-8.815-1.076-11.817c-3.284-2.866-8.307-2.822-11.545,0.103c-3.396,3.064-3.916,7.773-1.051,11.61
			c1.419,1.898,1.314,3.12-0.666,4.448c-3.105,2.081-5.231,5.085-5.387,8.78c-0.292,6.79-0.083,13.601-0.083,20.5
			c8.307-5.191,17.519-1.561,26.099-3.101c0.689-7.625,2.887-9.612,10.546-9.612c2.972,0,5.958,0.188,8.913-0.038
			c6.246-0.48,10.391,3.145,9.924,9.319c-0.01,0.13,0.149,0.273,0.354,0.628c4.399,0,8.923,0.059,13.445-0.016
			C101.1,77.455,105.379,77.395,108.989,80.54z"/>
		<path fill-rule="evenodd" clip-rule="evenodd" fill="#FFFFFF" d="M66.452,113.697c-0.762-0.252-1.52-0.524-2.289-0.753
			c-7.489-2.226-11.925-9.492-10.56-17.307c1.232-7.059,7.93-12.383,15.293-12.153c7.318,0.225,13.687,6.065,14.388,13.195
			c0.781,7.943-4.112,14.827-11.732,16.525c-0.553,0.123-1.088,0.326-1.631,0.493C68.763,113.697,67.608,113.697,66.452,113.697z"/>
		<path fill-rule="evenodd" clip-rule="evenodd" fill="#FFFFFF" d="M39.373,96.321c-0.987,0-1.995,0.127-2.957-0.029
			c-1.914-0.309-3.137-1.432-3.223-3.458c-0.092-2.145,1.087-3.539,3.108-3.786c2.106-0.259,4.285-0.226,6.402-0.02
			c2.058,0.201,3.297,1.619,3.262,3.689c-0.037,2.068-1.319,3.331-3.387,3.592c-1.051,0.129-2.135,0.022-3.205,0.022
			C39.373,96.327,39.373,96.325,39.373,96.321z"/>
	</g>
</g>
</svg>