<?xml version="1.0" encoding="UTF-8"?>
<svg width="799px" height="197px" viewBox="0 0 799 197" version="1.1" xmlns="http://www.w3.org/2000/svg" xmlns:xlink="http://www.w3.org/1999/xlink">
    <!-- Generator: Sketch 43.1 (39012) - http://www.bohemiancoding.com/sketch -->
    <title>Getaround Logo</title>
    <desc>Created with Sketch.</desc>
    <defs></defs>
    <g id="WorkSpace" stroke="none" stroke-width="1" fill="none" fill-rule="evenodd">
        <g id="Getaround-Logo" fill="#000000">
            <g>
                <path d="M43.1414179,140.546058 C50.4925373,141.915794 61.3380373,143.537133 68.8124179,143.221269 C82.406791,142.905404 89.8049378,138.807567 93.8497861,134.305877 C98.9440871,128.645523 98.7099403,122.358383 98.8148856,122.206135 C97.6194005,123.242211 90.0455199,126.584741 85.1799204,125.952517 C79.3876343,125.197705 74.6155945,122.93821 71.2098234,119.648076 C66.2971965,114.906646 64.2047264,108.022378 65.9105821,100.389229 C66.8719204,96.4728042 68.6832164,90.7303945 70.0846318,86.8668605 C71.3509055,82.9973948 73.590398,77.3138081 75.4249602,73.6608506 C77.5119851,69.4107655 80.5662886,65.6940418 84.2472935,62.7202675 C87.4075323,60.1681403 91.0301244,58.1602495 94.8878532,56.8137466 C99.758898,55.1276521 105.023488,54.4020037 110.211348,55.1746116 C113.253771,55.6313549 116.442721,56.6847314 117.679789,57.1533382 C117.679789,57.1533382 115.299709,59.3134768 113.066157,63.0830917 C110.827159,66.8527066 109.214863,70.3474846 109.214863,70.3474846 C108.669841,70.1952369 105.791271,69.5570815 105.187341,69.4809576 C103.235458,69.223916 101.259813,69.4933154 99.4188159,70.177936 C96.2476866,71.3484642 93.4745572,73.7602071 91.9330498,76.8689283 C90.285607,80.2460604 88.2045224,85.8075523 87.0204229,89.0912596 C85.8422637,92.3813929 83.8958259,98.1060074 83.1513085,101.454469 C82.0375025,106.547355 84.8982512,110.961057 90.2034328,111.652103 C95.6551418,112.365888 100.773204,109.175606 103.311692,104.246832 C105.421983,100.143063 107.749095,91.1401782 110.902898,83.5361937 C114.8131,74.1057304 118.465393,68.0528934 119.59108,66.425622 C120.704391,64.8156514 121.936012,63.1997491 123.154764,61.6896293 C125.804632,58.6807588 133.249806,51.1528982 144.745769,46.7332644 C145.926898,46.2829472 148.356975,45.5014417 148.494592,45.4589309 L105.755629,2.78309393 C102.039478,-0.927697977 95.9660174,-0.927697977 92.2553109,2.78309393 L2.7919403,92.1238569 C-0.930646766,95.8173479 -0.930646766,101.893912 2.7919403,105.598772 L36.3793781,139.144192 C36.5937239,139.190658 40.2163159,140.007754 43.1414179,140.546058" id="Fill-1"></path>
                <path d="M194.978585,91.4054942 L157.515597,54 C157.252244,54.0761239 154.953843,54.7696421 153.380159,55.3993942 C150.325856,56.6223193 146.175567,58.3786059 142.106958,61.3345851 C138.86504,63.6879993 135.67609,66.7962262 133.132157,71.0052835 C130.353087,75.6063293 127.457192,82.4258425 124.766731,89.7020989 C120.873856,100.23883 117.157704,113.761199 114.19102,124.081422 C112.180229,131.07691 111.213445,137.123321 104.799903,146.923034 C100.5615,153.414819 95.4731393,157.933809 89.3293856,162.687103 C84.6162537,166.339566 73.3460224,174.985558 73,175.249026 L92.0144005,194.238967 C95.725107,197.944322 101.798567,197.944322 105.514719,194.238967 L194.978585,104.892767 C198.700677,101.187413 198.700677,95.1108487 194.978585,91.4054942" id="Fill-3"></path>
                <path d="M275.144095,113.640591 L262.643095,113.640591 C263.665095,108.530591 264.558095,104.059591 265.498095,99.3605906 L296.914095,99.3605906 C295.746095,105.257591 294.691095,110.866591 293.516095,116.450591 C291.943095,123.927591 290.374095,131.409591 288.582095,138.834591 C288.141095,140.662591 287.257095,142.805591 285.868095,143.915591 C274.145095,153.278591 260.971095,157.205591 246.204095,152.971591 C232.419095,149.019591 225.241095,137.561591 227.369095,120.864591 C229.021095,107.901591 231.575095,94.8855906 235.395095,82.4035906 C241.846095,61.3315906 261.261095,48.6375906 282.745095,50.1165906 C291.033095,50.6865906 297.608095,54.3475906 302.061095,62.3725906 C297.541095,65.6505906 293.161095,68.8275906 288.916095,71.9065906 C273.493095,61.9355906 258.522095,67.0205906 253.585095,84.4115906 C250.151095,96.5125906 248.123095,109.042591 246.006095,121.472591 C245.072095,126.958591 246.939095,132.157591 251.842095,135.485591 C256.947095,138.950591 262.518095,138.912591 268.027095,136.506591 C269.228095,135.982591 270.605095,134.661591 270.898095,133.460591 C272.430095,127.196591 273.637095,120.851591 275.144095,113.640591" id="Fill-6"></path>
                <path d="M751.76576,139.625125 C757.26276,139.611125 762.44076,136.172125 763.99076,130.393125 C766.30176,121.773125 768.21376,113.023125 769.78476,104.238125 C770.77676,98.685125 766.69676,94.649125 761.02076,94.672125 C755.38176,94.696125 750.29176,98.209125 748.60576,104.351125 C746.32976,112.635125 744.46776,121.057125 742.94676,129.514125 C741.90476,135.302125 746.05376,139.639125 751.76576,139.625125 M798.50576,51.245125 C794.32276,70.934125 790.29176,89.938125 786.24376,108.938125 C784.51176,117.063125 782.41876,125.127125 781.12976,133.318125 C780.50976,137.251125 781.37376,141.418125 781.60276,146.218125 C779.41876,147.557125 776.46776,149.390125 773.49576,151.188125 C767.66976,154.714125 767.66476,154.706125 764.15276,149.279125 C760.50476,150.791125 756.99776,152.944125 753.21276,153.695125 C735.73876,157.159125 723.86776,145.978125 726.32076,128.042125 C727.48576,119.524125 729.53976,111.036125 732.11676,102.824125 C736.40676,89.146125 749.80776,79.861125 764.07076,80.198125 C767.41176,80.277125 770.72376,81.555125 774.69276,82.422125 C776.43176,74.549125 778.63676,66.257125 779.99176,57.829125 C780.84276,52.525125 782.90776,50.358125 788.34176,51.163125 C791.41576,51.618125 794.61276,51.245125 798.50576,51.245125" id="Fill-8"></path>
                <path d="M428.644492,126.007221 C428.048492,137.019221 433.390492,141.264221 440.682492,138.942221 C445.280492,137.477221 448.482492,134.246221 449.636492,129.616221 C451.642492,121.566221 453.349492,113.435221 454.936492,105.289221 C455.677492,101.483221 455.054492,97.181221 451.141492,95.919221 C447.877492,94.866221 443.471492,94.980221 440.406492,96.390221 C437.603492,97.680221 434.875492,101.079221 433.941492,104.111221 C431.406492,112.334221 429.839492,120.856221 428.644492,126.007221 M477.176492,81.695221 C474.819492,93.027221 472.479492,104.224221 470.165492,115.426221 C468.821492,121.932221 467.418492,128.429221 466.261492,134.968221 C465.927492,136.856221 465.772492,139.149221 466.540492,140.785221 C468.473492,144.908221 466.622492,146.874221 463.212492,148.506221 C461.568492,149.292221 460.055492,150.354221 458.491492,151.304221 C452.903492,154.696221 452.905492,154.699221 449.235492,148.563221 C443.472492,152.746221 437.110492,154.827221 429.813492,153.879221 C417.469492,152.275221 409.456492,142.912221 411.250492,130.624221 C412.616492,121.278221 414.584492,111.947221 417.208492,102.877221 C421.319492,88.667221 436.912492,77.690221 451.478492,80.418221 C459.964492,82.007221 468.141492,79.650221 477.176492,81.695221" id="Fill-10"></path>
                <path d="M566.969742,107.508855 C567.280742,97.6918552 562.606742,93.5528552 555.843742,94.9648552 C549.889742,96.2078552 546.203742,100.229855 544.789742,105.967855 C542.962742,113.379855 541.144742,120.852855 540.254742,128.408855 C539.901742,131.415855 541.129742,135.969855 543.293742,137.550855 C545.717742,139.320855 550.498742,139.693855 553.373742,138.518855 C556.535742,137.225855 559.969742,133.908855 561.044742,130.718855 C563.892742,122.267855 565.532742,113.408855 566.969742,107.508855 M523.006742,127.731855 C524.315742,122.214855 525.915742,111.781855 529.319742,101.974855 C534.585742,86.7948552 551.096742,77.9038552 566.996742,80.4248552 C577.797742,82.1368552 585.322742,91.0368552 583.944742,102.081855 C582.696742,112.094855 580.849742,122.179855 577.860742,131.795855 C572.860742,147.880855 554.429742,157.598855 538.252742,153.704855 C528.392742,151.330855 522.777742,143.596855 523.006742,127.731855" id="Fill-12"></path>
                <path d="M709.764,152.640905 L692.58,152.640905 C694.194,144.803905 695.723,137.374905 697.254,129.947905 C698.729,122.790905 700.23,115.639905 701.662,108.474905 C701.922,107.177905 701.939,105.828905 702.014,104.500905 C702.232,100.662905 701.884,96.8469054 697.703,95.3299054 C693.446,93.7859054 689.102,94.6599054 686.409,98.3089054 C684.213,101.281905 682.556,104.948905 681.695,108.554905 C678.454,122.119905 675.544,135.767905 672.743,149.431905 C672.191,152.119905 671.199,153.074905 668.523,152.969905 C664.222,152.800905 659.91,152.924905 655,152.924905 C657.764,139.792905 660.566,127.212905 663.018,114.564905 C664.575,106.529905 668.261,98.6219054 665.091,90.1259054 C664.865,89.5169054 665.572,88.1269054 666.234,87.6909054 C669.846,85.3159054 673.385,82.5869054 677.371,81.1469054 C678.881,80.6009054 681.517,83.1709054 684.405,84.7359054 C689.361,80.2099054 696.58,79.0389054 704.209,80.7499054 C714.355,83.0269054 720.891,91.4439054 719.284,102.278905 C716.781,119.148905 713.008,135.830905 709.764,152.640905" id="Fill-14"></path>
                <path d="M636.480543,81.2059848 L653.246543,81.2059848 C651.563543,89.3819848 649.973543,97.2669848 648.311543,105.135985 C646.494543,113.744985 644.289543,122.288985 642.885543,130.963985 C642.146543,135.535985 642.754543,140.325985 642.754543,146.093985 C639.486543,148.058985 635.426543,151.059985 630.893543,152.892985 C629.489543,153.459985 626.800543,150.847985 624.268543,149.453985 C621.792543,150.533985 618.468543,152.693985 614.852543,153.439985 C598.448543,156.823985 586.695543,145.618985 589.383543,128.556985 C591.732543,113.642985 595.228543,98.9049848 598.412543,84.1309848 C598.667543,82.9399848 600.369543,81.2779848 601.498543,81.1959848 C606.092543,80.8609848 610.725543,81.0569848 615.922543,81.0569848 C613.275543,93.6909848 610.735543,105.676985 608.265543,117.676985 C607.495543,121.418985 606.261543,125.229985 606.442543,128.950985 C606.596543,132.101985 607.653543,136.071985 609.805543,138.053985 C612.835543,140.843985 617.454543,139.981985 620.280543,137.101985 C622.829543,134.502985 625.119543,131.004985 625.991543,127.518985 C629.375543,114.000985 632.143543,100.327985 635.152543,86.7159848 C635.542543,84.9519848 635.997543,83.2029848 636.480543,81.2059848" id="Fill-16"></path>
                <path d="M323.297183,113.109146 C329.690183,112.093146 335.640183,111.761146 341.181183,110.083146 C346.057183,108.606146 348.409183,102.523146 346.887183,98.2681455 C345.572183,94.5921455 340.471183,92.8881455 335.264183,94.3821455 C328.208183,96.4081455 324.177183,102.213146 323.297183,113.109146 M344.713183,136.043146 C346.446183,139.609146 347.891183,142.580146 349.321183,145.521146 C340.654183,155.626146 319.208183,157.689146 309.082183,149.355146 C303.483183,144.749146 301.159183,138.501146 302.270183,131.538146 C303.704183,122.545146 305.460183,113.541146 307.958183,104.793146 C313.232183,86.3251455 333.730183,75.7701455 352.017183,81.6131455 C361.305183,84.5821455 366.096183,92.7801455 364.068183,102.235146 C361.260183,115.324146 351.689183,123.768146 337.916183,125.047146 C333.288183,125.476146 328.615183,125.556146 323.963183,125.554146 C320.755183,125.553146 319.544183,126.918146 319.511183,130.057146 C319.444183,136.457146 323.114183,140.501146 329.552183,140.412146 C332.174183,140.376146 334.854183,139.903146 337.383183,139.189146 C339.726183,138.527146 341.904183,137.279146 344.713183,136.043146" id="Fill-18"></path>
                <path d="M383.489325,62.0047979 C388.275325,62.0047979 392.424325,61.9877979 396.573325,62.0177979 C397.548325,62.0247979 398.520325,62.1927979 400.134325,62.3487979 C398.929325,68.5257979 397.774325,74.4537979 396.495325,81.0137979 L410.760325,81.0137979 C409.660325,86.1507979 408.696325,90.6537979 407.638325,95.5917979 C404.308325,95.5917979 401.144325,95.8687979 398.049325,95.5217979 C394.189325,95.0887979 392.760325,96.8577979 392.130325,100.337798 C390.592325,108.833798 388.740325,117.271798 387.216325,125.768798 C385.816325,133.571798 387.707325,135.932798 398.210325,139.721798 C397.393325,143.780798 396.556325,147.939798 395.741325,151.990798 C384.639325,155.646798 369.116325,147.971798 370.039325,132.879798 C370.614325,123.486798 372.532325,114.135798 374.353325,104.865798 C377.135325,90.6927979 380.353325,76.6057979 383.489325,62.0047979" id="Fill-20"></path>
                <path d="M478,152.780728 C481.451,136.299728 484.922,120.605728 487.938,104.826728 C488.93,99.6467284 488.746,94.2427284 489.213,87.2397284 C491.68,85.7877284 495.747,82.8167284 500.284,81.0487284 C501.788,80.4617284 504.498,82.9697284 507.307,84.3927284 C516.332,79.6917284 519.677,79.0317284 527.795,81.1467284 C525.483,85.4487284 523.333,89.6157284 520.977,93.6637284 C520.621,94.2737284 519.32,94.5517284 518.435,94.6017284 C510.666,95.0387284 507.4,97.3837284 505.549,105.027728 C502.662,116.949728 499.981,128.926728 497.497,140.938728 C495.043,152.806728 495.197,152.838728 483.126,152.781728 C481.649,152.773728 480.172,152.780728 478,152.780728" id="Fill-22"></path>
            </g>
        </g>
    </g>
</svg>