<?xml version="1.0" encoding="UTF-8"?>
<svg width="400px" height="77px" viewBox="0 0 400 77" version="1.1" xmlns="http://www.w3.org/2000/svg" xmlns:xlink="http://www.w3.org/1999/xlink">
    <!-- Generator: Sketch 42 (36781) - http://www.bohemiancoding.com/sketch -->
    <title>Group 69</title>
    <desc>Created with Sketch.</desc>
    <defs>
        <rect id="path-1" x="0" y="0" width="61.7142857" height="51.0449438" rx="2.592"></rect>
        <polygon id="path-3" points="-0.565993789 35.4626163 38.6752232 21.8843706 46.2204241 27.0289128 62.5169109 10.8424881 62.9054129 50.1172533 -0.48046875 50.1671019"></polygon>
        <filter x="-50%" y="-50%" width="200%" height="200%" filterUnits="objectBoundingBox" id="filter-4">
            <feOffset dx="0" dy="1" in="SourceAlpha" result="shadowOffsetOuter1"></feOffset>
            <feGaussianBlur stdDeviation="2" in="shadowOffsetOuter1" result="shadowBlurOuter1"></feGaussianBlur>
            <feColorMatrix values="0 0 0 0 0   0 0 0 0 0   0 0 0 0 0  0 0 0 0.5 0" type="matrix" in="shadowBlurOuter1"></feColorMatrix>
        </filter>
        <polygon id="path-5" points="-0.565993789 41.5187961 38.6752232 28.8057189 46.2204241 35.6805982 62.5169109 25.5503533 62.9054129 56.1734331 -0.48046875 56.2232817"></polygon>
        <filter x="-50%" y="-50%" width="200%" height="200%" filterUnits="objectBoundingBox" id="filter-6">
            <feOffset dx="0" dy="1" in="SourceAlpha" result="shadowOffsetOuter1"></feOffset>
            <feGaussianBlur stdDeviation="2" in="shadowOffsetOuter1" result="shadowBlurOuter1"></feGaussianBlur>
            <feColorMatrix values="0 0 0 0 0   0 0 0 0 0   0 0 0 0 0  0 0 0 0.5 0" type="matrix" in="shadowBlurOuter1"></feColorMatrix>
        </filter>
        <path d="M0.857142857,2.59481856 C0.857142857,1.16173984 2.00777799,0 3.44990074,0 L59.9786707,0 C61.4106113,0 62.5714286,1.16028261 62.5714286,2.59481856 L62.5714286,6.24651667 L0.857142857,6.24651667 L0.857142857,2.59481856 Z" id="path-7"></path>
        <filter x="-50%" y="-50%" width="200%" height="200%" filterUnits="objectBoundingBox" id="filter-8">
            <feOffset dx="0" dy="1" in="SourceAlpha" result="shadowOffsetOuter1"></feOffset>
            <feColorMatrix values="0 0 0 0 0.592156863   0 0 0 0 0.592156863   0 0 0 0 0.592156863  0 0 0 1 0" type="matrix" in="shadowOffsetOuter1"></feColorMatrix>
        </filter>
        <rect id="path-9" x="56" y="15.1404494" width="6" height="51.0449438"></rect>
        <filter x="-50%" y="-50%" width="200%" height="200%" filterUnits="objectBoundingBox" id="filter-10">
            <feOffset dx="0" dy="1" in="SourceAlpha" result="shadowOffsetOuter1"></feOffset>
            <feGaussianBlur stdDeviation="2" in="shadowOffsetOuter1" result="shadowBlurOuter1"></feGaussianBlur>
            <feColorMatrix values="0 0 0 0 0   0 0 0 0 0   0 0 0 0 0  0 0 0 0.3 0" type="matrix" in="shadowBlurOuter1"></feColorMatrix>
        </filter>
        <path d="M7.79566887e-13,1.84952858 C7.79566887e-13,0.726338881 0.767124729,-0.0736124547 1.71171828,0.0625418232 L20.573996,2.78136179 C21.5193519,2.91762596 22.2857143,3.8038522 22.2857143,4.75625728 L22.2857143,37.6370011 C22.2857143,38.5914416 21.5185896,39.4757424 20.573996,39.6118966 L1.71171828,42.3307166 C0.766362377,42.4669808 7.79566887e-13,41.6645243 7.79566887e-13,40.5437299 L7.79566887e-13,1.84952858 Z" id="path-11"></path>
        <linearGradient x1="17.5845694%" y1="0%" x2="54.0938835%" y2="100%" id="linearGradient-13">
            <stop stop-color="#000000" offset="0%"></stop>
            <stop stop-color="#000000" stop-opacity="0" offset="100%"></stop>
        </linearGradient>
    </defs>
    <g id="Page-1" stroke="none" stroke-width="1" fill="none" fill-rule="evenodd">
        <g id="Group-69">
            <text id="Waitstaff-Manager" font-family="Avenir-Book, Avenir" font-size="33.306" font-weight="normal" letter-spacing="0.740133405" fill="#BEBEBE">
                <tspan x="117.808151" y="50">Waitstaff Manager</tspan>
            </text>
            <g id="Group-38-Copy-2">
                <g id="Group-37" transform="translate(27.714286, 15.140449)">
                    <g id="Path-7-+-Path-7-Copy-Mask" transform="translate(0.857143, 0.000000)">
                        <mask id="mask-2" fill="white">
                            <use xlink:href="#path-1"></use>
                        </mask>
                        <use id="Mask" fill="#EAEAEA" xlink:href="#path-1"></use>
                        <g id="Path-7-Copy-2" mask="url(#mask-2)">
                            <use fill="black" fill-opacity="1" filter="url(#filter-4)" xlink:href="#path-3"></use>
                            <use fill="#06A35E" fill-rule="evenodd" xlink:href="#path-3"></use>
                        </g>
                        <g id="Path-7-Copy" mask="url(#mask-2)">
                            <use fill="black" fill-opacity="1" filter="url(#filter-6)" xlink:href="#path-5"></use>
                            <use fill="#9ECF64" fill-rule="evenodd" xlink:href="#path-5"></use>
                        </g>
                    </g>
                    <g id="Rectangle-19">
                        <use fill="black" fill-opacity="1" filter="url(#filter-8)" xlink:href="#path-7"></use>
                        <use fill="#EAEAEA" fill-rule="evenodd" xlink:href="#path-7"></use>
                    </g>
                    <ellipse id="Oval-4" fill="#979797" cx="59.0357143" cy="3.34601327" rx="1.60714286" ry="1.61567619"></ellipse>
                    <ellipse id="Oval-4-Copy" fill="#979797" cx="53.8928571" cy="3.34601327" rx="1.60714286" ry="1.61567619"></ellipse>
                    <g id="Path-7" transform="translate(0.000000, 8.651685)"></g>
                </g>
                <g id="Rectangle-17">
                    <use fill="black" fill-opacity="1" filter="url(#filter-10)" xlink:href="#path-9"></use>
                    <use fill="#D8D8D8" fill-rule="evenodd" xlink:href="#path-9"></use>
                </g>
                <path d="M31.0524554,8.27063948 L4.3986687,6.73523943 C2.0356129,6.59911483 0.119977679,8.42575825 0.119977679,10.8149463 L0.119977679,71.3735302 C0.119977679,73.7628147 2.03426823,75.5745893 4.39694036,75.4201587 L31.1428571,73.6719738 L31.0524554,8.27063948 Z" id="Path-5" fill="#3361D2"></path>
                <path d="M31.0675223,8.24754844 L57.7415771,5.21885639 C60.0934391,4.95181541 62,6.67209675 62,9.0602814 L62,73.0820131 C62,75.4706145 60.0944511,77.1761226 57.7453669,76.8915572 L30.9771205,73.6488827 L31.0675223,8.24754844 Z" id="Path-5-Copy" fill="#4586F7"></path>
                <path d="M33.6206876,13.6872725 C33.6224973,12.2534368 34.7681476,10.9611675 36.1806784,10.8007824 L55.1710812,8.64452674 C57.5224281,8.37754424 59.4285714,10.0974173 59.4285714,12.4858017 L59.4285714,69.6518262 C59.4285714,72.0402863 57.5229264,73.7456681 55.1731329,73.4610168 L36.1008527,71.1506228 C34.6912544,70.9798657 33.5500175,69.6780237 33.5518259,68.2452504 L33.6206876,13.6872725 Z" id="Path-5-Copy-3" fill="#B2B2B2"></path>
                <path d="M34.0420088,14.9347594 C34.0436843,13.5005625 35.189624,12.2079554 36.6014675,12.0476483 L53.0263982,10.1826879 C55.3787535,9.91559087 57.2857143,11.6350919 57.2857143,14.0237946 L57.2857143,68.9761916 C57.2857143,71.3646733 55.3807469,73.0701548 53.0308917,72.785496 L36.5298501,70.7865788 C35.1200165,70.6157932 33.9784773,69.315987 33.9801543,67.880501 L34.0420088,14.9347594 Z" id="Path-5-Copy-4" fill="#C4C4C4"></path>
                <g id="Line" transform="translate(5.428571, 0.000000)">
                    <mask id="mask-12" fill="white">
                        <use xlink:href="#path-11"></use>
                    </mask>
                    <use id="Mask" fill="#00ABF7" xlink:href="#path-11"></use>
                    <polygon fill="#EFEFEF" fill-rule="nonzero" mask="url(#mask-12)" points="4.28571429 -4.3258427 4.28571429 46.2865169 7.71428571 46.2865169 7.71428571 -4.3258427"></polygon>
                    <polygon id="Line-Copy-13" fill="#EFEFEF" fill-rule="nonzero" mask="url(#mask-12)" points="16.8571429 7.78651685 16.8571429 56.6685393 18.5714286 56.6685393 18.5714286 7.78651685"></polygon>
                    <polygon id="Line-Copy-14" fill="#EFEFEF" fill-rule="nonzero" mask="url(#mask-12)" points="12.5714286 6.92134831 12.5714286 55.8033708 14.2857143 55.8033708 14.2857143 6.92134831"></polygon>
                </g>
                <polygon id="Rectangle-16" fill="#FFFFFF" points="35.4285714 14.7084797 36.5440697 15.4164404 37.6432116 14.4693716 38.7748288 15.1831185 39.8809951 14.2277648 40.9948985 14.9509147 42.1007933 13.9880998 43.2168685 14.718512 44.3196413 13.7485374 45.4499012 14.4849523 46.5478214 13.5079674 47.668376 14.2529153 48.7686037 13.2681962 49.896556 14.0198631 50.9857889 13.0288133 52.1176098 13.7875563 53.2400308 12.7854295 54.3588547 13.5531377 55.4674303 12.5449438 55.4440154 69.6460674 54.3552576 68.6400254 53.2278822 69.4067981 52.1277902 68.4070477 51.0036725 69.1666568 49.9101638 68.1750994 48.8116328 68.9299888 47.6623356 67.9399922 46.5544386 68.6862863 45.443759 67.7079445 44.3435313 68.4475812 43.2063827 67.4739305 42.145044 68.2102171 41.0089135 67.2440905 39.8890715 67.9666465 38.7543663 67.0082805 37.6687983 67.7269302 36.5444091 66.7771343 35.4285714 67.4850595"></polygon>
                <polygon id="Line-Copy-2" fill="#C5C5C5" fill-rule="nonzero" points="37.1226794 25.5695414 53.8912528 24.3865158 53.8912528 22.696311 37.1226794 23.949707"></polygon>
                <polygon id="Line-Copy-11" fill="#C5C5C5" fill-rule="nonzero" points="37.1226794 60.8338527 54.0278997 61.9066201 54.0278997 60.2151812 37.1226794 59.2169754"></polygon>
                <polygon id="Line-Copy-3" fill="#C5C5C5" fill-rule="nonzero" points="49.0354004 37.1856662 54.0831473 36.9477237 54.0831473 35.2055582 49.0297503 35.4332563"></polygon>
                <polygon id="Line-Copy-4" fill="#C5C5C5" fill-rule="nonzero" points="37.0733591 37.6348315 47.973284 37.2332969 47.9796666 35.5098246 37.0733591 35.9044944"></polygon>
                <polygon id="Line-Copy-12" fill="#C5C5C5" fill-rule="nonzero" points="37.1568154 21.2733632 48.0374121 20.2472229 48.0374121 18.5343772 37.1568154 19.5898575"></polygon>
                <polygon id="Line-Copy-6" fill="#C5C5C5" fill-rule="nonzero" points="49.027027 41.9606742 54.0772201 41.9606742 54.0772201 40.2303371 49.027027 40.2303371"></polygon>
                <polygon id="Line-Copy-7" fill="#C5C5C5" fill-rule="nonzero" points="49.027027 46.2865169 54.0772201 46.2865169 54.0772201 44.5561798 49.027027 44.5561798"></polygon>
                <polygon id="Line-Copy-5" fill="#C5C5C5" fill-rule="nonzero" points="37.0733591 41.9606742 47.96139 41.9606742 47.96139 40.2303371 37.0733591 40.2303371"></polygon>
                <polygon id="Line-Copy-8" fill="#C5C5C5" fill-rule="nonzero" points="37.0733591 46.2865169 47.96139 46.2865169 47.96139 44.5561798 37.0733591 44.5561798"></polygon>
                <polygon id="Line-Copy-10" fill="#C5C5C5" fill-rule="nonzero" points="48.9980469 51.0256169 54.0982143 51.1672418 54.0606515 49.3741716 49.075579 49.2304345"></polygon>
                <polygon id="Line-Copy-9" fill="#C5C5C5" fill-rule="nonzero" points="37.0733591 50.6123596 47.9830148 50.9277152 47.971296 49.2235697 37.0733591 48.8820225"></polygon>
                <path d="M31.0341971,22.4458008 L4.02887958,34.0636244 C1.8510987,35.0005167 0.0873224635,37.6965117 0.0893761027,40.086478 L0.116260058,71.3732525 C0.118313243,73.7626904 2.03426823,75.5675903 4.39694036,75.4045212 L31.1428571,73.5585471 L31.0341971,22.4458008 Z" id="Path-5-Copy-2" fill="#3361D2"></path>
                <path d="M31.0675223,8.24754844 L62,35.8814033 L62,73.0805119 C62,75.4699424 60.0944511,77.1761226 57.7453669,76.8915572 L30.9771205,73.6488827 L31.0675223,8.24754844 Z" id="Path-5-Copy-5" fill="url(#linearGradient-13)" opacity="0.119999997"></path>
            </g>
        </g>
    </g>
</svg>