<?xml version="1.0" encoding="UTF-8" standalone="no"?>
<svg width="500px" height="99px" viewBox="0 0 500 99" version="1.1" xmlns="http://www.w3.org/2000/svg" xmlns:xlink="http://www.w3.org/1999/xlink">
    <!-- Generator: Sketch 40 (33762) - http://www.bohemiancoding.com/sketch -->
    <title>Page 1</title>
    <desc>Created with Sketch.</desc>
    <defs>
        <polygon id="path-1" points="27 26.9523 27 0.8953 0.9453 0.8953 0.9453 26.9523 27 26.9523"></polygon>
    </defs>
    <g id="Page-1" stroke="none" stroke-width="1" fill="none" fill-rule="evenodd">
        <g transform="translate(0.000000, -1.000000)">
            <path d="M35.1061,34.9029 C26.5921,33.1009 9.5171,31.6629 9.5171,25.1899 C9.5171,15.7919 40.3781,9.2559 57.8281,9.2559 C68.7911,9.2559 67.2701,3.5539 64.3451,1.8649 C61.4861,0.2169 46.8211,1.5259 42.5971,2.0239 C31.4971,3.3249 22.5001,5.4859 13.3481,9.6629 C7.2741,12.4369 -3.9919,21.6059 1.4381,29.8389 C5.9821,36.7219 16.1201,38.1619 23.5011,39.9089 C32.6231,42.0589 57.4051,45.2479 57.4051,52.6489 C57.4051,57.1439 46.5091,59.5169 38.2361,59.7539 C29.6421,60.0179 19.9781,58.9529 11.2801,56.4919 C7.7521,55.5059 3.4401,52.1919 2.0341,54.6509 C0.5251,57.3219 3.1131,59.3319 5.6351,60.7239 C13.3801,65.0009 24.2851,66.9279 34.1031,66.9279 C44.4531,66.9279 54.0411,66.6199 62.6091,61.0259 C68.7571,57.0269 68.3181,47.1819 62.0231,43.6019 C54.2151,39.1559 44.5871,36.8949 35.1061,34.9029" id="Fill-1" fill="#FFFFFF"></path>
            <path d="M237.4436,26.2595 C237.4436,26.2595 238.7286,10.3295 238.7186,10.4005 C242.8006,9.5195 249.7986,8.7405 252.9046,8.5845 C263.3156,8.0645 265.7786,13.4355 263.4086,16.5975 C259.8776,21.3265 249.1396,26.0465 237.4436,26.2595 M269.6416,22.0185 C275.0426,16.6735 275.6876,9.3115 269.4446,4.5065 C262.7276,-0.6865 246.5216,1.2665 243.2406,1.8255 C239.9836,2.3925 234.7506,3.5735 231.2566,4.6555 C227.5136,5.8125 224.1316,7.1805 222.8206,8.2275 C221.5926,9.2115 220.7726,10.2395 221.3066,11.6875 C221.7096,12.7645 223.1486,13.1035 224.2026,13.2255 C225.2546,13.3525 227.6796,13.1525 230.5386,12.4515 C230.4486,13.1815 230.3286,14.3835 230.1726,16.0235 C230.0286,17.6915 229.8356,19.5735 229.6066,21.6885 C229.3866,23.8105 229.1646,26.0125 228.9566,28.3445 C228.7346,30.6445 228.7346,30.5615 228.5566,32.5395 C228.3956,34.5025 226.3536,61.6615 226.2416,63.0745 C225.8926,67.6475 234.0326,68.7025 234.4696,63.2405 C234.6046,61.4655 236.6356,35.7375 236.8996,33.0105 C252.5556,32.8325 266.0106,25.6075 269.6416,22.0185" id="Fill-3" fill="#FFFFFF"></path>
            <path d="M169.0945,59.8395 C165.2415,60.3065 161.8155,58.2035 161.4425,55.1445 C161.0635,52.0755 163.8785,49.2105 167.7225,48.7425 C171.5825,48.2655 174.9965,50.3665 175.3695,53.4325 C175.7525,56.4925 172.9355,59.3655 169.0945,59.8395 M129.6225,59.8395 C125.7675,60.3065 122.3485,58.2035 121.9635,55.1445 C121.5875,52.0755 124.4025,49.2105 128.2525,48.7425 C132.1135,48.2655 135.5295,50.3665 135.9055,53.4325 C136.2765,56.4925 133.4605,59.3655 129.6225,59.8395 M216.6745,53.3205 C214.4095,52.1315 214.1795,55.9945 212.4845,58.0865 C210.6245,60.3845 205.8385,61.5605 203.5295,58.0005 C202.8545,56.9515 202.3525,55.6745 202.0595,54.2035 C201.7835,52.7515 201.7535,51.2475 201.7855,49.6575 C201.8075,48.0635 201.8935,46.7085 202.0205,45.5875 C202.1375,44.7135 202.2885,43.5585 202.4445,42.1185 C202.5935,40.6995 202.7695,39.1415 202.9595,37.4545 C204.3865,37.3295 209.3035,36.9395 209.9925,36.8755 C211.2445,36.7515 213.6895,35.9895 213.7135,33.3405 C213.8505,32.0515 213.0815,30.7035 210.6615,30.6635 C209.9505,30.6595 205.6975,30.5935 203.7095,30.7155 C203.9565,29.2205 204.5935,25.0485 204.7285,24.0695 C205.3655,19.5915 205.0525,17.4325 201.1855,17.0525 C197.1515,16.6635 195.9505,19.1105 195.5695,21.7965 C195.4795,22.4455 194.8105,30.1345 194.6735,30.9915 L189.2505,31.1845 C188.1975,31.2425 187.2435,31.4605 186.4055,31.8315 C185.5585,32.2095 184.9505,32.5905 184.5775,32.9645 C184.2625,33.2085 184.0185,33.6165 183.8325,34.1775 C183.6395,34.7315 183.5435,35.1685 183.5435,35.4865 C183.6145,36.1775 183.8155,36.6415 184.1525,36.8885 C184.4995,37.1345 184.8895,37.3295 185.3215,37.4545 C185.8855,37.5745 187.0065,37.6355 188.6885,37.6355 L194.1115,37.6355 C193.9925,39.8275 193.8575,42.0205 193.7435,44.2345 C193.6405,46.0225 193.2545,47.6555 191.0695,48.8295 C190.1265,49.3275 188.5175,49.5185 187.4045,49.3985 C186.0395,49.2475 184.4285,49.1475 181.1615,45.8465 C177.8815,42.5405 172.6005,40.7675 166.8555,41.4635 C162.1425,42.0395 158.1115,44.1885 155.5115,47.1385 C154.4325,48.3615 153.1385,49.0475 151.5435,49.5335 C149.9305,50.0315 148.1405,49.9385 146.6455,49.4695 C144.8445,48.9125 143.6765,47.8115 143.2955,47.4625 C143.2245,47.3965 142.8315,47.0015 142.3285,46.5445 C139.1715,42.8165 133.5145,40.7115 127.3835,41.4635 C120.2935,42.3275 114.8675,46.6155 113.3125,52.0975 C112.5555,54.7585 112.4215,55.8305 111.5395,57.5715 C109.2325,62.1375 101.0015,63.2405 100.2665,56.6285 C100.0975,55.1735 100.4765,48.2315 100.4935,47.5165 C100.6865,39.7635 95.2755,40.1305 94.2675,40.1865 C90.6855,40.3815 87.1915,44.4865 85.6755,46.2465 C85.0595,46.9625 84.0785,47.5625 84.1275,46.6665 C84.4545,41.1635 86.2955,23.8615 86.4425,22.2205 C87.0935,15.3405 77.2465,15.3885 76.7075,20.2405 C76.2475,24.4645 75.8765,28.1075 75.4835,32.0245 C75.0515,36.2455 73.1765,58.9235 73.2395,61.0755 C73.4085,66.3275 77.1025,67.0355 78.6555,66.9345 C80.0835,66.8495 81.0455,66.0025 81.9865,65.0355 C83.5315,63.4505 85.9335,57.9035 86.4595,56.8825 C86.9895,55.8495 87.2745,55.1025 87.8845,54.3115 C88.4705,53.5275 89.2055,53.3295 89.5935,53.3255 C90.4115,53.3205 90.8585,53.7375 91.2205,55.0295 C95.7635,71.1715 109.2205,68.4145 114.6185,60.4575 C118.3465,66.0295 125.1645,67.4405 130.4895,66.8005 C135.7565,66.1515 140.2365,63.3995 142.6825,60.0495 C144.1475,58.0305 144.5015,56.2435 144.7195,54.7215 C147.0195,55.3445 150.6695,55.1445 152.5615,54.2475 C152.4105,54.9435 152.4225,55.4815 152.4935,56.0795 C153.3285,63.0795 161.1765,67.8745 169.9635,66.8005 C176.6655,65.9685 183.3315,61.6905 184.2285,54.7215 C187.5315,55.4305 191.7045,54.9215 193.9045,52.4555 C193.6945,56.4435 195.0055,59.4025 195.8915,61.0845 C196.7555,62.7185 198.1105,64.5195 199.8495,65.5215 C201.5975,66.5155 203.0065,67.0865 205.6855,67.0865 C207.8095,67.0865 209.6795,66.6665 211.2955,65.8095 C212.9145,64.9745 214.1575,63.9555 215.0975,62.6795 C217.0025,60.1055 218.7775,54.4065 216.6745,53.3205" id="Fill-5" fill="#FFFFFF"></path>
            <g id="Group-9" transform="translate(241.000000, 7.173600)" fill="#FFFFFF">
                <path d="M127.4605,82.3709 C126.8815,83.5019 125.1535,84.4809 123.8935,82.9229 C122.5975,81.3359 121.4225,79.1479 121.1955,75.3589 C120.8095,68.9789 121.2535,62.3439 121.4665,56.4629 C122.5945,58.0739 125.4755,62.9989 126.2565,65.1139 C127.5115,68.5419 128.3985,71.5639 128.5745,74.3089 C128.8675,78.8479 128.5745,80.1739 127.4605,82.3709 M125.8055,14.2659 C126.9085,9.6759 134.6705,8.1909 132.5495,15.8579 C130.3585,23.7639 123.1535,32.4459 123.1535,32.4459 C123.1535,32.4459 124.3425,20.3869 125.8055,14.2659 M90.7895,52.7899 C86.9515,53.2639 83.5225,51.1619 83.1495,48.1019 C82.7755,45.0409 85.5885,42.1669 89.4345,41.6999 C93.2825,41.2239 96.7075,43.3239 97.0835,46.3879 C97.4645,49.4549 94.6475,52.3139 90.7895,52.7899 M52.0595,52.7899 C48.2235,53.2639 44.7985,51.1619 44.4225,48.1019 C44.0385,45.0409 46.8595,42.1669 50.7025,41.6999 C54.5505,41.2239 57.9855,43.3239 58.3545,46.3879 C58.7305,49.4549 55.9125,52.3139 52.0595,52.7899 M140.5385,45.2919 C138.7705,44.4599 138.0015,47.6359 137.3345,49.0889 C136.7025,50.4559 135.2935,52.6829 132.3045,53.8009 C130.7665,54.3869 126.9575,54.4919 125.6875,52.9589 C124.6945,51.7579 123.5495,50.3999 122.2675,49.2429 L122.8045,43.5029 C135.0715,30.2809 139.4635,18.2969 139.9915,16.6269 C141.2825,12.5589 142.5455,6.5849 139.6715,3.5319 C135.8205,-0.5581 130.0365,-0.2401 125.0365,2.8489 C121.8125,4.8459 119.3325,8.6039 118.3855,14.4179 C117.4345,20.2309 116.0315,33.6449 115.4725,38.2179 C115.4205,38.5919 115.3895,38.9559 115.3375,39.3269 C115.1645,40.7239 114.3955,42.0689 112.6295,42.6379 C111.3725,43.0429 109.7025,43.0429 108.1645,42.6159 C106.7525,42.2179 105.2635,41.0749 102.7925,38.7219 L102.7855,38.7219 C99.5285,35.4909 94.2565,33.7209 88.5675,34.4199 C83.4495,35.0449 79.1335,37.5299 76.5915,40.8749 C76.5565,40.9089 76.5345,40.9459 76.5345,40.9459 C76.0275,41.4369 74.3525,43.2479 71.2785,43.1649 C69.2075,43.1139 67.8865,42.9919 64.6635,39.3639 C61.4435,35.7379 55.8905,33.6719 49.8235,34.4199 C41.7735,35.4109 35.7495,40.9849 35.4125,47.3089 C35.3565,48.3179 35.2225,50.1069 34.6435,51.3009 C34.1965,52.2289 32.6555,54.4019 30.2485,54.4019 C28.2565,54.4019 25.0375,52.1209 25.1455,45.9609 C25.1705,45.0679 25.1945,41.8129 25.1945,40.4279 C25.1945,38.8999 24.8405,37.8419 23.8565,36.9779 C23.3845,36.5699 21.1295,35.7009 20.5965,35.5379 C17.3955,34.5289 13.9215,34.2629 11.6135,34.4609 C10.1435,34.5809 7.5485,35.1109 7.3215,36.6239 C6.2055,43.7829 3.6905,49.3839 1.1925,53.4259 C-0.8145,56.6749 2.3255,58.6359 5.2455,54.6849 C7.1575,52.0939 10.2165,46.8889 11.5435,43.1089 C12.6635,42.9769 14.1435,43.0069 15.4715,43.4259 C16.0795,43.6199 16.9245,44.1619 16.9835,44.6619 C17.0485,45.2139 17.0665,46.0659 17.0295,47.1719 C16.9975,48.3069 17.1495,49.5499 17.4495,50.9249 C20.7335,65.7559 35.7985,58.4329 37.5275,54.0139 C41.2975,58.9139 46.9985,60.4769 52.9335,59.7519 C59.6515,58.9309 66.5605,54.3039 67.2465,47.5479 C69.4155,48.1459 72.4985,48.2269 74.2135,46.7989 C73.4975,55.7249 82.9075,60.8259 91.6685,59.7519 C98.6835,58.8899 105.3315,54.0329 105.9545,47.5479 C108.8575,48.2789 112.2295,48.1779 114.4025,46.9469 C113.4705,57.3809 112.7155,67.2569 112.7685,73.1099 C112.8325,79.9049 114.3565,84.6959 116.2655,87.4719 C118.1725,90.2499 121.0635,92.3089 124.9845,91.9619 C130.5685,91.4559 132.9715,87.1079 133.8725,84.9639 C135.0935,82.0659 135.7595,75.1319 134.7955,71.6109 C134.4075,70.1819 133.0885,64.8549 130.2175,59.7539 C136.2555,58.4039 138.3575,56.7089 139.7075,54.5459 C141.7705,51.2419 141.9345,45.9439 140.5385,45.2919" id="Fill-7"></path>
            </g>
            <path d="M413.1111,27.1261 L413.1111,10.4101 C413.1111,6.2571 417.2641,1.0691 422.4481,1.0691 L439.1691,1.0691 L431.9071,8.3331 L422.4481,8.3331 C421.4181,8.3331 420.3751,9.3651 420.3751,10.4101 L420.3751,19.8621 L413.1111,27.1261 Z" id="Fill-10" fill="#FFFFFF"></path>
            <path d="M439.1688,67.0862 L422.4478,67.0862 C418.2998,67.0862 413.1108,62.9332 413.1108,57.7422 L413.1108,41.0292 L420.3758,48.2932 L420.3758,57.7422 C420.3758,58.7852 421.4178,59.8222 422.4478,59.8222 L431.9068,59.8222 L439.1688,67.0862 Z" id="Fill-12" fill="#FFFFFF"></path>
            <path d="M500,41.029 L500,57.742 C500,61.895 495.852,67.086 490.661,67.086 L473.945,67.086 L481.204,59.822 L490.661,59.822 C491.698,59.822 492.734,58.785 492.734,57.742 L492.734,48.293 L500,41.029 Z" id="Fill-14" fill="#FFFFFF"></path>
            <g id="Group-18" transform="translate(473.000000, 0.173600)">
                <mask id="mask-2" fill="white">
                    <use xlink:href="#path-1"></use>
                </mask>
                <g id="Clip-17"></g>
                <path d="M0.9453,0.8953 L17.6603,0.8953 C21.8093,0.8953 27.0003,5.0433 27.0003,10.2363 L27.0003,26.9523 L19.7333,19.6883 L19.7333,10.2363 C19.7333,9.1913 18.6983,8.1593 17.6603,8.1593 L8.2043,8.1593 L0.9453,0.8953 Z" id="Fill-16" fill="#FFFFFF" mask="url(#mask-2)"></path>
            </g>
        </g>
    </g>
</svg>