<!-- Generator: Adobe Illustrator 18.1.0, SVG Export Plug-In  -->
<svg version="1.1"
	 xmlns="http://www.w3.org/2000/svg" xmlns:xlink="http://www.w3.org/1999/xlink" xmlns:a="http://ns.adobe.com/AdobeSVGViewerExtensions/3.0/"
	 x="0px" y="0px" width="135.653px" height="135.652px" viewBox="0 0 135.653 135.652" enable-background="new 0 0 135.653 135.652"
	 xml:space="preserve">
<defs>
</defs>
<g>
	<circle fill="#40AAE0" cx="67.826" cy="67.826" r="67.826"/>
	<g>
		<path fill="#FFFFFF" d="M69.559,37.566c-21.392,0-39.934,12.457-49.046,30.654c9.112,18.197,27.654,30.654,49.046,30.654
			c21.392,0,39.934-12.457,49.046-30.654C109.493,50.023,90.95,37.566,69.559,37.566z M93.742,53.823
			c5.763,3.676,10.647,8.6,14.315,14.397c-3.668,5.798-8.552,10.721-14.315,14.397c-7.241,4.619-15.604,7.06-24.183,7.06
			c-8.579,0-16.942-2.441-24.183-7.06c-5.763-3.676-10.646-8.6-14.315-14.397c3.668-5.798,8.552-10.722,14.315-14.397
			c0.375-0.239,0.754-0.472,1.136-0.699c-0.954,2.618-1.476,5.443-1.476,8.391c0,13.543,10.979,24.523,24.523,24.523
			c13.543,0,24.523-10.979,24.523-24.523c0-2.948-0.522-5.773-1.476-8.391C92.987,53.351,93.366,53.583,93.742,53.823z
			 M69.559,58.449c0,5.079-4.117,9.196-9.196,9.196c-5.079,0-9.196-4.117-9.196-9.196s4.117-9.196,9.196-9.196
			C65.441,49.253,69.559,53.37,69.559,58.449z"/>
	</g>
</g>
</svg>