<!-- Generator: Adobe Illustrator 18.1.0, SVG Export Plug-In  -->
<svg version="1.1"
	 xmlns="http://www.w3.org/2000/svg" xmlns:xlink="http://www.w3.org/1999/xlink" xmlns:a="http://ns.adobe.com/AdobeSVGViewerExtensions/3.0/"
	 x="0px" y="0px" width="410.234px" height="185px" viewBox="0 0 410.234 185" enable-background="new 0 0 410.234 185"
	 xml:space="preserve">
<defs>
</defs>
<g>
	<path fill="#40AAE0" d="M406.572,83.661l-80-80c-4.881-4.881-12.797-4.881-17.678,0c-4.882,4.882-4.882,12.796,0,17.678L367.555,80
		H153.901c-6.903,0-12.5,5.597-12.5,12.5c0,6.902,5.597,12.5,12.5,12.5h213.654l-58.659,58.661c-4.882,4.882-4.882,12.796,0,17.678
		c2.44,2.439,5.64,3.661,8.839,3.661s6.398-1.222,8.839-3.661l79.998-80C411.454,96.457,411.454,88.543,406.572,83.661z"/>
</g>
<g>
	<path fill="#40AAE0" d="M3.661,101.339l79.998,80c2.441,2.439,5.64,3.661,8.839,3.661s6.399-1.222,8.839-3.661
		c4.882-4.882,4.882-12.796,0-17.678L42.679,105h213.654c6.903,0,12.5-5.598,12.5-12.5c0-6.903-5.597-12.5-12.5-12.5H42.679
		l58.661-58.661c4.882-4.882,4.882-12.796,0-17.678c-4.881-4.881-12.797-4.881-17.678,0l-80,80
		C-1.221,88.543-1.221,96.457,3.661,101.339z"/>
</g>
</svg>