<!-- Generator: Adobe Illustrator 18.1.0, SVG Export Plug-In  -->
<svg version="1.1"
	 xmlns="http://www.w3.org/2000/svg" xmlns:xlink="http://www.w3.org/1999/xlink" xmlns:a="http://ns.adobe.com/AdobeSVGViewerExtensions/3.0/"
	 x="0px" y="0px" width="135.653px" height="135.652px" viewBox="0 0 135.653 135.652" enable-background="new 0 0 135.653 135.652"
	 xml:space="preserve">
<defs>
</defs>
<g>
	<circle fill="#40AAE0" cx="67.826" cy="67.826" r="67.826"/>
	<g>
		<g>
			<path fill="#FFFFFF" d="M74.631,70.564c-1.564,0-3.004,0.853-3.751,2.223l-8.83,16.235c-0.692,1.271-0.692,2.802,0,4.076
				l8.83,16.233c0.746,1.372,2.187,2.228,3.751,2.228h17.222c1.564,0,3.007-0.856,3.751-2.228l8.833-16.233
				c0.692-1.277,0.692-2.808,0-4.082l-8.833-16.233c-0.744-1.372-2.187-2.225-3.751-2.225L74.631,70.564L74.631,70.564z
				 M91.036,101.641c-0.615,1.069-1.755,1.728-2.985,1.728h-9.617c-1.227,0-2.367-0.659-2.985-1.725l-5.107-8.854
				c-0.618-1.069-0.618-2.378,0-3.447l5.107-8.854c0.618-1.066,1.758-1.722,2.985-1.722h9.617c1.23,0,2.37,0.656,2.985,1.725
				l5.106,8.854c0.615,1.066,0.615,2.376,0,3.442L91.036,101.641z"/>
			<path fill="#FFFFFF" d="M58.775,48.188c-0.746-1.372-2.187-2.228-3.751-2.228H37.797c-1.564,0-3.004,0.853-3.751,2.228
				l-8.83,16.235c-0.692,1.271-0.692,2.805,0,4.076l8.83,16.235c0.746,1.372,2.187,2.225,3.751,2.225h17.228
				c1.564,0,3.004-0.858,3.751-2.225l8.83-16.235c0.692-1.271,0.692-2.805,0-4.076L58.775,48.188z"/>
			<path fill="#FFFFFF" d="M91.853,65.096c1.564,0,3.007-0.856,3.751-2.228l8.833-16.235c0.692-1.274,0.692-2.808,0-4.082
				l-8.833-16.233c-0.744-1.372-2.184-2.225-3.751-2.225H74.631c-1.564,0-3.004,0.853-3.751,2.225l-8.83,16.235
				c-0.692,1.271-0.692,2.805,0,4.076l8.83,16.238c0.746,1.372,2.187,2.228,3.751,2.228H91.853z"/>
		</g>
	</g>
</g>
</svg>