<!-- Generator: Adobe Illustrator 18.1.0, SVG Export Plug-In  -->
<svg version="1.1"
	 xmlns="http://www.w3.org/2000/svg" xmlns:xlink="http://www.w3.org/1999/xlink" xmlns:a="http://ns.adobe.com/AdobeSVGViewerExtensions/3.0/"
	 x="0px" y="0px" width="305.891px" height="277.279px" viewBox="0 0 305.891 277.279" enable-background="new 0 0 305.891 277.279"
	 xml:space="preserve">
<defs>
</defs>
<g>
	<path fill="#41ABE1" d="M206.387,78.652c-9.412-25.105-33.63-42.974-62.023-42.974V0.681c44.818,0,82.831,29.129,96.142,69.487"/>
	<path fill="#51709B" d="M206.387,78.652c2.711,7.231,4.194,15.064,4.194,23.242c0,19.002-8.004,36.134-20.824,48.21l24.562,24.938
		c19.263-18.428,31.259-44.386,31.259-73.147c0-11.082-1.781-21.747-5.072-31.726L206.387,78.652z"/>
	<path fill="#51709B" d="M189.754,150.101l24.564,24.939l0.001,0.001c-18.175,17.385-42.818,28.066-69.955,28.066
		c-55.898,0-101.213-45.315-101.213-101.213c0-55.899,45.315-101.214,101.213-101.214v34.997c-36.57,0-66.216,29.646-66.216,66.217
		c0,36.571,29.646,66.216,66.216,66.216c17.569,0,33.539-6.842,45.393-18.007"/>
	<polyline fill="none" stroke="#41ABE1" stroke-width="3.3381" stroke-linecap="round" stroke-miterlimit="10" points="
		224.302,29.712 242.794,8.237 268.446,8.237 	"/>
	<polyline fill="none" stroke="#51709B" stroke-width="3.3381" stroke-linecap="round" stroke-miterlimit="10" points="
		80.534,192.37 62.041,213.846 36.39,213.846 	"/>
	<g>
		<path fill="#41ABE1" d="M285.177,12.269h-6.396v-0.615l2.72-2.838c0.764-0.792,1.3-1.398,1.607-1.817s0.533-0.82,0.678-1.203
			c0.145-0.382,0.217-0.783,0.217-1.202c0-0.61-0.2-1.107-0.601-1.489c-0.401-0.382-0.921-0.573-1.56-0.573
			c-0.853,0-1.668,0.31-2.446,0.93l-0.378-0.482c0.854-0.718,1.799-1.077,2.839-1.077c0.89,0,1.59,0.238,2.101,0.713
			c0.51,0.476,0.766,1.13,0.766,1.964c0,0.676-0.172,1.33-0.514,1.961c-0.343,0.632-0.969,1.411-1.878,2.338l-2.621,2.691v0.028
			h5.467V12.269z"/>
		<path fill="#41ABE1" d="M293.537,7.131c0,1.794-0.273,3.123-0.821,3.985s-1.376,1.293-2.485,1.293
			c-1.067,0-1.878-0.444-2.433-1.332s-0.832-2.203-0.832-3.946c0-1.78,0.27-3.099,0.808-3.957c0.538-0.857,1.357-1.286,2.457-1.286
			c1.077,0,1.897,0.444,2.461,1.332C293.255,4.107,293.537,5.411,293.537,7.131z M287.721,7.131c0,1.584,0.208,2.755,0.622,3.513
			c0.415,0.757,1.044,1.136,1.888,1.136c0.881,0,1.523-0.392,1.926-1.174c0.403-0.783,0.605-1.941,0.605-3.475
			c0-1.51-0.202-2.657-0.605-3.439c-0.402-0.783-1.045-1.174-1.926-1.174s-1.52,0.391-1.915,1.174
			C287.919,4.474,287.721,5.621,287.721,7.131z"/>
		<path fill="#41ABE1" d="M299.145,5.097c0,1.053-0.175,1.854-0.524,2.401c-0.35,0.547-0.853,0.821-1.51,0.821
			c-0.62,0-1.105-0.281-1.458-0.842c-0.352-0.562-0.527-1.355-0.527-2.38c0-1.04,0.168-1.832,0.503-2.377
			c0.336-0.545,0.83-0.818,1.482-0.818c0.647,0,1.148,0.281,1.503,0.842S299.145,4.09,299.145,5.097z M295.81,5.097
			c0,0.867,0.105,1.518,0.315,1.954c0.209,0.436,0.538,0.654,0.985,0.654c0.899,0,1.35-0.869,1.35-2.607
			c0-0.857-0.116-1.502-0.347-1.933s-0.565-0.646-1.003-0.646c-0.447,0-0.776,0.215-0.985,0.646
			C295.915,3.595,295.81,4.239,295.81,5.097z M303.283,2.048l-5.67,10.221h-0.671l5.67-10.221H303.283z M305.101,9.207
			c0,1.053-0.172,1.854-0.518,2.401c-0.345,0.548-0.846,0.821-1.503,0.821c-0.634,0-1.125-0.283-1.475-0.849
			c-0.35-0.566-0.524-1.357-0.524-2.374c0-1.048,0.171-1.843,0.514-2.384s0.838-0.811,1.485-0.811c0.639,0,1.135,0.28,1.489,0.839
			C304.924,7.411,305.101,8.196,305.101,9.207z M301.767,9.207c0,0.862,0.104,1.509,0.314,1.94c0.209,0.431,0.538,0.646,0.985,0.646
			c0.899,0,1.35-0.862,1.35-2.586c0-1.72-0.45-2.58-1.35-2.58c-0.447,0-0.776,0.213-0.985,0.64
			C301.871,7.693,301.767,8.34,301.767,9.207z"/>
	</g>
	<g>
		<path fill="#51709B" d="M4.068,207.681c0.867,0,1.565,0.222,2.094,0.664c0.529,0.443,0.794,1.042,0.794,1.797
			c0,0.522-0.164,0.983-0.493,1.384c-0.328,0.401-0.861,0.771-1.598,1.112c0.896,0.368,1.524,0.771,1.888,1.209
			c0.363,0.438,0.546,0.97,0.546,1.594c0,0.844-0.295,1.518-0.885,2.021s-1.381,0.755-2.373,0.755c-1.03,0-1.82-0.235-2.37-0.706
			s-0.825-1.155-0.825-2.055c0-0.611,0.193-1.146,0.58-1.608c0.387-0.461,0.986-0.855,1.797-1.182
			c-0.75-0.354-1.279-0.728-1.587-1.122c-0.308-0.394-0.461-0.865-0.461-1.415c0-0.489,0.123-0.92,0.37-1.29
			s0.593-0.656,1.038-0.856S3.523,207.681,4.068,207.681z M1.559,215.56c0,0.644,0.218,1.142,0.654,1.496
			c0.436,0.354,1.045,0.531,1.828,0.531c0.764,0,1.379-0.188,1.846-0.562c0.466-0.375,0.698-0.885,0.698-1.528
			c0-0.577-0.183-1.047-0.549-1.408c-0.365-0.361-1.07-0.74-2.114-1.136c-0.857,0.331-1.466,0.696-1.824,1.098
			C1.738,214.451,1.559,214.955,1.559,215.56z M4.055,208.311c-0.657,0-1.185,0.161-1.583,0.485s-0.599,0.768-0.599,1.332
			c0,0.326,0.074,0.614,0.221,0.863s0.358,0.476,0.636,0.678c0.277,0.203,0.742,0.439,1.396,0.71
			c0.759-0.294,1.305-0.618,1.636-0.972c0.33-0.354,0.496-0.781,0.496-1.279c0-0.56-0.197-1.002-0.591-1.328
			S4.735,208.311,4.055,208.311z"/>
		<path fill="#51709B" d="M15.547,212.938c0,1.795-0.273,3.123-0.821,3.985s-1.376,1.293-2.485,1.293
			c-1.067,0-1.878-0.443-2.433-1.332c-0.555-0.888-0.832-2.203-0.832-3.946c0-1.78,0.27-3.099,0.808-3.956s1.357-1.286,2.457-1.286
			c1.077,0,1.897,0.443,2.461,1.331S15.547,211.218,15.547,212.938z M9.73,212.938c0,1.585,0.208,2.756,0.622,3.514
			c0.415,0.757,1.044,1.136,1.888,1.136c0.881,0,1.523-0.392,1.926-1.175c0.403-0.782,0.605-1.94,0.605-3.475
			c0-1.51-0.202-2.656-0.605-3.439c-0.402-0.782-1.045-1.174-1.926-1.174s-1.52,0.392-1.915,1.174
			C9.929,210.282,9.73,211.428,9.73,212.938z"/>
		<path fill="#51709B" d="M21.154,210.904c0,1.054-0.175,1.854-0.524,2.401c-0.35,0.548-0.853,0.821-1.51,0.821
			c-0.62,0-1.105-0.28-1.458-0.842c-0.352-0.562-0.527-1.355-0.527-2.381c0-1.039,0.168-1.831,0.503-2.377
			c0.336-0.545,0.83-0.817,1.482-0.817c0.647,0,1.148,0.28,1.503,0.842C20.978,209.114,21.154,209.897,21.154,210.904z
			 M17.819,210.904c0,0.867,0.105,1.519,0.315,1.954c0.209,0.436,0.538,0.653,0.985,0.653c0.899,0,1.35-0.869,1.35-2.607
			c0-0.857-0.116-1.502-0.347-1.933s-0.565-0.646-1.003-0.646c-0.447,0-0.776,0.216-0.985,0.646
			C17.925,209.402,17.819,210.046,17.819,210.904z M25.293,207.856l-5.67,10.221h-0.671l5.67-10.221H25.293z M27.11,215.015
			c0,1.053-0.172,1.854-0.518,2.401c-0.345,0.547-0.846,0.821-1.503,0.821c-0.634,0-1.125-0.283-1.475-0.85
			s-0.524-1.357-0.524-2.373c0-1.049,0.171-1.844,0.514-2.385c0.343-0.54,0.838-0.811,1.485-0.811c0.639,0,1.135,0.279,1.489,0.839
			S27.11,214.003,27.11,215.015z M23.776,215.015c0,0.862,0.104,1.509,0.314,1.939c0.209,0.432,0.538,0.646,0.985,0.646
			c0.899,0,1.35-0.862,1.35-2.586c0-1.72-0.45-2.58-1.35-2.58c-0.447,0-0.776,0.213-0.985,0.64
			C23.881,213.501,23.776,214.148,23.776,215.015z"/>
	</g>
	<rect x="80.534" y="254.61" fill="#51709B" width="61.053" height="22.668"/>
	<rect x="146.775" y="254.61" fill="#41ABE1" width="61.053" height="22.668"/>
	<g>
		<path fill="#FFFFFF" d="M101.483,270.717l-3.811-9.438h-0.056c0.037,0.578,0.056,1.17,0.056,1.775v7.662h-0.685v-10.221h1.104
			l3.621,8.99h0.042l3.621-8.99h1.076v10.221h-0.72v-7.746c0-0.54,0.028-1.1,0.084-1.678h-0.056l-3.824,9.424H101.483z"/>
		<path fill="#FFFFFF" d="M113.78,270.717l-0.175-1.202h-0.057c-0.382,0.489-0.774,0.835-1.178,1.038
			c-0.403,0.202-0.88,0.304-1.43,0.304c-0.745,0-1.326-0.19-1.74-0.573c-0.415-0.382-0.622-0.911-0.622-1.587
			c0-0.741,0.309-1.316,0.926-1.727s1.511-0.627,2.681-0.65l1.447-0.042v-0.503c0-0.723-0.146-1.268-0.44-1.636
			c-0.293-0.368-0.767-0.553-1.419-0.553c-0.704,0-1.434,0.196-2.188,0.588l-0.258-0.602c0.834-0.392,1.658-0.587,2.475-0.587
			c0.834,0,1.457,0.217,1.87,0.649c0.412,0.434,0.618,1.109,0.618,2.027v5.055H113.78z M110.983,270.228
			c0.811,0,1.45-0.231,1.919-0.695s0.703-1.108,0.703-1.934v-0.748l-1.329,0.057c-1.066,0.051-1.828,0.218-2.282,0.499
			c-0.454,0.282-0.682,0.722-0.682,1.318c0,0.476,0.146,0.845,0.438,1.107C110.041,270.096,110.452,270.228,110.983,270.228z"/>
		<path fill="#FFFFFF" d="M117.443,270.717h-0.692v-10.878h0.692V270.717z"/>
		<path fill="#FFFFFF" d="M123.057,270.857c-1.104,0-1.965-0.34-2.583-1.021c-0.617-0.681-0.926-1.634-0.926-2.859
			c0-1.212,0.298-2.182,0.895-2.911s1.4-1.095,2.412-1.095c0.895,0,1.601,0.312,2.118,0.938c0.518,0.624,0.776,1.473,0.776,2.544
			v0.56h-5.475c0.01,1.044,0.253,1.841,0.73,2.391c0.479,0.55,1.162,0.825,2.052,0.825c0.434,0,0.814-0.03,1.144-0.091
			c0.328-0.061,0.744-0.191,1.248-0.392v0.629c-0.429,0.187-0.825,0.313-1.188,0.381
			C123.896,270.823,123.495,270.857,123.057,270.857z M122.854,263.586c-0.731,0-1.319,0.241-1.762,0.724
			c-0.443,0.482-0.701,1.178-0.776,2.087h4.698c0-0.881-0.191-1.569-0.573-2.065C124.059,263.834,123.53,263.586,122.854,263.586z"
			/>
	</g>
	<g>
		<path fill="#FFFFFF" d="M156.235,270.717h-0.713v-10.221h5.6v0.657h-4.887v4.334h4.614v0.664h-4.614V270.717z"/>
		<path fill="#FFFFFF" d="M165.603,270.857c-1.104,0-1.965-0.34-2.583-1.021c-0.617-0.681-0.926-1.634-0.926-2.859
			c0-1.212,0.298-2.182,0.895-2.911s1.4-1.095,2.412-1.095c0.895,0,1.601,0.312,2.118,0.938c0.518,0.624,0.776,1.473,0.776,2.544
			v0.56h-5.475c0.01,1.044,0.253,1.841,0.73,2.391c0.479,0.55,1.162,0.825,2.052,0.825c0.434,0,0.814-0.03,1.144-0.091
			c0.328-0.061,0.744-0.191,1.248-0.392v0.629c-0.429,0.187-0.825,0.313-1.188,0.381
			C166.441,270.823,166.041,270.857,165.603,270.857z M165.4,263.586c-0.731,0-1.319,0.241-1.762,0.724
			c-0.443,0.482-0.701,1.178-0.776,2.087h4.698c0-0.881-0.191-1.569-0.573-2.065C166.604,263.834,166.076,263.586,165.4,263.586z"/>
		<path fill="#FFFFFF" d="M179.885,270.717v-4.984c0-0.741-0.145-1.281-0.434-1.622c-0.289-0.34-0.731-0.51-1.328-0.51
			c-0.778,0-1.354,0.214-1.727,0.643s-0.56,1.103-0.56,2.021v4.453h-0.706v-5.194c0-1.281-0.587-1.922-1.762-1.922
			c-0.797,0-1.377,0.231-1.74,0.695s-0.545,1.206-0.545,2.227v4.194h-0.692v-7.599h0.573l0.146,1.041h0.042
			c0.21-0.377,0.508-0.67,0.895-0.877c0.388-0.207,0.813-0.312,1.279-0.312c1.198,0,1.967,0.45,2.308,1.35h0.027
			c0.247-0.434,0.579-0.767,0.996-1c0.418-0.232,0.892-0.35,1.423-0.35c0.83,0,1.452,0.222,1.867,0.664
			c0.414,0.443,0.622,1.146,0.622,2.111v4.971H179.885z"/>
		<path fill="#FFFFFF" d="M187.646,270.717l-0.175-1.202h-0.057c-0.382,0.489-0.774,0.835-1.178,1.038
			c-0.403,0.202-0.88,0.304-1.43,0.304c-0.745,0-1.326-0.19-1.74-0.573c-0.415-0.382-0.622-0.911-0.622-1.587
			c0-0.741,0.309-1.316,0.926-1.727s1.511-0.627,2.681-0.65l1.447-0.042v-0.503c0-0.723-0.146-1.268-0.44-1.636
			c-0.293-0.368-0.767-0.553-1.419-0.553c-0.704,0-1.434,0.196-2.188,0.588l-0.258-0.602c0.834-0.392,1.658-0.587,2.475-0.587
			c0.834,0,1.457,0.217,1.87,0.649c0.412,0.434,0.618,1.109,0.618,2.027v5.055H187.646z M184.849,270.228
			c0.811,0,1.45-0.231,1.919-0.695s0.703-1.108,0.703-1.934v-0.748l-1.329,0.057c-1.066,0.051-1.828,0.218-2.282,0.499
			c-0.454,0.282-0.682,0.722-0.682,1.318c0,0.476,0.146,0.845,0.438,1.107C183.906,270.096,184.317,270.228,184.849,270.228z"/>
		<path fill="#FFFFFF" d="M191.309,270.717h-0.692v-10.878h0.692V270.717z"/>
		<path fill="#FFFFFF" d="M196.921,270.857c-1.104,0-1.965-0.34-2.583-1.021c-0.617-0.681-0.926-1.634-0.926-2.859
			c0-1.212,0.298-2.182,0.895-2.911s1.4-1.095,2.412-1.095c0.895,0,1.601,0.312,2.118,0.938c0.518,0.624,0.776,1.473,0.776,2.544
			v0.56h-5.475c0.01,1.044,0.253,1.841,0.73,2.391c0.479,0.55,1.162,0.825,2.052,0.825c0.434,0,0.814-0.03,1.144-0.091
			c0.328-0.061,0.744-0.191,1.248-0.392v0.629c-0.429,0.187-0.825,0.313-1.188,0.381
			C197.76,270.823,197.359,270.857,196.921,270.857z M196.719,263.586c-0.731,0-1.319,0.241-1.762,0.724
			c-0.443,0.482-0.701,1.178-0.776,2.087h4.698c0-0.881-0.191-1.569-0.573-2.065C197.923,263.834,197.395,263.586,196.719,263.586z"
			/>
	</g>
</g>
</svg>