<!-- Generator: Adobe Illustrator 18.1.0, SVG Export Plug-In  -->
<svg version="1.1"
	 xmlns="http://www.w3.org/2000/svg" xmlns:xlink="http://www.w3.org/1999/xlink" xmlns:a="http://ns.adobe.com/AdobeSVGViewerExtensions/3.0/"
	 x="0px" y="0px" width="305.891px" height="277.279px" viewBox="0 0 305.891 277.279" enable-background="new 0 0 305.891 277.279"
	 xml:space="preserve">
<defs>
</defs>
<g>
	<path fill="#41ABE1" d="M144.364,0.681c55.899,0,101.214,45.315,101.214,101.214c0,28.761-11.996,54.72-31.259,73.147
		l-24.562-24.938c12.82-12.076,20.824-29.208,20.824-48.21c0-36.571-29.646-66.217-66.217-66.217V0.681z"/>
	<path fill="#51709B" d="M189.754,150.101l24.564,24.939l0.001,0.001c-18.175,17.385-42.818,28.066-69.955,28.066
		c-55.898,0-101.213-45.315-101.213-101.213c0-55.899,45.315-101.214,101.213-101.214v34.997c-36.57,0-66.216,29.646-66.216,66.217
		c0,36.571,29.646,66.216,66.216,66.216c17.569,0,33.539-6.842,45.393-18.007"/>
	<polyline fill="none" stroke="#41ABE1" stroke-width="3.3381" stroke-linecap="round" stroke-miterlimit="10" points="
		224.301,29.712 242.794,8.237 268.445,8.237 	"/>
	<polyline fill="none" stroke="#51709B" stroke-width="3.3381" stroke-linecap="round" stroke-miterlimit="10" points="
		80.534,192.37 62.041,213.846 36.39,213.846 	"/>
	<g>
		<path fill="#41ABE1" d="M284.834,4.453c0,0.634-0.199,1.167-0.598,1.601s-0.934,0.711-1.604,0.832v0.042
			c0.82,0.103,1.445,0.363,1.874,0.783s0.643,0.983,0.643,1.692c0,0.956-0.325,1.695-0.975,2.22
			c-0.65,0.524-1.586,0.786-2.807,0.786c-1.04,0-1.946-0.193-2.72-0.58v-0.692c0.392,0.205,0.831,0.366,1.317,0.482
			c0.487,0.116,0.945,0.174,1.374,0.174c1.03,0,1.804-0.208,2.321-0.625c0.517-0.417,0.775-1.005,0.775-1.765
			c0-0.676-0.265-1.195-0.793-1.559c-0.529-0.363-1.307-0.545-2.332-0.545h-1.104V6.627h1.119c0.848,0,1.521-0.202,2.017-0.604
			c0.496-0.403,0.744-0.95,0.744-1.64c0-0.568-0.201-1.024-0.604-1.367c-0.403-0.342-0.931-0.514-1.583-0.514
			c-0.509,0-0.972,0.071-1.392,0.213c-0.419,0.142-0.891,0.386-1.412,0.73l-0.343-0.468c0.396-0.331,0.874-0.593,1.434-0.787
			c0.559-0.193,1.125-0.29,1.698-0.29c0.941,0,1.669,0.223,2.182,0.667C284.578,3.015,284.834,3.643,284.834,4.453z"/>
		<path fill="#41ABE1" d="M290.23,1.874c0.867,0,1.565,0.222,2.094,0.665c0.529,0.442,0.794,1.042,0.794,1.796
			c0,0.522-0.164,0.983-0.493,1.384c-0.328,0.401-0.861,0.771-1.598,1.111c0.896,0.368,1.524,0.771,1.888,1.209
			s0.546,0.97,0.546,1.594c0,0.844-0.295,1.517-0.885,2.021s-1.381,0.755-2.373,0.755c-1.03,0-1.82-0.235-2.37-0.706
			s-0.825-1.156-0.825-2.055c0-0.61,0.193-1.146,0.58-1.608s0.986-0.855,1.797-1.181c-0.75-0.354-1.279-0.729-1.587-1.122
			c-0.308-0.394-0.461-0.866-0.461-1.416c0-0.489,0.123-0.919,0.37-1.29s0.593-0.656,1.038-0.856
			C289.19,1.974,289.686,1.874,290.23,1.874z M287.721,9.752c0,0.643,0.218,1.142,0.654,1.496c0.436,0.354,1.045,0.531,1.828,0.531
			c0.764,0,1.379-0.188,1.846-0.563c0.466-0.375,0.698-0.884,0.698-1.527c0-0.578-0.183-1.047-0.549-1.409
			c-0.365-0.361-1.07-0.74-2.114-1.136c-0.857,0.331-1.466,0.697-1.824,1.097C287.9,8.643,287.721,9.146,287.721,9.752z
			 M290.217,2.503c-0.657,0-1.185,0.162-1.583,0.486c-0.398,0.324-0.599,0.768-0.599,1.332c0,0.327,0.074,0.614,0.221,0.864
			c0.146,0.249,0.358,0.475,0.636,0.678c0.277,0.203,0.742,0.439,1.396,0.71c0.759-0.294,1.305-0.618,1.636-0.972
			c0.33-0.354,0.496-0.78,0.496-1.279c0-0.559-0.197-1.002-0.591-1.328S290.897,2.503,290.217,2.503z"/>
		<path fill="#41ABE1" d="M299.145,5.097c0,1.053-0.175,1.854-0.524,2.401c-0.35,0.547-0.853,0.821-1.51,0.821
			c-0.62,0-1.105-0.281-1.458-0.842c-0.352-0.562-0.527-1.355-0.527-2.38c0-1.04,0.168-1.832,0.503-2.377
			c0.336-0.545,0.83-0.818,1.482-0.818c0.647,0,1.148,0.281,1.503,0.842S299.145,4.09,299.145,5.097z M295.81,5.097
			c0,0.867,0.105,1.518,0.315,1.954c0.209,0.436,0.538,0.654,0.985,0.654c0.899,0,1.35-0.869,1.35-2.607
			c0-0.857-0.116-1.502-0.347-1.933s-0.565-0.646-1.003-0.646c-0.447,0-0.776,0.215-0.985,0.646
			C295.915,3.595,295.81,4.239,295.81,5.097z M303.283,2.048l-5.67,10.221h-0.671l5.67-10.221H303.283z M305.101,9.207
			c0,1.053-0.172,1.854-0.518,2.401c-0.345,0.548-0.846,0.821-1.503,0.821c-0.634,0-1.125-0.283-1.475-0.849
			c-0.35-0.566-0.524-1.357-0.524-2.374c0-1.048,0.171-1.843,0.514-2.384s0.838-0.811,1.485-0.811c0.639,0,1.135,0.28,1.489,0.839
			C304.924,7.411,305.101,8.196,305.101,9.207z M301.767,9.207c0,0.862,0.104,1.509,0.314,1.94c0.209,0.431,0.538,0.646,0.985,0.646
			c0.899,0,1.35-0.862,1.35-2.586c0-1.72-0.45-2.58-1.35-2.58c-0.447,0-0.776,0.213-0.985,0.64
			C301.871,7.693,301.767,8.34,301.767,9.207z"/>
	</g>
	<g>
		<path fill="#51709B" d="M0.916,213.721c0-1.328,0.18-2.445,0.542-3.352s0.874-1.579,1.538-2.018
			c0.664-0.438,1.464-0.656,2.401-0.656c0.438,0,0.839,0.053,1.202,0.16v0.615c-0.34-0.126-0.75-0.188-1.23-0.188
			c-1.151,0-2.047,0.415-2.688,1.244c-0.641,0.83-1.001,2.037-1.08,3.621h0.091c0.354-0.456,0.759-0.802,1.216-1.034
			c0.457-0.233,0.939-0.35,1.447-0.35c0.955,0,1.702,0.272,2.24,0.817c0.539,0.546,0.808,1.299,0.808,2.259
			c0,1.044-0.283,1.867-0.85,2.471c-0.566,0.604-1.329,0.905-2.29,0.905c-1.034,0-1.851-0.395-2.45-1.185
			C1.215,216.242,0.916,215.138,0.916,213.721z M4.264,217.601c0.765,0,1.359-0.24,1.783-0.72c0.424-0.48,0.636-1.165,0.636-2.056
			c0-0.782-0.209-1.394-0.629-1.831c-0.419-0.438-0.991-0.657-1.713-0.657c-0.476,0-0.917,0.104-1.325,0.314
			s-0.733,0.488-0.975,0.835c-0.243,0.348-0.364,0.703-0.364,1.066c0,0.518,0.115,1.015,0.346,1.492
			c0.23,0.479,0.543,0.856,0.937,1.137C3.354,217.461,3.789,217.601,4.264,217.601z"/>
		<path fill="#51709B" d="M15.359,218.077H8.962v-0.615l2.719-2.838c0.764-0.793,1.3-1.398,1.608-1.818
			c0.308-0.419,0.534-0.819,0.678-1.202c0.145-0.382,0.217-0.783,0.217-1.202c0-0.61-0.201-1.106-0.602-1.489
			c-0.401-0.382-0.92-0.573-1.559-0.573c-0.853,0-1.668,0.311-2.447,0.93L9.2,208.786c0.853-0.718,1.799-1.076,2.838-1.076
			c0.89,0,1.59,0.237,2.101,0.713c0.51,0.476,0.765,1.13,0.765,1.965c0,0.676-0.171,1.329-0.514,1.961
			c-0.342,0.631-0.968,1.41-1.877,2.338l-2.622,2.691v0.028h5.467V218.077z"/>
		<path fill="#51709B" d="M21.154,210.904c0,1.054-0.175,1.854-0.524,2.401c-0.349,0.548-0.853,0.821-1.51,0.821
			c-0.62,0-1.106-0.28-1.458-0.842c-0.352-0.562-0.528-1.355-0.528-2.381c0-1.039,0.167-1.831,0.503-2.377
			c0.335-0.545,0.829-0.817,1.482-0.817c0.647,0,1.149,0.28,1.503,0.842C20.977,209.114,21.154,209.897,21.154,210.904z
			 M17.819,210.904c0,0.867,0.105,1.519,0.314,1.954c0.21,0.436,0.539,0.653,0.986,0.653c0.899,0,1.349-0.869,1.349-2.607
			c0-0.857-0.115-1.502-0.346-1.933c-0.23-0.431-0.565-0.646-1.003-0.646c-0.447,0-0.776,0.216-0.986,0.646
			C17.924,209.402,17.819,210.046,17.819,210.904z M25.292,207.856l-5.669,10.221h-0.671l5.669-10.221H25.292z M27.11,215.015
			c0,1.053-0.172,1.854-0.517,2.401c-0.345,0.547-0.846,0.821-1.503,0.821c-0.634,0-1.125-0.283-1.475-0.85
			s-0.524-1.357-0.524-2.373c0-1.049,0.171-1.844,0.514-2.385c0.343-0.54,0.838-0.811,1.486-0.811c0.638,0,1.135,0.279,1.489,0.839
			S27.11,214.003,27.11,215.015z M23.775,215.015c0,0.862,0.105,1.509,0.314,1.939c0.21,0.432,0.539,0.646,0.986,0.646
			c0.899,0,1.349-0.862,1.349-2.586c0-1.72-0.45-2.58-1.349-2.58c-0.447,0-0.776,0.213-0.986,0.64
			C23.88,213.501,23.775,214.148,23.775,215.015z"/>
	</g>
	<rect x="148.745" y="254.61" fill="#41ABE1" width="45.338" height="22.668"/>
	<rect x="96.249" y="254.61" fill="#51709B" width="45.337" height="22.668"/>
	<g>
		<path fill="#FFFFFF" d="M108.023,260.993c-1.282,0-2.291,0.41-3.027,1.23s-1.104,1.943-1.104,3.37
			c0,1.459,0.347,2.591,1.042,3.397s1.687,1.209,2.978,1.209c0.858,0,1.646-0.109,2.363-0.328v0.629
			c-0.676,0.237-1.52,0.356-2.531,0.356c-1.436,0-2.566-0.464-3.391-1.391c-0.825-0.928-1.237-2.224-1.237-3.888
			c0-1.039,0.197-1.954,0.591-2.747c0.394-0.792,0.96-1.403,1.699-1.835c0.738-0.431,1.597-0.646,2.576-0.646
			c0.997,0,1.89,0.187,2.677,0.56l-0.287,0.643C109.626,261.179,108.843,260.993,108.023,260.993z"/>
		<path fill="#FFFFFF" d="M116.992,270.717l-0.175-1.202h-0.056c-0.382,0.489-0.775,0.835-1.178,1.038
			c-0.403,0.202-0.88,0.304-1.43,0.304c-0.746,0-1.326-0.19-1.741-0.573c-0.415-0.382-0.622-0.911-0.622-1.587
			c0-0.741,0.309-1.316,0.926-1.727s1.511-0.627,2.681-0.65l1.447-0.042v-0.503c0-0.723-0.146-1.268-0.44-1.636
			c-0.293-0.368-0.767-0.553-1.419-0.553c-0.704,0-1.433,0.196-2.188,0.588l-0.259-0.602c0.834-0.392,1.659-0.587,2.475-0.587
			c0.834,0,1.458,0.217,1.87,0.649c0.413,0.434,0.619,1.109,0.619,2.027v5.055H116.992z M114.196,270.228
			c0.811,0,1.451-0.231,1.919-0.695s0.703-1.108,0.703-1.934v-0.748l-1.328,0.057c-1.067,0.051-1.828,0.218-2.283,0.499
			c-0.454,0.282-0.682,0.722-0.682,1.318c0,0.476,0.146,0.845,0.437,1.107C113.253,270.096,113.665,270.228,114.196,270.228z"/>
		<path fill="#FFFFFF" d="M124.675,268.739c0,0.681-0.258,1.204-0.776,1.569c-0.517,0.366-1.251,0.549-2.202,0.549
			c-1.016,0-1.822-0.156-2.418-0.468v-0.748c0.764,0.382,1.57,0.573,2.418,0.573c0.75,0,1.32-0.125,1.709-0.374
			c0.389-0.25,0.583-0.582,0.583-0.996c0-0.383-0.155-0.704-0.465-0.965c-0.31-0.262-0.819-0.518-1.527-0.77
			c-0.76-0.274-1.293-0.512-1.601-0.709c-0.308-0.198-0.54-0.422-0.695-0.672c-0.156-0.249-0.234-0.553-0.234-0.912
			c0-0.568,0.239-1.019,0.717-1.349c0.478-0.331,1.145-0.497,2.003-0.497c0.82,0,1.598,0.154,2.334,0.462l-0.258,0.629
			c-0.746-0.308-1.438-0.461-2.076-0.461c-0.62,0-1.112,0.103-1.475,0.308c-0.364,0.205-0.545,0.489-0.545,0.853
			c0,0.396,0.141,0.713,0.423,0.95c0.282,0.238,0.833,0.504,1.653,0.798c0.685,0.247,1.184,0.469,1.496,0.667
			c0.312,0.198,0.546,0.423,0.703,0.675C124.597,268.103,124.675,268.399,124.675,268.739z"/>
		<path fill="#FFFFFF" d="M131.932,270.717v-4.929c0-0.764-0.161-1.32-0.482-1.667c-0.321-0.348-0.82-0.521-1.496-0.521
			c-0.909,0-1.574,0.229-1.996,0.688s-0.633,1.203-0.633,2.233v4.194h-0.692v-10.878h0.692v3.461l-0.035,0.972h0.049
			c0.284-0.457,0.643-0.788,1.077-0.993c0.433-0.205,0.972-0.308,1.615-0.308c1.724,0,2.586,0.926,2.586,2.775v4.971H131.932z"/>
	</g>
	<g>
		<path fill="#FFFFFF" d="M161.315,260.993c-1.282,0-2.291,0.41-3.027,1.23s-1.104,1.943-1.104,3.37
			c0,1.459,0.347,2.591,1.042,3.397s1.687,1.209,2.978,1.209c0.858,0,1.646-0.109,2.363-0.328v0.629
			c-0.676,0.237-1.52,0.356-2.531,0.356c-1.436,0-2.566-0.464-3.391-1.391c-0.825-0.928-1.237-2.224-1.237-3.888
			c0-1.039,0.197-1.954,0.591-2.747c0.394-0.792,0.96-1.403,1.699-1.835c0.738-0.431,1.597-0.646,2.576-0.646
			c0.997,0,1.89,0.187,2.677,0.56l-0.287,0.643C162.918,261.179,162.135,260.993,161.315,260.993z"/>
		<path fill="#FFFFFF" d="M170.284,270.717l-0.175-1.202h-0.056c-0.382,0.489-0.775,0.835-1.178,1.038
			c-0.403,0.202-0.88,0.304-1.43,0.304c-0.746,0-1.326-0.19-1.741-0.573c-0.415-0.382-0.622-0.911-0.622-1.587
			c0-0.741,0.309-1.316,0.926-1.727s1.511-0.627,2.681-0.65l1.447-0.042v-0.503c0-0.723-0.146-1.268-0.44-1.636
			c-0.293-0.368-0.767-0.553-1.419-0.553c-0.704,0-1.433,0.196-2.188,0.588l-0.259-0.602c0.834-0.392,1.659-0.587,2.475-0.587
			c0.834,0,1.458,0.217,1.87,0.649c0.413,0.434,0.619,1.109,0.619,2.027v5.055H170.284z M167.488,270.228
			c0.811,0,1.451-0.231,1.919-0.695s0.703-1.108,0.703-1.934v-0.748l-1.328,0.057c-1.067,0.051-1.828,0.218-2.283,0.499
			c-0.454,0.282-0.682,0.722-0.682,1.318c0,0.476,0.146,0.845,0.437,1.107C166.545,270.096,166.957,270.228,167.488,270.228z"/>
		<path fill="#FFFFFF" d="M176.247,262.971c0.322,0,0.667,0.033,1.035,0.099l-0.133,0.664c-0.317-0.079-0.646-0.119-0.985-0.119
			c-0.648,0-1.179,0.275-1.594,0.825c-0.415,0.55-0.622,1.244-0.622,2.083v4.194h-0.692v-7.599h0.587l0.07,1.37h0.049
			c0.312-0.56,0.646-0.952,1-1.178C175.315,263.084,175.744,262.971,176.247,262.971z"/>
		<path fill="#FFFFFF" d="M181.609,262.971c0.55,0,1.025,0.101,1.426,0.301c0.4,0.2,0.759,0.543,1.076,1.027h0.042
			c-0.028-0.587-0.042-1.162-0.042-1.727v-2.733h0.686v10.878h-0.455l-0.175-1.16h-0.056c-0.578,0.866-1.407,1.3-2.488,1.3
			c-1.049,0-1.851-0.326-2.405-0.979s-0.832-1.604-0.832-2.853c0-1.314,0.275-2.318,0.825-3.013S180.561,262.971,181.609,262.971z
			 M181.609,263.601c-0.83,0-1.453,0.291-1.87,0.873c-0.417,0.583-0.625,1.429-0.625,2.538c0,2.153,0.836,3.229,2.51,3.229
			c0.857,0,1.486-0.249,1.887-0.748c0.401-0.498,0.601-1.321,0.601-2.468v-0.118c0-1.175-0.197-2.02-0.59-2.534
			C183.127,263.858,182.49,263.601,181.609,263.601z"/>
	</g>
</g>
</svg>