<?xml version="1.0" encoding="UTF-8" standalone="no"?>
<svg width="21058px" height="2371px" viewBox="0 0 21058 2371" version="1.1" xmlns="http://www.w3.org/2000/svg" xmlns:xlink="http://www.w3.org/1999/xlink">
    <!-- Generator: Sketch 40 (33762) - http://www.bohemiancoding.com/sketch -->
    <title>Group 27</title>
    <desc>Created with Sketch.</desc>
    <defs></defs>
    <g id="Page-1" stroke="none" stroke-width="1" fill="none" fill-rule="evenodd">
        <g id="Group-27" transform="translate(-46.000000, -449.000000)" fill="#191919">
            <g id="Group-26" transform="translate(12698.000000, 56.000000)">
                <path d="M1664.80278,1306.97836 L1182.81157,1306.97836 C1112.00428,1306.97836 1054.58413,1249.55821 1054.58413,1178.72366 L1054.58413,696.759708 C1054.58413,625.925158 1112.00428,568.505003 1182.81157,568.505003 L1664.80278,568.505003 C1735.61006,568.505003 1793.03022,625.925158 1793.03022,696.759708 L1793.03022,1178.72366 C1793.03022,1249.55821 1735.61006,1306.97836 1664.80278,1306.97836 L1664.80278,1306.97836 Z M1669.08339,393 L270.932611,393 C121.302122,393 0,514.302122 0,663.932611 L0,2062.05612 C0,2211.71388 121.302122,2333.016 270.932611,2333.016 L1669.08339,2333.016 C1818.71388,2333.016 1940.016,2211.71388 1940.016,2062.05612 L1940.016,663.932611 C1940.016,514.302122 1818.71388,393 1669.08339,393 L1669.08339,393 Z" id="Fill-3"></path>
                <text id="notch." font-family="LeagueSpartan-Bold, League Spartan" font-size="2000" font-weight="bold">
                    <tspan x="2100" y="2300">notch.</tspan>
                </text>
            </g>
            <text id="Say-hello-to" font-family="LeagueSpartan-Bold, League Spartan" font-size="2000" font-weight="bold">
                <tspan x="0" y="2300">Say hello to</tspan>
            </text>
        </g>
    </g>
</svg>