<?xml version="1.0" encoding="UTF-8" standalone="no"?>
<svg width="671px" height="145px" viewBox="0 0 671 145" version="1.1" xmlns="http://www.w3.org/2000/svg" xmlns:xlink="http://www.w3.org/1999/xlink">
    <!-- Generator: Sketch 40 (33762) - http://www.bohemiancoding.com/sketch -->
    <title>Group 26</title>
    <desc>Created with Sketch.</desc>
    <defs></defs>
    <g id="Page-1" stroke="none" stroke-width="1" fill="none" fill-rule="evenodd">
        <g id="Group-26" fill="#333333">
            <path d="M124.396733,68.277621 L88.3815769,68.277621 C83.090743,68.277621 78.8002169,63.9881195 78.8002169,58.6965122 L78.8002169,22.6919926 C78.8002169,17.4003853 83.090743,13.1108838 88.3815769,13.1108838 L124.396733,13.1108838 C129.687567,13.1108838 133.978093,17.4003853 133.978093,22.6919926 L133.978093,58.6965122 C133.978093,63.9881195 129.687567,68.277621 124.396733,68.277621 L124.396733,68.277621 Z M124.716587,0 L20.2445191,0 C9.06388907,0 0,9.06172472 0,20.239685 L0,124.68477 C0,135.864767 9.06388907,144.926491 20.2445191,144.926491 L124.716587,144.926491 C135.897217,144.926491 144.961106,135.864767 144.961106,124.68477 L144.961106,20.239685 C144.961106,9.06172472 135.897217,0 124.716587,0 L124.716587,0 Z" id="Fill-3"></path>
            <path d="M164.387528,142.469037 L193.376737,142.469037 L193.376737,94.9813498 C193.376737,86.630067 201.893341,78.6062854 210.573726,78.6062854 C219.909234,78.6062854 225.641564,86.630067 225.641564,94.9813498 L225.641564,142.469037 L254.630773,142.469037 L254.630773,87.1213189 C254.630773,63.7049768 233.175482,56.0086965 217.780083,56.0086965 C208.608356,56.0086965 200.255533,60.7574652 193.704299,67.307491 L193.376737,67.307491 L193.376737,58.4649562 L164.387528,58.4649562 L164.387528,142.469037 Z M266.586775,100.548872 C266.586775,126.421473 286.895599,144.925296 317.195056,144.925296 C346.184265,144.925296 367.311994,126.421473 367.311994,100.548872 C367.311994,74.3487687 345.037799,56.0086965 317.195056,56.0086965 C288.86097,56.0086965 266.586775,74.3487687 266.586775,100.548872 L266.586775,100.548872 Z M297.377573,100.548872 C297.377573,88.922576 306.057958,80.7350438 317.031275,80.7350438 C327.84081,80.7350438 336.521195,88.922576 336.521195,100.548872 C336.521195,112.011417 328.332153,120.198949 317.031275,120.198949 C305.239054,120.198949 297.377573,112.011417 297.377573,100.548872 L297.377573,100.548872 Z M385.000325,58.4649562 L372.880543,58.4649562 L372.880543,80.5712931 L385.000325,80.5712931 L385.000325,112.83017 C385.000325,127.731479 390.568874,144.925296 413.661973,144.925296 C425.617975,144.925296 434.953483,139.685276 434.953483,139.685276 L427.747126,116.268934 C427.747126,116.268934 424.307728,118.888944 420.540768,118.888944 C415.954905,118.888944 413.989535,115.122679 413.989535,107.262648 L413.989535,80.5712931 L431.677866,80.5712931 L431.677866,58.4649562 L413.989535,58.4649562 L413.989535,27.1885832 L385.000325,27.1885832 L385.000325,58.4649562 Z M489.492504,79.7525399 C498.172889,79.7525399 503.577656,83.6825554 503.577656,83.6825554 L513.404507,63.8687275 C513.404507,63.8687275 503.905218,56.0086965 485.234202,56.0086965 C460.830856,56.0086965 438.720442,75.9862751 438.720442,100.712622 C438.720442,125.275219 460.994637,144.925296 485.234202,144.925296 C503.905218,144.925296 513.404507,137.392767 513.404507,137.392767 L503.577656,117.251437 C503.577656,117.251437 498.172889,121.181453 489.492504,121.181453 C478.519187,121.181453 469.511241,112.011417 469.511241,100.385121 C469.511241,88.922576 478.519187,79.7525399 489.492504,79.7525399 L489.492504,79.7525399 Z M525.196728,142.469037 L554.185937,142.469037 L554.185937,94.9813498 C554.185937,86.630067 562.702541,78.6062854 571.382926,78.6062854 C580.718434,78.6062854 586.450764,86.630067 586.450764,94.9813498 L586.450764,142.469037 L615.439973,142.469037 L615.439973,87.1213189 C615.439973,63.7049768 593.984683,56.0086965 578.589283,56.0086965 C569.417556,56.0086965 561.064733,60.7574652 554.513499,67.307491 L554.185937,67.307491 L554.185937,1.64348274 L525.196728,1.64348274 L525.196728,142.469037 Z M652.126882,107.426399 C641.808689,107.426399 633.455866,115.777682 633.455866,126.257723 C633.455866,136.574013 641.808689,144.925296 652.126882,144.925296 C662.608856,144.925296 670.961679,136.574013 670.961679,126.257723 C670.961679,115.777682 662.608856,107.426399 652.126882,107.426399 L652.126882,107.426399 Z" id="notch."></path>
        </g>
    </g>
</svg>