<!-- Generator: Adobe Illustrator 18.1.0, SVG Export Plug-In  -->
<svg version="1.1"
	 xmlns="http://www.w3.org/2000/svg" xmlns:xlink="http://www.w3.org/1999/xlink" xmlns:a="http://ns.adobe.com/AdobeSVGViewerExtensions/3.0/"
	 x="0px" y="0px" width="213.577px" height="44.538px" viewBox="0 0 213.577 44.538" enable-background="new 0 0 213.577 44.538"
	 xml:space="preserve">
<defs>
</defs>
<g>
	<path fill="#19191A" d="M3.134,31.285C1.403,31.285,0,29.882,0,28.151V3.134C0,1.403,1.403,0,3.134,0h8.48
		c5.848,0,10.604,4.757,10.604,10.605c0,5.847-4.757,10.604-10.604,10.604c-1.73,0-3.134-1.403-3.134-3.134s1.403-3.134,3.134-3.134
		c2.392,0,4.337-1.946,4.337-4.337c0-2.392-1.945-4.337-4.337-4.337H6.268v21.884C6.268,29.882,4.864,31.285,3.134,31.285z"/>
	<path fill="#19191A" d="M115.473,31.285c-1.73,0-3.134-1.403-3.134-3.134V3.134c0-1.731,1.403-3.134,3.134-3.134h8.48
		c5.848,0,10.604,4.757,10.604,10.605c0,5.847-4.757,10.604-10.604,10.604c-1.73,0-3.134-1.403-3.134-3.134s1.403-3.134,3.134-3.134
		c2.392,0,4.337-1.946,4.337-4.337c0-2.392-1.945-4.337-4.337-4.337h-5.347v21.884C118.606,29.882,117.203,31.285,115.473,31.285z"
		/>
	<path fill="#19191A" d="M26.14,31.52c-0.1,0-0.2-0.007-0.3-0.022c-1.251-0.19-3.544-1.188-4.199-3.728
		c-0.547-2.12,0.579-9.418,1.089-12.458c0.183-1.089,1.208-1.823,2.304-1.642c1.089,0.183,1.824,1.214,1.642,2.303
		c-0.734,4.38-1.375,9.769-1.158,10.809c0.056,0.213,0.185,0.371,0.33,0.485c0.494-0.405,1.131-1.019,1.553-1.764
		c0.542-0.956,1.36-3.302,1.958-5.015c0.576-1.653,0.916-2.614,1.202-3.153c0.835-1.578,2.659-4.312,5.487-4.898
		c0.983-0.206,1.965,0.008,2.752,0.6c1.647,1.236,1.964,3.72,2.022,4.451c0.087,1.101-0.735,2.064-1.837,2.151
		c-1.081,0.088-2.064-0.735-2.151-1.836c-0.039-0.445-0.176-0.996-0.319-1.333c-0.789,0.36-1.702,1.383-2.419,2.736
		c-0.158,0.299-0.604,1.575-0.961,2.6c-0.72,2.062-1.535,4.4-2.254,5.669c-1.286,2.27-3.471,3.617-3.715,3.763
		C26.854,31.423,26.499,31.52,26.14,31.52z"/>
	<path fill="#19191A" d="M36.082,31.63c-0.505,0-1.035-0.044-1.592-0.139c-1.948-0.333-3.516-1.273-4.533-2.721
		c-1.79-2.547-1.287-5.729-1.224-6.083c0.194-1.087,1.223-1.817,2.32-1.618c1.083,0.193,1.807,1.226,1.619,2.309
		c-0.141,0.857-0.373,3.68,2.491,4.169c3.131,0.535,4.366-1.787,4.645-2.432l2.455-8.715l1.924-8.45l1.471-6.146
		c0.257-1.075,1.334-1.734,2.411-1.48c1.074,0.257,1.736,1.336,1.479,2.411L48.083,8.86l-1.931,8.479
		c-0.008,0.033-0.016,0.066-0.025,0.099l-2.5,8.875c-0.016,0.056-0.033,0.111-0.055,0.166C42.85,28.388,40.418,31.63,36.082,31.63z"
		/>
	<path fill="#19191A" d="M45.395,13.66c-0.11,0-0.221-0.009-0.33-0.027l-4.567-0.765c-1.09-0.183-1.825-1.214-1.643-2.303
		c0.183-1.088,1.214-1.82,2.303-1.642l4.324,0.725l4.562-0.363c1.111-0.095,2.063,0.735,2.152,1.835
		c0.087,1.101-0.734,2.065-1.836,2.152l-4.808,0.382C45.5,13.658,45.447,13.66,45.395,13.66z"/>
	<path fill="#19191A" d="M91.592,32.368c-2.264,0-5.196-0.406-6.67-2.279c-0.183-0.232-0.345-0.473-0.488-0.719
		c-1.135,1.735-2.66,3.209-4.711,2.969c-2.268-0.262-3.949-0.938-4.786-3.379c-0.552-1.609-0.551-3.825,0.005-6.973
		c0.243-1.376,0.681-3.336,1.051-4.923c-0.213-0.014-0.428-0.036-0.64-0.069c-0.216-0.034-0.424-0.072-0.621-0.113l-1.854,6.556
		c-0.015,0.052-0.031,0.103-0.051,0.153c-0.563,1.516-2.628,6.556-5.497,7.76c-0.945,0.397-1.919,0.395-2.816-0.005
		c-1.59-0.709-2.544-1.6-3.122-2.573c-1.253,1.709-2.876,3.01-4.851,2.726c-1.712-0.249-3.05-1.161-3.902-2.588
		c-1.341,1.67-3.271,3.403-5.218,3.226c-2.757-0.255-3.743-2.213-4.536-3.788l-0.211-0.417c-0.999-1.948-1.599-5.927-1.664-6.375
		c-0.158-1.093,0.599-2.108,1.691-2.267c1.083-0.161,2.107,0.596,2.268,1.69c0.209,1.438,0.738,4.101,1.264,5.126l0.225,0.442
		c0.7,1.391,0.858,1.544,1.202,1.59c0.842-0.341,2.769-2.748,3.306-3.862c0.294-0.725,1.148-5.22,1.764-8.954
		c0-0.001,0.001-0.002,0.001-0.003c0,0,0-0.001,0-0.002c0.18-1.089,1.2-1.829,2.298-1.648c1.089,0.179,1.827,1.207,1.649,2.296
		c-0.439,2.691-1.127,7.44-1.099,8.727c0.037,1.748,0.555,2.706,1.537,2.848c0.663-0.197,2.312-2.787,3.312-5.83
		c0.116-0.353,0.234-0.814,0.349-1.33c0.317-2.269,0.764-4.499,0.842-4.883c0.214-1.058,1.231-1.755,2.292-1.575
		c1.063,0.179,1.794,1.169,1.65,2.239c-0.048,0.356-0.387,2.825-0.843,4.92c-0.172,1.237-0.291,2.399-0.266,3.119
		c0.077,2.223,0.139,2.752,1.468,3.39c0.789-0.517,2.24-2.967,3.132-5.322l2.381-8.418c0.157-0.554,0.544-1.013,1.063-1.261
		s1.118-0.261,1.648-0.033c0,0,0.782,0.324,1.826,0.487c0.79,0.123,1.895-0.077,2.148-0.137c0.678-0.16,1.392,0.044,1.882,0.54
		s0.687,1.21,0.52,1.887c-0.012,0.048-1.197,4.847-1.639,7.35c-0.525,2.973-0.377,4.349-0.161,4.979
		c0.116,0.339,0.188,0.413,0.188,0.413c0.008,0.006,0.189,0.157,1.179,0.279c0.52-0.26,1.336-1.561,2.428-3.871l0.175-0.368
		c0.4-0.84,0.7-2.115,0.989-3.349c0.29-1.235,0.563-2.402,0.977-3.368c2.156-5.04,5.451-5.28,7.219-4.976
		c2.229,0.382,4.735,1.838,4.015,6.603c-0.234,1.549-1.141,5.287-4.487,6.534c-1.272,0.474-2.733,0.555-3.939,0.5
		c0.093,0.565,0.274,1.136,0.604,1.556c0.643,0.817,4.334,0.911,5.738,0.605c0.963-0.209,3.147-1.371,3.506-2.28
		c0.554-1.402,0.405-3.03,0.403-3.045c-0.121-1.098,0.67-2.086,1.769-2.208c1.085-0.12,2.087,0.669,2.208,1.768
		c0.028,0.263,0.257,2.633-0.659,4.955c-1.184,2.998-5.397,4.507-6.377,4.72C94.624,32.137,93.299,32.368,91.592,32.368z
		 M87.485,22.053c0.845,0.047,1.821,0.019,2.52-0.241c1.107-0.413,1.723-2.018,1.929-3.383c0.285-1.888,0.008-1.936-0.735-2.063
		c-0.403-0.068-1.631-0.277-2.865,2.607c-0.276,0.646-0.522,1.694-0.76,2.708C87.544,21.805,87.515,21.929,87.485,22.053z"/>
	<path fill="#19191A" d="M161.322,44.538c-0.313,0-0.633-0.038-0.957-0.115c-3.904-0.928-3.155-5.646-2.707-8.464
		c0.068-0.431,0.135-0.851,0.188-1.245c0.079-0.598,0.255-1.68,0.494-3.062c-1.026,0.514-2.065,0.754-3.044,0.525
		c-2.695-0.625-5.107-3.468-3.796-9.576c0.408-1.904,0.858-4.017,1.199-5.622c-0.239-0.01-0.479-0.029-0.712-0.059
		c-0.274-0.036-0.54-0.088-0.793-0.152c-1.201,3.991-3.107,9.958-4.146,11.333c-1.93,2.553-4.083,3.94-6.399,4.121
		c-2.698,0.211-4.802-0.304-6.978-3.518c-0.53-0.783-0.827-1.706-0.964-2.684c-0.569-0.049-1.042-0.101-1.361-0.139
		c-1.097-0.13-1.881-1.125-1.751-2.221c0.13-1.097,1.111-1.883,2.222-1.751c0.341,0.041,0.686,0.076,1.029,0.107
		c0.309-1.837,0.846-3.466,1.127-4.317c0.78-2.371,3.947-6.399,7.815-5.215c4.001,1.226,3.592,4.611,3.371,6.43l-0.033,0.278
		c-0.304,2.584-2.108,5.053-4.598,6.288c-0.892,0.442-2.268,0.627-3.703,0.677c0.053,0.133,0.108,0.232,0.158,0.305
		c1.309,1.934,1.947,1.883,3.353,1.774c1.126-0.088,2.311-0.945,3.521-2.546c0.626-0.928,2.637-7.053,4.135-12.188
		c0.179-0.614,0.642-1.105,1.243-1.322c0.601-0.217,1.271-0.132,1.8,0.227c0.18,0.117,0.82,0.463,1.467,0.546
		c0.797,0.104,1.975-0.046,2.36-0.112c0.653-0.11,1.321,0.106,1.781,0.584c0.46,0.478,0.654,1.152,0.518,1.801
		c0,0-0.953,4.504-1.75,8.215c-0.464,2.163-0.416,4.464,0.716,4.82c0.611-0.107,1.954-1.198,3.3-2.609
		c0.971-5.184,2.127-10.965,2.725-13.156c0.498-1.823,3.185-10.88,7.089-10.149c3.193,0.598,3.118,4.823,3.086,6.626
		c-0.036,2.002-0.602,3.791-1.457,6.5c-0.177,0.559-0.368,1.162-0.571,1.822c-0.981,3.184-3.857,6.558-5.319,8.128
		c0.417,0.93,1.108,2.661,1.371,4.428c0.431,2.9-0.131,7.166-0.248,7.991c-0.327,2.307-0.903,4.829-2.695,6.051
		C162.776,44.32,162.069,44.538,161.322,44.538z M162.474,31.229c-0.326,1.847-0.568,3.303-0.663,4.012
		c-0.057,0.426-0.128,0.88-0.202,1.345c-0.16,1.011-0.477,2.997-0.293,3.806c0.21-0.329,0.545-1.139,0.824-3.112
		C162.341,35.86,162.604,33.184,162.474,31.229z M140.417,16.278c-0.938,0-2.327,1.704-2.628,2.617
		c-0.423,1.283-0.709,2.358-0.894,3.258c0.894-0.032,1.569-0.118,1.855-0.259c1.289-0.64,2.255-1.914,2.402-3.171l0.035-0.292
		c0.228-1.88,0.183-1.894-0.572-2.125C140.553,16.287,140.486,16.278,140.417,16.278z M168.315,7.721
		c-0.772,1.421-1.694,3.587-2.306,5.827c-0.306,1.12-0.778,3.299-1.299,5.87c0.771-1.105,1.445-2.269,1.764-3.301
		c0.206-0.669,0.399-1.283,0.579-1.85c0.777-2.459,1.246-3.944,1.271-5.366C168.334,8.44,168.329,8.05,168.315,7.721z"/>
	<path fill="#19191A" d="M178.874,32.145c-0.031,0-0.062,0-0.091-0.001c-1.682-0.037-4.48-1.177-5.44-3.596
		c-0.346-0.872-0.623-2.073-0.82-3.107c-0.896,0.671-1.885,1.279-2.851,1.626c-2.381,0.855-5.611,0.754-5.972,0.741
		c-1.103-0.043-1.961-0.972-1.918-2.075s0.995-1.955,2.074-1.922c0.763,0.027,3.065-0.007,4.462-0.509
		c1.56-0.56,3.819-2.739,4.285-3.359c0.096-0.135,0.403-0.682,0.65-1.121c1.352-2.403,2.578-4.47,3.903-5.425
		c2.146-1.549,4.636-1.094,5.986,0.153c1.139,1.052,1.971,4.07,1.711,6.209c-0.299,2.467-2.295,5.456-5.118,6.186
		c-0.96,0.249-2.024,0.198-3.01,0.022c0.104,0.423,0.217,0.81,0.335,1.106c0.248,0.626,1.406,1.062,1.81,1.071
		c0.64,0.015,2.884-0.43,4.06-1.513c0.886-0.815,1.952-3.18,2.441-4.631c0.151-0.555,0.989-3.525,1.913-5.198
		c1.611-2.92,3.746-4.462,5.928-4.364c2.62,0.123,3.713,3.014,3.861,5.678c0.062,1.103-0.783,2.047-1.886,2.108
		c-1.088,0.062-2.047-0.782-2.108-1.886c-0.038-0.625-0.206-1.394-0.383-1.824c-0.502,0.237-1.229,0.985-1.91,2.221
		c-0.62,1.123-1.344,3.535-1.57,4.369c-0.01,0.035-0.021,0.071-0.032,0.105c-0.151,0.457-1.534,4.512-3.543,6.363
		C183.512,31.536,180.232,32.145,178.874,32.145z M176.21,21.713c0.917,0.295,1.947,0.509,2.524,0.36
		c1.035-0.268,2.022-1.748,2.149-2.795c0.119-0.987-0.275-2.347-0.522-2.827c-0.13-0.056-0.433-0.121-0.864,0.19
		c-0.718,0.518-2.146,3.058-2.757,4.142C176.523,21.169,176.354,21.47,176.21,21.713z"/>
	<path fill="#19191A" d="M192.067,31.825c-4.504,0-6.879-4.139-7.519-6.41c-0.3-1.063,0.319-2.168,1.383-2.467
		c1.062-0.299,2.16,0.316,2.465,1.374c0.049,0.168,1.135,3.687,3.918,3.495c3.312-0.23,5.142-3.999,5.435-5.346
		c0.213-0.982,0.644-4.091,0.989-6.589c0.295-2.132,0.55-3.974,0.703-4.806c0.346-1.881,2.36-8.793,2.589-9.575
		c0.312-1.06,1.42-1.669,2.481-1.358c1.06,0.31,1.668,1.42,1.358,2.481c-0.605,2.07-2.233,7.754-2.495,9.175
		c-0.137,0.746-0.398,2.633-0.675,4.632c-0.392,2.831-0.797,5.758-1.043,6.889c-0.564,2.603-3.523,8.103-9.065,8.488
		C192.414,31.819,192.238,31.825,192.067,31.825z"/>
	<path fill="#19191A" d="M201.196,13.845c-3.262,0-5.184-1.353-5.396-1.51c-0.888-0.658-1.074-1.91-0.417-2.797
		c0.65-0.879,1.885-1.072,2.773-0.435c0.083,0.056,1.146,0.742,3.038,0.742c0.04,0,0.081,0,0.121-0.001
		c1.652-0.025,4.782-1.467,6.367-2.37c0.962-0.548,2.182-0.211,2.729,0.747c0.547,0.959,0.213,2.18-0.745,2.728
		c-0.511,0.291-5.075,2.846-8.288,2.896C201.317,13.844,201.256,13.845,201.196,13.845z"/>
	<path fill="#19191A" d="M204.118,32.153c-0.125,0-0.251-0.006-0.378-0.02c-4.341-0.458-5.898-5.646-6.135-8.64
		c-0.087-1.101,0.735-2.064,1.837-2.151c1.102-0.091,2.062,0.733,2.15,1.833c0.125,1.489,0.944,4.81,2.567,4.981
		c1.216-0.282,3.918-5.547,5.501-10.834c0.317-1.058,1.434-1.659,2.489-1.343c1.058,0.316,1.659,1.43,1.343,2.489
		C212.246,22.641,208.88,32.153,204.118,32.153z"/>
</g>
<circle fill="#19191A" cx="25.826" cy="10.228" r="1.918"/>
<path fill="#19191A" d="M18.441,31.457c-1.148,0-2.184-0.331-2.856-0.685c-0.979-0.514-1.354-1.723-0.841-2.701
	c0.513-0.978,1.723-1.353,2.7-0.84c0.185,0.089,1.266,0.559,2.031-0.207c1.108-1.107,2.084-4.201,2.383-5.526
	c0.244-1.078,1.317-1.755,2.392-1.51c1.077,0.243,1.754,1.313,1.511,2.391c-0.12,0.531-1.235,5.254-3.457,7.474
	C21.099,31.058,19.701,31.457,18.441,31.457z"/>
</svg>