<!-- Generator: Adobe Illustrator 18.1.0, SVG Export Plug-In  -->
<svg version="1.1"
	 xmlns="http://www.w3.org/2000/svg" xmlns:xlink="http://www.w3.org/1999/xlink" xmlns:a="http://ns.adobe.com/AdobeSVGViewerExtensions/3.0/"
	 x="0px" y="0px" width="135.653px" height="135.652px" viewBox="0 0 135.653 135.652" enable-background="new 0 0 135.653 135.652"
	 xml:space="preserve">
<defs>
</defs>
<g>
	<circle fill="#45C1C2" cx="67.826" cy="67.826" r="67.826"/>
	<path fill-rule="evenodd" clip-rule="evenodd" fill="#FFFFFF" d="M115.647,67.704c0.056,26.524-21.314,47.954-47.821,47.954
		c-26.398,0-47.773-21.324-47.82-47.707c-0.048-26.525,21.329-47.96,47.823-47.957C94.23,19.997,115.591,41.31,115.647,67.704z
		 M110.967,67.819c-0.003-23.716-19.495-43.172-43.211-43.135c-23.612,0.037-42.997,19.403-43.072,43.028
		c-0.075,23.7,19.375,43.228,43.09,43.262C91.488,111.006,110.972,91.541,110.967,67.819z"/>
	<path fill-rule="evenodd" clip-rule="evenodd" fill="#FFFFFF" d="M91.996,53.358c0.012,4.207-3.212,7.481-7.405,7.517
		c-4.271,0.037-7.717-3.376-7.655-7.583c0.06-4.064,3.554-7.501,7.597-7.473C88.654,45.847,91.982,49.21,91.996,53.358z"/>
	<path fill="none" stroke="#FFFFFF" stroke-width="4.0067" stroke-linecap="round" stroke-miterlimit="10" d="M46.888,85.914
		c0,0,6.498,8.542,20.717,8.542s21.159-8.542,21.159-8.542"/>
	
		<line fill="none" stroke="#FFFFFF" stroke-width="4" stroke-linecap="round" stroke-miterlimit="10" x1="45.946" y1="50.533" x2="59.696" y2="56.632"/>
</g>
</svg>