<?xml version="1.0" encoding="utf-8"?>
<!-- Generator: Adobe Illustrator 18.1.0, SVG Export Plug-In . SVG Version: 6.00 Build 0)  -->
<svg version="1.1" id="Layer_1" xmlns="http://www.w3.org/2000/svg" xmlns:xlink="http://www.w3.org/1999/xlink" x="0px" y="0px"
	 viewBox="0 0 200 200" enable-background="new 0 0 200 200" xml:space="preserve">
<g>
	<g>
		
			<linearGradient id="SVGID_1_" gradientUnits="userSpaceOnUse" x1="11.8967" y1="26.3671" x2="11.8967" y2="183.8884" gradientTransform="matrix(0.7071 0.7071 -0.7071 0.7071 167.8239 15.2616)">
			<stop  offset="0.2366" style="stop-color:#FFFFFF;stop-opacity:0"/>
			<stop  offset="1" style="stop-color:#FFFFFF"/>
		</linearGradient>
		<path fill="url(#SVGID_1_)" d="M158,44.2C158,44.2,158,44.2,158,44.2l0.1-0.3l0,0c0.1-0.5-0.1-1.1-0.5-1.5c-0.4-0.4-1-0.6-1.6-0.5
			l0,0l-0.3,0.1c0,0,0,0,0,0l-23.8,6.3l-1.1,0.3l-0.7,0.7l-84.3,84.3c-5.4,5.4-5.2,14.5,0.4,20.2c5.7,5.7,14.7,5.9,20.2,0.4
			l84.3-84.3l0.7-0.7l0.3-1.1L158,44.2z M72.3,142.7l-15-15c-0.8-0.8-0.8-2-0.1-2.8c0.7-0.7,2-0.7,2.8,0.1l15,15
			c0.8,0.8,0.8,2,0.1,2.8C74.3,143.5,73.1,143.5,72.3,142.7z M76.1,138.9l-15-15c-0.8-0.8-0.8-2-0.1-2.8c0.7-0.7,2-0.7,2.8,0.1
			l15,15c0.8,0.8,0.8,2,0.1,2.8C78.1,139.7,76.9,139.6,76.1,138.9z"/>
		
			<linearGradient id="SVGID_2_" gradientUnits="userSpaceOnUse" x1="11.8967" y1="184.207" x2="11.8967" y2="26.0494" gradientTransform="matrix(0.7071 0.7071 -0.7071 0.7071 167.8239 15.2616)">
			<stop  offset="0.3873" style="stop-color:#FFFFFF;stop-opacity:0"/>
			<stop  offset="1" style="stop-color:#FFFFFF"/>
		</linearGradient>
		<path fill="url(#SVGID_2_)" d="M151.7,69.2l6.6-24.9c0,0,0,0,0,0l0.1-0.3c0,0,0-0.1,0-0.2c0.1-0.6-0.1-1.3-0.6-1.7
			c-0.5-0.5-1.1-0.7-1.8-0.6c-0.1,0-0.1,0-0.2,0l-0.2,0.1c0,0,0,0,0,0l-6.6,1.8l-0.1-0.1l-0.1,0.1l-18.1,4.8c-0.1,0-0.1,0-0.1,0.1
			l-85,85c-5.6,5.6-5.4,14.8,0.4,20.6s15.1,6,20.6,0.4l85-85C151.6,69.3,151.7,69.3,151.7,69.2z M106.8,89.9l13.8-1.4l-0.9,11.5
			L106.8,89.9z M119.2,100.4l-22.4,4.3l9.3-14.6L119.2,100.4z M124.3,72.4l-14.8,2.8l7.6-7.6L124.3,72.4z M147.5,61.3l-2.4,5.4
			l1.1-9.8L147.5,61.3z M144.1,68.5l-18,3.6l12.2-12.2L144.1,68.5z M138.8,59.4l6.9-3.7l-1.3,12L138.8,59.4z M138.5,58.9l-6.8-9.6
			l13.7,6L138.5,58.9z M125.4,71.8l-0.3-16.9l12.6,4.5L125.4,71.8z M124.7,73l-3.9,14.5l-11.6-11.6L124.7,73z M125.3,73l12.1,3.8
			l-15.9,10.6L125.3,73z M126.4,72.7l17.4-3.5l-5.8,7.1L126.4,72.7z M145,68.4l2.8-6.4l3.1,6.7L145,68.4z M146.5,55.4l8.7-3.6
			l-7.2,8.8L146.5,55.4z M132.1,48.8l19.7-1.1l-5.9,7.1L132.1,48.8z M130.7,49l6.8,9.7l-12.1-4.3L130.7,49z M124.8,71L120,59.7
			l4.5-4.5L124.8,71z M124.4,71.7l-7-4.7l2.3-6.5L124.4,71.7z M109.1,74.7l1.4-5.4l5.4-1.4L109.1,74.7z M108.4,76.1l11,11l-17.8-8.5
			L108.4,76.1z M119.8,87.9l-13.6,1.4l-4.7-10.1L119.8,87.9z M96,104.8l-14.2-6.4l23.4-8.2L96,104.8z M103.3,109.7l-3.7,10.1
			l-3.1-14L103.3,109.7z M103.7,109.2l-6.7-3.8l21-4.1L103.7,109.2z M121.1,89.9l2,7l-2.8,2.8L121.1,89.9z M123.7,96.4l-2.3-8
			l14.1-3.8L123.7,96.4z M122.7,87.3l14.9-10l-1.4,6.4L122.7,87.3z M144.7,69l5.6,0.4l-10.9,6.2L144.7,69z M148.2,61.3l7.3-9
			l-4.2,15.9L148.2,61.3z M147.1,54.4l5.5-6.6l3.1,3.1L147.1,54.4z M142.7,45.7l7.3,1.5l-16.2,0.9L142.7,45.7z M144.1,45.3l4.7-1.3
			l2.8,2.8L144.1,45.3z M116.8,66.9l-5.4,1.5l7.5-7.5L116.8,66.9z M109.7,70.1l-1.5,5.4l-6.2,2.2L109.7,70.1z M100.7,79l4.8,10.4
			l-23.4,8.2L100.7,79z M95.8,105.4l3.2,14.3L82,99.3L95.8,105.4z M104,109.8l14.1-7.8l-17.8,17.8L104,109.8z M137.1,83l1.3-6.1
			l11.1-6.3L137.1,83z M155.8,42.2C155.8,42.2,155.8,42.2,155.8,42.2l0.2,0c0,0,0.1,0,0.1,0c1-0.2,1.8,0.7,1.7,1.7c0,0,0,0.1,0,0.1
			l-0.1,0.2c0,0,0,0,0,0l-1.7,6.2l-6.5-6.5L155.8,42.2z M46.4,153.5c-5.6-5.6-5.8-14.4-0.4-19.7l34.9-34.9l18.3,22.1l-33,33
			C60.8,159.2,52,159,46.4,153.5z"/>
	</g>
	<circle fill="none" stroke="#FFFFFF" stroke-width="0.5" stroke-miterlimit="10" cx="100" cy="100" r="99.6"/>
</g>
</svg>
