<?xml version="1.0" encoding="utf-8"?>
<!-- Generator: Adobe Illustrator 18.1.0, SVG Export Plug-In . SVG Version: 6.00 Build 0)  -->
<svg version="1.1" id="Layer_1" xmlns="http://www.w3.org/2000/svg" xmlns:xlink="http://www.w3.org/1999/xlink" x="0px" y="0px"
	 viewBox="0 0 200 200" enable-background="new 0 0 200 200" xml:space="preserve">
<g>
	<g>
		
			<linearGradient id="SVGID_1_" gradientUnits="userSpaceOnUse" x1="12.2503" y1="26.4654" x2="12.2503" y2="183.7968" gradientTransform="matrix(0.7071 0.7071 -0.7071 0.7071 167.8239 15.2616)">
			<stop  offset="0.2366" style="stop-color:#FFFFFF;stop-opacity:0"/>
			<stop  offset="1" style="stop-color:#FFFFFF"/>
		</linearGradient>
		<path fill="url(#SVGID_1_)" d="M158.2,44.5C158.2,44.5,158.2,44.5,158.2,44.5l0.1-0.3l0,0c0.1-0.5-0.1-1.1-0.5-1.5
			c-0.4-0.4-1-0.6-1.6-0.5l0,0l-0.3,0.1c0,0,0,0,0,0l-23.8,6.3l-1.1,0.3l-0.7,0.7l-84.2,84.2c-5.4,5.4-5.2,14.4,0.4,20.1
			c5.7,5.7,14.7,5.9,20.1,0.4l84.2-84.2l0.7-0.7l0.3-1.1L158.2,44.5z M72.6,142.9l-15-15c-0.8-0.8-0.8-2-0.1-2.8
			c0.7-0.7,2-0.7,2.8,0.1l15,15c0.8,0.8,0.8,2,0.1,2.8C74.6,143.7,73.3,143.7,72.6,142.9z M76.4,139.1l-15-15
			c-0.8-0.8-0.8-2-0.1-2.8c0.7-0.7,2-0.7,2.8,0.1l15,15c0.8,0.8,0.8,2,0.1,2.8C78.4,139.9,77.1,139.8,76.4,139.1z"/>
		
			<linearGradient id="SVGID_2_" gradientUnits="userSpaceOnUse" x1="12.2503" y1="184.115" x2="12.2503" y2="26.1481" gradientTransform="matrix(0.7071 0.7071 -0.7071 0.7071 167.8239 15.2616)">
			<stop  offset="0.3873" style="stop-color:#FFFFFF;stop-opacity:0"/>
			<stop  offset="1" style="stop-color:#FFFFFF"/>
		</linearGradient>
		<path fill="url(#SVGID_2_)" d="M151.9,69.5l6.6-24.9c0,0,0,0,0,0l0.1-0.3c0,0,0-0.1,0-0.2c0.1-0.6-0.1-1.3-0.6-1.7
			c-0.5-0.5-1.1-0.7-1.8-0.6c-0.1,0-0.1,0-0.2,0l-0.2,0.1c0,0,0,0,0,0l-6.6,1.8l-0.1-0.1l-0.1,0.1l-18.1,4.8c-0.1,0-0.1,0-0.1,0.1
			l-84.9,84.9c-5.6,5.6-5.4,14.8,0.4,20.6s15,6,20.6,0.4l84.9-84.9C151.8,69.6,151.9,69.6,151.9,69.5z M107,90.1l13.8-1.4l-0.9,11.5
			L107,90.1z M119.4,100.7L97,105l9.3-14.6L119.4,100.7z M124.5,72.7l-14.8,2.8l7.6-7.6L124.5,72.7z M147.7,61.5l-2.3,5.4l1.1-9.8
			L147.7,61.5z M144.2,68.8l-17.9,3.6l12.2-12.2L144.2,68.8z M139,59.7l6.8-3.6l-1.3,12L139,59.7z M138.7,59.2l-6.8-9.6l13.6,6
			L138.7,59.2z M125.6,72.1l-0.3-16.9l12.6,4.5L125.6,72.1z M124.9,73.3L121,87.8l-11.6-11.6L124.9,73.3z M125.6,73.3l12,3.8
			l-15.9,10.6L125.6,73.3z M126.6,72.9l17.4-3.5l-5.8,7.1L126.6,72.9z M145.2,68.7l2.8-6.3l3,6.7L145.2,68.7z M146.7,55.7l8.7-3.6
			l-7.2,8.8L146.7,55.7z M132.3,49.1L152,48l-5.9,7.1L132.3,49.1z M130.9,49.3l6.8,9.7l-12.1-4.3L130.9,49.3z M125,71.2L120.3,60
			l4.5-4.5L125,71.2z M124.6,72l-7-4.7l2.3-6.5L124.6,72z M109.4,74.9l1.4-5.4l5.4-1.4L109.4,74.9z M108.7,76.4l11,11l-17.7-8.5
			L108.7,76.4z M120,88.2l-13.6,1.4l-4.7-10.1L120,88.2z M96.2,105.1L82,98.7l23.4-8.2L96.2,105.1z M103.6,109.9L99.9,120l-3.1-14
			L103.6,109.9z M104,109.4l-6.7-3.8l21-4.1L104,109.4z M121.3,90.2l2,7l-2.8,2.8L121.3,90.2z M123.9,96.7l-2.3-8l14.1-3.8
			L123.9,96.7z M122.9,87.6l14.9-10l-1.4,6.3L122.9,87.6z M144.9,69.3l5.6,0.4l-10.9,6.2L144.9,69.3z M148.4,61.6l7.3-9l-4.2,15.8
			L148.4,61.6z M147.3,54.7l5.4-6.6l3.1,3.1L147.3,54.7z M142.9,46l7.3,1.5L134,48.4L142.9,46z M144.3,45.6l4.7-1.3l2.8,2.8
			L144.3,45.6z M117,67.2l-5.4,1.4l7.5-7.5L117,67.2z M109.9,70.3l-1.5,5.4l-6.2,2.2L109.9,70.3z M101,79.3l4.8,10.4l-23.4,8.2
			L101,79.3z M96.1,105.7l3.1,14.3L82.3,99.5L96.1,105.7z M104.2,110l14.1-7.8l-17.7,17.7L104.2,110z M137.3,83.3l1.3-6.1l11.1-6.3
			L137.3,83.3z M156,42.5C156,42.5,156,42.5,156,42.5l0.2,0c0,0,0.1,0,0.1,0c1-0.2,1.8,0.7,1.7,1.6c0,0,0,0.1,0,0.1l-0.1,0.2
			c0,0,0,0,0,0l-1.7,6.2l-6.5-6.5L156,42.5z M46.7,153.7c-5.6-5.6-5.8-14.4-0.4-19.7l34.9-34.9l18.2,22l-33,33
			C61.1,159.4,52.3,159.2,46.7,153.7z"/>
	</g>
	<circle fill="none" stroke="#FFFFFF" stroke-miterlimit="10" cx="100.2" cy="100.2" r="99.4"/>
</g>
</svg>
