<?xml version="1.0" encoding="utf-8"?>
<!-- Generator: Adobe Illustrator 18.1.0, SVG Export Plug-In . SVG Version: 6.00 Build 0)  -->
<svg version="1.1" id="Layer_2" xmlns="http://www.w3.org/2000/svg" xmlns:xlink="http://www.w3.org/1999/xlink" x="0px" y="0px"
	 viewBox="0 0 195.7 154.5" enable-background="new 0 0 195.7 154.5" xml:space="preserve">
<path fill="#FFFFFF" d="M163.3,154.5l-38.6-38.6L97.4,88.7H55v0H44.8c0,0-21.8,0-21.8,21.3c0,0,0,0.1,0,0.1c0,0,0,0,0,0
	c0,0.9,0.1,1.8,0.2,2.6c1,10.1,7.3,14.7,12.8,16.9c2.3,1,4.9,1.6,7.6,1.7c0.7,0.1,1.2,0.1,1.2,0.1h9h3.5h40.4v-5.2v-6v-17l23,23.1
	h0.1v5.1v17.8v5.2H57.4h-3.5H43.6c-24.1,0-43.4-20.2-43.4-44.4c0-13,5.6-24.7,14.7-32.9C5.7,69.2,0,57.5,0,44.3
	C0,19.9,20.1,0,44.8,0H56h1.9h63v23l0,0V28v0l-23,23.1V31.6V28v-5H57.9H56H44.8C32.8,23,23,32.6,23,44.3c0,11.9,9.7,21.5,21.8,21.5
	h30h22.6l11-11l16.2-16.2l2.7-2.7l36-35.9h32.4l-77.3,77.3l77.3,77.3H163.3z"/>
</svg>
