<?xml version="1.0" encoding="utf-8"?>
<!-- Generator: Adobe Illustrator 18.1.0, SVG Export Plug-In . SVG Version: 6.00 Build 0)  -->
<svg version="1.1" id="Layer_3" xmlns="http://www.w3.org/2000/svg" xmlns:xlink="http://www.w3.org/1999/xlink" x="0px" y="0px"
	 viewBox="0 0 107.4 84.9" enable-background="new 0 0 107.4 84.9" xml:space="preserve">
<g>
	<linearGradient id="SVGID_1_" gradientUnits="userSpaceOnUse" x1="0.1167" y1="42.4702" x2="107.3823" y2="42.4702">
		<stop  offset="0" style="stop-color:#FFFFFF;stop-opacity:0"/>
		<stop  offset="1" style="stop-color:#FFFFFF"/>
	</linearGradient>
	<path fill="url(#SVGID_1_)" d="M89.6,84.8L68.4,63.6L53.5,48.7H30.3v0h-5.6c0,0-11.9,0-11.9,11.7c0,0,0,0,0,0c0,0,0,0,0,0
		c0,0.5,0,1,0.1,1.5c0.5,5.5,4,8.1,7,9.2c1.3,0.6,2.7,0.9,4.2,1c0.4,0,0.7,0,0.7,0h5h1.9h22.1v-2.9v-3.3v-9.3l12.6,12.6h0v2.8V82
		v2.9H31.6h-1.9H24c-13.2,0-23.8-11.1-23.8-24.3c0-7.1,3.1-13.5,8-18c-5-4.4-8.1-10.8-8.1-18c0-13.4,11-24.3,24.6-24.3h6.1h1h34.5
		v12.6l0,0v2.7v0L53.7,28.1V17.5v-2v-2.7H31.8h-1h-6.1c-6.6,0-11.9,5.2-11.9,11.7c0,6.5,5.3,11.8,11.9,11.8h16.4h12.4l6-6l8.9-8.9
		l1.5-1.5L89.6,0.1h17.8L65,42.5l42.3,42.3H89.6z"/>
	<linearGradient id="SVGID_2_" gradientUnits="userSpaceOnUse" x1="0" y1="42.4702" x2="66.4692" y2="42.4702">
		<stop  offset="0" style="stop-color:#FFFFFF"/>
		<stop  offset="0.8" style="stop-color:#FFFFFF;stop-opacity:0"/>
	</linearGradient>
	<path fill="url(#SVGID_2_)" d="M66.5,0.1h-0.1V0H44.6H33.4H21.1v0.1l0-0.1l-4.9,1.5l0,0.1l-0.1-0.1l-4.8,2.4L11.4,4l-0.1-0.1
		L7.2,7.2l0.1,0.1L7.2,7.2l-2.7,3.2l0.1,0.1l-0.1-0.1l-2.2,3.8l0.1,0.1l-0.1,0l-1.5,4.1l0.1,0l-0.1,0L0,25l0.1,0L0,25l0.4,3.7l0.1,0
		l-0.1,0l1.3,4.5l0.1,0l-0.1,0.1l2.4,4.5l0.1-0.1l-0.1,0.1l4,4.6l-3,3.3l0.1,0.1L5,45.8l-2.2,3.4L3,49.2l-0.1,0l-2,5.1l0.1,0l-0.1,0
		l-0.7,4l0.1,0l-0.1,0l0,4.1l0.1,0l-0.1,0l0.7,4.4l0.1,0l-0.1,0l2.3,5.7l0.1,0l-0.1,0.1l2.8,4l0.1-0.1L6,76.5l3.2,3.1l0.1-0.1
		l-0.1,0.1l4.8,3l0.1-0.1l0,0.1l5.4,1.8l0-0.1l0,0.1l3.5,0.4l0-0.1v0.1h8.2h6.1h8.2h11.8h4.1h4.8v-0.1h0.1v-8.6v-6.8h-0.1l0.1-0.1
		l-4.9-4.9l0,0l-7.7-7.7l-0.1,0.1h-0.1v15.3h-9.7h-4.1h-4.5h-6L23.1,72l-3-0.8l-3.1-1.6l-1.9-1.8l-1.8-3.6l-0.5-2.8l0.1-2.8l0.7-2.9
		l1.1-2l2-2.1l2.8-1.6l3.2-0.9l2.8-0.2l8.1,0h7.2h3.9h5.3h3.4v-0.1l0.1,0l-1.2-4.6L52,40.8l1.6-4.6l-0.1,0v-0.1h-7.4H40h-7.4h-5.3
		L22.9,36l-2.5-0.8l-3.1-1.8l-2.5-2.8L13.4,28L13,22.6l0.9-2.9l2.2-3.1l2.7-2.1l1.8-0.8l2.8-0.7l1.9-0.1h9.8h14.4h4v15.3h0.1
		l0.1,0.1l12.6-12.7l-0.1-0.1h0.1V0.1z M25.3,12.6l-1.9,0.1l-4.2-0.6l7.5-0.9L25.3,12.6z M66.2,83.5l-1-5l1-1.8V83.5z M53.8,12.5
		L53.3,8h7.4L53.8,12.5z M7.7,33.9l-0.9,1.6l-2.5,1.9V32L7.7,33.9z M20.5,6.8l10.6,2.3L17.4,8.2L20.5,6.8z M37.1,4.1l6.3,0.7
		L33.1,9.1L37.1,4.1z M53.4,2.1l1.8-0.8L57,3.7L53.4,2.1z M57.2,4l-3.9,3.6V2.3L57.2,4z M43.6,5l-3.2,5.2l-7.1-0.9L43.6,5z M43.9,5
		l3.5,5.2h-6.7L43.9,5z M53,2.2v5.5l-8.7-2.9L53,2.2z M44,4.6l0.7-4.3l7.9,1.8L44,4.6z M57.4,4.2l3.4,3.6h-7.4L57.4,4.2z M55.5,1.2
		l10.1-0.9l-8.1,3.5L55.5,1.2z M53.1,1.9l-6.6-1.5l8.3,0.8L53.1,1.9z M43.8,4.6l-6.3-0.7l7-3.6L43.8,4.6z M32.8,9.1L31.5,4l1.9-3.7
		L36.8,4L32.8,9.1z M31.3,4.1L32.5,9L21.8,0.5L31.3,4.1z M20.6,6.6L16.7,2l15,7L20.6,6.6z M20.3,6.6L17,8.1L16.4,2L20.3,6.6z
		 M5.6,15.5l-0.9-4.8l3,0.5L5.6,15.5z M7.8,11.5l0.4,9.6l-2.6-5.3L7.8,11.5z M8.2,21.7l-5.3,2.1l2.7-7.7L8.2,21.7z M43.1,38.1
		l3.6,1.7l-7.3,4L43.1,38.1z M48.4,42.8l2.6,4.5l-2.4-1L48.4,42.8z M48.4,46.3l-2.9,0.2l2.6-3.9L48.4,46.3z M45.6,46.1l1.5-5.9
		l1.1,2.1L45.6,46.1z M45.2,46.5l-5.9-2.4l7.5-4.1L45.2,46.5z M26.4,42.6l2.1,1.9l-4.1-0.9L26.4,42.6z M26.7,42.5l8-3.4l-5.7,5.4
		L26.7,42.5z M34.8,39.3l-1.6,3.1l-3.5,1.8L34.8,39.3z M35.3,38.9l3.5,5l-5.3-1.6L35.3,38.9z M26.5,42.3l-1.7-3.5h9.8L26.5,42.3z
		 M26.3,42.4l-2.1,1l0.5-4.3L26.3,42.4z M10.4,38.9l-3.3-3.3l0.8-1.5L10.4,38.9z M11.2,39.3l1.8-3l4.3-0.2L11.2,39.3z M17.6,36.2
		l-2.1,11.5l-4.5-8L17.6,36.2z M11,39.1l0.5-5.9l1.2,2.9L11,39.1z M15.2,47.5l-6.8-5.1l2.4-2.6L15.2,47.5z M17.9,36.2l5.9,7.4
		l-8,4.1L17.9,36.2z M13.2,36l1.8-2.3l2.5,2.1L13.2,36z M12.9,35.9l-1.3-3l3,0.8L12.9,35.9z M10.8,38.8L8.2,28.7l3.1,4L10.8,38.8z
		 M10.5,38.6L8,33.8v-4.7L10.5,38.6z M10.7,39.6l-2.4,2.6L7.2,36L10.7,39.6z M10.7,54L9,57.7L7.6,52L10.7,54z M7.6,51.7l0.7-8.4
		l2.4,10.4L7.6,51.7z M7,67.4l-4-2.5l3.1-3L7,67.4z M6.2,61.6l2.5-3.1l-1.5,8.4L6.2,61.6z M9,58.4l2,3.2L7.4,67L9,58.4z M6.1,61.3
		l-2-4.3l4.6,1.1L6.1,61.3z M2.8,64.6l-2.3-6.1l5.3,3L2.8,64.6z M7,67.6l-3.6,4.5l-0.5-7L7,67.6z M14.2,72.2l3.7,0.3l-6.9,1.8
		L14.2,72.2z M18.4,72.7l-2.9,6.7l-5-4.7L18.4,72.7z M15.1,79.5H9.5l0.8-4.6L15.1,79.5z M15.6,79.7l7.3-2.8l-3.3,7.3L15.6,79.7
		L15.6,79.7z M30.2,78.3l1.9,2.3h-5.2L30.2,78.3z M26.3,80.7l-3,3.7V77L26.3,80.7z M23.3,76.7l4.7-2.3l-1.6,6L23.3,76.7z M32.2,80.9
		l-1,3.7l-4.4-3.7H32.2z M37.5,78.7l4.9,1.6l-4.9,4.3V78.7z M37.3,84.6l-4.7-3.8l4.7-2.1V84.6z M58.8,82.6l-7.5-3.2l8.3-2.3
		L58.8,82.6z M60.8,68.5l3.6,8.5l-3.6-5.9V68.5z M64.8,78.3L60,76.8l0.8-5.3L64.8,78.3z M60.9,68.1l3.5,2l0.5,7.6L60.9,68.1z
		 M60.6,67.7l-4.1-0.6l4.8-2.4L60.6,67.7z M60.5,68v2.9l-4.1-3.4L60.5,68z M59.7,76.7L54,72.3l6.5-1L59.7,76.7z M59.5,76.8l-8.3,2.3
		l2.6-6.8L59.5,76.8z M45.5,84.4l-2.6-4.2l3.6-6.1L45.5,84.4z M46.7,73.9l4.1,5.5l-5.1,5.1L46.7,73.9z M51,79.5l7.5,3.2l-12.5,1.9
		L51,79.5z M59.8,77.6l1.5,6.9l-2.2-1.8L59.8,77.6z M60,77.1l5,1.5l-3.4,5.9L60,77.1z M64.8,71.2l1.4,5l-1,1.8L64.8,71.2z
		 M60.8,67.8l0.7-3l2.8,4.9L60.8,67.8z M56.6,66.8l1.9-2.2h2.5L56.6,66.8z M56.1,67L54,57.5l4.2,7L56.1,67z M56.1,67.4l4.3,3.6
		l-6.4,1L56.1,67.4z M51,79.1l-4.1-5.5l6.7-1.3L51,79.1z M42.9,79.6l1.1-7.2l2.4,1.2L42.9,79.6z M37.6,78.4l2.2-5.8l2.7,7.5
		L37.6,78.4z M32.6,80.5l2.8-7.9l1.9,5.8L32.6,80.5z M32.3,80.5l-1.9-2.4l4.7-5.3L32.3,80.5z M26.7,80.4l1.6-5.9l1.8,3.5L26.7,80.4z
		 M23.2,76.4v-4.2l4.7,1.9L23.2,76.4z M15.7,79.4l2.9-6.7l4.3,3.9L15.7,79.4z M14.5,72l2.5-2.1l1.4,2.5L14.5,72z M10.5,74.3l2.3-4.9
		L14,72L10.5,74.3z M10.2,74.3l-2.8-6.5l5.2,1.4L10.2,74.3z M7.5,67.6l5.6-3.1L12.7,69L7.5,67.6z M7.5,67.3l3.5-5.5l2,2.4L7.5,67.3z
		 M9.2,58.2l3.5,0.4l-1.6,2.7L9.2,58.2z M9.1,58l1.8-3.7l1.8,4.1L9.1,58z M8.4,42.8l7,5.2l-4.5,5.7L8.4,42.8z M23.6,44l-4.1,5.6
		L15.9,48L23.6,44z M28.7,44.8l-3,3.7l-1.5-4.7L28.7,44.8z M33.1,42.7l0.5,5.8l-4.5-3.7L33.1,42.7z M33.4,42.6l5.4,1.6l-4.9,4.2
		L33.4,42.6z M45,46.7l-4,1.8l-1.7-4.2L45,46.7z M48,46.6l-3,1.8l0.4-1.6L48,46.6z M51.1,47.6l-1,0.9l-1.2-1.8L51.1,47.6z
		 M48.6,42.6l3.6,1.7l-0.9,3.1L48.6,42.6z M47.3,40l4.2,0.9l-3.1,1.3L47.3,40z M43.4,38l2.7-1.6l0.8,3.2L43.4,38z M39.2,43.7
		l0.9-7.3l2.8,1.6L39.2,43.7z M39,43.8l-3.5-5.1l4.4-2.3L39,43.8z M25.4,38.6l7.1-2.2l2.4,2.2H25.4z M23.9,43.2l-3.3-7.4l3.9,3
		L23.9,43.2z M23.5,42.8L18,36l2.2-0.5L23.5,42.8z M15.2,33.7H17l0.5,1.9L15.2,33.7z M11.7,32.6l2.8-1.7l0.2,2.4L11.7,32.6z
		 M8.2,28.3l5-0.1l-1.7,4.3L8.2,28.3z M8.8,28l3.1-0.9l1.1,0.9L8.8,28z M7.9,28l-4.6-3.6l8.1,2.5L7.9,28z M3.1,24l5.3-2.1l3.2,4.7
		L3.1,24z M8.1,11.3l5.6,4.9l-5.1,5.3L8.1,11.3z M8.4,11.3l9.9,3l-4.5,1.8L8.4,11.3z M8.3,11l8.5-2.6l1.7,3.6l0,2.1L8.3,11z
		 M8.2,10.8l3.3-6.7l5.2,4.1L8.2,10.8z M17.1,8.5l14.9,1l-5.1,1.5l-8.2,1L17.1,8.5z M32.3,9.6l-1.8,1.9l-3-0.5L32.3,9.6z M32.7,9.6
		l2.2,3l-4.1-1L32.7,9.6z M33,9.5l7,0.9l-4.8,2.2L33,9.5z M47.6,10.4l1.7,2.1l-7.9-2.1H47.6z M47.7,10.2L44.2,5l8.7,3l-3.3,4.6
		L47.7,10.2z M61,16.2L54.3,27L61,8.6V16.2z M61.2,8.3l4.9,7.1l-4.9,0.7V8.3z M61.1,7.7L57.6,4L66,0.4L61.1,7.7z M55.3,1l-7.9-0.7
		h16.1L55.3,1z M37,3.8l-3.4-3.6h10.4L37,3.8z M31.3,3.8l-9.5-3.6h11.4L31.3,3.8z M31.8,8.8L16.6,1.6l4.5-1.4L31.8,8.8z M16.8,8
		l-5.1-4l4.5-2.2L16.8,8z M8,10.6L7.4,7.3L11,4.4L8,10.6z M7.8,10.9l-3-0.5l2.4-2.8L7.8,10.9z M5.4,15.6l-2.8-1.4l2-3.4L5.4,15.6z
		 M2.7,23.6L1,18.5l4.3-2.4L2.7,23.6z M7.6,28l-6.9,0.6l2-4.4L7.6,28z M7.8,28.3v5.4l-3.5-2l-3.5-2.8L7.8,28.3z M4.1,37.3l-2.1-4
		L4.1,32V37.3z M6.9,35.9L8,42l-3.6-4.3L6.9,35.9z M7.4,51.2l-2.1-5.3l2.8-3L7.4,51.2z M7.2,51.4l-4-2.3l1.9-3L7.2,51.4z M8.7,57.9
		l-4.7-1.2L7.4,52L8.7,57.9z M5.8,61.3l-5.2-3L3.8,57L5.8,61.3z M2.4,64.4l-2-2.1l0-3.3L2.4,64.4z M3.1,71.7l-2-4.9l1.5-1.6
		L3.1,71.7z M7.1,67.8l2.9,6.6l-6.5-2L7.1,67.8z M9.2,79.3l-2.9-2.8l3.7-1.6L9.2,79.3z M15.2,79.7L15.2,79.7l-1.1,2.7l-4.4-2.7H15.2
		z M15.4,79.9l3.7,4.2l-4.9-1.6L15.4,79.9z M23,77.2v7.5l-3.2-0.4L23,77.2z M26.5,80.9l4.5,3.8h-7.6L26.5,80.9z M32.4,81l4.6,3.7
		h-5.6L32.4,81z M42.7,80.4l2.7,4.3h-7.6L42.7,80.4z M58.6,82.9l-1.3,1.7H47.2L58.6,82.9z M59,83l2.2,1.7h-3.5L59,83z M65.1,78.8
		l1.1,5.9h-4.5L65.1,78.8z M64.7,70.1l1.5-0.5v5.7L64.7,70.1z M64.6,69.9L62,65.2l4.1,4.1L64.6,69.9z M58.4,64.4l-4.1-6.8l6.7,6.8
		H58.4z M55.9,67.2l-2.1,4.4V57.9L55.9,67.2z M46.6,73.4l-2.2-1.1h8L46.6,73.4z M42.7,79.7L40,72.3h3.8L42.7,79.7z M37.4,78.1
		l-1.9-5.8h4.1L37.4,78.1z M30.2,77.9l-1.9-3.7l1.1-1.9h5.7L30.2,77.9z M28.2,74l-4.4-1.8l5.3,0.1L28.2,74z M23,76.4l-4.2-3.9l1.4-1
		l2.9,0.7V76.4z M18.6,72.3L17.3,70l2.5,1.3L18.6,72.3z M14.2,71.9l-1.3-2.7l2.2-1.2l1.7,1.7L14.2,71.9z M12.9,68.9l0.4-4.3l1.6,3.2
		L12.9,68.9z M11.3,61.7l1.3-0.2l0.4,2.3L11.3,61.7z M12.6,61.2l-1.3,0.2l1.4-2.4L12.6,61.2z M12.8,58.1l-1.7-3.8l2.3,1.3L12.8,58.1
		z M13.6,55.4l-2.3-1.3l3.2-0.4L13.6,55.4z M14.6,53.4l-3.5,0.4l4.4-5.6l1,3.2L14.6,53.4z M15.8,48.2l3.5,1.6l-2.5,1.4L15.8,48.2z
		 M23.7,44.2l-1,4.6l-2.8,0.8L23.7,44.2z M24,44.1l1.4,4.5L23,48.8L24,44.1z M28.9,44.9l4.5,3.7l-7.5,0L28.9,44.9z M39,44.4l1.7,4.2
		h-6.6L39,44.4z M45.1,46.9l-0.4,1.7h-3.2L45.1,46.9z M48.5,46.6l1.3,2h-4.6L48.5,46.6z M51.4,47.7l1.7,0.9h-2.6L51.4,47.7z
		 M51.5,47.5l0.8-2.9l1,3.9L51.5,47.5z M48.6,42.3l3.2-1.3l0.4,2.9L48.6,42.3z M51.8,40.7l-4.4-0.9l5.9-3.3L51.8,40.7z M47.1,39.6
		l-0.8-3.3H53L47.1,39.6z M43.1,37.8l-2.6-1.5h5.2L43.1,37.8z M35.3,38.5l-2.4-2.2h6.6L35.3,38.5z M25.1,38.4l2.2-2.1h4.5L25.1,38.4
		z M24.6,38.5l-1.6-2.2l3.9,0L24.6,38.5z M24.1,38.1l-3.2-2.4l1.9,0.6L24.1,38.1z M17.9,35.8l-0.5-1.9l2.6,1.5L17.9,35.8z M15,33.4
		l-0.2-2.3l2.1,2.3H15z M11.7,32.4l1.6-4l1.1,2.4L11.7,32.4z M12,26.9l0.8-3.5l0.3,4.4L12,26.9z M12.8,22.5l-0.9,4.1l-3.3-4.8l5-2
		L12.8,22.5l0.1,0L12.8,22.5z M13.7,19.5l-4.8,2l5-5.1l1.9,0.2L13.7,19.5z M15.9,16.3l-1.6-0.1l3.6-1.4L15.9,16.3z M18.8,12.3
		l1.5,1.2l-1.4,0.7L18.8,12.3z M19.3,12.4l3.4,0.5l-2.2,0.5L19.3,12.4z M27,11.2l3.6,0.6l3.6,0.8h-8.5L27,11.2z M40.4,10.4l8.2,2.2
		H35.8L40.4,10.4z M53,8.2l0.5,4.4h-3.7L53,8.2z M53.9,12.8l7-4.6l-7,19.3V12.8z M61.2,16.3l4.8-0.7L54.4,27.3L61.2,16.3z M61.3,7.9
		l4.9-7.3v14.5L61.3,7.9z M2.4,14.5l2.8,1.4l-4.1,2.3L2.4,14.5z M0.9,19l1.6,5l-2.3,0.9L0.9,19z M0.3,25.1l2.2-0.8l-1.9,4L0.3,25.1z
		 M0.7,29.1L4,31.7l-2.1,1.4L0.7,29.1z M3.1,49.4l4.2,2.4l-3.4,4.9l-2.7-2.4L3.1,49.4z M1.1,54.5l2.6,2.3l-3.2,1.3L1.1,54.5z
		 M0.5,62.7l2.1,2.1l-1.5,1.6L0.5,62.7z M3.6,72.7l6.2,2l-3.7,1.6L3.6,72.7z"/>
</g>
</svg>
