<?xml version="1.0" encoding="utf-8"?>
<!-- Generator: Adobe Illustrator 18.1.0, SVG Export Plug-In . SVG Version: 6.00 Build 0)  -->
<svg version="1.1" id="Layer_1" xmlns="http://www.w3.org/2000/svg" xmlns:xlink="http://www.w3.org/1999/xlink" x="0px" y="0px"
	 viewBox="0 0 200 200" enable-background="new 0 0 200 200" xml:space="preserve">
<g>
	<circle fill="none" stroke="#FFFFFF" stroke-miterlimit="10" cx="100.2" cy="100.2" r="99.4"/>
	<g>
		
			<linearGradient id="SVGID_1_" gradientUnits="userSpaceOnUse" x1="10.9702" y1="26.099" x2="10.9702" y2="170.7665" gradientTransform="matrix(0.7071 0.7071 -0.7071 0.7071 167.8239 15.2616)">
			<stop  offset="0.2366" style="stop-color:#FFFFFF;stop-opacity:0"/>
			<stop  offset="1" style="stop-color:#FFFFFF"/>
		</linearGradient>
		<path fill="url(#SVGID_1_)" d="M155.2,133.9c0.9-1.6,1.4-3.6,1.4-5.6c0-6-4.9-10.9-10.9-10.9c-3.8,0-7.1,2-9.1,4.9v0
			c-8,11.4-21.2,18.5-35.6,18.5c-24,0-43.5-19.4-43.5-43.3c0-23.9,19.5-43.3,43.5-43.3c13.7,0,26.8,6.6,35,17.7l1.3,1.8l-9.7,9
			l-0.2,0.3c-0.2,0.3-0.3,0.7-0.3,1.1c0,1.1,0.9,2,2,2l0,0l33.8,0l0,0c1.1,0,2-0.9,2-2l0-34.2l0,0c0-1.1-0.9-2-2-2
			c-0.8-0.1-1.5,0.7-1.5,0.7l-8.8,9.2l-1.8-2.2c-12.5-14.8-30.6-23.3-49.9-23.3c-36,0-65.3,29.2-65.3,65.1
			c0,35.9,29.4,65.1,65.4,65.1C123,162.7,143.3,151.6,155.2,133.9"/>
		
			<linearGradient id="SVGID_2_" gradientUnits="userSpaceOnUse" x1="10.9799" y1="171.0842" x2="10.9799" y2="25.7791" gradientTransform="matrix(0.7071 0.7071 -0.7071 0.7071 167.8239 15.2616)">
			<stop  offset="0.3873" style="stop-color:#FFFFFF;stop-opacity:0"/>
			<stop  offset="1" style="stop-color:#FFFFFF"/>
		</linearGradient>
		<path fill="url(#SVGID_2_)" d="M155.5,134.1L155.5,134.1c0.9-1.6,1.4-3.6,1.4-5.8c0-6.2-5-11.2-11.2-11.2c-3.8,0-7.3,1.9-9.3,5.1
			l0,0.1c-8.1,11.5-21.3,18.3-35.3,18.3c-23.8,0-43.1-19.3-43.1-42.9c0-23.7,19.4-43,43.1-43c2.3,0,4.6,0.2,6.8,0.6l3.1,0.6v0
			c9.8,2.3,18.7,8.1,24.8,16.4l1.2,1.6l-9.5,8.9l-0.2,0.3c-0.2,0.4-0.4,0.8-0.4,1.2c0,1.1,0.9,2.2,2.1,2.3l0,0l33.8,0l0.1,0
			c1.3,0,2.3-1,2.3-2.3l0-33.9h0l0-0.3c0-1.3-1-2.3-2.2-2.3c-0.9-0.2-1.8,0.8-1.8,0.8l-8.6,9l-1.6-1.9
			c-12.5-14.9-30.8-23.4-50.1-23.4C85,32.3,69.9,37.9,58,48.2l-0.2,0l0,0.2c-1.2,1-2.3,2-3.4,3.1C42,63.8,35.2,80.2,35.2,97.7
			c0,18,7.3,34.2,19.1,46.1c11.9,11.9,28.4,19.3,46.6,19.3C122.9,163,143.3,152.2,155.5,134.1z M50.8,78.2l5.2-12l4.5,13.1
			L50.8,78.2z M164.2,70.6L152,66.8l7.6-4.9L164.2,70.6z M163.8,71.1l-16.7,5.7l4.3-9.6L163.8,71.1z M137.1,74.6l0.1,7.1l-7.1-0.7
			L137.1,74.6z M137.7,74.4l8.1,3.1l-8,4.1L137.7,74.4z M145,78.6l-6.8,6.9l-0.4-3.3L145,78.6z M146.6,77.8l8.9,3.9l-7.1,4.2l-9.7,0
			L146.6,77.8z M156.1,82.1l1.9,3.8l-8.3,0L156.1,82.1z M147.4,77.4l16.5-5.7l-7.8,9.5L147.4,77.4z M160,61.4l4.5-9.9l0,18.3
			L160,61.4z M151.7,66.2l1.1-7.7l6.2,2.9L151.7,66.2z M146.8,76.2l-1.7-17.2l5.8,8L146.8,76.2z M98.5,41.9l24.7-4.8l-0.9,12.8
			L98.5,41.9z M121.7,50.3l-10.7,4.9L98.4,42.5L121.7,50.3z M71,64.8l-0.8-8.1l16.4-4.9L71,64.8z M70.4,65.1l-13.2,0L69.6,57
			L70.4,65.1z M70.3,56l6.1-18l11,12.9L70.3,56z M97.2,42.2L110,55c-0.7-0.1-1.4-0.3-2.1-0.4l-19.3-3.8L97.2,42.2z M88.2,50.3
			l-0.4-15.7l8.9,7.2L88.2,50.3z M122.4,50.7l6.9,13.8c-5.1-4.3-11-7.4-17.4-9L122.4,50.7z M123.2,50.8l20.7,7.1l-13.4,7.5
			L123.2,50.8z M122.9,50.1l0.9-12.6l19.7,19.7L122.9,50.1z M97.7,41.4l3.3-8.4c7.3,0,14.5,1.3,21.3,3.7L97.7,41.4z M97.1,41.3
			l-8.8-7.1c3.9-0.8,8-1.2,12.1-1.2L97.1,41.3z M87.6,50.2L76.8,37.5c3.4-1.3,6.8-2.4,10.4-3.1L87.6,50.2z M69.7,56l-10.8-7.7
			c5.1-4.4,10.8-7.8,16.9-10.4L69.7,56z M69.3,56.5l-12.8,8.3l1.9-16L69.3,56.5z M55.5,66.1l-5.3,12l-9.3-4.6L55.5,66.1z M40.8,72.8
			c1.4-3.3,3-6.4,4.9-9.4l9.4,2.2L40.8,72.8z M61.1,79.9l0-0.2l0.1,0C61.1,79.8,61.1,79.9,61.1,79.9z M61.3,79.5l-4.7-13.7l14.2,0
			l0-0.3l0.2,0.2l16.2-13.6l-2,4.9C74.6,61.2,66,69.2,61.3,79.5z M101,54.1c-5.3,0-10.3,1-15,2.7l2.1-5.3l13.7,2.7
			C101.5,54.1,101.3,54.1,101,54.1z M136.3,71.9c-1.6-2.2-3.4-4.2-5.4-6l13.5-7.6l1.8,18.6l-8.6-3.3L136.3,71.9z M129.3,85.9
			L129.3,85.9l-0.2,0c-0.9,0-1.6-0.7-1.6-1.6c0-0.3,0.1-0.6,0.2-0.9l0.2-0.2l1.6-1.5l7.7,0.8l0.4,3.5L129.3,85.9z M163,85.9l-4.2,0
			l-2.1-4.2l8-9.7l0,12.2C164.5,85.1,163.8,85.9,163,85.9z M162.9,48.4c0.9,0,1.6,0.7,1.6,1.5l0,0l-5,11l-6.5-3l8.5-8.9
			C161.8,48.8,162.4,48.3,162.9,48.4z M152.2,58.1l-1.1,7.9l-6-8.2l3.7-3.7c0.6,0.6,1.2,1.2,1.7,1.9L152.2,58.1z M146.7,51.9
			c0.6,0.6,1.1,1.2,1.6,1.8l-3.7,3.7l-19.8-19.8C132.9,40.8,140.4,45.6,146.7,51.9z M57.7,49.3L55.8,65l-9.7-2.2
			c2.5-3.9,5.4-7.5,8.8-10.9C55.8,51,56.8,50.1,57.7,49.3z M101,162.4c-35.9,0-65.1-29-65.1-64.7c0-8.3,1.6-16.3,4.5-23.8l9.8,4.9
			l0.1-0.3l0,0.3L61,80.1c-2.4,5.4-3.7,11.3-3.7,17.6c0,24,19.6,43.6,43.8,43.6c14.3,0,27.7-7,35.9-18.7l0.1-0.1l0,0
			c2-2.9,5.2-4.7,8.7-4.7c5.8,0,10.6,4.7,10.6,10.6c0,2.1-0.5,4-1.3,5.4l0,0C142.8,151.7,122.6,162.4,101,162.4z"/>
	</g>
</g>
</svg>
