<?xml version="1.0" encoding="utf-8"?>
<!-- Generator: Adobe Illustrator 18.1.0, SVG Export Plug-In . SVG Version: 6.00 Build 0)  -->
<svg version="1.1" id="Layer_1" xmlns="http://www.w3.org/2000/svg" xmlns:xlink="http://www.w3.org/1999/xlink" x="0px" y="0px"
	 viewBox="0 0 200 200" enable-background="new 0 0 200 200" xml:space="preserve">
<g>
	<g>
		
			<linearGradient id="SVGID_1_" gradientUnits="userSpaceOnUse" x1="8.4914" y1="30.4518" x2="8.4914" y2="189.3527" gradientTransform="matrix(0.7071 0.7071 -0.7071 0.7071 167.8239 15.2616)">
			<stop  offset="0.2366" style="stop-color:#FFFFFF;stop-opacity:0"/>
			<stop  offset="1" style="stop-color:#FFFFFF"/>
		</linearGradient>
		<path fill="url(#SVGID_1_)" d="M152.3,42.8c-16-16-41.9-16.1-57.8-0.1C82,55.2,79.3,73.8,86.5,89l-0.6,0.6l-46,46
			c-5.4,5.4-5.4,14.2,0,19.6c5.4,5.4,14.2,5.5,19.6,0c0,0,46.6-46.6,46.6-46.6c15.2,7.2,33.8,4.5,46.3-8
			C168.4,84.7,168.3,58.8,152.3,42.8z M106.1,88.9c-9.7-9.7-9.7-25.3-0.1-34.9s25.2-9.5,34.9,0.1s9.7,25.3,0.1,34.9
			S115.8,98.6,106.1,88.9z"/>
		
			<linearGradient id="SVGID_2_" gradientUnits="userSpaceOnUse" x1="8.4918" y1="189.6691" x2="8.4918" y2="30.1349" gradientTransform="matrix(0.7071 0.7071 -0.7071 0.7071 167.8239 15.2616)">
			<stop  offset="0.3873" style="stop-color:#FFFFFF;stop-opacity:0"/>
			<stop  offset="1" style="stop-color:#FFFFFF"/>
		</linearGradient>
		<path fill="url(#SVGID_2_)" d="M159.4,91.9L159.4,91.9L159.4,91.9c8.8-15.7,6.5-36-6.9-49.4c-0.6-0.6-1.3-1.2-2-1.8l0,0l0,0
			c-16.2-14.2-40.9-13.7-56.2,1.7c-12.2,12.2-15.4,30.8-8.1,46.5l-46.4,46.4c-5.5,5.5-5.5,14.5,0,20.1c5.5,5.5,14.5,5.6,20.1,0
			l46.4-46.4c15.7,7.3,34.3,4,46.5-8.1C155.4,98.1,157.6,95.1,159.4,91.9z M152.2,100.4c-1.6,1.6-3.4,3.1-5.2,4.4l-0.9-3.1l12-8.8
			C156.5,95.6,154.5,98.1,152.2,100.4z M88.5,120L88.5,120L88.5,120L88.5,120z M102.4,84.9c0.7,1.1,1.5,2.2,2.4,3.2l7.5,10.1
			l-12.2-6.6L102.4,84.9z M105.4,87.7l-2.7-3.6C97.4,75.4,98,64,104.6,56l2.1-2.2c7.3-6.9,17.9-8.4,26.7-4.4l2.2,1.1
			c1.8,1,3.5,2.3,5,3.8c9.5,9.5,9.6,25,0.1,34.4c-9.5,9.5-24.9,9.4-34.4-0.1C106,88.4,105.7,88,105.4,87.7z M133.7,48.9l-10.6-5.5
			l0.1-4.9l11,10.6C134,49,133.9,48.9,133.7,48.9z M129.5,47.4c-3.1-0.8-6.3-1-9.5-0.5l2.9-2.9L129.5,47.4z M141,89.4l6.2,2.9
			l-13.8,2.2C136.2,93.3,138.8,91.6,141,89.4z M147.2,86.3l0.7,5.7l-6.2-2.9L147.2,86.3z M147.8,85.9l6.5-7.7l-5.9,13.1L147.8,85.9z
			 M147.3,85.5l-4.9,2.5c4.4-5.1,6.4-11.6,6-17.9l6.7,6.2L147.3,85.5z M141.1,53.9c-0.2-0.2-0.3-0.3-0.5-0.5l9.9,5.9l-2.3,8.5
			C147.3,62.7,145,57.8,141.1,53.9z M136.4,50.3l0.2-8.6L149.5,58L136.4,50.3z M135.8,49.7L124,38.3L136,41L135.8,49.7z M122.5,43.3
			l-10.3,0.9l10.4-5.8L122.5,43.3z M122,44l-3,3c-4.1,0.7-8.1,2.5-11.4,5.2l3.4-7.3L122,44z M99.7,63.9L99.7,63.9l-0.1-0.3l-3.1,1.1
			l5.4-5.7C100.9,60.5,100.2,62.2,99.7,63.9z M99,64.5l-4.5,8.7l1.1-7.5L99,64.5z M94.3,74.9l4.9-9.6c-1.4,5.6-0.8,11.5,1.7,16.8
			L94.3,74.9z M107.8,90.8c4.7,3.8,10.5,5.7,16.2,5.6l-10.1,2.4l-0.6-0.4l0.2-0.2L107.8,90.8z M127.6,96.3l-14.4,7.8l0.9-4.5
			L127.6,96.3z M147,93l-13.5,10.1l-3.2-7.4L147,93z M147.7,93.3l-2.2,8l-10.8,1.8L147.7,93.3z M155.4,77.2l3.4,14.2l-10,0.7
			L155.4,77.2z M148.4,69.2l2.4-8.9l4.1,14.9L148.4,69.2z M150.7,58.5l-12-15.2l13.2,11.6L150.7,58.5z M152.4,55.4l9.9,10.7l-11.1-7
			L152.4,55.4z M123.1,37.5l-3.3-5.7l14.5,8.2L123.1,37.5z M111,44.1l-2.5-10l13.6,3.8L111,44.1z M106.5,52.8l-6-8.4l9.7,0.4
			L106.5,52.8z M106.2,53.4c-0.1,0.1-0.3,0.3-0.4,0.4c-0.6,0.6-1.1,1.1-1.6,1.7l-8.3,8.8l4.2-19.5L106.2,53.4z M93.7,74.6l-5.8-1.3
			l7-7L93.7,74.6z M93.8,75.2l6.3,6.9l-11.4-8.1L93.8,75.2z M99.5,91.4l-8.9,2.9l11.1-9.3L99.5,91.4z M99.1,92.2l-8.7,15.7l-1-12.5
			L99.1,92.2z M89.9,108.8l-12.5,3.1l11.5-15.8L89.9,108.8z M94.6,115l-3.8-5.7l14.1-0.3L94.6,115z M94.1,115.4l-5.2,3.9l1.5-9.4
			L94.1,115.4z M90.8,108.7l9-16.2l6,15.9L90.8,108.7z M113.4,99.4l-0.9,4.5l-11-11L113.4,99.4z M129.7,95.8l3.2,7.4l-18.9,1
			L129.7,95.8z M145.5,101.9l0.9,3.1l-10.8-1.4L145.5,101.9z M148.5,92.8l9.6-0.7l-11.8,8.7L148.5,92.8z M155.9,76.7l7.5,1.8
			c-0.7,4.3-2.1,8.4-4.1,12.3L155.9,76.7z M151.3,59.9l12.3,7.8l-8,8L151.3,59.9z M152.9,54.9l6.8-1.4c2.1,4.1,3.4,8.6,4,13.1
			L152.9,54.9z M137.2,41.1l12.9,0.2l1.7,12.6L137.2,41.1z M136.6,40.5l-0.1-3.3l11.6,3.5L136.6,40.5z M135.9,37l0.1,3.3l-14-7.9
			L135.9,37z M118.8,31.3l3.4,5.9l-13.2-3.6C112.3,32.5,115.5,31.7,118.8,31.3z M110.3,44.2l-9.8-0.4l7.3-9.4L110.3,44.2z
			 M99.4,44.8l-4.3,19.8L88,51.9L99.4,44.8z M94.7,65l-11.1-1.1c0.7-4,2.1-7.8,4-11.4L94.7,65z M94.6,65.7l-7.3,7.3l-3.6-8.3
			L94.6,65.7z M101.2,83.7l-16.7-1.6l2.9-8.1L101.2,83.7z M89.2,94.7l-2.3-5.5l14-4.3L89.2,94.7z M86.1,89.8l0.3-0.3l2.3,5.5
			l-13.3,5.4L86.1,89.8z M88.2,95.9l-11.4,15.7l-2.3-10.1L88.2,95.9z M89.8,109.4l-1.6,10.1l-10.9-7L89.8,109.4z M93.8,116.4L91,123
			l-2.1-2.9L93.8,116.4z M94.8,115.7l9.4-5.5L92,122.3L94.8,115.7z M100.6,92.9l11.6,11.6l-5.9,3.6L100.6,92.9z M133.1,103.9
			l-0.8,7.3l-17.9-6.3L133.1,103.9z M133.7,103.9l12.2,1.6c-4,2.6-8.4,4.5-13,5.6L133.7,103.9z M163.5,77.8l-7.4-1.7l7.7-7.7
			C164.1,71.5,164,74.7,163.5,77.8z M159.4,53l-6.9,1.4l-1.7-12.4c0.4,0.4,0.8,0.7,1.2,1.1C155.1,46,157.5,49.4,159.4,53z M137,36.7
			l3.4-1.7c3,1.4,5.9,3.2,8.6,5.4L137,36.7z M139.7,34.6l-3.5,1.8l-15.5-5.2C127.1,30.8,133.7,31.9,139.7,34.6z M107,34.5l-7.3,9.3
			l-11.2,7c1.7-2.9,3.7-5.6,6.2-8C98.3,39.2,102.5,36.5,107,34.5z M83.4,65.4l3.5,8.1l-2.8,7.8C82.8,76,82.6,70.6,83.4,65.4z
			 M84.5,82.7l16.3,1.6l-14.1,4.3C85.8,86.7,85,84.7,84.5,82.7z M40.2,154.9c-5.3-5.3-5.3-13.9,0-19.2L73.9,102l2.4,10.5l0.3-0.1
			l-0.2,0.3l11.8,7.6l2.5,3.4L59.3,155C54.1,160.3,45.5,160.2,40.2,154.9z M106.8,108.6l5.9-3.6l18.5,6.5
			C123.2,113,114.6,112.1,106.8,108.6z"/>
	</g>
	<circle fill="none" stroke="#FFFFFF" stroke-miterlimit="10" cx="100.1" cy="100.1" r="99.3"/>
</g>
</svg>
