<?xml version="1.0" encoding="utf-8"?>
<!-- Generator: Adobe Illustrator 18.1.0, SVG Export Plug-In . SVG Version: 6.00 Build 0)  -->
<svg version="1.1" id="Layer_1" xmlns="http://www.w3.org/2000/svg" xmlns:xlink="http://www.w3.org/1999/xlink" x="0px" y="0px"
	 viewBox="0 0 200 200" enable-background="new 0 0 200 200" xml:space="preserve">
<g>
	<g>
		
			<linearGradient id="SVGID_1_" gradientUnits="userSpaceOnUse" x1="8.4203" y1="30.1898" x2="8.4203" y2="189.6284" gradientTransform="matrix(0.7071 0.7071 -0.7071 0.7071 167.8239 15.2616)">
			<stop  offset="0.2366" style="stop-color:#FFFFFF;stop-opacity:0"/>
			<stop  offset="1" style="stop-color:#FFFFFF"/>
		</linearGradient>
		<path fill="url(#SVGID_1_)" d="M152.4,42.6c-16.1-16.1-42-16.1-58-0.1c-12.5,12.5-15.2,31.2-8,46.5l-0.6,0.6l-46.1,46.1
			c-5.4,5.4-5.4,14.2,0.1,19.7c5.4,5.4,14.3,5.5,19.7,0c0,0,46.8-46.8,46.8-46.8c15.2,7.2,33.9,4.5,46.5-8
			C168.6,84.6,168.5,58.6,152.4,42.6z M106.1,88.8c-9.7-9.7-9.8-25.4-0.1-35s25.3-9.6,35,0.1s9.8,25.4,0.1,35S115.8,98.5,106.1,88.8
			z"/>
		
			<linearGradient id="SVGID_2_" gradientUnits="userSpaceOnUse" x1="8.4207" y1="189.9458" x2="8.4207" y2="29.8718" gradientTransform="matrix(0.7071 0.7071 -0.7071 0.7071 167.8239 15.2616)">
			<stop  offset="0.3873" style="stop-color:#FFFFFF;stop-opacity:0"/>
			<stop  offset="1" style="stop-color:#FFFFFF"/>
		</linearGradient>
		<path fill="url(#SVGID_2_)" d="M159.5,91.9L159.5,91.9L159.5,91.9c8.8-15.8,6.5-36.1-6.9-49.5c-0.7-0.7-1.3-1.2-2-1.8l0,0l0,0
			c-16.3-14.2-41-13.7-56.4,1.7C82,54.4,78.7,73.1,86,88.8l-46.6,46.6c-5.5,5.5-5.5,14.6,0.1,20.1s14.6,5.6,20.1,0l46.6-46.6
			c15.7,7.3,34.4,4,46.6-8.2C155.5,98.1,157.7,95.1,159.5,91.9z M152.4,100.4c-1.6,1.6-3.4,3.1-5.2,4.4l-0.9-3.1l12-8.8
			C156.6,95.5,154.7,98.1,152.4,100.4z M88.4,120L88.4,120L88.4,120L88.4,120z M102.4,84.8c0.7,1.1,1.5,2.2,2.5,3.2l7.5,10.1
			l-12.3-6.7L102.4,84.8z M105.4,87.6l-2.7-3.6c-5.3-8.8-4.7-20.1,1.9-28.2l2.1-2.2c7.3-6.9,18-8.4,26.8-4.4l2.2,1.2
			c1.8,1,3.5,2.3,5,3.8c9.6,9.6,9.6,25.1,0.1,34.5s-25,9.4-34.5-0.1C106,88.3,105.7,87.9,105.4,87.6z M133.8,48.6l-10.6-5.5l0.1-4.9
			l11,10.6C134.1,48.8,133.9,48.7,133.8,48.6z M129.5,47.1c-3.1-0.8-6.3-1-9.5-0.6l2.9-2.9L129.5,47.1z M141.1,89.3l6.2,2.9
			l-13.8,2.2C136.3,93.3,138.9,91.6,141.1,89.3z M147.3,86.2l0.7,5.7l-6.2-2.9L147.3,86.2z M147.9,85.8l6.5-7.7l-5.9,13.1
			L147.9,85.8z M147.4,85.4l-4.9,2.5c4.4-5.1,6.5-11.6,6-18l6.7,6.2L147.4,85.4z M141.2,53.7c-0.2-0.2-0.4-0.3-0.5-0.5l9.9,5.9
			l-2.3,8.5C147.4,62.6,145.1,57.7,141.2,53.7z M136.5,50l0.2-8.6l12.9,16.4L136.5,50z M135.8,49.5L124,38.1l12.1,2.7L135.8,49.5z
			 M122.5,43l-10.3,0.9l10.4-5.8L122.5,43z M122,43.7l-3,3c-4.1,0.7-8.1,2.5-11.5,5.3l3.4-7.3L122,43.7z M99.6,63.8L99.6,63.8
			l-0.1-0.3l-3.1,1.1l5.4-5.8C100.9,60.4,100.2,62,99.6,63.8z M98.9,64.3L94.5,73l1.1-7.5L98.9,64.3z M94.3,74.8l5-9.7
			c-1.4,5.6-0.8,11.6,1.7,16.9L94.3,74.8z M107.7,90.8c4.7,3.9,10.5,5.7,16.3,5.7l-10.2,2.5l-0.7-0.4l0.2-0.2L107.7,90.8z
			 M127.6,96.2l-14.5,7.8l0.9-4.5L127.6,96.2z M147.2,92.9L133.6,103l-3.2-7.4L147.2,92.9z M147.8,93.2l-2.2,8l-10.9,1.8L147.8,93.2
			z M155.6,77.1l3.4,14.2L148.9,92L155.6,77.1z M148.5,69.1l2.4-8.9l4.1,15L148.5,69.1z M150.8,58.3l-12-15.3L152,54.6L150.8,58.3z
			 M152.5,55.2l9.9,10.8l-11.1-7.1L152.5,55.2z M123.2,37.3l-3.3-5.7l14.5,8.2L123.2,37.3z M111,43.9l-2.5-10l13.7,3.8L111,43.9z
			 M106.5,52.6l-6-8.4l9.8,0.4L106.5,52.6z M106.2,53.2c-0.1,0.1-0.3,0.3-0.4,0.4c-0.6,0.6-1.1,1.1-1.6,1.7l-8.4,8.9l4.2-19.6
			L106.2,53.2z M93.6,74.4l-5.8-1.3l7-7L93.6,74.4z M93.7,75.1l6.4,6.9L88.6,74L93.7,75.1z M99.5,91.4l-9,3l11.2-9.3L99.5,91.4z
			 M99.1,92.2l-8.7,15.7l-1-12.6L99.1,92.2z M89.8,108.7l-12.6,3.1L88.8,96L89.8,108.7z M94.6,115l-3.8-5.7l14.2-0.3L94.6,115z
			 M94,115.4l-5.2,3.9l1.5-9.5L94,115.4z M90.7,108.7l9-16.3l6,15.9L90.7,108.7z M113.4,99.4l-0.9,4.6l-11-11L113.4,99.4z
			 M129.8,95.8l3.2,7.4l-18.9,1L129.8,95.8z M145.6,101.8l0.9,3.1l-10.8-1.4L145.6,101.8z M148.6,92.7l9.7-0.7l-11.9,8.7L148.6,92.7
			z M156.1,76.6l7.5,1.8c-0.7,4.3-2.1,8.5-4.1,12.4L156.1,76.6z M151.4,59.7l12.4,7.8l-8,8L151.4,59.7z M153,54.7l6.8-1.4
			c2.1,4.2,3.4,8.6,4,13.1L153,54.7z M137.3,40.9l13,0.2l1.7,12.6L137.3,40.9z M136.7,40.2l-0.1-3.3l11.6,3.5L136.7,40.2z M136,36.7
			l0.1,3.3l-14-7.9L136,36.7z M118.8,31.1l3.4,6l-13.2-3.6C112.3,32.2,115.5,31.4,118.8,31.1z M110.3,44l-9.9-0.4l7.4-9.4L110.3,44z
			 M99.4,44.5l-4.3,19.8l-7.2-12.6L99.4,44.5z M94.7,64.9l-11.1-1.1c0.8-4,2.1-7.8,4-11.4L94.7,64.9z M94.5,65.5l-7.3,7.3l-3.6-8.4
			L94.5,65.5z M101.2,83.6L84.4,82l2.9-8.1L101.2,83.6z M89.2,94.6l-2.3-5.5l14.1-4.3L89.2,94.6z M86,89.7l0.3-0.3l2.3,5.5
			l-13.3,5.5L86,89.7z M88.1,95.8l-11.5,15.8l-2.3-10.1L88.1,95.8z M89.8,109.4l-1.6,10.1l-10.9-7L89.8,109.4z M93.7,116.4L91,123
			l-2.1-2.9L93.7,116.4z M94.7,115.7l9.4-5.5L92,122.3L94.7,115.7z M100.6,92.9l11.7,11.7l-5.9,3.6L100.6,92.9z M133.2,103.9
			l-0.9,7.3l-18-6.3L133.2,103.9z M133.8,103.9l12.2,1.6c-4,2.7-8.5,4.5-13.1,5.6L133.8,103.9z M163.7,77.7l-7.4-1.7l7.7-7.7
			C164.3,71.4,164.2,74.6,163.7,77.7z M159.5,52.8l-6.9,1.4L151,41.7c0.4,0.4,0.8,0.7,1.2,1.1C155.2,45.8,157.7,49.2,159.5,52.8z
			 M137.1,36.4l3.4-1.7c3,1.4,6,3.2,8.6,5.4L137.1,36.4z M139.8,34.3l-3.5,1.8l-15.6-5.2C127.2,30.5,133.7,31.7,139.8,34.3z
			 M106.9,34.3l-7.3,9.4l-11.2,7c1.7-2.9,3.8-5.6,6.2-8C98.3,39,102.5,36.2,106.9,34.3z M83.3,65.2l3.5,8.1L84,81.1
			C82.7,75.9,82.5,70.5,83.3,65.2z M84.4,82.6l16.3,1.6l-14.1,4.3C85.7,86.6,84.9,84.6,84.4,82.6z M39.9,155.1
			c-5.3-5.3-5.3-13.9-0.1-19.2l33.9-33.9l2.4,10.5l0.3-0.1l-0.2,0.3l11.9,7.6l2.5,3.4l-31.5,31.5C53.9,160.4,45.2,160.4,39.9,155.1z
			 M106.8,108.6l6-3.6l18.6,6.5C123.2,113,114.7,112.1,106.8,108.6z"/>
	</g>
	<circle fill="none" stroke="#FFFFFF" stroke-width="0.5" stroke-miterlimit="10" cx="100" cy="100" r="99.7"/>
</g>
</svg>
