<?xml version="1.0" encoding="UTF-8"?>
<svg width="3141px" height="329px" viewBox="0 0 3141 329" version="1.1" xmlns="http://www.w3.org/2000/svg" xmlns:xlink="http://www.w3.org/1999/xlink">
    <!-- Generator: Sketch 40.3 (33839) - http://www.bohemiancoding.com/sketch -->
    <title>Group</title>
    <desc>Created with Sketch.</desc>
    <defs></defs>
    <g id="Page-1" stroke="none" stroke-width="1" fill="none" fill-rule="evenodd">
        <g id="Group">
            <g id="Google_2015_logo">
                <path d="M246.11,116.18 L129.54,116.18 L129.54,150.771 L212.213,150.771 C208.1288,199.277 167.773,219.963 129.68,219.963 C80.944,219.963 38.416,181.617 38.416,127.871 C38.416,75.514 78.956,35.192 129.787,35.192 C169.004,35.192 192.113,60.192 192.113,60.192 L216.333,35.111 C216.333,35.111 185.246,0.503 128.549,0.503 C56.352,0.502 0.499,61.436 0.499,127.253 C0.499,191.746 53.038,254.633 130.389,254.633 C198.42,254.633 248.219,208.029 248.219,139.113 C248.219,124.574 246.1081,116.171 246.1081,116.171 L246.11,116.18 Z" id="path2998" fill="#4885ED"></path>
                <path d="M341.6,91.129 C293.768,91.129 259.489,128.524 259.489,172.137 C259.489,216.395 292.738,254.485 342.162,254.485 C386.904,254.485 423.559,220.288 423.559,173.088 C423.559,118.99 380.921,91.129 341.6,91.129 L341.6,91.129 Z M342.07563,123.212 C365.59763,123.212 387.88763,142.229 387.88763,172.872 C387.88763,202.865 365.69263,222.424 341.96763,222.424 C315.89963,222.424 295.33463,201.546 295.33463,172.634 C295.33463,144.342 315.64463,123.212 342.07563,123.212 L342.07563,123.212 Z" id="path3000" fill="#DB3236"></path>
                <path d="M520.18,91.129 C472.348,91.129 438.069,128.524 438.069,172.137 C438.069,216.395 471.318,254.485 520.742,254.485 C565.484,254.485 602.139,220.288 602.139,173.088 C602.139,118.99 559.501,91.129 520.18,91.129 L520.18,91.129 Z M520.65562,123.212 C544.17762,123.212 566.46762,142.229 566.46762,172.872 C566.46762,202.865 544.27262,222.424 520.54762,222.424 C494.47962,222.424 473.91462,201.546 473.91462,172.634 C473.91462,144.342 494.22462,123.212 520.65562,123.212 L520.65562,123.212 Z" id="path3005" fill="#F4C20D"></path>
                <path d="M695.34,91.215 C651.436,91.215 616.926,129.668 616.926,172.828 C616.926,221.991 656.935,254.593 694.583,254.593 C717.862,254.593 730.24,245.3525 739.379,234.746 L739.379,250.852 C739.379,279.032 722.269,295.907 696.443,295.907 C671.494,295.907 658.98,277.356 654.631,266.829 L623.24,279.952 C634.376,303.499 656.794,328.055 696.703,328.055 C740.355,328.055 773.625,300.56 773.625,242.896 L773.625,96.126 L739.38,96.126 L739.38,109.962 C728.85,98.615 714.45,91.217 695.34,91.217 L695.34,91.215 Z M698.518,123.233 C720.043,123.233 742.146,141.613 742.146,173.001 C742.146,204.905 720.09,222.488 698.042,222.488 C674.636,222.488 652.857,203.483 652.857,173.304 C652.857,141.946 675.476,123.233 698.517,123.233 L698.518,123.233 Z" id="path3007" fill="#4885ED"></path>
                <path d="M925.89,91.02 C884.476,91.02 849.703,123.97 849.703,172.59 C849.703,224.037 888.462,254.549 929.868,254.549 C964.426,254.549 985.636,235.643 998.294,218.704 L970.059,199.917 C962.7322,211.288 950.483,222.401 930.041,222.401 C907.079,222.401 896.521,209.827 889.98,197.647 L999.5,152.203 L993.8141,138.885 C983.2341,112.805 958.5541,91.025 925.8941,91.025 L925.89,91.02 Z M927.3168,122.433 C942.2398,122.433 952.9798,130.3672 957.5408,139.88 L884.4018,170.45 C881.2486,146.783 903.6708,122.433 927.3168,122.433 L927.3168,122.433 Z" id="path3011" fill="#DB3236"></path>
                <polygon id="path3015" fill="#3CBA54" points="797.49 249.7 833.465 249.7 833.465 8.95 797.49 8.95"></polygon>
            </g>
            <path d="M1079,248.288267 L1146.23913,248.288267 C1180.01221,248.288267 1207.03067,238.10517 1227.29452,217.738982 C1247.55837,197.372793 1257.69029,170.917213 1257.69029,138.372245 C1257.69029,105.827278 1247.55837,79.3716979 1227.29452,59.0055092 C1207.03067,38.6393206 1180.01221,28.4562239 1146.23913,28.4562239 L1079,28.4562239 L1079,248.288267 Z M1107.24658,221.269803 L1107.24658,55.4746873 L1146.23913,55.4746873 C1171.62011,55.4746873 1191.73045,62.7921862 1206.57013,77.4271888 C1221.40982,92.0621914 1228.82966,112.377207 1228.82966,138.372245 C1228.82966,164.571966 1221.40982,184.938159 1206.57013,199.470816 C1191.73045,214.003473 1171.62011,221.269803 1146.23913,221.269803 L1107.24658,221.269803 Z M1349.79869,253.200715 C1366.17351,253.200715 1379.98977,249.260524 1391.24747,241.380137 C1402.50516,233.49975 1410.59023,223.726027 1415.50268,212.058964 L1390.32638,201.620012 C1383.1624,218.81358 1369.44848,227.410363 1349.18463,227.410363 C1336.69883,227.410363 1325.79933,223.00963 1316.48615,214.20816 C1307.17297,205.406689 1302.10701,193.432597 1301.28827,178.285884 L1420.1081,178.285884 L1420.41513,173.066409 C1420.41513,148.708856 1413.71169,129.263747 1400.30479,114.73109 C1386.8979,100.198433 1369.03911,92.9321024 1346.72841,92.9321024 C1325.23645,92.9321024 1307.58234,100.812489 1293.76608,116.573258 C1279.94982,132.334027 1273.04169,151.16508 1273.04169,173.066409 C1273.04169,196.195849 1280.15451,215.33393 1294.38014,230.480643 C1308.60577,245.627356 1327.07862,253.200715 1349.79869,253.200715 L1349.79869,253.200715 Z M1390.32638,154.951757 L1303.13043,154.951757 C1305.99603,143.898749 1311.26668,135.097279 1318.94238,128.54735 C1326.61808,121.997421 1335.6754,118.722454 1346.11435,118.722454 C1360.44233,118.722454 1371.23948,122.611477 1378.50581,130.389518 C1385.77214,138.167558 1389.71233,146.354973 1390.32638,154.951757 L1390.32638,154.951757 Z M1503.61971,253.200715 C1521.01797,253.200715 1535.2436,248.697636 1546.29661,239.691483 C1557.34961,230.68533 1562.87612,219.427635 1562.87612,205.918404 C1562.87612,195.888821 1559.49881,186.882668 1552.74419,178.89994 C1545.98958,170.917213 1535.55063,165.288368 1521.42734,162.013401 L1491.64562,154.951757 C1478.34108,151.881477 1471.6888,146.047945 1471.6888,137.451161 C1471.6888,131.515288 1474.5544,126.807523 1480.28559,123.327874 C1486.01678,119.848225 1493.07842,118.108398 1501.47052,118.108398 C1518.86877,118.108398 1530.33115,124.760673 1535.85765,138.065217 L1560.41989,127.933294 C1555.91681,116.675599 1548.4458,108.027647 1538.00685,101.989428 C1527.5679,95.9512095 1515.69615,92.9321024 1502.3916,92.9321024 C1486.22146,92.9321024 1472.25169,97.0769803 1460.48228,105.366736 C1448.71288,113.656492 1442.82817,124.453645 1442.82817,137.758189 C1442.82817,149.425253 1447.12656,158.687266 1455.72335,165.544223 C1464.32013,172.40118 1473.42863,177.057772 1483.04884,179.513996 L1513.44461,186.882668 C1527.15853,190.362317 1534.01549,197.014592 1534.01549,206.839488 C1534.01549,213.184735 1531.20106,218.301865 1525.57222,222.190887 C1519.94337,226.07991 1512.72821,228.024419 1503.92674,228.024419 C1484.68632,228.024419 1471.07475,218.608893 1463.09202,199.777844 L1437.91572,210.216796 C1443.03286,222.497915 1451.06675,232.73218 1462.01742,240.919595 C1472.96809,249.10701 1486.83552,253.200715 1503.61971,253.200715 L1503.61971,253.200715 Z M1602.48273,65.9136391 C1608.00923,65.9136391 1612.71699,63.96913 1616.60602,60.0801072 C1620.49504,56.1910844 1622.43955,51.4833234 1622.43955,45.9568195 C1622.43955,40.4303157 1620.49504,35.7225547 1616.60602,31.8335319 C1612.71699,27.9445091 1608.00923,26 1602.48273,26 C1596.95622,26 1592.24846,27.9445091 1588.35944,31.8335319 C1584.47042,35.7225547 1582.52591,40.4303157 1582.52591,45.9568195 C1582.52591,51.4833234 1584.47042,56.1910844 1588.35944,60.0801072 C1592.24846,63.96913 1596.95622,65.9136391 1602.48273,65.9136391 L1602.48273,65.9136391 Z M1616.60602,248.288267 L1616.60602,97.8445503 L1588.35944,97.8445503 L1588.35944,248.288267 L1616.60602,248.288267 Z M1717.3112,319.518761 C1738.80316,319.518761 1757.02015,312.815318 1771.96218,299.408428 C1786.90421,286.001537 1794.37522,266.402918 1794.37522,240.612567 L1794.37522,97.8445503 L1767.35676,97.8445503 L1767.35676,118.722454 L1766.12865,118.722454 C1761.2162,111.353782 1754.2569,105.213222 1745.25074,100.300774 C1736.24459,95.3883264 1726.11267,92.9321024 1714.85497,92.9321024 C1695.40987,92.9321024 1678.62567,100.607802 1664.50238,115.959202 C1650.37909,131.310602 1643.31745,150.346337 1643.31745,173.066409 C1643.31745,195.78648 1650.37909,214.822216 1664.50238,230.173615 C1678.62567,245.525015 1695.40987,253.200715 1714.85497,253.200715 C1726.11267,253.200715 1736.24459,250.744491 1745.25074,245.832043 C1754.2569,240.919595 1761.2162,234.779035 1766.12865,227.410363 L1767.35676,227.410363 L1767.35676,241.840679 C1767.35676,257.806135 1762.90485,270.445455 1754.00104,279.758636 C1745.09723,289.071817 1732.86728,293.72841 1717.3112,293.72841 C1707.4863,293.72841 1698.736,290.965158 1691.0603,285.438654 C1683.3846,279.91215 1678.11396,273.055193 1675.24836,264.867778 L1649.45801,275.613758 C1654.37046,287.076135 1662.45553,297.259232 1673.71322,306.163043 C1684.97092,315.066855 1699.50357,319.518761 1717.3112,319.518761 L1717.3112,319.518761 Z M1719.46039,227.410363 C1706.36053,227.410363 1695.10284,222.446743 1685.68731,212.519506 C1676.27179,202.592269 1671.56403,189.441233 1671.56403,173.066409 C1671.56403,156.691584 1676.27179,143.540548 1685.68731,133.613311 C1695.10284,123.686075 1706.36053,118.722454 1719.46039,118.722454 C1732.76494,118.722454 1744.07381,123.634902 1753.38699,133.459797 C1762.70017,143.284693 1767.35676,156.486897 1767.35676,173.066409 C1767.35676,189.64592 1762.70017,202.848124 1753.38699,212.67302 C1744.07381,222.497915 1732.76494,227.410363 1719.46039,227.410363 L1719.46039,227.410363 Z M1855.78082,97.8445503 L1828.76236,97.8445503 L1828.76236,248.288267 L1857.00893,248.288267 L1857.00893,165.083681 C1857.00893,152.802561 1860.69327,142.005408 1868.06194,132.692228 C1875.43061,123.379047 1884.94848,118.722454 1896.61554,118.722454 C1921.38247,118.722454 1933.76593,132.641055 1933.76593,160.478261 L1933.76593,248.288267 L1962.01251,248.288267 L1962.01251,156.179869 C1962.01251,136.939447 1957.10006,121.588047 1947.27516,110.12567 C1937.45027,98.6632932 1923.22464,92.9321024 1904.59827,92.9321024 C1894.56869,92.9321024 1885.15317,95.4394993 1876.3517,100.454288 C1867.55023,105.469077 1861.10264,111.558469 1857.00893,118.722454 L1855.78082,118.722454 L1855.78082,97.8445503 Z M2195.96784,55.4746873 L2195.96784,28.4562239 L2067.63014,28.4562239 L2067.63014,248.288267 L2195.96784,248.288267 L2195.96784,221.269803 L2095.87671,221.269803 L2095.87671,151.574449 L2186.14294,151.574449 L2186.14294,125.170042 L2095.87671,125.170042 L2095.87671,55.4746873 L2195.96784,55.4746873 Z M2351.324,248.288267 L2297.5941,171.838297 L2350.09589,97.8445503 L2316.93687,97.8445503 L2281.62865,150.960393 L2244.47826,97.8445503 L2212.54735,97.8445503 L2264.43508,171.838297 L2211.31924,248.288267 L2244.47826,248.288267 L2281.01459,192.7162 L2318.16498,248.288267 L2351.324,248.288267 Z M2434.52859,253.200715 C2450.90341,253.200715 2464.71967,249.260524 2475.97737,241.380137 C2487.23506,233.49975 2495.32013,223.726027 2500.23258,212.058964 L2475.05628,201.620012 C2467.8923,218.81358 2454.17838,227.410363 2433.91453,227.410363 C2421.42873,227.410363 2410.52923,223.00963 2401.21605,214.20816 C2391.90287,205.406689 2386.83691,193.432597 2386.01817,178.285884 L2504.838,178.285884 L2505.14503,173.066409 C2505.14503,148.708856 2498.44158,129.263747 2485.03469,114.73109 C2471.6278,100.198433 2453.76901,92.9321024 2431.45831,92.9321024 C2409.96635,92.9321024 2392.31224,100.812489 2378.49598,116.573258 C2364.67972,132.334027 2357.77159,151.16508 2357.77159,173.066409 C2357.77159,196.195849 2364.88441,215.33393 2379.11004,230.480643 C2393.33566,245.627356 2411.80852,253.200715 2434.52859,253.200715 L2434.52859,253.200715 Z M2475.05628,154.951757 L2387.86033,154.951757 C2390.72593,143.898749 2395.99658,135.097279 2403.67228,128.54735 C2411.34797,121.997421 2420.4053,118.722454 2430.84425,118.722454 C2445.17223,118.722454 2455.96938,122.611477 2463.23571,130.389518 C2470.50204,138.167558 2474.44223,146.354973 2475.05628,154.951757 L2475.05628,154.951757 Z M2559.18195,248.288267 L2559.18195,166.004765 C2559.18195,152.904902 2563.12214,142.312436 2571.00253,134.227367 C2578.88292,126.142299 2587.94024,122.099762 2598.17451,122.099762 C2604.51976,122.099762 2609.53454,122.816159 2613.21888,124.248958 L2623.96486,97.8445503 C2618.23367,95.3883264 2611.17203,94.1602144 2602.77993,94.1602144 C2594.38783,94.1602144 2585.73987,96.8211252 2576.83606,102.142942 C2567.93225,107.464759 2562.04755,114.219375 2559.18195,122.40679 L2557.95384,122.40679 L2557.95384,97.8445503 L2530.93538,97.8445503 L2530.93538,248.288267 L2559.18195,248.288267 Z M2701.94997,253.200715 C2718.73417,253.200715 2732.80628,249.055837 2744.16632,240.766081 C2755.52635,232.476325 2763.76494,222.190887 2768.88207,209.909768 L2743.70578,199.163788 C2735.72305,217.994837 2721.19039,227.410363 2700.1078,227.410363 C2687.622,227.410363 2676.62016,222.293229 2667.10229,212.058964 C2657.58443,201.824699 2652.82549,188.827177 2652.82549,173.066409 C2652.82549,157.30564 2657.58443,144.308118 2667.10229,134.073853 C2676.62016,123.839589 2687.622,118.722454 2700.1078,118.722454 C2720.37165,118.722454 2734.3926,128.137981 2742.17064,146.969029 L2767.96099,136.223049 C2762.84385,123.737243 2754.75878,113.400637 2743.70578,105.213222 C2732.65277,97.0258075 2718.73417,92.9321024 2701.94997,92.9321024 C2679.43459,92.9321024 2660.91056,100.556629 2646.3779,115.805688 C2631.84525,131.054746 2624.57892,150.14165 2624.57892,173.066409 C2624.57892,195.991167 2631.84525,215.078071 2646.3779,230.327129 C2660.91056,245.576188 2679.43459,253.200715 2701.94997,253.200715 L2701.94997,253.200715 Z M2810.02382,65.9136391 C2815.55033,65.9136391 2820.25809,63.96913 2824.14711,60.0801072 C2828.03613,56.1910844 2829.98064,51.4833234 2829.98064,45.9568195 C2829.98064,40.4303157 2828.03613,35.7225547 2824.14711,31.8335319 C2820.25809,27.9445091 2815.55033,26 2810.02382,26 C2804.49732,26 2799.78956,27.9445091 2795.90054,31.8335319 C2792.01151,35.7225547 2790.067,40.4303157 2790.067,45.9568195 C2790.067,51.4833234 2792.01151,56.1910844 2795.90054,60.0801072 C2799.78956,63.96913 2804.49732,65.9136391 2810.02382,65.9136391 L2810.02382,65.9136391 Z M2824.14711,248.288267 L2824.14711,97.8445503 L2795.90054,97.8445503 L2795.90054,248.288267 L2824.14711,248.288267 Z M2916.86957,253.200715 C2934.26782,253.200715 2948.49345,248.697636 2959.54646,239.691483 C2970.59946,230.68533 2976.12597,219.427635 2976.12597,205.918404 C2976.12597,195.888821 2972.74866,186.882668 2965.99404,178.89994 C2959.23943,170.917213 2948.80048,165.288368 2934.67719,162.013401 L2904.89547,154.951757 C2891.59093,151.881477 2884.93865,146.047945 2884.93865,137.451161 C2884.93865,131.515288 2887.80425,126.807523 2893.53544,123.327874 C2899.26663,119.848225 2906.32827,118.108398 2914.72037,118.108398 C2932.11862,118.108398 2943.581,124.760673 2949.1075,138.065217 L2973.66974,127.933294 C2969.16667,116.675599 2961.69565,108.027647 2951.2567,101.989428 C2940.81775,95.9512095 2928.946,92.9321024 2915.64145,92.9321024 C2899.47131,92.9321024 2885.50154,97.0769803 2873.73213,105.366736 C2861.96273,113.656492 2856.07802,124.453645 2856.07802,137.758189 C2856.07802,149.425253 2860.37641,158.687266 2868.9732,165.544223 C2877.56998,172.40118 2886.67848,177.057772 2896.29869,179.513996 L2926.69446,186.882668 C2940.40838,190.362317 2947.26534,197.014592 2947.26534,206.839488 C2947.26534,213.184735 2944.45091,218.301865 2938.82207,222.190887 C2933.19322,226.07991 2925.97806,228.024419 2917.17659,228.024419 C2897.93617,228.024419 2884.3246,218.608893 2876.34187,199.777844 L2851.16557,210.216796 C2856.28271,222.497915 2864.31661,232.73218 2875.26727,240.919595 C2886.21794,249.10701 2900.08537,253.200715 2916.86957,253.200715 L2916.86957,253.200715 Z M3070.38356,253.200715 C3086.75839,253.200715 3100.57465,249.260524 3111.83234,241.380137 C3123.09004,233.49975 3131.1751,223.726027 3136.08755,212.058964 L3110.91126,201.620012 C3103.74727,218.81358 3090.03335,227.410363 3069.76951,227.410363 C3057.2837,227.410363 3046.38421,223.00963 3037.07102,214.20816 C3027.75784,205.406689 3022.69188,193.432597 3021.87314,178.285884 L3140.69297,178.285884 L3141,173.066409 C3141,148.708856 3134.29656,129.263747 3120.88967,114.73109 C3107.48278,100.198433 3089.62398,92.9321024 3067.31328,92.9321024 C3045.82132,92.9321024 3028.16721,100.812489 3014.35095,116.573258 C3000.53469,132.334027 2993.62656,151.16508 2993.62656,173.066409 C2993.62656,196.195849 3000.73938,215.33393 3014.96501,230.480643 C3029.19064,245.627356 3047.66349,253.200715 3070.38356,253.200715 L3070.38356,253.200715 Z M3110.91126,154.951757 L3023.71531,154.951757 C3026.5809,143.898749 3031.85155,135.097279 3039.52725,128.54735 C3047.20295,121.997421 3056.26027,118.722454 3066.69923,118.722454 C3081.0272,118.722454 3091.82435,122.611477 3099.09068,130.389518 C3106.35701,138.167558 3110.2972,146.354973 3110.91126,154.951757 L3110.91126,154.951757 Z" id="Design-Exercise" fill="#888B8D"></path>
        </g>
    </g>
</svg>