<?xml version="1.0" encoding="UTF-8" standalone="no"?>
<svg width="703px" height="492px" viewBox="0 0 703 492" version="1.1" xmlns="http://www.w3.org/2000/svg" xmlns:xlink="http://www.w3.org/1999/xlink">
    <!-- Generator: Sketch 40 (33762) - http://www.bohemiancoding.com/sketch -->
    <title>Group 24</title>
    <desc>Created with Sketch.</desc>
    <defs>
        <rect id="path-1" x="1.15045719" y="0" width="690.274314" height="480" rx="5.76"></rect>
        <filter x="-50%" y="-50%" width="200%" height="200%" filterUnits="objectBoundingBox" id="filter-2">
            <feOffset dx="0" dy="1" in="SourceAlpha" result="shadowOffsetOuter1"></feOffset>
            <feGaussianBlur stdDeviation="3" in="shadowOffsetOuter1" result="shadowBlurOuter1"></feGaussianBlur>
            <feComposite in="shadowBlurOuter1" in2="SourceAlpha" operator="out" result="shadowBlurOuter1"></feComposite>
            <feColorMatrix values="0 0 0 0 0.734826743   0 0 0 0 0.734826743   0 0 0 0 0.734826743  0 0 0 0.5 0" type="matrix" in="shadowBlurOuter1"></feColorMatrix>
        </filter>
        <mask id="mask-3" maskContentUnits="userSpaceOnUse" maskUnits="objectBoundingBox" x="0" y="0" width="690.274314" height="480" fill="white">
            <use xlink:href="#path-1"></use>
        </mask>
        <ellipse id="path-4" cx="651.522072" cy="30.2158273" rx="4.38990244" ry="4.31654676"></ellipse>
        <mask id="mask-5" maskContentUnits="userSpaceOnUse" maskUnits="objectBoundingBox" x="-1.296" y="-1.296" width="11.3718049" height="11.2250935">
            <rect x="645.83617" y="24.6032806" width="11.3718049" height="11.2250935" fill="white"></rect>
            <use xlink:href="#path-4" fill="black"></use>
        </mask>
        <rect id="path-6" x="0" y="0" width="665.539485" height="28.2014388" rx="1.728"></rect>
        <mask id="mask-7" maskContentUnits="userSpaceOnUse" maskUnits="objectBoundingBox" x="0" y="0" width="665.539485" height="28.2014388" fill="white">
            <use xlink:href="#path-6"></use>
        </mask>
        <rect id="path-8" x="0" y="27.6258993" width="665.539485" height="226.18705"></rect>
        <mask id="mask-9" maskContentUnits="userSpaceOnUse" maskUnits="objectBoundingBox" x="0" y="0" width="665.539485" height="226.18705" fill="white">
            <use xlink:href="#path-8"></use>
        </mask>
        <rect id="path-10" x="0" y="25.8992806" width="69.0274314" height="20.1438849" rx="1.728"></rect>
        <mask id="mask-11" maskContentUnits="userSpaceOnUse" maskUnits="objectBoundingBox" x="0" y="0" width="69.0274314" height="20.1438849" fill="white">
            <use xlink:href="#path-10"></use>
        </mask>
        <rect id="path-12" x="0" y="0" width="69.0274314" height="20.1438849" rx="1.728"></rect>
        <mask id="mask-13" maskContentUnits="userSpaceOnUse" maskUnits="objectBoundingBox" x="0" y="0" width="69.0274314" height="20.1438849" fill="white">
            <use xlink:href="#path-12"></use>
        </mask>
        <rect id="path-14" x="0" y="0" width="69.0274314" height="20.1438849" rx="1.728"></rect>
        <mask id="mask-15" maskContentUnits="userSpaceOnUse" maskUnits="objectBoundingBox" x="0" y="0" width="69.0274314" height="20.1438849" fill="white">
            <use xlink:href="#path-14"></use>
        </mask>
        <rect id="path-16" x="0" y="0" width="69.0274314" height="20.1438849" rx="1.728"></rect>
        <mask id="mask-17" maskContentUnits="userSpaceOnUse" maskUnits="objectBoundingBox" x="0" y="0" width="69.0274314" height="20.1438849" fill="white">
            <use xlink:href="#path-16"></use>
        </mask>
        <rect id="path-18" x="0" y="0" width="69.0274314" height="20.1438849" rx="1.728"></rect>
        <mask id="mask-19" maskContentUnits="userSpaceOnUse" maskUnits="objectBoundingBox" x="0" y="0" width="69.0274314" height="20.1438849" fill="white">
            <use xlink:href="#path-18"></use>
        </mask>
        <rect id="path-20" x="0" y="0" width="69.0274314" height="20.1438849" rx="1.728"></rect>
        <mask id="mask-21" maskContentUnits="userSpaceOnUse" maskUnits="objectBoundingBox" x="0" y="0" width="69.0274314" height="20.1438849" fill="white">
            <use xlink:href="#path-20"></use>
        </mask>
        <rect id="path-22" x="0" y="0" width="69.0274314" height="19.5683453" rx="1.728"></rect>
        <mask id="mask-23" maskContentUnits="userSpaceOnUse" maskUnits="objectBoundingBox" x="0" y="0" width="69.0274314" height="19.5683453" fill="white">
            <use xlink:href="#path-22"></use>
        </mask>
        <rect id="path-24" x="0" y="0" width="69.0274314" height="20.1438849" rx="1.728"></rect>
        <mask id="mask-25" maskContentUnits="userSpaceOnUse" maskUnits="objectBoundingBox" x="0" y="0" width="69.0274314" height="20.1438849" fill="white">
            <use xlink:href="#path-24"></use>
        </mask>
        <rect id="path-26" x="0" y="0" width="69.0274314" height="20.1438849" rx="1.728"></rect>
        <mask id="mask-27" maskContentUnits="userSpaceOnUse" maskUnits="objectBoundingBox" x="0" y="0" width="69.0274314" height="20.1438849" fill="white">
            <use xlink:href="#path-26"></use>
        </mask>
        <rect id="path-28" x="0" y="0" width="69.0274314" height="20.1438849" rx="1.728"></rect>
        <mask id="mask-29" maskContentUnits="userSpaceOnUse" maskUnits="objectBoundingBox" x="0" y="0" width="69.0274314" height="20.1438849" fill="white">
            <use xlink:href="#path-28"></use>
        </mask>
        <rect id="path-30" x="0" y="0" width="69.0274314" height="20.1438849" rx="1.728"></rect>
        <mask id="mask-31" maskContentUnits="userSpaceOnUse" maskUnits="objectBoundingBox" x="0" y="0" width="69.0274314" height="20.1438849" fill="white">
            <use xlink:href="#path-30"></use>
        </mask>
        <rect id="path-32" x="0" y="0" width="69.0274314" height="20.1438849" rx="1.728"></rect>
        <mask id="mask-33" maskContentUnits="userSpaceOnUse" maskUnits="objectBoundingBox" x="0" y="0" width="69.0274314" height="20.1438849" fill="white">
            <use xlink:href="#path-32"></use>
        </mask>
    </defs>
    <g id="Page-1" stroke="none" stroke-width="1" fill="none" fill-rule="evenodd">
        <g id="Group-24" transform="translate(5.000000, 5.000000)">
            <g id="Rectangle-3-Copy">
                <use fill="black" fill-opacity="1" filter="url(#filter-2)" xlink:href="#path-1"></use>
                <use stroke="#D0D9DD" mask="url(#mask-3)" stroke-width="1.2" fill="#FFFFFF" fill-rule="evenodd" xlink:href="#path-1"></use>
            </g>
            <polygon id="Header-BG-Copy" fill="#74CBE8" points="1.15045719 16.065776 1.15045719 52.3741007 692 52.3741007 692 15.5395683"></polygon>
            <path d="M677.19137,32.3599678 C677.19137,34.3384946 675.580845,35.9429572 673.594843,35.9429572 C671.60884,35.9429572 669.998315,34.3384946 669.998315,32.3599678 C669.998315,30.3814411 671.60884,28.7769784 673.594843,28.7769784 C675.580845,28.7769784 677.19137,30.3814411 677.19137,32.3599678 Z M667.842557,40.6187584 C667.842557,40.6209082 667.841838,40.623058 667.841838,40.6244912 C667.841838,40.6295074 667.840399,40.6338069 667.840399,40.6388231 C667.842557,40.806507 667.968435,40.938361 668.130279,40.9648752 L678.989634,40.9648752 L678.989634,40.959859 C678.994669,40.9605756 678.998985,40.9627254 679.004739,40.9627254 C679.187443,40.9627254 679.332743,40.8201224 679.344971,40.6416895 C679.341374,38.6631628 678.034396,37.178372 676.341871,36.4001467 C676.071412,36.2754586 675.752759,36.2604101 675.492371,36.4037297 C674.916926,36.7211825 674.254446,36.9024818 673.549527,36.9024818 C672.856116,36.9024818 672.202987,36.7276319 671.633297,36.4194948 C671.376505,36.2804748 671.063607,36.2991064 670.799622,36.4237944 C669.140184,37.2091857 667.854785,38.6696121 667.841838,40.6187584 L667.842557,40.6187584 Z" id="account-icon-copy" fill="#FFFFFF"></path>
            <path d="M649.001663,40.5755396 C649.001663,40.333883 648.906088,40.1037339 648.755899,39.9081071 C648.510136,39.5974058 648.086877,39.4017791 647.609004,39.4017791 C646.844407,39.4017791 646.216345,39.931122 646.216345,40.5755396 C646.216345,41.2199571 646.844407,41.7493001 647.609004,41.7493001 C648.318987,41.7493001 648.906088,41.3005093 648.988009,40.713629 C648.988009,40.6675992 649.001663,40.6215694 649.001663,40.5755396 Z M651.521848,36.0543178 C651.492078,36.0249882 651.447423,36.0103235 651.402768,35.9809939 C651.402768,35.9809939 651.253918,35.9076701 651.179493,35.8783405 C649.795189,35.1744316 649.214674,33.8546023 649.006284,33.1800229 C648.976514,33.0333752 648.946744,32.9013923 648.902089,32.7547446 C648.902089,32.7547446 646.803306,29.8657849 644.942682,29.8657849 C644.927797,29.8657849 644.228203,29.352518 643.781653,29.352518 C642.948094,29.352518 642.278269,30.0124326 642.263384,30.8336597 C641.370285,31.581563 640.804655,32.6960855 640.804655,33.9425909 C640.804655,34.3678692 640.864195,34.763818 640.983275,35.145102 C640.983275,35.145102 640.99816,35.1890964 641.02793,35.2624202 C641.042815,35.3064145 641.0577,35.3504088 641.072585,35.3944031 C641.310745,36.0836473 641.921029,38.1073855 641.191665,39.353891 C641.191665,39.353891 640.864195,40.2777715 641.013045,40.6590555 C641.41494,41.773578 643.379758,42.1401972 645.746472,41.6709246 C645.538082,41.392294 645.404117,41.069669 645.344577,40.7177146 C643.856078,40.9523509 642.695049,40.7177146 642.456889,40.0724647 C642.144304,39.1779137 643.707228,37.8140901 645.984631,37.0221926 C648.24715,36.230295 650.345933,36.3182836 650.658518,37.2128346 C650.852023,37.7554311 650.331048,38.4886695 649.378409,39.1485842 C649.571914,39.4418796 649.705879,39.7791693 649.750534,40.1457885 C651.492078,39.1045899 652.504257,37.7847606 652.147017,36.7728915 C652.147017,36.7728915 651.834432,36.2449598 651.521848,36.0543178 Z" id="notifiacitons-icon-copy" fill="#FFFFFF"></path>
            <g id="Oval-35-Copy-2">
                <use fill="#FFFFFF" fill-rule="evenodd" xlink:href="#path-4"></use>
                <use stroke="#72CAE8" mask="url(#mask-5)" stroke-width="2.592" xlink:href="#path-4"></use>
            </g>
            <text id="39-copy" font-family="AzoSans-Regular, Azo Sans" font-size="5.184" font-weight="normal" fill="#4FBEE3">
                <tspan x="648.488912" y="31.4748201">39</tspan>
            </text>
            <path d="M628.724855,32.6060662 C628.724855,32.1841727 628.391268,31.842682 627.973779,31.8249554 C627.974285,31.823436 627.974285,31.8219165 627.974918,31.8205237 L624.353934,31.8205237 L623.139304,28.1755511 C623.138798,28.1755511 623.138165,28.1756777 623.137533,28.1756777 C623.037431,27.8579914 622.743835,27.6258993 622.393164,27.6258993 C622.021359,27.6258993 621.711817,27.8852144 621.630951,28.2322763 C621.630066,28.2321496 621.629053,28.2322763 621.628294,28.232023 L620.432394,31.8205237 L616.871648,31.8205237 C616.865574,31.8203971 616.860005,31.8187511 616.854058,31.8187511 C616.420749,31.8186245 616.069825,32.1699914 616.069825,32.6032806 C616.069825,32.8418302 616.178279,33.052777 616.346338,33.1967424 C616.345452,33.1980086 616.344946,33.1994014 616.343933,33.2006676 L619.390505,35.544 L618.256488,39.1758043 C618.210424,39.2757065 618.182836,39.3858647 618.182836,39.5033669 C618.182836,39.9366561 618.534013,40.2877698 618.967194,40.2877698 C619.144998,40.2877698 619.307235,40.2264863 619.438847,40.1267108 C619.440239,40.127977 619.442011,40.1288633 619.443403,40.1300029 L622.400757,37.8617554 L625.252694,40.0544115 C625.395063,40.198377 625.592102,40.2877698 625.810401,40.2877698 C626.24371,40.2877698 626.59476,39.9366561 626.59476,39.5033669 C626.59476,39.4086561 626.575271,39.3190101 626.54452,39.2348086 C626.546544,39.2345554 626.54819,39.2335424 626.550214,39.2332892 L625.401517,35.5593209 L628.403037,33.2381468 C628.402784,33.2380201 628.402404,33.2377669 628.402151,33.2375137 C628.596786,33.0948144 628.724855,32.866141 628.724855,32.6060662 L628.724855,32.6060662 Z" id="brand-icon-copy" fill="#FFFFFF"></path>
            <path d="M9.77888612,32.7448969 L9.77888612,29.8301435 C9.77888612,29.1064685 10.4666378,28.2014388 11.3240516,28.2014388 L14.0916109,28.2014388 L12.8899075,29.468306 L11.3240516,29.468306 C11.153562,29.468306 10.9814171,29.6479169 10.9814171,29.8301435 L10.9814171,31.4789017 L9.77888612,32.7448969 Z M14.0916109,39.7122302 L11.3240516,39.7122302 C10.6379551,39.7122302 9.77888612,38.9885553 9.77888612,38.0835256 L9.77888612,35.169644 L10.9814171,36.4356392 L10.9814171,38.0835256 C10.9814171,38.2648803 11.153562,38.446235 11.3240516,38.446235 L12.8899075,38.446235 L14.0916109,39.7122302 Z M24.159601,35.169644 L24.159601,38.0835256 C24.159601,38.8072006 23.4726769,39.7122302 22.6136079,39.7122302 L19.8477039,39.7122302 L21.0485796,38.446235 L22.6136079,38.446235 C22.7857528,38.446235 22.95707,38.2648803 22.95707,38.0835256 L22.95707,36.4356392 L24.159601,35.169644 Z M19.8477039,28.2014388 L22.6136079,28.2014388 C23.300532,28.2014388 24.159601,28.9251138 24.159601,29.8301435 L24.159601,32.7448969 L22.95707,31.4789017 L22.95707,29.8301435 C22.95707,29.6479169 22.7857528,29.468306 22.6136079,29.468306 L21.0485796,29.468306 L19.8477039,28.2014388 Z" id="logo-copy" fill="#FFFFFF"></path>
            <text id="Reports-3-Copy" font-family="AzoSans-Regular, Azo Sans" font-size="9.216" font-weight="normal" fill="#FFFFFF">
                <tspan x="264.605154" y="38.352518">Reports</tspan>
            </text>
            <rect id="Rectangle-99-Copy" fill="#5AAFCC" x="34.5137157" y="23.5971223" width="61.5494597" height="23.0215827" rx="1.728"></rect>
            <text id="Commerce-3-Copy" font-family="AzoSans-Regular, Azo Sans" font-size="9.216" font-weight="normal" fill="#FFFFFF">
                <tspan x="199.604323" y="38.352518">Commerce</tspan>
            </text>
            <text id="Photos-Copy-2" font-family="AzoSans-Regular, Azo Sans" font-size="9.216" font-weight="normal" fill="#FFFFFF">
                <tspan x="151.285121" y="38.352518">Photos</tspan>
            </text>
            <text id="Studio-Copy" font-family="AzoSans-Regular, Azo Sans" font-size="9.216" font-weight="normal" fill="#FFFFFF">
                <tspan x="106.41729" y="38.352518">Studio</tspan>
            </text>
            <text id="Dashboard-Copy" font-family="AzoSans-Regular, Azo Sans" font-size="9.216" font-weight="normal" fill="#FFFFFF">
                <tspan x="41.9916874" y="38.352518">Dashboard</tspan>
            </text>
            <path d="M0.287614298,95.2517986 L691.214748,95.2517986" id="Line-Copy" stroke="#DAE1E3" stroke-width="0.6" stroke-linecap="square"></path>
            <path d="M10.0665004,126.330935 L679.057357,126.330935" id="Line-Copy-2" stroke="#DAE1E3" stroke-width="0.6" stroke-linecap="square"></path>
            <path d="M10.0665004,125.755396 L86.5719036,125.755396" id="Line-Copy-3" stroke="#376C7E" stroke-width="1.728" stroke-linecap="square"></path>
            <text id="Planning-and-Billing" font-family="AzoSans-Light, Azo Sans" font-size="12.672" font-weight="300" line-spacing="24.192" fill="#2B6376">
                <tspan x="12.6550291" y="78.0359712">Planning and Billing</tspan>
            </text>
            <text id="Photo-Plan" font-family="AzoSans-Regular, Azo Sans" font-size="16.128" font-weight="normal" line-spacing="24.192" fill="#2B6376">
                <tspan x="12.6550291" y="168.942446">Photo Plan</tspan>
            </text>
            <text id="Plan-Info" font-family="AzoSans-Regular, Azo Sans" font-size="10.368" font-weight="normal" line-spacing="24.192" fill="#2B6376">
                <tspan x="29.9118869" y="119.201439">Plan Info</tspan>
            </text>
            <text id="Select-a-plan-to-fit" font-family="AzoSans-Regular, Azo Sans" font-size="10.368" font-weight="normal" line-spacing="24.192" fill="#2B6376">
                <tspan x="13.8054863" y="191.143885">Select a plan to fit your needs. You can upgrade or downgrade at anytime.</tspan>
            </text>
            <text id="Credit-Card" font-family="AzoSans-Regular, Azo Sans" font-size="10.368" font-weight="normal" line-spacing="24.192" fill="#2B6376">
                <tspan x="104.691604" y="119.201439">Credit Card</tspan>
            </text>
            <text id="Lab-Credit" font-family="AzoSans-Regular, Azo Sans" font-size="10.368" font-weight="normal" line-spacing="24.192" fill="#2B6376">
                <tspan x="192.126351" y="119.201439">Lab Credit</tspan>
            </text>
            <ellipse id="Oval-1-Copy" stroke="#C7D2D6" stroke-width="0.6" cx="669.27847" cy="72.8057554" rx="10.0665004" ry="10.0719424"></ellipse>
            <path d="M666.866106,68.4208633 C667.390283,68.0827338 668.03382,67.9136691 668.798155,67.9136691 C669.801929,67.9136691 670.63601,68.1539568 671.300399,68.6338129 C671.964788,69.1136691 672.296983,69.8251799 672.296983,70.7676259 C672.296983,71.3453237 672.152456,71.8316547 671.864842,72.2273381 C671.696588,72.4676259 671.373022,72.7741007 670.894144,73.147482 L670.422456,73.5143885 C670.165761,73.7136691 669.99463,73.947482 669.910503,74.2143885 C669.858013,74.3834532 669.829252,74.6453237 669.824219,75.0007194 L668.01872,75.0007194 C668.045324,74.2496403 668.11579,73.7309353 668.231554,73.4438849 C668.3466,73.157554 668.642843,72.8273381 669.121002,72.4539568 L669.606351,72.0741007 C669.765977,71.9539568 669.893965,71.8230216 669.991754,71.6805755 C670.169356,71.4359712 670.257797,71.1676259 670.257797,70.8741007 C670.257797,70.5366906 670.159289,70.2280576 669.961554,69.9503597 C669.764539,69.6726619 669.404302,69.5338129 668.881563,69.5338129 C668.367452,69.5338129 668.002901,69.705036 667.787909,70.047482 C667.572918,70.3899281 667.465781,70.7453237 667.465781,71.1143885 L665.539485,71.1143885 C665.592693,69.8467626 666.0349,68.9496403 666.866106,68.4208633 L666.866106,68.4208633 Z M667.971983,75.9143885 L669.964431,75.9143885 L669.964431,77.8410072 L667.971983,77.8410072 L667.971983,75.9143885 Z" id="Imported-Layers-Copy" fill="#C7D2D6"></path>
            <rect id="Rectangle-20-Copy" fill="#72CAE8" x="572.352452" y="62.7338129" width="80.5320033" height="20.1438849" rx="1.152"></rect>
            <text id="Save-Copy" font-family="AzoSans-Regular, Azo Sans" font-size="6.912" font-weight="normal" fill="#FFFFFF">
                <tspan x="605.212246" y="76.0647482">Save</tspan>
            </text>
            <g id="Group-17-Copy" transform="translate(13.805486, 212.374101)">
                <g id="Row" transform="translate(0.354612, 27.625899)" fill="#F5F8F9">
                    <rect id="Rectangle-15" x="0.416105304" y="0" width="664.588714" height="32.2302158"></rect>
                </g>
                <g id="Row" transform="translate(0.354612, 59.856115)" fill="#FFFFFF">
                    <rect id="Rectangle-15" x="0.416105304" y="0" width="664.588714" height="32.2302158"></rect>
                </g>
                <g id="Row" transform="translate(0.354612, 92.086331)" fill="#F5F8F9">
                    <rect id="Rectangle-15" x="0.416105304" y="0" width="664.588714" height="32.2302158"></rect>
                </g>
                <g id="Row-Copy" transform="translate(0.354612, 157.122302)" fill="#F5F8F9">
                    <rect id="Rectangle-15" x="0.416105304" y="0" width="664.588714" height="32.2302158"></rect>
                </g>
                <g id="Row-Copy-3" transform="translate(0.354612, 221.582734)" fill="#F5F8F9">
                    <rect id="Rectangle-15" x="0.416105304" y="0" width="664.588714" height="32.2302158"></rect>
                </g>
                <g id="Row" transform="translate(0.354612, 124.892086)" fill="#FFFFFF">
                    <rect id="Rectangle-15" x="0.416105304" y="0" width="664.588714" height="32.2302158"></rect>
                </g>
                <g id="Row-Copy-2" transform="translate(0.354612, 189.352518)" fill="#FFFFFF">
                    <rect id="Rectangle-15" x="0.416105304" y="0" width="664.588714" height="32.2302158"></rect>
                </g>
                <g id="Head" stroke="#C7D2D6" stroke-width="1.2" fill="#FFFFFF">
                    <use id="Rectangle-93" mask="url(#mask-7)" xlink:href="#path-6"></use>
                </g>
                <use id="outline" stroke="#C7D2D6" mask="url(#mask-9)" stroke-width="1.2" xlink:href="#path-8"></use>
                <text id="Photos" font-family="AzoSans-Bold, Azo Sans" font-size="8.064" font-weight="bold" fill="#68828C">
                    <tspan x="22.0884289" y="16.6330935">Photos</tspan>
                </text>
                <text id="100" font-family="AzoSans-Bold, Azo Sans" font-size="8.064" font-weight="bold" fill="#68828C">
                    <tspan x="34.8366372" y="46.5611511">100</tspan>
                </text>
                <text id="1,500" font-family="AzoSans-Bold, Azo Sans" font-size="8.064" font-weight="bold" fill="#68828C">
                    <tspan x="27.7967652" y="78.7913669">1,500</tspan>
                </text>
                <text id="5,000" font-family="AzoSans-Bold, Azo Sans" font-size="8.064" font-weight="bold" fill="#68828C">
                    <tspan x="26.9016612" y="110.446043">5,000</tspan>
                </text>
                <text id="25,000" font-family="AzoSans-Bold, Azo Sans" font-size="8.064" font-weight="bold" fill="#68828C">
                    <tspan x="22.2084132" y="143.827338">25,000</tspan>
                </text>
                <text id="50,000" font-family="AzoSans-Bold, Azo Sans" font-size="8.064" font-weight="bold" fill="#68828C">
                    <tspan x="21.8374692" y="176.057554">50,000</tspan>
                </text>
                <text id="100,000" font-family="AzoSans-Bold, Azo Sans" font-size="8.064" font-weight="bold" fill="#68828C">
                    <tspan x="17.1764772" y="207.71223">100,000</tspan>
                </text>
                <text id="Unlimited" font-family="AzoSans-Bold, Azo Sans" font-size="8.064" font-weight="bold" fill="#68828C">
                    <tspan x="11.4591012" y="239.942446">Unlimited</tspan>
                </text>
                <g id="Group-16" transform="translate(117.921862, 8.633094)" font-size="8.064" font-family="AzoSans-Bold, Azo Sans" fill="#68828C" font-weight="bold">
                    <text id="Mobile-Apps">
                        <tspan x="0" y="8">Mobile Apps</tspan>
                    </text>
                    <text id="5">
                        <tspan x="18.9825436" y="37.9280576">5</tspan>
                    </text>
                    <text id="Unlimited">
                        <tspan x="4.60182876" y="70.1582734">Unlimited</tspan>
                    </text>
                    <text id="Unlimited">
                        <tspan x="4.60182876" y="101.81295">Unlimited</tspan>
                    </text>
                    <text id="Unlimited">
                        <tspan x="4.60182876" y="135.194245">Unlimited</tspan>
                    </text>
                    <text id="Unlimited">
                        <tspan x="4.60182876" y="167.42446">Unlimited</tspan>
                    </text>
                    <text id="Unlimited">
                        <tspan x="4.60182876" y="199.079137">Unlimited</tspan>
                    </text>
                    <text id="Unlimited-Copy">
                        <tspan x="4.60182876" y="231.309353">Unlimited</tspan>
                    </text>
                </g>
                <g id="Group-12" transform="translate(584.432253, 8.633094)">
                    <use id="Rectangle-1-Copy-41" stroke="#DAE1E3" mask="url(#mask-11)" stroke-width="1.2" fill="#F3F6F6" xlink:href="#path-10"></use>
                    <text id="Yearly-" font-family="AzoSans-Bold, Azo Sans" font-size="8.064" font-weight="bold" fill="#68828C">
                        <tspan x="21.283458" y="8">Yearly </tspan>
                    </text>
                    <text id="Free-Copy-5" font-family="AzoSans-Regular, Azo Sans" font-size="8.064" font-weight="normal" fill="#61808C">
                        <tspan x="26.4577797" y="37.9280576">Free</tspan>
                    </text>
                    <g id="Group" transform="translate(0.000000, 57.553957)">
                        <use id="Rectangle-1-Copy-30" stroke="#DAE1E3" mask="url(#mask-13)" stroke-width="1.2" fill="#F3F6F6" xlink:href="#path-12"></use>
                        <text id="$100-USD/yr" font-family="AzoSans-Regular, Azo Sans" font-size="8.064" font-weight="normal" fill="#61808C">
                            <tspan x="10.3535053" y="13.228777">$100 USD/yr</tspan>
                        </text>
                    </g>
                    <g id="Group-2" transform="translate(0.000000, 89.208633)">
                        <use id="Rectangle-1-Copy-31" stroke="#DAE1E3" mask="url(#mask-15)" stroke-width="1.2" fill="#F3F6F6" xlink:href="#path-14"></use>
                        <text id="$200-USD/yr" font-family="AzoSans-Regular, Azo Sans" font-size="8.064" font-weight="normal" fill="#61808C">
                            <tspan x="10.597234" y="12.028777">$200 USD/yr</tspan>
                        </text>
                    </g>
                    <g id="Group-5" transform="translate(0.000000, 122.014388)">
                        <use id="Rectangle-1-Copy-32" stroke="#DAE1E3" mask="url(#mask-17)" stroke-width="1.2" fill="#F3F6F6" xlink:href="#path-16"></use>
                        <text id="$300-USD/yr" font-family="AzoSans-Regular, Azo Sans" font-size="8.064" font-weight="normal" fill="#61808C">
                            <tspan x="10.3378437" y="12.028777">$300 USD/yr</tspan>
                        </text>
                    </g>
                    <g id="Group-6" transform="translate(0.000000, 154.820144)">
                        <use id="Rectangle-1-Copy-33" stroke="#DAE1E3" mask="url(#mask-19)" stroke-width="1.2" fill="#F3F6F6" xlink:href="#path-18"></use>
                        <text id="$400-USD/yr" font-family="AzoSans-Regular, Azo Sans" font-size="8.064" font-weight="normal" fill="#61808C">
                            <tspan x="9.99915571" y="12.028777">$400 USD/yr</tspan>
                        </text>
                    </g>
                    <g id="Group-9" transform="translate(0.000000, 187.050360)">
                        <use id="Rectangle-1-Copy-34" stroke="#DAE1E3" mask="url(#mask-21)" stroke-width="1.2" fill="#F3F6F6" xlink:href="#path-20"></use>
                        <text id="$500-USD/yr" font-family="AzoSans-Regular, Azo Sans" font-size="8.064" font-weight="normal" fill="#61808C">
                            <tspan x="10.3821957" y="12.028777">$500 USD/yr</tspan>
                        </text>
                    </g>
                    <g id="Group-10" transform="translate(27.035744, 223.309353)" font-size="8.064" font-family="AzoSans-Regular, Azo Sans" fill="#61808C" font-weight="normal">
                        <text id="N/A-Copy">
                            <tspan x="0.176019737" y="8">N/A</tspan>
                        </text>
                    </g>
                </g>
                <g id="Group-13" transform="translate(447.527847, 8.633094)">
                    <text id="Monthly-" font-family="AzoSans-Bold, Azo Sans" font-size="8.064" font-weight="bold" fill="#68828C">
                        <tspan x="17.8320865" y="8">Monthly </tspan>
                    </text>
                    <g id="Group-3-Copy-2" transform="translate(0.000000, 25.899281)" stroke="#DAE1E3" stroke-width="1.2" fill="#F3F6F6">
                        <use id="Rectangle-1-Copy-36" mask="url(#mask-23)" xlink:href="#path-22"></use>
                    </g>
                    <text id="Free-Copy-4" font-family="AzoSans-Regular, Azo Sans" font-size="8.064" font-weight="normal" fill="#61808C">
                        <tspan x="26.4577797" y="37.9280576">Free</tspan>
                    </text>
                    <g id="Group-3" transform="translate(0.000000, 89.208633)">
                        <use id="Rectangle-1-Copy-36" stroke="#DAE1E3" mask="url(#mask-25)" stroke-width="1.2" fill="#F3F6F6" xlink:href="#path-24"></use>
                        <text id="$20-USD/mo" font-family="AzoSans-Regular, Azo Sans" font-size="8.064" font-weight="normal" fill="#61808C">
                            <tspan x="10.605298" y="12.028777">$20 USD/mo</tspan>
                        </text>
                    </g>
                    <g id="Group-4" transform="translate(0.000000, 122.014388)">
                        <use id="Rectangle-1-Copy-37" stroke="#DAE1E3" mask="url(#mask-27)" stroke-width="1.2" fill="#F3F6F6" xlink:href="#path-26"></use>
                        <text id="$30-USD/mo" font-family="AzoSans-Regular, Azo Sans" font-size="8.064" font-weight="normal" fill="#61808C">
                            <tspan x="10.3459077" y="12.028777">$30 USD/mo</tspan>
                        </text>
                    </g>
                    <g id="Group-7" transform="translate(0.000000, 154.820144)">
                        <use id="Rectangle-1-Copy-38" stroke="#DAE1E3" mask="url(#mask-29)" stroke-width="1.2" fill="#F3F6F6" xlink:href="#path-28"></use>
                        <text id="$40-USD/mo" font-family="AzoSans-Regular, Azo Sans" font-size="8.064" font-weight="normal" fill="#61808C">
                            <tspan x="10.0072197" y="12.028777">$40 USD/mo</tspan>
                        </text>
                    </g>
                    <g id="Group-8" transform="translate(0.000000, 187.050360)">
                        <use id="Rectangle-1-Copy-39" stroke="#DAE1E3" mask="url(#mask-31)" stroke-width="1.2" fill="#F3F6F6" xlink:href="#path-30"></use>
                        <text id="$50-USD/mo" font-family="AzoSans-Regular, Azo Sans" font-size="8.064" font-weight="normal" fill="#61808C">
                            <tspan x="10.3902597" y="12.028777">$50 USD/mo</tspan>
                        </text>
                    </g>
                    <g id="Group-11" transform="translate(0.000000, 219.280576)">
                        <use id="Rectangle-1-Copy-40" stroke="#DAE1E3" mask="url(#mask-33)" stroke-width="1.2" fill="#F3F6F6" xlink:href="#path-32"></use>
                        <text id="$60-USD/mo" font-family="AzoSans-Regular, Azo Sans" font-size="8.064" font-weight="normal" fill="#61808C">
                            <tspan x="10.456114" y="12.028777">$60 USD/mo</tspan>
                        </text>
                    </g>
                    <text id="Your-Plan-Copy" font-family="AzoSans-Bold, Azo Sans" font-size="8.064" font-weight="bold" fill="#61808C">
                        <tspan x="17.2568579" y="70.2071942">Your Plan</tspan>
                    </text>
                </g>
                <g id="Group-22" transform="translate(234.118038, 8.633094)">
                    <g id="Group-15">
                        <text id="Invoicing-" font-family="AzoSans-Bold, Azo Sans" font-size="8.064" font-weight="bold" fill="#68828C">
                            <tspan x="0" y="8">Invoicing </tspan>
                        </text>
                        <path d="M14.7423528,70.6633682 L12.7800447,68.6546473 C12.6133572,68.4844537 12.6133572,68.2082164 12.7800447,68.0375864 L13.382848,67.4205254 C13.5491092,67.2498954 13.8193901,67.2498954 13.9856513,67.4205254 L14.9120244,68.3688093 L18.112765,64.0572379 C18.2551528,63.8652246 18.5228759,63.8281312 18.7100263,63.9738867 L19.3891392,64.5019233 C19.5767159,64.6476788 19.6133786,64.9212978 19.4709909,65.1133111 L15.3830977,70.618856 C15.227068,70.8296343 14.9252401,70.8505812 14.7423528,70.6633682" id="Checkmark-2" fill="#72CAE8"></path>
                        <path d="M14.7423528,102.893584 L12.7800447,100.884863 C12.6133572,100.714669 12.6133572,100.438432 12.7800447,100.267802 L13.382848,99.6507413 C13.5491092,99.4801113 13.8193901,99.4801113 13.9856513,99.6507413 L14.9120244,100.599025 L18.112765,96.2874538 C18.2551528,96.0954405 18.5228759,96.058347 18.7100263,96.2041025 L19.3891392,96.7321391 C19.5767159,96.8778947 19.6133786,97.1515136 19.4709909,97.3435269 L15.3830977,102.849072 C15.227068,103.05985 14.9252401,103.080797 14.7423528,102.893584" id="Checkmark-2-Copy-2" fill="#72CAE8"></path>
                        <path d="M14.7423528,135.1238 L12.7800447,133.115079 C12.6133572,132.944885 12.6133572,132.668648 12.7800447,132.498018 L13.382848,131.880957 C13.5491092,131.710327 13.8193901,131.710327 13.9856513,131.880957 L14.9120244,132.829241 L18.112765,128.51767 C18.2551528,128.325656 18.5228759,128.288563 18.7100263,128.434318 L19.3891392,128.962355 C19.5767159,129.10811 19.6133786,129.381729 19.4709909,129.573743 L15.3830977,135.079288 C15.227068,135.290066 14.9252401,135.311013 14.7423528,135.1238" id="Checkmark-2-Copy-3" fill="#72CAE8"></path>
                        <path d="M14.7423528,167.929555 L12.7800447,165.920834 C12.6133572,165.750641 12.6133572,165.474403 12.7800447,165.303773 L13.382848,164.686712 C13.5491092,164.516082 13.8193901,164.516082 13.9856513,164.686712 L14.9120244,165.634996 L18.112765,161.323425 C18.2551528,161.131412 18.5228759,161.094318 18.7100263,161.240074 L19.3891392,161.76811 C19.5767159,161.913866 19.6133786,162.187485 19.4709909,162.379498 L15.3830977,167.885043 C15.227068,168.095821 14.9252401,168.116768 14.7423528,167.929555" id="Checkmark-2-Copy-4" fill="#72CAE8"></path>
                        <path d="M14.7423528,200.159771 L12.7800447,198.15105 C12.6133572,197.980857 12.6133572,197.704619 12.7800447,197.533989 L13.382848,196.916928 C13.5491092,196.746298 13.8193901,196.746298 13.9856513,196.916928 L14.9120244,197.865212 L18.112765,193.553641 C18.2551528,193.361628 18.5228759,193.324534 18.7100263,193.47029 L19.3891392,193.998326 C19.5767159,194.144082 19.6133786,194.417701 19.4709909,194.609714 L15.3830977,200.115259 C15.227068,200.326037 14.9252401,200.346984 14.7423528,200.159771" id="Checkmark-2-Copy-5" fill="#72CAE8"></path>
                        <path d="M14.7423528,232.389987 L12.7800447,230.381266 C12.6133572,230.211072 12.6133572,229.934835 12.7800447,229.764205 L13.382848,229.147144 C13.5491092,228.976514 13.8193901,228.976514 13.9856513,229.147144 L14.9120244,230.095428 L18.112765,225.783857 C18.2551528,225.591843 18.5228759,225.55475 18.7100263,225.700505 L19.3891392,226.228542 C19.5767159,226.374298 19.6133786,226.647916 19.4709909,226.83993 L15.3830977,232.345475 C15.227068,232.556253 14.9252401,232.5772 14.7423528,232.389987" id="Checkmark-2-Copy-6" fill="#72CAE8"></path>
                    </g>
                    <path d="M19.9196631,33.5321584 C20.0209033,33.4308635 20.0209033,33.2668347 19.9196631,33.1655397 L19.0654486,32.3108635 C18.9647836,32.210144 18.8008435,32.210144 18.6996032,32.3108635 L16.0362948,34.9756117 L13.3775883,32.3062591 C13.2769233,32.2049642 13.1129831,32.2049642 13.0117429,32.3056836 L12.1558027,33.1586332 C12.0545625,33.2593527 12.0545625,33.4233814 12.1552275,33.5246764 L14.816235,36.1963311 L12.1627055,38.8512951 C12.0620405,38.9525901 12.0620405,39.1166189 12.1627055,39.2173383 L13.0169199,40.0720145 C13.1181602,40.1733095 13.2821003,40.1733095 13.3833406,40.0720145 L16.0345691,37.4193527 L18.6806207,40.0760433 C18.7818609,40.1773383 18.9458011,40.1779138 19.0470413,40.0766189 L19.9024062,39.2242448 C20.0036465,39.1229498 20.0042217,38.958921 19.9029815,38.8576261 L17.254629,36.1986332 L19.9196631,33.5321584 Z" id="Imported-Layers-2-Copy-2" fill="#E5736C"></path>
                </g>
                <g id="Group-23" transform="translate(339.384871, 8.633094)">
                    <g id="Group-14">
                        <text id="Contracts-" font-family="AzoSans-Bold, Azo Sans" font-size="8.064" font-weight="bold" fill="#68828C">
                            <tspan x="0" y="8">Contracts </tspan>
                        </text>
                        <path d="M18.1937243,70.6633682 L16.2314163,68.6546473 C16.0647288,68.4844537 16.0647288,68.2082164 16.2314163,68.0375864 L16.8342196,67.4205254 C17.0004807,67.2498954 17.2707617,67.2498954 17.4370229,67.4205254 L18.363396,68.3688093 L21.5641366,64.0572379 C21.7065244,63.8652246 21.9742475,63.8281312 22.1613979,63.9738867 L22.8405108,64.5019233 C23.0280875,64.6476788 23.0647502,64.9212978 22.9223624,65.1133111 L18.8344693,70.618856 C18.6784396,70.8296343 18.3766116,70.8505812 18.1937243,70.6633682" id="Checkmark-2-Copy-7" fill="#72CAE8"></path>
                        <path d="M18.1937243,102.893584 L16.2314163,100.884863 C16.0647288,100.714669 16.0647288,100.438432 16.2314163,100.267802 L16.8342196,99.6507413 C17.0004807,99.4801113 17.2707617,99.4801113 17.4370229,99.6507413 L18.363396,100.599025 L21.5641366,96.2874538 C21.7065244,96.0954405 21.9742475,96.058347 22.1613979,96.2041025 L22.8405108,96.7321391 C23.0280875,96.8778947 23.0647502,97.1515136 22.9223624,97.3435269 L18.8344693,102.849072 C18.6784396,103.05985 18.3766116,103.080797 18.1937243,102.893584" id="Checkmark-2-Copy-9" fill="#72CAE8"></path>
                        <path d="M18.1937243,135.1238 L16.2314163,133.115079 C16.0647288,132.944885 16.0647288,132.668648 16.2314163,132.498018 L16.8342196,131.880957 C17.0004807,131.710327 17.2707617,131.710327 17.4370229,131.880957 L18.363396,132.829241 L21.5641366,128.51767 C21.7065244,128.325656 21.9742475,128.288563 22.1613979,128.434318 L22.8405108,128.962355 C23.0280875,129.10811 23.0647502,129.381729 22.9223624,129.573743 L18.8344693,135.079288 C18.6784396,135.290066 18.3766116,135.311013 18.1937243,135.1238" id="Checkmark-2-Copy-10" fill="#72CAE8"></path>
                        <path d="M18.1937243,167.929555 L16.2314163,165.920834 C16.0647288,165.750641 16.0647288,165.474403 16.2314163,165.303773 L16.8342196,164.686712 C17.0004807,164.516082 17.2707617,164.516082 17.4370229,164.686712 L18.363396,165.634996 L21.5641366,161.323425 C21.7065244,161.131412 21.9742475,161.094318 22.1613979,161.240074 L22.8405108,161.76811 C23.0280875,161.913866 23.0647502,162.187485 22.9223624,162.379498 L18.8344693,167.885043 C18.6784396,168.095821 18.3766116,168.116768 18.1937243,167.929555" id="Checkmark-2-Copy-11" fill="#72CAE8"></path>
                        <path d="M18.1937243,200.159771 L16.2314163,198.15105 C16.0647288,197.980857 16.0647288,197.704619 16.2314163,197.533989 L16.8342196,196.916928 C17.0004807,196.746298 17.2707617,196.746298 17.4370229,196.916928 L18.363396,197.865212 L21.5641366,193.553641 C21.7065244,193.361628 21.9742475,193.324534 22.1613979,193.47029 L22.8405108,193.998326 C23.0280875,194.144082 23.0647502,194.417701 22.9223624,194.609714 L18.8344693,200.115259 C18.6784396,200.326037 18.3766116,200.346984 18.1937243,200.159771" id="Checkmark-2-Copy-12" fill="#72CAE8"></path>
                        <path d="M18.1937243,232.389987 L16.2314163,230.381266 C16.0647288,230.211072 16.0647288,229.934835 16.2314163,229.764205 L16.8342196,229.147144 C17.0004807,228.976514 17.2707617,228.976514 17.4370229,229.147144 L18.363396,230.095428 L21.5641366,225.783857 C21.7065244,225.591843 21.9742475,225.55475 22.1613979,225.700505 L22.8405108,226.228542 C23.0280875,226.374298 23.0647502,226.647916 22.9223624,226.83993 L18.8344693,232.345475 C18.6784396,232.556253 18.3766116,232.5772 18.1937243,232.389987" id="Checkmark-2-Copy-13" fill="#72CAE8"></path>
                    </g>
                    <path d="M23.9462632,33.5321584 C24.0475035,33.4308635 24.0475035,33.2668347 23.9462632,33.1655397 L23.0920488,32.3108635 C22.9913838,32.210144 22.8274436,32.210144 22.7262034,32.3108635 L20.062895,34.9756117 L17.4041884,32.3062591 C17.3035234,32.2049642 17.1395833,32.2049642 17.038343,32.3056836 L16.1824029,33.1586332 C16.0811627,33.2593527 16.0811627,33.4233814 16.1818277,33.5246764 L18.8428351,36.1963311 L16.1893056,38.8512951 C16.0886406,38.9525901 16.0886406,39.1166189 16.1893056,39.2173383 L17.0435201,40.0720145 C17.1447603,40.1733095 17.3087005,40.1733095 17.4099407,40.0720145 L20.0611693,37.4193527 L22.7072209,40.0760433 C22.8084611,40.1773383 22.9724012,40.1779138 23.0736415,40.0766189 L23.9290064,39.2242448 C24.0302466,39.1229498 24.0308218,38.958921 23.9295816,38.8576261 L21.2812292,36.1986332 L23.9462632,33.5321584 Z" id="Imported-Layers-2-Copy-3" fill="#E5736C"></path>
                </g>
            </g>
            <ellipse id="Oval" fill="#FC635D" cx="10.7937608" cy="8.4" rx="3.59792028" ry="3.6"></ellipse>
            <ellipse id="Oval-Copy" fill="#FDBC40" cx="21.5875217" cy="8.4" rx="3.59792028" ry="3.6"></ellipse>
            <ellipse id="Oval-Copy-2" fill="#35C94A" cx="32.3812825" cy="8.4" rx="3.59792028" ry="3.6"></ellipse>
        </g>
    </g>
</svg>