<?xml version="1.0" encoding="UTF-8" standalone="no"?>
<svg width="900px" height="475px" viewBox="0 0 900 475" version="1.1" xmlns="http://www.w3.org/2000/svg" xmlns:xlink="http://www.w3.org/1999/xlink">
    <!-- Generator: Sketch 40 (33762) - http://www.bohemiancoding.com/sketch -->
    <title>Group 22</title>
    <desc>Created with Sketch.</desc>
    <defs>
        <rect id="path-1" x="0" y="0" width="655.453789" height="475" rx="6.55172414"></rect>
        <mask id="mask-2" maskContentUnits="userSpaceOnUse" maskUnits="objectBoundingBox" x="0" y="0" width="655.453789" height="475" fill="white">
            <use xlink:href="#path-1"></use>
        </mask>
        <ellipse id="path-3" cx="617.56396" cy="30.8477011" rx="4.16845611" ry="4.09482759"></ellipse>
        <mask id="mask-4" maskContentUnits="userSpaceOnUse" maskUnits="objectBoundingBox" x="-1.22844828" y="-1.22844828" width="10.7938088" height="10.6465517">
            <rect x="612.167055" y="25.5244253" width="10.7938088" height="10.6465517" fill="white"></rect>
            <use xlink:href="#path-3" fill="black"></use>
        </mask>
        <rect id="path-5" x="0" y="0" width="305.878435" height="358.706897" rx="1.63793103"></rect>
        <mask id="mask-6" maskContentUnits="userSpaceOnUse" maskUnits="objectBoundingBox" x="0" y="0" width="305.878435" height="358.706897" fill="white">
            <use xlink:href="#path-5"></use>
        </mask>
        <rect id="path-7" x="0" y="0" width="305.878435" height="22.9310345" rx="1.63793103"></rect>
        <mask id="mask-8" maskContentUnits="userSpaceOnUse" maskUnits="objectBoundingBox" x="0" y="0" width="305.878435" height="22.9310345" fill="white">
            <use xlink:href="#path-7"></use>
        </mask>
        <rect id="path-9" x="14.7477102" y="186.178161" width="11.4704413" height="11.4655172" rx="1.09195402"></rect>
        <mask id="mask-10" maskContentUnits="userSpaceOnUse" maskUnits="objectBoundingBox" x="0" y="0" width="11.4704413" height="11.4655172" fill="white">
            <use xlink:href="#path-9"></use>
        </mask>
        <rect id="path-11" x="14.7477102" y="336.321839" width="11.4704413" height="11.4655172" rx="1.09195402"></rect>
        <mask id="mask-12" maskContentUnits="userSpaceOnUse" maskUnits="objectBoundingBox" x="0" y="0" width="11.4704413" height="11.4655172" fill="white">
            <use xlink:href="#path-11"></use>
        </mask>
        <rect id="path-13" x="14.7477102" y="105.91954" width="113.065779" height="22.9310345" rx="1.63793103"></rect>
        <mask id="mask-14" maskContentUnits="userSpaceOnUse" maskUnits="objectBoundingBox" x="0" y="0" width="113.065779" height="22.9310345" fill="white">
            <use xlink:href="#path-13"></use>
        </mask>
        <rect id="path-15" x="14.7477102" y="151.781609" width="113.065779" height="22.9310345" rx="1.63793103"></rect>
        <mask id="mask-16" maskContentUnits="userSpaceOnUse" maskUnits="objectBoundingBox" x="0" y="0" width="113.065779" height="22.9310345" fill="white">
            <use xlink:href="#path-15"></use>
        </mask>
        <rect id="path-17" x="14.7477102" y="260.977011" width="113.065779" height="22.9310345" rx="1.63793103"></rect>
        <mask id="mask-18" maskContentUnits="userSpaceOnUse" maskUnits="objectBoundingBox" x="0" y="0" width="113.065779" height="22.9310345" fill="white">
            <use xlink:href="#path-17"></use>
        </mask>
        <rect id="path-19" x="14.7477102" y="305.201149" width="132.183181" height="22.9310345" rx="1.63793103"></rect>
        <mask id="mask-20" maskContentUnits="userSpaceOnUse" maskUnits="objectBoundingBox" x="0" y="0" width="132.183181" height="22.9310345" fill="white">
            <use xlink:href="#path-19"></use>
        </mask>
        <ellipse id="path-21" cx="20.4829309" cy="231.221264" rx="5.73522065" ry="5.73275862"></ellipse>
        <mask id="mask-22" maskContentUnits="userSpaceOnUse" maskUnits="objectBoundingBox" x="0" y="0" width="11.4704413" height="11.4655172" fill="white">
            <use xlink:href="#path-21"></use>
        </mask>
        <ellipse id="path-23" cx="105.691923" cy="231.221264" rx="5.73522065" ry="5.73275862"></ellipse>
        <mask id="mask-24" maskContentUnits="userSpaceOnUse" maskUnits="objectBoundingBox" x="0" y="0" width="11.4704413" height="11.4655172" fill="white">
            <use xlink:href="#path-23"></use>
        </mask>
        <rect id="path-25" x="461.002498" y="62.2413793" width="76.4696087" height="19.1091954" rx="1.09195402"></rect>
        <mask id="mask-26" maskContentUnits="userSpaceOnUse" maskUnits="objectBoundingBox" x="0" y="0" width="76.4696087" height="19.1091954" fill="white">
            <use xlink:href="#path-25"></use>
        </mask>
        <rect id="path-27" x="0" y="0" width="305.878435" height="154.511494" rx="1.63793103"></rect>
        <mask id="mask-28" maskContentUnits="userSpaceOnUse" maskUnits="objectBoundingBox" x="0" y="0" width="305.878435" height="154.511494" fill="white">
            <use xlink:href="#path-27"></use>
        </mask>
        <rect id="path-29" x="0" y="0" width="305.878435" height="22.9310345" rx="1.63793103"></rect>
        <mask id="mask-30" maskContentUnits="userSpaceOnUse" maskUnits="objectBoundingBox" x="0" y="0" width="305.878435" height="22.9310345" fill="white">
            <use xlink:href="#path-29"></use>
        </mask>
        <rect id="path-31" x="0" y="0" width="11.4704413" height="11.4655172" rx="1.09195402"></rect>
        <mask id="mask-32" maskContentUnits="userSpaceOnUse" maskUnits="objectBoundingBox" x="0" y="0" width="11.4704413" height="11.4655172" fill="white">
            <use xlink:href="#path-31"></use>
        </mask>
        <path d="M0,1.63756045 C0,0.733160786 0.735752372,1.54998858e-15 1.63040979,1.54998858e-15 L326.642696,1.54998858e-15 C327.543146,1.54998858e-15 328.273106,0.730428328 328.273106,1.63756045 L328.273106,189.454394 C328.273106,190.358793 327.537353,191.091954 326.642696,191.091954 L1.63040979,191.091954 C0.729959327,191.091954 0,190.361526 0,189.454394 L0,1.63756045 Z" id="path-33"></path>
        <filter x="-50%" y="-50%" width="200%" height="200%" filterUnits="objectBoundingBox" id="filter-34">
            <feMorphology radius="0.545977011" operator="dilate" in="SourceAlpha" result="shadowSpreadOuter1"></feMorphology>
            <feOffset dx="0" dy="-2" in="shadowSpreadOuter1" result="shadowOffsetOuter1"></feOffset>
            <feGaussianBlur stdDeviation="2.5" in="shadowOffsetOuter1" result="shadowBlurOuter1"></feGaussianBlur>
            <feComposite in="shadowBlurOuter1" in2="SourceAlpha" operator="out" result="shadowBlurOuter1"></feComposite>
            <feColorMatrix values="0 0 0 0 0.141176471   0 0 0 0 0.207843137   0 0 0 0 0.231372549  0 0 0 0.3 0" type="matrix" in="shadowBlurOuter1"></feColorMatrix>
        </filter>
        <mask id="mask-35" maskContentUnits="userSpaceOnUse" maskUnits="objectBoundingBox" x="-0.545977011" y="-0.545977011" width="329.36506" height="192.183908">
            <rect x="-0.545977011" y="-0.545977011" width="329.36506" height="192.183908" fill="white"></rect>
            <use xlink:href="#path-33" fill="black"></use>
        </mask>
    </defs>
    <g id="Page-1" stroke="none" stroke-width="1" fill="none" fill-rule="evenodd">
        <g id="Group-22">
            <rect id="Rectangle-3-Copy-2" fill="#F3F4F8" x="0" y="0" width="900" height="475"></rect>
            <g id="Group-17-Copy" transform="translate(122.000000, 0.000000)">
                <g id="Group-16">
                    <use id="Rectangle-Copy" stroke="#C8D2D6" mask="url(#mask-2)" stroke-width="1.09195402" fill="#FFFFFF" xlink:href="#path-1"></use>
                    <polygon id="Header-BG-Copy" fill="#74CBE8" points="0 17.9704433 0 52.4137931 656 52.4137931 656 17.4712644"></polygon>
                    <path d="M641.938384,33.427685 C641.938384,35.3045848 640.409101,36.8266343 638.523281,36.8266343 C636.637462,36.8266343 635.108179,35.3045848 635.108179,33.427685 C635.108179,31.5507852 636.637462,30.0287356 638.523281,30.0287356 C640.409101,30.0287356 641.938384,31.5507852 641.938384,33.427685 Z M633.061166,41.2622633 C633.061166,41.2643026 633.060483,41.266342 633.060483,41.2677016 C633.060483,41.2724601 633.059117,41.2765388 633.059117,41.2812974 C633.061166,41.4403682 633.180695,41.5654495 633.334375,41.5906018 L643.645935,41.5906018 L643.645935,41.5858432 C643.650716,41.586523 643.654814,41.5885624 643.660279,41.5885624 C643.833766,41.5885624 643.971736,41.4532842 643.983347,41.2840165 C643.979932,39.4071167 642.738884,37.9985921 641.131737,37.2603403 C640.874921,37.1420568 640.572343,37.1277813 640.325089,37.2637392 C639.778673,37.5648861 639.149611,37.736873 638.480251,37.736873 C637.821819,37.736873 637.201637,37.5710043 636.660684,37.2786946 C636.416846,37.1468154 636.119732,37.1644899 635.869064,37.2827733 C634.293335,38.027823 633.072778,39.4132348 633.060483,41.2622633 L633.061166,41.2622633 Z" id="account-icon-copy" fill="#FFFFFF"></path>
                    <path d="M615.170691,41.2212644 C615.170691,40.9920205 615.079938,40.7736929 614.937325,40.5881146 C614.703959,40.2933724 614.302051,40.107794 613.848284,40.107794 C613.122257,40.107794 612.525878,40.6099473 612.525878,41.2212644 C612.525878,41.8325814 613.122257,42.3347347 613.848284,42.3347347 C614.522452,42.3347347 615.079938,41.9089961 615.157726,41.3522609 C615.157726,41.3085954 615.170691,41.2649299 615.170691,41.2212644 Z M617.563747,36.9322749 C617.535478,36.9044518 617.493076,36.8905403 617.450674,36.8627173 C617.450674,36.8627173 617.309332,36.7931597 617.238662,36.7653367 C615.924188,36.097584 615.372957,34.8455477 615.17508,34.205618 C615.146811,34.0665028 615.118543,33.9412992 615.076141,33.8021841 C615.076141,33.8021841 613.083229,31.0616157 611.316464,31.0616157 C611.30233,31.0616157 610.638026,30.5747126 610.214002,30.5747126 C609.422491,30.5747126 608.786456,31.2007308 608.772322,31.9797756 C607.924274,32.6892629 607.387177,33.746538 607.387177,34.9290167 C607.387177,35.3324507 607.443714,35.7080616 607.556787,36.069761 C607.556787,36.069761 607.570921,36.1114955 607.599189,36.1810531 C607.613323,36.2227876 607.627457,36.2645222 607.641592,36.3062567 C607.867738,36.9600979 608.447237,38.8798869 607.754665,40.0623657 C607.754665,40.0623657 607.443714,40.9387911 607.585055,41.3004905 C607.966676,42.3577656 609.832381,42.7055535 612.079707,42.260385 C611.881829,41.9960662 611.754622,41.6900129 611.698085,41.3561365 C610.284673,41.5787208 609.182211,41.3561365 608.956065,40.7440299 C608.659249,39.8954275 610.143332,38.6016566 612.305853,37.8504348 C614.454239,37.099213 616.447151,37.1826821 616.743967,38.0312845 C616.927711,38.5460106 616.433017,39.2415863 615.528433,39.8676045 C615.712176,40.1458348 615.839384,40.4657996 615.881786,40.8135875 C617.535478,39.8258699 618.496599,38.5738336 618.15738,37.6139391 C618.15738,37.6139391 617.860563,37.1131246 617.563747,36.9322749 Z" id="notifiacitons-icon-copy" fill="#FFFFFF"></path>
                    <g id="Oval-35-Copy">
                        <use fill="#FFFFFF" fill-rule="evenodd" xlink:href="#path-3"></use>
                        <use stroke="#72CAE8" mask="url(#mask-4)" stroke-width="2.45689655" xlink:href="#path-3"></use>
                    </g>
                    <text id="39-copy" font-family="AzoSans-Regular, Azo Sans" font-size="4.9137931" font-weight="normal" fill="#4FBEE3">
                        <tspan x="614.688771" y="32.8448276">39</tspan>
                    </text>
                    <path d="M595.916736,33.6611425 C595.916736,33.2609195 595.599977,32.9369695 595.203548,32.9201534 C595.204028,32.9187121 595.204028,32.9172707 595.204629,32.9159494 L591.766304,32.9159494 L590.612946,29.4582006 C590.612465,29.4582006 590.611865,29.4583207 590.611264,29.4583207 C590.516212,29.1569523 590.237426,28.9367816 589.904444,28.9367816 C589.551395,28.9367816 589.257468,29.182777 589.180681,29.5120121 C589.17984,29.511892 589.178879,29.5120121 589.178158,29.5117718 L588.042584,32.9159494 L584.661458,32.9159494 C584.65569,32.9158293 584.650403,32.9142678 584.644755,32.9142678 C584.233305,32.9141477 583.900083,33.2474667 583.900083,33.6585 C583.900083,33.8847966 584.003066,34.084908 584.162647,34.2214787 C584.161806,34.2226799 584.161325,34.2240011 584.160364,34.2252023 L587.053253,36.4481695 L585.976441,39.8934264 C585.9327,39.9881971 585.906504,40.0926971 585.906504,40.2041638 C585.906504,40.6151971 586.239966,40.9482759 586.651296,40.9482759 C586.82013,40.9482759 586.974183,40.8901402 587.099157,40.7954897 C587.100478,40.7966908 587.102161,40.7975316 587.103483,40.7986126 L589.911654,38.6468736 L592.619727,40.726904 C592.754914,40.8634747 592.942014,40.9482759 593.149301,40.9482759 C593.560751,40.9482759 593.894093,40.6151971 593.894093,40.2041638 C593.894093,40.1143178 593.875587,40.0292764 593.846387,39.9494 C593.84831,39.9491598 593.849872,39.9481989 593.851794,39.9479586 L592.761043,36.4627034 L595.611153,34.2607563 C595.610912,34.2606362 595.610552,34.260396 595.610311,34.2601557 C595.795128,34.1247862 595.916736,33.9078586 595.916736,33.6611425 L595.916736,33.6611425 Z" id="brand-icon-copy" fill="#FFFFFF"></path>
                    <path d="M8.73938385,33.7928423 L8.73938385,31.0278049 C8.73938385,30.3413015 9.3924423,29.4827586 10.2066042,29.4827586 L12.8345555,29.4827586 L11.6934714,30.6845532 L10.2066042,30.6845532 C10.0447149,30.6845532 9.8812538,30.8549384 9.8812538,31.0278049 L9.8812538,32.5918748 L8.73938385,33.7928423 Z M12.8345555,40.4022989 L10.2066042,40.4022989 C9.55511751,40.4022989 8.73938385,39.7157954 8.73938385,38.8572526 L8.73938385,36.0930423 L9.8812538,37.2940098 L9.8812538,38.8572526 C9.8812538,39.029292 10.0447149,39.2013314 10.2066042,39.2013314 L11.6934714,39.2013314 L12.8345555,40.4022989 Z M22.3946711,36.0930423 L22.3946711,38.8572526 C22.3946711,39.543756 21.7423985,40.4022989 20.9266649,40.4022989 L18.3002854,40.4022989 L19.4405836,39.2013314 L20.9266649,39.2013314 C21.0901259,39.2013314 21.2528011,39.029292 21.2528011,38.8572526 L21.2528011,37.2940098 L22.3946711,36.0930423 Z M18.3002854,29.4827586 L20.9266649,29.4827586 C21.5789374,29.4827586 22.3946711,30.1692621 22.3946711,31.0278049 L22.3946711,33.7928423 L21.2528011,32.5918748 L21.2528011,31.0278049 C21.2528011,30.8549384 21.0901259,30.6845532 20.9266649,30.6845532 L19.4405836,30.6845532 L18.3002854,29.4827586 Z" id="logo-copy" fill="#FFFFFF"></path>
                    <text id="Reports-3-Copy" font-family="AzoSans-Regular, Azo Sans" font-size="8.73563218" font-weight="normal" fill="#FFFFFF">
                        <tspan x="250.711074" y="39.5747126">Reports</tspan>
                    </text>
                    <rect id="Rectangle-99-Copy" fill="#5AAFCC" x="181.342215" y="24.5689655" width="58.4446295" height="21.8390805" rx="1.63793103"></rect>
                    <text id="Commerce-3-Copy" font-family="AzoSans-Regular, Azo Sans" font-size="8.73563218" font-weight="normal" fill="#FFFFFF">
                        <tspan x="188.442964" y="39.5747126">Commerce</tspan>
                    </text>
                    <text id="Photos-Copy" font-family="AzoSans-Regular, Azo Sans" font-size="8.73563218" font-weight="normal" fill="#FFFFFF">
                        <tspan x="143.10741" y="39.5747126">Photos</tspan>
                    </text>
                    <text id="Studio-Copy" font-family="AzoSans-Regular, Azo Sans" font-size="8.73563218" font-weight="normal" fill="#FFFFFF">
                        <tspan x="99.9567027" y="39.5747126">Studio</tspan>
                    </text>
                    <text id="Dashboard-Copy" font-family="AzoSans-Regular, Azo Sans" font-size="8.73563218" font-weight="normal" fill="#FFFFFF">
                        <tspan x="39.3272273" y="39.5747126">Dashboard</tspan>
                    </text>
                    <path d="M0.819317236,93.0890805 L655.25436,93.0890805" id="Line-Copy" stroke="#DAE1E3" stroke-width="0.545977011" stroke-linecap="square"></path>
                    <text id="Lab-Order-Defaults-Copy" font-family="AzoSans-Light, Azo Sans" font-size="12.0114943" font-weight="300" line-spacing="22.9310345" fill="#2B6376">
                        <tspan x="10.9242298" y="76.4252874">Lab Order Defaults</tspan>
                    </text>
                    <g id="Group-15-Copy" transform="translate(10.924230, 103.735632)">
                        <use id="Rectangle-340" stroke="#C7D2D6" mask="url(#mask-6)" stroke-width="1.09195402" fill="#FFFFFF" xlink:href="#path-5"></use>
                        <use id="Rectangle-26" stroke="#C7D2D6" mask="url(#mask-8)" stroke-width="1.09195402" fill="#F2F5F7" xlink:href="#path-7"></use>
                        <text id="Lab-Order-Defaults" font-family="AzoSans-Medium, Azo Sans" font-size="7.64367816" font-weight="400" line-spacing="19.1091954" fill="#2B6376">
                            <tspan x="14.2014988" y="14.0057471">Lab Order Defaults</tspan>
                        </text>
                        <text id="Your-orders-will-alw" font-family="AzoSans-Regular, Azo Sans" font-size="7.64367816" font-weight="normal" fill="#63808A">
                            <tspan x="14.7477102" y="58.2298851">Your orders will always be shipped to the lab listed on your price sheet. This </tspan>
                            <tspan x="14.7477102" y="69.6954023">setting will not change the lab you are sending your order to. Choosing your </tspan>
                            <tspan x="14.7477102" y="81.1609195">lab here allows you to set defaults for orders for your most used lab. If you use </tspan>
                            <tspan x="14.7477102" y="92.6264368">a different lab than your default, these settings will not apply.</tspan>
                        </text>
                        <text id="Select-Your-Lab" font-family="AzoSans-Medium, Azo Sans" font-size="7.64367816" font-weight="400" fill="#63808A">
                            <tspan x="14.2014988" y="40.7586207">Select Your Lab</tspan>
                        </text>
                        <text id="Boutique-Packaging" font-family="AzoSans-Medium, Azo Sans" font-size="7.64367816" font-weight="400" fill="#63808A">
                            <tspan x="14.2014988" y="145.04023">Boutique Packaging</tspan>
                        </text>
                        <text id="Shipping-Method" font-family="AzoSans-Medium, Azo Sans" font-size="7.64367816" font-weight="400" fill="#63808A">
                            <tspan x="14.2014988" y="254.235632">Shipping Method</tspan>
                        </text>
                        <text id="Backprinting-Text" font-family="AzoSans-Medium, Azo Sans" font-size="7.64367816" font-weight="400" fill="#63808A">
                            <tspan x="14.2014988" y="298.45977">Backprinting Text</tspan>
                        </text>
                        <text id="Ship-Order-To" font-family="AzoSans-Medium, Azo Sans" font-size="7.64367816" font-weight="400" fill="#63808A">
                            <tspan x="14.2014988" y="215.471264">Ship Order To</tspan>
                        </text>
                        <use id="Rectangle-311" stroke="#72CAE8" mask="url(#mask-10)" stroke-width="1.09195402" fill="#FFFFFF" xlink:href="#path-9"></use>
                        <path d="M19.4607974,195.338346 L17.597477,193.432803 C17.4391979,193.271351 17.4391979,193.009303 17.597477,192.847437 L18.1698722,192.262072 C18.3277464,192.100206 18.5843932,192.100206 18.7422674,192.262072 L19.6219101,193.161647 L22.661191,189.071539 C22.7963961,188.889389 23.050614,188.854201 23.2283237,188.992469 L23.8731791,189.493383 C24.0512936,189.631652 24.0861069,189.891217 23.9509018,190.073367 L20.0692203,195.29612 C19.9210615,195.496072 19.6344591,195.515943 19.4607974,195.338346" id="Checkmark-2" fill="#72CAE8"></path>
                        <text id="Color-Correct-Photos" font-family="AzoSans-Medium, Azo Sans" font-size="7.64367816" font-weight="400" line-spacing="19.1091954" fill="#63808A">
                            <tspan x="30.5878435" y="185.988506">Color Correct Photos</tspan>
                        </text>
                        <use id="Rectangle-311" stroke="#72CAE8" mask="url(#mask-12)" stroke-width="1.09195402" fill="#FFFFFF" xlink:href="#path-11"></use>
                        <path d="M19.4607974,345.482024 L17.597477,343.576481 C17.4391979,343.41503 17.4391979,343.152981 17.597477,342.991116 L18.1698722,342.40575 C18.3277464,342.243884 18.5843932,342.243884 18.7422674,342.40575 L19.6219101,343.305325 L22.661191,339.215217 C22.7963961,339.033067 23.050614,338.997879 23.2283237,339.136148 L23.8731791,339.637062 C24.0512936,339.77533 24.0861069,340.034895 23.9509018,340.217045 L20.0692203,345.439798 C19.9210615,345.63975 19.6344591,345.659621 19.4607974,345.482024" id="Checkmark-2" fill="#72CAE8"></path>
                        <text id="Shipment-Notificatio" font-family="AzoSans-Medium, Azo Sans" font-size="7.64367816" font-weight="400" line-spacing="19.1091954" fill="#63808A">
                            <tspan x="30.5878435" y="336.132184">Shipment Notification</tspan>
                        </text>
                        <use id="Rectangle-20" stroke="#B0BEC4" mask="url(#mask-14)" stroke-width="1.09195402" fill="#FFFFFF" xlink:href="#path-13"></use>
                        <text id="Black-River-Imaging" font-family="AzoSans-Regular, Azo Sans" font-size="7.64367816" font-weight="normal" fill="#67828D">
                            <tspan x="21.3022481" y="121.017241">Black River Imaging</tspan>
                        </text>
                        <path d="M115.14031,116.486228 C115.356333,116.270298 115.704072,116.267796 115.922598,116.486228 L118.928588,119.490928 C119.144611,119.706858 119.067646,119.881904 118.774845,119.881904 L112.288063,119.881904 C111.98713,119.881904 111.915795,119.70936 112.13432,119.490928 L115.14031,116.486228 Z" id="Triangle-1" fill="#627D89" transform="translate(115.532267, 118.087504) rotate(-180.000000) translate(-115.532267, -118.087504) "></path>
                        <use id="Rectangle-20" stroke="#B0BEC4" mask="url(#mask-16)" stroke-width="1.09195402" fill="#FFFFFF" xlink:href="#path-15"></use>
                        <text id="Boutique-Packaging" font-family="AzoSans-Regular, Azo Sans" font-size="7.64367816" font-weight="normal" fill="#67828D">
                            <tspan x="21.3022481" y="166.87931">Boutique Packaging</tspan>
                        </text>
                        <path d="M115.14031,162.348297 C115.356333,162.132367 115.704072,162.129865 115.922598,162.348297 L118.928588,165.352997 C119.144611,165.568927 119.067646,165.743973 118.774845,165.743973 L112.288063,165.743973 C111.98713,165.743973 111.915795,165.571429 112.13432,165.352997 L115.14031,162.348297 Z" id="Triangle-1" fill="#627D89" transform="translate(115.532267, 163.949573) rotate(-180.000000) translate(-115.532267, -163.949573) "></path>
                        <use id="Rectangle-20" stroke="#B0BEC4" mask="url(#mask-18)" stroke-width="1.09195402" fill="#FFFFFF" xlink:href="#path-17"></use>
                        <text id="Ground" font-family="AzoSans-Regular, Azo Sans" font-size="7.64367816" font-weight="normal" fill="#67828D">
                            <tspan x="21.3022481" y="276.074713">Ground</tspan>
                        </text>
                        <path d="M115.14031,271.543699 C115.356333,271.327769 115.704072,271.325268 115.922598,271.543699 L118.928588,274.548399 C119.144611,274.764329 119.067646,274.939375 118.774845,274.939375 L112.288063,274.939375 C111.98713,274.939375 111.915795,274.766831 112.13432,274.548399 L115.14031,271.543699 Z" id="Triangle-1" fill="#627D89" transform="translate(115.532267, 273.144975) rotate(-180.000000) translate(-115.532267, -273.144975) "></path>
                        <use id="Rectangle-20" stroke="#B0BEC4" mask="url(#mask-20)" stroke-width="1.09195402" fill="#FFFFFF" xlink:href="#path-19"></use>
                        <text id="Clicky-Click-Photogr" font-family="AzoSans-Regular, Azo Sans" font-size="7.64367816" font-weight="normal" fill="#67828D">
                            <tspan x="21.3022481" y="320.298851">Clicky Click Photography LLC</tspan>
                        </text>
                        <use id="Oval-4" stroke="#72CAE8" mask="url(#mask-22)" stroke-width="1.09195402" fill="#FFFFFF" xlink:href="#path-21"></use>
                        <ellipse id="Oval-5" fill="#72CAE8" cx="20.4829309" cy="231.221264" rx="3.0041632" ry="3.00287356"></ellipse>
                        <text id="Client’s-Address" font-family="AzoSans-Medium, Azo Sans" font-size="7.64367816" font-weight="400" fill="#627D89">
                            <tspan x="30.5878435" y="234.58046">Client’s Address</tspan>
                        </text>
                        <use id="Oval-4" stroke="#C8D2D6" mask="url(#mask-24)" stroke-width="1.09195402" fill="#FFFFFF" xlink:href="#path-23"></use>
                        <text id="Studio-Address" font-family="AzoSans-Medium, Azo Sans" font-size="7.64367816" font-weight="400" fill="#627D89">
                            <tspan x="115.796836" y="234.58046">Studio Address</tspan>
                        </text>
                    </g>
                    <ellipse id="Oval-1-Copy" stroke="#C7D2D6" stroke-width="0.545977011" cx="634.424646" cy="71.795977" rx="9.55870108" ry="9.5545977"></ellipse>
                    <path d="M632.133972,67.0903376 C632.631707,66.7695761 633.242781,66.6091954 633.96856,66.6091954 C634.921699,66.6091954 635.713705,66.8371408 636.34458,67.2923491 C636.975454,67.7475575 637.290891,68.4225216 637.290891,69.3165589 C637.290891,69.8645833 637.153655,70.3259339 636.88055,70.7012931 C636.720783,70.9292385 636.413539,71.2199713 635.958818,71.5741739 L635.510924,71.9222342 C635.267177,72.1112787 635.104679,72.3330819 635.024796,72.5862787 C634.974954,72.7466595 634.947644,72.995079 634.942864,73.3322198 L633.228443,73.3322198 C633.253705,72.6197198 633.320616,72.127658 633.430541,71.855352 C633.539784,71.5837284 633.821082,71.2704741 634.275121,70.9162716 L634.735987,70.5559267 C634.88756,70.441954 635.009092,70.3177443 635.101948,70.1826149 C635.270591,69.9505747 635.354571,69.6960129 635.354571,69.4175647 C635.354571,69.0974856 635.261032,68.8047055 635.073272,68.5412716 C634.886195,68.2778376 634.54413,68.1461207 634.04776,68.1461207 C633.559584,68.1461207 633.213422,68.3085489 633.009276,68.6334052 C632.805129,68.9582615 632.703397,69.2954023 632.703397,69.6455101 L630.874271,69.6455101 C630.924796,68.4429957 631.344696,67.591954 632.133972,67.0903376 L632.133972,67.0903376 Z M633.184063,74.1989583 L635.076003,74.1989583 L635.076003,76.0266164 L633.184063,76.0266164 L633.184063,74.1989583 Z" id="Imported-Layers-Copy" fill="#C7D2D6"></path>
                    <rect id="Rectangle-20-Copy" fill="#72CAE8" x="542.38801" y="62.2413793" width="76.4696087" height="19.1091954" rx="1.09195402"></rect>
                    <text id="Save-Copy" font-family="AzoSans-Regular, Azo Sans" font-size="6.55172414" font-weight="normal" fill="#FFFFFF">
                        <tspan x="573.602642" y="75.2471264">Save</tspan>
                    </text>
                    <use id="Rectangle-20-Copy-2" stroke="#C8D2D6" mask="url(#mask-26)" stroke-width="1.09195402" fill="#FFFFFF" xlink:href="#path-25"></use>
                    <text id="Cancel-Copy" font-family="AzoSans-Regular, Azo Sans" font-size="6.55172414" font-weight="normal" fill="#627D89">
                        <tspan x="489.052647" y="75.2471264">Cancel</tspan>
                    </text>
                    <ellipse id="Oval-Copy-3" fill="#FC635E" cx="11.1973356" cy="9.5545977" rx="4.09658618" ry="4.09482759"></ellipse>
                    <ellipse id="Oval-Copy-4" fill="#FDC041" cx="24.8526228" cy="9.5545977" rx="4.09658618" ry="4.09482759"></ellipse>
                    <ellipse id="Oval-Copy-5" fill="#35CC4B" cx="38.5079101" cy="9.5545977" rx="4.09658618" ry="4.09482759"></ellipse>
                    <g id="Group-11-Copy" transform="translate(338.104913, 103.735632)">
                        <g id="Group-5">
                            <use id="Rectangle-340" stroke="#C7D2D6" mask="url(#mask-28)" stroke-width="1.09195402" fill="#FFFFFF" xlink:href="#path-27"></use>
                            <use id="Rectangle-26" stroke="#C7D2D6" mask="url(#mask-30)" stroke-width="1.09195402" fill="#F2F5F7" xlink:href="#path-29"></use>
                            <text id="Auto-Approval-Settin" font-family="AzoSans-Medium, Azo Sans" font-size="7.64367816" font-weight="400" line-spacing="19.1091954" fill="#2B6376">
                                <tspan x="10.9242298" y="14.0057471">Auto Approval Settings</tspan>
                            </text>
                            <text id="Choosing-to-enable-a" font-family="AzoSans-Medium, Azo Sans" font-size="7.64367816" font-weight="400" fill="#63808A">
                                <tspan x="15.2939217" y="40.7586207">Choosing to enable auto-approval of orders allows orders to be </tspan>
                                <tspan x="15.2939217" y="52.2241379">automatically sent to the lab for printing. ShootProof cannot be held liable </tspan>
                                <tspan x="15.2939217" y="63.6896552">for incorrect settings.</tspan>
                            </text>
                            <g id="Warning-Alert" transform="translate(14.747710, 72.614943)">
                                <rect id="Level-2" fill="#FFEBB6" x="0" y="0" width="276.383014" height="29.4827586" rx="1.63793103"></rect>
                                <text id="The-settings-below-a" font-family="AzoSans-Medium, Azo Sans" font-size="6.55172414" font-weight="400" fill="#F5BE40">
                                    <tspan x="8.73938385" y="8.63793103">The settings below are very important. Learn more about the risks of turning </tspan>
                                    <tspan x="8.73938385" y="20.1034483">Auto Approval on. </tspan>
                                    <tspan x="66.6107632" y="20.1034483" text-decoration="underline">Learn more.</tspan>
                                </text>
                            </g>
                            <g id="checkbox-selected-copy" transform="translate(14.747710, 106.465517)">
                                <g id="Checkbox" transform="translate(0.000000, 8.189655)" stroke="#C8D2D6" stroke-width="1.09195402" fill="#FFFFFF">
                                    <use id="Rectangle-311" mask="url(#mask-32)" xlink:href="#path-31"></use>
                                </g>
                                <text id="Auto-Approve-Orders" font-family="AzoSans-Medium, Azo Sans" font-size="7.64367816" font-weight="400" line-spacing="19.1091954" fill="#2B6376">
                                    <tspan x="15.8401332" y="8">Auto Approve Orders</tspan>
                                </text>
                            </g>
                        </g>
                    </g>
                    <rect id="Rectangle-2" fill="#353535" opacity="0.628731343" x="0.54621149" y="52.4137931" width="654.361366" height="422.04023"></rect>
                </g>
                <g id="Group-12" transform="translate(163.863447, 141.954023)">
                    <g id="Group-6">
                        <g id="Rectangle-133" transform="translate(164.136553, 95.545977) scale(1, -1) translate(-164.136553, -95.545977) ">
                            <use fill="black" fill-opacity="1" filter="url(#filter-34)" xlink:href="#path-33"></use>
                            <use fill="#FFFFFF" fill-rule="evenodd" xlink:href="#path-33"></use>
                            <use stroke-opacity="0.1" stroke="#000000" mask="url(#mask-35)" stroke-width="1.09195402" xlink:href="#path-33"></use>
                        </g>
                        <path d="M314.225249,16.8598483 L317.11736,13.968978 C317.227227,13.8591586 317.227227,13.6813261 317.11736,13.5715067 L316.190362,12.6449057 C316.081119,12.5357103 315.90321,12.5357103 315.793344,12.6449057 L312.903105,15.5339041 L310.01786,12.639914 C309.908617,12.5300946 309.730708,12.5300946 309.620842,12.63929 L308.69197,13.5640191 C308.582104,13.6732145 308.582104,13.851047 308.691346,13.9608663 L311.579088,16.8573524 L308.699461,19.7357432 C308.590219,19.8455626 308.590219,20.0233951 308.699461,20.1325905 L309.62646,21.0591915 C309.736327,21.1690108 309.914235,21.1690108 310.024102,21.0591915 L312.901232,18.1832966 L315.772744,21.0635593 C315.88261,21.1733787 316.060519,21.1740026 316.170386,21.0641833 L317.098633,20.1400782 C317.2085,20.0302588 317.209124,19.8524263 317.099257,19.7426069 L314.225249,16.8598483" id="Imported-Layers-3" fill="#B1BFC4"></path>
                        <text id="Turn-on-Auto-Approva" font-family="AzoSans-Regular, Azo Sans" font-size="13.1034483" font-weight="normal" line-spacing="11.4655172" fill="#2A5969">
                            <tspan x="12.5628643" y="33.2011494">Turn on Auto Approval? </tspan>
                        </text>
                        <text id="Auto-Approval-will-s" font-family="AzoSans-Medium, Azo Sans" font-size="7.64367816" font-weight="400" fill="#63808A">
                            <tspan x="12.5628643" y="67.5114943">Auto Approval will send client orders to the lab without your prior approval. Your </tspan>
                            <tspan x="12.5628643" y="78.9770115">settings are very important. Once an order is sent to the lab, it cannot be changed or </tspan>
                            <tspan x="12.5628643" y="90.4425287">canceled. Are you sure you want to turn on Auto Approval?</tspan>
                        </text>
                        <rect id="Rectangle-136" fill="#48BEE5" x="225.039134" y="158.87931" width="92.3097419" height="22.9310345" rx="1.09195402"></rect>
                        <text id="Enable-Auto-Approval" font-family="AzoSans-Regular, Azo Sans" font-size="7.64367816" font-weight="normal" fill="#FFFFFF">
                            <tspan x="233.162884" y="173.431034">Enable Auto Approval</tspan>
                        </text>
                        <text id="Cancel" font-family="AzoSans-Regular, Azo Sans" font-size="7.64367816" font-weight="normal" fill="#2A5969">
                            <tspan x="174.922232" y="172.885057">Cancel</tspan>
                        </text>
                    </g>
                </g>
            </g>
        </g>
    </g>
</svg>