<?xml version="1.0" encoding="UTF-8" standalone="no"?>
<svg width="900px" height="475px" viewBox="0 0 900 475" version="1.1" xmlns="http://www.w3.org/2000/svg" xmlns:xlink="http://www.w3.org/1999/xlink">
    <!-- Generator: Sketch 40 (33762) - http://www.bohemiancoding.com/sketch -->
    <title>Group 24</title>
    <desc>Created with Sketch.</desc>
    <defs>
        <rect id="path-1" x="1.09226933" y="0" width="655.361596" height="475" rx="6.55172414"></rect>
        <mask id="mask-2" maskContentUnits="userSpaceOnUse" maskUnits="objectBoundingBox" x="0" y="0" width="655.361596" height="475" fill="white">
            <use xlink:href="#path-1"></use>
        </mask>
        <ellipse id="path-3" cx="618.569366" cy="30.8477011" rx="4.1678698" ry="4.09482759"></ellipse>
        <mask id="mask-4" maskContentUnits="userSpaceOnUse" maskUnits="objectBoundingBox" x="-1.22844828" y="-1.22844828" width="10.7926362" height="10.6465517">
            <rect x="613.173048" y="25.5244253" width="10.7926362" height="10.6465517" fill="white"></rect>
            <use xlink:href="#path-3" fill="black"></use>
        </mask>
        <rect id="path-5" x="0" y="0" width="305.835411" height="358.706897" rx="1.63793103"></rect>
        <mask id="mask-6" maskContentUnits="userSpaceOnUse" maskUnits="objectBoundingBox" x="0" y="0" width="305.835411" height="358.706897" fill="white">
            <use xlink:href="#path-5"></use>
        </mask>
        <rect id="path-7" x="0" y="0" width="305.835411" height="22.9310345" rx="1.63793103"></rect>
        <mask id="mask-8" maskContentUnits="userSpaceOnUse" maskUnits="objectBoundingBox" x="0" y="0" width="305.835411" height="22.9310345" fill="white">
            <use xlink:href="#path-7"></use>
        </mask>
        <rect id="path-9" x="14.7456359" y="186.178161" width="11.4688279" height="11.4655172" rx="1.09195402"></rect>
        <mask id="mask-10" maskContentUnits="userSpaceOnUse" maskUnits="objectBoundingBox" x="0" y="0" width="11.4688279" height="11.4655172" fill="white">
            <use xlink:href="#path-9"></use>
        </mask>
        <rect id="path-11" x="14.7456359" y="336.321839" width="11.4688279" height="11.4655172" rx="1.09195402"></rect>
        <mask id="mask-12" maskContentUnits="userSpaceOnUse" maskUnits="objectBoundingBox" x="0" y="0" width="11.4688279" height="11.4655172" fill="white">
            <use xlink:href="#path-11"></use>
        </mask>
        <rect id="path-13" x="14.7456359" y="105.91954" width="113.049875" height="22.9310345" rx="1.63793103"></rect>
        <mask id="mask-14" maskContentUnits="userSpaceOnUse" maskUnits="objectBoundingBox" x="0" y="0" width="113.049875" height="22.9310345" fill="white">
            <use xlink:href="#path-13"></use>
        </mask>
        <rect id="path-15" x="14.7456359" y="151.781609" width="113.049875" height="22.9310345" rx="1.63793103"></rect>
        <mask id="mask-16" maskContentUnits="userSpaceOnUse" maskUnits="objectBoundingBox" x="0" y="0" width="113.049875" height="22.9310345" fill="white">
            <use xlink:href="#path-15"></use>
        </mask>
        <rect id="path-17" x="14.7456359" y="260.977011" width="113.049875" height="22.9310345" rx="1.63793103"></rect>
        <mask id="mask-18" maskContentUnits="userSpaceOnUse" maskUnits="objectBoundingBox" x="0" y="0" width="113.049875" height="22.9310345" fill="white">
            <use xlink:href="#path-17"></use>
        </mask>
        <rect id="path-19" x="14.7456359" y="305.201149" width="132.164589" height="22.9310345" rx="1.63793103"></rect>
        <mask id="mask-20" maskContentUnits="userSpaceOnUse" maskUnits="objectBoundingBox" x="0" y="0" width="132.164589" height="22.9310345" fill="white">
            <use xlink:href="#path-19"></use>
        </mask>
        <ellipse id="path-21" cx="20.4800499" cy="231.221264" rx="5.73441397" ry="5.73275862"></ellipse>
        <mask id="mask-22" maskContentUnits="userSpaceOnUse" maskUnits="objectBoundingBox" x="0" y="0" width="11.4688279" height="11.4655172" fill="white">
            <use xlink:href="#path-21"></use>
        </mask>
        <ellipse id="path-23" cx="105.677057" cy="231.221264" rx="5.73441397" ry="5.73275862"></ellipse>
        <mask id="mask-24" maskContentUnits="userSpaceOnUse" maskUnits="objectBoundingBox" x="0" y="0" width="11.4688279" height="11.4655172" fill="white">
            <use xlink:href="#path-23"></use>
        </mask>
        <rect id="path-25" x="462.029925" y="62.2413793" width="76.4588529" height="19.1091954" rx="1.09195402"></rect>
        <mask id="mask-26" maskContentUnits="userSpaceOnUse" maskUnits="objectBoundingBox" x="0" y="0" width="76.4588529" height="19.1091954" fill="white">
            <use xlink:href="#path-25"></use>
        </mask>
        <rect id="path-27" x="0" y="0" width="305.835411" height="242.413793" rx="1.63793103"></rect>
        <mask id="mask-28" maskContentUnits="userSpaceOnUse" maskUnits="objectBoundingBox" x="0" y="0" width="305.835411" height="242.413793" fill="white">
            <use xlink:href="#path-27"></use>
        </mask>
        <rect id="path-29" x="0" y="0" width="305.835411" height="22.9310345" rx="1.63793103"></rect>
        <mask id="mask-30" maskContentUnits="userSpaceOnUse" maskUnits="objectBoundingBox" x="0" y="0" width="305.835411" height="22.9310345" fill="white">
            <use xlink:href="#path-29"></use>
        </mask>
        <rect id="path-31" x="0" y="0" width="77.5511222" height="22.9310345" rx="1.63793103"></rect>
        <mask id="mask-32" maskContentUnits="userSpaceOnUse" maskUnits="objectBoundingBox" x="0" y="0" width="77.5511222" height="22.9310345" fill="white">
            <use xlink:href="#path-31"></use>
        </mask>
        <rect id="path-33" x="0" y="0" width="11.4688279" height="11.4655172" rx="1.63793103"></rect>
        <mask id="mask-34" maskContentUnits="userSpaceOnUse" maskUnits="objectBoundingBox" x="0" y="0" width="11.4688279" height="11.4655172" fill="white">
            <use xlink:href="#path-33"></use>
        </mask>
        <rect id="path-35" x="0" y="0" width="11.4688279" height="11.4655172" rx="1.09195402"></rect>
        <mask id="mask-36" maskContentUnits="userSpaceOnUse" maskUnits="objectBoundingBox" x="0" y="0" width="11.4688279" height="11.4655172" fill="white">
            <use xlink:href="#path-35"></use>
        </mask>
    </defs>
    <g id="Page-1" stroke="none" stroke-width="1" fill="none" fill-rule="evenodd">
        <g id="Group-24">
            <rect id="Rectangle-3-Copy-4" fill="#F3F4F8" x="0" y="0" width="900" height="475"></rect>
            <g id="Group-19-Copy" transform="translate(122.000000, 0.000000)">
                <use id="Rectangle-Copy-3" stroke="#C8D2D6" mask="url(#mask-2)" stroke-width="1.09195402" fill="#FFFFFF" xlink:href="#path-1"></use>
                <polygon id="Header-BG-Copy-3" fill="#74CBE8" points="1.09226933 17.9704433 1.09226933 52.4137931 657 52.4137931 657 17.4712644"></polygon>
                <path d="M642.940362,33.427685 C642.940362,35.3045848 641.411294,36.8266343 639.52574,36.8266343 C637.640185,36.8266343 636.111117,35.3045848 636.111117,33.427685 C636.111117,31.5507852 637.640185,30.0287356 639.52574,30.0287356 C641.411294,30.0287356 642.940362,31.5507852 642.940362,33.427685 Z M634.064393,41.2622633 C634.064393,41.2643026 634.06371,41.266342 634.06371,41.2677016 C634.06371,41.2724601 634.062344,41.2765388 634.062344,41.2812974 C634.064393,41.4403682 634.183905,41.5654495 634.337563,41.5906018 L644.647673,41.5906018 L644.647673,41.5858432 C644.652453,41.586523 644.656551,41.5885624 644.662014,41.5885624 C644.835477,41.5885624 644.973428,41.4532842 644.985037,41.2840165 C644.981623,39.4071167 643.740749,37.9985921 642.133828,37.2603403 C641.877048,37.1420568 641.574513,37.1277813 641.327294,37.2637392 C640.780955,37.5648861 640.151981,37.736873 639.482715,37.736873 C638.824376,37.736873 638.204281,37.5710043 637.663405,37.2786946 C637.419601,37.1468154 637.122528,37.1644899 636.871895,37.2827733 C635.296389,38.027823 634.076003,39.4132348 634.06371,41.2622633 L634.064393,41.2622633 Z" id="account-icon-copy-3" fill="#FFFFFF"></path>
                <path d="M616.176434,41.2212644 C616.176434,40.9920205 616.085693,40.7736929 615.943101,40.5881146 C615.709768,40.2933724 615.307916,40.107794 614.854213,40.107794 C614.128288,40.107794 613.531992,40.6099473 613.531992,41.2212644 C613.531992,41.8325814 614.128288,42.3347347 614.854213,42.3347347 C615.528286,42.3347347 616.085693,41.9089961 616.163471,41.3522609 C616.163471,41.3085954 616.176434,41.2649299 616.176434,41.2212644 Z M618.569153,36.9322749 C618.540889,36.9044518 618.498492,36.8905403 618.456096,36.8627173 C618.456096,36.8627173 618.314774,36.7931597 618.244114,36.7653367 C616.929825,36.097584 616.378672,34.8455477 616.180822,34.205618 C616.152558,34.0665028 616.124293,33.9412992 616.081897,33.8021841 C616.081897,33.8021841 614.089266,31.0616157 612.322749,31.0616157 C612.308617,31.0616157 611.644406,30.5747126 611.220442,30.5747126 C610.429043,30.5747126 609.793096,31.2007308 609.778964,31.9797756 C608.931036,32.6892629 608.394015,33.746538 608.394015,34.9290167 C608.394015,35.3324507 608.450544,35.7080616 608.563601,36.069761 C608.563601,36.069761 608.577733,36.1114955 608.605997,36.1810531 C608.620129,36.2227876 608.634261,36.2645222 608.648393,36.3062567 C608.874508,36.9600979 609.453925,38.8798869 608.76145,40.0623657 C608.76145,40.0623657 608.450544,40.9387911 608.591865,41.3004905 C608.973433,42.3577656 610.838874,42.7055535 613.085884,42.260385 C612.888034,41.9960662 612.760845,41.6900129 612.704316,41.3561365 C611.291103,41.5787208 610.188796,41.3561365 609.962682,40.7440299 C609.665907,39.8954275 611.149781,38.6016566 613.311998,37.8504348 C615.460083,37.099213 617.452714,37.1826821 617.749489,38.0312845 C617.933207,38.5460106 617.438582,39.2415863 616.534125,39.8676045 C616.717843,40.1458348 616.845032,40.4657996 616.887429,40.8135875 C618.540889,39.8258699 619.501874,38.5738336 619.162703,37.6139391 C619.162703,37.6139391 618.865928,37.1131246 618.569153,36.9322749 Z" id="notifiacitons-icon-copy-3" fill="#FFFFFF"></path>
                <g id="Oval-35-Copy-3">
                    <use fill="#FFFFFF" fill-rule="evenodd" xlink:href="#path-3"></use>
                    <use stroke="#72CAE8" mask="url(#mask-4)" stroke-width="2.45689655" xlink:href="#path-3"></use>
                </g>
                <text id="39-copy-3" font-family="AzoSans-Regular, Azo Sans" font-size="4.9137931" font-weight="normal" fill="#4FBEE3">
                    <tspan x="615.694187" y="32.8448276">39</tspan>
                </text>
                <path d="M596.925187,33.6611425 C596.925187,33.2609195 596.608473,32.9369695 596.212099,32.9201534 C596.21258,32.9187121 596.21258,32.9172707 596.21318,32.9159494 L592.775339,32.9159494 L591.622143,29.4582006 C591.621662,29.4582006 591.621062,29.4583207 591.620461,29.4583207 C591.525423,29.1569523 591.246675,28.9367816 590.913741,28.9367816 C590.560741,28.9367816 590.266855,29.182777 590.19008,29.5120121 C590.189239,29.511892 590.188277,29.5120121 590.187556,29.5117718 L589.052142,32.9159494 L585.671492,32.9159494 C585.665725,32.9158293 585.660439,32.9142678 585.654792,32.9142678 C585.243399,32.9141477 584.910224,33.2474667 584.910224,33.6585 C584.910224,33.8847966 585.013193,34.084908 585.172751,34.2214787 C585.17191,34.2226799 585.17143,34.2240011 585.170469,34.2252023 L588.062951,36.4481695 L586.98629,39.8934264 C586.942555,39.9881971 586.916363,40.0926971 586.916363,40.2041638 C586.916363,40.6151971 587.249778,40.9482759 587.66105,40.9482759 C587.82986,40.9482759 587.983892,40.8901402 588.108848,40.7954897 C588.110169,40.7966908 588.111852,40.7975316 588.113173,40.7986126 L590.92095,38.6468736 L593.628642,40.726904 C593.76381,40.8634747 593.950883,40.9482759 594.158141,40.9482759 C594.569533,40.9482759 594.902829,40.6151971 594.902829,40.2041638 C594.902829,40.1143178 594.884325,40.0292764 594.855129,39.9494 C594.857052,39.9491598 594.858613,39.9481989 594.860536,39.9479586 L593.769938,36.4627034 L596.619647,34.2607563 C596.619406,34.2606362 596.619046,34.260396 596.618805,34.2601557 C596.803596,34.1247862 596.925187,33.9078586 596.925187,33.6611425 L596.925187,33.6611425 Z" id="brand-icon-copy-3" fill="#FFFFFF"></path>
                <path d="M9.83042394,33.7928423 L9.83042394,31.0278049 C9.83042394,30.3413015 10.4833905,29.4827586 11.2974379,29.4827586 L13.9250195,29.4827586 L12.784096,30.6845532 L11.2974379,30.6845532 C11.1355714,30.6845532 10.9721333,30.8549384 10.9721333,31.0278049 L10.9721333,32.5918748 L9.83042394,33.7928423 Z M13.9250195,40.4022989 L11.2974379,40.4022989 C10.6460429,40.4022989 9.83042394,39.7157954 9.83042394,38.8572526 L9.83042394,36.0930423 L10.9721333,37.2940098 L10.9721333,38.8572526 C10.9721333,39.029292 11.1355714,39.2013314 11.2974379,39.2013314 L12.784096,39.2013314 L13.9250195,40.4022989 Z M23.4837905,36.0930423 L23.4837905,38.8572526 C23.4837905,39.543756 22.8316097,40.4022989 22.0159908,40.4022989 L19.3899807,40.4022989 L20.5301185,39.2013314 L22.0159908,39.2013314 C22.1794288,39.2013314 22.3420812,39.029292 22.3420812,38.8572526 L22.3420812,37.2940098 L23.4837905,36.0930423 Z M19.3899807,29.4827586 L22.0159908,29.4827586 C22.6681716,29.4827586 23.4837905,30.1692621 23.4837905,31.0278049 L23.4837905,33.7928423 L22.3420812,32.5918748 L22.3420812,31.0278049 C22.3420812,30.8549384 22.1794288,30.6845532 22.0159908,30.6845532 L20.5301185,30.6845532 L19.3899807,29.4827586 Z" id="logo-copy-3" fill="#FFFFFF"></path>
                <text id="Reports-3-Copy-3" font-family="AzoSans-Regular, Azo Sans" font-size="8.73563218" font-weight="normal" fill="#FFFFFF">
                    <tspan x="251.76808" y="39.5747126">Reports</tspan>
                </text>
                <rect id="Rectangle-99-Copy-3" fill="#5AAFCC" x="182.408978" y="24.5689655" width="58.436409" height="21.8390805" rx="1.63793103"></rect>
                <text id="Commerce-3-Copy-3" font-family="AzoSans-Regular, Azo Sans" font-size="8.73563218" font-weight="normal" fill="#FFFFFF">
                    <tspan x="189.508728" y="39.5747126">Commerce</tspan>
                </text>
                <text id="Photos-Copy-3" font-family="AzoSans-Regular, Azo Sans" font-size="8.73563218" font-weight="normal" fill="#FFFFFF">
                    <tspan x="144.179551" y="39.5747126">Photos</tspan>
                </text>
                <text id="Studio-Copy-3" font-family="AzoSans-Regular, Azo Sans" font-size="8.73563218" font-weight="normal" fill="#FFFFFF">
                    <tspan x="101.034913" y="39.5747126">Studio</tspan>
                </text>
                <text id="Dashboard-Copy-3" font-family="AzoSans-Regular, Azo Sans" font-size="8.73563218" font-weight="normal" fill="#FFFFFF">
                    <tspan x="40.4139651" y="39.5747126">Dashboard</tspan>
                </text>
                <path d="M0.273067332,93.0890805 L656.254465,93.0890805" id="Line-Copy-3" stroke="#DAE1E3" stroke-width="0.545977011" stroke-linecap="square"></path>
                <text id="Lab-Order-Defaults-Copy-3" font-family="AzoSans-Light, Azo Sans" font-size="12.0114943" font-weight="300" line-spacing="22.9310345" fill="#2B6376">
                    <tspan x="12.0149626" y="76.4252874">Lab Order Defaults</tspan>
                </text>
                <g id="Group-15-Copy-3" transform="translate(12.014963, 103.735632)">
                    <use id="Rectangle-340" stroke="#C7D2D6" mask="url(#mask-6)" stroke-width="1.09195402" fill="#FFFFFF" xlink:href="#path-5"></use>
                    <use id="Rectangle-26" stroke="#C7D2D6" mask="url(#mask-8)" stroke-width="1.09195402" fill="#F2F5F7" xlink:href="#path-7"></use>
                    <text id="Lab-Order-Defaults" font-family="AzoSans-Medium, Azo Sans" font-size="7.64367816" font-weight="400" line-spacing="19.1091954" fill="#2B6376">
                        <tspan x="14.1995012" y="14.0057471">Lab Order Defaults</tspan>
                    </text>
                    <text id="Your-orders-will-alw" font-family="AzoSans-Regular, Azo Sans" font-size="7.64367816" font-weight="normal" fill="#63808A">
                        <tspan x="14.7456359" y="58.2298851">Your orders will always be shipped to the lab listed on your price sheet. This </tspan>
                        <tspan x="14.7456359" y="69.6954023">setting will not change the lab you are sending your order to. Choosing your </tspan>
                        <tspan x="14.7456359" y="81.1609195">lab here allows you to set defaults for orders for your most used lab. If you use </tspan>
                        <tspan x="14.7456359" y="92.6264368">a different lab than your default, these settings will not apply.</tspan>
                    </text>
                    <text id="Select-Your-Lab" font-family="AzoSans-Medium, Azo Sans" font-size="7.64367816" font-weight="400" fill="#63808A">
                        <tspan x="14.1995012" y="40.7586207">Select Your Lab</tspan>
                    </text>
                    <text id="Boutique-Packaging" font-family="AzoSans-Medium, Azo Sans" font-size="7.64367816" font-weight="400" fill="#63808A">
                        <tspan x="14.1995012" y="145.04023">Boutique Packaging</tspan>
                    </text>
                    <text id="Shipping-Method" font-family="AzoSans-Medium, Azo Sans" font-size="7.64367816" font-weight="400" fill="#63808A">
                        <tspan x="14.1995012" y="254.235632">Shipping Method</tspan>
                    </text>
                    <text id="Backprinting-Text" font-family="AzoSans-Medium, Azo Sans" font-size="7.64367816" font-weight="400" fill="#63808A">
                        <tspan x="14.1995012" y="298.45977">Backprinting Text</tspan>
                    </text>
                    <text id="Ship-Order-To" font-family="AzoSans-Medium, Azo Sans" font-size="7.64367816" font-weight="400" fill="#63808A">
                        <tspan x="14.1995012" y="215.471264">Ship Order To</tspan>
                    </text>
                    <use id="Rectangle-311" stroke="#72CAE8" mask="url(#mask-10)" stroke-width="1.09195402" fill="#FFFFFF" xlink:href="#path-9"></use>
                    <path d="M19.4580602,195.338346 L17.5950018,193.432803 C17.436745,193.271351 17.436745,193.009303 17.5950018,192.847437 L18.1673165,192.262072 C18.3251685,192.100206 18.5817792,192.100206 18.7396312,192.262072 L19.6191502,193.161647 L22.6580036,189.071539 C22.7931897,188.889389 23.0473719,188.854201 23.2250566,188.992469 L23.8698213,189.493383 C24.0479107,189.631652 24.0827191,189.891217 23.947533,190.073367 L20.0663975,195.29612 C19.9182595,195.496072 19.6316974,195.515943 19.4580602,195.338346" id="Checkmark-2" fill="#72CAE8"></path>
                    <text id="Color-Correct-Photos" font-family="AzoSans-Medium, Azo Sans" font-size="7.64367816" font-weight="400" line-spacing="19.1091954" fill="#63808A">
                        <tspan x="30.5835411" y="185.988506">Color Correct Photos</tspan>
                    </text>
                    <use id="Rectangle-311" stroke="#72CAE8" mask="url(#mask-12)" stroke-width="1.09195402" fill="#FFFFFF" xlink:href="#path-11"></use>
                    <path d="M19.4580602,345.482024 L17.5950018,343.576481 C17.436745,343.41503 17.436745,343.152981 17.5950018,342.991116 L18.1673165,342.40575 C18.3251685,342.243884 18.5817792,342.243884 18.7396312,342.40575 L19.6191502,343.305325 L22.6580036,339.215217 C22.7931897,339.033067 23.0473719,338.997879 23.2250566,339.136148 L23.8698213,339.637062 C24.0479107,339.77533 24.0827191,340.034895 23.947533,340.217045 L20.0663975,345.439798 C19.9182595,345.63975 19.6316974,345.659621 19.4580602,345.482024" id="Checkmark-2" fill="#72CAE8"></path>
                    <text id="Shipment-Notificatio" font-family="AzoSans-Medium, Azo Sans" font-size="7.64367816" font-weight="400" line-spacing="19.1091954" fill="#63808A">
                        <tspan x="30.5835411" y="336.132184">Shipment Notification</tspan>
                    </text>
                    <use id="Rectangle-20" stroke="#B0BEC4" mask="url(#mask-14)" stroke-width="1.09195402" fill="#FFFFFF" xlink:href="#path-13"></use>
                    <text id="Black-River-Imaging" font-family="AzoSans-Regular, Azo Sans" font-size="7.64367816" font-weight="normal" fill="#67828D">
                        <tspan x="21.2992519" y="121.017241">Black River Imaging</tspan>
                    </text>
                    <path d="M115.124115,116.486228 C115.340108,116.270298 115.687798,116.267796 115.906293,116.486228 L118.91186,119.490928 C119.127853,119.706858 119.050899,119.881904 118.758138,119.881904 L112.27227,119.881904 C111.971379,119.881904 111.900053,119.70936 112.118548,119.490928 L115.124115,116.486228 Z" id="Triangle-1" fill="#627D89" transform="translate(115.516017, 118.087504) rotate(-180.000000) translate(-115.516017, -118.087504) "></path>
                    <use id="Rectangle-20" stroke="#B0BEC4" mask="url(#mask-16)" stroke-width="1.09195402" fill="#FFFFFF" xlink:href="#path-15"></use>
                    <text id="Boutique-Packaging" font-family="AzoSans-Regular, Azo Sans" font-size="7.64367816" font-weight="normal" fill="#67828D">
                        <tspan x="21.2992519" y="166.87931">Boutique Packaging</tspan>
                    </text>
                    <path d="M115.124115,162.348297 C115.340108,162.132367 115.687798,162.129865 115.906293,162.348297 L118.91186,165.352997 C119.127853,165.568927 119.050899,165.743973 118.758138,165.743973 L112.27227,165.743973 C111.971379,165.743973 111.900053,165.571429 112.118548,165.352997 L115.124115,162.348297 Z" id="Triangle-1" fill="#627D89" transform="translate(115.516017, 163.949573) rotate(-180.000000) translate(-115.516017, -163.949573) "></path>
                    <use id="Rectangle-20" stroke="#B0BEC4" mask="url(#mask-18)" stroke-width="1.09195402" fill="#FFFFFF" xlink:href="#path-17"></use>
                    <text id="Ground" font-family="AzoSans-Regular, Azo Sans" font-size="7.64367816" font-weight="normal" fill="#67828D">
                        <tspan x="21.2992519" y="276.074713">Ground</tspan>
                    </text>
                    <path d="M115.124115,271.543699 C115.340108,271.327769 115.687798,271.325268 115.906293,271.543699 L118.91186,274.548399 C119.127853,274.764329 119.050899,274.939375 118.758138,274.939375 L112.27227,274.939375 C111.971379,274.939375 111.900053,274.766831 112.118548,274.548399 L115.124115,271.543699 Z" id="Triangle-1" fill="#627D89" transform="translate(115.516017, 273.144975) rotate(-180.000000) translate(-115.516017, -273.144975) "></path>
                    <use id="Rectangle-20" stroke="#B0BEC4" mask="url(#mask-20)" stroke-width="1.09195402" fill="#FFFFFF" xlink:href="#path-19"></use>
                    <text id="Clicky-Click-Photogr" font-family="AzoSans-Regular, Azo Sans" font-size="7.64367816" font-weight="normal" fill="#67828D">
                        <tspan x="21.2992519" y="320.298851">Clicky Click Photography LLC</tspan>
                    </text>
                    <use id="Oval-4" stroke="#72CAE8" mask="url(#mask-22)" stroke-width="1.09195402" fill="#FFFFFF" xlink:href="#path-21"></use>
                    <ellipse id="Oval-5" fill="#72CAE8" cx="20.4800499" cy="231.221264" rx="3.00374065" ry="3.00287356"></ellipse>
                    <text id="Client’s-Address" font-family="AzoSans-Medium, Azo Sans" font-size="7.64367816" font-weight="400" fill="#627D89">
                        <tspan x="30.5835411" y="234.58046">Client’s Address</tspan>
                    </text>
                    <use id="Oval-4" stroke="#C8D2D6" mask="url(#mask-24)" stroke-width="1.09195402" fill="#FFFFFF" xlink:href="#path-23"></use>
                    <text id="Studio-Address" font-family="AzoSans-Medium, Azo Sans" font-size="7.64367816" font-weight="400" fill="#627D89">
                        <tspan x="115.780549" y="234.58046">Studio Address</tspan>
                    </text>
                </g>
                <ellipse id="Oval-1-Copy-3" stroke="#C7D2D6" stroke-width="0.545977011" cx="635.427681" cy="71.795977" rx="9.55735661" ry="9.5545977"></ellipse>
                <path d="M633.137329,67.0903376 C633.634994,66.7695761 634.245982,66.6091954 634.971658,66.6091954 C635.924663,66.6091954 636.716559,66.8371408 637.347344,67.2923491 C637.97813,67.7475575 638.293522,68.4225216 638.293522,69.3165589 C638.293522,69.8645833 638.156306,70.3259339 637.883239,70.7012931 C637.723494,70.9292385 637.416294,71.2199713 636.961637,71.5741739 L636.513806,71.9222342 C636.270094,72.1112787 636.107618,72.3330819 636.027746,72.5862787 C635.977911,72.7466595 635.950605,72.995079 635.945826,73.3322198 L634.231646,73.3322198 C634.256905,72.6197198 634.323806,72.127658 634.433716,71.855352 C634.542943,71.5837284 634.824202,71.2704741 635.278176,70.9162716 L635.738978,70.5559267 C635.89053,70.441954 636.012045,70.3177443 636.104888,70.1826149 C636.273507,69.9505747 636.357475,69.6960129 636.357475,69.4175647 C636.357475,69.0974856 636.26395,68.8047055 636.076216,68.5412716 C635.889165,68.2778376 635.547148,68.1461207 635.050848,68.1461207 C634.56274,68.1461207 634.216627,68.3085489 634.012509,68.6334052 C633.808392,68.9582615 633.706674,69.2954023 633.706674,69.6455101 L631.877805,69.6455101 C631.928323,68.4429957 632.348164,67.591954 633.137329,67.0903376 L633.137329,67.0903376 Z M634.187272,74.1989583 L636.078946,74.1989583 L636.078946,76.0266164 L634.187272,76.0266164 L634.187272,74.1989583 Z" id="Imported-Layers-Copy-3" fill="#C7D2D6"></path>
                <rect id="Rectangle-20-Copy-5" fill="#72CAE8" x="543.40399" y="62.2413793" width="76.4588529" height="19.1091954" rx="1.09195402"></rect>
                <text id="Save-Copy-3" font-family="AzoSans-Regular, Azo Sans" font-size="6.55172414" font-weight="normal" fill="#FFFFFF">
                    <tspan x="574.613244" y="75.2471264">Save</tspan>
                </text>
                <use id="Rectangle-20-Copy-6" stroke="#C8D2D6" mask="url(#mask-26)" stroke-width="1.09195402" fill="#FFFFFF" xlink:href="#path-25"></use>
                <text id="Cancel-Copy-3" font-family="AzoSans-Regular, Azo Sans" font-size="6.55172414" font-weight="normal" fill="#627D89">
                    <tspan x="490.074696" y="75.2471264">Cancel</tspan>
                </text>
                <ellipse id="Oval-Copy-9" fill="#FC635E" cx="12.2880299" cy="9.5545977" rx="4.09600998" ry="4.09482759"></ellipse>
                <ellipse id="Oval-Copy-10" fill="#FDC041" cx="25.9413965" cy="9.5545977" rx="4.09600998" ry="4.09482759"></ellipse>
                <ellipse id="Oval-Copy-11" fill="#35CC4B" cx="39.5947631" cy="9.5545977" rx="4.09600998" ry="4.09482759"></ellipse>
                <g id="Group-7" transform="translate(339.695761, 103.735632)">
                    <g id="Group-13-Copy">
                        <g id="Group-4">
                            <use id="Rectangle-340-Copy" stroke="#C7D2D6" mask="url(#mask-28)" stroke-width="1.09195402" fill="#FFFFFF" xlink:href="#path-27"></use>
                            <text id="Choosing-to-enable-a" font-family="AzoSans-Medium, Azo Sans" font-size="7.64367816" font-weight="400" fill="#63808A">
                                <tspan x="13.1072319" y="45.6724138">Choosing to enable auto-approval of orders allows orders to be automatically </tspan>
                                <tspan x="13.1072319" y="57.137931">sent to the lab for printing. ShootProof cannot be held liable for incorrect </tspan>
                                <tspan x="13.1072319" y="68.6034483">settings.</tspan>
                            </text>
                            <g id="Warning-Alert" transform="translate(12.561097, 77.528736)">
                                <rect id="Level-2" fill="#FFEBB6" x="0" y="0" width="279.620948" height="29.4827586" rx="1.63793103"></rect>
                                <text id="The-settings-below-a" font-family="AzoSans-Medium, Azo Sans" font-size="6.55172414" font-weight="400" fill="#F5BE40">
                                    <tspan x="8.73815461" y="8.63793103">The settings below are very important. Learn more about the risks of turning </tspan>
                                    <tspan x="8.73815461" y="20.1034483">Auto Approval on. Learn more.</tspan>
                                </text>
                            </g>
                            <use id="Rectangle-26-Copy" stroke="#C7D2D6" mask="url(#mask-30)" stroke-width="1.09195402" fill="#F2F5F7" xlink:href="#path-29"></use>
                            <text id="Auto-Approval-Settin-Copy" font-family="AzoSans-Medium, Azo Sans" font-size="7.64367816" font-weight="400" line-spacing="19.1091954" fill="#2B6376">
                                <tspan x="7.64588529" y="14.0057471">Auto Approval Settings</tspan>
                            </text>
                            <g id="Group-8" transform="translate(13.107232, 110.833333)">
                                <g id="Group-3-Copy-2" transform="translate(16.384040, 24.568966)" font-size="7.64367816" font-family="AzoSans-Medium, Azo Sans" fill="#889EA6" font-weight="400">
                                    <text id="Your-orders-will-now">
                                        <tspan x="0.273067332" y="8">Your orders will now be automatically sent to the lab for printing.</tspan>
                                    </text>
                                </g>
                                <g id="Group-3" transform="translate(15.837905, 41.494253)">
                                    <g id="Group">
                                        <text id="Auto-Send-Time-Copy" font-family="AzoSans-Medium, Azo Sans" font-size="7.64367816" font-weight="400" fill="#2B6376">
                                            <tspan x="1.09226933" y="8">Auto Send Time</tspan>
                                        </text>
                                        <g id="Group-4-Copy" transform="translate(0.000000, 18.017241)">
                                            <use id="Rectangle-20" stroke="#B0BEC4" mask="url(#mask-32)" stroke-width="1.09195402" fill="#FFFFFF" xlink:href="#path-31"></use>
                                            <text id="3-Days" font-family="AzoSans-Regular, Azo Sans" font-size="7.64367816" font-weight="normal" fill="#67828D">
                                                <tspan x="6.55361596" y="15.0977011">3 Days</tspan>
                                            </text>
                                            <path d="M65.9719955,11.112665 C66.1879879,10.8967349 66.5356784,10.8942332 66.7541732,11.112665 L69.7597405,14.1173647 C69.9757329,14.3332947 69.8987792,14.5083406 69.6060188,14.5083406 L63.1201499,14.5083406 C62.8192593,14.5083406 62.7479334,14.3357964 62.9664281,14.1173647 L65.9719955,11.112665 Z" id="Triangle-1" fill="#627D89" transform="translate(66.363897, 12.713940) rotate(-180.000000) translate(-66.363897, -12.713940) "></path>
                                        </g>
                                    </g>
                                </g>
                                <g id="Group-2" transform="translate(15.837905, 96.091954)">
                                    <text id="Will-be-sent-to-benj" font-family="AzoSans-Medium, Azo Sans" font-size="7.64367816" font-weight="400" fill="#B1BFC4">
                                        <tspan x="15.5648379" y="21.6494253">Will be sent to benjamin@shootproof.com</tspan>
                                    </text>
                                    <g id="checkbox-selected">
                                        <use id="Rectangle-60" stroke="#72CAE8" mask="url(#mask-34)" stroke-width="1.09195402" fill="#FFFFFF" xlink:href="#path-33"></use>
                                        <text id="Email-of-Order-Sent-" font-family="AzoSans-Medium, Azo Sans" font-size="7.64367816" font-weight="400" fill="#516D77">
                                            <tspan x="15.8379052" y="9.09195402">Email of Order Sent to the Lab</tspan>
                                        </text>
                                    </g>
                                </g>
                                <g id="checkbox-selected">
                                    <g id="Checkbox" transform="translate(0.000000, 8.189655)">
                                        <use id="Rectangle-311" stroke="#72CAE8" mask="url(#mask-36)" stroke-width="1.09195402" fill="#FFFFFF" xlink:href="#path-35"></use>
                                        <path d="M4.71242426,9.16018516 L2.84936588,7.25464205 C2.69110913,7.09319043 2.69110913,6.83114202 2.84936588,6.66927642 L3.42168058,6.0839108 C3.57953258,5.9220452 3.83614327,5.9220452 3.99399528,6.0839108 L4.87351426,6.98348612 L7.91236769,2.89337838 C8.04755376,2.71122783 8.30173596,2.67603966 8.47942065,2.81430848 L9.12418537,3.31522249 C9.30227481,3.45349131 9.3370832,3.71305584 9.20189713,3.89520639 L5.3207616,9.11795935 C5.17262356,9.31791097 4.88606147,9.33778194 4.71242426,9.16018516" id="Checkmark-2" fill="#72CAE8"></path>
                                    </g>
                                    <text id="Auto-Approve-Orders" font-family="AzoSans-Medium, Azo Sans" font-size="7.64367816" font-weight="400" line-spacing="19.1091954" fill="#2B6376">
                                        <tspan x="15.8379052" y="8">Auto Approve Orders</tspan>
                                    </text>
                                </g>
                            </g>
                        </g>
                    </g>
                    <path d="M33.6575614,215.539496 L31.794503,213.633952 C31.6362463,213.472501 31.6362463,213.210452 31.794503,213.048587 L32.3668177,212.463221 C32.5246697,212.301356 32.7812804,212.301356 32.9391324,212.463221 L33.8186514,213.362796 L36.8575048,209.272689 C36.9926909,209.090538 37.2468731,209.05535 37.4245578,209.193619 L38.0693225,209.694533 C38.247412,209.832802 38.2822204,210.092366 38.1470343,210.274517 L34.2658988,215.49727 C34.1177607,215.697221 33.8311986,215.717092 33.6575614,215.539496" id="Checkmark-2" fill="#72CAE8"></path>
                </g>
            </g>
        </g>
    </g>
</svg>