<!-- Generator: Adobe Illustrator 18.1.0, SVG Export Plug-In  -->
<svg version="1.1"
	 xmlns="http://www.w3.org/2000/svg" xmlns:xlink="http://www.w3.org/1999/xlink" xmlns:a="http://ns.adobe.com/AdobeSVGViewerExtensions/3.0/"
	 x="0px" y="0px" width="135.653px" height="135.652px" viewBox="0 0 135.653 135.652" enable-background="new 0 0 135.653 135.652"
	 xml:space="preserve">
<defs>
</defs>
<g>
	<circle fill="#08BBD0" cx="67.826" cy="67.826" r="67.826"/>
	<path fill="#FFFFFF" d="M51.462,35.444c0-5.102,4.137-9.244,9.243-9.244c5.1,0,9.243,4.143,9.243,9.244
		c0,3.325-1.77,6.206-4.392,7.838l0.021-5.978c0,0-1.197-6.224-5.051-6.224c-3.865,0-5.342,5.34-5.342,5.34v6.393
		C52.939,41.132,51.462,38.473,51.462,35.444 M97.354,74.687c0,0-0.388-4.534-3.366-7.024c-1.665-1.41-3.258-1.593-4.388-1.485
		v8.526h-2.04v-9.34c-0.609-1.322-1.826-3.366-3.76-4.133c-1.929-0.775-3.902-0.584-5.113-0.351v9.622h-2.03V59.7
		c-0.864-1.04-2.416-2.279-5.137-2.441c-1.466-0.087-2.775,0.505-3.811,1.157l-0.198,9.247h-2.046l0.062-16.79
		c6.593-2.063,11.409-8.143,11.409-15.425c-0.005-8.962-7.27-16.225-16.23-16.225c-8.964,0-16.225,7.263-16.225,16.227
		c0,7.02,4.467,12.942,10.697,15.206V79.15c0,0-5.247-11.291-9.707-12.782c-4.45-1.482-7.221,1.189-7.221,1.189
		s5.056,9.368,8.765,19.756c2.382,6.682,3.095,14.427,5.197,18.266c5.344,9.805,12.168,10.824,20.402,10.824
		c8.218,0,19.395,0.764,22.367-6.074C97.953,103.503,97.354,74.687,97.354,74.687"/>
</g>
</svg>