<!-- Generator: Adobe Illustrator 18.1.0, SVG Export Plug-In  -->
<svg version="1.1"
	 xmlns="http://www.w3.org/2000/svg" xmlns:xlink="http://www.w3.org/1999/xlink" xmlns:a="http://ns.adobe.com/AdobeSVGViewerExtensions/3.0/"
	 x="0px" y="0px" width="135.653px" height="135.652px" viewBox="0 0 135.653 135.652" enable-background="new 0 0 135.653 135.652"
	 xml:space="preserve">
<defs>
</defs>
<g>
	<circle fill="#08BBD0" cx="67.826" cy="67.826" r="67.826"/>
	<g>
		<path fill="#FFFFFF" d="M76.072,64.747h26.504c2.928,0,5.301-2.373,5.301-5.301V32.942c0-2.928-2.373-5.301-5.301-5.301H76.072
			c-2.928,0-5.301,2.373-5.301,5.301v26.504C70.771,62.374,73.146,64.747,76.072,64.747z M80.09,44.063h7.103V36.96
			c0-1.179,0.956-2.133,2.131-2.133c1.179,0,2.133,0.956,2.133,2.133v7.103h7.103c1.177,0,2.131,0.954,2.131,2.131
			s-0.954,2.131-2.131,2.131h-7.103v7.103c0,1.177-0.954,2.129-2.133,2.129c-1.175,0-2.131-0.954-2.131-2.129v-7.103H80.09
			c-1.177,0-2.131-0.954-2.131-2.131C77.961,45.017,78.913,44.063,80.09,44.063z"/>
		<path fill="#FFFFFF" d="M33.077,108.01h26.504c2.928,0,5.301-2.373,5.301-5.301V76.206c0-2.928-2.373-5.301-5.301-5.301H33.077
			c-2.928,0-5.301,2.373-5.301,5.301v26.504C27.776,105.636,30.149,108.01,33.077,108.01z M38.293,81.422
			c0.834-0.834,2.18-0.834,3.013,0l5.022,5.023l5.023-5.023c0.832-0.832,2.182-0.832,3.014,0c0.832,0.834,0.832,2.182,0,3.014
			l-5.023,5.023l5.023,5.022c0.832,0.832,0.83,2.18-0.002,3.013c-0.832,0.832-2.18,0.834-3.013,0l-5.023-5.022l-5.022,5.022
			c-0.832,0.832-2.18,0.832-3.013,0c-0.83-0.83-0.832-2.18,0-3.013l5.022-5.022l-5.022-5.025
			C37.459,83.604,37.461,82.254,38.293,81.422z"/>
		<path fill="#FFFFFF" d="M33.077,64.747h26.504c2.928,0,5.301-2.373,5.301-5.301V32.942c0-2.928-2.373-5.301-5.301-5.301H33.077
			c-2.928,0-5.301,2.373-5.301,5.301v26.504C27.776,62.374,30.149,64.747,33.077,64.747z M38.378,44.427H54.28
			c0.975,0,1.767,0.792,1.767,1.767s-0.792,1.767-1.767,1.767H38.378c-0.975,0-1.767-0.792-1.767-1.767S37.402,44.427,38.378,44.427
			z"/>
		<path fill="#FFFFFF" d="M76.072,108.01h26.504c2.928,0,5.301-2.373,5.301-5.301V76.206c0-2.928-2.373-5.301-5.301-5.301H76.072
			c-2.926,0-5.301,2.373-5.301,5.301v26.504C70.771,105.636,73.146,108.01,76.072,108.01z M89.324,100.513
			c-1.463,0-2.65-1.186-2.65-2.65c0-1.465,1.187-2.65,2.65-2.65c1.465,0,2.65,1.186,2.65,2.65
			C91.974,99.328,90.79,100.513,89.324,100.513z M89.324,81.077c1.465,0,2.65,1.186,2.65,2.65s-1.186,2.65-2.65,2.65
			c-1.463,0-2.65-1.186-2.65-2.65C86.674,82.263,87.861,81.077,89.324,81.077z M81.373,89.249h15.902
			c0.975,0,1.767,0.792,1.767,1.767c0,0.975-0.792,1.767-1.767,1.767H81.373c-0.975,0-1.767-0.792-1.767-1.767
			C79.606,90.041,80.397,89.249,81.373,89.249z"/>
	</g>
</g>
</svg>