<?xml version="1.0" encoding="UTF-8" standalone="no"?>
<svg width="612px" height="644px" viewBox="0 0 612 644" version="1.1" xmlns="http://www.w3.org/2000/svg" xmlns:xlink="http://www.w3.org/1999/xlink">
    <!-- Generator: Sketch 40 (33762) - http://www.bohemiancoding.com/sketch -->
    <title>Group 4</title>
    <desc>Created with Sketch.</desc>
    <defs>
        <rect id="path-1" x="0" y="104" width="600" height="529"></rect>
        <filter x="-50%" y="-50%" width="200%" height="200%" filterUnits="objectBoundingBox" id="filter-2">
            <feOffset dx="0" dy="2" in="SourceAlpha" result="shadowOffsetOuter1"></feOffset>
            <feGaussianBlur stdDeviation="2" in="shadowOffsetOuter1" result="shadowBlurOuter1"></feGaussianBlur>
            <feColorMatrix values="0 0 0 0 0   0 0 0 0 0   0 0 0 0 0  0 0 0 0.5 0" type="matrix" in="shadowBlurOuter1"></feColorMatrix>
        </filter>
        <rect id="path-3" x="0" y="0" width="600" height="50"></rect>
        <rect id="path-5" x="0" y="0" width="600" height="122"></rect>
        <path d="M15.5463299,22.5298013 C8.29690015,22.5298013 0.835412298,30.0083718 0.751575355,37.3022863 L0.751575355,145.633843 C0.751575355,152.927757 8.29690015,160.406328 15.5463299,160.406328 L143.767536,160.406328 C151.016965,160.406328 158.56229,152.927757 158.56229,145.633843 L158.56229,22.5298013 L15.5463299,22.5298013 Z" id="path-7"></path>
        <mask id="mask-8" maskContentUnits="userSpaceOnUse" maskUnits="objectBoundingBox" x="0" y="0" width="157.810715" height="137.876527" fill="white">
            <use xlink:href="#path-7"></use>
        </mask>
        <rect id="path-9" x="0" y="0" width="75" height="75" rx="10"></rect>
        <filter x="-50%" y="-50%" width="200%" height="200%" filterUnits="objectBoundingBox" id="filter-10">
            <feOffset dx="0" dy="3" in="SourceAlpha" result="shadowOffsetOuter1"></feOffset>
            <feGaussianBlur stdDeviation="4" in="shadowOffsetOuter1" result="shadowBlurOuter1"></feGaussianBlur>
            <feColorMatrix values="0 0 0 0 0.673256803   0 0 0 0 0.673256803   0 0 0 0 0.673256803  0 0 0 0.444378397 0" type="matrix" in="shadowBlurOuter1"></feColorMatrix>
        </filter>
    </defs>
    <g id="Page-1" stroke="none" stroke-width="1" fill="none" fill-rule="evenodd">
        <g id="Artboard" transform="translate(-6254.000000, -3156.000000)">
            <g id="Group-4" transform="translate(6262.000000, 3161.000000)">
                <g id="Rectangle-2">
                    <use fill="black" fill-opacity="1" filter="url(#filter-2)" xlink:href="#path-1"></use>
                    <use fill="#FFFFFF" fill-rule="evenodd" xlink:href="#path-1"></use>
                </g>
                <g id="clip_icon_active-copy-3" transform="translate(0.000000, 583.000000)">
                    <mask id="mask-4" fill="white">
                        <use xlink:href="#path-3"></use>
                    </mask>
                    <use id="Mask" fill="#448EE1" xlink:href="#path-3"></use>
                </g>
                <g id="Imported-Layers" transform="translate(42.000000, 153.000000)">
                    <path d="M7.35351351,0.132019868 C7.88193867,0.175331126 8.38913202,0.301092715 8.86709459,0.534437086 C9.03023389,0.614205298 9.18626299,0.70807947 9.33537942,0.813377483 C9.38840956,0.850827815 9.41744283,0.893741722 9.4106289,0.959503311 C9.40865385,0.978874172 9.41043139,0.998642384 9.41043139,1.01821192 L9.41043139,2.64337748 C9.41043139,2.66940397 9.4106289,2.69562914 9.40944387,2.72165563 C9.40677755,2.7765894 9.37952183,2.79387417 9.33725572,2.76635762 C9.26101871,2.71678808 9.18616424,2.66503311 9.11002599,2.61536424 C8.64825884,2.31377483 8.15015073,2.10427152 7.60799896,1.99738411 C7.25466216,1.92764901 6.89944906,1.92546358 6.54275468,1.93509934 C6.22921518,1.94364238 5.92555094,2.00711921 5.63107069,2.11509934 C5.06205821,2.32360927 4.67099792,2.72046358 4.43359667,3.27397351 C4.26492723,3.66705298 4.19017152,4.08208609 4.15234927,4.50735099 C4.12163721,4.85284768 4.12617983,5.1981457 4.12568607,5.54374172 C4.12459979,6.4965894 4.12529106,7.44943709 4.12538981,8.40238411 C4.12538981,8.45453642 4.12410603,8.50678808 4.12588358,8.5589404 C4.12924116,8.65807947 4.13891892,8.66731788 4.24172037,8.67069536 C4.29356549,8.67238411 4.34550936,8.67119205 4.39735447,8.67119205 C5.35110707,8.67119205 6.30485967,8.67049669 7.25861227,8.67178808 C7.4689553,8.67208609 7.45512994,8.63692053 7.55329002,8.87066225 C7.73252599,9.29701987 7.91847713,9.72049669 8.10176195,10.1451656 C8.10956341,10.1630464 8.11933992,10.1801325 8.12704262,10.1981126 C8.18431913,10.3324172 8.1775052,10.3441391 8.04004158,10.3468212 C7.99461538,10.3477152 7.94918919,10.3470199 7.90376299,10.3470199 C6.73591476,10.3470199 5.56806653,10.3466225 4.4002183,10.3473179 C4.09378898,10.3475166 4.12568607,10.3162252 4.12568607,10.6151325 C4.12519231,14.9030464 4.12558732,19.1909603 4.1247973,23.4788742 C4.1247973,23.8013245 4.16340956,23.7636755 3.85036383,23.7646689 C3.32480249,23.7663576 2.79924116,23.7656623 2.27377859,23.7647682 C2.1031341,23.7644702 2.10303534,23.7627815 2.10096154,23.5905298 C2.10036902,23.5383775 2.10086279,23.4861258 2.10086279,23.4338742 C2.10086279,19.1720861 2.10115904,14.910298 2.10027027,10.6484106 C2.10017152,10.3029139 2.14490644,10.3492053 1.80154366,10.3476159 C1.2825,10.3452318 0.763456341,10.3466225 0.244412682,10.3475166 C0.173409563,10.3476159 0.102406445,10.3544702 0.0314033264,10.358245 L0.0314033264,8.67387417 C0.641003119,8.67298013 1.25070166,8.67238411 1.86030146,8.67109272 C2.12347713,8.67049669 2.10056653,8.69503311 2.10066528,8.42940397 C2.10135655,7.2681457 2.09987526,6.10678808 2.10234407,4.9455298 C2.10323285,4.54082781 2.14164761,4.13900662 2.21600832,3.74066225 C2.36571726,2.93890728 2.66345634,2.20529801 3.19178274,1.57599338 C3.52724532,1.17625828 3.93064969,0.862450331 4.39389813,0.630596026 C4.98078482,0.336754967 5.60746881,0.182384106 6.25982848,0.130231788 C6.33685551,0.130331126 6.41388254,0.130529801 6.49081081,0.130629139 C6.68801975,0.131225166 6.88512994,0.131821192 7.08224012,0.132317881 C7.17269751,0.132218543 7.26305613,0.132119205 7.35351351,0.132019868" id="Fill-1" fill="#FFFFFF"></path>
                    <path id="Fill-2" fill="#181917"></path>
                    <path id="Fill-3" fill="#181917"></path>
                    <path id="Fill-4" fill="#181917"></path>
                    <path d="M9.04060291,8.69145695 C9.08899168,8.66572848 9.14162682,8.67586093 9.19248441,8.67576159 C9.99712058,8.67506623 10.801658,8.6752649 11.6062942,8.67546358 C11.645104,8.67546358 11.6841112,8.67556291 11.7228222,8.67874172 C11.7593607,8.68172185 11.7826663,8.70397351 11.7843451,8.74092715 C11.7874064,8.80609272 11.7879002,8.87135762 11.7879002,8.93662252 C11.7880977,12.1674834 11.7879002,15.3983444 11.7882952,18.6292053 C11.7882952,18.8119868 11.7821726,18.9954636 11.7957017,19.177351 C11.8396466,19.7710927 11.987578,20.333245 12.3217568,20.8348013 C12.568342,21.2046358 12.8903742,21.4924172 13.270078,21.7174172 C13.7629522,22.0094702 14.3007588,22.1709934 14.8607848,22.2656623 C15.1291944,22.3110596 15.3998753,22.3333113 15.6713462,22.3557616 C16.0799844,22.3895364 16.4888202,22.3939073 16.8959771,22.3718543 C17.2777547,22.3511921 17.660816,22.3608278 18.0417048,22.3146358 C18.2601455,22.2880132 18.4814501,22.2856291 18.7007796,22.2652649 C18.9588202,22.2414238 19.2161694,22.2101325 19.473815,22.1816225 C19.5197349,22.1765563 19.5417568,22.1471523 19.5431393,22.102947 C19.5452131,22.0377815 19.5451143,21.9725166 19.5451143,21.9072517 C19.5452131,17.6123841 19.5452131,13.3176159 19.5452131,9.02284768 C19.5452131,8.96403974 19.5438306,8.90523179 19.5459044,8.84662252 C19.5495582,8.74271523 19.5654574,8.7284106 19.6752703,8.72334437 C19.6946258,8.72254967 19.7141788,8.72294702 19.7336331,8.72294702 C20.2851663,8.72294702 20.8366996,8.72284768 21.3882328,8.7231457 C21.4270426,8.7231457 21.4660499,8.72433775 21.5047609,8.72711921 C21.5421881,8.72980132 21.5652963,8.75304636 21.5673701,8.7892053 C21.5710239,8.85427152 21.5706289,8.91963576 21.5706289,8.98490066 C21.5707277,12.1243709 21.5707277,15.2639404 21.5707277,18.4034106 L21.5707277,23.4357616 C21.5706289,23.6603642 21.5708264,23.6624503 21.3480405,23.7025828 C20.8058888,23.8000331 20.2623545,23.887947 19.7153638,23.9543046 C19.3358576,24.0003974 18.9563514,24.0450993 18.5751663,24.0765894 C18.174527,24.1096689 17.7734927,24.1322185 17.3723597,24.156755 C16.9897921,24.1800993 16.6075208,24.1792053 16.2249532,24.1800993 C15.8486071,24.1809934 15.474236,24.1482119 15.0991736,24.1189073 C14.6327651,24.0824503 14.172183,24.0140066 13.7162422,23.9123841 C12.9630561,23.7445033 12.2482848,23.4816556 11.6090593,23.0358278 C10.8934979,22.536755 10.3897609,21.8732781 10.0942931,21.0504636 C9.93944906,20.6193377 9.85086798,20.1735099 9.79922037,19.717947 C9.76297817,19.3987748 9.76337318,19.079702 9.76327443,18.7603311 C9.76258316,16.0712583 9.76327443,13.3820861 9.76712578,10.6930132 C9.76732328,10.5387417 9.73908004,10.3990728 9.67755717,10.2587086 C9.47106549,9.78725166 9.27089397,9.31311258 9.06953742,8.83937086 C9.04998441,8.79327815 9.01413721,8.74817881 9.04060291,8.69145695" id="Fill-5" fill="#FFFFFF"></path>
                    <path d="M59.4917256,16.3819868 C59.4909356,17.2236755 59.5946258,17.9961258 59.842396,18.7454305 C60.1148545,19.5694371 60.5394906,20.3016556 61.1633108,20.9084106 C61.7634304,21.4920199 62.4713877,21.8863907 63.2764189,22.1039404 C63.6086227,22.1937417 63.9467516,22.2493709 64.2906081,22.2760927 C64.4588825,22.2892053 64.626762,22.3031126 64.7952339,22.3011258 C65.0952443,22.297649 65.463789,22.5077483 65.6136954,22.8936755 C65.8113981,23.4026821 65.5394335,24.0185762 64.9494854,24.1602318 C64.9056393,24.1707616 64.8602131,24.1784106 64.8153794,24.179404 C64.4971985,24.1871523 64.1813877,24.1583444 63.8652807,24.1230795 C63.5035499,24.082649 63.1483368,24.014106 62.7973701,23.9189404 C61.8433212,23.6601656 60.9882225,23.2125497 60.2346414,22.5680464 C59.5483108,21.9809603 59.0105042,21.277947 58.5960395,20.4750993 C58.2223597,19.7512252 57.9762682,18.9847351 57.8290281,18.1855629 C57.7558524,17.7882119 57.7095374,17.3869868 57.693342,16.9817881 C57.683368,16.7340397 57.6655925,16.4867881 57.6727027,16.2387417 C57.6999584,15.2883775 57.8348545,14.355596 58.1413825,13.4534106 C58.4248025,12.6193709 58.8290956,11.849106 59.384184,11.1641722 C59.9525052,10.4628477 60.6317256,9.89612583 61.4311279,9.47592715 C62.0684771,9.14076159 62.7417723,8.9160596 63.4490385,8.7915894 C63.7045114,8.7465894 63.962157,8.72294702 64.2206913,8.70149007 C64.4801143,8.67993377 64.7388462,8.67129139 64.997973,8.68033113 C65.7073129,8.70496689 66.4030249,8.81324503 67.0792827,9.0368543 C67.8257536,9.28370861 68.5105042,9.64698675 69.1276091,10.1364238 C69.5109667,10.4403974 69.8552183,10.785894 70.1620426,11.1678477 C70.4811123,11.565 70.7549532,11.9919536 70.9827755,12.4484106 C71.2780457,13.0399669 71.495499,13.6597351 71.6392827,14.3051325 C71.7486019,14.7956623 71.8156549,15.2918543 71.847157,15.7943046 C71.8664137,16.1009603 71.8843867,16.4072185 71.8673025,16.7131788 C71.8470582,17.0772517 71.8268139,17.4413245 71.7739813,17.8038079 C71.7147297,18.2110927 71.6339501,18.6124172 71.523841,19.0081788 C71.4854262,19.1462583 71.4439501,19.2837417 71.3968451,19.4189404 C71.3167568,19.6486093 71.1771206,19.8317881 70.9619387,19.9504967 C70.422157,20.2481126 69.8590696,19.9218874 69.6954366,19.4721854 C69.6193971,19.2634768 69.6051767,19.0543709 69.671341,18.839702 C69.7270374,18.6592053 69.7788825,18.4774172 69.8271726,18.2948344 C69.92079,17.9415894 69.9754002,17.5819868 70.0147037,17.2182119 C70.054106,16.853245 70.0567723,16.4882781 70.0457121,16.1236093 C70.0160863,15.1474172 69.817001,14.2090728 69.3801195,13.3311258 C68.9893555,12.5458609 68.4418711,11.8937086 67.7104106,11.4066556 C67.146632,11.0312583 66.5305146,10.7860927 65.8639345,10.664106 C65.434657,10.5855298 65.0032069,10.5437086 64.5680042,10.5619868 C63.6393347,10.6009272 62.7628067,10.8249338 61.9650832,11.3222185 C61.2486331,11.7687417 60.6968035,12.3704305 60.2835239,13.1061258 C59.9449012,13.7089073 59.7327807,14.3557947 59.61092,15.0344702 C59.527869,15.4975828 59.488368,15.9648675 59.4917256,16.3819868" id="Fill-6" fill="#FFFFFF"></path>
                    <path d="M45.2089397,11.9726821 C45.1392204,11.9396026 45.07829,11.8826821 45.0135083,11.8319205 C44.6754782,11.5667881 44.325499,11.3199338 43.9502391,11.1101325 C43.4475884,10.829106 42.9150156,10.6303311 42.3511383,10.5179801 C42.0774948,10.4634437 41.8001975,10.4419868 41.5218139,10.4219205 C41.2740437,10.4041391 41.028841,10.4141722 40.7842308,10.4366225 C40.272396,10.4837086 39.7949272,10.6339073 39.3753274,10.9453311 C38.9475312,11.2628146 38.692157,11.6892715 38.5884667,12.2081126 C38.5093659,12.6043709 38.5255613,13.0014238 38.6332017,13.3903311 C38.7503222,13.8137086 39.0043139,14.1467881 39.3424428,14.4185762 C39.6903482,14.6983113 40.0853586,14.8940066 40.4920218,15.0686424 C40.993685,15.2839073 41.514605,15.4431457 42.0331549,15.6099338 C42.5398545,15.772947 43.0367775,15.9619868 43.5154314,16.1972185 C43.9308836,16.4013576 44.3247089,16.6407616 44.6743919,16.9464238 C45.1283576,17.3430795 45.4684615,17.8211921 45.6668555,18.3961589 C45.8231809,18.8496358 45.8988254,19.3163245 45.9080094,19.7963245 C45.9179834,20.3154636 45.864657,20.8250662 45.7094179,21.3213576 C45.5475624,21.8388079 45.2909044,22.2997351 44.9200884,22.6991722 C44.5327807,23.1164901 44.0764449,23.4288079 43.5614501,23.6593709 C43.102843,23.864702 42.6228067,23.9933444 42.1277599,24.0759934 C41.6007173,24.1640066 41.0712058,24.1976821 40.5389293,24.1757285 C40.1895426,24.1614238 39.8412422,24.1246689 39.4956081,24.0666556 C39.0151767,23.9861921 38.5421518,23.8768212 38.0831497,23.7111258 C37.6790541,23.5651987 37.2909563,23.3856954 36.9328794,23.1448013 C36.8843919,23.1122185 36.8380769,23.0760596 36.7887994,23.0447682 C36.7333992,23.0096026 36.7099948,22.9613245 36.71592,22.8965563 C36.7176975,22.8771854 36.7160187,22.8574172 36.7160187,22.8378477 C36.7160187,22.1720861 36.7157225,21.5062252 36.7168087,20.8404636 C36.7168087,20.8042053 36.7022921,20.7632781 36.7437682,20.7242384 C36.801736,20.7448013 36.8465696,20.7911921 36.8940696,20.8324172 C37.193685,21.0932781 37.5093971,21.3325828 37.8440696,21.5461589 C38.4297713,21.9198675 39.0574428,22.1941391 39.7385395,22.3335099 C39.9792983,22.3827815 40.2238098,22.4099007 40.469605,22.4331457 C40.8149428,22.4657285 41.1578119,22.4468543 41.4990021,22.4163576 C41.9523753,22.3757285 42.3958732,22.2771854 42.8041164,22.0604305 C43.4143087,21.7363907 43.7685343,21.2291722 43.8801247,20.5444371 C43.917157,20.3171523 43.9269335,20.0896689 43.9117256,19.8619868 C43.8811123,19.403245 43.7515489,18.9783775 43.4539085,18.6177815 C43.2993607,18.4305298 43.1162734,18.2753642 42.9165956,18.1395695 C42.5323493,17.8782119 42.1091944,17.6961258 41.6795218,17.527947 C41.1659096,17.3269868 40.640447,17.159702 40.1208108,16.9756291 C39.6373181,16.8043709 39.1615281,16.6140397 38.7094387,16.3687748 C38.2963565,16.1446689 37.9099376,15.8822185 37.5795114,15.5443709 C37.1752183,15.1311258 36.9039449,14.6406954 36.7516684,14.0816225 C36.6026507,13.5343709 36.5744075,12.9760927 36.5944543,12.413245 C36.6110447,11.9459603 36.7056497,11.4943709 36.8878482,11.0641391 C37.0832796,10.6027152 37.3605769,10.1984106 37.7288254,9.85569536 C38.2260447,9.39307947 38.8127339,9.10102649 39.4557121,8.91149007 C39.7610551,8.82149007 40.0730146,8.75751656 40.3890229,8.72543046 C40.8601715,8.67764901 41.3322089,8.65857616 41.8068139,8.69950331 C42.0911227,8.7239404 42.3751351,8.74649007 42.6568763,8.79208609 C43.5178015,8.93125828 44.3298441,9.20413907 45.0656497,9.68503311 C45.087474,9.69923841 45.1085083,9.71463576 45.1311227,9.72735099 C45.2128898,9.77364238 45.2411331,9.84129139 45.2406393,9.93705298 C45.237183,10.5898013 45.2388617,11.2425497 45.238368,11.895298 C45.238368,11.9193377 45.2465644,11.9471523 45.2089397,11.9726821" id="Fill-7" fill="#FFFFFF"></path>
                    <path d="M49.4055301,15.480298 C49.4055301,13.8874172 49.4056289,12.2945364 49.4053326,10.701755 C49.4053326,10.4520199 49.4269595,10.4651325 49.1776091,10.4651325 C48.5870686,10.4652318 47.9965281,10.4651325 47.4059875,10.4651325 C47.3605613,10.4651325 47.3150364,10.4662252 47.2697089,10.4647351 C47.1505146,10.4610596 47.1380717,10.4506291 47.1377755,10.3269536 C47.1365904,9.82430464 47.137183,9.32165563 47.1374792,8.81900662 C47.1374792,8.79307947 47.1384667,8.76665563 47.1433056,8.7413245 C47.1486383,8.7142053 47.167105,8.69235099 47.1944595,8.68996689 C47.252526,8.68509934 47.3109875,8.6834106 47.3692516,8.6834106 C47.9663098,8.68291391 48.563368,8.6834106 49.1604262,8.68301325 C49.4292308,8.68281457 49.4052339,8.70397351 49.4053326,8.44470199 C49.4058264,7.37403974 49.4054314,6.30347682 49.4055301,5.23281457 C49.4056289,4.9792053 49.3872609,4.99907285 49.6347349,4.99887417 C50.160395,4.99857616 50.6860551,4.99877483 51.2117152,4.99887417 C51.2506237,4.99887417 51.289631,4.99778146 51.3284407,4.9994702 C51.422552,5.00344371 51.4343035,5.0160596 51.4375624,5.11837748 C51.4392412,5.1705298 51.4380561,5.22278146 51.4380561,5.27503311 C51.4380561,6.33258278 51.4378586,7.39013245 51.4381549,8.44768212 C51.4382536,8.69692053 51.4173181,8.68311258 51.6668659,8.68311258 C52.8998909,8.68311258 54.1329158,8.68301325 55.3659407,8.68321192 C55.6311902,8.68321192 55.6106497,8.66423841 55.6108472,8.92311258 C55.6111435,9.36049669 55.6109459,9.79788079 55.6108472,10.2352649 C55.6108472,10.2745033 55.6119335,10.3137417 55.6102547,10.3527815 C55.6060083,10.4466556 55.5911954,10.4608609 55.4920478,10.4645364 C55.440104,10.4664238 55.3881601,10.4651325 55.3362162,10.4651325 C54.1162266,10.4651325 52.8961383,10.4650331 51.6761486,10.4652318 C51.4159356,10.4652318 51.4382536,10.4459603 51.4382536,10.7112914 C51.4379574,13.6684768 51.4386486,16.6257616 51.4372661,19.582947 C51.4371674,19.9424503 51.4573129,20.3006623 51.5166632,20.654404 C51.5708784,20.9769536 51.6664709,21.2881788 51.8393867,21.5707947 C52.0993035,21.9957616 52.4772297,22.2474834 52.9591424,22.3447351 C53.1049012,22.3741391 53.2533264,22.3921192 53.4010603,22.4101987 C53.5902703,22.433245 53.7763202,22.4008609 53.9613825,22.3666887 C54.395894,22.2865232 54.8172713,22.1576821 55.2352911,22.0166225 C55.3643607,21.9730132 55.4922453,21.9261258 55.6211175,21.8818212 C55.6620998,21.8676159 55.6973545,21.8750662 55.7191788,21.9176821 C55.7280665,21.9350662 55.7386331,21.9515563 55.747422,21.9690397 C55.9628015,22.3931126 56.1780821,22.8173841 56.393264,23.2415563 C56.4050156,23.2648013 56.4163721,23.2883444 56.4280249,23.3115894 C56.4464917,23.3484437 56.4314813,23.3754636 56.3992879,23.391457 C56.3005353,23.4407285 56.202079,23.4911921 56.1009563,23.535 C55.5211798,23.7859272 54.9234304,23.9742715 54.2986227,24.0769868 C53.8232277,24.1550662 53.3462526,24.2030464 52.8656237,24.1744371 C52.2922661,24.1404636 51.7349064,24.0307947 51.2176403,23.7620861 C50.664132,23.4745033 50.2480873,23.0474503 49.9503482,22.5013907 C49.7299324,22.0973841 49.5993815,21.6624834 49.5169231,21.2100993 C49.4323909,20.7461921 49.4042464,20.2790066 49.4048389,19.8084437 C49.4067152,18.3656623 49.4055301,16.9229801 49.4055301,15.480298" id="Fill-8" fill="#FFFFFF"></path>
                    <path d="M27.2535447,12.1371854 C27.2535447,15.9224503 27.2535447,19.7076159 27.2533472,23.4928808 C27.2533472,23.5645033 27.2512734,23.6362252 27.2475208,23.7078477 C27.2461383,23.736457 27.226289,23.7544371 27.1980457,23.7586093 C27.1724688,23.7623841 27.1464969,23.7646689 27.1207225,23.7646689 C26.5367983,23.7650662 25.9528742,23.7650662 25.3690489,23.7649669 C25.3431757,23.7649669 25.3170062,23.7645695 25.2914293,23.7612914 C25.2555821,23.7565232 25.2331653,23.7357616 25.2300052,23.6982119 C25.2278326,23.6721854 25.2267464,23.6461589 25.2264501,23.6200331 C25.2258576,23.5678808 25.2261538,23.5156291 25.2261538,23.4634768 C25.2261538,15.9126159 25.2261538,8.36175497 25.2262526,0.81089404 C25.2262526,0.739072848 25.2265489,0.667350993 25.2281289,0.595529801 C25.2292152,0.549039735 25.2556809,0.524900662 25.3010083,0.52192053 C25.3268815,0.52013245 25.3528534,0.519834437 25.3787266,0.519834437 C25.9562318,0.519735099 26.5336383,0.519735099 27.1110447,0.519933775 C27.1369179,0.519933775 27.1628898,0.520728477 27.1886642,0.523509934 C27.2252027,0.527384106 27.2481133,0.54884106 27.2495946,0.585993377 C27.2524584,0.657615894 27.2533472,0.729437086 27.2534459,0.80115894 C27.2535447,4.31880795 27.2535447,7.83645695 27.2535447,11.3540066 L27.2535447,12.1371854" id="Fill-9" fill="#FFFFFF"></path>
                    <path d="M31.3063514,12.1601325 C31.3063514,8.3736755 31.3060551,4.58711921 31.3068451,0.800562914 C31.3068451,0.481092715 31.2691216,0.521324503 31.5869075,0.52013245 C32.0865956,0.518344371 32.5863825,0.519635762 33.0860707,0.519635762 C33.1314969,0.519635762 33.1770218,0.518543046 33.2223493,0.520331126 C33.3208056,0.52410596 33.3299896,0.533741722 33.3335447,0.63705298 C33.335421,0.689205298 33.334236,0.741456954 33.334236,0.793708609 C33.334236,8.36016556 33.334236,15.9267219 33.3339397,23.4932781 C33.3339397,23.5649007 33.3312734,23.6366225 33.3275208,23.708245 C33.3260395,23.737351 33.305894,23.7546358 33.2774532,23.7586093 C33.2518763,23.7622848 33.2259044,23.7646689 33.2001299,23.7646689 C32.6160083,23.7650662 32.0318867,23.7650662 31.4478638,23.7649669 C31.4218919,23.7649669 31.3956237,23.7652649 31.3701455,23.7610927 C31.3348909,23.7552318 31.3114865,23.7331788 31.3102027,23.6958278 C31.3077339,23.624106 31.3064501,23.5522848 31.3064501,23.4805629 C31.3063514,19.7071192 31.3063514,15.9336755 31.3063514,12.1601325" id="Fill-10" fill="#FFFFFF"></path>
                    <path d="M81.5806081,8.84374172 C81.5896933,8.91655629 81.5681653,8.97754967 81.5510811,9.0397351 C81.4128274,9.54218543 81.2754626,10.0448344 81.1375052,10.5472848 C81.1305925,10.5724172 81.1215073,10.5969536 81.112817,10.6214901 C81.0861538,10.6967881 81.071736,10.7135762 81.0035967,10.7022517 C80.8042152,10.6690728 80.6015748,10.6845695 80.4024896,10.6610265 C80.1373389,10.6297351 79.8716944,10.6274503 79.6059511,10.6245695 C79.2493555,10.620596 78.8924636,10.6295364 78.5381393,10.6747351 C77.8134927,10.7670199 77.1111642,10.9383775 76.4600884,11.2851656 C76.4543607,11.2881457 76.4488306,11.2920199 76.4428067,11.2940066 C76.3337838,11.3296689 76.2908264,11.4035762 76.3064293,11.5180132 C76.313342,11.5692715 76.3075156,11.6223179 76.3075156,11.6744702 C76.3075156,15.6095364 76.3077131,19.544702 76.3072193,23.4797682 C76.3071206,23.8015232 76.341684,23.7638742 76.030317,23.7647682 C75.5112734,23.7662583 74.9923285,23.7656623 74.4732848,23.7648675 C74.3020478,23.7645695 74.3019491,23.7628808 74.2997765,23.5911258 C74.299184,23.5519868 74.2996778,23.5128477 74.2996778,23.4737086 C74.2996778,19.1600662 74.299579,14.8465232 74.299579,10.5328808 C74.2619543,10.3439404 74.3384875,10.2206623 74.5147609,10.1548013 C75.4480717,9.56950331 76.4582121,9.1718543 77.5263202,8.92152318 C77.8666216,8.84175497 78.2118607,8.78304636 78.5605561,8.74668874 C78.9152755,8.70963576 79.2701923,8.68043046 79.6269854,8.67615894 C79.971237,8.67198675 80.312921,8.70665563 80.6547037,8.74092715 C80.8352235,8.75910596 81.0161383,8.77350993 81.1965593,8.79298013 C81.3246414,8.80688742 81.4522297,8.82655629 81.5806081,8.84374172" id="Fill-11" fill="#FFFFFF"></path>
                    <path d="M93.119158,8.67536424 C93.0672141,8.67536424 93.015369,8.67596026 92.9634252,8.67675497 C92.9208628,8.67745033 92.8883732,8.69582781 92.8713877,8.73596026 C92.8561798,8.77192053 92.8426507,8.8086755 92.8293191,8.84543046 C92.7274064,9.12735099 92.625,9.40897351 92.5240748,9.69129139 C92.0417672,11.0412914 91.5598545,12.3914901 91.077843,13.7415894 C90.6375052,14.9751656 90.1969699,16.2086424 89.757027,17.4423179 C89.2579314,18.8416887 88.7597245,20.2412583 88.2604314,21.6406291 C88.1882432,21.8431788 88.1124012,22.0444371 88.0385343,22.2464901 C88.0291528,22.2722185 88.0184875,22.2936755 87.9792827,22.2813576 C87.97158,22.2610927 87.9619023,22.2372517 87.9532121,22.2131126 C87.8244387,21.8577815 87.6959615,21.502351 87.5670894,21.1471192 C86.9870166,19.5483775 86.4060551,17.9498344 85.8266736,16.3507947 C85.3894958,15.1438411 84.9544906,13.9359934 84.5180042,12.7287417 C84.0527807,11.4418212 83.5869647,10.1550993 83.1211486,8.86837748 C83.1056445,8.82556291 83.0896466,8.78264901 83.0704886,8.7413245 C83.0441216,8.68460265 83.0091632,8.67 82.9442827,8.67774834 C82.887895,8.68460265 82.8729834,8.7247351 82.8601455,8.77082781 C82.7504314,9.16629139 82.640421,9.56165563 82.5295218,9.95682119 C82.3746778,10.5089404 82.2201299,11.0611589 82.0627183,11.6125828 C82.0315125,11.7215563 82.0201559,11.8210927 82.0643971,11.9339404 C82.385343,12.7529801 82.6998701,13.5745033 83.0161746,14.3952318 C83.4965073,15.6418212 83.9765437,16.8884106 84.4567775,18.135 C84.8012266,19.0288411 85.1457744,19.9225828 85.490421,20.8163245 C85.8469179,21.7404636 86.2019335,22.6651987 86.5611954,23.588245 C86.6185707,23.7356623 86.6659719,23.8872517 86.7313462,24.0314901 L86.8785863,24.411457 C86.8933004,24.4548675 86.9090021,24.4979801 86.9281601,24.5393046 C86.9752651,24.6406291 86.9742775,24.7321192 86.9330977,24.8367219 C86.7278898,25.357351 86.5287058,25.8803642 86.3277443,26.4027815 C85.8954054,27.5262914 85.4633628,28.65 85.0307277,29.7735099 C85.0143347,29.8161258 84.9932017,29.8569536 84.9998181,29.9047351 L86.9858316,29.9047351 C86.9886954,29.8920199 86.9902755,29.8788079 86.9947193,29.8666887 C87.2190852,29.2697682 87.4430561,28.672649 87.6683108,28.0760265 C88.104501,26.9208278 88.5416788,25.7660265 88.9771778,24.6105298 L88.9772765,24.6105298 L89.0080873,24.5290728 C89.033368,24.4628146 89.0668451,24.3989404 89.0835343,24.3296026 L89.4183056,23.445 L89.4179106,23.445 C89.53908,23.1251325 89.6602495,22.8052649 89.7812214,22.4851987 C90.1080925,21.6204636 90.4352599,20.7558278 90.7615385,19.8907947 C91.0693503,19.0745364 91.3754834,18.2577815 91.6832952,17.4415232 C92.025473,16.5340728 92.369132,15.6271192 92.7114085,14.7196689 C93.0193191,13.9036093 93.3258472,13.087053 93.6338565,12.2710927 C94.0129678,11.2661921 94.3923753,10.2614901 94.7731653,9.25728477 C94.8372557,9.08850993 94.8909771,8.91566225 94.9685967,8.75215232 L94.9685967,8.67387417 C94.3520842,8.67427152 93.7356705,8.67476821 93.119158,8.67536424" id="Fill-12" fill="#FFFFFF"></path>
                </g>
                <text id="Welcome-to-FullStory" font-family="OpenSans-Semibold, Open Sans" font-size="24" font-weight="500" fill="#000000">
                    <tspan x="173.933594" y="294">Welcome to FullStory!</tspan>
                </text>
                <text id="You’re-almost-on-you" font-family="OpenSans-Light, Open Sans" font-size="16" font-weight="300" line-spacing="25" fill="#000000">
                    <tspan x="52.015625" y="342">You’re almost on your way to seeing customer interactions in a whole </tspan>
                    <tspan x="266.570312" y="367">new way!</tspan>
                </text>
                <text id="We’d-love-to-hear-fr" font-family="OpenSans-Light, Open Sans" font-size="16" font-weight="300" line-spacing="23" fill="#000000">
                    <tspan x="55.015625" y="519">We’d love to hear from you. If you have any questions or comments, </tspan>
                    <tspan x="182.425781" y="542">feel free to drop us a line. Enjoy!</tspan>
                </text>
                <rect id="Rectangle-1" fill="#448EE1" x="112" y="409" width="375" height="40" rx="20"></rect>
                <text id="Activate-your-accoun" font-family="OpenSans, Open Sans" font-size="20" font-weight="normal" fill="#FFFFFF">
                    <tspan x="197.045898" y="436">Activate your account!</tspan>
                </text>
                <text id="fullstory.com--|--bl" font-family="OpenSans-Light, Open Sans" font-size="18" font-weight="300" fill="#FFFFFF">
                    <tspan x="143.874512" y="614">fullstory.com  |  blog  |  docs  |  twitter</tspan>
                    <tspan x="457.125488" y="614" font-family="OpenSansLight-Italic, Open Sans" font-style="italic"> </tspan>
                    <tspan x="461.80127" y="614" font-family="OpenSans-Semibold, Open Sans" font-size="20" font-weight="500"> </tspan>
                </text>
                <g id="clip_icon_active-copy-4" transform="translate(0.000000, 104.000000)">
                    <mask id="mask-6" fill="white">
                        <use xlink:href="#path-5"></use>
                    </mask>
                    <use id="Mask" fill="#448EE1" xlink:href="#path-5"></use>
                    <path d="M429.2427,55.9387476 C429.2427,55.9387476 428.149957,62.1359979 422.94116,61.2175523 C417.732363,60.2991066 404.666947,29.5314128 403.269708,27.0054242 C402.554223,25.7119183 400.678728,24.8150626 399.604404,24.3144211 C397.932731,23.5354104 396.041451,23.7696136 394.599054,25.1831117 C393.414625,26.3438775 392.445857,28.2090557 392.244194,29.8581114 C391.817818,33.3478836 391.570089,36.9520511 391.931594,40.4278522 C393.975416,60.0830098 406.28078,81.5365837 412.601034,100.180584 C417.064836,113.348991 422.864601,125.75684 432.259567,136.06492 C442.789545,147.618074 455.347447,155.410757 471.106293,155.804848 C487.344871,156.210766 502.389119,151.426392 515.341321,141.004225 C526.748862,131.825292 534.171376,119.729469 537.386335,105.255021 C539.808645,94.348985 541.590332,83.297293 543.602354,72.3004916 C544.672222,66.4539078 541.569165,61.5215996 536.217554,60.3693467 C531.055334,59.2578569 526.225152,62.558754 524.76559,68.1952418 C523.726289,72.2101658 520.636312,74.4717822 517.167091,73.7569065 C513.61192,73.0241123 511.551913,69.5587553 512.246935,65.4596387 C512.79037,62.2557718 513.427214,59.0656122 513.881424,55.849697 C514.540978,51.1797179 511.727539,46.7203217 507.401062,45.3665885 C501.727671,43.5911465 496.828923,46.5520571 494.947151,52.8942338 C493.7127,57.0534327 490.598009,59.224112 487.093906,58.366769 C483.5671,57.5035809 481.734231,54.1823539 482.456777,49.9246027 C482.899139,47.316799 483.633047,44.7240209 483.753034,42.1058871 C483.863326,39.7001897 483.804516,37.0726346 482.968917,34.8939032 C481.520826,31.1173622 477.49114,29.1495763 473.634622,29.6153638 C469.41667,30.124724 466.232291,32.9775928 465.212567,37.160838 C464.175229,41.4160437 461.459156,43.6243125 457.880914,43.121399 C453.940013,42.5674335 451.825134,39.2812179 452.606694,34.8386084 C456.836921,10.7970077 459.193647,-2.56610964 463.442036,-26.6040474 C463.926265,-29.3426276 463.956656,-32.0087965 462.652941,-34.529347 C460.726687,-38.2529636 456.779216,-40.2578321 452.717786,-39.5822536 C448.564066,-38.891172 445.404299,-35.6420532 444.59681,-31.0930282 C441.717279,-14.8715968 440.750257,-9.32131024 437.888887,6.90378394 C435.080481,22.8310444 429.2427,55.9387476 429.2427,55.9387476 L429.2427,55.9387476 Z M485.687338,19.725846 C491.019473,22.8830311 494.296882,27.6848972 496.031614,33.6654135 C509.047326,28.7061846 522.030571,35.4732028 525.819395,48.2946305 C529.851445,48.0421634 533.824437,47.1723059 537.61388,47.6710123 C549.817357,49.2761668 558.073261,60.8534081 555.983386,73.3456349 C553.964736,85.411076 551.93149,97.5034174 549.154686,109.406623 C545.206388,126.333488 536.321929,140.409701 522.917616,151.145902 C507.582926,163.428511 489.863391,169.019127 470.653685,168.626296 C453.945712,168.28452 439.782147,161.095694 427.706811,149.580909 C417.134499,139.499509 409.549474,127.309703 404.190784,113.568567 C395.295429,90.7591045 382.682216,68.4086347 380.269311,43.956925 C379.65868,37.769813 379.926761,31.5589567 382.488444,25.7364057 C385.330564,19.2757338 390.269656,15.5146299 397.153375,14.8955107 C404.234552,14.2587083 409.610595,17.4360697 413.605686,23.2671189 C413.899469,23.696094 420.027692,35.3992396 420.358753,35.4999833 C420.502796,34.6830747 422.66494,21.7733688 422.80489,20.9847519 C426.75022,-1.26588957 428.706608,-12.8588636 432.804135,-35.081287 C434.784059,-45.8198651 445.802046,-53.6555054 456.543508,-52.4389337 C467.757813,-51.1689214 476.488158,-41.352902 476.22416,-30.2385357 C476.179717,-28.3637304 475.992689,-26.472619 475.670353,-24.6242477 C472.749135,-7.87180881 471.665806,-1.80413241 468.712885,14.9427164 C468.571558,15.7416827 468.430586,16.5411722 468.243228,17.603734 C474.502604,16.0736665 480.287402,16.5290742 485.687338,19.725846 L485.687338,19.725846 Z" id="clicked-copy" fill="#3E83D1" mask="url(#mask-6)"></path>
                    <g id="clip_icon_active-copy-7" mask="url(#mask-6)">
                        <g transform="translate(272.000000, 84.500000) rotate(-19.000000) translate(-272.000000, -84.500000) translate(190.000000, -10.000000)">
                            <g id="Shape-+-Shape-+-Shape-4" stroke-width="1" fill="none" transform="translate(4.180009, 0.433144)">
                                <g id="Shape-+-Shape" transform="translate(0.000000, 26.711815)">
                                    <use id="Shape" stroke="#3E83D1" mask="url(#mask-8)" stroke-width="25.1874995" xlink:href="#path-7"></use>
                                    <rect id="Rectangle" fill="#3F83D1" x="32.5496183" y="0" width="123.938931" height="10.013245"></rect>
                                </g>
                                <path d="M148.69912,34.4691316 L124.041196,34.4691316 L104.314857,0 L89.5201024,0 L104.314857,34.4691316 L79.6569327,34.4691316 L64.8621782,0 L45.1358389,0 L64.8621782,34.4691316 L40.204254,34.4691316 L20.4779147,0 L15.5463299,0 C8.43104758,0.0623969581 0.858047136,7.27082733 0.751575355,14.772485 C0.751575355,14.772485 -1.60691946,39.3932933 15.5463299,39.3932933 L158.56229,39.3932933 L158.56229,0 L133.904366,0 L148.69912,34.4691316 Z" id="Shape-3" fill="#3E83D1"></path>
                            </g>
                            <path d="M66.3621829,153.592562 C62.3950305,156.030211 59.179018,154.21941 59.179018,149.577181 L59.179018,82.7247047 C59.179018,78.0694215 62.2928716,76.4480687 66.116151,79.0909702 L116.352488,113.817622 C120.183761,116.466049 120.06643,120.59354 116.106456,123.026779 L66.3621829,153.592562 Z" id="Triangle-24-Copy-2" fill="#3E83D1"></path>
                            <ellipse id="Oval-5" fill="#3E83D1" cx="7.43540163" cy="44.7505988" rx="6.88549618" ry="6.87513192"></ellipse>
                        </g>
                    </g>
                    <g id="Imported-Layers" mask="url(#mask-6)">
                        <g transform="translate(42.000000, 49.000000)">
                            <path d="M7.35351351,0.132019868 C7.88193867,0.175331126 8.38913202,0.301092715 8.86709459,0.534437086 C9.03023389,0.614205298 9.18626299,0.70807947 9.33537942,0.813377483 C9.38840956,0.850827815 9.41744283,0.893741722 9.4106289,0.959503311 C9.40865385,0.978874172 9.41043139,0.998642384 9.41043139,1.01821192 L9.41043139,2.64337748 C9.41043139,2.66940397 9.4106289,2.69562914 9.40944387,2.72165563 C9.40677755,2.7765894 9.37952183,2.79387417 9.33725572,2.76635762 C9.26101871,2.71678808 9.18616424,2.66503311 9.11002599,2.61536424 C8.64825884,2.31377483 8.15015073,2.10427152 7.60799896,1.99738411 C7.25466216,1.92764901 6.89944906,1.92546358 6.54275468,1.93509934 C6.22921518,1.94364238 5.92555094,2.00711921 5.63107069,2.11509934 C5.06205821,2.32360927 4.67099792,2.72046358 4.43359667,3.27397351 C4.26492723,3.66705298 4.19017152,4.08208609 4.15234927,4.50735099 C4.12163721,4.85284768 4.12617983,5.1981457 4.12568607,5.54374172 C4.12459979,6.4965894 4.12529106,7.44943709 4.12538981,8.40238411 C4.12538981,8.45453642 4.12410603,8.50678808 4.12588358,8.5589404 C4.12924116,8.65807947 4.13891892,8.66731788 4.24172037,8.67069536 C4.29356549,8.67238411 4.34550936,8.67119205 4.39735447,8.67119205 C5.35110707,8.67119205 6.30485967,8.67049669 7.25861227,8.67178808 C7.4689553,8.67208609 7.45512994,8.63692053 7.55329002,8.87066225 C7.73252599,9.29701987 7.91847713,9.72049669 8.10176195,10.1451656 C8.10956341,10.1630464 8.11933992,10.1801325 8.12704262,10.1981126 C8.18431913,10.3324172 8.1775052,10.3441391 8.04004158,10.3468212 C7.99461538,10.3477152 7.94918919,10.3470199 7.90376299,10.3470199 C6.73591476,10.3470199 5.56806653,10.3466225 4.4002183,10.3473179 C4.09378898,10.3475166 4.12568607,10.3162252 4.12568607,10.6151325 C4.12519231,14.9030464 4.12558732,19.1909603 4.1247973,23.4788742 C4.1247973,23.8013245 4.16340956,23.7636755 3.85036383,23.7646689 C3.32480249,23.7663576 2.79924116,23.7656623 2.27377859,23.7647682 C2.1031341,23.7644702 2.10303534,23.7627815 2.10096154,23.5905298 C2.10036902,23.5383775 2.10086279,23.4861258 2.10086279,23.4338742 C2.10086279,19.1720861 2.10115904,14.910298 2.10027027,10.6484106 C2.10017152,10.3029139 2.14490644,10.3492053 1.80154366,10.3476159 C1.2825,10.3452318 0.763456341,10.3466225 0.244412682,10.3475166 C0.173409563,10.3476159 0.102406445,10.3544702 0.0314033264,10.358245 L0.0314033264,8.67387417 C0.641003119,8.67298013 1.25070166,8.67238411 1.86030146,8.67109272 C2.12347713,8.67049669 2.10056653,8.69503311 2.10066528,8.42940397 C2.10135655,7.2681457 2.09987526,6.10678808 2.10234407,4.9455298 C2.10323285,4.54082781 2.14164761,4.13900662 2.21600832,3.74066225 C2.36571726,2.93890728 2.66345634,2.20529801 3.19178274,1.57599338 C3.52724532,1.17625828 3.93064969,0.862450331 4.39389813,0.630596026 C4.98078482,0.336754967 5.60746881,0.182384106 6.25982848,0.130231788 C6.33685551,0.130331126 6.41388254,0.130529801 6.49081081,0.130629139 C6.68801975,0.131225166 6.88512994,0.131821192 7.08224012,0.132317881 C7.17269751,0.132218543 7.26305613,0.132119205 7.35351351,0.132019868" id="Fill-1" fill="#FFFFFF"></path>
                            <path id="Fill-2" fill="#181917"></path>
                            <path id="Fill-3" fill="#181917"></path>
                            <path id="Fill-4" fill="#181917"></path>
                            <path d="M9.04060291,8.69145695 C9.08899168,8.66572848 9.14162682,8.67586093 9.19248441,8.67576159 C9.99712058,8.67506623 10.801658,8.6752649 11.6062942,8.67546358 C11.645104,8.67546358 11.6841112,8.67556291 11.7228222,8.67874172 C11.7593607,8.68172185 11.7826663,8.70397351 11.7843451,8.74092715 C11.7874064,8.80609272 11.7879002,8.87135762 11.7879002,8.93662252 C11.7880977,12.1674834 11.7879002,15.3983444 11.7882952,18.6292053 C11.7882952,18.8119868 11.7821726,18.9954636 11.7957017,19.177351 C11.8396466,19.7710927 11.987578,20.333245 12.3217568,20.8348013 C12.568342,21.2046358 12.8903742,21.4924172 13.270078,21.7174172 C13.7629522,22.0094702 14.3007588,22.1709934 14.8607848,22.2656623 C15.1291944,22.3110596 15.3998753,22.3333113 15.6713462,22.3557616 C16.0799844,22.3895364 16.4888202,22.3939073 16.8959771,22.3718543 C17.2777547,22.3511921 17.660816,22.3608278 18.0417048,22.3146358 C18.2601455,22.2880132 18.4814501,22.2856291 18.7007796,22.2652649 C18.9588202,22.2414238 19.2161694,22.2101325 19.473815,22.1816225 C19.5197349,22.1765563 19.5417568,22.1471523 19.5431393,22.102947 C19.5452131,22.0377815 19.5451143,21.9725166 19.5451143,21.9072517 C19.5452131,17.6123841 19.5452131,13.3176159 19.5452131,9.02284768 C19.5452131,8.96403974 19.5438306,8.90523179 19.5459044,8.84662252 C19.5495582,8.74271523 19.5654574,8.7284106 19.6752703,8.72334437 C19.6946258,8.72254967 19.7141788,8.72294702 19.7336331,8.72294702 C20.2851663,8.72294702 20.8366996,8.72284768 21.3882328,8.7231457 C21.4270426,8.7231457 21.4660499,8.72433775 21.5047609,8.72711921 C21.5421881,8.72980132 21.5652963,8.75304636 21.5673701,8.7892053 C21.5710239,8.85427152 21.5706289,8.91963576 21.5706289,8.98490066 C21.5707277,12.1243709 21.5707277,15.2639404 21.5707277,18.4034106 L21.5707277,23.4357616 C21.5706289,23.6603642 21.5708264,23.6624503 21.3480405,23.7025828 C20.8058888,23.8000331 20.2623545,23.887947 19.7153638,23.9543046 C19.3358576,24.0003974 18.9563514,24.0450993 18.5751663,24.0765894 C18.174527,24.1096689 17.7734927,24.1322185 17.3723597,24.156755 C16.9897921,24.1800993 16.6075208,24.1792053 16.2249532,24.1800993 C15.8486071,24.1809934 15.474236,24.1482119 15.0991736,24.1189073 C14.6327651,24.0824503 14.172183,24.0140066 13.7162422,23.9123841 C12.9630561,23.7445033 12.2482848,23.4816556 11.6090593,23.0358278 C10.8934979,22.536755 10.3897609,21.8732781 10.0942931,21.0504636 C9.93944906,20.6193377 9.85086798,20.1735099 9.79922037,19.717947 C9.76297817,19.3987748 9.76337318,19.079702 9.76327443,18.7603311 C9.76258316,16.0712583 9.76327443,13.3820861 9.76712578,10.6930132 C9.76732328,10.5387417 9.73908004,10.3990728 9.67755717,10.2587086 C9.47106549,9.78725166 9.27089397,9.31311258 9.06953742,8.83937086 C9.04998441,8.79327815 9.01413721,8.74817881 9.04060291,8.69145695" id="Fill-5" fill="#FFFFFF"></path>
                            <path d="M59.4917256,16.3819868 C59.4909356,17.2236755 59.5946258,17.9961258 59.842396,18.7454305 C60.1148545,19.5694371 60.5394906,20.3016556 61.1633108,20.9084106 C61.7634304,21.4920199 62.4713877,21.8863907 63.2764189,22.1039404 C63.6086227,22.1937417 63.9467516,22.2493709 64.2906081,22.2760927 C64.4588825,22.2892053 64.626762,22.3031126 64.7952339,22.3011258 C65.0952443,22.297649 65.463789,22.5077483 65.6136954,22.8936755 C65.8113981,23.4026821 65.5394335,24.0185762 64.9494854,24.1602318 C64.9056393,24.1707616 64.8602131,24.1784106 64.8153794,24.179404 C64.4971985,24.1871523 64.1813877,24.1583444 63.8652807,24.1230795 C63.5035499,24.082649 63.1483368,24.014106 62.7973701,23.9189404 C61.8433212,23.6601656 60.9882225,23.2125497 60.2346414,22.5680464 C59.5483108,21.9809603 59.0105042,21.277947 58.5960395,20.4750993 C58.2223597,19.7512252 57.9762682,18.9847351 57.8290281,18.1855629 C57.7558524,17.7882119 57.7095374,17.3869868 57.693342,16.9817881 C57.683368,16.7340397 57.6655925,16.4867881 57.6727027,16.2387417 C57.6999584,15.2883775 57.8348545,14.355596 58.1413825,13.4534106 C58.4248025,12.6193709 58.8290956,11.849106 59.384184,11.1641722 C59.9525052,10.4628477 60.6317256,9.89612583 61.4311279,9.47592715 C62.0684771,9.14076159 62.7417723,8.9160596 63.4490385,8.7915894 C63.7045114,8.7465894 63.962157,8.72294702 64.2206913,8.70149007 C64.4801143,8.67993377 64.7388462,8.67129139 64.997973,8.68033113 C65.7073129,8.70496689 66.4030249,8.81324503 67.0792827,9.0368543 C67.8257536,9.28370861 68.5105042,9.64698675 69.1276091,10.1364238 C69.5109667,10.4403974 69.8552183,10.785894 70.1620426,11.1678477 C70.4811123,11.565 70.7549532,11.9919536 70.9827755,12.4484106 C71.2780457,13.0399669 71.495499,13.6597351 71.6392827,14.3051325 C71.7486019,14.7956623 71.8156549,15.2918543 71.847157,15.7943046 C71.8664137,16.1009603 71.8843867,16.4072185 71.8673025,16.7131788 C71.8470582,17.0772517 71.8268139,17.4413245 71.7739813,17.8038079 C71.7147297,18.2110927 71.6339501,18.6124172 71.523841,19.0081788 C71.4854262,19.1462583 71.4439501,19.2837417 71.3968451,19.4189404 C71.3167568,19.6486093 71.1771206,19.8317881 70.9619387,19.9504967 C70.422157,20.2481126 69.8590696,19.9218874 69.6954366,19.4721854 C69.6193971,19.2634768 69.6051767,19.0543709 69.671341,18.839702 C69.7270374,18.6592053 69.7788825,18.4774172 69.8271726,18.2948344 C69.92079,17.9415894 69.9754002,17.5819868 70.0147037,17.2182119 C70.054106,16.853245 70.0567723,16.4882781 70.0457121,16.1236093 C70.0160863,15.1474172 69.817001,14.2090728 69.3801195,13.3311258 C68.9893555,12.5458609 68.4418711,11.8937086 67.7104106,11.4066556 C67.146632,11.0312583 66.5305146,10.7860927 65.8639345,10.664106 C65.434657,10.5855298 65.0032069,10.5437086 64.5680042,10.5619868 C63.6393347,10.6009272 62.7628067,10.8249338 61.9650832,11.3222185 C61.2486331,11.7687417 60.6968035,12.3704305 60.2835239,13.1061258 C59.9449012,13.7089073 59.7327807,14.3557947 59.61092,15.0344702 C59.527869,15.4975828 59.488368,15.9648675 59.4917256,16.3819868" id="Fill-6" fill="#FFFFFF"></path>
                            <path d="M45.2089397,11.9726821 C45.1392204,11.9396026 45.07829,11.8826821 45.0135083,11.8319205 C44.6754782,11.5667881 44.325499,11.3199338 43.9502391,11.1101325 C43.4475884,10.829106 42.9150156,10.6303311 42.3511383,10.5179801 C42.0774948,10.4634437 41.8001975,10.4419868 41.5218139,10.4219205 C41.2740437,10.4041391 41.028841,10.4141722 40.7842308,10.4366225 C40.272396,10.4837086 39.7949272,10.6339073 39.3753274,10.9453311 C38.9475312,11.2628146 38.692157,11.6892715 38.5884667,12.2081126 C38.5093659,12.6043709 38.5255613,13.0014238 38.6332017,13.3903311 C38.7503222,13.8137086 39.0043139,14.1467881 39.3424428,14.4185762 C39.6903482,14.6983113 40.0853586,14.8940066 40.4920218,15.0686424 C40.993685,15.2839073 41.514605,15.4431457 42.0331549,15.6099338 C42.5398545,15.772947 43.0367775,15.9619868 43.5154314,16.1972185 C43.9308836,16.4013576 44.3247089,16.6407616 44.6743919,16.9464238 C45.1283576,17.3430795 45.4684615,17.8211921 45.6668555,18.3961589 C45.8231809,18.8496358 45.8988254,19.3163245 45.9080094,19.7963245 C45.9179834,20.3154636 45.864657,20.8250662 45.7094179,21.3213576 C45.5475624,21.8388079 45.2909044,22.2997351 44.9200884,22.6991722 C44.5327807,23.1164901 44.0764449,23.4288079 43.5614501,23.6593709 C43.102843,23.864702 42.6228067,23.9933444 42.1277599,24.0759934 C41.6007173,24.1640066 41.0712058,24.1976821 40.5389293,24.1757285 C40.1895426,24.1614238 39.8412422,24.1246689 39.4956081,24.0666556 C39.0151767,23.9861921 38.5421518,23.8768212 38.0831497,23.7111258 C37.6790541,23.5651987 37.2909563,23.3856954 36.9328794,23.1448013 C36.8843919,23.1122185 36.8380769,23.0760596 36.7887994,23.0447682 C36.7333992,23.0096026 36.7099948,22.9613245 36.71592,22.8965563 C36.7176975,22.8771854 36.7160187,22.8574172 36.7160187,22.8378477 C36.7160187,22.1720861 36.7157225,21.5062252 36.7168087,20.8404636 C36.7168087,20.8042053 36.7022921,20.7632781 36.7437682,20.7242384 C36.801736,20.7448013 36.8465696,20.7911921 36.8940696,20.8324172 C37.193685,21.0932781 37.5093971,21.3325828 37.8440696,21.5461589 C38.4297713,21.9198675 39.0574428,22.1941391 39.7385395,22.3335099 C39.9792983,22.3827815 40.2238098,22.4099007 40.469605,22.4331457 C40.8149428,22.4657285 41.1578119,22.4468543 41.4990021,22.4163576 C41.9523753,22.3757285 42.3958732,22.2771854 42.8041164,22.0604305 C43.4143087,21.7363907 43.7685343,21.2291722 43.8801247,20.5444371 C43.917157,20.3171523 43.9269335,20.0896689 43.9117256,19.8619868 C43.8811123,19.403245 43.7515489,18.9783775 43.4539085,18.6177815 C43.2993607,18.4305298 43.1162734,18.2753642 42.9165956,18.1395695 C42.5323493,17.8782119 42.1091944,17.6961258 41.6795218,17.527947 C41.1659096,17.3269868 40.640447,17.159702 40.1208108,16.9756291 C39.6373181,16.8043709 39.1615281,16.6140397 38.7094387,16.3687748 C38.2963565,16.1446689 37.9099376,15.8822185 37.5795114,15.5443709 C37.1752183,15.1311258 36.9039449,14.6406954 36.7516684,14.0816225 C36.6026507,13.5343709 36.5744075,12.9760927 36.5944543,12.413245 C36.6110447,11.9459603 36.7056497,11.4943709 36.8878482,11.0641391 C37.0832796,10.6027152 37.3605769,10.1984106 37.7288254,9.85569536 C38.2260447,9.39307947 38.8127339,9.10102649 39.4557121,8.91149007 C39.7610551,8.82149007 40.0730146,8.75751656 40.3890229,8.72543046 C40.8601715,8.67764901 41.3322089,8.65857616 41.8068139,8.69950331 C42.0911227,8.7239404 42.3751351,8.74649007 42.6568763,8.79208609 C43.5178015,8.93125828 44.3298441,9.20413907 45.0656497,9.68503311 C45.087474,9.69923841 45.1085083,9.71463576 45.1311227,9.72735099 C45.2128898,9.77364238 45.2411331,9.84129139 45.2406393,9.93705298 C45.237183,10.5898013 45.2388617,11.2425497 45.238368,11.895298 C45.238368,11.9193377 45.2465644,11.9471523 45.2089397,11.9726821" id="Fill-7" fill="#FFFFFF"></path>
                            <path d="M49.4055301,15.480298 C49.4055301,13.8874172 49.4056289,12.2945364 49.4053326,10.701755 C49.4053326,10.4520199 49.4269595,10.4651325 49.1776091,10.4651325 C48.5870686,10.4652318 47.9965281,10.4651325 47.4059875,10.4651325 C47.3605613,10.4651325 47.3150364,10.4662252 47.2697089,10.4647351 C47.1505146,10.4610596 47.1380717,10.4506291 47.1377755,10.3269536 C47.1365904,9.82430464 47.137183,9.32165563 47.1374792,8.81900662 C47.1374792,8.79307947 47.1384667,8.76665563 47.1433056,8.7413245 C47.1486383,8.7142053 47.167105,8.69235099 47.1944595,8.68996689 C47.252526,8.68509934 47.3109875,8.6834106 47.3692516,8.6834106 C47.9663098,8.68291391 48.563368,8.6834106 49.1604262,8.68301325 C49.4292308,8.68281457 49.4052339,8.70397351 49.4053326,8.44470199 C49.4058264,7.37403974 49.4054314,6.30347682 49.4055301,5.23281457 C49.4056289,4.9792053 49.3872609,4.99907285 49.6347349,4.99887417 C50.160395,4.99857616 50.6860551,4.99877483 51.2117152,4.99887417 C51.2506237,4.99887417 51.289631,4.99778146 51.3284407,4.9994702 C51.422552,5.00344371 51.4343035,5.0160596 51.4375624,5.11837748 C51.4392412,5.1705298 51.4380561,5.22278146 51.4380561,5.27503311 C51.4380561,6.33258278 51.4378586,7.39013245 51.4381549,8.44768212 C51.4382536,8.69692053 51.4173181,8.68311258 51.6668659,8.68311258 C52.8998909,8.68311258 54.1329158,8.68301325 55.3659407,8.68321192 C55.6311902,8.68321192 55.6106497,8.66423841 55.6108472,8.92311258 C55.6111435,9.36049669 55.6109459,9.79788079 55.6108472,10.2352649 C55.6108472,10.2745033 55.6119335,10.3137417 55.6102547,10.3527815 C55.6060083,10.4466556 55.5911954,10.4608609 55.4920478,10.4645364 C55.440104,10.4664238 55.3881601,10.4651325 55.3362162,10.4651325 C54.1162266,10.4651325 52.8961383,10.4650331 51.6761486,10.4652318 C51.4159356,10.4652318 51.4382536,10.4459603 51.4382536,10.7112914 C51.4379574,13.6684768 51.4386486,16.6257616 51.4372661,19.582947 C51.4371674,19.9424503 51.4573129,20.3006623 51.5166632,20.654404 C51.5708784,20.9769536 51.6664709,21.2881788 51.8393867,21.5707947 C52.0993035,21.9957616 52.4772297,22.2474834 52.9591424,22.3447351 C53.1049012,22.3741391 53.2533264,22.3921192 53.4010603,22.4101987 C53.5902703,22.433245 53.7763202,22.4008609 53.9613825,22.3666887 C54.395894,22.2865232 54.8172713,22.1576821 55.2352911,22.0166225 C55.3643607,21.9730132 55.4922453,21.9261258 55.6211175,21.8818212 C55.6620998,21.8676159 55.6973545,21.8750662 55.7191788,21.9176821 C55.7280665,21.9350662 55.7386331,21.9515563 55.747422,21.9690397 C55.9628015,22.3931126 56.1780821,22.8173841 56.393264,23.2415563 C56.4050156,23.2648013 56.4163721,23.2883444 56.4280249,23.3115894 C56.4464917,23.3484437 56.4314813,23.3754636 56.3992879,23.391457 C56.3005353,23.4407285 56.202079,23.4911921 56.1009563,23.535 C55.5211798,23.7859272 54.9234304,23.9742715 54.2986227,24.0769868 C53.8232277,24.1550662 53.3462526,24.2030464 52.8656237,24.1744371 C52.2922661,24.1404636 51.7349064,24.0307947 51.2176403,23.7620861 C50.664132,23.4745033 50.2480873,23.0474503 49.9503482,22.5013907 C49.7299324,22.0973841 49.5993815,21.6624834 49.5169231,21.2100993 C49.4323909,20.7461921 49.4042464,20.2790066 49.4048389,19.8084437 C49.4067152,18.3656623 49.4055301,16.9229801 49.4055301,15.480298" id="Fill-8" fill="#FFFFFF"></path>
                            <path d="M27.2535447,12.1371854 C27.2535447,15.9224503 27.2535447,19.7076159 27.2533472,23.4928808 C27.2533472,23.5645033 27.2512734,23.6362252 27.2475208,23.7078477 C27.2461383,23.736457 27.226289,23.7544371 27.1980457,23.7586093 C27.1724688,23.7623841 27.1464969,23.7646689 27.1207225,23.7646689 C26.5367983,23.7650662 25.9528742,23.7650662 25.3690489,23.7649669 C25.3431757,23.7649669 25.3170062,23.7645695 25.2914293,23.7612914 C25.2555821,23.7565232 25.2331653,23.7357616 25.2300052,23.6982119 C25.2278326,23.6721854 25.2267464,23.6461589 25.2264501,23.6200331 C25.2258576,23.5678808 25.2261538,23.5156291 25.2261538,23.4634768 C25.2261538,15.9126159 25.2261538,8.36175497 25.2262526,0.81089404 C25.2262526,0.739072848 25.2265489,0.667350993 25.2281289,0.595529801 C25.2292152,0.549039735 25.2556809,0.524900662 25.3010083,0.52192053 C25.3268815,0.52013245 25.3528534,0.519834437 25.3787266,0.519834437 C25.9562318,0.519735099 26.5336383,0.519735099 27.1110447,0.519933775 C27.1369179,0.519933775 27.1628898,0.520728477 27.1886642,0.523509934 C27.2252027,0.527384106 27.2481133,0.54884106 27.2495946,0.585993377 C27.2524584,0.657615894 27.2533472,0.729437086 27.2534459,0.80115894 C27.2535447,4.31880795 27.2535447,7.83645695 27.2535447,11.3540066 L27.2535447,12.1371854" id="Fill-9" fill="#FFFFFF"></path>
                            <path d="M31.3063514,12.1601325 C31.3063514,8.3736755 31.3060551,4.58711921 31.3068451,0.800562914 C31.3068451,0.481092715 31.2691216,0.521324503 31.5869075,0.52013245 C32.0865956,0.518344371 32.5863825,0.519635762 33.0860707,0.519635762 C33.1314969,0.519635762 33.1770218,0.518543046 33.2223493,0.520331126 C33.3208056,0.52410596 33.3299896,0.533741722 33.3335447,0.63705298 C33.335421,0.689205298 33.334236,0.741456954 33.334236,0.793708609 C33.334236,8.36016556 33.334236,15.9267219 33.3339397,23.4932781 C33.3339397,23.5649007 33.3312734,23.6366225 33.3275208,23.708245 C33.3260395,23.737351 33.305894,23.7546358 33.2774532,23.7586093 C33.2518763,23.7622848 33.2259044,23.7646689 33.2001299,23.7646689 C32.6160083,23.7650662 32.0318867,23.7650662 31.4478638,23.7649669 C31.4218919,23.7649669 31.3956237,23.7652649 31.3701455,23.7610927 C31.3348909,23.7552318 31.3114865,23.7331788 31.3102027,23.6958278 C31.3077339,23.624106 31.3064501,23.5522848 31.3064501,23.4805629 C31.3063514,19.7071192 31.3063514,15.9336755 31.3063514,12.1601325" id="Fill-10" fill="#FFFFFF"></path>
                            <path d="M81.5806081,8.84374172 C81.5896933,8.91655629 81.5681653,8.97754967 81.5510811,9.0397351 C81.4128274,9.54218543 81.2754626,10.0448344 81.1375052,10.5472848 C81.1305925,10.5724172 81.1215073,10.5969536 81.112817,10.6214901 C81.0861538,10.6967881 81.071736,10.7135762 81.0035967,10.7022517 C80.8042152,10.6690728 80.6015748,10.6845695 80.4024896,10.6610265 C80.1373389,10.6297351 79.8716944,10.6274503 79.6059511,10.6245695 C79.2493555,10.620596 78.8924636,10.6295364 78.5381393,10.6747351 C77.8134927,10.7670199 77.1111642,10.9383775 76.4600884,11.2851656 C76.4543607,11.2881457 76.4488306,11.2920199 76.4428067,11.2940066 C76.3337838,11.3296689 76.2908264,11.4035762 76.3064293,11.5180132 C76.313342,11.5692715 76.3075156,11.6223179 76.3075156,11.6744702 C76.3075156,15.6095364 76.3077131,19.544702 76.3072193,23.4797682 C76.3071206,23.8015232 76.341684,23.7638742 76.030317,23.7647682 C75.5112734,23.7662583 74.9923285,23.7656623 74.4732848,23.7648675 C74.3020478,23.7645695 74.3019491,23.7628808 74.2997765,23.5911258 C74.299184,23.5519868 74.2996778,23.5128477 74.2996778,23.4737086 C74.2996778,19.1600662 74.299579,14.8465232 74.299579,10.5328808 C74.2619543,10.3439404 74.3384875,10.2206623 74.5147609,10.1548013 C75.4480717,9.56950331 76.4582121,9.1718543 77.5263202,8.92152318 C77.8666216,8.84175497 78.2118607,8.78304636 78.5605561,8.74668874 C78.9152755,8.70963576 79.2701923,8.68043046 79.6269854,8.67615894 C79.971237,8.67198675 80.312921,8.70665563 80.6547037,8.74092715 C80.8352235,8.75910596 81.0161383,8.77350993 81.1965593,8.79298013 C81.3246414,8.80688742 81.4522297,8.82655629 81.5806081,8.84374172" id="Fill-11" fill="#FFFFFF"></path>
                            <path d="M93.119158,8.67536424 C93.0672141,8.67536424 93.015369,8.67596026 92.9634252,8.67675497 C92.9208628,8.67745033 92.8883732,8.69582781 92.8713877,8.73596026 C92.8561798,8.77192053 92.8426507,8.8086755 92.8293191,8.84543046 C92.7274064,9.12735099 92.625,9.40897351 92.5240748,9.69129139 C92.0417672,11.0412914 91.5598545,12.3914901 91.077843,13.7415894 C90.6375052,14.9751656 90.1969699,16.2086424 89.757027,17.4423179 C89.2579314,18.8416887 88.7597245,20.2412583 88.2604314,21.6406291 C88.1882432,21.8431788 88.1124012,22.0444371 88.0385343,22.2464901 C88.0291528,22.2722185 88.0184875,22.2936755 87.9792827,22.2813576 C87.97158,22.2610927 87.9619023,22.2372517 87.9532121,22.2131126 C87.8244387,21.8577815 87.6959615,21.502351 87.5670894,21.1471192 C86.9870166,19.5483775 86.4060551,17.9498344 85.8266736,16.3507947 C85.3894958,15.1438411 84.9544906,13.9359934 84.5180042,12.7287417 C84.0527807,11.4418212 83.5869647,10.1550993 83.1211486,8.86837748 C83.1056445,8.82556291 83.0896466,8.78264901 83.0704886,8.7413245 C83.0441216,8.68460265 83.0091632,8.67 82.9442827,8.67774834 C82.887895,8.68460265 82.8729834,8.7247351 82.8601455,8.77082781 C82.7504314,9.16629139 82.640421,9.56165563 82.5295218,9.95682119 C82.3746778,10.5089404 82.2201299,11.0611589 82.0627183,11.6125828 C82.0315125,11.7215563 82.0201559,11.8210927 82.0643971,11.9339404 C82.385343,12.7529801 82.6998701,13.5745033 83.0161746,14.3952318 C83.4965073,15.6418212 83.9765437,16.8884106 84.4567775,18.135 C84.8012266,19.0288411 85.1457744,19.9225828 85.490421,20.8163245 C85.8469179,21.7404636 86.2019335,22.6651987 86.5611954,23.588245 C86.6185707,23.7356623 86.6659719,23.8872517 86.7313462,24.0314901 L86.8785863,24.411457 C86.8933004,24.4548675 86.9090021,24.4979801 86.9281601,24.5393046 C86.9752651,24.6406291 86.9742775,24.7321192 86.9330977,24.8367219 C86.7278898,25.357351 86.5287058,25.8803642 86.3277443,26.4027815 C85.8954054,27.5262914 85.4633628,28.65 85.0307277,29.7735099 C85.0143347,29.8161258 84.9932017,29.8569536 84.9998181,29.9047351 L86.9858316,29.9047351 C86.9886954,29.8920199 86.9902755,29.8788079 86.9947193,29.8666887 C87.2190852,29.2697682 87.4430561,28.672649 87.6683108,28.0760265 C88.104501,26.9208278 88.5416788,25.7660265 88.9771778,24.6105298 L88.9772765,24.6105298 L89.0080873,24.5290728 C89.033368,24.4628146 89.0668451,24.3989404 89.0835343,24.3296026 L89.4183056,23.445 L89.4179106,23.445 C89.53908,23.1251325 89.6602495,22.8052649 89.7812214,22.4851987 C90.1080925,21.6204636 90.4352599,20.7558278 90.7615385,19.8907947 C91.0693503,19.0745364 91.3754834,18.2577815 91.6832952,17.4415232 C92.025473,16.5340728 92.369132,15.6271192 92.7114085,14.7196689 C93.0193191,13.9036093 93.3258472,13.087053 93.6338565,12.2710927 C94.0129678,11.2661921 94.3923753,10.2614901 94.7731653,9.25728477 C94.8372557,9.08850993 94.8909771,8.91566225 94.9685967,8.75215232 L94.9685967,8.67387417 C94.3520842,8.67427152 93.7356705,8.67476821 93.119158,8.67536424" id="Fill-12" fill="#FFFFFF"></path>
                        </g>
                    </g>
                </g>
                <g id="Group-7">
                    <g id="Rectangle-33-Copy">
                        <use fill="black" fill-opacity="1" filter="url(#filter-10)" xlink:href="#path-9"></use>
                        <use fill="#5CCD38" fill-rule="evenodd" xlink:href="#path-9"></use>
                    </g>
                    <text id="1" font-family="AvenirNext-DemiBold, Avenir Next" font-size="50" font-weight="500" fill="#FFFFFF">
                        <tspan x="20.25" y="55">1</tspan>
                    </text>
                </g>
            </g>
        </g>
    </g>
</svg>