<?xml version="1.0" encoding="UTF-8" standalone="no"?>
<svg width="74px" height="145px" viewBox="0 0 74 145" version="1.1" xmlns="http://www.w3.org/2000/svg" xmlns:xlink="http://www.w3.org/1999/xlink">
    <!-- Generator: Sketch 39.1 (31720) - http://www.bohemiancoding.com/sketch -->
    <title>Group 18</title>
    <desc>Created with Sketch.</desc>
    <defs></defs>
    <g id="Page-1" stroke="none" stroke-width="1" fill="none" fill-rule="evenodd">
        <g id="Group-18" transform="translate(2.000000, 2.000000)" stroke="#01B4DC" stroke-width="4">
            <g id="Icon" transform="translate(44.500000, 87.000000) rotate(-90.000000) translate(-44.500000, -87.000000) translate(-9.500000, 61.500000)">
                <path d="M0,9.45404 C0,8.38644 1.09,6.80034 2.16467188,6.80034 L20.7662031,6.80034 C21.8476875,6.80034 22.140625,8.39494 22.140625,9.45404 L22.140625,45.66744 C22.140625,46.73504 21.8425781,47.60034 20.7662031,47.60034 L2.16467188,47.60034 C1.0831875,47.60034 0,46.72654 0,45.66744 L0,9.45404 L0,9.45404 Z" id="Stroke-70"></path>
                <path d="M72.6261805,23.6085018 C70.7344276,31.0511024 68.0753495,42.9788074 67.1678437,45.3203 C65.7014531,49.0994 60.79475,49.3 59.7422187,49.3 L56.203125,49.3" id="Stroke-72" stroke-linecap="round" stroke-linejoin="bevel"></path>
                <path d="M37.7082516,49.3074706 C33.8319391,47.8930706 24.2121506,45.0724121 24.2121506,45.0724121" id="Stroke-76" stroke-linecap="round" stroke-linejoin="bevel"></path>
                <path d="M37.46875,49.3 L59.609375,49.3" id="Stroke-78" stroke-linecap="round"></path>
                <path d="M72.7878036,23.6041016 L99.7323859,23.6041016 C99.7323859,23.6041016 107.562991,24.7637207 107.562991,17.4548828 C107.562991,10.1460449 99.7323859,11.2110382 99.7323859,11.2110382 L53.8970865,9.7824707 C53.8970865,9.7824707 49.9121092,0.474804686 45.6874918,0.474804687 C40.8375773,0.474804686 20.8554877,11.2110382 20.8554877,11.2110382" id="Path-3"></path>
            </g>
            <path d="M44.6203874,68.661236 C47.0848689,67.9582171 49.4383174,66.9918555 51.6483616,65.7945228 C53.7581557,64.6515025 55.7372603,63.2979899 57.5575124,61.7621481 C65.166728,55.3418555 70,45.7353634 70,35 C70,15.6700338 54.3299662,0 35,0 C15.6700338,0 0,15.6700338 0,35 C0,48.5472874 7.69683944,60.2968816 18.9561381,66.1144024 C19.4593453,66.3744024 19.9696682,66.6225536 20.4867378,66.8584868 C23.2579955,68.1229813 26.2230496,69.0365184 29.3250802,69.542278" id="Oval-4" stroke-linecap="round" stroke-linejoin="round"></path>
            <path d="M42.8585216,59.9222258 C45.4535488,59.1414141 47.8743443,57.9583028 50.0484314,56.4453685 C51.4812313,55.4482915 52.806879,54.3079634 54.0046289,53.0451297 C58.3402266,48.4739426 61,42.297583 61,35.5 C61,21.4167389 49.5832611,10 35.5,10 C21.4167389,10 10,21.4167389 10,35.5 C10,44.0948628 14.2521982,51.6965714 20.767635,56.3161664 L20.767635,56.3161664 C23.4087404,58.1887711 26.421736,59.5713616 29.6741411,60.3314574" id="Oval-4-Copy"></path>
            <path d="M42.7650205,48.8284466 C44.7800421,47.7636331 46.5139181,46.2379647 47.8263167,44.3917732 C48.3813086,43.6110492 48.8609274,42.7730058 49.2545607,41.8882556 C50.0550981,40.0889271 50.5,38.0964198 50.5,36 C50.5,27.9918711 44.0081289,21.5 36,21.5 C27.9918711,21.5 21.5,27.9918711 21.5,36 C21.5,37.9918334 21.9016186,39.8898637 22.6282939,41.6175291 L22.6282939,41.6175291 C23.0236483,42.5574816 23.5152197,43.4470059 24.0906785,44.2737725 C25.6002386,46.4425708 27.687055,48.1795121 30.1285612,49.2620298" id="Oval-4-Copy-2"></path>
        </g>
    </g>
</svg>