<?xml version="1.0" encoding="UTF-8" standalone="no"?>
<svg width="90px" height="149px" viewBox="0 0 90 149" version="1.1" xmlns="http://www.w3.org/2000/svg" xmlns:xlink="http://www.w3.org/1999/xlink">
    <!-- Generator: Sketch 39.1 (31720) - http://www.bohemiancoding.com/sketch -->
    <title>Group 20</title>
    <desc>Created with Sketch.</desc>
    <defs>
        <path d="M42.822411,147 C53.5872144,147 62.3138118,138.251818 62.3138118,127.46039 C62.3138118,116.668961 52.4110822,101.816192 52.4110822,101.816192 C47.1154053,92.4537762 38.405601,92.3875099 33.2266025,101.829772 C33.2266025,101.829772 23.3310101,116.668961 23.3310101,127.46039 C23.3310101,138.251818 32.0576075,147 42.822411,147 Z" id="path-1"></path>
        <mask id="mask-2" maskContentUnits="userSpaceOnUse" maskUnits="objectBoundingBox" x="0" y="0" width="38.9828016" height="58" fill="white">
            <use xlink:href="#path-1"></use>
        </mask>
    </defs>
    <g id="Page-1" stroke="none" stroke-width="1" fill="none" fill-rule="evenodd">
        <g id="Group-20" transform="translate(2.000000, 2.000000)" stroke="#01B4DC">
            <use id="Oval-2-Copy" mask="url(#mask-2)" stroke-width="8" xlink:href="#path-1"></use>
            <path d="M35.3310101,133.652507 C37.1345619,135.638447 39.7342809,136.884921 42.6244111,136.884921 C48.0702326,136.884921 52.4849431,132.459291 52.4849431,127" id="Oval-3-Copy" stroke-width="4" stroke-linecap="round" stroke-linejoin="round"></path>
            <path d="M34,76.4956055 L34,75.1933594 L34,75.1933594 L34,8.49768433 C34,3.80454287 37.8151318,0 42.5,0 L42.5,0 C47.1944204,0 51,3.80415151 51,8.50369588 L51,75.4082031 L51,76.5085042" id="Rectangle-3" stroke-width="4"></path>
            <path d="M17,76.4954403 L17,74.9980469 L17,74.9980469 L17,16.502342 C17,11.8066282 20.8151318,8 25.5,8 L25.5,8 C30.1944204,8 34,11.8073514 34,16.4947611 L34,74.8046875 L34,76.4996807" id="Rectangle-3-Copy" stroke-width="4"></path>
            <path d="M0,93.5024534 L0,33.4975466 C0,28.8044812 3.81513183,25 8.5,25 C13.1944204,25 17,28.7990169 17,33.5098071 L17,74.9980469" id="Rectangle-3-Copy-3" stroke-width="4"></path>
            <path d="M68.3138118,75.2324219 L68.3138118,50.4934667 C68.3138118,45.8026546 72.1289436,42 76.8138118,42 C81.5082321,42 85.3138118,45.8052999 85.3138118,50.4975466 C85.3138118,50.4975466 85.3138123,94.6220703 85.3138118,110.502453 C83.5693359,120.560547 84.5927262,120.255626 79.2822266,127.053711 C73.9717269,133.851796 66.9541016,134.59668 66.9541016,134.59668" id="Rectangle-3-Copy-4" stroke-width="4" stroke-linecap="round" stroke-linejoin="round"></path>
            <path d="M51.3138118,76.5048608 L51.3138118,75.3613281 L51.3138118,75.3613281 L51.3138118,16.4972285 C51.3138118,11.8043388 55.1289436,8 59.8138118,8 L59.8138118,8 C64.5082321,8 68.3138118,11.8146409 68.3138118,16.4972285 L68.3138118,75.3613281 L68.3138118,76.5048608" id="Rectangle-3-Copy-2" stroke-width="4"></path>
            <path d="M0.0966796882,92.5371094 C0.0966796882,92.5371094 0.0966796882,112.845703 3.66210938,126.480469 C8.85591344,138.127196 19.984375,137.214844 19.984375,137.214844" id="Path-4" stroke-width="4" stroke-linecap="round" stroke-linejoin="round"></path>
        </g>
    </g>
</svg>