<?xml version="1.0" encoding="UTF-8" standalone="no"?>
<svg width="150px" height="149px" viewBox="0 0 150 149" version="1.1" xmlns="http://www.w3.org/2000/svg" xmlns:xlink="http://www.w3.org/1999/xlink">
    <!-- Generator: Sketch 39.1 (31720) - http://www.bohemiancoding.com/sketch -->
    <title>Group 16</title>
    <desc>Created with Sketch.</desc>
    <defs></defs>
    <g id="Page-1" stroke="none" stroke-width="1" fill="none" fill-rule="evenodd" stroke-linecap="round">
        <g id="Group-16" transform="translate(2.000000, 2.000000)" stroke="#01B4DC" stroke-width="4">
            <g id="Page-1" transform="translate(0.000000, 30.000000)">
                <path d="M105.007343,72.1842733 C105.007343,61.5800291 90.5553162,52.9811919 72.7265459,52.9811919 C54.8977757,52.9811919 40.4457486,61.5800291 40.4457486,72.1842733" id="Stroke-1"></path>
                <path d="M72.7266446,52.9955233 C82.5323203,52.9955233 90.4814284,45.1142442 90.4814284,35.3926163 C90.4814284,25.6719767 82.5323203,17.7906977 72.7266446,17.7906977 C62.9209689,17.7906977 54.9718608,25.6719767 54.9718608,35.3926163 C54.9718608,45.1142442 62.9209689,52.9955233 72.7266446,52.9955233 L72.7266446,52.9955233 Z" id="Stroke-3"></path>
                <path d="M105.087939,72.1842733 L105.087939,82.6896802 C105.087939,83.6276453 104.766345,84.9856686 103.830169,84.9856686 L42.5910608,84.9856686 C41.6736284,84.9856686 40.5263446,83.6157849 40.5263446,82.6896802 L40.5263446,72.1842733" id="Stroke-5"></path>
                <path d="M48.3646703,37.740593 C43.6295351,36.1186744 38.1367784,35.190593 32.2809946,35.190593 C14.4522243,35.190593 0.000197297297,43.7884419 0.000197297297,54.3936744" id="Stroke-7"></path>
                <path d="M32.2806986,35.2048256 C42.0863743,35.2048256 50.0354824,27.3235465 50.0354824,17.6019186 C50.0354824,7.88127907 42.0863743,0 32.2806986,0 C22.475023,0 14.5259149,7.88127907 14.5259149,17.6019186 C14.5259149,27.3235465 22.475023,35.2048256 32.2806986,35.2048256 L32.2806986,35.2048256 Z" id="Stroke-9"></path>
                <path d="M34.1233568,67.1953663 L2.14541081,67.1953663 C1.22797838,67.1953663 0.0806945946,65.8254826 0.0806945946,64.8993779 L0.0806945946,54.3939709" id="Stroke-11"></path>
                <path d="M97.5312554,37.740593 C102.266391,36.1186744 107.759147,35.190593 113.614931,35.190593 C131.443701,35.190593 145.895728,43.7884419 145.895728,54.3936744" id="Stroke-13"></path>
                <path d="M113.615326,35.2048256 C103.80965,35.2048256 95.8605419,27.3235465 95.8605419,17.6019186 C95.8605419,7.88127907 103.80965,0 113.615326,0 C123.421001,0 131.370109,7.88127907 131.370109,17.6019186 C131.370109,27.3235465 123.421001,35.2048256 113.615326,35.2048256 L113.615326,35.2048256 Z" id="Stroke-15"></path>
                <path d="M111.772668,67.1953663 L143.750614,67.1953663 C144.668046,67.1953663 145.81533,65.8254826 145.81533,64.8993779 L145.81533,54.3939709" id="Stroke-17"></path>
            </g>
            <path d="M1,59.570642 L1,8.00303259 C1,3.58307974 4.5797846,0 8.99231236,0 L137.825443,0 C142.239475,0 145.817755,3.58666293 145.817755,7.99056892 L145.817755,59.4778685" id="Path-2"></path>
            <path d="M1,144.570642 L1,116.002977 C1,111.583055 4.5797846,108 8.99231236,108 L137.825443,108 C142.239475,108 145.817755,111.580753 145.817755,116.005223 L145.817755,144.477869" id="Path-2-Copy" transform="translate(73.408878, 126.285321) scale(1, -1) translate(-73.408878, -126.285321) "></path>
        </g>
    </g>
</svg>