<?xml version="1.0" encoding="UTF-8" standalone="no"?>
<svg width="149px" height="149px" viewBox="0 0 149 149" version="1.1" xmlns="http://www.w3.org/2000/svg" xmlns:xlink="http://www.w3.org/1999/xlink">
    <!-- Generator: Sketch 39.1 (31720) - http://www.bohemiancoding.com/sketch -->
    <title>Group 25</title>
    <desc>Created with Sketch.</desc>
    <defs></defs>
    <g id="Page-1" stroke="none" stroke-width="1" fill="none" fill-rule="evenodd">
        <g id="Group-25">
            <rect id="Rectangle-8-Copy-2" fill="#F3F4F8" x="0" y="0" width="149" height="149"></rect>
            <polyline id="Polygon" stroke="#40AAE0" stroke-width="4" stroke-linecap="round" stroke-linejoin="round" points="79.5009825 74.5 60.2086406 107.4 21.6239569 107.4 2.33161507 74.5 21.6239569 41.6 60.2086406 41.6 79.5009825 74.5"></polyline>
            <polyline id="Polygon-Copy" stroke="#40AAE0" stroke-width="4" stroke-linecap="round" stroke-linejoin="round" points="27.4992026 97.3807093 14.0821063 74.5 27.4992026 51.6192907 54.333395 51.6192907"></polyline>
            <polyline id="Polygon" stroke="#40AAE0" stroke-width="4" stroke-linecap="round" stroke-linejoin="round" points="146.331615 112.1 127.039273 145 88.4545895 145 69.1622477 112.1 88.4545895 79.2 127.039273 79.2 146.331615 112.1"></polyline>
            <path d="M120.914918,89.644108 L134.082904,112.1" id="Polygon-Copy-3" stroke="#40AAE0" stroke-width="4" stroke-linecap="round" stroke-linejoin="round"></path>
            <polyline id="Polygon" stroke="#40AAE0" stroke-width="4" stroke-linecap="round" stroke-linejoin="round" points="146.331615 36.9 127.039273 69.8 88.4545895 69.8 69.1622477 36.9 88.4545895 4 127.039273 4 146.331615 36.9"></polyline>
            <polyline id="Polygon-Copy-2" stroke="#40AAE0" stroke-width="4" stroke-linecap="round" stroke-linejoin="round" points="135.165808 36.9 121.456369 60.2792515 94.0374933 60.2792515"></polyline>
        </g>
    </g>
</svg>