<?xml version="1.0" encoding="UTF-8" standalone="no"?>
<svg width="428px" height="90px" viewBox="0 0 428 90" version="1.1" xmlns="http://www.w3.org/2000/svg" xmlns:xlink="http://www.w3.org/1999/xlink">
    <!-- Generator: Sketch 3.8.3 (29802) - http://www.bohemiancoding.com/sketch -->
    <title>Page 1</title>
    <desc>Created with Sketch.</desc>
    <defs></defs>
    <g id="Page-1" stroke="none" stroke-width="1" fill="none" fill-rule="evenodd">
        <g transform="translate(6.000000, 4.000000)">
            <path d="M0.2678,52.3028 L0.2678,2.2668 L17.2278,2.2668 C25.4778,2.2668 32.1698,8.9568 32.1698,17.2108 C32.1698,25.4608 25.4778,32.1508 17.2278,32.1508" id="Stroke-1" stroke="#DF3175" stroke-width="12.536" stroke-linecap="round" stroke-linejoin="round"></path>
            <path d="M224.9456,52.3028 L224.9456,2.2668 L241.9076,2.2668 C250.1576,2.2668 256.8476,8.9568 256.8476,17.2108 C256.8476,25.4608 250.1576,32.1508 241.9076,32.1508" id="Stroke-3" stroke="#DF3175" stroke-width="12.536" stroke-linecap="round" stroke-linejoin="round"></path>
            <path d="M43.4046,27.285 C43.4046,27.285 40.1546,46.663 41.1546,50.539 C42.1546,54.413 46.2786,55.039 46.2786,55.039 C46.2786,55.039 50.1546,52.727 52.2786,48.977 C54.4046,45.227 57.5286,34.663 58.6546,32.539 C59.7786,30.413 62.7366,25.653 66.9046,24.789 C71.0726,23.925 71.6546,31.289 71.6546,31.289" id="Stroke-5" stroke="#DF3175" stroke-width="8" stroke-linecap="round" stroke-linejoin="round"></path>
            <path d="M55.4046,42.078 C55.4046,42.078 53.4046,53.288 63.6546,55.038 C73.9046,56.788 77.4046,47.538 77.4046,47.538 L82.4046,29.788 L86.2746,12.788 L89.2066,0.538" id="Stroke-7" stroke="#DF3175" stroke-width="8" stroke-linecap="round" stroke-linejoin="round"></path>
            <polyline id="Stroke-9" stroke="#DF3175" stroke-width="8" stroke-linecap="round" stroke-linejoin="round" points="75.6546 17.789 84.7886 19.319 94.4046 18.555"></polyline>
            <path d="M79.9768,38.539 C79.9768,38.539 81.1528,46.623 82.9048,50.039 C84.6568,53.457 85.5928,55.955 89.2068,56.289 C92.8228,56.623 98.4068,48.627 99.5308,46.291 C100.6568,43.957 103.4048,27.285 103.4048,27.285 C103.4048,27.285 101.0708,41.567 101.1548,45.469 C101.2388,49.373 102.5468,54.299 107.6548,55.039 C112.7628,55.779 117.3548,44.627 118.6548,40.669 C119.9548,36.713 121.1548,27.789 121.1548,27.789 C121.1548,27.789 118.7368,39.707 118.9048,44.539 C119.0728,49.373 119.2368,52.623 124.6548,55.039 C130.0728,57.457 135.9048,41.787 135.9048,41.787 L140.7128,24.789 C140.7128,24.789 142.6588,25.623 145.3228,26.039 C147.9868,26.455 151.1568,25.705 151.1568,25.705 C151.1568,25.705 148.7408,35.469 147.8228,40.669 C146.9048,45.871 146.7428,49.957 147.6568,52.623 C148.5708,55.287 149.8708,56.239 153.9048,56.705 C157.9388,57.171 161.1588,49.789 162.9888,45.955 C164.8188,42.121 165.4908,35.873 166.9888,32.373 C168.4868,28.871 171.5188,23.835 177.0728,24.789 C182.6268,25.743 182.3268,30.123 181.8228,33.455 C181.3188,36.789 179.6588,41.789 175.4068,43.373 C171.1548,44.957 164.9068,43.623 164.9068,43.623 C164.9068,43.623 163.9088,49.789 166.9888,53.705 C170.0688,57.621 180.3348,56.813 182.4588,56.351 C184.5848,55.889 190.8208,53.205 192.3428,49.351 C193.8628,45.499 193.4048,41.351 193.4048,41.351" id="Stroke-11" stroke="#DF3175" stroke-width="8" stroke-linecap="round" stroke-linejoin="round"></path>
            <path d="M257.1624,43.789 C257.1624,43.789 269.4904,45.253 273.2804,43.373 C277.0684,41.493 279.8244,37.789 280.2804,33.915 C280.7344,30.039 281.4524,26.335 276.4044,24.789 C271.3564,23.243 266.7404,29.623 265.7804,32.539 C264.8184,35.457 261.2404,46.123 264.6544,51.165 C268.0684,56.207 270.7344,56.789 274.9844,56.457 C279.2344,56.123 282.5744,52.873 284.9044,49.789 C287.2344,46.707 293.8224,24.123 293.8224,24.123 C293.8224,24.123 295.9084,25.539 298.4884,25.873 C301.0684,26.207 304.4064,25.623 304.4064,25.623 C304.4064,25.623 302.5024,34.625 300.9104,42.041 C299.3184,49.457 300.6204,55.327 305.4944,56.457 C310.3704,57.585 319.4944,45.707 319.4944,45.707 C319.4944,45.707 328.4744,36.863 330.7724,29.411 C333.0684,21.957 334.5764,18.039 334.6504,13.873 C334.7244,9.707 334.4164,5.125 331.7424,4.623 C329.0684,4.123 324.2524,14.377 322.1604,22.043 C320.0684,29.707 314.4104,60.287 313.6564,65.955 C312.9024,71.623 310.7424,79.787 315.6564,80.955 C320.5704,82.123 321.7644,74.483 322.2404,71.121 C322.7164,67.757 323.4084,60.785 322.7404,56.287 C322.0724,51.791 319.7404,47.287 319.7404,47.287" id="Stroke-13" stroke="#DF3175" stroke-width="8" stroke-linecap="round" stroke-linejoin="round"></path>
            <path d="M321.5588,47.6202 C321.5588,47.6202 327.8248,47.8682 331.9908,46.3702 C336.1568,44.8722 341.2828,39.7842 342.4068,38.2862 C343.5288,36.7902 347.6508,28.2042 350.6548,26.0382 C353.6588,23.8722 356.4908,25.0382 357.5728,26.0382 C358.6548,27.0382 360.1528,31.6222 359.7388,35.0382 C359.3248,38.4562 356.4128,43.0002 352.4708,44.0202 C348.5288,45.0382 342.3228,42.1222 342.3228,42.1222 C342.3228,42.1222 343.1488,48.4542 344.4048,51.6222 C345.6608,54.7882 349.7328,56.2462 351.6548,56.2882 C353.5768,56.3302 359.1988,55.3142 362.5728,52.2062 C365.9448,49.0982 368.5728,41.1642 368.5728,41.1642 C368.5728,41.1642 370.3228,34.7082 372.0728,31.5382 C373.8228,28.3702 376.7368,24.7062 380.2388,24.8722 C383.7408,25.0362 384.1548,32.4562 384.1548,32.4562" id="Stroke-15" stroke="#DF3175" stroke-width="8" stroke-linecap="round" stroke-linejoin="round"></path>
            <path d="M366.9476,45.746 C366.9476,45.746 369.9056,56.248 378.9076,55.624 C387.9096,54.998 392.6016,45.498 393.4076,41.788 C394.2116,38.08 396.1436,22.542 396.8176,18.874 C397.4916,15.206 401.9016,0.124 401.9016,0.124" id="Stroke-17" stroke="#DF3175" stroke-width="8" stroke-linecap="round" stroke-linejoin="round"></path>
            <path d="M387.9828,17.4552 C387.9828,17.4552 391.1108,19.7732 396.6948,19.6872 C402.2788,19.6012 411.3508,14.4212 411.3508,14.4212" id="Stroke-19" stroke="#DF3175" stroke-width="8" stroke-linecap="round" stroke-linejoin="round"></path>
            <path d="M393.1996,42.672 C393.1996,42.672 394.2096,55.476 401.9016,56.29 C409.5916,57.102 417.1556,31.79 417.1556,31.79" id="Stroke-21" stroke="#DF3175" stroke-width="8" stroke-linecap="round" stroke-linejoin="round"></path>
            <path d="M49.4886,16.4552 C49.4886,18.5732 47.7726,20.2912 45.6526,20.2912 C43.5326,20.2912 41.8166,18.5732 41.8166,16.4552 C41.8166,14.3372 43.5326,12.6192 45.6526,12.6192 C47.7726,12.6192 49.4886,14.3372 49.4886,16.4552" id="Fill-23" fill="#DF3175"></path>
            <path d="M41.6194,39.879 C41.6194,39.879 39.5314,49.129 35.7794,52.879 C32.0274,56.629 27.0294,54.003 27.0294,54.003" id="Stroke-25" stroke="#DF3175" stroke-width="8" stroke-linecap="round" stroke-linejoin="round"></path>
        </g>
    </g>
</svg>