<?xml version="1.0" encoding="UTF-8"?>
<svg width="3491px" height="1002px" viewBox="0 0 3491 1002" version="1.1" xmlns="http://www.w3.org/2000/svg" xmlns:xlink="http://www.w3.org/1999/xlink">
    <!-- Generator: Sketch 41.2 (35397) - http://www.bohemiancoding.com/sketch -->
    <title>Group 50</title>
    <desc>Created with Sketch.</desc>
    <defs>
        <rect id="path-1" x="0" y="0" width="432" height="354" rx="18"></rect>
        <polygon id="path-3" points="-3.96195652 245.935547 270.726562 151.769531 323.542969 187.447266 437.618376 75.1933594 440.337891 347.566406 -3.36328125 347.912109"></polygon>
        <filter x="-50%" y="-50%" width="200%" height="200%" filterUnits="objectBoundingBox" id="filter-4">
            <feOffset dx="0" dy="12" in="SourceAlpha" result="shadowOffsetOuter1"></feOffset>
            <feGaussianBlur stdDeviation="12" in="shadowOffsetOuter1" result="shadowBlurOuter1"></feGaussianBlur>
            <feColorMatrix values="0 0 0 0 0   0 0 0 0 0   0 0 0 0 0  0 0 0 0.5 0" type="matrix" in="shadowBlurOuter1"></feColorMatrix>
        </filter>
        <polygon id="path-5" points="-3.96195652 287.935547 270.726562 199.769531 323.542969 247.447266 437.618376 177.193359 440.337891 389.566406 -3.36328125 389.912109"></polygon>
        <filter x="-50%" y="-50%" width="200%" height="200%" filterUnits="objectBoundingBox" id="filter-6">
            <feOffset dx="0" dy="12" in="SourceAlpha" result="shadowOffsetOuter1"></feOffset>
            <feGaussianBlur stdDeviation="12" in="shadowOffsetOuter1" result="shadowBlurOuter1"></feGaussianBlur>
            <feColorMatrix values="0 0 0 0 0   0 0 0 0 0   0 0 0 0 0  0 0 0 0.5 0" type="matrix" in="shadowBlurOuter1"></feColorMatrix>
        </filter>
        <rect id="path-7" x="6" y="0" width="432" height="43.3199987"></rect>
        <filter x="-50%" y="-50%" width="200%" height="200%" filterUnits="objectBoundingBox" id="filter-8">
            <feOffset dx="0" dy="6" in="SourceAlpha" result="shadowOffsetOuter1"></feOffset>
            <feColorMatrix values="0 0 0 0 0.592156863   0 0 0 0 0.592156863   0 0 0 0 0.592156863  0 0 0 1 0" type="matrix" in="shadowOffsetOuter1"></feColorMatrix>
        </filter>
        <rect id="path-9" x="392" y="105" width="42" height="354"></rect>
        <filter x="-50%" y="-50%" width="200%" height="200%" filterUnits="objectBoundingBox" id="filter-10">
            <feOffset dx="0" dy="12" in="SourceAlpha" result="shadowOffsetOuter1"></feOffset>
            <feGaussianBlur stdDeviation="12" in="shadowOffsetOuter1" result="shadowBlurOuter1"></feGaussianBlur>
            <feColorMatrix values="0 0 0 0 0   0 0 0 0 0   0 0 0 0 0  0 0 0 0.3 0" type="matrix" in="shadowBlurOuter1"></feColorMatrix>
        </filter>
        <path d="M5.45696821e-12,12.8266008 C5.45696821e-12,5.0372073 5.36987311,-0.510507153 11.9820279,0.433731605 L144.017972,19.2889246 C150.635463,20.2339255 156,26.379962 156,32.9849531 L156,261.015047 C156,267.634154 150.630127,273.766837 144.017972,274.711075 L11.9820279,293.566268 C5.36453664,294.511269 5.45696821e-12,288.946181 5.45696821e-12,281.173399 L5.45696821e-12,12.8266008 Z" id="path-11"></path>
        <linearGradient x1="17.5845694%" y1="0%" x2="54.0938835%" y2="100%" id="linearGradient-13">
            <stop stop-color="#000000" offset="0%"></stop>
            <stop stop-color="#000000" stop-opacity="0" offset="100%"></stop>
        </linearGradient>
    </defs>
    <g id="Page-1" stroke="none" stroke-width="1" fill="none" fill-rule="evenodd">
        <g id="Group-50">
            <g id="Group-47" transform="translate(0.000000, 628.000000)">
                <g id="Google_2015_logo" transform="translate(0.000000, 45.000000)" fill="#767676">
                    <path d="M221.903495,116.18 L116.798906,116.18 L116.798906,150.771 L191.340484,150.771 C187.657991,199.277 151.271444,219.963 116.925136,219.963 C72.9826359,219.963 34.6375388,181.617 34.6375388,127.871 C34.6375388,75.514 71.1901685,35.192 117.021612,35.192 C152.381367,35.192 173.217448,60.192 173.217448,60.192 L195.055255,35.111 C195.055255,35.111 167.025862,0.503 115.905377,0.503 C50.8094176,0.502 0.449920134,61.436 0.449920134,127.253 C0.449920134,191.746 47.8213708,254.633 117.564401,254.633 C178.904114,254.633 223.805061,208.029 223.805061,139.113 C223.805061,124.574 221.901782,116.171 221.901782,116.171 L221.903495,116.18 Z" id="path2998"></path>
                    <path d="M308.001438,91.129 C264.874024,91.129 233.966584,128.524 233.966584,172.137 C233.966584,216.395 263.945331,254.485 308.508162,254.485 C348.849498,254.485 381.899242,220.288 381.899242,173.088 C381.899242,118.99 343.454964,91.129 308.001438,91.129 L308.001438,91.129 Z M308.430287,123.212 C329.638747,123.212 349.736381,142.229 349.736381,172.872 C349.736381,202.865 329.724403,222.424 308.332909,222.424 C284.828865,222.424 266.286565,201.546 266.286565,172.634 C266.286565,144.342 284.598946,123.212 308.430287,123.212 L308.430287,123.212 Z" id="path3000"></path>
                    <path d="M469.016944,91.129 C425.88953,91.129 394.98209,128.524 394.98209,172.137 C394.98209,216.395 424.960837,254.485 469.523668,254.485 C509.865004,254.485 542.914748,220.288 542.914748,173.088 C542.914748,118.99 504.47047,91.129 469.016944,91.129 L469.016944,91.129 Z M469.445784,123.212 C490.654243,123.212 510.751878,142.229 510.751878,172.872 C510.751878,202.865 490.7399,222.424 469.348406,222.424 C445.844362,222.424 427.302062,201.546 427.302062,172.634 C427.302062,144.342 445.614443,123.212 469.445784,123.212 L469.445784,123.212 Z" id="path3005"></path>
                    <path d="M626.948829,91.215 C587.36307,91.215 556.247351,129.668 556.247351,172.828 C556.247351,221.991 592.321208,254.593 626.266285,254.593 C647.255645,254.593 658.416189,245.3525 666.656309,234.746 L666.656309,250.852 C666.656309,279.032 651.229188,295.907 627.943342,295.907 C605.448237,295.907 594.165069,277.356 590.243822,266.829 L561.940329,279.952 C571.981031,303.499 592.194077,328.055 628.177769,328.055 C667.536314,328.055 697.533995,300.56 697.533995,242.896 L697.533995,96.126 L666.657211,96.126 L666.657211,109.962 C657.162904,98.615 644.179237,91.217 626.948829,91.217 L626.948829,91.215 Z M629.814252,123.233 C649.22213,123.233 669.151157,141.613 669.151157,173.001 C669.151157,204.905 649.264507,222.488 629.38507,222.488 C608.281201,222.488 588.644306,203.483 588.644306,173.304 C588.644306,141.946 609.038581,123.233 629.813351,123.233 L629.814252,123.233 Z" id="path3007"></path>
                    <path d="M834.82275,91.02 C797.482084,91.02 766.129233,123.97 766.129233,172.59 C766.129233,224.037 801.076035,254.549 838.409488,254.549 C869.568486,254.549 888.692346,235.643 900.10535,218.704 L874.647445,199.917 C868.041283,211.288 856.99687,222.401 838.565473,222.401 C817.861933,222.401 808.342381,209.827 802.44473,197.647 L901.192732,152.203 L896.066077,138.885 C886.526689,112.805 864.274126,91.025 834.826447,91.025 L834.82275,91.02 Z M836.109215,122.433 C849.564442,122.433 859.248094,130.3672 863.36049,139.88 L797.415182,170.45 C794.57212,146.783 814.788952,122.433 836.109215,122.433 L836.109215,122.433 Z" id="path3011"></path>
                    <polygon id="path3015" points="719.051718 249.7 751.488345 249.7 751.488345 8.95 719.051718 8.95"></polygon>
                </g>
                <text id="Waitstaff-Manager" font-family="ProductSans-Regular, Product Sans" font-size="305" font-weight="normal" letter-spacing="6.77777815" fill="#BEBEBE">
                    <tspan x="947.627375" y="293">Waitstaff Manager</tspan>
                </text>
            </g>
            <g id="Group-38" transform="translate(1436.000000, 0.000000)">
                <g id="Group-37" transform="translate(194.000000, 105.000000)">
                    <g id="Path-7-+-Path-7-Copy-Mask" transform="translate(6.000000, 0.000000)">
                        <mask id="mask-2" fill="white">
                            <use xlink:href="#path-1"></use>
                        </mask>
                        <use id="Mask" fill="#EAEAEA" xlink:href="#path-1"></use>
                        <g id="Path-7-Copy-2" mask="url(#mask-2)">
                            <use fill="black" fill-opacity="1" filter="url(#filter-4)" xlink:href="#path-3"></use>
                            <use fill="#06A35E" fill-rule="evenodd" xlink:href="#path-3"></use>
                        </g>
                        <g id="Path-7-Copy" mask="url(#mask-2)">
                            <use fill="black" fill-opacity="1" filter="url(#filter-6)" xlink:href="#path-5"></use>
                            <use fill="#9ECF64" fill-rule="evenodd" xlink:href="#path-5"></use>
                        </g>
                    </g>
                    <g id="Rectangle-19">
                        <use fill="black" fill-opacity="1" filter="url(#filter-8)" xlink:href="#path-7"></use>
                        <use fill="#EAEAEA" fill-rule="evenodd" xlink:href="#path-7"></use>
                    </g>
                    <ellipse id="Oval-4" fill="#979797" cx="413.25" cy="23.2048193" rx="11.25" ry="11.2048193"></ellipse>
                    <ellipse id="Oval-4-Copy" fill="#979797" cx="377.25" cy="23.2048193" rx="11.25" ry="11.2048193"></ellipse>
                    <g id="Path-7" transform="translate(0.000000, 60.000000)"></g>
                </g>
                <g id="Rectangle-17">
                    <use fill="black" fill-opacity="1" filter="url(#filter-10)" xlink:href="#path-9"></use>
                    <use fill="#D8D8D8" fill-rule="evenodd" xlink:href="#path-9"></use>
                </g>
                <path d="M217.367188,57.3574219 L30.7906809,46.7093228 C14.2492903,45.7652899 0.83984375,58.4331806 0.83984375,75.0023552 L0.83984375,494.980067 C0.83984375,511.54991 14.2398776,524.114685 30.7785825,523.043698 L218,510.919922 L217.367188,57.3574219 Z" id="Path-5" fill="#3361D2"></path>
                <path d="M217.472656,57.197284 L404.19104,36.193108 C420.654074,34.3411614 434,46.2714242 434,62.8336399 L434,506.828506 C434,523.393612 420.661158,535.221421 404.217568,533.247942 L216.839844,510.759784 L217.472656,57.197284 Z" id="Path-5-Copy" fill="#4586F7"></path>
                <path d="M235.344813,94.9221238 C235.357481,84.9783796 243.377033,76.0164084 253.264748,74.9041274 L386.197569,59.9503542 C402.656997,58.0988133 416,70.0262448 416,86.5898459 L416,483.039937 C416,499.604063 402.660485,511.430997 386.21193,509.456922 L252.705969,493.434189 C242.83878,492.249977 234.850123,483.221619 234.862782,473.285243 L235.344813,94.9221238 Z" id="Path-5-Copy-3" fill="#B2B2B2"></path>
                <path d="M238.294062,103.573526 C238.30579,93.6272778 246.327368,84.6629631 256.210272,83.5512233 L371.184787,70.6176015 C387.651275,68.7652665 401,80.6901182 401,97.2559264 L401,478.354368 C401,494.918644 387.665229,506.746268 371.216242,504.772141 L255.708951,490.909521 C245.840115,489.725112 237.849341,480.710871 237.86108,470.755683 L238.294062,103.573526 Z" id="Path-5-Copy-4" fill="#C4C4C4"></path>
                <g id="Line" transform="translate(38.000000, 0.000000)">
                    <mask id="mask-12" fill="white">
                        <use xlink:href="#path-11"></use>
                    </mask>
                    <use id="Mask" fill="#00ABF7" xlink:href="#path-11"></use>
                    <polygon fill="#EFEFEF" mask="url(#mask-12)" points="30 -30 30 321 54 321 54 -30"></polygon>
                    <polygon id="Line-Copy-13" fill="#EFEFEF" mask="url(#mask-12)" points="118 54 118 393 130 393 130 54"></polygon>
                    <polygon id="Line-Copy-14" fill="#EFEFEF" mask="url(#mask-12)" points="88 48 88 387 100 387 100 48"></polygon>
                </g>
                <polygon id="Rectangle-16" fill="#FFFFFF" points="248 102.004262 255.808488 106.914015 263.502481 100.346032 271.423802 105.295913 279.166966 98.6704728 286.964289 103.685564 294.705553 97.0083805 302.51808 102.073837 310.237489 95.3469996 318.149308 100.454085 325.83475 93.6786313 333.678632 98.844893 341.380226 92.0158021 349.275892 97.2286611 356.900523 90.3556662 364.823269 95.6175984 372.680215 88.6677839 380.511983 93.9918899 388.272012 87 388.108108 483 380.486803 476.023033 372.595175 481.340652 364.894531 474.407318 357.025707 479.675256 349.371147 472.798741 341.681429 478.033948 333.636349 471.168258 325.881071 476.343856 318.106313 469.558992 310.404719 474.68842 302.444679 467.936089 295.015308 473.042285 287.062394 466.342134 279.223501 471.353107 271.280564 464.706777 263.681588 469.690658 255.810864 463.103763 248 468.01327"></polygon>
                <polygon id="Line-Copy-2" fill="#C5C5C5" points="259.858756 177.32643 377.23877 169.12207 377.23877 157.400391 259.858756 166.092773"></polygon>
                <polygon id="Line-Copy-11" fill="#C5C5C5" points="259.858756 421.886719 378.195298 429.32643 378.195298 417.596191 259.858756 410.67357"></polygon>
                <polygon id="Line-Copy-3" fill="#C5C5C5" points="343.247803 257.88501 378.582031 256.234863 378.582031 244.152832 343.208252 245.731934"></polygon>
                <polygon id="Line-Copy-4" fill="#C5C5C5" points="259.513514 261 335.812988 258.215332 335.857666 246.262939 259.513514 249"></polygon>
                <polygon id="Line-Copy-12" fill="#C5C5C5" points="260.097708 147.532155 336.261885 140.415805 336.261885 128.537109 260.097708 135.856934"></polygon>
                <polygon id="Line-Copy-6" fill="#C5C5C5" points="343.189189 291 378.540541 291 378.540541 279 343.189189 279"></polygon>
                <polygon id="Line-Copy-7" fill="#C5C5C5" points="343.189189 321 378.540541 321 378.540541 309 343.189189 309"></polygon>
                <polygon id="Line-Copy-5" fill="#C5C5C5" points="259.513514 291 335.72973 291 335.72973 279 259.513514 279"></polygon>
                <polygon id="Line-Copy-8" fill="#C5C5C5" points="259.513514 321 335.72973 321 335.72973 309 259.513514 309"></polygon>
                <polygon id="Line-Copy-10" fill="#C5C5C5" points="342.986328 353.865967 378.6875 354.848145 378.424561 342.413086 343.529053 341.41626"></polygon>
                <polygon id="Line-Copy-9" fill="#C5C5C5" points="259.513514 351 335.881104 353.187012 335.799072 341.368652 259.513514 339"></polygon>
                <path d="M217.23938,155.663086 L28.2021571,236.233447 C12.9576909,242.730856 0.611257244,261.427756 0.625632719,278.002328 L0.813820406,494.978141 C0.828192702,511.549048 14.2398776,524.066145 30.7785825,522.935251 L218,510.133301 L217.23938,155.663086 Z" id="Path-5-Copy-2" fill="#3361D2"></path>
                <path d="M217.472656,57.197284 L434,248.839862 L434,506.818096 C434,523.388951 420.661158,535.221421 404.217568,533.247942 L216.839844,510.759784 L217.472656,57.197284 Z" id="Path-5-Copy-5" fill="url(#linearGradient-13)" opacity="0.119999997"></path>
            </g>
        </g>
    </g>
</svg>