<!-- Generator: Adobe Illustrator 18.1.0, SVG Export Plug-In  -->
<svg version="1.1"
	 xmlns="http://www.w3.org/2000/svg" xmlns:xlink="http://www.w3.org/1999/xlink" xmlns:a="http://ns.adobe.com/AdobeSVGViewerExtensions/3.0/"
	 x="0px" y="0px" width="135.653px" height="135.652px" viewBox="0 0 135.653 135.652" enable-background="new 0 0 135.653 135.652"
	 xml:space="preserve">
<defs>
</defs>
<g>
	<circle fill="#40AAE0" cx="67.826" cy="67.826" r="67.826"/>
	<g>
		<path fill="#FFFFFF" d="M97.449,61.49l-32.533-8.793l0.001-25.807c0-1.201-0.476-2.352-1.325-3.201c-0.849-0.85-2-1.326-3.2-1.326
			H55.99c-1.2,0-2.351,0.477-3.2,1.326c-0.849,0.849-1.325,2-1.325,3.2l0.002,39.659l-6.999-4.96
			c-0.995-0.705-2.232-0.977-3.432-0.759c-1.2,0.22-2.259,0.914-2.94,1.926l-2.189,3.256c-1.037,1.541-1.026,3.56,0.028,5.091
			l15.531,22.566v13.091c0,2.499,2.025,4.525,4.524,4.525l32.551,0.008c0.001,0,0.001,0,0.001,0c2.498,0,4.524-2.024,4.526-4.521
			l0.002-2.765l6.833-11.988c0.389-0.682,0.593-1.452,0.594-2.237l0.02-24.002C100.517,63.838,99.284,62.114,97.449,61.49z"/>
	</g>
</g>
</svg>