<!-- Generator: Adobe Illustrator 18.1.0, SVG Export Plug-In  -->
<svg version="1.1"
	 xmlns="http://www.w3.org/2000/svg" xmlns:xlink="http://www.w3.org/1999/xlink" xmlns:a="http://ns.adobe.com/AdobeSVGViewerExtensions/3.0/"
	 x="0px" y="0px" width="427.925px" height="416.581px" viewBox="0 0 427.925 416.581" enable-background="new 0 0 427.925 416.581"
	 xml:space="preserve">
<defs>
</defs>
<g>
	<path fill="#41ABE1" d="M288.725,138.714c-13.167-35.121-47.047-60.119-86.767-60.119V29.636
		c62.697,0,115.876,40.75,134.497,97.209"/>
	<path fill="#41ABE1" d="M288.725,138.714c3.793,10.116,5.867,21.073,5.867,32.515c0,26.582-11.197,50.549-29.132,67.442
		l34.361,34.887c26.947-25.779,43.729-62.094,43.729-102.329c0-15.503-2.491-30.423-7.096-44.383L288.725,138.714z"/>
	<path fill="#334763" d="M97.464,75.68c25.889-28.297,63.118-46.044,104.494-46.044v48.959c-27.036,0-51.367,11.583-68.302,30.056"
		/>
	<path fill="#51709B" d="M173.424,309.944c-64.521-13.203-113.058-70.291-113.058-138.716c0-36.824,14.058-70.364,37.098-95.548
		l36.192,32.971c-15.109,16.483-24.331,38.454-24.331,62.577c0,44.652,31.594,81.926,73.646,90.686"/>
	<path fill="#51709B" d="M173.424,309.944c9.217,1.886,18.76,2.876,28.534,2.876c37.963,0,72.438-14.941,97.863-39.263l-0.002-0.002
		l-34.363-34.889l0.004,0.004c-16.583,15.619-38.924,25.19-63.502,25.19c-6.507,0-12.857-0.671-18.986-1.947"/>
	<polyline fill="none" stroke="#41ABE1" stroke-width="3.3381" stroke-linecap="round" stroke-miterlimit="10" points="
		313.786,70.249 339.656,40.206 375.541,40.206 	"/>
	<polyline fill="none" stroke="#51709B" stroke-width="3.3381" stroke-linecap="round" stroke-miterlimit="10" points="
		112.663,297.799 86.793,327.842 50.908,327.842 	"/>
	<g>
		<path fill="#41ABE1" d="M394.146,37.251c1.525,0,2.727,0.368,3.604,1.105s1.315,1.75,1.315,3.042c0,1.467-0.456,2.608-1.369,3.423
			s-2.171,1.223-3.775,1.223c-0.71,0-1.385-0.07-2.024-0.21c-0.639-0.14-1.173-0.341-1.604-0.602v-1.007
			c0.704,0.359,1.33,0.608,1.878,0.748c0.548,0.141,1.131,0.21,1.75,0.21c1.252,0,2.256-0.331,3.013-0.993
			c0.756-0.662,1.135-1.557,1.135-2.685c0-1.062-0.369-1.897-1.105-2.503c-0.737-0.606-1.737-0.91-3.003-0.91
			c-0.848,0-1.734,0.127-2.659,0.381l-0.587-0.381l0.567-6.542h6.885v0.939h-5.966l-0.44,5.046
			C392.776,37.345,393.571,37.251,394.146,37.251z"/>
		<path fill="#41ABE1" d="M409.9,34.914c0,0.887-0.278,1.633-0.836,2.239c-0.558,0.606-1.306,0.995-2.244,1.164v0.059
			c1.147,0.144,2.021,0.508,2.62,1.095c0.601,0.587,0.9,1.376,0.9,2.367c0,1.337-0.455,2.372-1.364,3.105
			c-0.91,0.733-2.219,1.101-3.927,1.101c-1.454,0-2.722-0.271-3.805-0.812v-0.968c0.548,0.287,1.162,0.512,1.844,0.675
			c0.682,0.163,1.322,0.245,1.922,0.245c1.44,0,2.523-0.292,3.247-0.875c0.724-0.583,1.085-1.406,1.085-2.469
			c0-0.945-0.37-1.672-1.109-2.181c-0.74-0.509-1.827-0.763-3.262-0.763h-1.545v-0.939h1.564c1.187,0,2.127-0.282,2.821-0.846
			s1.042-1.328,1.042-2.293c0-0.795-0.282-1.433-0.847-1.912c-0.563-0.479-1.302-0.719-2.215-0.719
			c-0.711,0-1.359,0.099-1.946,0.298c-0.587,0.199-1.245,0.54-1.976,1.022l-0.479-0.655c0.554-0.463,1.222-0.83,2.005-1.101
			c0.782-0.27,1.574-0.406,2.376-0.406c1.317,0,2.334,0.312,3.052,0.934C409.542,32.9,409.9,33.779,409.9,34.914z"/>
		<path fill="#41ABE1" d="M418.487,35.813c0,1.474-0.244,2.594-0.733,3.359c-0.489,0.766-1.193,1.149-2.112,1.149
			c-0.867,0-1.547-0.393-2.039-1.179s-0.738-1.896-0.738-3.33c0-1.454,0.234-2.562,0.704-3.325c0.469-0.763,1.16-1.145,2.073-1.145
			c0.906,0,1.606,0.393,2.103,1.179C418.239,33.308,418.487,34.405,418.487,35.813z M413.822,35.813c0,1.213,0.146,2.124,0.44,2.733
			c0.293,0.61,0.753,0.915,1.379,0.915c1.258,0,1.888-1.216,1.888-3.648c0-1.199-0.162-2.101-0.484-2.704
			c-0.323-0.603-0.791-0.904-1.403-0.904c-0.626,0-1.086,0.302-1.379,0.904C413.969,33.712,413.822,34.614,413.822,35.813z
			 M424.276,31.549l-7.931,14.298h-0.939l7.932-14.298H424.276z M426.819,41.563c0,1.474-0.241,2.593-0.724,3.359
			s-1.184,1.149-2.103,1.149c-0.887,0-1.574-0.396-2.063-1.188s-0.733-1.899-0.733-3.32c0-1.467,0.239-2.578,0.719-3.334
			s1.172-1.135,2.078-1.135c0.894,0,1.588,0.391,2.083,1.174C426.571,39.05,426.819,40.149,426.819,41.563z M422.154,41.563
			c0,1.207,0.147,2.111,0.44,2.714c0.293,0.604,0.753,0.905,1.379,0.905c1.258,0,1.888-1.206,1.888-3.619
			c0-2.406-0.63-3.608-1.888-3.608c-0.626,0-1.086,0.298-1.379,0.895C422.302,39.446,422.154,40.351,422.154,41.563z"/>
	</g>
	<g>
		<path fill="#51709B" d="M9.574,322.827c0,0.887-0.278,1.633-0.836,2.239c-0.557,0.606-1.305,0.994-2.244,1.164v0.059
			c1.147,0.144,2.021,0.509,2.621,1.096c0.6,0.586,0.9,1.375,0.9,2.366c0,1.337-0.455,2.372-1.365,3.105
			c-0.909,0.733-2.219,1.1-3.926,1.1c-1.455,0-2.723-0.271-3.805-0.812v-0.968c0.547,0.287,1.162,0.512,1.844,0.675
			c0.681,0.163,1.321,0.244,1.922,0.244c1.44,0,2.522-0.292,3.246-0.875c0.725-0.584,1.086-1.407,1.086-2.47
			c0-0.945-0.37-1.672-1.11-2.181c-0.739-0.509-1.827-0.763-3.261-0.763H3.101v-0.939h1.565c1.186,0,2.127-0.281,2.82-0.846
			c0.695-0.563,1.042-1.328,1.042-2.293c0-0.796-0.282-1.433-0.846-1.912s-1.303-0.719-2.216-0.719c-0.71,0-1.359,0.1-1.945,0.298
			c-0.587,0.199-1.246,0.54-1.976,1.022l-0.479-0.655c0.555-0.463,1.223-0.83,2.005-1.101s1.575-0.405,2.376-0.405
			c1.317,0,2.334,0.312,3.052,0.934C9.217,320.814,9.574,321.692,9.574,322.827z"/>
		<path fill="#51709B" d="M21.008,322.827c0,0.887-0.279,1.633-0.836,2.239c-0.559,0.606-1.307,0.994-2.245,1.164v0.059
			c1.147,0.144,2.021,0.509,2.621,1.096c0.6,0.586,0.899,1.375,0.899,2.366c0,1.337-0.455,2.372-1.364,3.105s-2.218,1.1-3.927,1.1
			c-1.453,0-2.722-0.271-3.804-0.812v-0.968c0.548,0.287,1.162,0.512,1.843,0.675c0.682,0.163,1.322,0.244,1.922,0.244
			c1.441,0,2.523-0.292,3.247-0.875c0.724-0.584,1.086-1.407,1.086-2.47c0-0.945-0.37-1.672-1.11-2.181s-1.827-0.763-3.262-0.763
			h-1.545v-0.939h1.564c1.188,0,2.127-0.281,2.822-0.846c0.693-0.563,1.041-1.328,1.041-2.293c0-0.796-0.282-1.433-0.846-1.912
			c-0.564-0.479-1.303-0.719-2.215-0.719c-0.711,0-1.359,0.1-1.947,0.298c-0.586,0.199-1.244,0.54-1.975,1.022l-0.479-0.655
			c0.554-0.463,1.223-0.83,2.005-1.101s1.574-0.405,2.377-0.405c1.316,0,2.334,0.312,3.051,0.934
			C20.648,320.814,21.008,321.692,21.008,322.827z"/>
		<path fill="#51709B" d="M29.594,323.727c0,1.474-0.244,2.594-0.733,3.359c-0.489,0.767-1.193,1.149-2.112,1.149
			c-0.867,0-1.547-0.393-2.039-1.179c-0.492-0.785-0.738-1.896-0.738-3.33c0-1.453,0.234-2.562,0.703-3.325
			c0.471-0.763,1.161-1.144,2.074-1.144c0.906,0,1.607,0.393,2.103,1.178C29.346,321.222,29.594,322.318,29.594,323.727z
			 M24.929,323.727c0,1.213,0.147,2.124,0.44,2.733c0.293,0.61,0.753,0.915,1.379,0.915c1.258,0,1.887-1.216,1.887-3.648
			c0-1.199-0.16-2.101-0.483-2.704c-0.323-0.603-0.791-0.904-1.403-0.904c-0.626,0-1.086,0.302-1.379,0.904
			C25.076,321.626,24.929,322.527,24.929,323.727z M35.383,319.463l-7.931,14.298h-0.938l7.931-14.298H35.383z M37.926,329.478
			c0,1.474-0.241,2.593-0.724,3.359c-0.482,0.766-1.183,1.148-2.103,1.148c-0.887,0-1.574-0.396-2.063-1.188
			c-0.489-0.793-0.733-1.899-0.733-3.32c0-1.467,0.24-2.579,0.719-3.335c0.479-0.757,1.172-1.135,2.078-1.135
			c0.893,0,1.588,0.392,2.083,1.174S37.926,328.062,37.926,329.478z M33.262,329.478c0,1.206,0.146,2.11,0.439,2.714
			c0.293,0.603,0.753,0.904,1.379,0.904c1.258,0,1.888-1.206,1.888-3.618c0-2.406-0.63-3.609-1.888-3.609
			c-0.626,0-1.086,0.299-1.379,0.896S33.262,328.265,33.262,329.478z"/>
	</g>
	<g>
		<path fill="#51709B" d="M6.67,17.163H5.712V6.748c0-0.945,0.039-1.927,0.117-2.944C5.731,3.901,5.631,3.996,5.525,4.088
			C5.422,4.179,4.414,4.971,2.504,6.464L1.947,5.77l3.882-2.904H6.67V17.163z"/>
		<path fill="#51709B" d="M22.592,13.516h-2.465v3.647h-0.919v-3.647h-7.354V12.86l7.09-10.073h1.184v9.887h2.465V13.516z
			 M19.208,12.674V8.586c0-1.969,0.046-3.621,0.137-4.958h-0.078c-0.13,0.241-0.531,0.854-1.202,1.839l-5.047,7.207H19.208z"/>
		<path fill="#51709B" d="M29.594,7.129c0,1.474-0.244,2.594-0.733,3.359c-0.489,0.767-1.193,1.149-2.112,1.149
			c-0.867,0-1.547-0.393-2.039-1.179c-0.492-0.785-0.738-1.896-0.738-3.33c0-1.453,0.234-2.562,0.703-3.325
			c0.471-0.763,1.161-1.144,2.074-1.144c0.906,0,1.607,0.393,2.103,1.178C29.346,4.624,29.594,5.721,29.594,7.129z M24.929,7.129
			c0,1.213,0.147,2.124,0.44,2.733c0.293,0.61,0.753,0.915,1.379,0.915c1.258,0,1.887-1.216,1.887-3.648
			c0-1.199-0.16-2.101-0.483-2.704c-0.323-0.603-0.791-0.904-1.403-0.904c-0.626,0-1.086,0.302-1.379,0.904
			C25.076,5.028,24.929,5.93,24.929,7.129z M35.383,2.865l-7.931,14.298h-0.938l7.931-14.298H35.383z M37.926,12.88
			c0,1.474-0.241,2.593-0.724,3.359c-0.482,0.766-1.183,1.148-2.103,1.148c-0.887,0-1.574-0.396-2.063-1.188
			c-0.489-0.793-0.733-1.899-0.733-3.32c0-1.467,0.24-2.579,0.719-3.335C33.5,8.788,34.193,8.41,35.1,8.41
			c0.893,0,1.588,0.392,2.083,1.174S37.926,11.465,37.926,12.88z M33.262,12.88c0,1.206,0.146,2.11,0.439,2.714
			c0.293,0.603,0.753,0.904,1.379,0.904c1.258,0,1.888-1.206,1.888-3.618c0-2.406-0.63-3.609-1.888-3.609
			c-0.626,0-1.086,0.299-1.379,0.896S33.262,11.667,33.262,12.88z"/>
	</g>
	<g>
		<rect x="158.535" y="384.869" fill="#51709B" width="85.409" height="31.712"/>
		<rect x="63.533" y="384.869" fill="#334763" width="85.409" height="31.712"/>
		<rect x="251.202" y="384.869" fill="#41ABE1" width="85.409" height="31.712"/>
		<g>
			<path fill="#FFFFFF" d="M186.835,407.901h-8.948v-0.86l3.804-3.971c1.069-1.108,1.819-1.956,2.249-2.543
				c0.431-0.587,0.747-1.147,0.949-1.682c0.202-0.535,0.303-1.096,0.303-1.683c0-0.854-0.279-1.548-0.841-2.083
				c-0.561-0.534-1.288-0.802-2.181-0.802c-1.193,0-2.334,0.434-3.423,1.301l-0.528-0.675c1.193-1.004,2.517-1.506,3.971-1.506
				c1.245,0,2.225,0.332,2.939,0.997c0.713,0.665,1.07,1.581,1.07,2.748c0,0.945-0.24,1.86-0.719,2.743
				c-0.479,0.884-1.354,1.975-2.626,3.271l-3.667,3.766v0.039h7.647V407.901z"/>
			<path fill="#FFFFFF" d="M193.465,399.305c1.526,0,2.728,0.369,3.604,1.105s1.315,1.751,1.315,3.041
				c0,1.468-0.457,2.608-1.369,3.423c-0.913,0.815-2.171,1.223-3.775,1.223c-0.711,0-1.385-0.07-2.023-0.21
				c-0.64-0.141-1.174-0.341-1.604-0.602v-1.007c0.704,0.358,1.33,0.607,1.878,0.748c0.547,0.14,1.131,0.21,1.75,0.21
				c1.252,0,2.256-0.331,3.013-0.992c0.756-0.662,1.134-1.557,1.134-2.685c0-1.063-0.367-1.897-1.104-2.504
				s-1.737-0.909-3.003-0.909c-0.848,0-1.734,0.127-2.66,0.381l-0.586-0.381l0.566-6.543h6.885v0.938h-5.965l-0.44,5.047
				C192.096,399.399,192.892,399.305,193.465,399.305z"/>
			<path fill="#FFFFFF" d="M200.546,402.895v-0.803h4.646v0.803H200.546z"/>
			<path fill="#FFFFFF" d="M215.665,396.968c0,0.887-0.278,1.633-0.836,2.239s-1.306,0.994-2.245,1.164v0.059
				c1.148,0.144,2.021,0.509,2.621,1.096c0.6,0.586,0.9,1.375,0.9,2.366c0,1.337-0.455,2.372-1.365,3.105
				c-0.908,0.733-2.218,1.1-3.926,1.1c-1.454,0-2.723-0.271-3.805-0.812v-0.968c0.548,0.287,1.162,0.512,1.844,0.675
				s1.322,0.244,1.922,0.244c1.441,0,2.523-0.292,3.246-0.875c0.725-0.584,1.086-1.407,1.086-2.47c0-0.945-0.369-1.672-1.109-2.181
				s-1.828-0.763-3.262-0.763h-1.545v-0.939h1.564c1.187,0,2.127-0.281,2.821-0.846c0.694-0.563,1.042-1.328,1.042-2.293
				c0-0.796-0.283-1.433-0.846-1.912c-0.564-0.479-1.303-0.719-2.216-0.719c-0.71,0-1.359,0.1-1.946,0.298
				c-0.586,0.199-1.245,0.54-1.975,1.022l-0.48-0.655c0.555-0.463,1.223-0.83,2.006-1.101c0.781-0.271,1.574-0.405,2.376-0.405
				c1.317,0,2.334,0.312,3.052,0.934C215.307,394.955,215.665,395.833,215.665,396.968z"/>
			<path fill="#FFFFFF" d="M228.682,404.254h-2.464v3.647h-0.919v-3.647h-7.355v-0.655l7.091-10.073h1.184v9.887h2.464V404.254z
				 M225.299,403.412v-4.088c0-1.969,0.045-3.621,0.137-4.958h-0.078c-0.131,0.241-0.531,0.854-1.203,1.839l-5.047,7.207H225.299z"
				/>
		</g>
		<g>
			<path fill="#FFFFFF" d="M90.355,396.968c0,0.887-0.279,1.633-0.836,2.239c-0.558,0.606-1.306,0.994-2.244,1.164v0.059
				c1.146,0.144,2.021,0.509,2.621,1.096c0.6,0.586,0.899,1.375,0.899,2.366c0,1.337-0.455,2.372-1.364,3.105
				c-0.91,0.733-2.219,1.1-3.927,1.1c-1.454,0-2.722-0.271-3.804-0.812v-0.968c0.547,0.287,1.162,0.512,1.843,0.675
				s1.321,0.244,1.922,0.244c1.44,0,2.522-0.292,3.247-0.875c0.724-0.584,1.086-1.407,1.086-2.47c0-0.945-0.371-1.672-1.111-2.181
				c-0.739-0.509-1.826-0.763-3.261-0.763h-1.546v-0.939h1.565c1.187,0,2.127-0.281,2.821-0.846
				c0.694-0.563,1.041-1.328,1.041-2.293c0-0.796-0.281-1.433-0.846-1.912c-0.563-0.479-1.303-0.719-2.215-0.719
				c-0.711,0-1.359,0.1-1.946,0.298c-0.587,0.199-1.245,0.54-1.976,1.022l-0.479-0.655c0.554-0.463,1.223-0.83,2.004-1.101
				c0.783-0.271,1.575-0.405,2.377-0.405c1.316,0,2.334,0.312,3.051,0.934C89.997,394.955,90.355,395.833,90.355,396.968z"/>
			<path fill="#FFFFFF" d="M97.465,399.305c1.526,0,2.728,0.369,3.604,1.105s1.315,1.751,1.315,3.041
				c0,1.468-0.457,2.608-1.369,3.423c-0.913,0.815-2.171,1.223-3.775,1.223c-0.711,0-1.385-0.07-2.023-0.21
				c-0.64-0.141-1.174-0.341-1.604-0.602v-1.007c0.704,0.358,1.33,0.607,1.878,0.748c0.547,0.14,1.131,0.21,1.75,0.21
				c1.252,0,2.256-0.331,3.013-0.992c0.756-0.662,1.134-1.557,1.134-2.685c0-1.063-0.367-1.897-1.104-2.504
				s-1.737-0.909-3.003-0.909c-0.848,0-1.734,0.127-2.66,0.381l-0.586-0.381l0.566-6.543h6.885v0.938H95.52l-0.44,5.047
				C96.096,399.399,96.892,399.305,97.465,399.305z"/>
			<path fill="#FFFFFF" d="M104.546,402.895v-0.803h4.646v0.803H104.546z"/>
			<path fill="#FFFFFF" d="M121.25,404.254h-2.465v3.647h-0.92v-3.647h-7.354v-0.655l7.09-10.073h1.184v9.887h2.465V404.254z
				 M117.865,403.412v-4.088c0-1.969,0.046-3.621,0.137-4.958h-0.078c-0.13,0.241-0.531,0.854-1.202,1.839l-5.046,7.207H117.865z"/>
			<path fill="#FFFFFF" d="M132.682,404.254h-2.464v3.647h-0.919v-3.647h-7.355v-0.655l7.091-10.073h1.184v9.887h2.464V404.254z
				 M129.299,403.412v-4.088c0-1.969,0.045-3.621,0.137-4.958h-0.078c-0.131,0.241-0.531,0.854-1.203,1.839l-5.047,7.207H129.299z"
				/>
		</g>
		<g>
			<path fill="#FFFFFF" d="M274.587,407.401h-0.959v-10.415c0-0.945,0.039-1.927,0.117-2.944c-0.098,0.098-0.198,0.192-0.303,0.284
				c-0.104,0.091-1.111,0.883-3.022,2.376l-0.557-0.694l3.882-2.904h0.842V407.401z"/>
			<path fill="#FFFFFF" d="M285.041,392.859c1.213,0,2.189,0.31,2.929,0.929c0.74,0.619,1.11,1.457,1.11,2.514
				c0,0.729-0.229,1.375-0.689,1.936c-0.46,0.562-1.204,1.08-2.234,1.556c1.252,0.515,2.132,1.079,2.641,1.691
				c0.508,0.613,0.763,1.356,0.763,2.23c0,1.18-0.413,2.122-1.237,2.826c-0.825,0.704-1.932,1.056-3.32,1.056
				c-1.44,0-2.546-0.329-3.315-0.987s-1.154-1.617-1.154-2.875c0-0.854,0.271-1.604,0.812-2.25c0.541-0.646,1.379-1.196,2.513-1.652
				c-1.05-0.495-1.789-1.019-2.22-1.569c-0.431-0.552-0.646-1.212-0.646-1.98c0-0.685,0.173-1.286,0.519-1.805
				s0.829-0.918,1.452-1.198S284.278,392.859,285.041,392.859z M281.53,403.881c0,0.899,0.305,1.598,0.914,2.093
				s1.462,0.743,2.558,0.743c1.069,0,1.93-0.263,2.582-0.787c0.651-0.525,0.978-1.237,0.978-2.137c0-0.809-0.256-1.466-0.768-1.971
				c-0.512-0.506-1.498-1.035-2.958-1.59c-1.2,0.464-2.051,0.976-2.553,1.536S281.53,403.033,281.53,403.881z M285.021,393.739
				c-0.919,0-1.657,0.227-2.215,0.68s-0.836,1.074-0.836,1.863c0,0.456,0.103,0.858,0.308,1.207c0.205,0.35,0.502,0.665,0.89,0.949
				c0.389,0.283,1.038,0.614,1.951,0.992c1.062-0.41,1.826-0.863,2.289-1.359c0.463-0.495,0.694-1.092,0.694-1.789
				c0-0.783-0.275-1.402-0.827-1.858C286.725,393.968,285.974,393.739,285.021,393.739z"/>
			<path fill="#FFFFFF" d="M291.682,402.395v-0.803h4.645v0.803H291.682z"/>
			<path fill="#FFFFFF" d="M307.28,407.401h-8.948v-0.86l3.804-3.971c1.069-1.108,1.819-1.956,2.25-2.543
				c0.43-0.587,0.746-1.147,0.948-1.682c0.202-0.535,0.303-1.096,0.303-1.683c0-0.854-0.28-1.548-0.841-2.083
				c-0.561-0.534-1.287-0.802-2.181-0.802c-1.193,0-2.334,0.434-3.423,1.301l-0.528-0.675c1.193-1.004,2.517-1.506,3.971-1.506
				c1.245,0,2.225,0.332,2.938,0.997s1.071,1.581,1.071,2.748c0,0.945-0.239,1.86-0.719,2.743c-0.479,0.884-1.354,1.975-2.626,3.271
				l-3.667,3.766v0.039h7.647V407.401z"/>
			<path fill="#FFFFFF" d="M319.817,403.754h-2.464v3.647h-0.92v-3.647h-7.354v-0.655l7.09-10.073h1.184v9.887h2.464V403.754z
				 M316.434,402.912v-4.088c0-1.969,0.046-3.621,0.138-4.958h-0.078c-0.131,0.241-0.532,0.854-1.203,1.839l-5.047,7.207H316.434z"
				/>
		</g>
	</g>
	<line fill="none" x1="201.958" y1="78.595" x2="201.958" y2="29.636"/>
	<polyline fill="none" stroke="#334763" stroke-width="4" stroke-linecap="round" stroke-miterlimit="10" points="112.663,40.206 
		86.793,10.163 50.908,10.163 	"/>
</g>
</svg>