<?xml version="1.0" encoding="UTF-8"?>
<svg width="821px" height="244px" viewBox="0 0 821 244" version="1.1" xmlns="http://www.w3.org/2000/svg" xmlns:xlink="http://www.w3.org/1999/xlink">
    <!-- Generator: Sketch 42 (36781) - http://www.bohemiancoding.com/sketch -->
    <title>Group 2</title>
    <desc>Created with Sketch.</desc>
    <defs>
        <filter x="-50%" y="-50%" width="200%" height="200%" filterUnits="objectBoundingBox" id="filter-1">
            <feOffset dx="0" dy="2" in="SourceAlpha" result="shadowOffsetOuter1"></feOffset>
            <feGaussianBlur stdDeviation="8.5" in="shadowOffsetOuter1" result="shadowBlurOuter1"></feGaussianBlur>
            <feColorMatrix values="0 0 0 0 0.525882228   0 0 0 0 0.525882228   0 0 0 0 0.525882228  0 0 0 0.5 0" type="matrix" in="shadowBlurOuter1" result="shadowMatrixOuter1"></feColorMatrix>
            <feMerge>
                <feMergeNode in="shadowMatrixOuter1"></feMergeNode>
                <feMergeNode in="SourceGraphic"></feMergeNode>
            </feMerge>
        </filter>
        <path d="M561.458768,129.17661 L564.418252,129.17661 L613.863996,116.475021 C618.073777,115.393615 622.218682,111.07416 623.126568,106.805301 L627.565969,85.9313429 C628.289766,82.5280684 628.18347,77.0311924 627.332505,73.6693508 L619.702477,43.5259831 C618.421817,38.4665773 613.233983,33.4926056 608.144532,32.4224895 L458.347906,0.926008903 C456.649201,0.568836383 453.860579,0.27661617 452.125394,0.273328251 L315.750064,0.0149171492 C311.402224,0.00667863521 304.640696,1.40984062 300.656223,3.1452845 L219.861946,38.3353691 L27.6627049,59.1980578 C23.3406059,59.6672095 18.2766969,63.1998774 16.3442775,67.1043941 L1.01618358,98.0753108 C-0.912712225,101.972708 0.572025774,106.904743 4.33604732,109.093418 L19.5306012,117.928631 L19.5306012,121.303396 C19.5306012,125.651652 23.0638361,129.17661 27.403759,129.17661 L71.8220073,129.17661 C71.6686021,127.483675 71.5902192,125.769014 71.5902192,124.035997 C71.5902192,93.0568475 96.6371695,67.943285 127.534148,67.943285 C158.431127,67.943285 183.478078,93.0568475 183.478078,124.035997 C183.478078,125.769014 183.399695,127.483675 183.24629,129.17661 L450.034486,129.17661 C449.881081,127.483675 449.802698,125.769014 449.802698,124.035997 C449.802698,93.0568475 474.849648,67.943285 505.746627,67.943285 C536.643606,67.943285 561.690556,93.0568475 561.690556,124.035997 C561.690556,125.769014 561.612174,127.483675 561.458768,129.17661 Z" id="path-2"></path>
        <path d="M7.75671054,34.3709041 C-1.74922701,34.3677088 -2.42593792,31.2167003 6.2564679,27.3278983 L64.40289,1.28443386 C65.9866852,0.575060626 68.6781001,0 70.4178229,0 L164.717601,0 C168.193986,0 171.012152,2.81720608 171.012152,6.2941927 L171.012152,28.1315875 C171.012152,31.6077742 168.195576,34.4248335 164.721366,34.4236657 L7.75671054,34.3709041 Z" id="path-4"></path>
        <path d="M7.75671054,34.3709041 C-1.74922701,34.3677088 -2.42593792,31.2167003 6.2564679,27.3278983 L64.40289,1.28443386 C65.9866852,0.575060626 68.6781001,0 70.4178229,0 L164.717601,0 C168.193986,0 171.012152,2.81720608 171.012152,6.2941927 L171.012152,28.1315875 C171.012152,31.6077742 168.195576,34.4248335 164.721366,34.4236657 L7.75671054,34.3709041 Z" id="path-6"></path>
        <path d="M7.75671054,34.3709041 C-1.74922701,34.3677088 -2.42593792,31.2167003 6.2564679,27.3278983 L64.40289,1.28443386 C65.9866852,0.575060626 68.6781001,0 70.4178229,0 L164.717601,0 C168.193986,0 171.012152,2.81720608 171.012152,6.2941927 L171.012152,28.1315875 C171.012152,31.6077742 168.195576,34.4248335 164.721366,34.4236657 L7.75671054,34.3709041 Z" id="path-8"></path>
        <path d="M7.75671054,34.3709041 C-1.74922701,34.3677088 -2.42593792,31.2167003 6.2564679,27.3278983 L64.40289,1.28443386 C65.9866852,0.575060626 68.6781001,0 70.4178229,0 L164.717601,0 C168.193986,0 171.012152,2.81720608 171.012152,6.2941927 L171.012152,28.1315875 C171.012152,31.6077742 168.195576,34.4248335 164.721366,34.4236657 L7.75671054,34.3709041 Z" id="path-10"></path>
        <path d="M7.75671054,34.3709041 C-1.74922701,34.3677088 -2.42593792,31.2167003 6.2564679,27.3278983 L64.40289,1.28443386 C65.9866852,0.575060626 68.6781001,0 70.4178229,0 L164.717601,0 C168.193986,0 171.012152,2.81720608 171.012152,6.2941927 L171.012152,28.1315875 C171.012152,31.6077742 168.195576,34.4248335 164.721366,34.4236657 L7.75671054,34.3709041 Z" id="path-12"></path>
        <path d="M7.75671054,34.3709041 C-1.74922701,34.3677088 -2.42593792,31.2167003 6.2564679,27.3278983 L64.40289,1.28443386 C65.9866852,0.575060626 68.6781001,0 70.4178229,0 L164.717601,0 C168.193986,0 171.012152,2.81720608 171.012152,6.2941927 L171.012152,28.1315875 C171.012152,31.6077742 168.195576,34.4248335 164.721366,34.4236657 L7.75671054,34.3709041 Z" id="path-14"></path>
        <path d="M7.75671054,34.3709041 C-1.74922701,34.3677088 -2.42593792,31.2167003 6.2564679,27.3278983 L64.40289,1.28443386 C65.9866852,0.575060626 68.6781001,0 70.4178229,0 L164.717601,0 C168.193986,0 171.012152,2.81720608 171.012152,6.2941927 L171.012152,28.1315875 C171.012152,31.6077742 168.195576,34.4248335 164.721366,34.4236657 L7.75671054,34.3709041 Z" id="path-16"></path>
        <path d="M7.75671054,34.3709041 C-1.74922701,34.3677088 -2.42593792,31.2167003 6.2564679,27.3278983 L64.40289,1.28443386 C65.9866852,0.575060626 68.6781001,0 70.4178229,0 L164.717601,0 C168.193986,0 171.012152,2.81720608 171.012152,6.2941927 L171.012152,28.1315875 C171.012152,31.6077742 168.195576,34.4248335 164.721366,34.4236657 L7.75671054,34.3709041 Z" id="path-18"></path>
        <path d="M15.9678248,0.0442065483 C17.7120995,0.0197919458 19.1261135,1.41459486 19.1261135,3.14153247 L19.1261135,16.5941373 C19.1261135,30.513031 30.4106799,41.7965237 44.3352952,41.7965237 L119.993228,41.7965237 C146.086202,41.7965237 167.238737,62.9542654 167.238737,89.0487431 L167.238737,129.687506 C167.238737,131.425511 165.885011,133.25895 164.232212,133.777242 L151.594328,137.740284 C149.103172,138.521471 147.083691,137.029396 147.083691,134.426742 L147.083691,93.4470143 C147.083691,76.0493207 132.980688,61.9457034 115.575683,61.9457034 L40.9465783,61.9457034 C18.3324075,61.9457034 -9.22594094e-17,43.607264 -6.08819552e-19,20.9986383 L7.0687245e-17,3.41112414 C7.77248682e-17,1.6750634 1.40638879,0.248022886 3.15828865,0.223501554 L15.9678248,0.0442065483 Z" id="path-20"></path>
        <linearGradient x1="91.3129245%" y1="42.7344382%" x2="14.3602891%" y2="42.7344382%" id="linearGradient-22">
            <stop stop-color="#FEDD94" offset="0%"></stop>
            <stop stop-color="#F73976" offset="100%"></stop>
        </linearGradient>
    </defs>
    <g id="Page-1" stroke="none" stroke-width="1" fill="none" fill-rule="evenodd">
        <g id="Group-2" filter="url(#filter-1)" transform="translate(16.000000, 15.000000)">
            <g id="car">
                <g id="Page-1">
                    <g id="Group-58-Copy">
                        <g id="Group-57" transform="translate(657.025295, 78.818182)" fill-rule="nonzero" fill="#FFFFFF">
                            <rect id="Rectangle-55-Copy-29" x="0.0033727" y="0.0624793" width="18.2352445" height="7.44683196" rx="3.72341598"></rect>
                        </g>
                        <g id="Page-1-Copy-4" transform="translate(0.559865, 0.094545)" fill-rule="nonzero" fill="#85878A">
                            <path d="M649.40335,110.588182 C651.145305,110.588182 652.281089,111.973611 651.939273,113.686349 L648.446806,131.187932 C648.105441,132.898867 646.414375,134.286101 644.680526,134.286101 L638.652137,134.286101 L636.772825,143.119846 C635.867171,147.377122 631.71449,151.712844 627.499662,152.795309 L615.299221,155.928192 L614.117052,163.65152 C613.568075,164.444546 612.786267,165.08023 611.91574,165.353438 L599.275307,169.315865 C598.193115,169.654897 597.200093,169.566532 596.422789,169.144096 L580.585319,174.060047 L567.539571,174.060047 L567.539571,183.262129 C567.539571,185.8788 565.419322,188 562.812694,188 L476.117106,188 C473.506425,188 471.389779,185.884661 471.389779,183.262129 L471.389779,174.060047 L449.250557,174.060047 L436.026921,165.492748 L230.370848,165.492748 L207.868644,173.675031 L189.147132,173.675031 L189.147132,183.262129 C189.147132,185.8788 187.026883,188 184.419804,188 L97.7242166,188 C95.1135357,188 92.9973396,185.884661 92.9973396,183.262129 L92.9973396,173.675031 L70.5482772,173.675031 L59.2152116,165.492748 L40.9264854,165.492748 C36.5702468,165.492748 33.0453549,161.961774 33.0453549,157.605764 L33.0453549,154.246561 L17.847383,145.412815 C17.0817873,144.967837 16.4166199,144.405189 15.8491786,143.764997 L9.45420412,143.764997 C6.84442406,143.764997 4.72867829,141.645151 4.72867829,139.029381 L3.15380324,135.865841 C1.41184823,135.865841 0,134.45246 0,132.709065 L0,126.383789 C0,124.640393 1.41319928,123.227012 4.72867829,123.227012 L4.72867829,120.063473 C4.72867829,117.448153 6.84982826,115.327855 9.45420412,115.327855 L23.9676437,115.327855 L29.8519208,103.442829 C31.784374,99.5399134 36.8593717,95.9940621 41.1867878,95.5242875 L233.419719,74.6657552 L267.5905,59.7880574 L314.226977,39.4831558 C318.217081,37.7460719 324.982693,36.3430599 329.335329,36.3511749 L433.837768,36.5490934 L444.495759,36.5693812 L444.495759,30.009669 C444.495759,27.3961534 446.613306,25.2776594 449.224437,25.2776594 L449.224437,22.1190791 C449.224437,21.2458033 449.931937,20.5379856 450.800663,20.5379856 L463.410472,20.5379856 C464.281,20.5379856 464.986698,21.2403932 464.986698,22.1190791 L464.986698,25.2776594 C467.59828,25.2776594 469.715376,27.4002109 469.715376,30.009669 L469.715376,36.9021006 C470.54312,37.0057936 471.330783,37.1302253 471.966227,37.2641246 L487.954565,40.6246809 L487.954565,35.5037355 C487.954565,33.8435958 489.296674,32.5023596 490.952249,32.5023596 L501.165141,32.5023596 L501.165141,28.388 C501.165141,24.9021103 503.991989,22.0762494 507.470495,22.0762494 L510.078474,22.0762494 C513.560582,22.0762494 516.383829,24.9025611 516.383829,28.3920574 L516.383829,30.3293141 C516.383829,33.4887961 518.705835,36.0991558 521.730838,36.5639711 L521.730838,28.4371415 L524.88329,22.1177265 L524.88329,4.73155875 C524.88329,2.118494 527.002188,0 529.611067,0 L543.798904,0 C546.410035,0 548.526682,2.1207482 548.526682,4.73155875 L548.526682,22.1177265 L550.102908,28.4371415 L555.153135,43.1236833 L623.827955,12.9593765 C626.217965,11.9098225 629.098406,12.9575731 630.26211,15.2996834 L640.671508,36.2515395 C641.447461,37.8132469 642.0766,40.4948392 642.0766,42.2350791 L642.0766,58.2790982 C642.0766,60.022043 641.319562,62.6292468 640.386886,64.1016881 L632.214379,77.0033572 C632.71607,77.937947 633.105172,78.9018415 633.350163,79.8693428 L640.972342,109.970532 C641.022781,110.169353 641.069618,110.376288 641.115103,110.588182 L649.40335,110.588182 Z M506.109417,28.5105362 L506.109417,32.0982253 C506.109417,32.6584129 506.558554,33.0966171 507.112593,33.0966171 L510.717476,33.0966171 C511.280348,33.0966171 511.720653,32.6496219 511.720653,32.0982253 L511.720653,28.5105362 C511.720653,27.9503487 511.271515,27.5121445 510.717476,27.5121445 L507.112593,27.5121445 C506.549721,27.5121445 506.109417,27.9591397 506.109417,28.5105362 Z M515.407176,38.9618515 L515.407176,44.5665878 L520.223094,46.0260605 L520.223094,41.3292831 C520.223094,41.3292831 519.790601,41.29167 518.201121,40.6246809 C516.611642,39.9576919 515.407176,38.9618515 515.407176,38.9618515 Z" id="Combined-Shape"></path>
                        </g>
                        <g id="Group-33-Copy" transform="translate(0.559865, 0.094545)">
                            <path d="M444.399663,30.0067698 C444.399663,27.396922 446.50604,25.2812223 449.127457,25.2812223 L464.886034,25.2812223 C467.497122,25.2812223 469.613828,27.3932015 469.613828,30.0067698 L469.613828,45.8368971 C469.613828,48.4467449 467.507451,50.5624446 464.886034,50.5624446 L449.127457,50.5624446 C446.516368,50.5624446 444.399663,48.4504654 444.399663,45.8368971 L444.399663,30.0067698 Z" id="Combined-Shape" fill="#696969" fill-rule="nonzero"></path>
                            <path d="M449.127319,22.1224468 C449.127319,21.2490341 449.824791,20.5409931 450.695951,20.5409931 L463.31754,20.5409931 C464.183871,20.5409931 464.886172,21.2435439 464.886172,22.1224468 L464.886172,44.2407618 C464.886172,45.1141745 464.1887,45.8222154 463.31754,45.8222154 L450.695951,45.8222154 C449.829619,45.8222154 449.127319,45.1196647 449.127319,44.2407618 L449.127319,22.1224468 Z" id="Combined-Shape" fill="#696969" fill-rule="nonzero"></path>
                            <path d="M521.618044,28.4413751 L549.98398,28.4413751 L557.45791,50.1833806 C557.740505,51.0054632 557.259757,51.7119369 556.395946,51.7606672 L523.191692,53.633823 C522.32259,53.6828517 521.618044,53.0200467 521.618044,52.1411437 L521.618044,28.4413751 Z" id="Rectangle-52-Copy-3" fill="#696969" fill-rule="nonzero"></path>
                            <polygon id="Rectangle-53" fill="#D8D8D8" fill-rule="nonzero" points="524.769815 22.1210695 548.408094 22.1210695 549.98398 28.4413751 521.618044 28.4413751"></polygon>
                            <path d="M501.056895,36.178966 L501.056895,28.3868907 C501.056895,24.9033739 503.883137,22.0794256 507.355414,22.0794256 L509.973779,22.0794256 C513.452354,22.0794256 516.272297,24.9062002 516.272297,28.3858711 L516.272297,30.3443006 C516.272297,33.8272542 519.098399,36.6507461 522.568356,36.6507461 L526.200795,36.6507461 C529.678013,36.6507461 532.496855,39.4799162 532.496855,42.9595264 L532.496855,50.7993203" id="Path-41" stroke="#6BDEF4" stroke-width="4.725"></path>
                            <path d="M524.769815,4.71839156 C524.769815,2.11249586 526.888357,0 529.49656,0 L543.681349,0 C546.291858,0 548.408094,2.12106114 548.408094,4.71839156 L548.408094,22.1210695 L524.769815,22.1210695 L524.769815,4.71839156 Z" id="Combined-Shape" fill="#DDDDDD" fill-rule="nonzero"></path>
                            <rect id="Rectangle-52-Copy-2" fill="#696969" fill-rule="nonzero" x="490.100337" y="34.7616807" width="23.4701496" height="25.2812223" rx="1.575"></rect>
                            <polygon id="Path-40" fill="#505050" fill-rule="nonzero" points="52.0042159 160.319118 70.5331801 173.701933 207.82402 173.701933 244.049851 160.524343 201.116209 86.9042017 73.2771288 100.959784"></polygon>
                            <polygon id="Path-40-Copy" fill="#505050" fill-rule="nonzero" points="425.489039 158.749843 449.153481 174.086923 580.459817 174.086923 615.166229 163.309536 615.166229 83.7440489 447.842295 98.7161986"></polygon>
                            <path d="M537.376897,50.8880268 L623.69343,12.9613866 C626.082677,11.9115751 628.95981,12.9537819 630.118319,15.2864667 L640.53955,36.2698544 C641.311789,37.8247755 641.937812,40.5008873 641.937812,42.2413226 L641.937812,58.2879562 C641.937812,60.0309859 641.181246,62.6388396 640.248741,64.1115481 L631.980802,77.1691412 L552.435528,64.0933918 L537.376897,50.8880268 Z" id="Path-43" fill="#505050" fill-rule="nonzero"></path>
                            <g id="Rectangle-43" transform="translate(13.507589, 36.341757)">
                                <g id="Mask" transform="translate(0.000000, -0.000000)" fill-rule="nonzero" fill="#C7C8CA">
                                    <path d="M561.458768,129.17661 L564.418252,129.17661 L613.863996,116.475021 C618.073777,115.393615 622.218682,111.07416 623.126568,106.805301 L627.565969,85.9313429 C628.289766,82.5280684 628.18347,77.0311924 627.332505,73.6693508 L619.702477,43.5259831 C618.421817,38.4665773 613.233983,33.4926056 608.144532,32.4224895 L458.347906,0.926008903 C456.649201,0.568836383 453.860579,0.27661617 452.125394,0.273328251 L315.750064,0.0149171492 C311.402224,0.00667863521 304.640696,1.40984062 300.656223,3.1452845 L219.861946,38.3353691 L27.6627049,59.1980578 C23.3406059,59.6672095 18.2766969,63.1998774 16.3442775,67.1043941 L1.01618358,98.0753108 C-0.912712225,101.972708 0.572025774,106.904743 4.33604732,109.093418 L19.5306012,117.928631 L19.5306012,121.303396 C19.5306012,125.651652 23.0638361,129.17661 27.403759,129.17661 L71.8220073,129.17661 C71.6686021,127.483675 71.5902192,125.769014 71.5902192,124.035997 C71.5902192,93.0568475 96.6371695,67.943285 127.534148,67.943285 C158.431127,67.943285 183.478078,93.0568475 183.478078,124.035997 C183.478078,125.769014 183.399695,127.483675 183.24629,129.17661 L450.034486,129.17661 C449.881081,127.483675 449.802698,125.769014 449.802698,124.035997 C449.802698,93.0568475 474.849648,67.943285 505.746627,67.943285 C536.643606,67.943285 561.690556,93.0568475 561.690556,124.035997 C561.690556,125.769014 561.612174,127.483675 561.458768,129.17661 Z" id="path-2"></path>
                                </g>
                                <g id="Clipped" transform="translate(0.000000, -0.000000)">
                                    <mask id="mask-3" fill="white">
                                        <use xlink:href="#path-2"></use>
                                    </mask>
                                    <g id="path-2"></g>
                                    <rect id="Rectangle-path" fill="#696969" fill-rule="nonzero" mask="url(#mask-3)" x="-2.47639123" y="82.1639725" width="641.385329" height="50.5624446"></rect>
                                </g>
                            </g>
                            <path d="M579.509941,67.4299836 C586.713892,68.9655036 586.57937,70.2102886 579.224407,70.2102886 L464.886218,70.2102886 C464.015855,70.2102886 463.310287,69.5016337 463.310287,68.6302316 L463.310287,47.3821115 C463.310287,44.7753005 465.379596,43.1031354 467.929168,43.6465759 L579.509941,67.4299836 Z" id="Path-42" fill="#FFFFFF" fill-rule="nonzero"></path>
                            <g id="Group-53" transform="translate(92.977234, 123.245959)">
                                <rect id="Rectangle-44" fill="#636363" fill-rule="nonzero" x="0" y="22.1210695" width="96.1290051" height="42.6620626" rx="4.725"></rect>
                                <path d="M23.6382799,18.9424003 C23.6382799,17.2073225 25.0476535,15.8007639 26.7872358,15.8007639 L69.3417693,15.8007639 C71.0808896,15.8007639 72.4907251,17.2034446 72.4907251,18.9424003 L72.4907251,22.1210695 L23.6382799,22.1210695 L23.6382799,18.9424003 Z" id="Combined-Shape" fill="#919191" fill-rule="nonzero"></path>
                                <path d="M37.8212479,3.15954443 C37.8212479,1.41457623 39.2293686,-5.68434189e-14 40.9773682,-5.68434189e-14 L55.1516369,-5.68434189e-14 C56.894714,-5.68434189e-14 58.3077572,1.40221239 58.3077572,3.15954443 L58.3077572,15.8007639 L37.8212479,15.8007639 L37.8212479,3.15954443 Z" id="Combined-Shape" fill="#818181" fill-rule="nonzero"></path>
                                <path d="M3.15177066,29.2314133 L92.9772344,29.2314133" id="Line" stroke="#505050" stroke-width="1.575" stroke-linecap="round"></path>
                                <path d="M3.15177066,38.7118717 L92.9772344,38.7118717" id="Line-Copy-43" stroke="#505050" stroke-width="1.575" stroke-linecap="round"></path>
                                <path d="M3.15177066,48.19233 L92.9772344,48.19233" id="Line-Copy-44" stroke="#505050" stroke-width="1.575" stroke-linecap="round"></path>
                                <path d="M3.15177066,57.6727884 L92.9772344,57.6727884" id="Line-Copy-45" stroke="#505050" stroke-width="1.575" stroke-linecap="round"></path>
                            </g>
                            <g id="Group-53-Copy" transform="translate(471.288093, 123.245959)">
                                <rect id="Rectangle-44" fill="#636363" fill-rule="nonzero" x="0" y="22.1210695" width="96.1290051" height="42.6620626" rx="4.725"></rect>
                                <path d="M23.6382799,18.9424003 C23.6382799,17.2073225 25.0476535,15.8007639 26.7872358,15.8007639 L69.3417693,15.8007639 C71.0808896,15.8007639 72.4907251,17.2034446 72.4907251,18.9424003 L72.4907251,22.1210695 L23.6382799,22.1210695 L23.6382799,18.9424003 Z" id="Combined-Shape" fill="#919191" fill-rule="nonzero"></path>
                                <path d="M37.8212479,3.15954443 C37.8212479,1.41457623 39.2293686,0 40.9773682,0 L55.1516369,0 C56.894714,0 58.3077572,1.40221239 58.3077572,3.15954443 L58.3077572,15.8007639 L37.8212479,15.8007639 L37.8212479,3.15954443 Z" id="Combined-Shape" fill="#818181" fill-rule="nonzero"></path>
                                <path d="M3.15177066,29.2314133 L92.9772344,29.2314133" id="Line" stroke="#505050" stroke-width="1.575" stroke-linecap="round"></path>
                                <path d="M3.15177066,38.7118717 L92.9772344,38.7118717" id="Line-Copy-43" stroke="#505050" stroke-width="1.575" stroke-linecap="round"></path>
                                <path d="M3.15177066,48.19233 L92.9772344,48.19233" id="Line-Copy-44" stroke="#505050" stroke-width="1.575" stroke-linecap="round"></path>
                                <path d="M3.15177066,57.6727884 L92.9772344,57.6727884" id="Line-Copy-45" stroke="#505050" stroke-width="1.575" stroke-linecap="round"></path>
                            </g>
                            <path d="M4.72765599,120.074018 C4.72765599,117.462572 6.84874447,115.345577 9.45224879,115.345577 L67.7661323,115.345577 C70.3754529,115.345577 72.4907251,117.460067 72.4907251,120.074018 L72.4907251,139.05851 C72.4907251,141.669957 70.3696366,143.786952 67.7661323,143.786952 L9.45224879,143.786952 C6.84292824,143.786952 4.72765599,141.672462 4.72765599,139.05851 L4.72765599,120.074018 Z" id="Combined-Shape" fill="#505050" fill-rule="nonzero"></path>
                            <path d="M617.747049,113.752677 C617.747049,112.014455 619.149073,110.605348 620.900246,110.605348 L649.263329,110.605348 C651.004792,110.605348 652.141913,111.982066 651.798468,113.703859 L648.306929,131.207983 C647.965584,132.919243 646.284874,134.306494 644.541162,134.306494 L620.894757,134.306494 C619.156326,134.306494 617.747049,132.894857 617.747049,131.159164 L617.747049,113.752677 Z" id="Rectangle-50" fill="#505050" fill-rule="nonzero"></path>
                            <path d="M0,126.403112 C0,124.659464 1.40202412,123.245959 3.15319683,123.245959 L33.0897126,123.245959 C33.9621925,123.245959 34.6694772,123.943578 34.6694772,124.821343 L34.6694772,134.311186 C34.6694772,135.181247 33.9612309,135.88657 33.0897126,135.88657 L3.15319683,135.88657 C1.41173431,135.88657 0,134.485506 0,132.729417 L0,126.403112 Z" id="Combined-Shape" fill="#6BDEF4" fill-rule="nonzero"></path>
                            <rect id="Rectangle-49" fill="#A5A5A5" fill-rule="nonzero" x="48.8524452" y="115.345577" width="12.6070826" height="28.4413751"></rect>
                            <g id="Path-44" transform="translate(255.293423, 42.662063)">
                                <g id="Mask" fill-rule="nonzero" fill="#FFFFFF">
                                    <path d="M7.75671054,34.3709041 C-1.74922701,34.3677088 -2.42593792,31.2167003 6.2564679,27.3278983 L64.40289,1.28443386 C65.9866852,0.575060626 68.6781001,0 70.4178229,0 L164.717601,0 C168.193986,0 171.012152,2.81720608 171.012152,6.2941927 L171.012152,28.1315875 C171.012152,31.6077742 168.195576,34.4248335 164.721366,34.4236657 L7.75671054,34.3709041 Z" id="path-4"></path>
                                </g>
                                <g id="Clipped">
                                    <mask id="mask-5" fill="white">
                                        <use xlink:href="#path-4"></use>
                                    </mask>
                                    <g id="path-4"></g>
                                    <polygon id="Shape" fill="#606060" fill-rule="nonzero" mask="url(#mask-5)" points="18.909085 21.3102002 18.909085 39.2398893 -2.72675477 39.2398893 -0.418594628 26.6252131"></polygon>
                                </g>
                                <g id="Line-Clipped">
                                    <mask id="mask-7" fill="white">
                                        <use xlink:href="#path-6"></use>
                                    </mask>
                                    <g id="path-4"></g>
                                    <path d="M49.6403879,-5.53026738 L65.3992411,37.1317953" id="Line" stroke="#E7FDFF" stroke-width="4.725" stroke-linecap="square" mask="url(#mask-7)"></path>
                                </g>
                                <g id="Line-Copy-51-Clipped">
                                    <mask id="mask-9" fill="white">
                                        <use xlink:href="#path-8"></use>
                                    </mask>
                                    <g id="path-4"></g>
                                    <path d="M26.0021079,-5.53026738 L41.7609612,37.1317953" id="Line-Copy-51" stroke="#E7FDFF" stroke-width="4.725" stroke-linecap="square" mask="url(#mask-9)"></path>
                                </g>
                                <g id="Line-Copy-46-Clipped">
                                    <mask id="mask-11" fill="white">
                                        <use xlink:href="#path-10"></use>
                                    </mask>
                                    <g id="path-4"></g>
                                    <path d="M59.0956998,-5.53026738 L74.8545531,37.1317953" id="Line-Copy-46" stroke="#E7FDFF" stroke-width="4.725" stroke-linecap="square" mask="url(#mask-11)"></path>
                                </g>
                                <g id="Line-Copy-47-Clipped">
                                    <mask id="mask-13" fill="white">
                                        <use xlink:href="#path-12"></use>
                                    </mask>
                                    <g id="path-4"></g>
                                    <path d="M114.251686,-5.53026738 L130.01054,37.1317953" id="Line-Copy-47" stroke="#E7FDFF" stroke-width="4.725" stroke-linecap="square" mask="url(#mask-13)"></path>
                                </g>
                                <g id="Line-Copy-48-Clipped">
                                    <mask id="mask-15" fill="white">
                                        <use xlink:href="#path-14"></use>
                                    </mask>
                                    <g id="path-4"></g>
                                    <path d="M123.706998,-5.53026738 L139.465852,37.1317953" id="Line-Copy-48" stroke="#E7FDFF" stroke-width="4.725" stroke-linecap="square" mask="url(#mask-15)"></path>
                                </g>
                                <g id="Line-Copy-49-Clipped">
                                    <mask id="mask-17" fill="white">
                                        <use xlink:href="#path-16"></use>
                                    </mask>
                                    <g id="path-4"></g>
                                    <path d="M133.16231,-5.53026738 L148.921164,37.1317953" id="Line-Copy-49" stroke="#E7FDFF" stroke-width="4.725" stroke-linecap="square" mask="url(#mask-17)"></path>
                                </g>
                                <g id="Line-Copy-50-Clipped">
                                    <mask id="mask-19" fill="white">
                                        <use xlink:href="#path-18"></use>
                                    </mask>
                                    <g id="path-4"></g>
                                    <path d="M155.224705,-5.53026738 L170.983558,37.1317953" id="Line-Copy-50" stroke="#E7FDFF" stroke-width="4.725" stroke-linecap="square" mask="url(#mask-19)"></path>
                                </g>
                            </g>
                            <rect id="Rectangle-51" fill="#818181" fill-rule="nonzero" transform="translate(277.019528, 74.173323) rotate(-9.000000) translate(-277.019528, -74.173323) " x="271.503929" y="60.7426737" width="11.0311973" height="26.8612987" rx="3.15"></rect>
                            <path d="M54.860508,114.560168 L54.860508,110.426956 L103.255978,110.426956 C103.255978,110.426956 130.378349,87.0754794 166.469816,101.819259 C202.561284,116.563038 204.674263,158.521475 204.674263,158.521475 L458.182735,158.521473 C458.182735,158.521473 457.817772,132.123088 476.322113,115.601723 C494.826454,99.0803573 516.014725,99.5324684 516.014725,99.5324684 L516.014725,93.5019197" id="Path-46" stroke="#6BDEF4" stroke-width="4.725"></path>
                            <rect id="Rectangle-42" fill="#A5A5A5" fill-rule="nonzero" x="85.0978078" y="105.865118" width="4.72765599" height="9.48045837" rx="2.36382799"></rect>
                            <rect id="Rectangle-42-Copy" fill="#A5A5A5" fill-rule="nonzero" x="140.253794" y="91.6444309" width="4.72765599" height="9.48045837" rx="2.36382799"></rect>
                            <rect id="Rectangle-42-Copy-2" fill="#A5A5A5" fill-rule="nonzero" transform="translate(194.347480, 126.281499) rotate(56.000000) translate(-194.347480, -126.281499) " x="191.983652" y="121.54127" width="4.72765599" height="9.48045837" rx="2.36382799"></rect>
                            <rect id="Rectangle-42-Copy-3" fill="#A5A5A5" fill-rule="nonzero" transform="translate(460.672100, 140.502186) scale(-1, 1) rotate(64.000000) translate(-460.672100, -140.502186) " x="458.308272" y="135.761957" width="4.72765599" height="9.48045837" rx="2.36382799"></rect>
                            <rect id="Rectangle-42-Copy-4" fill="#A5A5A5" fill-rule="nonzero" transform="translate(483.918815, 109.439748) scale(-1, 1) rotate(40.000000) translate(-483.918815, -109.439748) " x="481.554987" y="104.699519" width="4.72765599" height="9.48045837" rx="2.36382799"></rect>
                            <path d="M235.385559,74.1956966 L248.826753,122.733668" id="Path-47" stroke="#696969" stroke-width="3.15"></path>
                            <polyline id="Path-48" stroke="#696969" stroke-width="3.15" stroke-linejoin="round" points="433.68395 36.2306579 442.238976 82.216436 421.475456 125.369186"></polyline>
                            <g id="Group-49-Copy-6" transform="translate(447.551433, 31.601528)">
                                <g id="Mask">
                                    <g id="path-6-link" fill-rule="nonzero" fill="#000000">
                                        <path d="M15.9678248,0.0442065483 C17.7120995,0.0197919458 19.1261135,1.41459486 19.1261135,3.14153247 L19.1261135,16.5941373 C19.1261135,30.513031 30.4106799,41.7965237 44.3352952,41.7965237 L119.993228,41.7965237 C146.086202,41.7965237 167.238737,62.9542654 167.238737,89.0487431 L167.238737,129.687506 C167.238737,131.425511 165.885011,133.25895 164.232212,133.777242 L151.594328,137.740284 C149.103172,138.521471 147.083691,137.029396 147.083691,134.426742 L147.083691,93.4470143 C147.083691,76.0493207 132.980688,61.9457034 115.575683,61.9457034 L40.9465783,61.9457034 C18.3324075,61.9457034 -9.22594094e-17,43.607264 -6.08819552e-19,20.9986383 L7.0687245e-17,3.41112414 C7.77248682e-17,1.6750634 1.40638879,0.248022886 3.15828865,0.223501554 L15.9678248,0.0442065483 Z" id="path-6"></path>
                                    </g>
                                    <g id="path-6-link" fill="#F8F8F8">
                                        <path d="M15.9678248,0.0442065483 C17.7120995,0.0197919458 19.1261135,1.41459486 19.1261135,3.14153247 L19.1261135,16.5941373 C19.1261135,30.513031 30.4106799,41.7965237 44.3352952,41.7965237 L119.993228,41.7965237 C146.086202,41.7965237 167.238737,62.9542654 167.238737,89.0487431 L167.238737,129.687506 C167.238737,131.425511 165.885011,133.25895 164.232212,133.777242 L151.594328,137.740284 C149.103172,138.521471 147.083691,137.029396 147.083691,134.426742 L147.083691,93.4470143 C147.083691,76.0493207 132.980688,61.9457034 115.575683,61.9457034 L40.9465783,61.9457034 C18.3324075,61.9457034 -9.22594094e-17,43.607264 -6.08819552e-19,20.9986383 L7.0687245e-17,3.41112414 C7.77248682e-17,1.6750634 1.40638879,0.248022886 3.15828865,0.223501554 L15.9678248,0.0442065483 Z" id="path-6"></path>
                                    </g>
                                </g>
                                <g id="Clipped">
                                    <mask id="mask-21" fill="white">
                                        <use xlink:href="#path-20"></use>
                                    </mask>
                                    <g id="path-6"></g>
                                    <g id="Group" mask="url(#mask-21)">
                                        <g transform="translate(-4.312457, -22.121070)">
                                            <g id="Group-48" transform="translate(0.575885, 2.040769)">
                                                <path d="M0.51900415,0.04076888 L173.347386,0.04076888" id="Line" stroke="#C9C9C9" stroke-width="2.079"></path>
                                                <path d="M0.51900415,9.637898 L173.347386,9.637898" id="Line-Copy-18" stroke="#C9C9C9" stroke-width="2.079"></path>
                                                <path d="M0.51900415,19.0048179 L173.347386,19.0048179" id="Line-Copy-19" stroke="#C9C9C9" stroke-width="2.079"></path>
                                                <path d="M0.51900415,28.3717378 L173.347386,28.3717378" id="Line-Copy-20" stroke="#C9C9C9" stroke-width="2.079"></path>
                                                <path d="M0.51900415,37.7386578 L173.347386,37.7386578" id="Line-Copy-21" stroke="#C9C9C9" stroke-width="2.079"></path>
                                                <path d="M0.51900415,47.1055777 L173.347386,47.1055777" id="Line-Copy-22" stroke="#C9C9C9" stroke-width="2.079"></path>
                                                <path d="M0.51900415,56.4724977 L173.347386,56.4724977" id="Line-Copy-23" stroke="#C9C9C9" stroke-width="2.079"></path>
                                                <path d="M0.51900415,65.8394176 L173.347386,65.8394176" id="Line-Copy-24" stroke="#C9C9C9" stroke-width="2.079"></path>
                                                <path d="M0.51900415,75.2063375 L173.347386,75.2063375" id="Line-Copy-25" stroke="#C9C9C9" stroke-width="2.079"></path>
                                                <path d="M0.51900415,84.5732575 L173.347386,84.5732575" id="Line-Copy-26" stroke="#C9C9C9" stroke-width="2.079"></path>
                                                <path d="M0.51900415,93.9401774 L173.347386,93.9401774" id="Line-Copy-27" stroke="#C9C9C9" stroke-width="2.079"></path>
                                                <path d="M0.51900415,103.307097 L173.347386,103.307097" id="Line-Copy-28" stroke="#C9C9C9" stroke-width="2.079"></path>
                                                <path d="M0.51900415,112.674017 L173.347386,112.674017" id="Line-Copy-29" stroke="#C9C9C9" stroke-width="2.079"></path>
                                                <path d="M0.51900415,122.040937 L173.347386,122.040937" id="Line-Copy-30" stroke="#C9C9C9" stroke-width="2.079"></path>
                                                <path d="M0.51900415,131.407857 L173.347386,131.407857" id="Line-Copy-31" stroke="#C9C9C9" stroke-width="2.079"></path>
                                                <path d="M0.51900415,140.774777 L173.347386,140.774777" id="Line-Copy-32" stroke="#C9C9C9" stroke-width="2.079"></path>
                                                <path d="M0.51900415,150.141697 L173.347386,150.141697" id="Line-Copy-33" stroke="#C9C9C9" stroke-width="2.079"></path>
                                                <path d="M0.51900415,159.508617 L173.347386,159.508617" id="Line-Copy-34" stroke="#C9C9C9" stroke-width="2.079"></path>
                                                <path d="M0.51900415,168.875537 L173.347386,168.875537" id="Line-Copy-35" stroke="#C9C9C9" stroke-width="2.079"></path>
                                            </g>
                                            <g id="Group-48-Copy" transform="translate(86.171571, 87.230509) rotate(90.000000) translate(-86.171571, -87.230509) translate(-0.828429, 2.230509)">
                                                <path d="M0.51900415,0.04076888 L173.347386,0.04076888" id="Line" stroke="#C9C9C9" stroke-width="2.079"></path>
                                                <path d="M0.51900415,9.637898 L173.347386,9.637898" id="Line-Copy-18" stroke="#C9C9C9" stroke-width="2.079"></path>
                                                <path d="M0.51900415,19.0048179 L173.347386,19.0048179" id="Line-Copy-19" stroke="#C9C9C9" stroke-width="2.079"></path>
                                                <path d="M0.51900415,28.3717378 L173.347386,28.3717378" id="Line-Copy-20" stroke="#C9C9C9" stroke-width="2.079"></path>
                                                <path d="M0.51900415,37.7386578 L173.347386,37.7386578" id="Line-Copy-21" stroke="#C9C9C9" stroke-width="2.079"></path>
                                                <path d="M0.51900415,47.1055777 L173.347386,47.1055777" id="Line-Copy-22" stroke="#C9C9C9" stroke-width="2.079"></path>
                                                <path d="M0.51900415,56.4724977 L173.347386,56.4724977" id="Line-Copy-23" stroke="#C9C9C9" stroke-width="2.079"></path>
                                                <path d="M0.51900415,65.8394176 L173.347386,65.8394176" id="Line-Copy-24" stroke="#C9C9C9" stroke-width="2.079"></path>
                                                <path d="M0.51900415,75.2063375 L173.347386,75.2063375" id="Line-Copy-25" stroke="#C9C9C9" stroke-width="2.079"></path>
                                                <path d="M0.51900415,84.5732575 L173.347386,84.5732575" id="Line-Copy-26" stroke="#C9C9C9" stroke-width="2.079"></path>
                                                <path d="M0.51900415,93.9401774 L173.347386,93.9401774" id="Line-Copy-27" stroke="#C9C9C9" stroke-width="2.079"></path>
                                                <path d="M0.51900415,103.307097 L173.347386,103.307097" id="Line-Copy-28" stroke="#C9C9C9" stroke-width="2.079"></path>
                                                <path d="M0.51900415,112.674017 L173.347386,112.674017" id="Line-Copy-29" stroke="#C9C9C9" stroke-width="2.079"></path>
                                                <path d="M0.51900415,122.040937 L173.347386,122.040937" id="Line-Copy-30" stroke="#C9C9C9" stroke-width="2.079"></path>
                                                <path d="M0.51900415,131.407857 L173.347386,131.407857" id="Line-Copy-31" stroke="#C9C9C9" stroke-width="2.079"></path>
                                                <path d="M0.51900415,140.774777 L173.347386,140.774777" id="Line-Copy-32" stroke="#C9C9C9" stroke-width="2.079"></path>
                                                <path d="M0.51900415,150.141697 L173.347386,150.141697" id="Line-Copy-33" stroke="#C9C9C9" stroke-width="2.079"></path>
                                                <path d="M0.51900415,159.508617 L173.347386,159.508617" id="Line-Copy-34" stroke="#C9C9C9" stroke-width="2.079"></path>
                                                <path d="M0.51900415,168.875537 L173.347386,168.875537" id="Line-Copy-35" stroke="#C9C9C9" stroke-width="2.079"></path>
                                            </g>
                                        </g>
                                    </g>
                                </g>
                            </g>
                        </g>
                        <path d="M127.080944,198.496386 C127.113992,198.495163 127.147193,198.494545 127.180536,198.494545 L172.8084,198.494545 C174.285616,198.494545 175.483137,199.705819 175.483137,201.2 C175.483137,202.694181 174.285616,203.905455 172.8084,203.905455 L127.180536,203.905455 C127.147193,203.905455 127.113992,203.904837 127.080944,203.903614 C128.512019,203.85063 129.65609,202.660455 129.65609,201.2 C129.65609,199.739545 128.512019,198.54937 127.080944,198.496386 Z M172.8084,203.905455 C174.285616,203.905455 175.483137,202.694181 175.483137,201.2 C175.483137,199.705819 174.285616,198.494545 172.8084,198.494545 L160.827567,198.494545 C159.350351,198.494545 158.15283,199.705819 158.15283,201.2 C158.15283,202.694181 159.350351,203.905455 160.827567,203.905455 L172.8084,203.905455 Z" id="Combined-Shape" fill="#6BDEF4" fill-rule="nonzero"></path>
                        <path d="M500.340641,198.496386 C500.373688,198.495163 500.406889,198.494545 500.440232,198.494545 L546.068096,198.494545 C547.545313,198.494545 548.742833,199.705819 548.742833,201.2 C548.742833,202.694181 547.545313,203.905455 546.068096,203.905455 L500.440232,203.905455 C500.406889,203.905455 500.373688,203.904837 500.340641,203.903614 C501.771716,203.85063 502.915786,202.660455 502.915786,201.2 C502.915786,199.739545 501.771716,198.54937 500.340641,198.496386 Z M546.068096,203.905455 C547.545313,203.905455 548.742833,202.694181 548.742833,201.2 C548.742833,199.705819 547.545313,198.494545 546.068096,198.494545 L534.087263,198.494545 C532.610047,198.494545 531.412527,199.705819 531.412527,201.2 C531.412527,202.694181 532.610047,203.905455 534.087263,203.905455 L546.068096,203.905455 Z" id="Combined-Shape-Copy-7" fill="#6BDEF4" fill-rule="nonzero"></path>
                        <rect id="Rectangle-55" fill="#6BDEF4" fill-rule="nonzero" x="114.023609" y="203.905455" width="60.3338954" height="5.41090909" rx="2.70545454"></rect>
                        <rect id="Rectangle-55-Copy-5" fill="#6BDEF4" fill-rule="nonzero" x="487.283305" y="203.905455" width="60.3338954" height="5.41090909" rx="2.70545454"></rect>
                        <rect id="Rectangle-55-Copy-2" fill="#6BDEF4" fill-rule="nonzero" x="105.919056" y="193.083636" width="76.5430017" height="5.41090909" rx="2.70545454"></rect>
                        <rect id="Rectangle-55-Copy-6" fill="#6BDEF4" fill-rule="nonzero" x="479.178752" y="193.083636" width="76.5430017" height="5.41090909" rx="2.70545454"></rect>
                    </g>
                </g>
            </g>
            <path d="M726.802676,64.447 L701.404676,64.447 C699.350676,64.447 697.685676,62.776 697.685676,60.724 C697.685676,58.667 699.359676,57 701.404676,57 L726.802676,57 C728.856676,57 730.521676,58.671 730.521676,60.724 C730.521676,62.78 728.848676,64.447 726.802676,64.447 Z M727.980476,19.447 L717.191476,19.447 C715.135476,19.447 713.468476,17.776 713.468476,15.724 C713.468476,13.667 715.134476,12 717.191476,12 L727.980476,12 C730.036476,12 731.703476,13.671 731.703476,15.724 C731.703476,17.78 730.037476,19.447 727.980476,19.447 Z M738.404876,79.4466 C736.350876,79.4466 734.685876,77.7756 734.685876,75.7236 C734.685876,73.6676 736.359876,72.0006 738.404876,72.0006 L763.802876,72.0006 C765.856876,72.0006 767.521876,73.6716 767.521876,75.7236 C767.521876,77.7796 765.848876,79.4466 763.802876,79.4466 L738.404876,79.4466 Z M740.097976,108.727 L731.592976,108.727 C729.539976,108.727 727.876976,107.056 727.876976,105.004 C727.876976,102.947 729.551976,101.28 731.592976,101.28 L740.097976,101.28 C742.149976,101.28 743.813976,102.951 743.813976,105.004 C743.813976,107.06 742.138976,108.727 740.097976,108.727 Z M759.511276,116.1602 L784.909276,116.1602 C786.963276,116.1602 788.628276,117.8312 788.628276,119.8832 C788.628276,121.9402 786.954276,123.6072 784.909276,123.6072 L759.511276,123.6072 C757.457276,123.6072 755.792276,121.9362 755.792276,119.8832 C755.792276,117.8272 757.465276,116.1602 759.511276,116.1602 Z M744.663376,145.9202 L763.624376,145.9202 C765.684376,145.9202 767.353376,147.5912 767.353376,149.6432 C767.353376,151.7002 765.680376,153.3672 763.624376,153.3672 L744.663376,153.3672 C742.603376,153.3672 740.933376,151.6962 740.933376,149.6432 C740.933376,147.5872 742.606376,145.9202 744.663376,145.9202 Z M573.102749,182.290787 L573.102749,179.8304 L581.57959,178.8304 C580.379891,178.8304 593.188419,176.796316 604.072266,174.116211 C608.583962,173.005223 619.150391,169.516602 619.150391,169.516602 L621.852074,161.9364 C621.852074,161.9364 628.577637,161.480469 636.469176,155.4904 C642.732394,148.73747 643.450176,140.282227 643.450176,140.282227 L650.477262,139.282227 C652.210736,139.282227 654.053484,132.28493 654.394775,130.57373 L656.290319,123.7024 C656.290319,123.7024 659.498047,114.46832 659.498047,112.5324 C659.498047,110.4804 660.295176,104.8094 658.239176,104.8094 L651.627176,104.8094 L647.474475,104.8094 L639.934399,79.0214 C639.934399,79.0214 639.726176,77.3504 639.726176,75.2984 C639.726176,74.9405873 646.218875,65.6425781 646.218875,65.6425781 C647.151349,64.169909 647.623664,59.0316309 647.623664,57.2884164 L647.623664,49.2344 L647.623664,41.2419146 C647.623664,39.5014055 646.994661,36.8193982 646.218875,35.2574491 L642.074947,26.9135261 C642.200557,26.9008786 638.387814,19.4893747 638.387814,19.4893747 C638.570811,19.4617311 638.758266,19.4474 638.949176,19.4474 L638.366967,19.4474 L635.811728,14.3023509 C635.465983,13.6062344 634.809732,12.4467934 634.21875,12.0004 C634.796269,11.6346005 635.641819,12.0004 636.381176,12.0004 L698.805176,12.0004 C700.867176,12.0004 702.538176,13.6714 702.538176,15.7234 C702.538176,17.7804 700.880176,19.4474 698.805176,19.4474 L688.820176,19.4474 C686.765176,19.4474 685.102176,21.1144 685.102176,23.1704 C685.102176,25.2224 686.767176,26.8944 688.820176,26.8944 L718.067176,26.8944 C720.128176,26.8944 721.798176,28.5654 721.798176,30.6174 C721.798176,32.6734 720.139176,34.3404 718.067176,34.3404 L715.831176,34.3404 C715.305176,34.3474 715.173176,34.3404 715.040176,34.3404 L669.230176,34.3404 C667.173176,34.3404 665.506176,36.0074 665.506176,38.0644 C665.506176,40.1164 667.174176,41.7874 669.230176,41.7874 L715.040176,41.7874 C715.566176,41.7804 715.698176,41.7874 715.831176,41.7874 L746.438176,41.7874 C748.496176,41.7874 750.164176,43.4584 750.164176,45.5114 C750.164176,47.5674 748.490176,49.2344 746.438176,49.2344 L664.912176,49.2344 C662.855176,49.2344 661.188176,50.9014 661.188176,52.9574 C661.188176,55.0104 662.855176,56.6814 664.912176,56.6814 L682.955176,56.6814 C685.011176,56.6814 686.678176,58.3524 686.678176,60.4044 C686.678176,62.4614 685.014176,64.1284 682.955176,64.1284 L679.562176,64.1284 C677.504176,64.1284 675.839176,65.7954 675.839176,67.8514 C675.839176,69.9034 677.506176,71.5754 679.562176,71.5754 L724.308176,71.5754 C726.364176,71.5754 728.031176,73.2464 728.031176,75.2984 C728.031176,77.3544 726.366176,79.0214 724.308176,79.0214 L701.308176,79.0214 C699.234176,79.0214 697.575176,80.6884 697.575176,82.7454 C697.575176,84.7974 699.247176,86.4684 701.308176,86.4684 L707.950176,86.4684 C710.003176,86.4684 711.667176,88.1394 711.667176,90.1924 C711.667176,92.2484 710.007176,93.9154 707.950176,93.9154 L684.978176,93.9154 C682.921176,93.9154 681.254176,95.5824 681.254176,97.6384 C681.254176,99.6914 682.921176,101.3624 684.978176,101.3624 L718.067176,101.3624 C720.128176,101.3624 721.798176,103.0334 721.798176,105.0854 C721.798176,107.1424 720.139176,108.8094 718.067176,108.8094 L685.173176,108.8094 C683.116176,108.8094 681.449176,110.4764 681.449176,112.5324 C681.449176,114.5844 683.116176,116.2554 685.173176,116.2554 L744.572176,116.2554 C746.627176,116.2554 748.293176,117.9274 748.293176,119.9794 C748.293176,122.0354 746.632176,123.7024 744.572176,123.7024 L685.173176,123.7024 C683.116176,123.7024 681.449176,125.3694 681.449176,127.4264 C681.449176,129.4784 683.116176,131.1494 685.173176,131.1494 L697.594176,131.1494 C699.647176,131.1494 701.311176,132.8204 701.311176,134.8734 C701.311176,136.9294 699.651176,138.5964 697.594176,138.5964 L681.121176,138.5964 C679.064176,138.5964 677.397176,140.2634 677.397176,142.3194 C677.397176,144.3724 679.064176,146.0434 681.121176,146.0434 L706.149176,146.0434 C708.202176,146.0434 709.866176,147.7144 709.866176,149.7664 C709.866176,151.8234 708.206176,153.4904 706.149176,153.4904 L661.959176,153.4904 C659.911176,153.4904 658.239176,155.1574 658.239176,157.2134 C658.239176,159.2654 659.904176,160.9364 661.959176,160.9364 L681.046176,160.9364 C683.108176,160.9364 684.779176,162.6084 684.779176,164.6604 C684.779176,166.7164 683.120176,168.3834 681.046176,168.3834 L640.196176,168.3834 C638.139176,168.3834 636.469176,170.0504 636.469176,172.1074 C636.469176,174.1594 638.138176,175.8304 640.196176,175.8304 L724.300176,175.8304 C726.361176,175.8304 728.031176,177.5014 728.031176,179.5544 C728.031176,181.6104 726.355176,183.2774 724.300176,183.2774 L573,183.2774 C573.067323,182.959153 573.102749,182.629111 573.102749,182.290787 Z M719.892976,145.9202 L730.681976,145.9202 C732.737976,145.9202 734.404976,147.5912 734.404976,149.6432 C734.404976,151.7002 732.738976,153.3672 730.681976,153.3672 L719.892976,153.3672 C717.836976,153.3672 716.169976,151.6962 716.169976,149.6432 C716.169976,147.5872 717.836976,145.9202 719.892976,145.9202 Z M652.247176,23.1704 C652.247176,25.2224 653.915176,26.8944 655.972176,26.8944 L671.947176,26.8944 C674.006176,26.8944 675.672176,25.2264 675.672176,23.1704 C675.672176,21.1184 674.005176,19.4474 671.947176,19.4474 L655.972176,19.4474 C653.913176,19.4474 652.247176,21.1144 652.247176,23.1704 Z" id="Combined-Shape" fill="url(#linearGradient-22)"></path>
        </g>
    </g>
</svg>