<?xml version="1.0" encoding="UTF-8"?>
<svg width="40px" height="129px" viewBox="0 0 40 129" version="1.1" xmlns="http://www.w3.org/2000/svg" xmlns:xlink="http://www.w3.org/1999/xlink">
    <!-- Generator: Sketch 42 (36781) - http://www.bohemiancoding.com/sketch -->
    <title>man</title>
    <desc>Created with Sketch.</desc>
    <defs>
        <filter x="-50%" y="-50%" width="200%" height="200%" filterUnits="objectBoundingBox" id="filter-1">
            <feOffset dx="0" dy="0" in="SourceAlpha" result="shadowOffsetOuter1"></feOffset>
            <feGaussianBlur stdDeviation="1" in="shadowOffsetOuter1" result="shadowBlurOuter1"></feGaussianBlur>
            <feColorMatrix values="0 0 0 0 0.226057611   0 0 0 0 0.226057611   0 0 0 0 0.226057611  0 0 0 0.5 0" type="matrix" in="shadowBlurOuter1" result="shadowMatrixOuter1"></feColorMatrix>
            <feMerge>
                <feMergeNode in="shadowMatrixOuter1"></feMergeNode>
                <feMergeNode in="SourceGraphic"></feMergeNode>
            </feMerge>
        </filter>
        <path d="M0.137688003,1.93224178 C0.220719569,0.964704529 1.08331622,0.160602327 2.06541449,0.136202848 L6.70773819,0.0208678721 C7.68936056,-0.00351978392 8.51817634,0.763468763 8.55891813,1.73322465 L8.63468528,3.53667106 L0,3.53667106 L0.137688003,1.93224178 Z" id="path-2"></path>
        <path d="M0.137688003,1.93224178 C0.220719569,0.964704529 1.08331622,0.160602327 2.06541449,0.136202848 L6.70773819,0.0208678721 C7.68936056,-0.00351978392 8.51817634,0.763468763 8.55891813,1.73322465 L8.63468528,3.53667106 L0,3.53667106 L0.137688003,1.93224178 Z" id="path-4"></path>
        <path d="M0.0421689952,17.0306692 L0.447963911,7.34762194 C0.769900731,4.45907038 2.95658985,1.64990301 5.83224525,1.1625617 L10.6503269,0.040756446 L14.2443771,6.40504141 L16.3038578,8.13778358 L18.3686643,6.40504141 C18.3686643,6.40504141 20.5666077,0.931040539 21.8169242,0.0407564478 L26.773213,0.869099588 C29.6502937,1.34994526 32.2437815,4.08292263 32.5655466,6.96993297 L32.8101043,17.0306692 L32.5655464,33.6740971 L26.4028802,33.6740971 L26.7732136,38.9051793 L5.83224525,38.9051793 L5.83224525,34.5113308 L0.0421690151,33.4389543" id="path-6"></path>
        <path d="M0.0421689952,17.0306692 L0.447963911,7.34762194 C0.769900731,4.45907038 2.95658985,1.64990301 5.83224525,1.1625617 L10.6503269,0.040756446 L14.2443771,6.40504141 L16.3038578,8.13778358 L18.3686643,6.40504141 C18.3686643,6.40504141 20.5666077,0.931040539 21.8169242,0.0407564478 L26.773213,0.869099588 C29.6502937,1.34994526 32.2437815,4.08292263 32.5655466,6.96993297 L32.8101043,17.0306692 L32.5655464,33.6740971 L26.4028802,33.6740971 L26.7732136,38.9051793 L5.83224525,38.9051793 L5.83224525,34.5113308 L0.0421690151,33.4389543" id="path-8"></path>
        <rect id="path-10" x="0" y="0" width="6.81685679" height="2.94193749" rx="0.449064"></rect>
        <rect id="path-12" x="0" y="0" width="6.81685679" height="2.94193749" rx="0.449064"></rect>
        <path d="M0.0603219071,10.8140576 C-0.17721306,4.84161848 4.52877872,0 10.5712035,0 L11.1848775,0 C17.2274121,0 22.0416669,4.84401824 21.9378114,10.8197187 L21.7469621,21.8009135 C21.6431089,27.776479 16.6597788,32.6206322 10.6165088,32.6206322 L11.8700203,32.6206322 C5.82669386,32.6206322 0.735041598,27.7788114 0.497514674,21.8065746 L0.0603219071,10.8140576 Z" id="path-14"></path>
        <path d="M3.15034518,15.4942712 L3.15034518,13.5654848 C3.15034518,13.5654848 3.73437973,9.07180412 12.1225586,8.84294444 C20.5107375,8.61408476 22.1895716,13.5654848 22.1895716,13.5654848 L22.1895716,15.8006187 L23.32422,19.9573713 L23.4158694,19.9573713 L23.4228485,19.2240269 L23.4513808,16.2259472 L23.962645,14.0214065 L23.7635565,12.6705279 C23.7635565,12.6705279 24.2785654,11.1872104 24.2785654,11.0335296 C24.2785654,10.8798489 23.2107271,10.7505764 23.2107271,10.7505764 C23.2107271,10.7505764 24.3463181,8.31771258 23.962645,6.18059694 C23.5789719,4.04348128 22.0191405,2.55755242 22.0191405,2.55755242 C21.8280772,2.35249705 21.5683716,2.38811275 21.4395405,2.63620005 L20.9250163,3.6270081 C20.9250163,3.6270081 19.8332411,1.73765525 18.2164142,0.884024874 C16.5995873,0.0303944984 14.1844539,0.00106614831 14.1844539,0.00106614831 C13.9023042,-0.0118142547 13.8697166,0.0935192197 14.1128825,0.237052141 L15.883771,1.28235039 C15.883771,1.28235039 14.068009,0.730717481 12.5903854,0.558371078 C11.1127618,0.386024675 9.04845889,0.52987588 9.04845889,0.52987588 C8.76631523,0.545613343 8.73221489,0.676470359 8.97323694,0.822725621 L9.78317515,1.31420647 C9.78317515,1.31420647 8.63881387,1.21800816 7.58858332,1.3142065 C6.53835274,1.41040482 5.82849117,1.67644502 5.82849117,1.67644502 L7.58858332,2.81044702 C7.58858332,2.81044702 6.13621047,2.78538253 5.24233469,3.07064652 C4.3484589,3.3559105 3.4658911,4.12612826 3.4658911,4.12612826 L4.68151674,4.6146712 C4.68151674,4.6146712 4.22891952,4.67156947 3.4658911,4.78915672 C2.70286267,4.90674396 2.52923769,5.03813428 2.37758224,5.16941506 C2.22592679,5.30069584 3.30612101,5.58354419 3.30612101,5.58354419 C3.30612101,5.58354419 2.61658157,5.64079053 2.06041367,5.95660881 C1.50424575,6.2724271 1.22049468,6.71818111 1.13050186,6.81896301 C0.947119957,7.02433028 2.20295854,6.81896303 2.20295854,6.81896303 L0.640457064,8.32951392 L0.0012519234,9.54962694 L1.40635489,9.31356835 C1.40635489,9.31356835 1.03823354,9.63082803 0.640457064,10.4060615 C0.242680596,11.1812951 0.367274162,11.5694742 0.367274162,11.5694742 C0.382482102,11.8479535 0.60477286,11.9824362 0.863324545,11.8700455 L1.07608018,11.777562 L0.843789464,12.8046534 L1.40635489,14.6788116 L1.73875156,20.2501113 L1.89621246,20.2857316 L3.15034518,15.4942712 Z" id="path-16"></path>
    </defs>
    <g id="Page-1" stroke="none" stroke-width="1" fill="none" fill-rule="evenodd">
        <g id="man" filter="url(#filter-1)" transform="translate(2.000000, 2.000000)">
            <g id="Page-1">
                <g id="Group-71">
                    <path d="M1.00670881,73.7474747 L7.04696167,73.7474747 L7.04696167,76.506734 C7.04696167,78.0306308 5.79724969,79.2659933 4.25668619,79.2659933 L3.79698429,79.2659933 C2.25595769,79.2659933 1.00670881,78.0309659 1.00670881,76.506734 L1.00670881,73.7474747 Z" id="Combined-Shape" fill="#FFDCBD" fill-rule="nonzero"></path>
                    <path d="M29.1945555,73.7474747 L35.2348083,73.7474747 L35.2348083,76.506734 C35.2348083,78.0306308 33.9850963,79.2659933 32.4445329,79.2659933 L31.984831,79.2659933 C30.4438043,79.2659933 29.1945555,78.0309659 29.1945555,76.506734 L29.1945555,73.7474747 Z" id="Combined-Shape" fill="#FFDCBD" fill-rule="nonzero"></path>
                    <g id="Group-50-Copy-3" transform="translate(25.199287, 121.639237) scale(-1, 1) translate(-25.199287, -121.639237) translate(20.858862, 118.356408)">
                        <path id="Line-Copy-37" stroke="#FFFFFF" stroke-width="0.5" stroke-linecap="square"></path>
                        <rect id="Rectangle-31" fill="#A9A9A9" fill-rule="nonzero" x="1.81782848" y="0.452605768" width="5.90794255" height="2.26302884"></rect>
                        <rect id="Rectangle-33" fill="#D1C2A6" fill-rule="nonzero" x="0" y="5.88387498" width="8.63468528" height="0.678908652"></rect>
                        <g id="Rectangle-34" transform="translate(0.000000, 2.347204)">
                            <g id="Mask" fill-rule="nonzero" fill="#B5B5B5">
                                <path d="M0.137688003,1.93224178 C0.220719569,0.964704529 1.08331622,0.160602327 2.06541449,0.136202848 L6.70773819,0.0208678721 C7.68936056,-0.00351978392 8.51817634,0.763468763 8.55891813,1.73322465 L8.63468528,3.53667106 L0,3.53667106 L0.137688003,1.93224178 Z" id="path-1"></path>
                            </g>
                            <g id="Clipped">
                                <mask id="mask-3" fill="white">
                                    <use xlink:href="#path-2"></use>
                                </mask>
                                <g id="path-1"></g>
                                <path d="M7.52250472,0.967116734 C7.6062869,0.98003553 7.84445792,1.01068833 8.05902746,0.967116734 C8.3762655,0.902696734 8.45465956,0.594733567 8.45465956,0.594733567 L8.71178204,1.77094369 C8.71178204,1.77094369 8.25071843,2.16087406 7.84682397,1.89539269 C7.44292951,1.62991131 7.48241613,0.960935269 7.52250472,0.967116734 Z" id="Shape" fill="#B54033" fill-rule="nonzero" mask="url(#mask-3)"></path>
                            </g>
                        </g>
                        <path d="M2.30987148,0.673789839 C2.28911337,0.301665987 2.57747202,0 2.95428643,0 L6.58931308,0 C6.96597174,0 7.25451298,0.301184897 7.23372803,0.673789839 L7.08167124,3.39966207 C7.06091312,3.77178593 6.73884651,4.07345191 6.36125852,4.07345191 L3.18234099,4.07345191 C2.80522614,4.07345191 2.48271322,3.77226701 2.46192827,3.39966207 L2.30987148,0.673789839 Z" id="Rectangle-32" fill="#9A9A9A" fill-rule="nonzero"></path>
                        <path id="Line" stroke="#FFFFFF" stroke-width="0.5" stroke-linecap="square"></path>
                        <path id="Line-Copy-36" stroke="#FFFFFF" stroke-width="0.5" stroke-linecap="square"></path>
                        <path id="Line-Copy-38" stroke="#FFFFFF" stroke-width="0.5" stroke-linecap="square"></path>
                        <path id="Line-Copy-39" stroke="#FFFFFF" stroke-width="0.5" stroke-linecap="square"></path>
                    </g>
                    <g id="Group-50-Copy-4" transform="translate(6.204203, 118.356408)">
                        <path id="Line-Copy-37" stroke="#FFFFFF" stroke-width="0.5" stroke-linecap="square"></path>
                        <rect id="Rectangle-31" fill="#A9A9A9" fill-rule="nonzero" x="1.81782848" y="0.452605768" width="5.90794255" height="2.26302884"></rect>
                        <rect id="Rectangle-33" fill="#D1C2A6" fill-rule="nonzero" x="0" y="5.88387498" width="8.63468528" height="0.678908652"></rect>
                        <g id="Rectangle-34" transform="translate(0.000000, 2.347204)">
                            <g id="Mask" fill-rule="nonzero" fill="#B5B5B5">
                                <path d="M0.137688003,1.93224178 C0.220719569,0.964704529 1.08331622,0.160602327 2.06541449,0.136202848 L6.70773819,0.0208678721 C7.68936056,-0.00351978392 8.51817634,0.763468763 8.55891813,1.73322465 L8.63468528,3.53667106 L0,3.53667106 L0.137688003,1.93224178 Z" id="path-3"></path>
                            </g>
                            <g id="Clipped">
                                <mask id="mask-5" fill="white">
                                    <use xlink:href="#path-4"></use>
                                </mask>
                                <g id="path-3"></g>
                                <path d="M7.52250472,0.967116734 C7.6062869,0.98003553 7.84445792,1.01068833 8.05902746,0.967116734 C8.3762655,0.902696734 8.45465956,0.594733567 8.45465956,0.594733567 L8.71178204,1.77094369 C8.71178204,1.77094369 8.25071843,2.16087406 7.84682397,1.89539269 C7.44292951,1.62991131 7.48241613,0.960935269 7.52250472,0.967116734 Z" id="Shape" fill="#B54033" fill-rule="nonzero" mask="url(#mask-5)"></path>
                            </g>
                        </g>
                        <path d="M2.30987148,0.673789839 C2.28911337,0.301665987 2.57747202,0 2.95428643,0 L6.58931308,0 C6.96597174,0 7.25451298,0.301184897 7.23372803,0.673789839 L7.08167124,3.39966207 C7.06091312,3.77178593 6.73884651,4.07345191 6.36125852,4.07345191 L3.18234099,4.07345191 C2.80522614,4.07345191 2.48271322,3.77226701 2.46192827,3.39966207 L2.30987148,0.673789839 Z" id="Rectangle-32" fill="#9A9A9A" fill-rule="nonzero"></path>
                        <path id="Line" stroke="#FFFFFF" stroke-width="0.5" stroke-linecap="square"></path>
                        <path id="Line-Copy-36" stroke="#FFFFFF" stroke-width="0.5" stroke-linecap="square"></path>
                        <path id="Line-Copy-38" stroke="#FFFFFF" stroke-width="0.5" stroke-linecap="square"></path>
                        <path id="Line-Copy-39" stroke="#FFFFFF" stroke-width="0.5" stroke-linecap="square"></path>
                    </g>
                    <path d="M12.4975708,33.9454326 L23.6885774,33.9454326 L23.6885774,41.1254586 C23.6885774,41.1254586 20.8908257,44.2078213 18.093074,44.2078213 C15.2953225,44.2078213 12.4975708,41.1254586 12.4975708,41.1254586 L12.4975708,33.9454326 Z" id="Rectangle-22-Copy" fill="#FFDCBD" fill-rule="nonzero"></path>
                    <path d="M14.7698564,42.0923364 C14.7698564,42.0923364 16.3587366,43.0497037 17.9610419,43.0497037 C19.5633471,43.0497037 21.6332019,42.0923364 21.6332019,42.0923364 L21.3594846,48.2311337 L14.7698564,48.2311337 L14.7698564,42.0923364 Z" id="Rectangle-26-Copy" fill="#A62E2B" fill-rule="nonzero"></path>
                    <g id="Group-49-Copy-5" transform="translate(1.760813, 38.866143)">
                        <g id="Mask" fill-rule="nonzero" fill="#D7E1E3">
                            <path d="M0.0421689952,17.0306692 L0.447963911,7.34762194 C0.769900731,4.45907038 2.95658985,1.64990301 5.83224525,1.1625617 L10.6503269,0.040756446 L14.2443771,6.40504141 L16.3038578,8.13778358 L18.3686643,6.40504141 C18.3686643,6.40504141 20.5666077,0.931040539 21.8169242,0.0407564478 L26.773213,0.869099588 C29.6502937,1.34994526 32.2437815,4.08292263 32.5655466,6.96993297 L32.8101043,17.0306692 L32.5655464,33.6740971 L26.4028802,33.6740971 L26.7732136,38.9051793 L5.83224525,38.9051793 L5.83224525,34.5113308 L0.0421690151,33.4389543" id="path-5"></path>
                        </g>
                        <g id="Group-49-Clipped">
                            <mask id="mask-7" fill="white">
                                <use xlink:href="#path-6"></use>
                            </mask>
                            <g id="path-5"></g>
                            <g id="Group-49" mask="url(#mask-7)">
                                <g transform="translate(3.914894, 1.683502)" id="Group">
                                    <g transform="translate(0.005008, 0.042746)">
                                        <g id="Group-48" transform="translate(0.000000, 0.149062)" stroke-width="0.5" stroke="#464664">
                                            <path id="Line"></path>
                                            <path id="Line-Copy-18"></path>
                                            <path id="Line-Copy-19"></path>
                                            <path id="Line-Copy-20"></path>
                                            <path id="Line-Copy-21"></path>
                                            <path id="Line-Copy-22"></path>
                                            <path id="Line-Copy-23"></path>
                                            <path id="Line-Copy-24"></path>
                                            <path id="Line-Copy-25"></path>
                                            <path id="Line-Copy-26"></path>
                                            <path id="Line-Copy-27"></path>
                                            <path id="Line-Copy-28"></path>
                                            <path id="Line-Copy-29"></path>
                                            <path id="Line-Copy-30"></path>
                                            <path id="Line-Copy-31"></path>
                                            <path id="Line-Copy-32"></path>
                                            <path id="Line-Copy-33"></path>
                                            <path id="Line-Copy-34"></path>
                                            <path id="Line-Copy-35"></path>
                                        </g>
                                        <g id="Group-48-Copy" transform="translate(12.369475, 12.375408) rotate(90.000000) translate(-12.369475, -12.375408) translate(-0.141163, 0.170021)" stroke-width="0.5" stroke="#464664">
                                            <path id="Line"></path>
                                            <path id="Line-Copy-18"></path>
                                            <path id="Line-Copy-19"></path>
                                            <path id="Line-Copy-20"></path>
                                            <path id="Line-Copy-21"></path>
                                            <path id="Line-Copy-22"></path>
                                            <path id="Line-Copy-23"></path>
                                            <path id="Line-Copy-24"></path>
                                            <path id="Line-Copy-25"></path>
                                            <path id="Line-Copy-26"></path>
                                            <path id="Line-Copy-27"></path>
                                            <path id="Line-Copy-28"></path>
                                            <path id="Line-Copy-29"></path>
                                            <path id="Line-Copy-30"></path>
                                            <path id="Line-Copy-31"></path>
                                            <path id="Line-Copy-32"></path>
                                            <path id="Line-Copy-33"></path>
                                            <path id="Line-Copy-34"></path>
                                            <path id="Line-Copy-35"></path>
                                        </g>
                                    </g>
                                </g>
                            </g>
                        </g>
                        <g id="Group-49-Copy-Clipped">
                            <mask id="mask-9" fill="white">
                                <use xlink:href="#path-8"></use>
                            </mask>
                            <g id="path-5"></g>
                            <g id="Group-49-Copy" mask="url(#mask-9)">
                                <g transform="translate(3.914894, 25.925926)" id="Group">
                                    <g transform="translate(0.005008, 0.014731)">
                                        <g id="Group-48" transform="translate(0.000000, 0.149062)" stroke-width="0.5" stroke="#464664">
                                            <path id="Line"></path>
                                            <path id="Line-Copy-18"></path>
                                            <path id="Line-Copy-19"></path>
                                            <path id="Line-Copy-20"></path>
                                            <path id="Line-Copy-21"></path>
                                            <path id="Line-Copy-22"></path>
                                            <path id="Line-Copy-23"></path>
                                            <path id="Line-Copy-24"></path>
                                            <path id="Line-Copy-25"></path>
                                            <path id="Line-Copy-26"></path>
                                            <path id="Line-Copy-27"></path>
                                            <path id="Line-Copy-28"></path>
                                            <path id="Line-Copy-29"></path>
                                            <path id="Line-Copy-30"></path>
                                            <path id="Line-Copy-31"></path>
                                            <path id="Line-Copy-32"></path>
                                            <path id="Line-Copy-33"></path>
                                            <path id="Line-Copy-34"></path>
                                            <path id="Line-Copy-35"></path>
                                        </g>
                                        <g id="Group-48-Copy" transform="translate(12.369475, 12.375408) rotate(90.000000) translate(-12.369475, -12.375408) translate(-0.141163, 0.170021)" stroke-width="0.5" stroke="#464664">
                                            <path id="Line"></path>
                                            <path id="Line-Copy-18"></path>
                                            <path id="Line-Copy-19"></path>
                                            <path id="Line-Copy-20"></path>
                                            <path id="Line-Copy-21"></path>
                                            <path id="Line-Copy-22"></path>
                                            <path id="Line-Copy-23"></path>
                                            <path id="Line-Copy-24"></path>
                                            <path id="Line-Copy-25"></path>
                                            <path id="Line-Copy-26"></path>
                                            <path id="Line-Copy-27"></path>
                                            <path id="Line-Copy-28"></path>
                                            <path id="Line-Copy-29"></path>
                                            <path id="Line-Copy-30"></path>
                                            <path id="Line-Copy-31"></path>
                                            <path id="Line-Copy-32"></path>
                                            <path id="Line-Copy-33"></path>
                                            <path id="Line-Copy-34"></path>
                                            <path id="Line-Copy-35"></path>
                                        </g>
                                    </g>
                                </g>
                            </g>
                        </g>
                    </g>
                    <path d="M7.72577103,76.4903747 L27.9491129,76.4903747 L27.9491129,118.582711 L21.7003275,118.582711 C21.7003275,118.582711 18.9380803,86.7389781 17.837442,86.7389781 C16.7368036,86.7389781 13.9745564,118.582711 13.9745564,118.582711 L7.72577103,118.582711 L7.72577103,76.4903747 Z" id="Rectangle-28-Copy" fill="#76B1C2" fill-rule="nonzero"></path>
                    <rect id="Rectangle-29-Copy" fill="#5C9BAA" fill-rule="nonzero" x="14.5426278" y="75.5851632" width="7.04408535" height="1.35781731"></rect>
                    <path d="M16.0808586,40.9820604 C14.1427452,40.2856695 12.5859991,38.924096 12.5859991,38.924096 L7.76791746,39.740623 C4.89226206,40.2279643 2.299778,42.964721 1.97784117,45.8532726 C1.97784117,45.8532726 1.34194693,50.819024 1.1361428,55.874008 L1.1361428,73.3946704 L7.76791741,73.3946704 L7.76791741,77.7885189 L16.0808586,77.7885189 L16.0808586,40.9820604 Z M20.1709728,41.0107843 C22.1484586,40.3238866 23.7525963,38.924096 23.7525963,38.924096 L28.7088852,39.7524391 C31.5859659,40.2332848 34.1794537,42.9662622 34.5012188,45.8532726 C34.5012188,45.8532726 34.801198,47.2331159 35.1620663,56.3648465 C35.5229346,65.4965773 35.1620663,73.3946704 35.1620663,73.3946704 L28.7088858,73.3946704 L28.7088858,77.7885189 L20.1709728,77.7885189 L20.1709728,41.0107843 Z" id="Combined-Shape-Copy-6" fill="#19586C" fill-rule="nonzero"></path>
                    <path d="M27.9491129,41.4134278 C27.9491129,41.4134278 29.3115966,41.577188 30.9392543,43.0178799 C32.566912,44.4585717 32.8598238,46.9479035 32.8598238,46.9479035 M33.3971968,49.923792 L33.6435088,55.006288" id="Path-25-Copy-2" stroke-opacity="0.358129529" stroke="#FFFFFF" stroke-width="1.010394" stroke-linecap="round"></path>
                    <path d="M12.4027073,38.924096 L10.9069709,39.2099029 C10.9069709,39.2099029 11.2596473,40.528437 11.9924643,41.8785199 C12.7252813,43.228603 14.0150537,44.9359846 14.0150537,44.9359846 L15.9033641,40.9789715 C15.9033641,40.9789715 14.9015953,40.4863712 14.0739134,40.0298641 C13.2462316,39.5733569 12.4027073,38.924096 12.4027073,38.924096 Z" id="Path-22-Copy-4" fill="#24788F" fill-rule="nonzero"></path>
                    <path d="M21.8091708,38.924096 L20.2233418,39.2027757 C20.2233418,39.2027757 20.5760183,40.5213097 21.3088353,41.8713928 C22.0416523,43.2214758 23.3314247,44.9288574 23.3314247,44.9288574 L25.3714334,40.975629 C25.3714334,40.975629 24.2179663,40.479244 23.3902844,40.0227369 C22.5626026,39.5662297 21.8091708,38.924096 21.8091708,38.924096 Z" id="Path-22-Copy-3" fill="#24788F" fill-rule="nonzero" transform="translate(22.797388, 41.926477) scale(-1, 1) translate(-22.797388, -41.926477) "></path>
                    <g id="Group-49-Copy-4" transform="translate(29.085256, 70.832803)">
                        <g id="Mask" fill-rule="nonzero" fill="#D7E1E3">
                            <rect id="path-7" x="0" y="0" width="6.81685679" height="2.94193749" rx="0.449064"></rect>
                        </g>
                        <g id="Group-49-Copy-Clipped">
                            <mask id="mask-11" fill="white">
                                <use xlink:href="#path-10"></use>
                            </mask>
                            <g id="path-7"></g>
                            <g id="Group-49-Copy" mask="url(#mask-11)">
                                <g transform="translate(-6.382979, -8.585859)" id="Group">
                                    <g transform="translate(0.020579, 0.070524)">
                                        <g id="Group-48" transform="translate(0.000000, 0.149062)" stroke-width="0.5" stroke="#464664">
                                            <path id="Line"></path>
                                            <path id="Line-Copy-18"></path>
                                            <path id="Line-Copy-19"></path>
                                            <path id="Line-Copy-20"></path>
                                            <path id="Line-Copy-21"></path>
                                            <path id="Line-Copy-22"></path>
                                            <path id="Line-Copy-23"></path>
                                            <path id="Line-Copy-24"></path>
                                            <path id="Line-Copy-25"></path>
                                            <path id="Line-Copy-26"></path>
                                            <path id="Line-Copy-27"></path>
                                            <path id="Line-Copy-28"></path>
                                            <path id="Line-Copy-29"></path>
                                            <path id="Line-Copy-30"></path>
                                            <path id="Line-Copy-31"></path>
                                            <path id="Line-Copy-32"></path>
                                            <path id="Line-Copy-33"></path>
                                            <path id="Line-Copy-34"></path>
                                            <path id="Line-Copy-35"></path>
                                        </g>
                                        <g id="Group-48-Copy" transform="translate(6.241816, 12.375408) rotate(90.000000) translate(-6.241816, -12.375408) translate(-6.268823, 6.230627)" stroke-width="0.5" stroke="#464664">
                                            <path id="Line-Copy-26"></path>
                                            <path id="Line-Copy-27"></path>
                                            <path id="Line-Copy-28"></path>
                                            <path id="Line-Copy-29"></path>
                                            <path id="Line-Copy-30"></path>
                                            <path id="Line-Copy-31"></path>
                                            <path id="Line-Copy-32"></path>
                                            <path id="Line-Copy-33"></path>
                                            <path id="Line-Copy-34"></path>
                                            <path id="Line-Copy-35"></path>
                                        </g>
                                    </g>
                                </g>
                            </g>
                        </g>
                    </g>
                    <path d="M13.4124348,39.4202386 L13.4124348,77.6585684 C13.4124348,78.0313126 13.1065538,78.3334815 12.7300208,78.3334814 L8.47060553,78.3334807 C7.46557684,78.3334806 6.64780854,77.5268099 6.64421689,76.5334349 C6.64421689,76.5334349 6.51711597,44.015694 6.6508401,40.5132992 C6.6508401,39.6289083 8.15790113,39.4803226 8.15790113,39.4803226 L12.434911,38.6977932 C12.434911,38.6977932 13.0215534,39.1473433 13.4124348,39.4202386 Z" id="Path-27-Copy-3" fill="#A62E2B" fill-rule="nonzero"></path>
                    <path d="M29.266263,39.5720096 C29.6571445,39.8449049 29.3706378,39.6528399 29.3706378,39.6528399 L29.3706378,77.8712889 C29.3706378,78.2441196 29.0646253,78.5463587 28.68768,78.5463586 L24.3760893,78.5463579 C23.3713387,78.5463577 22.5537959,77.7396872 22.5502042,76.7463121 C22.5502042,76.7463121 22.4231033,44.2285713 22.5568275,40.7261764 C22.5568275,39.8417855 24.0385331,39.6528399 24.0385331,39.6528399 L28.3722967,38.924096 C28.3722967,38.924096 28.8753816,39.2991143 29.266263,39.5720096 Z" id="Path-27-Copy-2" fill="#A62E2B" fill-rule="nonzero" transform="translate(25.983759, 58.735227) scale(-1, 1) translate(-25.983759, -58.735227) "></path>
                    <ellipse id="Oval-16-Copy-17" fill="#FFFFFF" fill-rule="nonzero" cx="18.0646705" cy="50.3523917" rx="0.568071399" ry="0.56575721"></ellipse>
                    <ellipse id="Oval-16-Copy-16" fill="#FFFFFF" fill-rule="nonzero" cx="18.0646705" cy="53.7469349" rx="0.568071399" ry="0.56575721"></ellipse>
                    <ellipse id="Oval-16-Copy-15" fill="#FFFFFF" fill-rule="nonzero" cx="18.0646705" cy="57.1414782" rx="0.568071399" ry="0.56575721"></ellipse>
                    <ellipse id="Oval-16-Copy-14" fill="#FFFFFF" fill-rule="nonzero" cx="18.0646705" cy="60.5360215" rx="0.568071399" ry="0.56575721"></ellipse>
                    <ellipse id="Oval-16-Copy-13" fill="#FFFFFF" fill-rule="nonzero" cx="18.0646705" cy="63.9305647" rx="0.568071399" ry="0.56575721"></ellipse>
                    <ellipse id="Oval-16-Copy-12" fill="#FFFFFF" fill-rule="nonzero" cx="18.0646705" cy="67.325108" rx="0.568071399" ry="0.56575721"></ellipse>
                    <ellipse id="Oval-16-Copy-11" fill="#FFFFFF" fill-rule="nonzero" cx="18.0646705" cy="70.7196513" rx="0.568071399" ry="0.56575721"></ellipse>
                    <ellipse id="Oval-16-Copy-10" fill="#FFFFFF" fill-rule="nonzero" cx="18.0646705" cy="74.1141944" rx="0.568071399" ry="0.56575721"></ellipse>
                    <path d="M5.68071399,44.8022269 C5.68071399,44.1804811 6.18957544,43.6764566 6.81820014,43.6764566 L11.8148105,43.6764566 C12.0663937,43.6764566 12.2703422,43.8772907 12.2703422,44.1259559 L12.2703422,49.1108322 C12.2703422,49.3590838 12.0659018,49.5603316 11.8148105,49.5603316 L6.81820014,49.5603316 C6.18998389,49.5603316 5.68071399,49.0561322 5.68071399,48.4345613 L5.68071399,44.8022269 Z" id="Combined-Shape" fill="#B74134" fill-rule="nonzero"></path>
                    <path d="M30.2213985,44.8022269 C30.2213985,44.1804811 29.712537,43.6764566 29.0839123,43.6764566 L24.087302,43.6764566 C23.8357187,43.6764566 23.6317702,43.8772907 23.6317702,44.1259559 L23.6317702,49.1108322 C23.6317702,49.3590838 23.8362106,49.5603316 24.087302,49.5603316 L29.0839123,49.5603316 C29.7121286,49.5603316 30.2213985,49.0561322 30.2213985,48.4345613 L30.2213985,44.8022269 Z" id="Combined-Shape" fill="#B74134" fill-rule="nonzero"></path>
                    <path d="M6.25520275,40.8750862 C6.41500863,40.2740306 7.04673579,39.7031279 7.66558632,39.6000423 L11.686053,38.9303297 C11.9334546,38.8891186 12.1391664,39.0563811 12.1455665,39.3056069 L12.2323574,42.6853472 C12.2387381,42.9338183 12.0394703,43.1352438 11.788379,43.1352438 L6.79176862,43.1352438 C6.16355237,43.1352438 5.78373602,42.6483482 5.94363662,42.0469364 L6.25520275,40.8750862 Z" id="Combined-Shape" fill="#B74134" fill-rule="nonzero"></path>
                    <path d="M29.7416267,40.8233539 C29.5543554,40.2304784 28.900217,39.667659 28.2802464,39.5662089 L24.395008,38.9304408 C24.1471226,38.8898776 23.9414602,39.0581871 23.9356248,39.3073645 L23.8590321,42.5779652 C23.8532071,42.8266976 24.0529255,43.028335 24.3040169,43.028335 L29.3006271,43.028335 C29.9288434,43.028335 30.2864233,42.5481051 30.0990285,41.954839 L29.7416267,40.8233539 Z" id="Combined-Shape" fill="#B74134" fill-rule="nonzero"></path>
                    <path d="M5.68071399,51.1387076 C5.68071399,50.5169619 6.18957544,50.0129374 6.81820014,50.0129374 L11.8148105,50.0129374 C12.0663937,50.0129374 12.2703422,50.2137715 12.2703422,50.4624366 L12.2703422,55.447313 C12.2703422,55.6955646 12.0659018,55.8968123 11.8148105,55.8968123 L6.81820014,55.8968123 C6.18998389,55.8968123 5.68071399,55.3926129 5.68071399,54.7710421 L5.68071399,51.1387076 Z" id="Combined-Shape" fill="#B74134" fill-rule="nonzero"></path>
                    <path d="M30.2213985,51.1387076 C30.2213985,50.5169619 29.712537,50.0129374 29.0839123,50.0129374 L24.087302,50.0129374 C23.8357187,50.0129374 23.6317702,50.2137715 23.6317702,50.4624366 L23.6317702,55.447313 C23.6317702,55.6955646 23.8362106,55.8968123 24.087302,55.8968123 L29.0839123,55.8968123 C29.7121286,55.8968123 30.2213985,55.3926129 30.2213985,54.7710421 L30.2213985,51.1387076 Z" id="Combined-Shape" fill="#B74134" fill-rule="nonzero"></path>
                    <path d="M5.68071399,57.4751884 C5.68071399,56.8534426 6.18957544,56.3494181 6.81820014,56.3494181 L11.8148105,56.3494181 C12.0663937,56.3494181 12.2703422,56.5502523 12.2703422,56.7989174 L12.2703422,61.7837938 C12.2703422,62.0320454 12.0659018,62.2332931 11.8148105,62.2332931 L6.81820014,62.2332931 C6.18998389,62.2332931 5.68071399,61.7290936 5.68071399,61.1075228 L5.68071399,57.4751884 Z" id="Combined-Shape" fill="#B74134" fill-rule="nonzero"></path>
                    <path d="M30.2213985,57.4751884 C30.2213985,56.8534426 29.712537,56.3494181 29.0839123,56.3494181 L24.087302,56.3494181 C23.8357187,56.3494181 23.6317702,56.5502523 23.6317702,56.7989174 L23.6317702,61.7837938 C23.6317702,62.0320454 23.8362106,62.2332931 24.087302,62.2332931 L29.0839123,62.2332931 C29.7121286,62.2332931 30.2213985,61.7290936 30.2213985,61.1075228 L30.2213985,57.4751884 Z" id="Combined-Shape" fill="#B74134" fill-rule="nonzero"></path>
                    <g id="Group-49-Copy-3" transform="translate(0.000000, 70.832803)">
                        <g id="Mask" fill-rule="nonzero" fill="#D7E1E3">
                            <rect id="path-9" x="0" y="0" width="6.81685679" height="2.94193749" rx="0.449064"></rect>
                        </g>
                        <g id="Group-49-Copy-Clipped">
                            <mask id="mask-13" fill="white">
                                <use xlink:href="#path-12"></use>
                            </mask>
                            <g id="path-9"></g>
                            <g id="Group-49-Copy" mask="url(#mask-13)">
                                <g transform="translate(-6.382979, -8.585859)" id="Group">
                                    <g transform="translate(0.020579, 0.070524)">
                                        <g id="Group-48" transform="translate(0.000000, 0.149062)" stroke-width="0.5" stroke="#464664">
                                            <path id="Line"></path>
                                            <path id="Line-Copy-18"></path>
                                            <path id="Line-Copy-19"></path>
                                            <path id="Line-Copy-20"></path>
                                            <path id="Line-Copy-21"></path>
                                            <path id="Line-Copy-22"></path>
                                            <path id="Line-Copy-23"></path>
                                            <path id="Line-Copy-24"></path>
                                            <path id="Line-Copy-25"></path>
                                            <path id="Line-Copy-26"></path>
                                            <path id="Line-Copy-27"></path>
                                            <path id="Line-Copy-28"></path>
                                            <path id="Line-Copy-29"></path>
                                            <path id="Line-Copy-30"></path>
                                            <path id="Line-Copy-31"></path>
                                            <path id="Line-Copy-32"></path>
                                            <path id="Line-Copy-33"></path>
                                            <path id="Line-Copy-34"></path>
                                            <path id="Line-Copy-35"></path>
                                        </g>
                                        <g id="Group-48-Copy" transform="translate(15.773731, 12.375408) rotate(90.000000) translate(-15.773731, -12.375408) translate(3.263092, 3.537024)" stroke-width="0.5" stroke="#464664">
                                            <path id="Line"></path>
                                            <path id="Line-Copy-18"></path>
                                            <path id="Line-Copy-19"></path>
                                            <path id="Line-Copy-20"></path>
                                            <path id="Line-Copy-21"></path>
                                            <path id="Line-Copy-22"></path>
                                            <path id="Line-Copy-23"></path>
                                            <path id="Line-Copy-24"></path>
                                            <path id="Line-Copy-25"></path>
                                            <path id="Line-Copy-26"></path>
                                            <path id="Line-Copy-27"></path>
                                            <path id="Line-Copy-28"></path>
                                            <path id="Line-Copy-29"></path>
                                            <path id="Line-Copy-30"></path>
                                        </g>
                                    </g>
                                </g>
                            </g>
                        </g>
                    </g>
                    <path d="M5.68071399,63.8116691 C5.68071399,63.1899234 6.18957544,62.6858988 6.81820014,62.6858988 L11.8148105,62.6858988 C12.0663937,62.6858988 12.2703422,62.886733 12.2703422,63.1353981 L12.2703422,68.1202745 C12.2703422,68.3685261 12.0659018,68.5697738 11.8148105,68.5697738 L6.81820014,68.5697738 C6.18998389,68.5697738 5.68071399,68.0655744 5.68071399,67.4440035 L5.68071399,63.8116691 Z" id="Combined-Shape" fill="#B74134" fill-rule="nonzero"></path>
                    <path d="M30.2213985,63.8116691 C30.2213985,63.1899234 29.712537,62.6858988 29.0839123,62.6858988 L24.087302,62.6858988 C23.8357187,62.6858988 23.6317702,62.886733 23.6317702,63.1353981 L23.6317702,68.1202745 C23.6317702,68.3685261 23.8362106,68.5697738 24.087302,68.5697738 L29.0839123,68.5697738 C29.7121286,68.5697738 30.2213985,68.0655744 30.2213985,67.4440035 L30.2213985,63.8116691 Z" id="Combined-Shape" fill="#B74134" fill-rule="nonzero"></path>
                    <path d="M5.68071399,70.1481498 C5.68071399,69.5264041 6.18957544,69.0223796 6.81820014,69.0223796 L11.8148105,69.0223796 C12.0663937,69.0223796 12.2703422,69.2232137 12.2703422,69.4718789 L12.2703422,74.4567553 C12.2703422,74.7050069 12.0659018,74.9062545 11.8148105,74.9062545 L6.81820014,74.9062545 C6.18998389,74.9062545 5.68071399,74.4020551 5.68071399,73.7804843 L5.68071399,70.1481498 Z" id="Combined-Shape" fill="#B74134" fill-rule="nonzero"></path>
                    <path d="M30.2213985,70.1481498 C30.2213985,69.5264041 29.712537,69.0223796 29.0839123,69.0223796 L24.087302,69.0223796 C23.8357187,69.0223796 23.6317702,69.2232137 23.6317702,69.4718789 L23.6317702,74.4567553 C23.6317702,74.7050069 23.8362106,74.9062545 24.087302,74.9062545 L29.0839123,74.9062545 C29.7121286,74.9062545 30.2213985,74.4020551 30.2213985,73.7804843 L30.2213985,70.1481498 Z" id="Combined-Shape" fill="#B74134" fill-rule="nonzero"></path>
                    <path d="M5.68071399,76.4836683 C5.68071399,75.862454 6.18957544,75.3588604 6.81820014,75.3588604 L11.8148105,75.3588604 C12.0663937,75.3588604 12.2703422,75.560658 12.2703422,75.8094273 L12.2703422,78.0765338 C12.2703422,78.325375 12.0659018,78.5271008 11.8148105,78.5271008 L6.81820014,78.5271008 C6.18998389,78.5271008 5.68071399,78.0233331 5.68071399,77.4022928 L5.68071399,76.4836683 Z" id="Combined-Shape" fill="#B74134" fill-rule="nonzero"></path>
                    <path d="M30.2213985,76.4836683 C30.2213985,75.862454 29.712537,75.3588604 29.0839123,75.3588604 L24.087302,75.3588604 C23.8357187,75.3588604 23.6317702,75.560658 23.6317702,75.8094273 L23.6317702,78.0765338 C23.6317702,78.325375 23.8362106,78.5271008 24.087302,78.5271008 L29.0839123,78.5271008 C29.7121286,78.5271008 30.2213985,78.0233331 30.2213985,77.4022928 L30.2213985,76.4836683 Z" id="Combined-Shape" fill="#B74134" fill-rule="nonzero"></path>
                    <rect id="Rectangle-30-Copy-3" fill="#99D0DA" fill-rule="nonzero" x="21.1322561" y="116.545985" width="7.27131391" height="2.48933173" rx="0.449064"></rect>
                    <rect id="Rectangle-30-Copy-2" fill="#99D0DA" fill-rule="nonzero" x="7.27131391" y="116.545985" width="7.27131391" height="2.48933173" rx="0.449064"></rect>
                    <path d="M10.3686714,38.1003132 C10.4245921,37.1362723 11.24724,36.2028589 12.2048874,36.0157145 L13.5346255,35.7558556 L13.5346256,46.1977226 L11.66754,46.1977226 C10.690785,46.1977226 9.94430766,45.4161037 10.000222,44.4521721 L10.3686714,38.1003132 Z" id="Rectangle-35-Copy-3" fill="#D14E3F" fill-rule="nonzero"></path>
                    <path d="M23.0942523,38.1003132 C23.150173,37.1362723 23.9728209,36.2028589 24.9304682,36.0157145 L26.2602063,35.7558556 L26.2602064,46.1977226 L24.3931209,46.1977226 C23.4163658,46.1977226 22.6698885,45.4161037 22.7258029,44.4521721 L23.0942523,38.1003132 Z" id="Rectangle-35-Copy-2" fill="#D14E3F" fill-rule="nonzero" transform="translate(24.491531, 40.976789) scale(-1, 1) translate(-24.491531, -40.976789) "></path>
                    <g id="Group-39-Copy" transform="translate(4.584957, 0.000000)">
                        <path d="M2.861186,20.3755051 C2.861186,20.3755051 1.57790769,18.9133606 0.634640129,19.5127777 C-0.308627435,20.1121948 -0.0221646832,22.1288343 0.35778853,23.3632577 C0.737741744,24.5976811 1.04274942,26.5163885 1.67205804,27.2574153 C2.30136666,27.9984422 3.34411603,28.1342043 3.34411603,28.1342043 L2.861186,20.3755051 Z" id="Path-21-Copy-2" fill="#FFDCBD" fill-rule="nonzero"></path>
                        <path d="M26.6349742,20.3755051 C26.6349742,20.3755051 25.3516959,18.9133606 24.4084283,19.5127777 C23.4651607,20.1121948 23.7516235,22.1288343 24.1315767,23.3632577 C24.5115299,24.5976811 24.8165376,26.5163885 25.4458462,27.2574153 C26.0751548,27.9984422 27.1179042,28.1342043 27.1179042,28.1342043 L26.6349742,20.3755051 Z" id="Path-21-Copy-3" fill="#FFDCBD" fill-rule="nonzero" transform="translate(25.445846, 23.751352) scale(-1, 1) translate(-25.445846, -23.751352) "></path>
                        <g id="Path-24" transform="translate(2.556321, 6.116369)">
                            <g id="Mask" fill-rule="nonzero" fill="#FFDCBD">
                                <path d="M0.0603219071,10.8140576 C-0.17721306,4.84161848 4.52877872,0 10.5712035,0 L11.1848775,0 C17.2274121,0 22.0416669,4.84401824 21.9378114,10.8197187 L21.7469621,21.8009135 C21.6431089,27.776479 16.6597788,32.6206322 10.6165088,32.6206322 L11.8700203,32.6206322 C5.82669386,32.6206322 0.735041598,27.7788114 0.497514674,21.8065746 L0.0603219071,10.8140576 Z" id="path-11"></path>
                            </g>
                            <g id="Clipped">
                                <mask id="mask-15" fill="white">
                                    <use xlink:href="#path-14"></use>
                                </mask>
                                <g id="path-11"></g>
                                <path d="M0.215335951,14.1248143 L0.355904499,14.1573134 C0.355904499,14.1573134 1.0565345,19.2144156 1.1112758,19.3162364 C1.18891408,19.4606465 5.73599555,25.1729032 5.73599555,25.1729032 C5.73599555,25.1729032 6.45680836,22.647587 6.96073308,22.3536396 C7.20666771,22.2101819 8.74448485,22.1286307 10.7208718,22.1286307 C12.6972588,22.1286307 14.4868865,22.2042711 14.6737883,22.3536396 C15.0388581,22.6453967 16.0466071,25.1729032 16.0466071,25.1729032 C16.0466071,25.1729032 20.5188783,19.9046719 20.7698609,19.3312934 C20.8500666,19.1480606 20.9922166,18.5211247 21.1485293,17.7527837 C21.1506888,17.7421692 21.8018757,13.839748 21.8018757,13.839748 L21.8783906,13.839748 L21.8018757,22.069548 L22.0517661,27.5400842 L16.7154454,32.8281944 L6.8738581,33.2374705 L2.24639231,30.1619893 L-0.339136961,24.5199779 L0.515258511,22.005587 L0.215335951,14.1248143 Z" id="Shape" fill="#CFAA8A" fill-rule="nonzero" mask="url(#mask-15)"></path>
                            </g>
                        </g>
                        <path d="M10.1890525,30.1500775 C10.1604777,29.872455 10.3656346,29.6473974 10.6493288,29.6473974 L16.2027631,29.6473974 C16.4855414,29.6473974 16.6918344,29.8732912 16.6476538,30.1491353 C16.6476538,30.1491353 16.5323572,33.215279 13.3708161,33.215279 C10.209275,33.215279 10.1890525,30.1500775 10.1890525,30.1500775 Z" id="Path-23" fill="#3C3C3C" fill-rule="nonzero"></path>
                        <path d="M8.69149243,21.4072898 C8.69149243,20.8442937 8.2336908,20.387895 7.66896389,20.387895 C7.10423699,20.387895 6.64643537,20.8442937 6.64643537,21.4072898" id="Oval-17" stroke="#3D3D3D" stroke-width="0.505197" stroke-linecap="round"></path>
                        <path d="M20.4505704,21.4072898 C20.4505704,20.8442937 19.9927688,20.387895 19.4280419,20.387895 C18.863315,20.387895 18.4055134,20.8442937 18.4055134,21.4072898" id="Oval-17-Copy" stroke="#3D3D3D" stroke-width="0.505197" stroke-linecap="round"></path>
                        <g id="Path-22-Copy" transform="translate(1.021277, 0.000000)">
                            <g id="path-13-Clipped">
                                <mask id="mask-17" fill="white">
                                    <use xlink:href="#path-16"></use>
                                </mask>
                                <g id="path-13"></g>
                                <path d="M3.15034518,15.4942712 L3.15034518,13.5654848 C3.15034518,13.5654848 3.73437973,9.07180412 12.1225586,8.84294444 C20.5107375,8.61408476 22.1895716,13.5654848 22.1895716,13.5654848 L22.1895716,15.8006187 L23.32422,19.9573713 L23.4158694,19.9573713 L23.4228485,19.2240269 L23.4513808,16.2259472 L23.962645,14.0214065 L23.7635565,12.6705279 C23.7635565,12.6705279 24.2785654,11.1872104 24.2785654,11.0335296 C24.2785654,10.8798489 23.2107271,10.7505764 23.2107271,10.7505764 C23.2107271,10.7505764 24.3463181,8.31771258 23.962645,6.18059694 C23.5789719,4.04348128 22.0191405,2.55755242 22.0191405,2.55755242 C21.8280772,2.35249705 21.5683716,2.38811275 21.4395405,2.63620005 L20.9250163,3.6270081 C20.9250163,3.6270081 19.8332411,1.73765525 18.2164142,0.884024874 C16.5995873,0.0303944984 14.1844539,0.00106614831 14.1844539,0.00106614831 C13.9023042,-0.0118142547 13.8697166,0.0935192197 14.1128825,0.237052141 L15.883771,1.28235039 C15.883771,1.28235039 14.068009,0.730717481 12.5903854,0.558371078 C11.1127618,0.386024675 9.04845889,0.52987588 9.04845889,0.52987588 C8.76631523,0.545613343 8.73221489,0.676470359 8.97323694,0.822725621 L9.78317515,1.31420647 C9.78317515,1.31420647 8.63881387,1.21800816 7.58858332,1.3142065 C6.53835274,1.41040482 5.82849117,1.67644502 5.82849117,1.67644502 L7.58858332,2.81044702 C7.58858332,2.81044702 6.13621047,2.78538253 5.24233469,3.07064652 C4.3484589,3.3559105 3.4658911,4.12612826 3.4658911,4.12612826 L4.68151674,4.6146712 C4.68151674,4.6146712 4.22891952,4.67156947 3.4658911,4.78915672 C2.70286267,4.90674396 2.52923769,5.03813428 2.37758224,5.16941506 C2.22592679,5.30069584 3.30612101,5.58354419 3.30612101,5.58354419 C3.30612101,5.58354419 2.61658157,5.64079053 2.06041367,5.95660881 C1.50424575,6.2724271 1.22049468,6.71818111 1.13050186,6.81896301 C0.947119957,7.02433028 2.20295854,6.81896303 2.20295854,6.81896303 L0.640457064,8.32951392 L0.0012519234,9.54962694 L1.40635489,9.31356835 C1.40635489,9.31356835 1.03823354,9.63082803 0.640457064,10.4060615 C0.242680596,11.1812951 0.367274162,11.5694742 0.367274162,11.5694742 C0.382482102,11.8479535 0.60477286,11.9824362 0.863324545,11.8700455 L1.07608018,11.777562 L0.843789464,12.8046534 L1.40635489,14.6788116 L1.73875156,20.2501113 L1.89621246,20.2857316 L3.15034518,15.4942712 Z" id="path-13" stroke="#5A381A" stroke-width="1.515591" fill="#5A381A" fill-rule="nonzero" mask="url(#mask-17)"></path>
                            </g>
                        </g>
                        <path d="M18.1782848,10.8625385 C18.1782848,10.8625385 19.1179045,11.0640881 20.3513243,12.0227968 C21.5847441,12.9815055 21.8990969,13.7546396 21.8990969,13.7546396" id="Path-25" stroke="#FFF1E4" stroke-width="1.010394" stroke-linecap="round"></path>
                        <path d="M11.8398007,25.1206838 C11.7652379,25.6978172 11.7263386,26.1299954 11.7656934,26.1966533 C11.8355887,26.3150396 12.1414184,26.5539743 12.5123266,26.7553939 C12.8521472,26.9399315 13.2465945,27.092979 13.5642729,27.092979 C13.8826009,27.092979 14.2726342,26.9469888 14.6093821,26.7662689 C14.9754997,26.5697874 15.2786317,26.3322541 15.3581488,26.1966533 C15.510804,25.9363293 14.752645,21.1493302 14.752645,21.1493302 L13.7324881,19.6710087 L13.0052846,19.8362621 L12.4041497,21.5095777 L12.4041497,21.5095777" id="Path-28" stroke="#D4B69C" stroke-width="0.505197" stroke-linecap="round" fill="#FFDCBD" fill-rule="nonzero"></path>
                        <path d="M23.2341657,19.8628983 L23.225531,20.0219892 C23.2239404,20.0498245 23.2207592,20.1036846 23.2153057,20.179496 C23.2059894,20.3069045 23.1941734,20.4490228 23.1796308,20.6020035 C23.1378208,21.0387681 23.0816953,21.4753064 23.0092094,21.8808412 C22.8744629,22.6355613 22.6969974,23.1929453 22.5015808,23.4312422 C22.2225442,23.7170627 21.3863431,23.8231988 19.6350925,23.7958162 C17.8270349,23.7677545 16.8919894,23.6333306 16.2657474,23.2563101 C16.2566583,23.2508788 16.2471147,23.2447686 16.2373438,23.2377532 C16.0021623,23.0716469 15.7069924,22.6070471 15.408414,21.9559737 C15.2602611,21.6328131 15.120061,21.2849856 14.9925858,20.9369318 C14.948049,20.8151809 14.908284,20.7020294 14.8739725,20.6006457 C14.853522,20.5402228 14.8394338,20.4976779 14.8323897,20.4757265 C14.8173926,20.4272977 14.7921702,20.3716272 14.758086,20.3130147 C14.702415,20.1102474 14.6372003,19.8493201 14.6372003,19.7320953 C14.6372003,19.5716465 14.758086,19.2681743 14.8114847,19.1418973 C14.8887424,19.1213038 14.9753164,19.0986735 15.073252,19.0744591 C15.385464,18.9966109 15.7328965,18.918989 16.106233,18.8463458 C17.1121738,18.65082 18.1140245,18.5288428 19.0449799,18.5163961 C19.0988331,18.5157173 19.1522318,18.5152646 19.2051761,18.5152646 C19.3062928,18.5154909 19.4087729,18.5170751 19.5126163,18.520017 C20.4024434,18.5460418 21.3597573,18.6770712 22.3241153,18.8793859 C22.6483705,18.9475031 22.9528568,19.0196938 23.2341657,19.0925633 L23.2341657,19.8628983 Z M12.41286,20.5956671 C12.3769579,20.6984086 12.2467559,21.0819919 12.1781329,21.2616764 C12.0304343,21.6488806 11.8627397,22.0082497 11.660279,22.345441 C11.5034913,22.6065944 11.3307976,22.843081 11.1421979,23.0530901 C10.8136254,23.3377791 10.2812289,23.5498249 9.60249719,23.6874171 C9.1941674,23.7700176 8.75493464,23.821841 8.30888496,23.8483184 C8.00848881,23.8661963 7.74717597,23.8702698 7.54835097,23.8668753 C7.47404723,23.86597 7.4283743,23.8655174 7.36338693,23.8641596 C7.25408999,23.8618965 7.13229548,23.8580494 7.00095737,23.8519392 C6.62648471,23.8345139 6.25223927,23.8032841 5.90503403,23.7548553 C5.21971269,23.6593555 4.72980791,23.5041117 4.57506527,23.3314426 C4.33806588,23.0763992 4.16809892,22.588264 4.0708451,21.9403588 C3.98631607,21.3761857 3.96541104,20.7776146 3.98063535,20.2641333 C3.98199872,20.2141204 3.9833621,20.179496 3.98427101,20.1622971 L3.99585967,19.9427832 L4.06289209,19.0753643 C4.15332906,19.0495657 4.25535468,19.01992 4.40237157,18.9816749 C4.64959624,18.9169523 4.93067797,18.8520034 5.23970881,18.7913541 C6.17429987,18.6082751 7.15615448,18.5030443 8.1325556,18.5152646 C9.0728274,18.5272587 10.0764959,18.6494623 11.0788011,18.8458932 C11.4496381,18.9185364 11.7941166,18.9963846 12.102693,19.0740065 C12.1488204,19.0855479 12.1915394,19.0966368 12.2331222,19.1074993 C12.2835669,19.1819529 12.4408091,19.4317913 12.4828464,19.7320953 C12.5210208,20.0043376 12.449671,20.4137195 12.41286,20.5956671 L12.41286,20.5956671 Z M23.96516,18.6340737 C23.948345,18.6288687 23.9103979,18.6175535 23.8558631,18.6017124 C23.766335,18.5756875 23.662946,18.5469471 23.5468322,18.5159435 C23.2159874,18.4274591 22.8494677,18.339201 22.4568168,18.2568268 C21.45792,18.0470439 20.4640223,17.9110359 19.5317035,17.8838796 C19.4214977,17.8807114 19.3128825,17.8789009 19.2054033,17.8789009 C19.1495051,17.8789009 19.0931524,17.8793535 19.0363453,17.8800324 C18.0622164,17.893158 17.023782,18.019435 15.9828479,18.2217498 C15.59815,18.2966561 15.2398105,18.3767673 14.917146,18.4571048 C14.8039861,18.4851663 14.7033238,18.5114175 14.6160681,18.534953 C14.5817566,18.5442314 14.5567614,18.5512468 14.5360837,18.5569044 L13.5374141,18.6519516 L12.638498,18.5575832 C12.6178202,18.5516994 12.5930523,18.544684 12.5587407,18.5354056 C12.4723939,18.5116438 12.3726405,18.4853927 12.2606169,18.4571048 C11.9411335,18.3767673 11.585748,18.2964297 11.2030951,18.2215235 C10.1655695,18.0180772 9.12440826,17.8913476 8.14073583,17.8789009 C7.1157078,17.8660017 6.09067976,17.9759848 5.11541478,18.1669845 C4.792523,18.2303493 4.49848924,18.2982402 4.238767,18.3661311 C4.14719389,18.3901191 4.06630052,18.4122968 3.99676859,18.4324378 C3.95427684,18.4448844 3.9245099,18.4537103 3.90814945,18.4589152 L3.38484207,18.5514731 C3.17988191,18.588813 3.01309614,18.7592191 2.97878464,18.9610813 L2.84676484,19.7388843 C2.8106355,19.9525142 2.92902158,20.1729332 3.12852826,20.2598336 L3.33803299,20.3512599 C3.32758048,20.8744722 3.35098501,21.4642175 3.43619573,22.0340481 C3.55071892,22.7978205 3.75726969,23.3905077 4.09947589,23.7584762 C4.38851062,24.0814104 4.9795321,24.2685629 5.81573321,24.3851088 C6.18475238,24.4364796 6.57808502,24.4695198 6.9709632,24.4876241 C7.10820925,24.4939605 7.23568448,24.4982603 7.35043489,24.5005233 C7.41973961,24.5018811 7.46995712,24.5023338 7.497679,24.5023338 C7.75172054,24.5068598 8.0291666,24.50256 8.34705936,24.4835506 C8.8215126,24.4554891 9.29005787,24.4002711 9.73088128,24.3108815 C10.5198188,24.1511117 11.1544683,23.8967472 11.5832485,23.5167847 L11.6080164,23.4923439 C11.8307004,23.2468053 12.0308888,22.9718473 12.2115355,22.6710908 C12.4351283,22.2988226 12.6182746,21.9064134 12.7782435,21.4868478 C12.8616364,21.268013 13.0152429,20.8126915 13.0188786,20.8034131 C13.0388746,20.7531738 13.0509178,20.715155 13.0740951,20.6354964 C13.1438543,20.3969731 13.1779386,20.3680063 13.5767247,20.3573701 C13.8387192,20.3501285 14.0098223,20.417793 14.1241183,20.5307181 C14.1836522,20.5895569 14.2136463,20.6445485 14.2200087,20.665142 C14.2288706,20.6934299 14.244095,20.7395957 14.2659089,20.8036394 C14.301811,20.9095492 14.3431666,21.0274529 14.3895212,21.1541826 C14.5222227,21.5167198 14.6685579,21.8797096 14.8244367,22.2196166 C15.1689151,22.9702632 15.5074857,23.5036591 15.8653707,23.7562131 C15.8876391,23.7720543 15.9101347,23.7867641 15.9328576,23.8005685 C16.6913466,24.2570214 17.7025136,24.4023078 19.6250945,24.4321799 C21.595166,24.4629571 22.5006719,24.3479952 22.9814875,23.8526182 C23.286201,23.482613 23.4877528,22.850549 23.6409048,21.9919558 C23.7167991,21.5674116 23.7749696,21.1145795 23.8183703,20.6622001 C23.8333674,20.5040144 23.8456377,20.3569175 23.8551814,20.2247566 C23.8554086,20.2215884 23.8554086,20.2197779 23.8556358,20.2166098 L24.0624138,20.0799228 C24.2114757,19.9812547 24.3135014,19.7936497 24.3135014,19.6164545 L24.3135014,19.1013891 C24.3135014,18.8904748 24.1683023,18.6944965 23.96516,18.6340737 L23.96516,18.6340737 Z" id="Fill-1" fill="#321716" fill-rule="nonzero"></path>
                        <path d="M22.5823776,4.57539258 C22.5823776,4.50153872 22.8533626,3.5233329 22.8533626,3.5233329 C22.8533626,3.5233329 23.3417654,4.01724914 23.7389571,4.88512561 C24.0111403,5.47985475 24.2404915,6.2501934 24.2404915,7.1575399 C24.2404915,9.38895918 22.9861715,11.3053019 22.9861715,11.3053019 L24.4086245,11.5667457 L24.0769768,12.7414389 L24.1482374,13.3281066 L24.2404915,14.0876074 L23.9419211,15.4672497 L23.9419211,13.5186776 C23.9419211,13.5186776 23.4487587,12.4029827 22.9861715,11.8408201 C22.5235843,11.2786574 22.059505,10.8861952 22.059505,10.8861952 C22.059505,10.8861952 22.7807172,8.77746582 22.7807172,7.1575399 C22.7807172,5.7979321 22.5823776,4.64924643 22.5823776,4.57539258 Z" id="Path-26" stroke="#784B24" stroke-width="0.505197" stroke-linecap="round" stroke-linejoin="round" fill="#784C24" fill-rule="nonzero"></path>
                        <path d="M21.2490463,9.984892 C21.2490463,9.984892 22.2465213,7.28474816 21.2490463,4.46532731 C20.2515714,1.64590646 17.7894,1.21339334 17.7894,1.21339334 L18.8898164,2.90786336 C18.8898164,2.90786336 17.5406444,2.44042637 15.7668106,2.02472803 C13.9929768,1.60902969 12.4499587,1.39868128 12.4499587,1.39868128 C12.4499587,1.39868128 17.1217047,3.009497 18.4078849,4.46532731 C19.6940651,5.92115763 19.1076279,8.93451221 19.1076279,8.93451221 L20.2447416,9.32661582 L21.2490463,9.984892 Z" id="Path-29" stroke="#784C24" stroke-width="0.505197" stroke-linecap="round" stroke-linejoin="round" fill="#784C24" fill-rule="nonzero"></path>
                        <path d="M23.0712603,4.56325989 C23.0712603,4.56325989 23.592513,5.70490773 23.4732206,7.74942847 C23.3539282,9.79394916 22.6245044,10.9355971 22.6245044,10.9355971" id="Path-31" stroke="#5A381A" stroke-width="0.505197" stroke-linecap="round"></path>
                        <path d="M9.32495583,2.13261564 C9.32495583,2.13261564 15.155506,3.34483152 16.6663911,4.50365417 C18.1772762,5.66247681 17.4839645,8.44049402 17.4839645,8.44049402" id="Path-32" stroke="#784C24" stroke-width="0.505197" stroke-linecap="round"></path>
                        <path d="M6.54895066,3.8588173 C6.54895066,3.8588173 12.524531,4.40177181 14.2539877,5.21108327 C15.9834443,6.02039471 15.2973612,7.95269767 15.2973612,7.95269767" id="Path-33" stroke="#784C24" stroke-width="0.505197" stroke-linecap="round"></path>
                        <path d="M5.73736858,5.56349121 C5.73736858,5.56349121 9.87496877,5.62984184 11.5764658,6.15394875 C13.2779627,6.67805566 13.1484535,7.89446077 13.1484535,7.89446077" id="Path-34" stroke="#784C24" stroke-width="0.505197" stroke-linecap="round"></path>
                        <path d="M3.22972723,8.26404114 C3.22972723,8.26404114 5.95352142,7.09582707 7.74710145,7.09756086 C9.54068145,7.09929465 10.7123343,8.09766777 10.7123343,8.09766777" id="Path-35" stroke="#784C24" stroke-width="0.505197" stroke-linecap="round"></path>
                        <path d="M2.74230366,10.4203 C2.74230366,10.4203 4.46530529,9.32180825 5.10821147,9.11532037 C5.75111766,8.90883249 8.13354533,8.70567104 8.13354533,8.70567104" id="Path-36" stroke="#784C24" stroke-width="0.505197" stroke-linecap="round"></path>
                    </g>
                </g>
            </g>
        </g>
    </g>
</svg>