<?xml version="1.0" encoding="UTF-8" standalone="no"?>
<svg width="81px" height="66px" viewBox="0 0 81 66" version="1.1" xmlns="http://www.w3.org/2000/svg" xmlns:xlink="http://www.w3.org/1999/xlink">
    <!-- Generator: Sketch 39.1 (31720) - http://www.bohemiancoding.com/sketch -->
    <title>bklogo</title>
    <desc>Created with Sketch.</desc>
    <defs></defs>
    <g id="Page-1" stroke="none" stroke-width="1" fill="none" fill-rule="evenodd">
        <g id="bklogo" fill="#FFFFFF">
            <g id="Page-1">
                <path d="M56.408,33 L79.389,9.66544615 C81.537,7.4844 81.537,3.94832308 79.389,1.76778462 C77.241,-0.413261538 73.7585,-0.413261538 71.611,1.76778462 L46.2905,27.4773231 C46.0225,27.4367077 45.7485,27.4153846 45.469,27.4153846 L19.5,27.4153846 C19.416,27.4153846 19.3325,27.4174154 19.25,27.4209692 C19.167,27.4174154 19.0835,27.4153846 19,27.4153846 C14.5815,27.4153846 11,23.7787846 11,19.2923077 C11,14.8058308 14.5815,11.1692308 19,11.1692308 L38.9785,11.1692308 L37.659,12.5090308 C35.511,14.6900769 35.511,18.2256462 37.659,20.4066923 C39.8065,22.5877385 43.289,22.5877385 45.437,20.4066923 L56.1455,9.53344615 C59.6105,6.01564615 57.1565,0 52.2565,0 L18.7435,0 C18.6435,0 18.544,0.00253846154 18.445,0.00812307692 C8.2085,0.306138462 0,8.82572308 0,19.2923077 C0,24.6535385 2.1535,29.5035231 5.63,33 C2.1535,36.4964769 0,41.3464615 0,46.7076923 C0,57.3626308 8.5065,66 19,66 C19.125,66 19.2485,65.9959385 19.3715,65.9873077 C19.4945,65.9959385 19.6185,66 19.7435,66 L52.2565,66 C57.1565,66 59.6105,59.9843538 56.1455,56.4665538 L46.513,46.6858615 C44.365,44.5048154 40.8825,44.5048154 38.735,46.6858615 C36.587,48.8669077 36.587,52.4024769 38.735,54.5835231 L38.9785,54.8307692 L19.7435,54.8307692 C19.6185,54.8307692 19.4945,54.8348308 19.3715,54.8434615 C19.2485,54.8348308 19.125,54.8307692 19,54.8307692 C14.5815,54.8307692 11,51.1941692 11,46.7076923 C11,42.2212154 14.5815,38.5846154 19,38.5846154 C19.0835,38.5846154 19.167,38.5825846 19.25,38.5790308 C19.3325,38.5825846 19.416,38.5846154 19.5,38.5846154 L45.469,38.5846154 C45.7485,38.5846154 46.0225,38.5632923 46.2905,38.5226769 L71.611,64.2322154 C73.7585,66.4132615 77.241,66.4132615 79.389,64.2322154 C81.537,62.0516769 81.537,58.5156 79.389,56.3345538 L56.408,33 L56.408,33 Z" id="Fill-1-Copy"></path>
            </g>
        </g>
    </g>
</svg>