<?xml version="1.0" encoding="UTF-8"?>
<svg width="643px" height="534px" viewBox="0 0 643 534" version="1.1" xmlns="http://www.w3.org/2000/svg" xmlns:xlink="http://www.w3.org/1999/xlink">
    <!-- Generator: Sketch 43.1 (39012) - http://www.bohemiancoding.com/sketch -->
    <title>Group 23</title>
    <desc>Created with Sketch.</desc>
    <defs>
        <filter x="-6.5%" y="-39.6%" width="113.0%" height="190.6%" filterUnits="objectBoundingBox" id="filter-1">
            <feOffset dx="0" dy="6" in="SourceAlpha" result="shadowOffsetOuter1"></feOffset>
            <feGaussianBlur stdDeviation="6" in="shadowOffsetOuter1" result="shadowBlurOuter1"></feGaussianBlur>
            <feColorMatrix values="0 0 0 0 0   0 0 0 0 0   0 0 0 0 0  0 0 0 0.7 0" type="matrix" in="shadowBlurOuter1" result="shadowMatrixOuter1"></feColorMatrix>
            <feMerge>
                <feMergeNode in="shadowMatrixOuter1"></feMergeNode>
                <feMergeNode in="SourceGraphic"></feMergeNode>
            </feMerge>
        </filter>
        <filter x="-5.6%" y="-37.5%" width="111.1%" height="208.3%" filterUnits="objectBoundingBox" id="filter-2">
            <feOffset dx="0" dy="6" in="SourceAlpha" result="shadowOffsetOuter1"></feOffset>
            <feGaussianBlur stdDeviation="5.5" in="shadowOffsetOuter1" result="shadowBlurOuter1"></feGaussianBlur>
            <feColorMatrix values="0 0 0 0 0   0 0 0 0 0   0 0 0 0 0  0 0 0 0.7 0" type="matrix" in="shadowBlurOuter1" result="shadowMatrixOuter1"></feColorMatrix>
            <feMerge>
                <feMergeNode in="shadowMatrixOuter1"></feMergeNode>
                <feMergeNode in="SourceGraphic"></feMergeNode>
            </feMerge>
        </filter>
        <filter x="-4.7%" y="-75.0%" width="109.4%" height="310.0%" filterUnits="objectBoundingBox" id="filter-3">
            <feOffset dx="0" dy="6" in="SourceAlpha" result="shadowOffsetOuter1"></feOffset>
            <feGaussianBlur stdDeviation="6" in="shadowOffsetOuter1" result="shadowBlurOuter1"></feGaussianBlur>
            <feColorMatrix values="0 0 0 0 0   0 0 0 0 0   0 0 0 0 0  0 0 0 0.7 0" type="matrix" in="shadowBlurOuter1" result="shadowMatrixOuter1"></feColorMatrix>
            <feMerge>
                <feMergeNode in="shadowMatrixOuter1"></feMergeNode>
                <feMergeNode in="SourceGraphic"></feMergeNode>
            </feMerge>
        </filter>
        <filter x="-5.8%" y="-2.9%" width="111.5%" height="108.2%" filterUnits="objectBoundingBox" id="filter-4">
            <feOffset dx="0" dy="6" in="SourceAlpha" result="shadowOffsetOuter1"></feOffset>
            <feGaussianBlur stdDeviation="6" in="shadowOffsetOuter1" result="shadowBlurOuter1"></feGaussianBlur>
            <feColorMatrix values="0 0 0 0 0   0 0 0 0 0   0 0 0 0 0  0 0 0 0.7 0" type="matrix" in="shadowBlurOuter1" result="shadowMatrixOuter1"></feColorMatrix>
            <feMerge>
                <feMergeNode in="shadowMatrixOuter1"></feMergeNode>
                <feMergeNode in="SourceGraphic"></feMergeNode>
            </feMerge>
        </filter>
    </defs>
    <g id="Page-1" stroke="none" stroke-width="1" fill="none" fill-rule="evenodd">
        <g id="Group-23" transform="translate(12.000000, 6.000000)">
            <g id="Group-3" filter="url(#filter-1)" transform="translate(566.000000, 265.000000) rotate(90.000000) translate(-566.000000, -265.000000) translate(405.000000, 212.000000)" fill-rule="nonzero">
                <g id="Group-2">
                    <path d="M121.437202,-3.92876106 L101.301265,31.4407702 C99.5012648,34.3407702 98.1012648,37.4407702 97.0012648,40.6407702 C92.9012648,52.0407702 81.2012648,82.8407702 63.2012648,112.34077 C63.2012648,112.34077 58.6012648,121.04077 51.0012648,119.44077 C49.1012648,119.04077 47.5012648,117.74077 46.8012648,115.84077 C45.5012648,112.64077 44.8012648,106.54077 51.1012648,97.8407702 C51.1012648,97.8407702 66.6012648,78.2407702 73.9012648,68.1407702 C75.2012648,66.3407702 76.6012648,64.5407702 78.1012648,62.9407702 C81.3012648,59.3407702 87.6012648,51.1407702 87.0012648,42.7407702 C87.0012648,42.7407702 85.0012648,32.3407702 83.3012648,27.1407702 C82.6012648,24.9407702 82.9012648,22.5407702 84.1012648,20.6407702 L102.937202,-10.1287611 L121.437202,-3.92876106 Z" id="Shape" fill="#000000" transform="translate(83.682982, 54.754221) rotate(-90.000000) translate(-83.682982, -54.754221) "></path>
                    <path d="M120.557299,-4.40866479 L101.821361,30.9608665 C100.121361,33.8608665 98.7213611,36.9608665 97.6213611,40.0608665 C93.7213611,51.4608665 82.6213611,82.2608665 65.4213611,111.660866 C65.4213611,111.660866 61.0213611,120.360866 53.7213611,118.760866 C51.9213611,118.360866 50.3213611,117.060866 49.6213611,115.160866 C48.4213611,111.960866 47.7213611,105.860866 53.7213611,97.1608665 C53.7213611,97.1608665 72.5213611,72.3608665 77.7213611,64.2608665 C77.7213611,64.2608665 87.3213611,52.2608665 86.6213611,40.9608665 C86.6213611,40.9608665 86.1213611,31.7608665 84.4213611,26.4608665 C83.7213611,24.2608665 84.0213611,21.8608665 85.2213611,19.9608665 L102.757299,-10.8086648 L120.557299,-4.40866479 Z" id="Shape" fill="#3C2118" transform="translate(84.682982, 54.074317) rotate(-90.000000) translate(-84.682982, -54.074317) "></path>
                    <path d="M120.589704,84.8749573 C120.589704,84.8749573 116.589704,94.0749573 119.889704,98.5749573 C119.889704,98.5749573 119.389704,90.2749573 121.989704,85.3749573 C121.989704,85.3749573 124.889704,78.7749573 136.189704,64.7749573 C141.089704,58.6749573 135.189704,64.3749573 135.189704,64.3749573 C135.189704,64.3749573 122.789704,79.2749573 120.589704,84.8749573 Z" id="Shape" fill="#363C3F" transform="translate(128.360108, 80.265534) rotate(-90.000000) translate(-128.360108, -80.265534) "></path>
                    <path d="M126.799654,8.89147009 C126.799654,8.89147009 120.099654,-14.2085299 79.899654,-4.60852991 C79.899654,-4.60852991 44.699654,-6.50852991 34.599654,21.6914701 C34.599654,21.6914701 18.599654,75.2914701 60.599654,99.3914701 C60.599654,99.3914701 94.599654,118.39147 115.699654,112.19147 C115.699654,112.09147 138.399654,77.9914701 126.799654,8.89147009 Z" id="Shape" fill="#FFFFFF" opacity="0.17" transform="translate(80.854092, 53.245562) rotate(-90.000000) translate(-80.854092, -53.245562) "></path>
                    <path d="M121.588485,-26.096309 L104.188485,-23.196309 C103.388485,-23.096309 102.788485,-22.396309 102.588485,-21.596309 C102.288485,-19.496309 100.888485,-15.496309 94.6884847,-13.996309 C92.6884847,-13.496309 90.6884847,-13.096309 88.6884847,-12.596309 C78.2884847,-9.69630901 49.6884847,-1.59630901 44.7884847,1.20369099 C44.7884847,1.20369099 26.7884847,7.40369099 27.4884847,44.003691 L27.4884847,45.903691 C27.3884847,51.403691 27.9884847,85.003691 53.9884847,102.003691 C53.9884847,102.003691 79.3884847,117.903691 96.4884847,121.703691 C96.4884847,121.703691 103.688485,125.003691 104.288485,132.203691 L117.788485,131.803691 C117.788485,131.803691 117.788215,131.035046 119.274032,121.703691 C120.385473,114.723521 124.633077,111.626671 125.788485,107.903691 C126.588485,105.403691 128.388485,90.603691 128.888485,88.103691 C131.388485,72.903691 136.988485,26.603691 126.388485,-17.496309 L113.788485,4.00369099 C113.788485,4.00369099 126.088485,15.003691 125.388485,55.003691 C125.388485,55.003691 124.488485,82.303691 116.688485,97.703691 C113.788485,103.403691 108.088485,107.303691 101.688485,107.903691 C94.7884847,108.603691 83.9884847,108.103691 70.6884847,102.303691 C70.6884847,102.303691 43.1884847,91.703691 36.7884847,65.603691 C36.7884847,65.603691 28.7884847,28.303691 43.1884847,10.903691 C43.1884847,10.903691 48.2884847,2.60369099 74.6884847,-0.396309014 C76.5884847,-0.596309014 78.4884847,-0.896309014 80.4884847,-0.996309014 C87.3884847,-1.09630901 104.888485,-1.09630901 108.888485,1.10369099 C108.888485,1.10369099 118.588485,6.50369099 120.788485,8.20369099 L126.788485,-8.19630901 C126.788485,-8.19630901 128.888485,-14.996309 124.088485,-25.096309 C123.388485,-25.796309 122.488485,-26.196309 121.588485,-26.096309 Z" id="Shape" fill="#919980" opacity="0.802819293" transform="translate(80.042397, 53.046088) rotate(-90.000000) translate(-80.042397, -53.046088) "></path>
                    <path d="M26.0226598,53 L16.8257585,53 C15.8519499,49.5871146 15.0106811,46.5900287 14.4,44.4 C13.9,42.4 13.5,40.4 13,38.4 C11.5,32.2 7.5,30.8 5.4,30.5 C4.6,30.3 3.9,29.7 3.8,28.9 L0.9,11.5 C0.8,10.6 1.2,9.7 1.9,9 C12,4.2 18.8,6.3 18.8,6.3 L35.2,12.3 C33.5,14.5 28.1,24.2 28.1,24.2 C25.9,28.2 25.9,45.7 26,52.6 C26.0066885,52.7337707 26.0142718,52.8670941 26.02266,53.0000001 Z M132.69623,53 C135.274053,43.9899448 135.426645,36.5912135 134.9,31.4 C134.3,25 130.4,19.3 124.7,16.4 C109.3,8.6 82,7.7 82,7.7 C42,7 31,19.3 31,19.3 L9.5,6.7 C53.6,-3.9 99.9,1.7 115.1,4.2 C117.6,4.7 132.4,6.5 134.9,7.3 C138.62298,8.45540754 141.71983,12.7030122 148.7,13.8144531 C158.031355,15.3002693 158.8,15.3 158.8,15.3 L159.2,28.8 C152,29.4 148.7,36.6 148.7,36.6 C147.581343,41.6339574 145.41408,47.3872064 142.91254,53.0000009 L132.69623,53 Z" id="Combined-Shape" fill="#3A1819"></path>
                    <path d="M170.05,-2.55 C170.05,-2.55 157.25,10.45 151.05,10.95 C151.05,10.95 157.15,21.95 150.45,30.25 C150.45,30.25 169.55,38.75 172.15,44.85 C172.15,44.85 169.55,37.25 168.05,31.05 C168.05,31.05 167.05,23.45 168.15,11.15 C168.25,11.05 169.75,1.85 170.05,-2.55 Z" id="Shape" fill="#31160F" transform="translate(161.300000, 21.150000) rotate(-90.000000) translate(-161.300000, -21.150000) "></path>
                    <path d="M156.33615,18.5062205 L156.03615,20.9062205 C155.83615,22.5062205 154.53615,23.8062205 152.93615,24.1062205 C148.53615,24.7062205 143.33615,25.9062205 142.83615,26.8062205 C142.43615,25.5062205 142.83615,24.1062205 144.03615,23.5062205 C146.93615,21.8062205 149.23615,18.9062205 154.63615,17.1062205 C155.53615,16.8062205 156.43615,17.5062205 156.33615,18.5062205 Z" id="Shape" fill="#572119" transform="translate(149.514965, 21.921185) rotate(-90.000000) translate(-149.514965, -21.921185) "></path>
                    <path d="M178.407439,23.481763 L177.907439,20.381763 C177.707439,19.381763 176.907439,18.681763 175.907439,18.681763 C172.107439,18.581763 166.107439,18.081763 165.507439,17.181763 C164.307439,17.681763 164.307439,19.281763 165.407439,19.881763 C168.207439,21.281763 170.707439,23.781763 176.407439,25.381763 C177.507439,25.581763 178.607439,24.581763 178.407439,23.481763 Z" id="Shape" fill="#572119" transform="translate(171.512838, 21.294601) rotate(-90.000000) translate(-171.512838, -21.294601) "></path>
                    <path d="M58.8959958,52.8959958 C58.8959958,52.8959958 63.4959958,-0.304004156 49.0959958,-22.3040042 C48.3959958,-23.4040042 48.1959958,-24.9040042 48.7959958,-26.1040042 L52.1959958,-33.5040042 L52.1959958,-33.5040042 C52.1959958,-33.5040042 67.5959958,11.5959958 58.8959958,52.8959958" id="Shape" fill="#572119" transform="translate(55.000000, 9.695996) rotate(-90.000000) translate(-55.000000, -9.695996) "></path>
                    <path d="M70.0826216,56.7399702 C70.0826216,56.7399702 33.1826216,56.6399702 27.7826216,89.6399702 C22.3826216,122.53997 26.6826216,89.7399702 26.6826216,89.7399702 C26.6826216,89.7399702 25.7826216,56.2399702 70.0826216,56.7399702 Z" id="Shape" fill="#7D846F" transform="translate(47.571326, 80.511296) rotate(-90.000000) translate(-47.571326, -80.511296) "></path>
                </g>
                <g id="Group-2-Copy" transform="translate(229.500000, 53.000000) scale(-1, 1) translate(-229.500000, -53.000000) translate(137.000000, 0.000000)">
                    <path d="M121.437202,-3.92876106 L101.301265,31.4407702 C99.5012648,34.3407702 98.1012648,37.4407702 97.0012648,40.6407702 C92.9012648,52.0407702 81.2012648,82.8407702 63.2012648,112.34077 C63.2012648,112.34077 58.6012648,121.04077 51.0012648,119.44077 C49.1012648,119.04077 47.5012648,117.74077 46.8012648,115.84077 C45.5012648,112.64077 44.8012648,106.54077 51.1012648,97.8407702 C51.1012648,97.8407702 66.6012648,78.2407702 73.9012648,68.1407702 C75.2012648,66.3407702 76.6012648,64.5407702 78.1012648,62.9407702 C81.3012648,59.3407702 87.6012648,51.1407702 87.0012648,42.7407702 C87.0012648,42.7407702 85.0012648,32.3407702 83.3012648,27.1407702 C82.6012648,24.9407702 82.9012648,22.5407702 84.1012648,20.6407702 L102.937202,-10.1287611 L121.437202,-3.92876106 Z" id="Shape" fill="#000000" transform="translate(83.682982, 54.754221) rotate(-90.000000) translate(-83.682982, -54.754221) "></path>
                    <path d="M120.557299,-4.40866479 L101.821361,30.9608665 C100.121361,33.8608665 98.7213611,36.9608665 97.6213611,40.0608665 C93.7213611,51.4608665 82.6213611,82.2608665 65.4213611,111.660866 C65.4213611,111.660866 61.0213611,120.360866 53.7213611,118.760866 C51.9213611,118.360866 50.3213611,117.060866 49.6213611,115.160866 C48.4213611,111.960866 47.7213611,105.860866 53.7213611,97.1608665 C53.7213611,97.1608665 72.5213611,72.3608665 77.7213611,64.2608665 C77.7213611,64.2608665 87.3213611,52.2608665 86.6213611,40.9608665 C86.6213611,40.9608665 86.1213611,31.7608665 84.4213611,26.4608665 C83.7213611,24.2608665 84.0213611,21.8608665 85.2213611,19.9608665 L102.757299,-10.8086648 L120.557299,-4.40866479 Z" id="Shape" fill="#3C2118" transform="translate(84.682982, 54.074317) rotate(-90.000000) translate(-84.682982, -54.074317) "></path>
                    <path d="M120.589704,84.8749573 C120.589704,84.8749573 116.589704,94.0749573 119.889704,98.5749573 C119.889704,98.5749573 119.389704,90.2749573 121.989704,85.3749573 C121.989704,85.3749573 124.889704,78.7749573 136.189704,64.7749573 C141.089704,58.6749573 135.189704,64.3749573 135.189704,64.3749573 C135.189704,64.3749573 122.789704,79.2749573 120.589704,84.8749573 Z" id="Shape" fill="#363C3F" transform="translate(128.360108, 80.265534) rotate(-90.000000) translate(-128.360108, -80.265534) "></path>
                    <path d="M126.799654,8.89147009 C126.799654,8.89147009 120.099654,-14.2085299 79.899654,-4.60852991 C79.899654,-4.60852991 44.699654,-6.50852991 34.599654,21.6914701 C34.599654,21.6914701 18.599654,75.2914701 60.599654,99.3914701 C60.599654,99.3914701 94.599654,118.39147 115.699654,112.19147 C115.699654,112.09147 138.399654,77.9914701 126.799654,8.89147009 Z" id="Shape" fill="#FFFFFF" opacity="0.17" transform="translate(80.854092, 53.245562) rotate(-90.000000) translate(-80.854092, -53.245562) "></path>
                    <path d="M121.588485,-26.096309 L104.188485,-23.196309 C103.388485,-23.096309 102.788485,-22.396309 102.588485,-21.596309 C102.288485,-19.496309 100.888485,-15.496309 94.6884847,-13.996309 C92.6884847,-13.496309 90.6884847,-13.096309 88.6884847,-12.596309 C78.2884847,-9.69630901 49.6884847,-1.59630901 44.7884847,1.20369099 C44.7884847,1.20369099 26.7884847,7.40369099 27.4884847,44.003691 L27.4884847,45.903691 C27.3884847,51.403691 27.9884847,85.003691 53.9884847,102.003691 C53.9884847,102.003691 79.3884847,117.903691 96.4884847,121.703691 C96.4884847,121.703691 103.688485,125.003691 104.288485,132.203691 L117.788485,131.803691 C117.788485,131.803691 117.788215,131.035046 119.274032,121.703691 C120.385473,114.723521 124.633077,111.626671 125.788485,107.903691 C126.588485,105.403691 128.388485,90.603691 128.888485,88.103691 C131.388485,72.903691 136.988485,26.603691 126.388485,-17.496309 L113.788485,4.00369099 C113.788485,4.00369099 126.088485,15.003691 125.388485,55.003691 C125.388485,55.003691 124.488485,82.303691 116.688485,97.703691 C113.788485,103.403691 108.088485,107.303691 101.688485,107.903691 C94.7884847,108.603691 83.9884847,108.103691 70.6884847,102.303691 C70.6884847,102.303691 43.1884847,91.703691 36.7884847,65.603691 C36.7884847,65.603691 28.7884847,28.303691 43.1884847,10.903691 C43.1884847,10.903691 48.2884847,2.60369099 74.6884847,-0.396309014 C76.5884847,-0.596309014 78.4884847,-0.896309014 80.4884847,-0.996309014 C87.3884847,-1.09630901 104.888485,-1.09630901 108.888485,1.10369099 C108.888485,1.10369099 118.588485,6.50369099 120.788485,8.20369099 L126.788485,-8.19630901 C126.788485,-8.19630901 128.888485,-14.996309 124.088485,-25.096309 C123.388485,-25.796309 122.488485,-26.196309 121.588485,-26.096309 Z" id="Shape" fill="#919980" opacity="0.802819293" transform="translate(80.042397, 53.046088) rotate(-90.000000) translate(-80.042397, -53.046088) "></path>
                    <path d="M26.0226598,53 L16.8257585,53 C15.8519499,49.5871146 15.0106811,46.5900287 14.4,44.4 C13.9,42.4 13.5,40.4 13,38.4 C11.5,32.2 7.5,30.8 5.4,30.5 C4.6,30.3 3.9,29.7 3.8,28.9 L0.9,11.5 C0.8,10.6 1.2,9.7 1.9,9 C12,4.2 18.8,6.3 18.8,6.3 L35.2,12.3 C33.5,14.5 28.1,24.2 28.1,24.2 C25.9,28.2 25.9,45.7 26,52.6 C26.0066885,52.7337707 26.0142718,52.8670941 26.02266,53.0000001 Z M132.69623,53 C135.274053,43.9899448 135.426645,36.5912135 134.9,31.4 C134.3,25 130.4,19.3 124.7,16.4 C109.3,8.6 82,7.7 82,7.7 C42,7 31,19.3 31,19.3 L9.5,6.7 C53.6,-3.9 99.9,1.7 115.1,4.2 C117.6,4.7 132.4,6.5 134.9,7.3 C138.62298,8.45540754 141.71983,12.7030122 148.7,13.8144531 C158.031355,15.3002693 158.8,15.3 158.8,15.3 L159.2,28.8 C152,29.4 148.7,36.6 148.7,36.6 C147.581343,41.6339574 145.41408,47.3872064 142.91254,53.0000009 L132.69623,53 Z" id="Combined-Shape" fill="#3A1819"></path>
                    <path d="M170.05,-2.55 C170.05,-2.55 157.25,10.45 151.05,10.95 C151.05,10.95 157.15,21.95 150.45,30.25 C150.45,30.25 169.55,38.75 172.15,44.85 C172.15,44.85 169.55,37.25 168.05,31.05 C168.05,31.05 167.05,23.45 168.15,11.15 C168.25,11.05 169.75,1.85 170.05,-2.55 Z" id="Shape" fill="#31160F" transform="translate(161.300000, 21.150000) rotate(-90.000000) translate(-161.300000, -21.150000) "></path>
                    <path d="M156.33615,18.5062205 L156.03615,20.9062205 C155.83615,22.5062205 154.53615,23.8062205 152.93615,24.1062205 C148.53615,24.7062205 143.33615,25.9062205 142.83615,26.8062205 C142.43615,25.5062205 142.83615,24.1062205 144.03615,23.5062205 C146.93615,21.8062205 149.23615,18.9062205 154.63615,17.1062205 C155.53615,16.8062205 156.43615,17.5062205 156.33615,18.5062205 Z" id="Shape" fill="#572119" transform="translate(149.514965, 21.921185) rotate(-90.000000) translate(-149.514965, -21.921185) "></path>
                    <path d="M178.407439,23.481763 L177.907439,20.381763 C177.707439,19.381763 176.907439,18.681763 175.907439,18.681763 C172.107439,18.581763 166.107439,18.081763 165.507439,17.181763 C164.307439,17.681763 164.307439,19.281763 165.407439,19.881763 C168.207439,21.281763 170.707439,23.781763 176.407439,25.381763 C177.507439,25.581763 178.607439,24.581763 178.407439,23.481763 Z" id="Shape" fill="#572119" transform="translate(171.512838, 21.294601) rotate(-90.000000) translate(-171.512838, -21.294601) "></path>
                    <path d="M58.8959958,52.8959958 C58.8959958,52.8959958 63.4959958,-0.304004156 49.0959958,-22.3040042 C48.3959958,-23.4040042 48.1959958,-24.9040042 48.7959958,-26.1040042 L52.1959958,-33.5040042 L52.1959958,-33.5040042 C52.1959958,-33.5040042 67.5959958,11.5959958 58.8959958,52.8959958" id="Shape" fill="#572119" transform="translate(55.000000, 9.695996) rotate(-90.000000) translate(-55.000000, -9.695996) "></path>
                    <path d="M70.0826216,56.7399702 C70.0826216,56.7399702 33.1826216,56.6399702 27.7826216,89.6399702 C22.3826216,122.53997 26.6826216,89.7399702 26.6826216,89.7399702 C26.6826216,89.7399702 25.7826216,56.2399702 70.0826216,56.7399702 Z" id="Shape" fill="#7D846F" transform="translate(47.571326, 80.511296) rotate(-90.000000) translate(-47.571326, -80.511296) "></path>
                </g>
            </g>
            <g id="marker_5_" filter="url(#filter-2)" transform="translate(68.000000, 256.000000) rotate(90.000000) translate(-68.000000, -256.000000) translate(-107.000000, 238.000000)">
                <path d="M35.9,23.1 L29.1,23.1 C28.5,23.1 27.8,23 27.2,22.9 L15.5,19.8 C14.9,19.6 14.3,19.5 13.7,19.4 C12.4,19.2 10,18.7 9.8,17.9 C9.8,17.9 11.3,16.8 14,16.4 C14.4,16.3 14.9,16.3 15.3,16.2 L27.5,13.2 C27.9,13.1 28.3,13.1 28.7,13.1 L35.9,13.1 L35.9,23.1 Z" id="Shape" fill="#BE1A21" fill-rule="nonzero"></path>
                <path d="M26.5,20.3 L10.6,17.3 C10.1,17.6 9.8,17.7 9.8,17.7 C10,18.5 12.5,19 13.7,19.2 C14.3,19.3 14.9,19.4 15.5,19.6 L27.2,22.7 C27.8,22.9 28.4,22.9 29.1,22.9 L35.9,22.9 L35.9,20.3 L28.1,20.3 C27.6,20.5 27,20.4 26.5,20.3 Z" id="Shape" fill="#8E0A1A" fill-rule="nonzero"></path>
                <path d="M10.5,17.4 C10.1,17.6 9.9,17.7 9.8,17.8 L28.3,16.5 L35.9,16.5 L35.9,14.5 L28.6,14.5 L10.5,17.4 Z" id="Shape" fill="#AA1520" fill-rule="nonzero"></path>
                <path d="M269.8,0.1 L266.9,6.9 C264.3,14.4 263.9,21.8 266.9,28.9 L269.8,35.7 L79,35.7 L79.1,35.5 C83.9,24.2 83.9,11.5 79.1,0.2 L79,9.09494702e-13 L269.8,9.09494702e-13 L269.8,0.1 Z" id="Shape" fill="#F4F4F2" fill-rule="nonzero"></path>
                <path d="M80.5,32.5 L65.6,32.5 C64.9,32.5 64.1,32.4 63.4,32.1 L49.8,26.5 C49,26.2 48.2,26 47.4,26 L36.4,26 C36.4,26 30.9,17 36.4,9.4 L48,9.4 C48.6,9.4 49.1,9.3 49.7,9.1 L64,3.7 C64.7,3.5 65.3,3.3 66,3.3 L80.5,3.3 C80.5,3.4 88.1,17.5 80.5,32.5 Z" id="Shape" fill="#8A8A8A" fill-rule="nonzero"></path>
                <polygon id="Shape" fill="#B7B7B7" fill-rule="nonzero" points="81.8 6.5 82.7 9.4 64.7 9.4 64.7 6.5"></polygon>
                <polygon id="Shape" fill="#B7B7B7" fill-rule="nonzero" points="82.7 26.3 81.9 29.2 64.7 29.2 64.7 26.3"></polygon>
                <polygon id="Shape" fill="#BE1A21" fill-rule="nonzero" points="312.4 26.3 331.9 26.3 324.8 11.6 312.4 11.6"></polygon>
                <rect id="Rectangle-path" fill="#B7B7B7" fill-rule="nonzero" transform="translate(41.174735, 18.191608) rotate(-89.326778) translate(-41.174735, -18.191608) " x="40.2747633" y="11.5918129" width="1.79994425" height="13.1995912"></rect>
                <g id="Group" transform="translate(34.000000, 3.000000)" fill-rule="nonzero" fill="#777676">
                    <path d="M30,0.8 C30.2,0.7 30.5,0.6 30.7,0.6 L14.1,6.5 C14.6,6.5 15.2,6.4 15.7,6.2 L30,0.8 Z" id="Shape"></path>
                    <path d="M13.8,22.8 L14.1,23.1 L14.1,23.1 L13.8,22.8 Z" id="Shape"></path>
                    <path d="M13.4,23 L2.4,23 C2.4,23 0.6,20 0.1,16.1 L2.4,23 L14.2,23 L14.2,23 L13.4,23 Z" id="Shape"></path>
                    <path d="M14.1,23.1 C14.3,23.1 13.9,21.3 14.2,21.4 L14.1,16.2 L0,16.2 C0.5,20.1 2.3,23.1 2.3,23.1 L14.1,23.1 Z" id="Shape"></path>
                    <path d="M30,0.8 L15.7,6.2 C15.2,6.4 14.7,6.5 14.1,6.5 L14.1,23.1 C14.7,23.2 15.2,23.3 15.8,23.5 L29.4,29.1 C29.8,29.3 30.3,29.4 30.7,29.5 L30.7,0.6 C30.5,0.6 30.2,0.7 30,0.8 Z" id="Shape"></path>
                </g>
                <path d="M64,29.7 L49.6,23.6 C48.7,23.2 47.7,23.1 46.7,23.1 L35,23 C35.5,24.2 36.4,26 36.4,26 L47.4,26 C48.2,26 49,26.2 49.8,26.5 L63.4,32.1 C64.1,32.4 64.8,32.5 65.6,32.5 L80.5,32.5 C80.9,31.7 81.3,30.8 81.6,30 L65.4,30 C65,30 64.5,29.9 64,29.7 Z" id="Shape" fill="#686767" fill-rule="nonzero"></path>
                <g id="Group" transform="translate(33.000000, 3.000000)">
                    <path d="M3.9,23 C4.2,23.6 4.5,24.2 4.9,24.8 L15.2,24.8 L15.2,23.1 C14.9,23.1 14.6,23 14.4,23 L3.9,23 Z" id="Shape"></path>
                    <path d="M3.7,6.4 L3.3,6.4 C-2.2,13.9 3.3,23 3.3,23 L3.9,23 C0.1,15.6 2.2,9.4 3.7,6.4 Z" id="Shape" fill="#565656" fill-rule="nonzero"></path>
                    <path d="M47.2,27.8 C47,28.2 46.6,28.4 46.2,28.4 L31.9,28.4 C31.5,28.4 31.1,28.3 30.7,28.2 L15.9,21.9 C15.6,21.8 15.3,22 15.3,22.3 L15.3,23.1 C15.8,23.2 16.4,23.3 16.9,23.5 L30.5,29.1 C31.2,29.4 31.9,29.5 32.7,29.5 L47.6,29.5 C55.1,14.4 47.6,0.4 47.6,0.4 L46.8,0.4 C52.5,14.4 48.4,25.1 47.2,27.8 Z" id="Shape" fill="#565656" fill-rule="nonzero"></path>
                </g>
                <path d="M268.1,33.2 L283,33.2 C283.7,33.2 284.5,33.1 285.2,32.8 L298.8,27.2 C299.6,26.9 300.4,26.7 301.2,26.7 L312.2,26.7 C312.2,26.7 317.7,17.7 312.2,10.1 L300.5,10.1 C299.9,10.1 299.4,10 298.8,9.8 L284.5,4.4 C283.8,4.2 283.2,4 282.5,4 L268,4 C268.1,4.1 260.6,18.2 268.1,33.2 Z" id="Shape" fill="#F4F4F2" fill-rule="nonzero"></path>
                <polygon id="Shape" fill="#FFFFFD" fill-rule="nonzero" points="266.8 7.2 265.9 10.2 284 10.1 284 7.2"></polygon>
                <polygon id="Shape" fill="#FFFFFD" fill-rule="nonzero" points="265.9 27 266.7 30 284 30 284 27"></polygon>
                <rect id="Rectangle-path" fill="#FFFFFD" fill-rule="nonzero" transform="translate(307.116532, 18.966286) rotate(-90.673220) translate(-307.116532, -18.966286) " x="306.216559" y="12.3664906" width="1.79994425" height="13.1995912"></rect>
                <g id="Group" transform="translate(284.000000, 4.000000)" fill-rule="nonzero" fill="#D6D6D2">
                    <path d="M0.7,0.5 C0.5,0.4 0.2,0.3 0,0.3 L16.6,6.2 C16.1,6.2 15.5,6.1 15,5.9 L0.7,0.5 Z" id="Shape"></path>
                    <path d="M16.8,22.5 L16.5,22.8 L16.5,22.8 L16.8,22.5 Z" id="Shape"></path>
                    <path d="M17.3,22.7 L28.3,22.7 C28.3,22.7 30.1,19.7 30.6,15.8 L28.3,22.7 L16.5,22.7 L16.5,22.7 L17.3,22.7 Z" id="Shape"></path>
                    <path d="M16.5,22.8 C16.3,22.8 16.7,21 16.4,21.1 L16.5,15.9 L30.6,15.9 C30.1,19.8 28.3,22.8 28.3,22.8 L16.5,22.8 Z" id="Shape"></path>
                    <path d="M0.7,0.5 L15,5.9 C15.5,6.1 16,6.2 16.6,6.2 L16.6,22.8 C16,22.9 15.5,23 14.9,23.2 L1.3,28.8 C0.9,29 0.4,29.1 0,29.2 L0,0.3 C0.2,0.3 0.4,0.4 0.7,0.5 Z" id="Shape"></path>
                </g>
                <path d="M284.7,30.4 L299.1,24.3 C300,23.9 301,23.8 302,23.8 L313.7,23.7 C313.2,24.9 312.3,26.7 312.3,26.7 L301.3,26.7 C300.5,26.7 299.7,26.9 298.9,27.2 L285.3,32.8 C284.6,33.1 283.9,33.2 283.1,33.2 L268.2,33.2 C267.8,32.4 267.4,31.5 267.1,30.7 L283.3,30.7 C283.7,30.7 284.2,30.6 284.7,30.4 Z" id="Shape" fill="#BCBCBB" fill-rule="nonzero"></path>
                <g id="Group" transform="translate(265.000000, 4.000000)">
                    <path d="M46.8,22.7 C46.5,23.3 46.2,23.9 45.8,24.5 L35.5,24.5 L35.5,22.8 C35.8,22.8 36.1,22.7 36.3,22.7 L46.8,22.7 Z" id="Shape"></path>
                    <path d="M3.5,27.5 C3.7,27.9 4.1,28.1 4.5,28.1 L18.8,28.1 C19.2,28.1 19.6,28 20,27.9 L34.8,21.6 C35.1,21.5 35.4,21.7 35.4,22 L35.4,22.8 C34.9,22.9 34.3,23 33.8,23.2 L20.2,28.8 C19.5,29.1 18.8,29.2 18,29.2 L3.1,29.2 C-3.5,13.3 3.1,0.1 3.1,0.1 L3.9,0.1 C-1.8,14.1 2.3,24.9 3.5,27.5 Z" id="Shape" fill="#B2B2B2" fill-rule="nonzero"></path>
                </g>
                <polygon id="Shape" fill="#AD121D" fill-rule="nonzero" points="312.4 11.6 312.4 26.3 331.9 26.3 331.5 25.4 326.1 25.4 319.1 12.6 325.3 12.6 324.8 11.6"></polygon>
                <path d="M80.1,35.6 L80,35.8 L269.9,35.8 L267,29 C266.6,28 266.2,26.9 265.9,25.8 L82.8,26.7 C82.2,29.7 81.3,32.7 80.1,35.6 Z" id="Shape" fill="#FFFFFF" fill-rule="nonzero"></path>
                <path d="M79.2,35.6 L79.1,35.8 L269.9,35.8 L267.4,30 L81.7,30.1 C81.1,31.9 79.9,33.8 79.2,35.6 Z" id="Shape" fill="#D8D8D8" fill-rule="nonzero"></path>
                <g id="Group" transform="translate(80.000000, 3.000000)">
                    <path d="M185.9,7.1 L195,7.1 L195,0.4 L188.5,0.4 L187,4 C186.5,5 186.2,6.1 185.9,7.1 Z" id="Shape"></path>
                    <path d="M2.9,7.1 L185.9,7.1 C186.2,6 186.6,5 187,3.9 L188.5,0.3 L0.5,0.3 C1.3,2.6 2.5,4.9 2.9,7.1 Z" id="Shape" fill="#FFFFFF" fill-rule="nonzero"></path>
                </g>
                <path d="M80.9,35.6 C80.9,35.6 90.8,18.1 80.3,0 L7.5,4.2 L3.9,4.9 C1.6,5.3 0,7.3 0,9.5 L0,24.8 C0,27.4 1.8,29.6 4.4,30.2 L6.5,30.7 L80.9,35.6 Z" id="Shape" fill="#F4F4F2" fill-rule="nonzero"></path>
                <path d="M24.9,24.5 L0,22.8 L0,24.9 C0,27.4 1.7,29.6 4.2,30.2 L6.5,30.7 L80.8,35.6 C80.8,35.6 82.6,32.8 83.7,27.5 L27,24.8 C26.4,24.7 25.6,24.6 24.9,24.5 Z" id="Shape" fill="#FFFFFF" fill-rule="nonzero"></path>
                <path d="M20.8,26.5 L0,25.6 L0,25.6 C0,27.7 1.5,29.5 3.5,30 L6.5,30.7 L80.8,35.6 C80.8,35.6 82.1,33.5 83.2,29.7 L22.9,26.8 C22.2,26.7 21.5,26.6 20.8,26.5 Z" id="Shape" fill="#D8D8D8" fill-rule="nonzero"></path>
                <g id="Group">
                    <path d="M82.5,3.9 L81.6,0.8 C81.9,1.9 82.3,2.9 82.5,3.9 Z" id="Shape"></path>
                    <path d="M9.8,5.4 C9.4,5.4 9,5.5 8.6,5.6 L2.3,6.9 C1,7.2 0,8.3 0,9.7 L0,9.7 L8.8,8.3 C9,8.3 9.3,8.2 9.5,8.2 L82,4 C81.7,3 81.1,2 80.8,0.9 L9.8,5.4 Z" id="Shape" fill="#FFFFFF" fill-rule="nonzero"></path>
                </g>
                <path d="M5.8,23.4 L5.8,10.3 C5.8,9.3 6.1,8.2 6.6,7.3 L8.5,4 L7.6,4.1 L4.1,4.8 C1.7,5.3 0,7.3 0,9.7 L0,25.5 C0,27.6 1.5,29.5 3.6,30 L6.5,30.7 L8.1,30.8 L6.8,28 C6.2,26.6 5.8,25 5.8,23.4 Z" id="Shape" fill="#23DAE8" fill-rule="nonzero"></path>
                <path d="M3.2,5.1 C2.5,6.2 1.7,7.8 1.4,9 C1.3,9.4 1.3,9.8 1.3,10.1 L1.3,22.9 C1.3,25 2.7,27 4.7,27.6 C4.9,27.7 5.1,27.7 5.3,27.7 C5.3,27.7 4.1,24.3 4.3,22.8 L4.3,10.7 C4.3,10 4.4,9.4 4.7,8.7 L6.3,4.4 L4.2,4.8 C3.8,4.9 3.5,5 3.2,5.1 Z" id="Shape" fill="#71F5FF" fill-rule="nonzero"></path>
                <path d="M269,35.7 C269,35.7 259.1,18.2 269.6,0.1 L342.4,4.3 L346,5 C348.3,5.4 349.9,7.4 349.9,9.6 L349.9,24.9 C349.9,27.5 348.1,29.7 345.5,30.3 L343.4,30.8 L269,35.7 Z" id="Shape" fill="#F4F4F2" fill-rule="nonzero"></path>
                <path d="M324.9,24.6 L349.8,22.9 L349.8,25.3 C349.8,27.7 348.2,29.7 345.9,30.2 L343.3,30.8 L269,35.7 C269,35.7 267.2,32.9 266.1,27.6 L322.8,24.9 C323.5,24.9 324.2,24.8 324.9,24.6 Z" id="Shape" fill="#FFFFFF" fill-rule="nonzero"></path>
                <path d="M329.1,26.6 L349.9,25.7 L349.9,25.7 C349.9,27.8 348.4,29.6 346.4,30.1 L343.4,30.8 L269.1,35.7 C269.1,35.7 267.8,33.6 266.7,29.8 L327,26.9 C327.6,26.8 328.4,26.7 329.1,26.6 Z" id="Shape" fill="#D8D8D8" fill-rule="nonzero"></path>
                <g id="Group" transform="translate(267.000000, 1.000000)">
                    <path d="M0.3,3.1 L1.2,0 C0.9,1 0.6,2.1 0.3,3.1 Z" id="Shape"></path>
                    <path d="M73.1,4.5 C73.5,4.5 73.9,4.6 74.3,4.7 L80.6,6 C81.9,6.3 82.9,7.4 82.9,8.8 L82.9,8.8 L74.1,7.4 C73.9,7.4 73.6,7.3 73.4,7.3 L0.9,3.1 C1.2,2.1 1.8,1.1 2.1,0.1 L73.1,4.5 Z" id="Shape" fill="#FFFFFF" fill-rule="nonzero"></path>
                </g>
                <path d="M344.1,23.5 L344.1,10.4 C344.1,9.4 343.8,8.3 343.3,7.4 L341.4,4.1 L342.3,4.2 L345.8,4.9 C348.2,5.4 349.9,7.4 349.9,9.8 L349.9,25.6 C349.9,27.7 348.4,29.6 346.3,30.1 L343.4,30.8 L341.8,30.9 L343.1,28.1 C343.7,26.7 344.1,25.1 344.1,23.5 Z" id="Shape" fill="#23DAE8" fill-rule="nonzero"></path>
                <path d="M346.7,5.2 C347.4,6.3 348.2,7.9 348.5,9.1 C348.6,9.5 348.6,9.9 348.6,10.2 L348.6,23 C348.6,25.1 347.2,27.1 345.2,27.7 C345,27.8 344.8,27.8 344.6,27.8 C344.6,27.8 345.8,24.4 345.6,22.9 L345.6,10.8 C345.6,10.1 345.5,9.5 345.2,8.8 L343.6,4.5 L345.7,4.9 C346.1,5 346.4,5.1 346.7,5.2 Z" id="Shape" fill="#71F6FF" fill-rule="nonzero"></path>
            </g>
            <g id="pencil_1_" filter="url(#filter-3)" transform="translate(10.000000, 255.000000) rotate(90.000000) translate(-10.000000, -255.000000) translate(-214.000000, 245.000000)" fill-rule="nonzero">
                <rect id="Rectangle-path" fill="#F1E762" x="41.2" y="0.4" width="378.6" height="19.4"></rect>
                <polygon id="Shape" fill="#D2C84A" points="46.4 6.7 41.2 6.7 41.2 0.4 419.8 0.4 419.8 6.7"></polygon>
                <rect id="Rectangle-path" fill="#D2C84A" x="41.2" y="13.4" width="378.6" height="6.3"></rect>
                <path d="M41.2,0.4 L3.2,9.8 C2.6,9.9 2.2,10.6 2.2,11.3 L2.2,11.3 C2.2,11.8 2.5,12.3 2.9,12.4 L41.2,19.7 L44.5,14.3 C44.6,14.1 44.6,13.8 44.4,13.6 L41.4,10.4 C41.3,10.2 41.2,10 41.4,9.8 L44.4,5.6 C44.6,5.3 44.6,4.9 44.4,4.6 L41.2,0.4 Z" id="Shape" fill="#BC9679"></path>
                <path d="M41.5,1.1 L2.5,10.8 C2.3,10.8 2.2,11 2.2,11.2 L2.2,11.2 C2.2,11.4 2.3,10.7 2.5,10.8 L41.3,17.8 C41.4,17.8 42.3,18 41.7,18.9 L44.5,14.4 C44.6,14.2 44.6,13.9 44.4,13.7 L41.7,10.7 C41.4,10.4 41.4,9.8 41.6,9.5 L44.4,5.5 C44.6,5.2 44.6,4.8 44.4,4.5 L41.8,1.2 C41.7,1.1 41.6,1.1 41.5,1.1 Z" id="Shape" fill="#D3AF90"></path>
                <path d="M8.4,8.5 L0.9,10 C0.6,10.1 0.3,10.4 0.3,10.7 L0.3,11.6 C0.3,12 0.6,12.3 0.9,12.4 L7.7,13.5 C8,13.6 8.3,13.4 8.5,13.1 C9.3,11.3 9.4,10 9.2,9.1 C9.2,8.6 8.8,8.4 8.4,8.5 Z" id="Shape" fill="#3D3A39"></path>
                <polygon id="Shape" fill="#FCF3EB" points="418.9 19.7 419.8 13.4 419.8 6.7 418.9 0.4 423.5 0.4 424.7 6.7 424.7 13.4 423.7 19.7"></polygon>
                <polygon id="Shape" fill="#F7E9DF" points="424.7 6.7 423.5 0.4 418.9 0.4 419.8 6.7 419.8 6.7"></polygon>
                <polygon id="Shape" fill="#EFDCD0" points="423.7 19.7 424.7 13.4 419.8 13.4 418.9 19.7"></polygon>
                <polygon id="Shape" fill="#8D5844" points="425 19.6 424.5 13.4 424.5 6.7 423.5 0.4 440 0.4 444.9 6.7 444.9 13.4 443.2 19.9"></polygon>
                <polygon id="Shape" fill="#7F4738" points="444.9 6.7 443.3 0.4 423.5 0.4 424.5 6.7 424.5 6.7"></polygon>
                <polygon id="Shape" fill="#5F2925" points="443.2 19.9 444.9 13.4 424.5 13.4 423.7 19.7"></polygon>
                <path d="M443.1,0.4 L443.1,20 C443.1,20 445.5,19.8 447,15.2 C448,12 448,8.5 447,5.3 C446.3,3.2 445.2,1 443.1,0.4 Z" id="Shape" fill="#ECC7AE"></path>
            </g>
            <g id="Group-19" transform="translate(120.000000, 0.000000)">
                <g id="moleskine_2_" filter="url(#filter-4)" fill-rule="nonzero">
                    <path d="M329.1,503 L14,503.2 C6.6,503.2 0.5,496.7 0.5,488.8 L0.2,15.4 C0.2,9.6 4.6,4.9 10,4.9 L330.5,4.7 C348.8,4.7 363.6,20.5 363.6,40.1 L363.9,465.6 C364,486.3 348.4,503 329.1,503 Z" id="Shape" fill="#3A3B3D"></path>
                    <rect id="Rectangle-path" fill="#2B2B2B" x="0" y="401" width="364" height="4"></rect>
                    <rect id="Rectangle-path" fill="#2B2C2D" x="24.3" y="4.9" width="15" height="498.3"></rect>
                    <rect id="Rectangle-path" fill="#2B2C2D" x="270.1" y="4.8" width="25" height="498.3"></rect>
                    <rect id="Rectangle-path" fill="#F73375" x="0" y="243" width="364" height="158"></rect>
                    <polygon id="Shape" fill="#F6A0BD" points="364 248 0 243 364 243"></polygon>
                    <path d="M300,509.9 L280.5,509.9 C278.8,509.9 277.5,508.5 277.5,506.9 L277.2,2.9 C277.2,1.4 278.4,0.1 280,0.1 L298,0.1 C300.3,0.1 302.2,2 302.2,4.3 L302.5,507.5 C302.5,508.8 301.4,509.9 300,509.9 Z" id="Shape" fill="#57595B"></path>
                    <polygon id="Shape" fill="#191A1C" points="285.700002 0.501471159 287.200002 510.301471 288.199998 510.298529 286.699998 0.498528841"></polygon>
                    <polygon id="Shape" fill="#191A1C" points="291.700007 0.102549986 294.300007 509.90255 295.299993 509.89745 292.699993 0.0974500135"></polygon>
                    <polygon id="Shape" fill="#191A1C" points="280.300004 0.401960769 282.300004 510.401961 283.299996 510.398039 281.299996 0.398039231"></polygon>
                    <polygon id="Shape" fill="#191A1C" points="297.600003 0.901866392 299.500003 509.901866 300.499997 509.898134 298.599997 0.898133608"></polygon>
                    <rect id="Rectangle-path" fill="#C92B61" x="269.8" y="242.8" width="7" height="158"></rect>
                    <g id="Group-5" transform="translate(18.000000, 292.000000)">
                        <g id="Group-4">
                            <path d="M0,2.6 L0,54.7 C0,55.4 0.6,56 1.3,56 L68.8,56 C69.5,56 70.1,55.4 70.1,54.7 L70.1,2.6 C70.1,1.7 69.4,1 68.5,1.1 L35,4 L1.6,1.1 C0.7,1.1 0,1.7 0,2.6 Z" id="Shape" fill="#3A3B3D"></path>
                            <path d="M2.8,1.6 L2.8,52.8 C2.8,53.5 3.3,54 4,54 L66.2,54 C66.8,54 67.4,53.5 67.4,52.8 L67.4,1.6 C67.4,0.7 66.7,0.1 65.9,0.1 L35.1,2.9 L4.3,0.1 C3.4,0.1 2.8,0.7 2.8,1.6 Z" id="Shape" fill="#D4D5D6"></path>
                        </g>
                        <polygon id="Shape" fill="#A7A7A8" points="33.8 53.8 34.8 53.8 34.8 2.9 33.8 2.8"></polygon>
                        <path d="M32.7,2.7 C32.7,2.7 29.6,13.7 35.8,21 C37,22.4 37.8,24 38.8,25.6 C41.4,30 43.1,40.1 37.5,45.1 C37.5,45.1 30.3,50.5 32.1,59 L32.1,59 C32.1,59 35.1,48.8 37.9,46 C37.9,46 45.5,36.4 40.9,25.9 C40,23.9 38.4,22.3 37.1,20.5 C35.7,18.6 32.9,14.2 34.1,2.9 L32.7,2.7 Z" id="Shape" fill="#818182"></path>
                    </g>
                </g>
                <g id="Group-6-Copy" transform="translate(59.000000, 23.000000)" fill="#4A4A4A">
                    <path d="M41.4234317,15.6614173 L41.4234317,15.6634741 C47.8909046,15.6634741 53.1343027,20.9051394 53.138374,27.3382054 C53.1344375,33.6871415 48.1307901,38.8765995 41.8770221,38.9978317 L17.6107011,39 L13.4760148,31.3228346 L41.6531365,31.3228346 C43.7503561,31.3228346 45.4815498,29.5523266 45.4815498,27.3307087 C45.4815498,25.1090908 43.7503561,23.3385827 41.6531365,23.3385827 L28.7896679,23.3385827 L24.8081181,15.6614173 L41.4234317,15.6614173 Z M45.3093069,12.858179 C45.4211716,12.4833454 45.4815498,12.084185 45.4815498,11.6692913 C45.4815498,9.44767343 43.7503561,7.67716536 41.6531365,7.67716535 L25.9961081,7.67716535 L9.49446494,38.9016363 L0,38.9016363 L20.2140221,0 L41.8770221,0 C48.1332518,0.123448267 53.1383764,5.31694461 53.1383764,11.6692913 C53.1383764,13.5000719 52.722639,15.2345956 51.9810318,16.7791803 C50.175583,14.9663934 47.9052151,13.5687388 45.3093069,12.858179 Z" id="Combined-Shape"></path>
                    <polygon id="Combined-Shape-Copy-14" points="63.0924041 19.5 73.3525517 0 63.8577804 0 53.597786 19.5 63.0924041 19.5"></polygon>
                    <polygon id="Combined-Shape-Copy-15" transform="translate(72.969634, 29.250000) scale(-1, 1) translate(-72.969634, -29.250000) " points="72.586869 39 82.8470166 19.5 73.3522454 19.5 63.0922509 39 72.586869 39"></polygon>
                </g>
            </g>
        </g>
    </g>
</svg>