<!-- Generator: Adobe Illustrator 18.1.0, SVG Export Plug-In  -->
<svg version="1.1"
	 xmlns="http://www.w3.org/2000/svg" xmlns:xlink="http://www.w3.org/1999/xlink" xmlns:a="http://ns.adobe.com/AdobeSVGViewerExtensions/3.0/"
	 x="0px" y="0px" width="135.653px" height="135.652px" viewBox="0 0 135.653 135.652" enable-background="new 0 0 135.653 135.652"
	 xml:space="preserve">
<defs>
</defs>
<g>
	<circle fill="#08BBD0" cx="67.826" cy="67.826" r="67.826"/>
	<g>
		<g>
			<path fill="#FFFFFF" d="M67.828,113.135c-15.953,0-28.925-12.972-28.925-28.924c0-14.591,23.318-55.501,25.971-60.125
				c1.22-2.091,4.673-2.091,5.901,0c2.66,4.625,25.973,45.534,25.973,60.125C96.752,100.163,83.784,113.135,67.828,113.135z
				 M67.828,32.726C59.714,47.395,45.702,74.7,45.702,84.211c0,12.193,9.924,22.12,22.126,22.12c12.2,0,22.124-9.924,22.124-22.12
				C89.952,74.693,75.942,47.395,67.828,32.726z"/>
			<path fill="#FFFFFF" d="M67.828,99.524c-1.883,0-3.404-1.522-3.404-3.407c0-1.882,1.524-3.4,3.404-3.4
				c4.689,0,8.502-3.799,8.502-8.477c0-1.882,1.522-3.404,3.403-3.404c1.889,0,3.411,1.522,3.411,3.404
				C83.144,92.67,76.273,99.524,67.828,99.524z"/>
		</g>
	</g>
</g>
</svg>