<!-- Generator: Adobe Illustrator 18.1.0, SVG Export Plug-In  -->
<svg version="1.1"
	 xmlns="http://www.w3.org/2000/svg" xmlns:xlink="http://www.w3.org/1999/xlink" xmlns:a="http://ns.adobe.com/AdobeSVGViewerExtensions/3.0/"
	 x="0px" y="0px" width="135.653px" height="135.652px" viewBox="0 0 135.653 135.652" enable-background="new 0 0 135.653 135.652"
	 xml:space="preserve">
<defs>
</defs>
<g>
	<circle fill="#08BBD0" cx="67.826" cy="67.826" r="67.826"/>
	<g>
		<path fill="#FFFFFF" d="M77.082,43.104c4.137,2.594,7.037,6.982,7.565,12.077c1.687,0.788,3.559,1.242,5.544,1.242
			c7.247,0,13.121-5.874,13.121-13.12c0-7.247-5.874-13.121-13.121-13.121C83.014,30.185,77.191,35.953,77.082,43.104z
			 M68.486,69.969c7.247,0,13.121-5.875,13.121-13.121s-5.875-13.12-13.121-13.12s-13.123,5.875-13.123,13.121
			S61.24,69.969,68.486,69.969z M74.052,70.863H62.918c-9.263,0-16.8,7.537-16.8,16.801v13.615l0.035,0.213l0.938,0.294
			c8.84,2.762,16.521,3.683,22.842,3.683c12.347,0,19.504-3.52,19.945-3.745l0.876-0.443h0.094V87.664
			C90.851,78.401,83.315,70.863,74.052,70.863z M95.76,57.318H84.712c-0.119,4.42-2.006,8.4-4.991,11.263
			C87.955,71.03,93.98,78.665,93.98,87.684v4.196c10.908-0.4,17.194-3.491,17.608-3.699l0.876-0.444h0.094v-13.62
			C112.558,64.854,105.022,57.318,95.76,57.318z M45.463,56.425c2.567,0,4.955-0.749,6.978-2.025
			c0.643-4.195,2.892-7.86,6.104-10.356c0.013-0.246,0.037-0.489,0.037-0.737c0-7.247-5.875-13.121-13.119-13.121
			c-7.248,0-13.121,5.874-13.121,13.121C32.342,50.55,38.215,56.425,45.463,56.425z M57.247,68.581
			c-2.97-2.848-4.85-6.807-4.987-11.201c-0.41-0.03-0.815-0.063-1.233-0.063H39.894c-9.263,0-16.8,7.536-16.8,16.799v13.618
			l0.035,0.21l0.938,0.296c7.092,2.214,13.421,3.234,18.919,3.556v-4.112C42.988,78.665,49.01,71.032,57.247,68.581z"/>
	</g>
</g>
</svg>