<!-- Generator: Adobe Illustrator 18.1.0, SVG Export Plug-In  -->
<svg version="1.1"
	 xmlns="http://www.w3.org/2000/svg" xmlns:xlink="http://www.w3.org/1999/xlink" xmlns:a="http://ns.adobe.com/AdobeSVGViewerExtensions/3.0/"
	 x="0px" y="0px" width="135.653px" height="135.652px" viewBox="0 0 135.653 135.652" enable-background="new 0 0 135.653 135.652"
	 xml:space="preserve">
<defs>
</defs>
<g>
	<circle fill="#08BBD0" cx="67.826" cy="67.826" r="67.826"/>
	<path fill="#FFFFFF" d="M68.719,25.984c6.643,0,12.027,5.384,12.027,12.027c0,6.643-5.384,12.027-12.027,12.027
		s-12.027-5.384-12.027-12.027C56.692,31.368,62.076,25.984,68.719,25.984 M49.437,86.937h15.35H77.55h15.346
		c8.251,0,14.961-6.711,14.961-14.962c0-8.25-6.711-14.959-14.961-14.959h-4.051V42.572c0-2.268-1.509-4.162-3.571-4.79
		c0-0.083,0.012-0.16,0.012-0.242c0-9.136-7.431-16.569-16.568-16.569s-16.568,7.432-16.568,16.568H32.824
		c-2.779,0-5.028,2.252-5.028,5.033v26.152c0,2.782,2.249,5.033,5.028,5.033h50.99c2.779,0,5.032-2.251,5.032-5.033v-4.667h4.051
		c4.365,0,7.917,3.551,7.917,7.918c0,4.368-3.551,7.919-7.917,7.919H77.548H64.786h-15.35c-8.25,0-14.961,6.712-14.961,14.962
		c0,8.252,6.713,14.962,14.961,14.962h24.645c1.402,2.877,4.347,4.862,7.763,4.862h5.911c4.772,0,8.64-3.865,8.64-8.634
		c0-4.773-3.871-8.639-8.64-8.639h-5.911c-3.613,0-6.705,2.22-7.992,5.366H49.437c-4.364,0-7.917-3.551-7.917-7.917
		C41.52,90.488,45.072,86.937,49.437,86.937"/>
</g>
</svg>