<!-- Generator: Adobe Illustrator 18.1.0, SVG Export Plug-In  -->
<svg version="1.1"
	 xmlns="http://www.w3.org/2000/svg" xmlns:xlink="http://www.w3.org/1999/xlink" xmlns:a="http://ns.adobe.com/AdobeSVGViewerExtensions/3.0/"
	 x="0px" y="0px" width="135.653px" height="135.652px" viewBox="0 0 135.653 135.652" enable-background="new 0 0 135.653 135.652"
	 xml:space="preserve">
<defs>
</defs>
<g>
	<circle fill="#08BBD0" cx="67.826" cy="67.826" r="67.826"/>
	<g>
		<circle fill="#FFFFFF" cx="72.477" cy="31.61" r="8.639"/>
		<path fill="#FFFFFF" d="M92.634,68.5c-1.675-0.766-12.815-6.293-12.815-6.293s-3.958-8.42-5.991-13.027
			c-1.917-4.346-3.304-5.474-6.048-5.474c-1.012,0-3.118,0-4.213,0c-2.213,0-3.022,0.809-4.376,1.566l-11.395,9.7
			c-1.008,0.584-1.645,1.436-2.037,2.651L43.317,74.05c-0.348,2.617,1.028,3.725,2.591,4.051c1.271,0.262,3.185-0.378,3.563-2.216
			c0.312-1.513,2.617-14.952,2.617-14.952l7.444-5.713c-1.224,5.696-2.471,11.946-2.886,14.056
			c-0.707,3.633,1.105,6.393,2.528,8.539c1.304,1.971,18.136,28.507,20.359,31.396c2.223,2.886,4.243,4.316,7.341,2.591
			c2.591-1.443,2.16-4.754,0.72-7.199c-1.44-2.445-18.425-30.092-18.425-30.092l2.856-12.308c0,0,1.971,2.807,2.989,4.392
			c0.488,0.756,0.992,1.045,2.326,1.785c1.562,0.863,9.176,4.319,11.492,5.351c2.047,0.916,4.595,1.267,5.62-0.544
			C95.48,71.379,94.166,69.207,92.634,68.5z"/>
		<path fill="#FFFFFF" d="M55.054,79.666l-3.457,12.132c0,0-7.179,10.39-9.176,13.299c-1.496,2.186-2.627,4.85-0.06,6.791
			c2.88,2.18,5.182-0.654,6.675-2.335c1.367-1.546,6.927-9.315,8.499-11.296c1.045-1.324,1.629-2.438,2.073-3.546
			c0.295-0.743,1.426-3.825,2.15-5.805L55.054,79.666z"/>
	</g>
</g>
</svg>