<?xml version="1.0" encoding="UTF-8"?>
<svg width="1600px" height="750px" viewBox="0 0 1600 750" version="1.1" xmlns="http://www.w3.org/2000/svg" xmlns:xlink="http://www.w3.org/1999/xlink">
    <!-- Generator: Sketch 43.1 (39012) - http://www.bohemiancoding.com/sketch -->
    <title>Group 95</title>
    <desc>Created with Sketch.</desc>
    <defs>
        <rect id="path-1" x="0" y="0" width="1600" height="750"></rect>
        <path d="M1105.60166,219.397361 C1103.94808,222.215078 1103,225.496821 1103,229 C1103,239.49341 1111.50659,248 1122,248 C1132.49341,248 1141,239.49341 1141,229 C1141,221.288997 1136.4065,214.650864 1129.8066,211.672711 C1130.57627,209.765959 1131,207.682463 1131,205.5 C1131,196.387302 1123.6127,189 1114.5,189 C1105.3873,189 1098,196.387302 1098,205.5 C1098,211.335694 1101.02954,216.463801 1105.60166,219.397361 Z" id="path-3"></path>
        <path d="M48.8650538,74.2555088 C50.0427713,75.4191679 51.9518011,75.4176818 53.1255354,74.2556108 L101.900041,25.9657759 C103.075322,24.8021731 103.401924,22.6774004 102.518678,21.2787851 C102.518678,21.2787851 93.7096506,0.327406371 50.7745232,0.955078125 C7.8393957,1.58274988 0.450423045,22.4018387 0.450423045,22.4018387 C-0.312195468,23.8668318 0.0264523842,25.9998935 1.20202632,27.1614346 L48.8650538,74.2555088 Z" id="path-4"></path>
        <path d="M1151.4751,156.485559 C1158.10951,154.730331 1163,148.686283 1163,141.5 C1163,139.555574 1162.64196,137.694772 1161.98822,135.979924 C1168.98553,133.512234 1174,126.841713 1174,119 C1174,109.058875 1165.94113,101 1156,101 C1153.46163,101 1151.04597,101.52543 1148.85587,102.473461 C1148.95105,101.662211 1149,100.836821 1149,100 C1149,88.4020203 1139.59798,79 1128,79 C1116.40202,79 1107,88.4020203 1107,100 C1107,109.996953 1113.98541,118.362376 1123.34141,120.48146 C1122.48428,122.13357 1122,124.01023 1122,126 C1122,132.092154 1126.5398,137.123982 1132.42094,137.897034 C1132.14571,139.053203 1132,140.259586 1132,141.5 C1132,142.888342 1132.18253,144.234052 1132.5249,145.51444 C1125.8905,147.269667 1121,153.313715 1121,160.5 C1121,169.060414 1127.93959,176 1136.5,176 C1145.06041,176 1152,169.060414 1152,160.5 C1152,159.111658 1151.81747,157.765948 1151.4751,156.48556 Z" id="path-6"></path>
        <circle id="path-7" cx="1096" cy="167" r="12"></circle>
        <path d="M1094.70738,45.0688078 C1088.68786,45.7135029 1084,50.8092976 1084,57 C1084,63.627417 1089.37258,69 1096,69 C1102.62742,69 1108,63.627417 1108,57 C1108,55.5717103 1107.75047,54.2017021 1107.29262,52.9311922 C1113.31214,52.2864971 1118,47.1907024 1118,41 C1118,34.372583 1112.62742,29 1106,29 C1099.37258,29 1094,34.372583 1094,41 C1094,42.4282897 1094.24953,43.7982979 1094.70738,45.0688078 Z" id="path-8"></path>
        <rect id="path-9" x="269" y="59" width="68" height="20" rx="10"></rect>
        <rect id="path-10" x="352" y="25" width="66" height="20" rx="10"></rect>
        <rect id="path-11" x="226" y="25" width="66" height="20" rx="10"></rect>
    </defs>
    <g id="Page-1" stroke="none" stroke-width="1" fill="none" fill-rule="evenodd">
        <g id="Group-95">
            <mask id="mask-2" fill="white">
                <use xlink:href="#path-1"></use>
            </mask>
            <use id="Mask" fill="#FFFFFF" xlink:href="#path-1"></use>
            <g opacity="0.399682971" mask="url(#mask-2)">
                <g transform="translate(-89.000000, 297.000000)">
                    <g id="Combined-Shape" stroke="none" fill="none">
                        <use fill="#F1F1F1" fill-rule="evenodd" xlink:href="#path-3"></use>
                        <path stroke="#979797" stroke-width="2" d="M1106.46412,219.903494 L1106.95052,219.07467 L1106.14168,218.555709 C1101.72544,215.722161 1099,210.844756 1099,205.5 C1099,196.939586 1105.93959,190 1114.5,190 C1123.06041,190 1130,196.939586 1130,205.5 C1130,207.513722 1129.61634,209.472476 1128.8793,211.2984 L1128.51975,212.189126 L1129.3953,212.584208 C1135.79707,215.472959 1140,221.853254 1140,229 C1140,238.941125 1131.94113,247 1122,247 C1112.05887,247 1104,238.941125 1104,229 C1104,225.755725 1104.85859,222.639331 1106.46412,219.903494 Z"></path>
                    </g>
                    <g id="pizzeria" stroke="none" stroke-width="1" fill="none" fill-rule="evenodd" transform="translate(228.000000, 220.000000)">
                        <rect id="Rectangle-path" stroke="#979797" stroke-width="2" fill="#FFFFFF" x="12.2365" y="71.3905" width="211.5225" height="129.241"></rect>
                        <rect id="Rectangle-path" stroke="#979797" stroke-width="2" fill="#FFFFFF" x="12.2365" y="147.1225" width="72.237" height="8.1925"></rect>
                        <rect id="Rectangle-path" stroke="#979797" stroke-width="2" fill="#FFFFFF" x="151.5255" y="147.1225" width="72.237" height="8.1925"></rect>
                        <rect id="Rectangle-path" fill="#000000" opacity="0.2" x="12.2365" y="188.2435" width="11.8325" height="11.389"></rect>
                        <rect id="Rectangle-path" fill="#000000" opacity="0.2" x="12.2365" y="124.6745" width="23.6655" height="11.3885"></rect>
                        <rect id="Rectangle-path" fill="#000000" opacity="0.2" x="164.153" y="131.092" width="23.6655" height="11.3885"></rect>
                        <rect id="Rectangle-path" fill="#000000" opacity="0.2" x="145.922" y="177.7135" width="23.6655" height="11.389"></rect>
                        <rect id="Rectangle-path" fill="#000000" opacity="0.2" x="183.4495" y="70.3905" width="23.6655" height="11.3885"></rect>
                        <rect id="Rectangle-path" fill="#000000" opacity="0.2" x="200.097" y="160.629" width="23.6655" height="11.389"></rect>
                        <rect id="Rectangle-path" fill="#000000" opacity="0.2" x="57.283" y="86.5845" width="23.6655" height="11.3885"></rect>
                        <rect id="Rectangle-path" fill="#000000" opacity="0.2" x="25.605" y="65.786" width="23.6655" height="11.389"></rect>
                        <rect id="Rectangle-path" fill="#000000" opacity="0.2" x="44.945" y="163.595" width="23.6655" height="11.3885"></rect>
                        <rect id="Rectangle-path" fill="#F1F1F1" x="84.4715" y="128.9565" width="67.054" height="70.675"></rect>
                        <rect id="Rectangle-path" fill="#CCCCCC" x="113.8995" y="128.9565" width="8.1925" height="70.675"></rect>
                        <path d="M223.7585,71.4815 L223.7585,52.7505 C223.7585,48.2445 220.072,44.558 215.566,44.558 L20.429,44.558 C15.923,44.558 12.2365,48.2445 12.2365,52.7505 L12.2365,71.4815 L223.7585,71.4815 L223.7585,71.4815 Z" id="Shape" stroke="#979797" stroke-width="2" fill="#F1F1F1"></path>
                        <ellipse id="Oval" fill="#FFFFFF" cx="117.996" cy="50.3075" rx="46.1515" ry="46.1515"></ellipse>
                        <path d="M71.8445,50.31 C71.8445,52.185 71.9695,54.0295 72.1865,55.8455 C72.2405,55.9515 72.281,56.0485 72.292,56.1275 C72.7045,53.1375 73.411,50.2435 74.3675,47.465 L114.464491,87.5615313 C116.415994,89.5130122 119.576608,89.5163915 121.531509,87.5614908 L161.6285,47.4645 C162.585,50.243 163.2915,53.138 163.704,56.1275 C163.715,56.0495 163.7535,55.96 163.8065,55.8655 C164.0255,54.043 164.151,52.192 164.151,50.311 C164.151,24.8195 143.4875,4.1565 117.998,4.1565 C92.508,4.1565 71.8445,24.82 71.8445,50.31 Z" id="Shape" fill="#F1F1F1"></path>
                        <path d="M117.998,100.5585 C90.2905,100.5585 67.7485,78.017 67.7485,50.309 C67.7485,22.601 90.29,0.0595 117.998,0.0595 C145.706,0.0595 168.2475,22.601 168.2475,50.309 C168.2475,78.017 145.7055,100.5585 117.998,100.5585 L117.998,100.5585 Z M117.998,8.2525 C94.808,8.2525 75.941,27.119 75.941,50.3095 C75.941,73.5 94.8075,92.3665 117.998,92.3665 C141.1885,92.3665 160.055,73.5 160.055,50.3095 C160.055,27.119 141.188,8.2525 117.998,8.2525 L117.998,8.2525 Z" id="Shape" stroke="#979797" stroke-width="2" fill="#F1F1F1"></path>
                        <g id="Shape-+-Shape-Mask" transform="translate(67.000000, 12.000000)">
                            <mask id="mask-5" fill="white">
                                <use xlink:href="#path-4"></use>
                            </mask>
                            <use id="Mask" stroke="#979797" stroke-width="2" fill="#F1F1F1" stroke-linecap="round" stroke-linejoin="round" xlink:href="#path-4"></use>
                            <path d="M48.8791228,73.2441501 C50.0490702,74.4140824 51.9410495,74.4189505 53.1209534,73.2390466 L90.7545,35.6055 C68.7295,14.518 33.779,14.8065 12.11,36.4755 L48.8791228,73.2441501 Z" id="Shape" fill="#F1F1F1" mask="url(#mask-5)"></path>
                            <path d="M5.14823047,29.6086914 L10.0737305,34.5336914 C28.3862305,16.2211914 73.0023652,15.1295781 91.3148652,33.4420781 C91.5848652,33.7120781 91.8368652,33.9925781 92.0993652,34.2675781 L98.7173652,27.6475781 C76.6923652,6.55957813 26.8167305,7.93969141 5.14823047,29.6086914 Z" id="Shape" fill="#D6D6D6" mask="url(#mask-5)"></path>
                        </g>
                        <path d="M107.651,77.016 C113.755,70.912 113.7555,61.0145 107.651,54.9105 C101.547,48.806 91.6495,48.806 85.5455,54.9105 L107.651,77.016 L107.651,77.016 Z" id="Shape" fill="#CCCCCC"></path>
                        <path d="M123.630195,73.0256327 C125.111754,74.507191 127.290699,75.5340521 129.14502,76.1816406 L145.870117,59.4914551 C145.222097,57.6371344 144.186061,55.4320207 142.704503,53.9508939 C137.437076,48.6830354 128.897191,48.6830354 123.630195,53.9508939 C118.362768,59.2178895 118.362768,67.7582056 123.630195,73.0256327 Z" id="Shape" fill="#CCCCCC"></path>
                        <path d="M208.2515,100.832 C208.2515,97.828 205.7935,95.3705 202.79,95.3705 L169.613,95.3705 C166.609,95.3705 164.1515,97.8285 164.1515,100.832 L164.1515,116.939 C164.1515,119.943 166.6095,122.4005 169.613,122.4005 L202.79,122.4005 C205.794,122.4005 208.2515,119.9425 208.2515,116.939 L208.2515,100.832 L208.2515,100.832 Z" id="Shape" fill="#FFFFFF"></path>
                        <path d="M202.79,95.37 L169.613,95.37 C166.609,95.37 164.1515,97.828 164.1515,100.8315 L164.1515,108.6605 C164.1515,105.6565 166.6095,103.199 169.613,103.199 L202.79,103.199 C205.794,103.199 208.2515,105.657 208.2515,108.6605 L208.2515,100.8315 C208.2515,97.828 205.794,95.37 202.79,95.37 L202.79,95.37 Z" id="Shape" fill="#000000" opacity="0.2"></path>
                        <path d="M202.79,126.4975 L169.613,126.4975 C164.343,126.4975 160.055,122.2095 160.055,116.9395 L160.055,100.8325 C160.055,95.5625 164.343,91.2745 169.613,91.2745 L202.79,91.2745 C208.06,91.2745 212.348,95.5625 212.348,100.8325 L212.348,116.9395 C212.348,122.2095 208.06,126.4975 202.79,126.4975 L202.79,126.4975 Z M169.6125,99.4665 C168.8725,99.4665 168.247,100.092 168.247,100.832 L168.247,116.939 C168.247,117.679 168.8725,118.3045 169.6125,118.3045 L202.7895,118.3045 C203.5295,118.3045 204.155,117.679 204.155,116.939 L204.155,100.832 C204.155,100.092 203.5295,99.4665 202.7895,99.4665 L169.6125,99.4665 L169.6125,99.4665 Z" id="Shape" stroke="#979797" stroke-width="2" fill="#E5E5E5"></path>
                        <path d="M27.744,100.832 C27.744,97.828 30.202,95.3705 33.2055,95.3705 L66.3825,95.3705 C69.3865,95.3705 71.844,97.8285 71.844,100.832 L71.844,116.939 C71.844,119.943 69.386,122.4005 66.3825,122.4005 L33.2055,122.4005 C30.2015,122.4005 27.744,119.9425 27.744,116.939 L27.744,100.832 L27.744,100.832 Z" id="Shape" fill="#FFFFFF"></path>
                        <path d="M33.2055,95.37 L66.3825,95.37 C69.3865,95.37 71.844,97.828 71.844,100.8315 L71.844,108.6605 C71.844,105.6565 69.386,103.199 66.3825,103.199 L33.2055,103.199 C30.2015,103.199 27.744,105.657 27.744,108.6605 L27.744,100.8315 C27.744,97.828 30.2015,95.37 33.2055,95.37 L33.2055,95.37 Z" id="Shape" fill="#000000" opacity="0.2"></path>
                        <path d="M66.383,126.4975 L33.2055,126.4975 C27.9355,126.4975 23.6475,122.2095 23.6475,116.9395 L23.6475,100.8325 C23.6475,95.5625 27.9355,91.2745 33.2055,91.2745 L66.3825,91.2745 C71.6525,91.2745 75.9405,95.5625 75.9405,100.8325 L75.9405,116.9395 C75.941,122.2095 71.653,126.4975 66.383,126.4975 L66.383,126.4975 Z M33.2055,99.4665 C32.4655,99.4665 31.84,100.092 31.84,100.832 L31.84,116.939 C31.84,117.679 32.4655,118.3045 33.2055,118.3045 L66.3825,118.3045 C67.1225,118.3045 67.748,117.679 67.748,116.939 L67.748,100.832 C67.748,100.092 67.1225,99.4665 66.3825,99.4665 L33.2055,99.4665 L33.2055,99.4665 Z" id="Shape" stroke="#979797" stroke-width="2" fill="#E5E5E5"></path>
                        <path d="M234.808,200.63 C234.808,184.908 222.0625,172.1625 206.3405,172.1625 C190.618,172.1625 177.8725,184.908 177.8725,200.63 L234.808,200.63 L234.808,200.63 Z" id="Shape" stroke="#979797" stroke-width="2" fill="#FFFFFF"></path>
                        <path d="M57.3045,201.63 C57.3045,185.908 44.559,173.1625 28.8365,173.1625 C13.114,173.1625 0.369,185.908 0.369,201.63 L57.3045,201.63 L57.3045,201.63 Z" id="Shape" stroke="#979797" stroke-width="2" fill="#F1F1F1"></path>
                        <path d="M155.62,200.63 L147.4275,200.63 L147.4275,134.0545 L88.568,134.0545 L88.568,200.6305 L80.3755,200.6305 L80.3755,129.958 C80.3755,127.6955 82.2095,125.8615 84.472,125.8615 L151.524,125.8615 C153.7865,125.8615 155.6205,127.6955 155.6205,129.958 L155.6205,200.63 L155.62,200.63 Z" id="Shape" stroke="#979797" stroke-width="2" fill="#E5E5E5"></path>
                    </g>
                    <g id="Combined-Shape" stroke="none" fill="none">
                        <use fill="#F1F1F1" fill-rule="evenodd" xlink:href="#path-6"></use>
                        <path stroke="#979797" stroke-width="2" d="M1151.21933,155.51882 L1150.25003,155.775263 L1150.50904,156.743882 C1150.83379,157.958379 1151,159.217726 1151,160.5 C1151,168.508129 1144.50813,175 1136.5,175 C1128.49187,175 1122,168.508129 1122,160.5 C1122,153.880836 1126.47355,148.149818 1132.78067,146.481179 L1133.74997,146.224736 L1133.49096,145.256117 C1133.16621,144.041621 1133,142.782274 1133,141.5 C1133,140.352865 1133.13302,139.223896 1133.39375,138.128616 L1133.65051,137.050054 L1132.55126,136.905562 C1127.11359,136.190803 1123,131.536056 1123,126 C1123,124.213969 1123.42531,122.491213 1124.22906,120.941981 L1124.82554,119.792277 L1123.56231,119.506164 C1114.52441,117.459129 1108,109.390778 1108,100 C1108,88.954305 1116.95431,80 1128,80 C1139.04569,80 1148,88.954305 1148,100 C1148,100.792414 1147.95397,101.578918 1147.86268,102.356928 L1147.66044,104.080595 L1149.25312,103.391172 C1151.36382,102.477509 1153.64753,102 1156,102 C1165.38884,102 1173,109.611159 1173,119 C1173,126.266924 1168.39829,132.658968 1161.65564,135.036851 L1160.68852,135.377917 L1161.05382,136.336141 C1161.67673,137.970105 1162,139.711982 1162,141.5 C1162,148.119163 1157.52645,153.85018 1151.21933,155.51882 Z"></path>
                    </g>
                    <g id="Oval-22" stroke="none" fill="none">
                        <use fill="#F1F1F1" fill-rule="evenodd" xlink:href="#path-7"></use>
                        <circle stroke="#979797" stroke-width="2" cx="1096" cy="167" r="11"></circle>
                    </g>
                    <g id="Combined-Shape" stroke="none" fill="none">
                        <use fill="#F1F1F1" fill-rule="evenodd" xlink:href="#path-8"></use>
                        <path stroke="#979797" stroke-width="2" d="M1094.81387,46.0631214 L1096.07979,45.9275408 L1095.64816,44.7297838 C1095.22106,43.5446038 1095,42.288162 1095,41 C1095,34.9248678 1099.92487,30 1106,30 C1112.07513,30 1117,34.9248678 1117,41 C1117,46.6338479 1112.74332,51.3416999 1107.18613,51.9368786 L1105.92021,52.0724592 L1106.35184,53.2702162 C1106.77894,54.4553962 1107,55.711838 1107,57 C1107,63.0751322 1102.07513,68 1096,68 C1089.92487,68 1085,63.0751322 1085,57 C1085,51.3661521 1089.25668,46.6583001 1094.81387,46.0631214 Z"></path>
                    </g>
                    <g id="house" stroke="none" stroke-width="1" fill="none" fill-rule="evenodd" transform="translate(1064.000000, 224.000000)">
                        <path d="M84.7120011,73.0137493 C84.7120011,76.2206878 82.0860518,78.8450536 78.8760507,78.8450536 L37.1500964,78.8450536 C33.9406027,78.8450536 31.314146,76.2211948 31.314146,73.0137493 L31.314146,12.7593053 C31.314146,9.55236686 33.9400953,6.9280011 37.1500964,6.9280011 L78.8760507,6.9280011 C82.0855443,6.9280011 84.7120011,9.55185984 84.7120011,12.7593053 L84.7120011,73.0137493 L84.7120011,73.0137493 Z" id="Shape" stroke="#979797" stroke-width="2" fill="#FFFFFF"></path>
                        <rect id="Rectangle-path" stroke="#979797" stroke-width="2" fill="#F1F1F1" x="31.3131311" y="16.9458177" width="30.7964234" height="14.8081967"></rect>
                        <rect id="Rectangle-path" stroke="#979797" stroke-width="2" fill="#F1F1F1" x="53.9150703" y="39.7924021" width="30.7964234" height="14.8081967"></rect>
                        <polygon id="Shape" stroke="#979797" stroke-width="2" fill="#FFFFFF" points="20.6048396 76.989339 20.6048396 197.792809 237.203289 197.792809 237.203289 76.989339 128.90305 9.4550179"></polygon>
                        <polygon id="Shape" fill="#000000" opacity="0.1" points="128.90305 9.4550179 20.6048396 76.989339 20.6048396 101.480208 128.90305 33.9458871 237.203289 101.480208 237.203289 76.989339"></polygon>
                        <rect id="Rectangle-path" stroke="#979797" stroke-width="2" fill="#FFFFFF" x="206.404836" y="100.407342" width="30.7969308" height="14.8081967"></rect>
                        <rect id="Rectangle-path" stroke="#979797" stroke-width="2" fill="#F1F1F1" x="164.270401" y="167.611589" width="30.7969308" height="14.8081967"></rect>
                        <rect id="Rectangle-path" stroke="#979797" stroke-width="2" fill="#F1F1F1" x="126.267459" y="100.168532" width="30.7969308" height="14.8081967"></rect>
                        <rect id="Rectangle-path" stroke="#979797" stroke-width="2" fill="#F1F1F1" x="20.6043321" y="141.886873" width="30.7964234" height="14.8081967"></rect>
                        <rect id="Rectangle-path" stroke="#979797" stroke-width="2" fill="#F1F1F1" x="44.7935118" y="83.2754454" width="30.7969308" height="14.8081967"></rect>
                        <rect id="Rectangle-path" stroke="#979797" stroke-width="2" fill="#FFFFFF" x="102.451748" y="125.084796" width="52.896007" height="72.7090268"></rect>
                        <ellipse id="Oval" stroke="#979797" stroke-width="2" fill="#E5E5E5" cx="128.899498" cy="151.149981" rx="10.3607021" ry="10.3524536"></ellipse>
                        <ellipse id="Oval" stroke="#979797" stroke-width="2" fill="#FFFFFF" cx="128.899498" cy="63.5774914" rx="22.0326029" ry="22.0150621"></ellipse>
                        <path d="M128.900512,41.5629364 C116.731838,41.5629364 106.867402,51.4190117 106.867402,63.5779984 C106.867402,64.9058991 106.991722,66.2033782 107.217021,67.4648585 C109.055439,57.1610794 118.060796,49.3381777 128.900512,49.3381777 C139.741243,49.3381777 148.745585,57.1610794 150.583496,67.4648585 C150.808795,66.2028712 150.933115,64.9053921 150.933115,63.5779984 C150.933115,51.4190117 141.069187,41.5629364 128.900512,41.5629364 L128.900512,41.5629364 Z" id="Shape" fill="#E5E5E5"></path>
                        <polygon id="Shape" stroke="#979797" stroke-width="2" fill="#F1F1F1" points="150.932608 59.2043935 133.277095 59.2043935 133.277095 41.5629364 124.522915 41.5629364 124.522915 59.2043935 106.867402 59.2043935 106.867402 67.9510963 124.522915 67.9510963 124.522915 85.5925535 133.277095 85.5925535 133.277095 67.9510963 150.932608 67.9510963"></polygon>
                        <path d="M128.900512,89.9661584 C114.337784,89.9661584 102.490312,78.128119 102.490312,63.5779984 C102.490312,49.0278778 114.337784,37.1898385 128.900512,37.1898385 C143.462733,37.1898385 155.309698,49.0278778 155.309698,63.5779984 C155.309698,78.128119 143.462733,89.9661584 128.900512,89.9661584 L128.900512,89.9661584 Z M128.900512,45.9360343 C119.164456,45.9360343 111.244492,53.8502006 111.244492,63.5774914 C111.244492,73.3047822 119.164964,81.2189485 128.900512,81.2189485 C138.636061,81.2189485 146.556026,73.3047822 146.556026,63.5774914 C146.556026,53.8502006 138.636061,45.9360343 128.900512,45.9360343 L128.900512,45.9360343 Z" id="Shape" stroke="#979797" stroke-width="2" fill="#FFFFFF"></path>
                        <rect id="Rectangle-path" stroke="#979797" stroke-width="2" fill="#FFFFFF" x="102.451748" y="125.084796" width="52.896007" height="9.18984339"></rect>
                        <rect id="Rectangle-path" fill="#FFFFFF" x="39.6872455" y="107.725753" width="37.8496979" height="42.7422785"></rect>
                        <rect id="Rectangle-path" fill="#E5E5E5" x="39.6872455" y="107.725753" width="37.8496979" height="9.42307527"></rect>
                        <rect id="Rectangle-path" stroke="#979797" stroke-width="2" fill="#FFFFFF" x="39.6872455" y="124.723287" width="37.8496979" height="8.7467028"></rect>
                        <rect id="Rectangle-path" stroke="#979797" stroke-width="2" x="39.6872455" y="107.725753" width="37.8496979" height="42.7422785"></rect>
                        <rect id="Rectangle-path" stroke="#979797" stroke-width="2" fill="#FFFFFF" x="180.2722" y="107.725753" width="37.8496979" height="42.7422785"></rect>
                        <rect id="Rectangle-path" fill="#000000" opacity="0.2" x="180.2722" y="107.725753" width="37.8496979" height="9.42307527"></rect>
                        <rect id="Rectangle-path" stroke="#979797" stroke-width="2" fill="#FFFFFF" x="180.2722" y="124.723287" width="37.8496979" height="8.7467028"></rect>
                        <path d="M218.121898,154.842143 L180.2722,154.842143 C177.854805,154.842143 175.895111,152.884516 175.895111,150.468538 L175.895111,107.725246 C175.895111,105.309267 177.854805,103.351641 180.2722,103.351641 L218.121898,103.351641 C220.539294,103.351641 222.498988,105.309267 222.498988,107.725246 L222.498988,150.468538 C222.498988,152.884009 220.539294,154.842143 218.121898,154.842143 L218.121898,154.842143 Z M184.648275,146.094933 L213.744301,146.094933 L213.744301,112.09885 L184.648275,112.09885 L184.648275,146.094933 L184.648275,146.094933 Z" id="Shape" stroke="#979797" stroke-width="2" fill="#FFFFFF"></path>
                        <path d="M247.491429,92.6057349 C245.80524,92.6057349 244.099768,92.1504257 242.56327,91.1936679 L128.90305,20.4468311 L15.2423212,91.1936679 C10.8652315,93.9199459 5.10691792,92.5813977 2.37999005,88.2082998 C-0.346937818,83.8352019 0.991662055,78.0809656 5.36875171,75.3557017 L123.965757,1.5362883 C126.988009,-0.344777573 130.817582,-0.344777573 133.839834,1.5362883 L252.437855,75.3562087 C256.814944,78.0809656 258.153037,83.8352019 255.426616,88.2088068 C253.656194,91.0466304 250.608063,92.6057349 247.491429,92.6057349 L247.491429,92.6057349 Z" id="Shape" stroke="#979797" stroke-width="2" fill="#FFFFFF"></path>
                        <path d="M249.834232,197.792809 C249.834232,178.657654 234.309924,163.146212 215.16003,163.146212 C196.010136,163.146212 180.485321,178.658161 180.485321,197.792809 L249.834232,197.792809 L249.834232,197.792809 Z" id="Shape" stroke="#979797" stroke-width="2" fill="#FFFFFF"></path>
                        <path d="M4.96628497,197.792809 C4.96628497,178.657654 20.490593,163.146212 39.6409945,163.146212 C58.791396,163.146212 74.3151966,178.658161 74.3151966,197.792809 L4.96628497,197.792809 L4.96628497,197.792809 Z" id="Shape" stroke="#979797" stroke-width="2" fill="#F1F1F1"></path>
                    </g>
                    <g id="building-2" stroke="none" stroke-width="1" fill="none" fill-rule="evenodd" transform="translate(492.000000, 178.000000)">
                        <path d="M187.989055,253.432158 L187.989055,9.25422416 C187.989055,4.16536058 183.827404,0.000241002146 178.742246,0.000241002146 L44.2534883,0.000241002146 C39.1677969,0.000241002146 35.0066797,4.16482693 35.0066797,9.25422416 L35.0066797,253.432158 L187.989055,253.432158 L187.989055,253.432158 L187.989055,253.432158 Z" id="Shape" stroke="#979797" stroke-width="2" fill="#FFFFFF"></path>
                        <rect id="Rectangle-path" stroke="#979797" stroke-width="2" fill="#FFFFFF" x="35.0093457" y="220.780929" width="152.984508" height="32.6496279"></rect>
                        <rect id="Rectangle-path" stroke="#979797" stroke-width="2" fill="#F1F1F1" x="161.277178" y="196.875117" width="26.7108105" height="12.8651765"></rect>
                        <rect id="Rectangle-path" stroke="#979797" stroke-width="2" fill="#FFFFFF" x="35.0093457" y="160.622834" width="26.7108105" height="12.8651765"></rect>
                        <rect id="Rectangle-path" stroke="#979797" stroke-width="2" fill="#F1F1F1" x="85.6465801" y="92.9098904" width="26.7108105" height="12.8651765"></rect>
                        <rect id="Rectangle-path" stroke="#979797" stroke-width="2" fill="#F1F1F1" x="155.883828" y="72.1808827" width="26.7108105" height="12.8651765"></rect>
                        <rect id="Rectangle-path" stroke="#979797" stroke-width="2" fill="#F1F1F1" x="104.098607" y="62.1717882" width="26.7102773" height="12.8651765"></rect>
                        <rect id="Rectangle-path" stroke="#979797" stroke-width="2" fill="#F1F1F1" x="46.7282832" y="61.7365317" width="26.7108105" height="12.8651765"></rect>
                        <rect id="Rectangle-path" stroke="#979797" stroke-width="2" fill="#F1F1F1" x="112.357391" y="135.690818" width="26.7108105" height="12.8651765"></rect>
                        <rect id="Rectangle-path" stroke="#979797" stroke-width="2" fill="#F1F1F1" x="67.5560645" y="214.351543" width="26.7108105" height="12.8651765"></rect>
                        <rect id="Rectangle-path" stroke="#979797" stroke-width="2" fill="#F1F1F1" x="85.6465801" y="220.780929" width="51.7036406" height="32.6496279"></rect>
                        <path d="M137.349687,220.781996 L137.349687,210.902045 C137.349687,207.508046 134.575432,204.730944 131.185326,204.730944 L91.8109414,204.730944 C88.4203027,204.730944 85.6465801,207.508046 85.6465801,210.902045 L85.6465801,220.781996 L137.349687,220.781996 L137.349687,220.781996 Z" id="Shape" stroke="#979797" stroke-width="2" fill="#F1F1F1"></path>
                        <path d="M111.497867,69.2612966 C109.085123,69.2612966 107.129334,67.3044109 107.129334,64.8891218 L107.129334,46.5850089 C107.129334,44.1697198 109.085123,42.212834 111.497867,42.212834 C113.910611,42.212834 115.8664,44.1697198 115.8664,46.5850089 L115.8664,64.8891218 C115.8664,67.3044109 113.910611,69.2612966 111.497867,69.2612966 L111.497867,69.2612966 Z" id="Shape" stroke="#979797" stroke-width="2" fill="#FFFFFF"></path>
                        <path d="M64.853791,69.2612966 C62.4410469,69.2612966 60.4852578,67.3044109 60.4852578,64.8891218 L60.4852578,46.5850089 C60.4852578,44.1697198 62.4410469,42.212834 64.853791,42.212834 C67.266002,42.212834 69.2223242,44.1697198 69.2223242,46.5850089 L69.2223242,64.8891218 C69.221791,67.3044109 67.266002,69.2612966 64.853791,69.2612966 L64.853791,69.2612966 Z" id="Shape" stroke="#979797" stroke-width="2" fill="#FFFFFF"></path>
                        <path d="M158.142477,69.2612966 C155.729732,69.2612966 153.773943,67.3044109 153.773943,64.8891218 L153.773943,46.5850089 C153.773943,44.1697198 155.729732,42.212834 158.142477,42.212834 C160.555221,42.212834 162.51101,44.1697198 162.51101,46.5850089 L162.51101,64.8891218 C162.510477,67.3044109 160.554687,69.2612966 158.142477,69.2612966 L158.142477,69.2612966 Z" id="Shape" stroke="#979797" stroke-width="2" fill="#FFFFFF"></path>
                        <path d="M198.976771,48.9496014 C198.976771,50.6460672 197.58991,52.0351519 195.894324,52.0351519 L27.1051426,52.0351519 C25.4095566,52.0351519 24.0226953,50.6460672 24.0226953,48.9496014 L24.0226953,31.0435896 C24.0226953,29.3471239 25.4095566,27.9591064 27.1051426,27.9591064 L195.894324,27.9591064 C197.58991,27.9591064 198.976771,29.3471239 198.976771,31.0435896 L198.976771,48.9496014 L198.976771,48.9496014 Z" id="Shape" stroke="#979797" stroke-width="2" fill="#F1F1F1"></path>
                        <path d="M75.949748,115.893559 C75.949748,119.287558 73.1754922,122.063059 69.7853867,122.063059 L59.9216621,122.063059 C56.5310234,122.063059 53.7573008,119.287024 53.7573008,115.893559 L53.7573008,91.2134246 C53.7573008,87.8210268 56.5315566,85.0439246 59.9216621,85.0439246 L69.7853867,85.0439246 C73.1760254,85.0439246 75.949748,87.8210268 75.949748,91.2134246 L75.949748,115.893559 L75.949748,115.893559 Z" id="Shape" stroke="#979797" stroke-width="2" fill="#FFFFFF"></path>
                        <path d="M69.7848535,85.043391 L59.9211289,85.043391 C56.5304902,85.043391 53.7567676,87.8204931 53.7567676,91.212891 L53.7567676,100.77639 C53.7567676,97.3839919 56.5310234,94.6068897 59.9211289,94.6068897 L69.7848535,94.6068897 C73.1754922,94.6068897 75.9492148,97.3839919 75.9492148,100.77639 L75.9492148,91.212891 C75.949748,87.8204931 73.1760254,85.043391 69.7848535,85.043391 L69.7848535,85.043391 Z" id="Shape" fill="#E5E5E5"></path>
                        <path d="M69.7848535,126.435234 L59.9211289,126.435234 C54.1129473,126.435234 49.3882344,121.706583 49.3882344,115.893559 L49.3882344,91.2134246 C49.3882344,85.4004012 54.1129473,80.6717498 59.9211289,80.6717498 L69.7848535,80.6717498 C75.5930352,80.6717498 80.317748,85.4004012 80.317748,91.2134246 L80.317748,115.893559 C80.3182812,121.706583 75.5930352,126.435234 69.7848535,126.435234 L69.7848535,126.435234 Z M59.9216621,89.4155658 C58.9480332,89.4155658 58.1253008,90.2384504 58.1253008,91.2134246 L58.1253008,115.893559 C58.1253008,116.868 58.9475,117.691418 59.9216621,117.691418 L69.7853867,117.691418 C70.7590156,117.691418 71.581748,116.868533 71.581748,115.893559 L71.581748,91.2134246 C71.581748,90.2389841 70.7595488,89.4155658 69.7853867,89.4155658 L59.9216621,89.4155658 L59.9216621,89.4155658 L59.9216621,89.4155658 Z" id="Shape" stroke="#979797" stroke-width="2" fill="#E5E5E5"></path>
                        <path d="M122.594891,115.893559 C122.594891,119.287558 119.820635,122.063059 116.430529,122.063059 L106.566805,122.063059 C103.176166,122.063059 100.402443,119.287024 100.402443,115.893559 L100.402443,91.2134246 C100.402443,87.8210268 103.176699,85.0439246 106.566805,85.0439246 L116.430529,85.0439246 C119.821168,85.0439246 122.594891,87.8210268 122.594891,91.2134246 L122.594891,115.893559 L122.594891,115.893559 Z" id="Shape" stroke="#979797" stroke-width="2" fill="#FFFFFF"></path>
                        <path d="M116.429463,85.043391 L106.565738,85.043391 C103.1751,85.043391 100.401377,87.8204931 100.401377,91.212891 L100.401377,100.77639 C100.401377,97.3839919 103.175633,94.6068897 106.565738,94.6068897 L116.429463,94.6068897 C119.820102,94.6068897 122.593824,97.3839919 122.593824,100.77639 L122.593824,91.212891 C122.594891,87.8204931 119.820635,85.043391 116.429463,85.043391 L116.429463,85.043391 Z" id="Shape" fill="#E5E5E5"></path>
                        <path d="M116.429463,126.435234 L106.565738,126.435234 C100.757557,126.435234 96.0328438,121.706583 96.0328438,115.893559 L96.0328438,91.2134246 C96.0328438,85.4004012 100.757557,80.6717498 106.565738,80.6717498 L116.429463,80.6717498 C122.237645,80.6717498 126.962357,85.4004012 126.962357,91.2134246 L126.962357,115.893559 C126.962891,121.706583 122.237645,126.435234 116.429463,126.435234 L116.429463,126.435234 Z M106.565738,89.4155658 C105.592109,89.4155658 104.769377,90.2384504 104.769377,91.2134246 L104.769377,115.893559 C104.769377,116.868 105.591576,117.691418 106.565738,117.691418 L116.429463,117.691418 C117.403092,117.691418 118.225824,116.868533 118.225824,115.893559 L118.225824,91.2134246 C118.225824,90.2389841 117.403092,89.4155658 116.429463,89.4155658 L106.565738,89.4155658 L106.565738,89.4155658 L106.565738,89.4155658 Z" id="Shape" stroke="#979797" stroke-width="2" fill="#E5E5E5"></path>
                        <path d="M169.238967,115.893559 C169.238967,119.287558 166.464711,122.063059 163.074605,122.063059 L153.210348,122.063059 C149.819709,122.063059 147.045986,119.287024 147.045986,115.893559 L147.045986,91.2134246 C147.045986,87.8210268 149.820242,85.0439246 153.210348,85.0439246 L163.074072,85.0439246 C166.464711,85.0439246 169.238434,87.8210268 169.238434,91.2134246 L169.238434,115.893559 L169.238967,115.893559 L169.238967,115.893559 Z" id="Shape" stroke="#FFFFFF" stroke-width="2" fill="#FFFFFF"></path>
                        <path d="M163.074072,85.043391 L153.210348,85.043391 C149.819709,85.043391 147.045986,87.8204931 147.045986,91.212891 L147.045986,100.77639 C147.045986,97.3839919 149.820242,94.6068897 153.210348,94.6068897 L163.074072,94.6068897 C166.464711,94.6068897 169.238434,97.3839919 169.238434,100.77639 L169.238434,91.212891 C169.238967,87.8204931 166.464711,85.043391 163.074072,85.043391 L163.074072,85.043391 Z" id="Shape" fill="#E5E5E5"></path>
                        <path d="M163.074072,126.435234 L153.210348,126.435234 C147.402166,126.435234 142.677453,121.706583 142.677453,115.893559 L142.677453,91.2134246 C142.677453,85.4004012 147.402166,80.6717498 153.210348,80.6717498 L163.074072,80.6717498 C168.882254,80.6717498 173.606967,85.4004012 173.606967,91.2134246 L173.606967,115.893559 C173.6075,121.706583 168.882254,126.435234 163.074072,126.435234 L163.074072,126.435234 Z M153.210348,89.4155658 C152.236719,89.4155658 151.413986,90.2384504 151.413986,91.2134246 L151.413986,115.893559 C151.413986,116.868 152.236186,117.691418 153.210348,117.691418 L163.074072,117.691418 C164.047701,117.691418 164.870434,116.868533 164.870434,115.893559 L164.870434,91.2134246 C164.870434,90.2389841 164.047701,89.4155658 163.074072,89.4155658 L153.210348,89.4155658 L153.210348,89.4155658 L153.210348,89.4155658 Z" id="Shape" stroke="#979797" stroke-width="2" fill="#E5E5E5"></path>
                        <rect id="Rectangle-path" stroke="#979797" stroke-width="2" fill="#F1F1F1" x="60.4852578" y="0.000241002146" width="8.7365332" height="17.7918112"></rect>
                        <rect id="Rectangle-path" stroke="#979797" stroke-width="2" fill="#F1F1F1" x="83.2935547" y="0.000241002146" width="8.7365332" height="17.7918112"></rect>
                        <rect id="Rectangle-path" stroke="#979797" stroke-width="2" fill="#F1F1F1" x="130.966713" y="0.000241002146" width="8.7365332" height="17.7918112"></rect>
                        <rect id="Rectangle-path" stroke="#979797" stroke-width="2" fill="#F1F1F1" x="107.133066" y="0.000241002146" width="8.7365332" height="17.7918112"></rect>
                        <rect id="Rectangle-path" stroke="#979797" stroke-width="2" fill="#F1F1F1" x="153.77501" y="0.000241002146" width="8.7365332" height="17.7918112"></rect>
                        <path d="M75.949748,175.741605 C75.949748,179.134002 73.1754922,181.911105 69.7853867,181.911105 L59.9216621,181.911105 C56.5310234,181.911105 53.7573008,179.134002 53.7573008,175.741605 L53.7573008,151.06147 C53.7573008,147.669072 56.5315566,144.89197 59.9216621,144.89197 L69.7853867,144.89197 C73.1760254,144.89197 75.949748,147.669072 75.949748,151.06147 L75.949748,175.741605 L75.949748,175.741605 Z" id="Shape" stroke="#979797" stroke-width="2" fill="#FFFFFF"></path>
                        <path d="M69.7848535,144.89197 L59.9211289,144.89197 C56.5304902,144.89197 53.7567676,147.669072 53.7567676,151.06147 L53.7567676,160.624969 C53.7567676,157.23097 56.5310234,154.455469 59.9211289,154.455469 L69.7848535,154.455469 C73.1754922,154.455469 75.9492148,157.231504 75.9492148,160.624969 L75.9492148,151.06147 C75.949748,147.669072 73.1760254,144.89197 69.7848535,144.89197 L69.7848535,144.89197 Z" id="Shape" fill="#E5E5E5"></path>
                        <path d="M69.7848535,186.283279 L59.9211289,186.283279 C54.1129473,186.283279 49.3882344,181.554628 49.3882344,175.741605 L49.3882344,151.06147 C49.3882344,145.248447 54.1129473,140.519795 59.9211289,140.519795 L69.7848535,140.519795 C75.5930352,140.519795 80.317748,145.248447 80.317748,151.06147 L80.317748,175.741605 C80.3182812,181.554628 75.5930352,186.283279 69.7848535,186.283279 L69.7848535,186.283279 Z M59.9216621,149.263611 C58.9480332,149.263611 58.1253008,150.086496 58.1253008,151.06147 L58.1253008,175.741605 C58.1253008,176.716045 58.9475,177.539463 59.9216621,177.539463 L69.7853867,177.539463 C70.7590156,177.539463 71.581748,176.716579 71.581748,175.741605 L71.581748,151.06147 C71.581748,150.08703 70.7595488,149.263611 69.7853867,149.263611 L59.9216621,149.263611 L59.9216621,149.263611 Z" id="Shape" stroke="#979797" stroke-width="2" fill="#E5E5E5"></path>
                        <path d="M122.594891,175.741605 C122.594891,179.134002 119.820635,181.911105 116.430529,181.911105 L106.566805,181.911105 C103.176166,181.911105 100.402443,179.134002 100.402443,175.741605 L100.402443,151.06147 C100.402443,147.669072 103.176699,144.89197 106.566805,144.89197 L116.430529,144.89197 C119.821168,144.89197 122.594891,147.669072 122.594891,151.06147 L122.594891,175.741605 L122.594891,175.741605 Z" id="Shape" stroke="#979797" stroke-width="2" fill="#FFFFFF"></path>
                        <path d="M116.429463,144.89197 L106.565738,144.89197 C103.1751,144.89197 100.401377,147.669072 100.401377,151.06147 L100.401377,160.624969 C100.401377,157.23097 103.175633,154.455469 106.565738,154.455469 L116.429463,154.455469 C119.820102,154.455469 122.593824,157.231504 122.593824,160.624969 L122.593824,151.06147 C122.594891,147.669072 119.820635,144.89197 116.429463,144.89197 L116.429463,144.89197 Z" id="Shape" fill="#E5E5E5"></path>
                        <path d="M116.429463,186.283279 L106.565738,186.283279 C100.757557,186.283279 96.0328438,181.554628 96.0328438,175.741605 L96.0328438,151.06147 C96.0328438,145.248447 100.757557,140.519795 106.565738,140.519795 L116.429463,140.519795 C122.237645,140.519795 126.962357,145.248447 126.962357,151.06147 L126.962357,175.741605 C126.962891,181.554628 122.237645,186.283279 116.429463,186.283279 L116.429463,186.283279 Z M106.565738,149.263611 C105.592109,149.263611 104.769377,150.086496 104.769377,151.06147 L104.769377,175.741605 C104.769377,176.716045 105.591576,177.539463 106.565738,177.539463 L116.429463,177.539463 C117.403092,177.539463 118.225824,176.716579 118.225824,175.741605 L118.225824,151.06147 C118.225824,150.08703 117.403092,149.263611 116.429463,149.263611 L106.565738,149.263611 L106.565738,149.263611 Z" id="Shape" stroke="#979797" stroke-width="2" fill="#E5E5E5"></path>
                        <path d="M169.238967,175.741605 C169.238967,179.134002 166.464711,181.911105 163.074605,181.911105 L153.210348,181.911105 C149.819709,181.911105 147.045986,179.134002 147.045986,175.741605 L147.045986,151.06147 C147.045986,147.669072 149.820242,144.89197 153.210348,144.89197 L163.074072,144.89197 C166.464711,144.89197 169.238434,147.669072 169.238434,151.06147 L169.238434,175.741605 L169.238967,175.741605 L169.238967,175.741605 Z" id="Shape" stroke="#979797" stroke-width="2" fill="#FFFFFF"></path>
                        <path d="M163.074072,144.89197 L153.210348,144.89197 C149.819709,144.89197 147.045986,147.669072 147.045986,151.06147 L147.045986,160.624969 C147.045986,157.23097 149.820242,154.455469 153.210348,154.455469 L163.074072,154.455469 C166.464711,154.455469 169.238434,157.231504 169.238434,160.624969 L169.238434,151.06147 C169.238967,147.669072 166.464711,144.89197 163.074072,144.89197 L163.074072,144.89197 Z" id="Shape" fill="#E5E5E5"></path>
                        <path d="M163.074072,186.283279 L153.210348,186.283279 C147.402166,186.283279 142.677453,181.554628 142.677453,175.741605 L142.677453,151.06147 C142.677453,145.248447 147.402166,140.519795 153.210348,140.519795 L163.074072,140.519795 C168.882254,140.519795 173.606967,145.248447 173.606967,151.06147 L173.606967,175.741605 C173.6075,181.554628 168.882254,186.283279 163.074072,186.283279 L163.074072,186.283279 Z M153.210348,149.263611 C152.236719,149.263611 151.413986,150.086496 151.413986,151.06147 L151.413986,175.741605 C151.413986,176.716045 152.236186,177.539463 153.210348,177.539463 L163.074072,177.539463 C164.047701,177.539463 164.870434,176.716579 164.870434,175.741605 L164.870434,151.06147 C164.870434,150.08703 164.047701,149.263611 163.074072,149.263611 L153.210348,149.263611 L153.210348,149.263611 Z" id="Shape" stroke="#979797" stroke-width="2" fill="#E5E5E5"></path>
                        <path d="M44.2854805,243.862422 C44.2854805,231.702194 34.4345527,221.842521 22.2839199,221.842521 C10.1332871,221.842521 0.282359375,231.702194 0.282359375,243.862422 L44.2854805,243.862422 L44.2854805,243.862422 Z" id="Shape" stroke="#979797" stroke-width="2" fill="#FFFFFF"></path>
                        <path d="M174.709721,243.862422 C174.709721,225.543155 189.550049,210.689653 207.85486,210.689653 C226.160475,210.689653 241,225.543155 241,243.862422 L174.709721,243.862422 L174.709721,243.862422 Z" id="Shape" stroke="#979797" stroke-width="2" fill="#F1F1F1"></path>
                    </g>
                    <g id="Group" stroke="none" stroke-width="1" fill="none" fill-rule="evenodd" transform="translate(65.000000, 113.000000)">
                        <rect id="Rectangle-path" stroke="#979797" stroke-width="2" fill="#E5E5E5" x="687.711054" y="109.183801" width="273.577892" height="201.51039"></rect>
                        <rect id="Rectangle-path" stroke="#979797" stroke-width="2" fill="#F1F1F1" x="687.711054" y="109.183801" width="273.577892" height="62.3940314"></rect>
                        <path d="M836.068447,2.67624709 C829.678588,-0.892082362 819.223092,-0.892082362 812.833232,2.67624709 L668.217858,83.4439991 C661.827998,87.0123286 663.126829,89.9323471 671.103855,89.9323471 L977.794319,89.9323471 C985.772222,89.9323471 987.070175,87.0123286 980.680316,83.4439991 L836.068447,2.67624709 L836.068447,2.67624709 Z" id="Shape" stroke="#979797" stroke-width="2" fill="#FFFFFF"></path>
                        <rect id="Rectangle-path" stroke="#979797" stroke-width="2" fill="#FFFFFF" x="661.344989" y="137.240431" width="58.1403104" height="150.43407"></rect>
                        <rect id="Rectangle-path" stroke="#979797" stroke-width="2" fill="#E5E5E5" x="661.344989" y="137.240431" width="58.1403104" height="15.1421958"></rect>
                        <path d="M719.48791,141.891197 C724.399071,141.891197 728.379558,137.916183 728.379558,133.013232 C728.379558,128.110281 724.399071,124.135267 719.48791,124.135267 L661.344989,124.135267 C656.433828,124.135267 652.453341,128.110281 652.453341,133.013232 C652.453341,137.916183 656.433828,141.891197 661.344989,141.891197 L719.48791,141.891197 L719.48791,141.891197 L719.48791,141.891197 Z" id="Shape" stroke="#979797" stroke-width="2" fill="#FFFFFF"></path>
                        <path d="M719.48791,283.017218 L695.817095,283.017218 L695.817095,157.589243 L685.015805,157.589243 L685.015805,283.016566 L661.344989,283.016566 C656.433828,283.016566 652.453341,286.99158 652.453341,291.894532 C652.453341,296.797483 656.433828,300.772497 661.344989,300.772497 L719.488563,300.772497 C724.399723,300.772497 728.380211,296.797483 728.380211,291.894532 C728.380211,286.992232 724.399071,283.017218 719.48791,283.017218 L719.48791,283.017218 Z" id="Shape" stroke="#979797" stroke-width="2" fill="#F1F1F1"></path>
                        <g id="Group-2-Copy-2" transform="translate(738.541619, 124.000000)" stroke="#979797" stroke-width="2">
                            <rect id="Rectangle-path" fill="#FFFFFF" x="6.07576097" y="13.1488422" width="39.1939641" height="150.43407"></rect>
                            <rect id="Rectangle-path" fill="#E5E5E5" x="6.07576097" y="13.1488422" width="39.1939641" height="15.1421958"></rect>
                            <path d="M45.2719249,17.7996083 C48.5826719,17.7996083 51.2660268,13.8245946 51.2660268,8.92164317 C51.2660268,4.01869178 48.5826719,0.0436780313 45.2719249,0.0436780313 L6.07576097,0.0436780313 C2.76501403,0.0436780313 0.0816591413,4.01869178 0.0816591413,8.92164317 C0.0816591413,13.8245946 2.76501403,17.7996083 6.07576097,17.7996083 L45.2719249,17.7996083 L45.2719249,17.7996083 L45.2719249,17.7996083 Z" id="Shape" fill="#FFFFFF"></path>
                            <path d="M45.2719249,158.925629 L29.3147847,158.925629 L29.3147847,33.4976544 L22.0333412,33.4976544 L22.0333412,158.924978 L6.07620094,158.924978 C2.765454,158.924978 0.0820991077,162.899991 0.0820991077,167.802943 C0.0820991077,172.705894 2.765454,176.680908 6.07620094,176.680908 L45.2723649,176.680908 C48.5831118,176.680908 51.2664667,172.705894 51.2664667,167.802943 C51.2660268,162.900643 48.5822319,158.925629 45.2719249,158.925629 L45.2719249,158.925629 Z" id="Shape" fill="#F1F1F1"></path>
                        </g>
                        <g id="Group-2-Copy-2" transform="translate(859.541619, 124.000000)" stroke="#979797" stroke-width="2">
                            <rect id="Rectangle-path" fill="#FFFFFF" x="6.07576097" y="13.1488422" width="39.1939641" height="150.43407"></rect>
                            <rect id="Rectangle-path" fill="#E5E5E5" x="6.07576097" y="13.1488422" width="39.1939641" height="15.1421958"></rect>
                            <path d="M45.2719249,17.7996083 C48.5826719,17.7996083 51.2660268,13.8245946 51.2660268,8.92164317 C51.2660268,4.01869178 48.5826719,0.0436780313 45.2719249,0.0436780313 L6.07576097,0.0436780313 C2.76501403,0.0436780313 0.0816591413,4.01869178 0.0816591413,8.92164317 C0.0816591413,13.8245946 2.76501403,17.7996083 6.07576097,17.7996083 L45.2719249,17.7996083 L45.2719249,17.7996083 L45.2719249,17.7996083 Z" id="Shape" fill="#FFFFFF"></path>
                            <path d="M45.2719249,158.925629 L29.3147847,158.925629 L29.3147847,33.4976544 L22.0333412,33.4976544 L22.0333412,158.924978 L6.07620094,158.924978 C2.765454,158.924978 0.0820991077,162.899991 0.0820991077,167.802943 C0.0820991077,172.705894 2.765454,176.680908 6.07620094,176.680908 L45.2723649,176.680908 C48.5831118,176.680908 51.2664667,172.705894 51.2664667,167.802943 C51.2660268,162.900643 48.5822319,158.925629 45.2719249,158.925629 L45.2719249,158.925629 Z" id="Shape" fill="#F1F1F1"></path>
                        </g>
                        <g id="Group-2-Copy" transform="translate(922.111627, 124.091589)" stroke="#979797" stroke-width="2">
                            <rect id="Rectangle-path" fill="#FFFFFF" x="9.01278134" y="13.1488422" width="58.1403104" height="150.43407"></rect>
                            <rect id="Rectangle-path" fill="#E5E5E5" x="9.01278134" y="13.1488422" width="58.1403104" height="15.1421958"></rect>
                            <path d="M67.1563549,17.7996083 C72.0675156,17.7996083 76.0480032,13.8245946 76.0480032,8.92164317 C76.0480032,4.01869178 72.0675156,0.0436780313 67.1563549,0.0436780313 L9.01278134,0.0436780313 C4.10162069,0.0436780313 0.121133137,4.01869178 0.121133137,8.92164317 C0.121133137,13.8245946 4.10162069,17.7996083 9.01278134,17.7996083 L67.1563549,17.7996083 L67.1563549,17.7996083 L67.1563549,17.7996083 Z" id="Shape" fill="#FFFFFF"></path>
                            <path d="M67.1563549,158.925629 L43.4855396,158.925629 L43.4855396,33.4976544 L32.6842494,33.4976544 L32.6842494,158.924978 L9.01343399,158.924978 C4.10227333,158.924978 0.121785783,162.899991 0.121785783,167.802943 C0.121785783,172.705894 4.10227333,176.680908 9.01343399,176.680908 L67.1570076,176.680908 C72.0681682,176.680908 76.0486558,172.705894 76.0486558,167.802943 C76.0480032,162.900643 72.066863,158.925629 67.1563549,158.925629 L67.1563549,158.925629 Z" id="Shape" fill="#F1F1F1"></path>
                        </g>
                        <path d="M1624.50781,333.290565 C1624.50781,335.240928 1616.40932,336.83745 1606.50859,336.83745 L18.1789098,336.83745 C8.28148698,336.83745 0.1796875,335.24158 0.1796875,333.290565 L0.1796875,320.599193 C0.1796875,318.64883 8.27818013,317.05296 18.1789098,317.05296 L1606.50859,317.05296 C1616.40601,317.05296 1624.50781,318.648178 1624.50781,320.599193 L1624.50781,333.290565 L1624.50781,333.290565 L1624.50781,333.290565 Z" id="Shape" stroke="#979797" stroke-width="2" fill="#F1F1F1"></path>
                        <path d="M999.920987,90.1272565 C999.920987,86.1730952 995.646598,82.9376947 990.422631,82.9376947 L658.517379,82.9376947 C653.293412,82.9376947 649.019023,86.1730952 649.019023,90.1272565 L649.019023,105.507301 C649.019023,109.461463 653.293412,112.696863 658.517379,112.696863 L990.422631,112.696863 C995.646598,112.696863 999.920987,109.461463 999.920987,105.507301 L999.920987,90.1272565 L999.920987,90.1272565 Z" id="Shape" stroke="#979797" stroke-width="2" fill="#F1F1F1"></path>
                        <path d="M1013.63123,108.394546 C1013.63123,104.440385 1009.48185,101.204984 1004.41066,101.204984 L644.57121,101.204984 C639.500023,101.204984 635.350643,104.440385 635.350643,108.394546 L635.350643,116.943432 C635.350643,120.897594 639.500023,124.132994 644.57121,124.132994 L1004.41066,124.132994 C1009.48185,124.132994 1013.63123,120.897594 1013.63123,116.943432 L1013.63123,108.394546 L1013.63123,108.394546 Z" id="Shape" stroke="#979797" stroke-width="2" fill="#E5E5E5"></path>
                        <ellipse id="Oval" stroke="#979797" stroke-width="2" fill="#E5E5E5" cx="824.604675" cy="44.9912244" rx="25.9538969" ry="25.8840593"></ellipse>
                        <ellipse id="Oval" stroke="#979797" stroke-width="2" fill="#F1F1F1" cx="824.532764" cy="44.7339973" rx="19.991145" ry="19.9309721"></ellipse>
                        <polyline id="Path-2" stroke="#979797" stroke-width="4.2" stroke-linecap="round" stroke-linejoin="round" points="832.391602 33.0263672 824.454945 45.903567 817.063477 41.4521484"></polyline>
                    </g>
                    <path d="M1362.008,101 L1327.745,101 L1318.491,101 C1315.458,101 1313,98.531 1313,95.5 C1313,92.462 1315.47,90 1318.491,90 L1327.003,90 C1332.521,90 1337,85.523 1337,80 C1337,74.476 1332.524,70 1327.003,70 L1256.997,70 C1251.478,70 1247,74.477 1247,80 C1247,85.524 1251.476,90 1256.997,90 L1282,90 L1282,90.022 C1284.802,90.271 1287,92.634 1287,95.5 C1287,98.371 1284.793,100.729 1282,100.978 L1282,101 L1267.992,101 C1262.469,101 1258,105.477 1258,111 C1258,116.524 1262.473,121 1267.992,121 L1362.008,121 C1367.531,121 1372,116.523 1372,111 C1372,105.476 1367.526,101 1362.008,101 Z" id="Page-1" stroke="#969696" stroke-width="2" fill="#F1F1F1" fill-rule="evenodd"></path>
                    <g id="Rectangle-3-Copy-7" stroke="none" fill="none">
                        <use fill="#F1F1F1" fill-rule="evenodd" xlink:href="#path-9"></use>
                        <rect stroke="#979797" stroke-width="2" x="270" y="60" width="66" height="18" rx="9"></rect>
                    </g>
                    <g id="Rectangle-3-Copy-9" stroke="none" fill="none">
                        <use fill="#F1F1F1" fill-rule="evenodd" xlink:href="#path-10"></use>
                        <rect stroke="#979797" stroke-width="2" x="353" y="26" width="64" height="18" rx="9"></rect>
                    </g>
                    <g id="Rectangle-3-Copy-17" stroke="none" fill="none">
                        <use fill="#F1F1F1" fill-rule="evenodd" xlink:href="#path-11"></use>
                        <rect stroke="#979797" stroke-width="2" x="227" y="26" width="64" height="18" rx="9"></rect>
                    </g>
                    <path d="M1701.999,31 L1637.746,31 L1633.491,31 C1630.459,31 1628,28.531 1628,25.5 C1628,22.462 1630.471,20 1633.491,20 L1637.746,20 L1644.003,20 C1649.522,20 1654,15.523 1654,10 C1654,4.476 1649.525,0 1644.003,0 L1573.998,0 C1568.479,0 1564,4.477 1564,10 C1564,15.524 1568.476,20 1573.998,20 L1591.755,20 L1596.51,20 C1599.542,20 1602,22.469 1602,25.5 C1602,28.538 1599.53,31 1596.51,31 L1591.755,31 L1539.002,31 C1533.479,31 1529,35.477 1529,41 C1529,46.524 1533.478,51 1539.002,51 L1624.747,51 L1634.494,51 C1637.535,51 1640,53.469 1640,56.5 C1640,59.538 1637.542,62 1634.494,62 L1624.747,62 L1606.998,62 C1601.479,62 1597,66.477 1597,72 C1597,77.524 1601.476,82 1606.998,82 L1677.003,82 C1682.522,82 1687,77.523 1687,72 C1687,66.476 1682.525,62 1677.003,62 L1667.254,62 L1664.507,62 C1661.466,62 1659,59.531 1659,56.5 C1659,53.462 1661.459,51 1664.507,51 L1667.254,51 L1701.999,51 C1707.522,51 1712,46.523 1712,41 C1712,35.476 1707.523,31 1701.999,31" id="Fill-1" stroke="#979797" stroke-width="2" fill="#F1F1F1" fill-rule="evenodd"></path>
                    <path d="M787.999,72 L723.746,72 L719.491,72 C716.459,72 714,69.531 714,66.5 C714,63.462 716.471,61 719.491,61 L723.746,61 L730.003,61 C735.522,61 740,56.523 740,51 C740,45.476 735.525,41 730.003,41 L659.998,41 C654.479,41 650,45.477 650,51 C650,56.524 654.476,61 659.998,61 L677.755,61 L682.51,61 C685.542,61 688,63.469 688,66.5 C688,69.538 685.53,72 682.51,72 L677.755,72 L625.002,72 C619.479,72 615,76.477 615,82 C615,87.524 619.478,92 625.002,92 L710.747,92 L720.494,92 C723.535,92 726,94.469 726,97.5 C726,100.538 723.542,103 720.494,103 L710.747,103 L692.998,103 C687.479,103 683,107.477 683,113 C683,118.524 687.476,123 692.998,123 L763.003,123 C768.522,123 773,118.523 773,113 C773,107.476 768.525,103 763.003,103 L753.254,103 L750.507,103 C747.466,103 745,100.531 745,97.5 C745,94.462 747.459,92 750.507,92 L753.254,92 L787.999,92 C793.522,92 798,87.523 798,82 C798,76.476 793.523,72 787.999,72" id="Fill-1" stroke="#979797" stroke-width="2" fill="#F1F1F1" fill-rule="evenodd" transform="translate(706.500000, 82.000000) scale(1, -1) translate(-706.500000, -82.000000) "></path>
                    <g id="tree" stroke="none" stroke-width="1" fill="none" fill-rule="evenodd" transform="translate(1307.000000, 293.000000)">
                        <polygon id="Shape" stroke="#979797" stroke-width="2" fill="#FFFFFF" points="82.07225 72.059 76.7715 65.33175 53.49825 83.6695 53.49825 51.0305 37.59675 51.0305 37.59675 94.89 16.284 77.51875 10.87275 84.158 37.59675 105.93925 37.59675 124.2695 53.49825 124.2695 53.49825 94.57375"></polygon>
                        <path d="M16.284,77.51875 L10.87275,84.15775 L22.89075,93.953 C25.5375,92.50925 27.58625,90.2605 28.62925,87.581 L16.284,77.51875 L16.284,77.51875 Z" id="Shape" fill="#000000" opacity="0.2"></path>
                        <path d="M76.7715,65.33175 L64.17025,75.26075 C65.07425,78.00475 67.019,80.341 69.5915,81.8935 L82.072,72.05925 L76.7715,65.33175 L76.7715,65.33175 Z" id="Shape" fill="#000000" opacity="0.2"></path>
                        <path d="M38.59675,51.0305 L38.59675,77.92525 C40.8745178,78.28625 43.1968662,78.473 45.5465313,78.473 C47.8966334,78.473 50.2187633,78.28625 52.4967496,77.92525 L52.4967496,51.0305 L38.59675,51.0305 L38.59675,51.0305 Z" id="Shape" fill="#CCCCCC"></path>
                        <ellipse id="Oval" stroke="#979797" stroke-width="2" fill="#F1F1F1" cx="45.54775" cy="35.891" rx="42.707" ry="35.891"></ellipse>
                        <ellipse id="Oval" stroke="#979797" stroke-width="2" fill="#F1F1F1" cx="79.42125" cy="68.69525" rx="13.4035" ry="12.14375"></ellipse>
                        <ellipse id="Oval" stroke="#979797" stroke-width="2" fill="#F1F1F1" cx="13.57875" cy="80.839" rx="13.4035" ry="12.14375"></ellipse>
                        <path d="M65.9735,122.64675 C65.9735,121.17475 64.769,119.97025 63.29675,119.97025 L27.79775,119.97025 C26.32575,119.97025 25.12125,121.17475 25.12125,122.64675 L25.12125,125.3235 C25.12125,126.7955 26.32575,128 27.79775,128 L63.29725,128 C64.7695,128 65.974,126.7955 65.974,125.3235 L65.974,122.64675 L65.9735,122.64675 L65.9735,122.64675 Z" id="Shape" stroke="#979797" stroke-width="2" fill="#FFFFFF"></path>
                        <path d="M27.269,46.66775 C24.87725,44.2755 17.08025,41.898 16.682,42.29625 C16.284,42.6945 18.66175,50.49125 21.0535,52.8835 C23.44575,55.27525 26.77625,55.82325 28.4925,54.10675 C30.20875,52.3905 29.661,49.06 27.269,46.66775 L27.269,46.66775 Z" id="Shape" fill="#E5E5E5"></path>
                        <path d="M61.40225,50.0015 C63.79425,47.6095 66.17175,39.8125 65.77375,39.4145 C65.3755,39.01625 57.5785,41.394 55.18675,43.786 C52.79475,46.17825 52.24675,49.5085 53.96325,51.22475 C55.6795,52.94125 59.01025,52.39375 61.40225,50.0015 L61.40225,50.0015 Z" id="Shape" fill="#E5E5E5"></path>
                        <path d="M40.63225,22.24075 C40.63225,18.858 36.80025,11.66325 36.2375,11.66325 C35.6745,11.66325 31.8425,18.85775 31.8425,22.24075 C31.8425,25.62375 33.8105,28.366 36.2375,28.366 C38.66475,28.366 40.63225,25.624 40.63225,22.24075 L40.63225,22.24075 Z" id="Shape" fill="#E5E5E5"></path>
                        <path d="M70.69675,28.9545 C73.089,26.5625 75.4665,18.7655 75.0685,18.3675 C74.6705,17.9695 66.87325,20.34725 64.4815,22.73875 C62.08925,25.131 61.54175,28.46175 63.258,30.17775 C64.9745,31.89425 68.305,31.34675 70.69675,28.9545 L70.69675,28.9545 Z" id="Shape" fill="#E5E5E5"></path>
                    </g>
                    <g id="tree-copy" stroke="none" stroke-width="1" fill="none" fill-rule="evenodd" transform="translate(489.500000, 357.000000) scale(-1, 1) translate(-489.500000, -357.000000) translate(443.000000, 293.000000)">
                        <polygon id="Shape" stroke="#979797" stroke-width="2" fill="#FFFFFF" points="82.07225 72.059 76.7715 65.33175 53.49825 83.6695 53.49825 51.0305 37.59675 51.0305 37.59675 94.89 16.284 77.51875 10.87275 84.158 37.59675 105.93925 37.59675 124.2695 53.49825 124.2695 53.49825 94.57375"></polygon>
                        <path d="M16.284,77.51875 L10.87275,84.15775 L22.89075,93.953 C25.5375,92.50925 27.58625,90.2605 28.62925,87.581 L16.284,77.51875 L16.284,77.51875 Z" id="Shape" fill="#000000" opacity="0.2"></path>
                        <path d="M76.7715,65.33175 L64.17025,75.26075 C65.07425,78.00475 67.019,80.341 69.5915,81.8935 L82.072,72.05925 L76.7715,65.33175 L76.7715,65.33175 Z" id="Shape" fill="#000000" opacity="0.2"></path>
                        <path d="M38.59675,51.0305 L38.59675,77.92525 C40.8745178,78.28625 43.1968662,78.473 45.5465313,78.473 C47.8966334,78.473 50.2187633,78.28625 52.4967496,77.92525 L52.4967496,51.0305 L38.59675,51.0305 L38.59675,51.0305 Z" id="Shape" fill="#CCCCCC"></path>
                        <ellipse id="Oval" stroke="#979797" stroke-width="2" fill="#F1F1F1" cx="45.54775" cy="35.891" rx="42.707" ry="35.891"></ellipse>
                        <ellipse id="Oval" stroke="#979797" stroke-width="2" fill="#F1F1F1" cx="79.42125" cy="68.69525" rx="13.4035" ry="12.14375"></ellipse>
                        <ellipse id="Oval" stroke="#979797" stroke-width="2" fill="#F1F1F1" cx="13.57875" cy="80.839" rx="13.4035" ry="12.14375"></ellipse>
                        <path d="M65.9735,122.64675 C65.9735,121.17475 64.769,119.97025 63.29675,119.97025 L27.79775,119.97025 C26.32575,119.97025 25.12125,121.17475 25.12125,122.64675 L25.12125,125.3235 C25.12125,126.7955 26.32575,128 27.79775,128 L63.29725,128 C64.7695,128 65.974,126.7955 65.974,125.3235 L65.974,122.64675 L65.9735,122.64675 L65.9735,122.64675 Z" id="Shape" stroke="#979797" stroke-width="2" fill="#FFFFFF"></path>
                        <path d="M27.269,46.66775 C24.87725,44.2755 17.08025,41.898 16.682,42.29625 C16.284,42.6945 18.66175,50.49125 21.0535,52.8835 C23.44575,55.27525 26.77625,55.82325 28.4925,54.10675 C30.20875,52.3905 29.661,49.06 27.269,46.66775 L27.269,46.66775 Z" id="Shape" fill="#E5E5E5"></path>
                        <path d="M61.40225,50.0015 C63.79425,47.6095 66.17175,39.8125 65.77375,39.4145 C65.3755,39.01625 57.5785,41.394 55.18675,43.786 C52.79475,46.17825 52.24675,49.5085 53.96325,51.22475 C55.6795,52.94125 59.01025,52.39375 61.40225,50.0015 L61.40225,50.0015 Z" id="Shape" fill="#E5E5E5"></path>
                        <path d="M40.63225,22.24075 C40.63225,18.858 36.80025,11.66325 36.2375,11.66325 C35.6745,11.66325 31.8425,18.85775 31.8425,22.24075 C31.8425,25.62375 33.8105,28.366 36.2375,28.366 C38.66475,28.366 40.63225,25.624 40.63225,22.24075 L40.63225,22.24075 Z" id="Shape" fill="#E5E5E5"></path>
                        <path d="M70.69675,28.9545 C73.089,26.5625 75.4665,18.7655 75.0685,18.3675 C74.6705,17.9695 66.87325,20.34725 64.4815,22.73875 C62.08925,25.131 61.54175,28.46175 63.258,30.17775 C64.9745,31.89425 68.305,31.34675 70.69675,28.9545 L70.69675,28.9545 Z" id="Shape" fill="#E5E5E5"></path>
                    </g>
                    <g id="park" stroke="none" stroke-width="1" fill="none" fill-rule="evenodd" transform="translate(1391.000000, 247.000000)">
                        <path d="M184.9675,86.9545 L184.9675,81.9405 C188.6595,75.281 190.769,67.6215 190.769,59.4675 C190.769,33.8275 169.984,13.0425 144.344,13.0425 C139.883,13.0425 135.5745,13.685 131.4915,14.859 C123.038,6.005 111.1275,0.4805 97.9195,0.4805 C72.28,0.4805 51.4945,21.265 51.4945,46.9055 C51.4945,56.2585 54.27,64.9595 59.029,72.247 L59.029,86.9545 C33.3895,86.9545 12.604,107.739 12.604,133.3795 C12.604,159.0185 33.389,179.8045 59.029,179.8045 L184.9675,179.8045 C210.607,179.8045 231.3925,159.0185 231.3925,133.3795 C231.3925,107.7395 210.607,86.9545 184.9675,86.9545 L184.9675,86.9545 Z" id="Shape" stroke="#979797" stroke-width="2" fill="#F1F1F1"></path>
                        <path d="M184.9675,86.9545 L184.9675,81.9405 C188.6595,75.281 190.769,67.6215 190.769,59.4675 C190.769,50.799 188.387,42.6905 184.2515,35.748 C160.517,38.397 142.2035,55.47 142.2035,76.1405 C142.2035,96.0535 159.2005,112.629 181.667,116.1835 L181.667,179.804 L184.9675,179.804 C190.127,179.804 195.085,178.95 199.722,177.3955 L199.722,142.0115 L221.657,125.383 C223.8705,126.521 226.4285,127.174 229.156,127.174 C229.765,127.174 230.3645,127.138 230.9545,127.0745 C227.877,104.4195 208.468,86.9545 184.9675,86.9545 L184.9675,86.9545 Z M199.722,131.7315 L199.722,116.1835 C204.8185,115.377 209.633,113.9015 214.031,111.8685 C213.971,112.3675 213.937,112.8735 213.937,113.3875 C213.937,115.655 214.5455,117.794 215.6165,119.681 L199.722,131.7315 L199.722,131.7315 Z" id="Shape" fill="#CCCCCC"></path>
                        <path d="M67.3355,35.3905 C62.1555,35.3905 57.1665,36.0755 52.486,37.339 C51.8395,40.427 51.4945,43.6255 51.4945,46.906 C51.4945,56.259 54.27,64.96 59.029,72.2475 L59.029,86.955 C46.841,86.955 35.756,91.658 27.473,99.34 C27.556,99.4405 27.6345,99.545 27.7195,99.644 C27.5105,99.659 27.302,99.6785 27.095,99.7005 C21.578,104.933 17.348,111.5015 14.9215,118.8945 C17.268,123.7675 22.6305,127.1745 28.874,127.1745 C31.6015,127.1745 34.1595,126.522 36.373,125.3835 L58.308,142.012 L58.308,179.7865 C58.549,179.79 58.787,179.8045 59.029,179.8045 L76.363,179.8045 L76.363,116.184 C98.8295,112.6295 115.8265,96.0545 115.8265,76.141 C115.8265,53.635 94.1165,35.3905 67.3355,35.3905 L67.3355,35.3905 Z M58.308,131.7315 L42.413,119.6815 C43.484,117.7945 44.0925,115.6555 44.0925,113.388 C44.0925,112.874 44.0585,112.3685 43.9985,111.869 C48.397,113.9025 53.2115,115.3775 58.3075,116.184 L58.3075,131.7315 L58.308,131.7315 Z" id="Shape" fill="#CCCCCC"></path>
                        <polygon id="Shape" stroke="#979797" stroke-width="2" fill="#FFFFFF" points="50.0015 93.3305 50.0015 131.731 26.1205 113.6275 21.171 120.156 50.0015 142.012 50.0015 179.8045 68.0555 179.8045 68.0555 93.3305"></polygon>
                        <ellipse id="Oval" stroke="#979797" stroke-width="2" fill="#F1F1F1" cx="20.5675" cy="113.3885" rx="15.2185" ry="13.7855"></ellipse>
                        <path d="M68.0555,93.3305 L68.0555,123.867 C65.097,124.2765 62.0805,124.489 59.0285,124.489 C55.976,124.489 52.96,124.2765 50.001,123.867 L50.001,93.3305 L68.0555,93.3305 L68.0555,93.3305 Z" id="Shape" fill="#000000" opacity="0.2"></path>
                        <ellipse id="Oval" stroke="#979797" stroke-width="2" fill="#FFFFFF" cx="59.0275" cy="76.1395" rx="48.4895" ry="40.75"></ellipse>
                        <polygon id="Shape" stroke="#979797" stroke-width="2" fill="#FFFFFF" points="222.825 120.156 217.8755 113.6275 193.995 131.731 193.995 93.3305 175.9405 93.3305 175.9405 179.8045 193.995 179.8045 193.995 142.012"></polygon>
                        <ellipse id="Oval" stroke="#979797" stroke-width="2" fill="#F1F1F1" cx="223.426" cy="113.3885" rx="15.2185" ry="13.7855"></ellipse>
                        <path d="M175.9405,93.3305 L175.9405,123.867 C178.899,124.2765 181.9155,124.489 184.9675,124.489 C188.02,124.489 191.036,124.2765 193.995,123.867 L193.995,93.3305 L175.9405,93.3305 L175.9405,93.3305 Z" id="Shape" fill="#000000" opacity="0.2"></path>
                        <ellipse id="Oval" stroke="#979797" stroke-width="2" fill="#FFFFFF" cx="184.97" cy="76.1395" rx="48.4895" ry="40.75"></ellipse>
                        <rect id="Rectangle-path" stroke="#979797" stroke-width="2" fill="#FFFFFF" x="5.6645" y="142.0625" width="71.729" height="31.584"></rect>
                        <rect id="Rectangle-path" fill="#CCCCCC" opacity="0.492583786" x="5.6645" y="142.0625" width="71.729" height="12.7555"></rect>
                        <path d="M77.392,134.782 L5.6645,134.782 C2.6605,134.782 0.203,137.24 0.203,140.2435 L0.203,143.8855 C0.203,146.8895 2.661,149.347 5.6645,149.347 L77.392,149.347 L77.392,134.782 L77.392,134.782 L77.392,134.782 Z" id="Shape" stroke="#979797" stroke-width="2" fill="#FFFFFF"></path>
                        <rect id="Rectangle-path" fill="#CCCCCC" opacity="0.347248641" x="56.433" y="134.782" width="20.9565" height="38.866"></rect>
                        <circle id="Oval" fill="#000000" opacity="0.1" cx="11.9455" cy="156.733" r="1.9115"></circle>
                        <circle id="Oval" fill="#000000" opacity="0.1" cx="32.243" cy="158.6445" r="1.9115"></circle>
                        <circle id="Oval" fill="#000000" opacity="0.1" cx="43.4395" cy="164.5815" r="1.9115"></circle>
                        <circle id="Oval" fill="#000000" opacity="0.1" cx="51.4955" cy="154.821" r="1.9115"></circle>
                        <rect id="Rectangle-path" stroke="#979797" stroke-width="2" fill="#FFFFFF" x="166.602" y="142.0625" width="71.729" height="31.584"></rect>
                        <rect id="Rectangle-path" fill="#CCCCCC" opacity="0.492583786" x="166.602" y="142.0625" width="71.729" height="12.7555"></rect>
                        <path d="M166.604,134.782 L238.3315,134.782 C241.3355,134.782 243.793,137.24 243.793,140.2435 L243.793,143.8855 C243.793,146.8895 241.335,149.347 238.3315,149.347 L166.604,149.347 L166.604,134.782 L166.604,134.782 Z" id="Shape" stroke="#979797" stroke-width="2" fill="#FFFFFF"></path>
                        <rect id="Rectangle-path" fill="#CCCCCC" opacity="0.347248641" x="166.602" y="134.782" width="20.9565" height="38.866"></rect>
                        <circle id="Oval" fill="#000000" opacity="0.1" cx="232.05" cy="156.733" r="1.9115"></circle>
                        <circle id="Oval" fill="#000000" opacity="0.1" cx="211.7485" cy="158.6445" r="1.9115"></circle>
                        <circle id="Oval" fill="#000000" opacity="0.1" cx="200.5575" cy="164.5815" r="1.9115"></circle>
                        <circle id="Oval" fill="#000000" opacity="0.1" cx="192.5015" cy="154.821" r="1.9115"></circle>
                        <path d="M177.5275,173.6495 L155.6805,173.6495 L155.6805,87.822 C155.6805,69.25 140.5705,54.1395 121.998,54.1395 C103.4255,54.1395 88.3155,69.25 88.3155,87.822 L88.3155,173.649 L66.4685,173.649 L66.4685,87.822 C66.4685,57.203 91.379,32.2925 121.998,32.2925 C152.617,32.2925 177.5275,57.203 177.5275,87.822 L177.5275,173.6495 L177.5275,173.6495 Z" id="Shape" stroke="#979797" stroke-width="2" fill="#FFFFFF"></path>
                        <path d="M66.4685,87.822 L66.4685,91.917 L88.3155,91.917 L88.3155,87.822 C88.3155,86.434 88.4095,85.0685 88.574,83.7245 L66.6205,83.7245 C66.521,85.078 66.4685,86.444 66.4685,87.822 L66.4685,87.822 Z M117.9035,32.4445 L117.9035,54.3975 C119.2465,54.2335 120.611,54.1395 121.998,54.1395 C123.386,54.1395 124.7515,54.234 126.096,54.398 L126.096,32.4445 C124.7425,32.345 123.376,32.293 121.998,32.293 C120.621,32.2925 119.2555,32.345 117.9035,32.4445 L117.9035,32.4445 Z M66.4685,146.539 L88.3155,146.539 L88.3155,138.3465 L66.4685,138.3465 L66.4685,146.539 L66.4685,146.539 Z M66.4685,119.228 L88.3155,119.228 L88.3155,111.0355 L66.4685,111.0355 L66.4685,119.228 L66.4685,119.228 Z M79.9615,51.579 L95.4785,67.0955 C97.1685,64.9375 99.1145,62.9915 101.272,61.302 L85.755,45.7865 C83.685,47.573 81.7485,49.5095 79.9615,51.579 L79.9615,51.579 Z M158.244,45.7875 L142.7275,61.303 C144.885,62.9935 146.8305,64.939 148.52,67.097 L164.037,51.5805 C162.25,49.511 160.3135,47.5745 158.244,45.7875 L158.244,45.7875 Z M177.3765,83.7245 L155.423,83.7245 C155.587,85.0685 155.6815,86.434 155.6815,87.822 L155.6815,91.917 L177.5285,91.917 L177.5285,87.822 C177.5275,86.444 177.475,85.078 177.3765,83.7245 L177.3765,83.7245 Z M155.6805,119.228 L177.5275,119.228 L177.5275,111.0355 L155.6805,111.0355 L155.6805,119.228 L155.6805,119.228 Z M155.6805,146.539 L177.5275,146.539 L177.5275,138.3465 L155.6805,138.3465 L155.6805,146.539 L155.6805,146.539 Z" id="Shape" fill="#000000" opacity="0.1"></path>
                        <circle id="Oval" fill="#000000" opacity="0.1" cx="22.412" cy="168.4045" r="1.9115"></circle>
                        <path d="M135.594,159.6005 C140.334,154.861 145.0455,139.41 144.257,138.621 C143.468,137.832 128.017,142.5435 123.2775,147.284 C118.5375,152.025 117.4515,158.6235 120.853,162.025 C124.253,165.4255 130.8535,164.341 135.594,159.6005 L135.594,159.6005 Z" id="Shape" fill="#E5E5E5"></path>
                        <path d="M111.839,129.217 C107.099,124.4775 102.3875,109.0265 103.176,108.2375 C103.965,107.4485 119.416,112.16 124.1555,116.9005 C128.8955,121.6415 129.9815,128.24 126.58,131.6415 C123.18,135.0425 116.5795,133.958 111.839,129.217 L111.839,129.217 Z" id="Shape" fill="#E5E5E5"></path>
                        <path d="M208.9195,81.413 C213.6595,76.672 218.371,61.2215 217.5825,60.4335 C216.7935,59.6445 201.3425,64.356 196.603,69.0965 C191.863,73.8375 190.777,80.436 194.1785,83.8365 C197.579,87.2385 204.1795,86.1525 208.9195,81.413 L208.9195,81.413 Z" id="Shape" fill="#F1F1F1"></path>
                        <path d="M34.811,86.332 C30.071,81.5925 25.3595,66.1415 26.148,65.3525 C26.937,64.5635 42.388,69.275 47.1275,74.0155 C51.8675,78.7565 52.9535,85.355 49.552,88.7565 C46.152,92.1575 39.5515,91.0725 34.811,86.332 L34.811,86.332 Z" id="Shape" fill="#F1F1F1"></path>
                    </g>
                    <g id="taxi" stroke="none" stroke-width="1" fill="none" fill-rule="evenodd" transform="translate(128.000000, 359.000000) scale(-1, 1) translate(-128.000000, -359.000000) translate(0.000000, 296.000000)">
                        <path d="M161.738,16.592 C162.216,19.5645 160.1435,21.9965 157.133,21.9965 L140.756,21.9965 C137.7455,21.9965 135.673,19.5645 136.151,16.592 L137.932,5.5055 C138.41,2.533 141.264,0.101 144.2745,0.101 L153.6155,0.101 C156.626,0.101 159.48,2.533 159.9575,5.5055 L161.738,16.592 L161.738,16.592 Z" id="Shape" stroke="#979797" stroke-width="2" fill="#F1F1F1"></path>
                        <path d="M161.738,16.592 L160.8475,11.0485 L137.0415,11.0485 L136.151,16.592 C135.673,19.5645 137.7455,21.9965 140.756,21.9965 L157.133,21.9965 C160.144,21.996 162.2165,19.5635 161.738,16.592 L161.738,16.592 Z" id="Shape" fill="#000000" opacity="0.1"></path>
                        <path d="M241.794,66.5555 C240.9505,58.86 235.592,52.7725 228.0115,52.7725 L200.349,52.7725 L183.69,26.3855 C179.643,19.9755 170.1295,14.7305 162.5495,14.7305 L65.16,14.7305 C57.579,14.7305 49.668,20.693 47.579,27.98 L40.505,52.661 C40.494,52.698 40.487,52.735 40.476,52.772 L24.681,52.772 C17.1005,52.772 10.898,58.974 10.898,66.555 L10.898,94.4435 L245.102,94.4435 L241.794,66.5555 L241.794,66.5555 Z" id="Shape" stroke="#979797" stroke-width="2" fill="#F1F1F1"></path>
                        <path d="M63.2525,64.275 C45.8035,64.275 31.443,77.4815 29.611,94.444 L96.894,94.444 C95.062,77.4815 80.701,64.275 63.2525,64.275 L63.2525,64.275 Z" id="Shape" stroke="#979797" stroke-width="2" fill="#CCCCCC"></path>
                        <ellipse id="Oval" stroke="#979797" stroke-width="2" fill="#FFFFFF" cx="63.25" cy="98.1195" rx="27.779" ry="27.779"></ellipse>
                        <ellipse id="Oval" stroke="#979797" stroke-width="2" fill="#F1F1F1" cx="63.25" cy="98.1195" rx="14.081" ry="14.081"></ellipse>
                        <path d="M185.4825,64.275 C168.033,64.275 153.6725,77.4815 151.8405,94.444 L219.1235,94.444 C217.292,77.4815 202.931,64.275 185.4825,64.275 L185.4825,64.275 Z" id="Shape" stroke="#979797" stroke-width="2" fill="#CCCCCC"></path>
                        <ellipse id="Oval" stroke="#979797" stroke-width="2" fill="#FFFFFF" cx="185.4805" cy="98.1195" rx="27.7795" ry="27.7795"></ellipse>
                        <path d="M21.7955,95.854 C21.7955,98.6745 19.4875,100.9825 16.667,100.9825 L5.128,100.9825 C2.308,100.9825 0,98.6745 0,95.854 L0,87.52 C0,84.7 2.308,82.3915 5.128,82.3915 L16.6675,82.3915 C19.488,82.3915 21.796,84.7 21.796,87.52 L21.796,95.854 L21.7955,95.854 Z" id="Shape" stroke="#979797" stroke-width="2" fill="#CCCCCC"></path>
                        <rect id="Rectangle-path" fill="#CCCCCC" opacity="0.679461051" x="11.898" y="68.9935" width="14.916" height="13.3995"></rect>
                        <path d="M22.6865,82.3915 L27.227,82.3915 C28.2855,82.3915 29.151,81.5265 29.151,80.468 L29.151,70.9155 C29.151,69.8575 28.2855,68.992 27.227,68.992 L22.6865,68.992 L22.6865,82.3915 L22.6865,82.3915 Z" id="Shape" fill="#FFFFFF"></path>
                        <path d="M120.9755,31.579 C120.9755,28.5685 123.4385,26.105 126.4495,26.105 L163.318,26.105 C166.3285,26.105 170.135,28.1695 171.7775,30.6935 L180.308,43.804 C181.95,46.3275 180.83,48.3925 177.8195,48.3925 L126.4495,48.3925 C123.439,48.3925 120.9755,45.9295 120.9755,42.9185 L120.9755,31.5785 L120.9755,31.5785 L120.9755,31.579 Z" id="Shape" fill="#00B3E3"></path>
                        <path d="M120.9755,31.579 C120.9755,28.5685 123.4385,26.105 126.4495,26.105 L163.318,26.105 C166.3285,26.105 170.135,28.1695 171.7775,30.6935 L180.308,43.804 C181.95,46.3275 180.83,48.3925 177.8195,48.3925 L126.4495,48.3925 C123.439,48.3925 120.9755,45.9295 120.9755,42.9185 L120.9755,31.5785 L120.9755,31.5785 L120.9755,31.579 Z" id="Shape" stroke="#979797" stroke-width="2" fill="#FFFFFF"></path>
                        <path d="M65.939,31.317 C66.86,28.4515 70.078,26.106 73.0885,26.106 L104.209,26.106 C107.2195,26.106 109.683,28.569 109.683,31.58 L109.683,42.92 C109.683,45.9305 107.22,48.394 104.209,48.394 L65.9235,48.394 C62.913,48.394 61.2035,46.0485 62.125,43.1825 L65.939,31.317 L65.939,31.317 Z" id="Shape" stroke="#979797" stroke-width="2" fill="#FFFFFF"></path>
                        <path d="M171.777,30.694 C170.135,28.1705 166.3285,26.1055 163.3175,26.1055 L126.449,26.1055 C123.4385,26.1055 120.975,28.5685 120.975,31.5795 L120.975,36.6785 C120.975,33.668 123.438,31.2045 126.449,31.2045 L167.6965,31.2045 C169.505,31.2045 171.5975,31.952 173.339,33.094 L171.777,30.694 L171.777,30.694 Z" id="Shape" stroke="#979797" stroke-width="2" fill="#CCCCCC"></path>
                        <path d="M104.208,26.1055 L73.0875,26.1055 C70.077,26.1055 66.8595,28.451 65.938,31.3165 L65.024,34.159 C66.4725,32.416 68.736,31.204 70.8975,31.204 L104.2075,31.204 C107.218,31.204 109.6815,33.667 109.6815,36.678 L109.6815,31.579 C109.682,28.5685 107.2185,26.1055 104.208,26.1055 L104.208,26.1055 Z" id="Shape" stroke="#979797" stroke-width="2" fill="#CCCCCC"></path>
                        <rect id="Rectangle-path" fill="#F1F1F1" x="87.636" y="59.5455" width="7.881" height="7.882"></rect>
                        <rect id="Rectangle-path" fill="#F1F1F1" x="95.5185" y="67.428" width="7.881" height="7.881"></rect>
                        <rect id="Rectangle-path" fill="#F1F1F1" x="103.4005" y="59.5455" width="7.882" height="7.882"></rect>
                        <rect id="Rectangle-path" fill="#F1F1F1" x="111.283" y="67.428" width="7.881" height="7.881"></rect>
                        <rect id="Rectangle-path" fill="#F1F1F1" x="119.165" y="59.5455" width="7.882" height="7.882"></rect>
                        <rect id="Rectangle-path" fill="#F1F1F1" x="127.0475" y="67.428" width="7.881" height="7.881"></rect>
                        <rect id="Rectangle-path" fill="#F1F1F1" x="134.9245" y="59.5455" width="7.881" height="7.882"></rect>
                        <rect id="Rectangle-path" fill="#F1F1F1" x="142.8065" y="67.428" width="7.882" height="7.881"></rect>
                        <rect id="Rectangle-path" fill="#F1F1F1" x="150.689" y="59.5455" width="7.881" height="7.882"></rect>
                        <rect id="Rectangle-path" fill="#FFFFFF" x="150.689" y="67.428" width="7.881" height="7.881"></rect>
                        <rect id="Rectangle-path" fill="#FFFFFF" x="142.8065" y="59.5455" width="7.882" height="7.882"></rect>
                        <rect id="Rectangle-path" fill="#FFFFFF" x="134.9245" y="67.428" width="7.881" height="7.881"></rect>
                        <rect id="Rectangle-path" fill="#FFFFFF" x="127.0475" y="59.5455" width="7.881" height="7.882"></rect>
                        <rect id="Rectangle-path" fill="#FFFFFF" x="119.165" y="67.428" width="7.882" height="7.881"></rect>
                        <rect id="Rectangle-path" fill="#FFFFFF" x="111.283" y="59.5455" width="7.881" height="7.882"></rect>
                        <rect id="Rectangle-path" fill="#FFFFFF" x="103.4005" y="67.428" width="7.882" height="7.881"></rect>
                        <rect id="Rectangle-path" fill="#FFFFFF" x="95.5185" y="59.5455" width="7.881" height="7.882"></rect>
                        <rect id="Rectangle-path" fill="#FFFFFF" x="87.636" y="67.428" width="7.881" height="7.881"></rect>
                    </g>
                    <path d="M1689.50413,437.912995 C1689.50413,439.863358 1680.48158,441.45988 1669.45115,441.45988 L85.2326663,441.45988 C74.2059227,441.45988 65.1796875,439.86401 65.1796875,437.912995 L65.1796875,425.221623 C65.1796875,423.27126 74.2022385,421.675389 85.2326663,421.675389 L1669.45483,421.675389 C1680.48158,421.675389 1689.50781,423.270608 1689.50781,425.221623 L1689.50781,437.912995 L1689.50413,437.912995 L1689.50413,437.912995 Z" id="Shape" stroke="#979797" stroke-width="2" fill="#FFFFFF" fill-rule="evenodd"></path>
                </g>
            </g>
        </g>
    </g>
</svg>