<?xml version="1.0" encoding="UTF-8"?>
<svg width="271px" height="128px" viewBox="0 0 271 128" version="1.1" xmlns="http://www.w3.org/2000/svg" xmlns:xlink="http://www.w3.org/1999/xlink">
    <!-- Generator: Sketch 43.1 (39012) - http://www.bohemiancoding.com/sketch -->
    <title>Group 6</title>
    <desc>Created with Sketch.</desc>
    <defs></defs>
    <g id="Page-1" stroke="none" stroke-width="1" fill="none" fill-rule="evenodd">
        <g id="Group-6" fill="#5F5F5F">
            <path d="M135.25,51.4015748 L135.25,51.4083252 C156.366688,51.4083252 173.486699,68.6117396 173.499992,89.7253919 C173.487139,110.562926 157.149929,127.594993 136.731,127.992884 L57.5,128 L44,102.80315 L136,102.80315 C142.847548,102.80315 148.5,96.9922513 148.5,89.7007874 C148.5,82.4093235 142.847548,76.5984252 136,76.5984252 L94,76.5984252 L81,51.4015748 L135.25,51.4015748 Z M147.937616,42.2012028 C148.302861,40.9709798 148.5,39.6609148 148.5,38.2992126 C148.5,31.0077487 142.847548,25.1968504 136,25.1968504 L84.8788589,25.1968504 L31,127.677165 L0,127.677165 L66,0 L136.731,0 C157.157967,0.405163544 173.5,17.4504849 173.5,38.2992126 C173.5,44.3079282 172.142592,50.000724 169.7212,55.0701304 C163.826301,49.1204707 156.413413,44.5332965 147.937616,42.2012028 Z" id="Combined-Shape"></path>
            <polygon id="Combined-Shape-Copy-14" points="206.0005 64 239.5005 0 208.4995 0 175 64 206.0005 64"></polygon>
            <polygon id="Combined-Shape-Copy-15" transform="translate(238.250250, 96.000000) scale(-1, 1) translate(-238.250250, -96.000000) " points="237.0005 128 270.5005 64 239.4995 64 206 128 237.0005 128"></polygon>
        </g>
    </g>
</svg>