<?xml version="1.0" encoding="UTF-8" standalone="no"?>
<svg width="803px" height="231px" viewBox="0 0 803 231" version="1.1" xmlns="http://www.w3.org/2000/svg" xmlns:xlink="http://www.w3.org/1999/xlink">
    <!-- Generator: Sketch 39.1 (31720) - http://www.bohemiancoding.com/sketch -->
    <title>Group 58 Copy</title>
    <desc>Created with Sketch.</desc>
    <defs>
        <linearGradient x1="101.153675%" y1="44.362098%" x2="28.8108613%" y2="44.362098%" id="linearGradient-1">
            <stop stop-color="#FFFB99" offset="0%"></stop>
            <stop stop-color="#F73375" offset="100%"></stop>
        </linearGradient>
        <path d="M561.458768,129.17661 L564.418252,129.17661 L613.863996,116.475021 C618.073777,115.393615 622.218682,111.07416 623.126568,106.805301 L627.565969,85.9313429 C628.289766,82.5280684 628.18347,77.0311924 627.332505,73.6693508 L619.702477,43.5259831 C618.421817,38.4665773 613.233983,33.4926056 608.144532,32.4224895 L458.347906,0.926008903 C456.649201,0.568836383 453.860579,0.27661617 452.125394,0.273328251 L315.750064,0.0149171492 C311.402224,0.00667863521 304.640696,1.40984062 300.656223,3.1452845 L219.861946,38.3353691 L27.6627049,59.1980578 C23.3406059,59.6672095 18.2766969,63.1998774 16.3442775,67.1043941 L1.01618358,98.0753108 C-0.912712225,101.972708 0.572025774,106.904743 4.33604732,109.093418 L19.5306012,117.928631 L19.5306012,121.303396 C19.5306012,125.651652 23.0638361,129.17661 27.403759,129.17661 L71.8220073,129.17661 C71.6686021,127.483675 71.5902192,125.769014 71.5902192,124.035997 C71.5902192,93.0568475 96.6371695,67.943285 127.534148,67.943285 C158.431127,67.943285 183.478078,93.0568475 183.478078,124.035997 C183.478078,125.769014 183.399695,127.483675 183.24629,129.17661 L450.034486,129.17661 C449.881081,127.483675 449.802698,125.769014 449.802698,124.035997 C449.802698,93.0568475 474.849648,67.943285 505.746627,67.943285 C536.643606,67.943285 561.690556,93.0568475 561.690556,124.035997 C561.690556,125.769014 561.612174,127.483675 561.458768,129.17661 Z" id="path-2"></path>
        <path d="M7.75671054,34.3709041 C-1.74922701,34.3677088 -2.42593792,31.2167003 6.2564679,27.3278983 L64.40289,1.28443386 C65.9866852,0.575060626 68.6781001,0 70.4178229,0 L164.717601,0 C168.193986,0 171.012152,2.81720608 171.012152,6.2941927 L171.012152,28.1315875 C171.012152,31.6077742 168.195576,34.4248335 164.721366,34.4236657 L7.75671054,34.3709041 Z" id="path-4"></path>
        <path d="M15.9678248,0.0442065483 C17.7120995,0.0197919458 19.1261135,1.41459486 19.1261135,3.14153247 L19.1261135,16.5941373 C19.1261135,30.513031 30.4106799,41.7965237 44.3352952,41.7965237 L119.993228,41.7965237 C146.086202,41.7965237 167.238737,62.9542654 167.238737,89.0487431 L167.238737,129.687506 C167.238737,131.425511 165.885011,133.25895 164.232212,133.777242 L151.594328,137.740284 C149.103172,138.521471 147.083691,137.029396 147.083691,134.426742 L147.083691,93.4470143 C147.083691,76.0493207 132.980688,61.9457034 115.575683,61.9457034 L40.9465783,61.9457034 C18.3324075,61.9457034 -9.22594094e-17,43.607264 -6.08819552e-19,20.9986383 L7.0687245e-17,3.41112414 C7.77248682e-17,1.6750634 1.40638879,0.248022886 3.15828865,0.223501554 L15.9678248,0.0442065483 Z" id="path-6"></path>
        <filter x="-50%" y="-50%" width="200%" height="200%" filterUnits="objectBoundingBox" id="filter-8">
            <feOffset dx="-2" dy="2" in="SourceAlpha" result="shadowOffsetOuter1"></feOffset>
            <feColorMatrix values="0 0 0 0 0.52080676   0 0 0 0 0.52080676   0 0 0 0 0.52080676  0 0 0 1 0" type="matrix" in="shadowOffsetOuter1"></feColorMatrix>
        </filter>
    </defs>
    <g id="Page-1" stroke="none" stroke-width="1" fill="none" fill-rule="evenodd">
        <g id="Group-58-Copy" transform="translate(2.000000, 0.000000)">
            <g id="Group-57" transform="translate(579.025295, 32.818182)">
                <path d="M73.8053464,156.424463 L30.7342028,156.424463 C28.674344,156.424463 27.0132944,158.091493 27.0132944,160.147879 C27.0132944,162.20008 28.6792018,163.871295 30.7342028,163.871295 L95.6750719,163.871295 L73.5105955,163.871295 C71.4521748,163.871295 69.783495,162.20008 69.783495,160.147879 C69.783495,158.091493 71.4528763,156.424463 73.5105955,156.424463 L84.5928337,156.424463 L114.360376,156.424463 C116.43458,156.424463 118.093288,154.757433 118.093288,152.701047 C118.093288,150.648845 116.422006,148.977631 114.360376,148.977631 L51.9356209,148.977631 C49.8614159,148.977631 48.2027087,150.644661 48.2027087,152.701047 C48.2027087,154.753248 49.8739904,156.424463 51.9356209,156.424463 L73.8053464,156.424463 Z M97.4988722,141.530799 L40.0005227,141.530799 L62.3193256,141.530799 C64.3737615,141.530799 66.0392109,143.202013 66.0392109,145.254215 C66.0392109,147.310601 64.3665128,148.977631 62.3193256,148.977631 L40.0005227,148.977631 L121.040851,148.977631 L95.2728922,148.977631 C93.2184563,148.977631 91.5530069,147.306416 91.5530069,145.254215 C91.5530069,143.197829 93.225705,141.530799 95.2728922,141.530799 L108.156871,141.530799 L139.463005,141.530799 C141.519917,141.530799 143.180438,139.863769 143.180438,137.807383 C143.180438,135.755181 141.516087,134.083967 139.463005,134.083967 L73.9568938,134.083967 C71.8999821,134.083967 70.2394604,135.750997 70.2394604,137.807383 C70.2394604,139.859584 71.903812,141.530799 73.9568938,141.530799 L97.4988722,141.530799 Z M93.9639665,126.637135 L63.5029751,126.637135 C61.4418646,126.637135 59.7800431,128.304165 59.7800431,130.360551 C59.7800431,132.412752 61.4468565,134.083967 63.5029751,134.083967 L122.525845,134.083967 L114.434971,134.083967 C112.3784,134.083967 110.71122,132.412752 110.71122,130.360551 C110.71122,128.304165 112.378241,126.637135 114.434971,126.637135 L118.480408,126.637135 L130.908199,126.637135 C132.965111,126.637135 134.625632,124.970105 134.625632,122.913719 C134.625632,120.861517 132.961281,119.190303 130.908199,119.190303 L65.4020877,119.190303 C63.345176,119.190303 61.6846543,120.857333 61.6846543,122.913719 C61.6846543,124.965921 63.3490059,126.637135 65.4020877,126.637135 L93.9639665,126.637135 Z M123.282685,96.8498072 L118.487248,96.8498072 C116.430518,96.8498072 114.763496,98.5168373 114.763496,100.573223 C114.763496,102.625425 116.430677,104.296639 118.487248,104.296639 L128.078122,104.296639 L80.1461254,104.296639 L89.7369991,104.296639 C91.7937292,104.296639 93.460751,102.629609 93.460751,100.573223 C93.460751,98.5210216 91.7935705,96.8498072 89.7369991,96.8498072 L84.9415622,96.8498072 L75.7712723,96.8498072 C73.7108083,96.8498072 72.0404722,95.1785927 72.0404722,93.1263912 C72.0404722,91.0700053 73.6998603,89.4029752 75.7712723,89.4029752 L151.381342,89.4029752 C153.441806,89.4029752 155.112142,91.0741897 155.112142,93.1263912 C155.112142,95.182777 153.452754,96.8498072 151.381342,96.8498072 L123.282685,96.8498072 Z M101.820572,81.9561433 L70.3603688,81.9561433 C68.2992583,81.9561433 66.6374368,83.6231734 66.6374368,85.6795592 C66.6374368,87.7317608 68.3042502,89.4029752 70.3603688,89.4029752 L127.883239,89.4029752 L118.292365,89.4029752 C116.235794,89.4029752 114.568613,87.7317608 114.568613,85.6795592 C114.568613,83.6231734 116.235635,81.9561433 118.292365,81.9561433 L123.087802,81.9561433 L141.264017,81.9561433 C143.320929,81.9561433 144.98145,80.2891131 144.98145,78.2327273 C144.98145,76.1805257 143.317099,74.5093113 141.264017,74.5093113 L75.7579056,74.5093113 C73.7009939,74.5093113 72.0404722,76.1763414 72.0404722,78.2327273 C72.0404722,80.2849288 73.7048238,81.9561433 75.7579056,81.9561433 L101.820572,81.9561433 Z M96.856808,37.2751515 L59.8847426,37.2751515 L69.4756163,37.2751515 C71.5321877,37.2751515 73.1993682,38.946366 73.1993682,40.9985675 C73.1993682,43.0549534 71.5323464,44.7219835 69.4756163,44.7219835 L59.8847426,44.7219835 L107.816739,44.7219835 L98.2258653,44.7219835 C96.1692938,44.7219835 94.5021133,43.050769 94.5021133,40.9985675 C94.5021133,38.9421816 96.1691352,37.2751515 98.2258653,37.2751515 L103.021302,37.2751515 L179.752364,37.2751515 C181.80423,37.2751515 183.478078,35.6081214 183.478078,33.5517355 C183.478078,31.499534 181.810019,29.8283196 179.752364,29.8283196 L85.8968771,29.8283196 C83.8450113,29.8283196 82.1711636,31.4953497 82.1711636,33.5517355 C82.1711636,35.6039371 83.8392223,37.2751515 85.8968771,37.2751515 L96.856808,37.2751515 Z M129.578122,111.743471 L73.5552517,111.743471 C71.4941412,111.743471 69.8323197,113.410501 69.8323197,115.466887 C69.8323197,117.519089 71.4991331,119.190303 73.5552517,119.190303 L129.578122,119.190303 L118.487248,119.190303 C116.430677,119.190303 114.763496,117.519089 114.763496,115.466887 C114.763496,113.410501 116.430518,111.743471 118.487248,111.743471 L129.578122,111.743471 Z M148.370703,67.0624793 L71.7044253,67.0624793 C69.6454552,67.0624793 67.9881956,68.7295095 67.9881956,70.7858953 C67.9881956,72.8380968 69.6520083,74.5093113 71.7044253,74.5093113 L148.370703,74.5093113 L134.622629,74.5093113 C132.560998,74.5093113 130.889717,72.8380968 130.889717,70.7858953 C130.889717,68.7295095 132.548424,67.0624793 134.622629,67.0624793 L148.370703,67.0624793 Z M51.1051293,52.1688154 L131.478438,52.1688154 L112.876414,52.1688154 C110.817839,52.1688154 109.152787,53.8358455 109.152787,55.8922314 C109.152787,57.9444329 110.819911,59.6156474 112.876414,59.6156474 L131.478438,59.6156474 L51.1051293,59.6156474 L69.7071535,59.6156474 C71.7657287,59.6156474 73.4307806,57.9486173 73.4307806,55.8922314 C73.4307806,53.8400299 71.7636559,52.1688154 69.7071535,52.1688154 L51.1051293,52.1688154 Z M148.74945,22.4023072 C148.879618,22.3885448 149.011789,22.3814876 149.145609,22.3814876 L158.807886,22.3814876 L115.941235,22.3814876 L123.233643,22.3814876 L148.353787,22.3814876 C148.487436,22.3814876 148.61944,22.3885455 148.74945,22.4023072 Z M148.749946,29.8075 C148.879955,29.8212617 149.01196,29.8283196 149.145609,29.8283196 L158.807886,29.8283196 L115.941235,29.8283196 L123.233643,29.8283196 L148.353787,29.8283196 C148.487607,29.8283196 148.619777,29.8212624 148.749946,29.8075 Z M112.206705,22.3814876 L54.7552385,22.3814876 C52.694128,22.3814876 51.0323065,24.0485177 51.0323065,26.1049036 C51.0323065,28.1571051 52.69912,29.8283196 54.7552385,29.8283196 L112.206705,29.8283196 L102.544428,29.8283196 C100.487857,29.8283196 98.8206762,28.1571051 98.8206762,26.1049036 C98.8206762,24.0485177 100.487698,22.3814876 102.544428,22.3814876 L112.206705,22.3814876 Z M142.405651,7.48782369 L72.2631986,7.48782369 C70.2042285,7.48782369 68.546969,9.15485381 68.546969,11.2112397 C68.546969,13.2634412 70.2107816,14.9346556 72.2631986,14.9346556 L142.405651,14.9346556 L122.133751,14.9346556 C120.080785,14.9346556 118.416526,13.2634412 118.416526,11.2112397 C118.416526,9.15485381 120.079081,7.48782369 122.133751,7.48782369 L142.405651,7.48782369 Z M85.5612631,11.2112397 C85.5612631,9.15485381 87.2271649,7.48782369 89.2859949,7.48782369 L105.261708,7.48782369 C107.318821,7.48782369 108.98644,9.15903814 108.98644,11.2112397 C108.98644,13.2676255 107.320538,14.9346556 105.261708,14.9346556 L89.2859949,14.9346556 C87.2288823,14.9346556 85.5612631,13.2634412 85.5612631,11.2112397 Z M65.9620573,3.76440771 C65.9620573,1.70802185 67.6207645,0.0409917355 69.6949695,0.0409917355 L132.119724,0.0409917355 C134.181355,0.0409917355 135.852636,1.71220618 135.852636,3.76440771 C135.852636,5.82079358 134.193929,7.48782369 132.119724,7.48782369 L69.6949695,7.48782369 C67.633339,7.48782369 65.9620573,5.81660924 65.9620573,3.76440771 Z M146.782462,3.76440771 C146.782462,1.70802185 148.44906,0.0409917355 150.505622,0.0409917355 L161.294547,0.0409917355 C163.350791,0.0409917355 165.017707,1.71220618 165.017707,3.76440771 C165.017707,5.82079358 163.351109,7.48782369 161.294547,7.48782369 L150.505622,7.48782369 C148.449377,7.48782369 146.782462,5.81660924 146.782462,3.76440771 Z M168,63.7644077 C168,61.7080219 169.673482,60.0409917 171.718788,60.0409917 L197.117157,60.0409917 C199.170987,60.0409917 200.835945,61.7122062 200.835945,63.7644077 C200.835945,65.8207936 199.162463,67.4878237 197.117157,67.4878237 L171.718788,67.4878237 C169.664958,67.4878237 168,65.8166092 168,63.7644077 Z M131,48.7644077 C131,46.7080219 132.673482,45.0409917 134.718788,45.0409917 L160.117157,45.0409917 C162.170987,45.0409917 163.835945,46.7122062 163.835945,48.7644077 C163.835945,50.8207936 162.162463,52.4878237 160.117157,52.4878237 L134.718788,52.4878237 C132.664958,52.4878237 131,50.8166092 131,48.7644077 Z M189.106239,107.924408 C189.106239,105.868022 190.779722,104.200992 192.825027,104.200992 L218.223396,104.200992 C220.277226,104.200992 221.942184,105.872206 221.942184,107.924408 C221.942184,109.980794 220.268702,111.647824 218.223396,111.647824 L192.825027,111.647824 C190.771197,111.647824 189.106239,109.976609 189.106239,107.924408 Z M149.48398,137.684408 C149.48398,135.628022 151.150577,133.960992 153.207139,133.960992 L163.996065,133.960992 C166.052309,133.960992 167.719224,135.632206 167.719224,137.684408 C167.719224,139.740794 166.052627,141.407824 163.996065,141.407824 L153.207139,141.407824 C151.150895,141.407824 149.48398,139.736609 149.48398,137.684408 Z M174.247892,137.684408 C174.247892,135.628022 175.920615,133.960992 177.977175,133.960992 L196.93845,133.960992 C198.998076,133.960992 200.667732,135.632206 200.667732,137.684408 C200.667732,139.740794 198.99501,141.407824 196.93845,141.407824 L177.977175,141.407824 C175.917549,141.407824 174.247892,139.736609 174.247892,137.684408 Z M161.190556,93.0444077 C161.190556,90.9880219 162.866051,89.3209917 164.907134,89.3209917 L173.411718,89.3209917 C175.464327,89.3209917 177.128296,90.9922062 177.128296,93.0444077 C177.128296,95.1007936 175.452802,96.7678237 173.411718,96.7678237 L164.907134,96.7678237 C162.854525,96.7678237 161.190556,95.0966092 161.190556,93.0444077 Z M72.0404722,18.6580716 C72.0404722,16.6016858 73.6998603,14.9346556 75.7712723,14.9346556 L151.381342,14.9346556 C153.441806,14.9346556 155.112142,16.6058701 155.112142,18.6580716 C155.112142,20.7144575 153.452754,22.3814876 151.381342,22.3814876 L75.7712723,22.3814876 C73.7108083,22.3814876 72.0404722,20.7102732 72.0404722,18.6580716 Z M72.0404722,48.4453994 C72.0404722,46.3890136 73.7050118,44.7219835 75.7632792,44.7219835 L116.269604,44.7219835 C118.325654,44.7219835 119.992411,46.3931979 119.992411,48.4453994 C119.992411,50.5017853 118.327872,52.1688154 116.269604,52.1688154 L75.7632792,52.1688154 C73.7072297,52.1688154 72.0404722,50.497601 72.0404722,48.4453994 Z M72.0404722,63.3390634 C72.0404722,61.2826775 73.7055241,59.6156474 75.7640992,59.6156474 L157.621861,59.6156474 C159.678363,59.6156474 161.345488,61.2868618 161.345488,63.3390634 C161.345488,65.3954492 159.680436,67.0624793 157.621861,67.0624793 L75.7640992,67.0624793 C73.7075968,67.0624793 72.0404722,65.3912649 72.0404722,63.3390634 Z M87.0597082,108.020055 C87.0597082,105.963669 88.7207578,104.296639 90.7806166,104.296639 L177.885962,104.296639 C179.940963,104.296639 181.606871,105.967854 181.606871,108.020055 C181.606871,110.076441 179.945821,111.743471 177.885962,111.743471 L90.7806166,111.743471 C88.7256156,111.743471 87.0597082,110.072257 87.0597082,108.020055 Z M0,167.594711 C0,165.538325 1.67603066,163.871295 3.73126722,163.871295 L157.614221,163.871295 C159.674943,163.871295 161.345488,165.542509 161.345488,167.594711 C161.345488,169.651097 159.669457,171.318127 157.614221,171.318127 L3.73126722,171.318127 C1.67054524,171.318127 0,169.646912 0,167.594711 Z" id="Combined-Shape" fill="url(#linearGradient-1)"></path>
                <rect id="Rectangle-55-Copy-29" fill="#FFFFFF" x="95.0033727" y="67.0624793" width="18.2352445" height="7.44683196" rx="3.72341598"></rect>
            </g>
            <g id="Page-1-Copy-4" transform="translate(17.559865, 21.094545)" stroke="#FFFFFF" stroke-width="10.8" fill="#85878A" stroke-linecap="round" stroke-linejoin="round">
                <path d="M521.618224,45.7404887 L521.618224,47.7308015 L515.821667,46.5119942 L515.821667,43.0449542 L521.618224,45.7404887 Z M649.263135,110.605114 L640.976679,110.605114 C640.931204,110.393187 640.884377,110.18622 640.833949,109.987369 L633.213418,79.8815215 C632.96848,78.9138705 632.579462,77.9498269 632.07788,77.0150924 L640.24862,64.1114269 C641.181094,62.6387578 641.937969,60.0311505 641.937969,58.287936 L641.937969,42.2414342 C641.937969,40.5009251 641.308966,37.8189178 640.53318,36.2569687 L630.126033,15.3018705 C628.96258,12.9593978 626.082762,11.9114851 623.693269,12.9612015 L555.033296,43.130176 L549.98416,28.4413615 L548.408275,22.1209687 L548.408275,4.73211055 C548.408275,2.120896 546.292086,-0.000180363636 543.681519,-0.000180363636 L529.49675,-0.000180363636 C526.888435,-0.000180363636 524.769995,2.11864145 524.769995,4.73211055 L524.769995,22.1209687 L521.618224,28.4413615 L521.618224,36.5694487 C518.593875,36.1045615 516.272371,33.4937978 516.272371,30.3338269 L516.272371,28.3962705 C516.272371,24.9062342 513.449735,22.0794851 509.968379,22.0794851 L507.360964,22.0794851 C503.88321,22.0794851 501.056973,24.9057833 501.056973,28.3922124 L501.056973,32.5072087 L487.849253,32.5072087 L487.849253,40.6307869 L471.864372,37.2697105 C471.229065,37.1357905 470.441573,37.0113396 469.614008,36.9076305 L469.614008,30.0141324 C469.614008,27.4042705 467.497369,25.2813905 464.886352,25.2813905 L464.886352,22.1223215 C464.886352,21.2434996 464.180806,20.5409833 463.310467,20.5409833 L450.703384,20.5409833 C449.834846,20.5409833 449.127499,21.2489105 449.127499,22.1223215 L449.127499,25.2813905 C446.516932,25.2813905 444.399843,27.4002124 444.399843,30.0141324 L444.399843,36.5748596 L433.744156,36.5545687 L433.683823,36.230816 L433.639698,36.5545687 L329.26431,36.3566196 C324.912615,36.3485033 318.148465,37.7517324 314.159224,39.4890851 L267.532829,59.7971287 L266.897973,59.8981324 L266.924087,60.0622633 L233.369436,74.6771287 L41.1780637,95.5388887 C36.8515831,96.008736 31.7776826,99.555136 29.8456472,103.458656 L23.9626422,115.345521 L9.4523403,115.345521 C6.84852749,115.345521 4.72783609,117.466147 4.72783609,120.081871 L4.72783609,123.2459 L3.15330152,123.2459 C1.41307386,123.2459 0.00018010118,124.6595 0.00018010118,126.403165 L0.00018010118,132.72942 C0.00018010118,134.473085 1.4117231,135.886685 3.15330152,135.886685 L4.72783609,135.886685 L4.72783609,139.050714 C4.72783609,141.666889 6.84312445,143.787063 9.4523403,143.787063 L15.8459322,143.787063 C16.4132509,144.427354 17.0782745,144.990089 17.8437046,145.435136 L33.0383909,154.270249 L33.0383909,157.629972 C33.0383909,161.986656 36.5625207,165.518176 40.9178175,165.518176 L59.2025899,165.518176 L70.5332054,173.701725 L92.9774145,173.701725 L92.9774145,183.290307 C92.9774145,185.913245 95.0931531,188.028911 97.7032695,188.028911 L184.380114,188.028911 C186.986629,188.028911 189.10642,185.907383 189.10642,183.290307 L189.10642,173.701725 L207.823885,173.701725 L230.321224,165.518176 L435.932836,165.518176 L449.153613,174.086801 L471.288049,174.086801 L471.288049,183.290307 C471.288049,185.913245 473.404237,188.028911 476.014354,188.028911 L562.691199,188.028911 C565.297263,188.028911 567.417054,185.907383 567.417054,183.290307 L567.417054,174.086801 L580.459981,174.086801 L596.294027,169.170089 C597.071163,169.592591 598.063971,169.680969 599.145929,169.341885 L611.783629,165.378845 C612.653968,165.105594 613.435607,164.469812 613.984465,163.676663 L615.166379,163.309623 L615.166379,155.95214 L627.364182,152.818772 C631.578099,151.73614 635.729882,147.399747 636.63534,143.141812 L638.514246,134.3067 L644.541332,134.3067 C646.274806,134.3067 647.965506,132.919252 648.306797,131.208052 L651.798509,113.703761 C652.140251,111.990758 651.004713,110.605114 649.263135,110.605114 Z" id="Combined-Shape"></path>
            </g>
            <path d="M366.72948,21.9963636 L432.186703,21.9963636" id="Line-Copy-57" stroke="#EEEEEE" stroke-width="4.5" stroke-linecap="round"></path>
            <path d="M64.159497,21.9963636 L129.616719,21.9963636" id="Line-Copy-64" stroke="#EEEEEE" stroke-width="4.5" stroke-linecap="round"></path>
            <path d="M30.6172007,43.64 L66.5813063,43.64" id="Line-Copy-65" stroke="#EEEEEE" stroke-width="4.5" stroke-linecap="round"></path>
            <path d="M0.377118665,176.207273 L35.0635997,176.207273" id="Line-Copy-66" stroke="#EEEEEE" stroke-width="4.5" stroke-linecap="round"></path>
            <path d="M461.2826,3.05818182 L526.739822,3.05818182" id="Line-Copy-67" stroke="#EEEEEE" stroke-width="4.5" stroke-linecap="round"></path>
            <path d="M534.673831,3.05818182 L549.014602,3.05818182" id="Line-Copy-68" stroke="#EEEEEE" stroke-width="4.5" stroke-linecap="round"></path>
            <g id="Group-33-Copy" transform="translate(17.559865, 21.094545)">
                <path d="M444.399663,30.0067698 C444.399663,27.396922 446.50604,25.2812223 449.127457,25.2812223 L464.886034,25.2812223 C467.497122,25.2812223 469.613828,27.3932015 469.613828,30.0067698 L469.613828,45.8368971 C469.613828,48.4467449 467.507451,50.5624446 464.886034,50.5624446 L449.127457,50.5624446 C446.516368,50.5624446 444.399663,48.4504654 444.399663,45.8368971 L444.399663,30.0067698 Z" id="Combined-Shape" fill="#696969"></path>
                <path d="M449.127319,22.1224468 C449.127319,21.2490341 449.824791,20.5409931 450.695951,20.5409931 L463.31754,20.5409931 C464.183871,20.5409931 464.886172,21.2435439 464.886172,22.1224468 L464.886172,44.2407618 C464.886172,45.1141745 464.1887,45.8222154 463.31754,45.8222154 L450.695951,45.8222154 C449.829619,45.8222154 449.127319,45.1196647 449.127319,44.2407618 L449.127319,22.1224468 Z" id="Combined-Shape" fill="#696969"></path>
                <path d="M521.618044,28.4413751 L549.98398,28.4413751 L557.45791,50.1833806 C557.740505,51.0054632 557.259757,51.7119369 556.395946,51.7606672 L523.191692,53.633823 C522.32259,53.6828517 521.618044,53.0200467 521.618044,52.1411437 L521.618044,28.4413751 Z" id="Rectangle-52-Copy-3" fill="#696969"></path>
                <polygon id="Rectangle-53" fill="#D8D8D8" points="524.769815 22.1210695 548.408094 22.1210695 549.98398 28.4413751 521.618044 28.4413751"></polygon>
                <path d="M501.056895,36.178966 L501.056895,28.3868907 C501.056895,24.9033739 503.883137,22.0794256 507.355414,22.0794256 L509.973779,22.0794256 C513.452354,22.0794256 516.272297,24.9062002 516.272297,28.3858711 L516.272297,30.3443006 C516.272297,33.8272542 519.098399,36.6507461 522.568356,36.6507461 L526.200795,36.6507461 C529.678013,36.6507461 532.496855,39.4799162 532.496855,42.9595264 L532.496855,50.7993203" id="Path-41" stroke="#6BDEF4" stroke-width="4.725"></path>
                <path d="M524.769815,4.71839156 C524.769815,2.11249586 526.888357,0 529.49656,0 L543.681349,0 C546.291858,0 548.408094,2.12106114 548.408094,4.71839156 L548.408094,22.1210695 L524.769815,22.1210695 L524.769815,4.71839156 Z" id="Combined-Shape" fill="#DDDDDD"></path>
                <rect id="Rectangle-52-Copy-2" fill="#696969" x="490.100337" y="34.7616807" width="23.4701496" height="25.2812223" rx="1.575"></rect>
                <polygon id="Path-40" fill="#505050" points="52.0042159 160.319118 70.5331801 173.701933 207.82402 173.701933 244.049851 160.524343 201.116209 86.9042017 73.2771288 100.959784"></polygon>
                <polygon id="Path-40-Copy" fill="#505050" points="425.489039 158.749843 449.153481 174.086923 580.459817 174.086923 615.166229 163.309536 615.166229 83.7440489 447.842295 98.7161986"></polygon>
                <path d="M537.376897,50.8880268 L623.69343,12.9613866 C626.082677,11.9115751 628.95981,12.9537819 630.118319,15.2864667 L640.53955,36.2698544 C641.311789,37.8247755 641.937812,40.5008873 641.937812,42.2413226 L641.937812,58.2879562 C641.937812,60.0309859 641.181246,62.6388396 640.248741,64.1115481 L631.980802,77.1691412 L552.435528,64.0933918 L537.376897,50.8880268 Z" id="Path-43" fill="#505050"></path>
                <g id="Rectangle-43" transform="translate(13.507589, 36.341757)">
                    <mask id="mask-3" fill="white">
                        <use xlink:href="#path-2"></use>
                    </mask>
                    <use id="Mask" fill="#C7C8CA" xlink:href="#path-2"></use>
                    <rect fill="#696969" mask="url(#mask-3)" x="-2.47639123" y="82.1639725" width="641.385329" height="50.5624446"></rect>
                </g>
                <path d="M579.509941,67.4299836 C586.713892,68.9655036 586.57937,70.2102886 579.224407,70.2102886 L464.886218,70.2102886 C464.015855,70.2102886 463.310287,69.5016337 463.310287,68.6302316 L463.310287,47.3821115 C463.310287,44.7753005 465.379596,43.1031354 467.929168,43.6465759 L579.509941,67.4299836 Z" id="Path-42" fill="#FFFFFF"></path>
                <g id="Group-53" transform="translate(92.977234, 123.245959)">
                    <rect id="Rectangle-44" fill="#636363" x="0" y="22.1210695" width="96.1290051" height="42.6620626" rx="4.725"></rect>
                    <path d="M23.6382799,18.9424003 C23.6382799,17.2073225 25.0476535,15.8007639 26.7872358,15.8007639 L69.3417693,15.8007639 C71.0808896,15.8007639 72.4907251,17.2034446 72.4907251,18.9424003 L72.4907251,22.1210695 L23.6382799,22.1210695 L23.6382799,18.9424003 Z" id="Combined-Shape" fill="#919191"></path>
                    <path d="M37.8212479,3.15954443 C37.8212479,1.41457623 39.2293686,-5.68434189e-14 40.9773682,-5.68434189e-14 L55.1516369,-5.68434189e-14 C56.894714,-5.68434189e-14 58.3077572,1.40221239 58.3077572,3.15954443 L58.3077572,15.8007639 L37.8212479,15.8007639 L37.8212479,3.15954443 Z" id="Combined-Shape" fill="#818181"></path>
                    <path d="M3.15177066,29.2314133 L92.9772344,29.2314133" id="Line" stroke="#505050" stroke-width="1.575" stroke-linecap="round"></path>
                    <path d="M3.15177066,38.7118717 L92.9772344,38.7118717" id="Line-Copy-43" stroke="#505050" stroke-width="1.575" stroke-linecap="round"></path>
                    <path d="M3.15177066,48.19233 L92.9772344,48.19233" id="Line-Copy-44" stroke="#505050" stroke-width="1.575" stroke-linecap="round"></path>
                    <path d="M3.15177066,57.6727884 L92.9772344,57.6727884" id="Line-Copy-45" stroke="#505050" stroke-width="1.575" stroke-linecap="round"></path>
                </g>
                <g id="Group-53-Copy" transform="translate(471.288093, 123.245959)">
                    <rect id="Rectangle-44" fill="#636363" x="0" y="22.1210695" width="96.1290051" height="42.6620626" rx="4.725"></rect>
                    <path d="M23.6382799,18.9424003 C23.6382799,17.2073225 25.0476535,15.8007639 26.7872358,15.8007639 L69.3417693,15.8007639 C71.0808896,15.8007639 72.4907251,17.2034446 72.4907251,18.9424003 L72.4907251,22.1210695 L23.6382799,22.1210695 L23.6382799,18.9424003 Z" id="Combined-Shape" fill="#919191"></path>
                    <path d="M37.8212479,3.15954443 C37.8212479,1.41457623 39.2293686,0 40.9773682,0 L55.1516369,0 C56.894714,0 58.3077572,1.40221239 58.3077572,3.15954443 L58.3077572,15.8007639 L37.8212479,15.8007639 L37.8212479,3.15954443 Z" id="Combined-Shape" fill="#818181"></path>
                    <path d="M3.15177066,29.2314133 L92.9772344,29.2314133" id="Line" stroke="#505050" stroke-width="1.575" stroke-linecap="round"></path>
                    <path d="M3.15177066,38.7118717 L92.9772344,38.7118717" id="Line-Copy-43" stroke="#505050" stroke-width="1.575" stroke-linecap="round"></path>
                    <path d="M3.15177066,48.19233 L92.9772344,48.19233" id="Line-Copy-44" stroke="#505050" stroke-width="1.575" stroke-linecap="round"></path>
                    <path d="M3.15177066,57.6727884 L92.9772344,57.6727884" id="Line-Copy-45" stroke="#505050" stroke-width="1.575" stroke-linecap="round"></path>
                </g>
                <path d="M4.72765599,120.074018 C4.72765599,117.462572 6.84874447,115.345577 9.45224879,115.345577 L67.7661323,115.345577 C70.3754529,115.345577 72.4907251,117.460067 72.4907251,120.074018 L72.4907251,139.05851 C72.4907251,141.669957 70.3696366,143.786952 67.7661323,143.786952 L9.45224879,143.786952 C6.84292824,143.786952 4.72765599,141.672462 4.72765599,139.05851 L4.72765599,120.074018 Z" id="Combined-Shape" fill="#505050"></path>
                <path d="M617.747049,113.752677 C617.747049,112.014455 619.149073,110.605348 620.900246,110.605348 L649.263329,110.605348 C651.004792,110.605348 652.141913,111.982066 651.798468,113.703859 L648.306929,131.207983 C647.965584,132.919243 646.284874,134.306494 644.541162,134.306494 L620.894757,134.306494 C619.156326,134.306494 617.747049,132.894857 617.747049,131.159164 L617.747049,113.752677 Z" id="Rectangle-50" fill="#505050"></path>
                <path d="M0,126.403112 C0,124.659464 1.40202412,123.245959 3.15319683,123.245959 L33.0897126,123.245959 C33.9621925,123.245959 34.6694772,123.943578 34.6694772,124.821343 L34.6694772,134.311186 C34.6694772,135.181247 33.9612309,135.88657 33.0897126,135.88657 L3.15319683,135.88657 C1.41173431,135.88657 0,134.485506 0,132.729417 L0,126.403112 Z" id="Combined-Shape" fill="#6BDEF4"></path>
                <rect id="Rectangle-49" fill="#A5A5A5" x="48.8524452" y="115.345577" width="12.6070826" height="28.4413751"></rect>
                <g id="Path-44" transform="translate(255.293423, 42.662063)">
                    <mask id="mask-5" fill="white">
                        <use xlink:href="#path-4"></use>
                    </mask>
                    <use id="Mask" fill="#FFFFFF" xlink:href="#path-4"></use>
                    <polygon fill="#606060" mask="url(#mask-5)" points="18.909085 21.3102002 18.909085 39.2398893 -2.72675477 39.2398893 -0.418594628 26.6252131"></polygon>
                    <path d="M49.6403879,-5.53026738 L65.3992411,37.1317953" id="Line" stroke="#E7FDFF" stroke-width="4.725" stroke-linecap="square" mask="url(#mask-5)"></path>
                    <path d="M26.0021079,-5.53026738 L41.7609612,37.1317953" id="Line-Copy-51" stroke="#E7FDFF" stroke-width="4.725" stroke-linecap="square" mask="url(#mask-5)"></path>
                    <path d="M59.0956998,-5.53026738 L74.8545531,37.1317953" id="Line-Copy-46" stroke="#E7FDFF" stroke-width="4.725" stroke-linecap="square" mask="url(#mask-5)"></path>
                    <path d="M114.251686,-5.53026738 L130.01054,37.1317953" id="Line-Copy-47" stroke="#E7FDFF" stroke-width="4.725" stroke-linecap="square" mask="url(#mask-5)"></path>
                    <path d="M123.706998,-5.53026738 L139.465852,37.1317953" id="Line-Copy-48" stroke="#E7FDFF" stroke-width="4.725" stroke-linecap="square" mask="url(#mask-5)"></path>
                    <path d="M133.16231,-5.53026738 L148.921164,37.1317953" id="Line-Copy-49" stroke="#E7FDFF" stroke-width="4.725" stroke-linecap="square" mask="url(#mask-5)"></path>
                    <path d="M155.224705,-5.53026738 L170.983558,37.1317953" id="Line-Copy-50" stroke="#E7FDFF" stroke-width="4.725" stroke-linecap="square" mask="url(#mask-5)"></path>
                </g>
                <rect id="Rectangle-51" fill="#818181" transform="translate(277.019527, 74.173323) rotate(-9.000000) translate(-277.019527, -74.173323) " x="271.503929" y="60.7426738" width="11.0311973" height="26.8612987" rx="3.15"></rect>
                <path d="M54.860508,114.560168 L54.860508,110.426956 L103.255978,110.426956 C103.255978,110.426956 130.378349,87.0754794 166.469816,101.819259 C202.561284,116.563038 204.674263,158.521475 204.674263,158.521475 L458.182735,158.521473 C458.182735,158.521473 457.817772,132.123088 476.322113,115.601723 C494.826454,99.0803573 516.014725,99.5324684 516.014725,99.5324684 L516.014725,93.5019197" id="Path-46" stroke="#6BDEF4" stroke-width="4.725"></path>
                <rect id="Rectangle-42" fill="#A5A5A5" x="85.0978078" y="105.865118" width="4.72765599" height="9.48045837" rx="2.36382799"></rect>
                <rect id="Rectangle-42-Copy" fill="#A5A5A5" x="140.253794" y="91.6444309" width="4.72765599" height="9.48045837" rx="2.36382799"></rect>
                <rect id="Rectangle-42-Copy-2" fill="#A5A5A5" transform="translate(194.347480, 126.281499) rotate(56.000000) translate(-194.347480, -126.281499) " x="191.983652" y="121.54127" width="4.72765599" height="9.48045837" rx="2.36382799"></rect>
                <rect id="Rectangle-42-Copy-3" fill="#A5A5A5" transform="translate(460.672100, 140.502186) scale(-1, 1) rotate(64.000000) translate(-460.672100, -140.502186) " x="458.308272" y="135.761957" width="4.72765599" height="9.48045837" rx="2.36382799"></rect>
                <rect id="Rectangle-42-Copy-4" fill="#A5A5A5" transform="translate(483.918816, 109.439749) scale(-1, 1) rotate(40.000000) translate(-483.918816, -109.439749) " x="481.554988" y="104.699519" width="4.72765599" height="9.48045837" rx="2.36382799"></rect>
                <path d="M235.385559,74.1956966 L248.826753,122.733668" id="Path-47" stroke="#696969" stroke-width="3.15"></path>
                <polyline id="Path-48" stroke="#696969" stroke-width="3.15" stroke-linejoin="round" points="433.68395 36.2306579 442.238976 82.216436 421.475456 125.369186"></polyline>
                <g id="Group-49-Copy-6" transform="translate(447.551433, 31.601528)">
                    <mask id="mask-7" fill="white">
                        <use xlink:href="#path-6"></use>
                    </mask>
                    <g id="Mask">
                        <use fill="black" fill-opacity="1" filter="url(#filter-8)" xlink:href="#path-6"></use>
                        <use fill="#F8F8F8" fill-rule="evenodd" xlink:href="#path-6"></use>
                    </g>
                    <g mask="url(#mask-7)" stroke-linecap="square">
                        <g transform="translate(-5.312457, -22.121070)">
                            <g id="Group-48" transform="translate(1.575885, 1.040769)">
                                <path d="M0.51900415,1.04076888 L173.347386,1.04076888" id="Line" stroke="#C9C9C9" stroke-width="2.079"></path>
                                <path d="M0.51900415,10.637898 L173.347386,10.637898" id="Line-Copy-18" stroke="#C9C9C9" stroke-width="2.079"></path>
                                <path d="M0.51900415,20.0048179 L173.347386,20.0048179" id="Line-Copy-19" stroke="#C9C9C9" stroke-width="2.079"></path>
                                <path d="M0.51900415,29.3717378 L173.347386,29.3717378" id="Line-Copy-20" stroke="#C9C9C9" stroke-width="2.079"></path>
                                <path d="M0.51900415,38.7386578 L173.347386,38.7386578" id="Line-Copy-21" stroke="#C9C9C9" stroke-width="2.079"></path>
                                <path d="M0.51900415,48.1055777 L173.347386,48.1055777" id="Line-Copy-22" stroke="#C9C9C9" stroke-width="2.079"></path>
                                <path d="M0.51900415,57.4724977 L173.347386,57.4724977" id="Line-Copy-23" stroke="#C9C9C9" stroke-width="2.079"></path>
                                <path d="M0.51900415,66.8394176 L173.347386,66.8394176" id="Line-Copy-24" stroke="#C9C9C9" stroke-width="2.079"></path>
                                <path d="M0.51900415,76.2063375 L173.347386,76.2063375" id="Line-Copy-25" stroke="#C9C9C9" stroke-width="2.079"></path>
                                <path d="M0.51900415,85.5732575 L173.347386,85.5732575" id="Line-Copy-26" stroke="#C9C9C9" stroke-width="2.079"></path>
                                <path d="M0.51900415,94.9401774 L173.347386,94.9401774" id="Line-Copy-27" stroke="#C9C9C9" stroke-width="2.079"></path>
                                <path d="M0.51900415,104.307097 L173.347386,104.307097" id="Line-Copy-28" stroke="#C9C9C9" stroke-width="2.079"></path>
                                <path d="M0.51900415,113.674017 L173.347386,113.674017" id="Line-Copy-29" stroke="#C9C9C9" stroke-width="2.079"></path>
                                <path d="M0.51900415,123.040937 L173.347386,123.040937" id="Line-Copy-30" stroke="#C9C9C9" stroke-width="2.079"></path>
                                <path d="M0.51900415,132.407857 L173.347386,132.407857" id="Line-Copy-31" stroke="#C9C9C9" stroke-width="2.079"></path>
                                <path d="M0.51900415,141.774777 L173.347386,141.774777" id="Line-Copy-32" stroke="#C9C9C9" stroke-width="2.079"></path>
                                <path d="M0.51900415,151.141697 L173.347386,151.141697" id="Line-Copy-33" stroke="#C9C9C9" stroke-width="2.079"></path>
                                <path d="M0.51900415,160.508617 L173.347386,160.508617" id="Line-Copy-34" stroke="#C9C9C9" stroke-width="2.079"></path>
                                <path d="M0.51900415,169.875537 L173.347386,169.875537" id="Line-Copy-35" stroke="#C9C9C9" stroke-width="2.079"></path>
                            </g>
                            <g id="Group-48-Copy" transform="translate(87.057407, 86.904202) rotate(90.000000) translate(-87.057407, -86.904202) translate(0.383714, 0.790038)">
                                <path d="M0.51900415,1.04076888 L173.347386,1.04076888" id="Line" stroke="#C9C9C9" stroke-width="2.079"></path>
                                <path d="M0.51900415,10.637898 L173.347386,10.637898" id="Line-Copy-18" stroke="#C9C9C9" stroke-width="2.079"></path>
                                <path d="M0.51900415,20.0048179 L173.347386,20.0048179" id="Line-Copy-19" stroke="#C9C9C9" stroke-width="2.079"></path>
                                <path d="M0.51900415,29.3717378 L173.347386,29.3717378" id="Line-Copy-20" stroke="#C9C9C9" stroke-width="2.079"></path>
                                <path d="M0.51900415,38.7386578 L173.347386,38.7386578" id="Line-Copy-21" stroke="#C9C9C9" stroke-width="2.079"></path>
                                <path d="M0.51900415,48.1055777 L173.347386,48.1055777" id="Line-Copy-22" stroke="#C9C9C9" stroke-width="2.079"></path>
                                <path d="M0.51900415,57.4724977 L173.347386,57.4724977" id="Line-Copy-23" stroke="#C9C9C9" stroke-width="2.079"></path>
                                <path d="M0.51900415,66.8394176 L173.347386,66.8394176" id="Line-Copy-24" stroke="#C9C9C9" stroke-width="2.079"></path>
                                <path d="M0.51900415,76.2063375 L173.347386,76.2063375" id="Line-Copy-25" stroke="#C9C9C9" stroke-width="2.079"></path>
                                <path d="M0.51900415,85.5732575 L173.347386,85.5732575" id="Line-Copy-26" stroke="#C9C9C9" stroke-width="2.079"></path>
                                <path d="M0.51900415,94.9401774 L173.347386,94.9401774" id="Line-Copy-27" stroke="#C9C9C9" stroke-width="2.079"></path>
                                <path d="M0.51900415,104.307097 L173.347386,104.307097" id="Line-Copy-28" stroke="#C9C9C9" stroke-width="2.079"></path>
                                <path d="M0.51900415,113.674017 L173.347386,113.674017" id="Line-Copy-29" stroke="#C9C9C9" stroke-width="2.079"></path>
                                <path d="M0.51900415,123.040937 L173.347386,123.040937" id="Line-Copy-30" stroke="#C9C9C9" stroke-width="2.079"></path>
                                <path d="M0.51900415,132.407857 L173.347386,132.407857" id="Line-Copy-31" stroke="#C9C9C9" stroke-width="2.079"></path>
                                <path d="M0.51900415,141.774777 L173.347386,141.774777" id="Line-Copy-32" stroke="#C9C9C9" stroke-width="2.079"></path>
                                <path d="M0.51900415,151.141697 L173.347386,151.141697" id="Line-Copy-33" stroke="#C9C9C9" stroke-width="2.079"></path>
                                <path d="M0.51900415,160.508617 L173.347386,160.508617" id="Line-Copy-34" stroke="#C9C9C9" stroke-width="2.079"></path>
                                <path d="M0.51900415,169.875537 L173.347386,169.875537" id="Line-Copy-35" stroke="#C9C9C9" stroke-width="2.079"></path>
                            </g>
                        </g>
                    </g>
                </g>
            </g>
            <path d="M228.952077,59.8727273 L294.4093,59.8727273" id="Line-Copy-53" stroke="#EEEEEE" stroke-width="4.5" stroke-linecap="round"></path>
            <path d="M183.926782,74.7527273 L249.384004,74.7527273" id="Line-Copy-58" stroke="#EEEEEE" stroke-width="4.5" stroke-linecap="round"></path>
            <path d="M144.080944,219.496386 C144.113992,219.495163 144.147193,219.494545 144.180536,219.494545 L189.8084,219.494545 C191.285616,219.494545 192.483137,220.705819 192.483137,222.2 C192.483137,223.694181 191.285616,224.905455 189.8084,224.905455 L144.180536,224.905455 C144.147193,224.905455 144.113992,224.904837 144.080944,224.903614 C145.512019,224.85063 146.65609,223.660455 146.65609,222.2 C146.65609,220.739545 145.512019,219.54937 144.080944,219.496386 Z M189.8084,224.905455 C191.285616,224.905455 192.483137,223.694181 192.483137,222.2 C192.483137,220.705819 191.285616,219.494545 189.8084,219.494545 L177.827567,219.494545 C176.350351,219.494545 175.15283,220.705819 175.15283,222.2 C175.15283,223.694181 176.350351,224.905455 177.827567,224.905455 L189.8084,224.905455 Z" id="Combined-Shape" fill="#6BDEF4"></path>
            <path d="M517.340641,219.496386 C517.373688,219.495163 517.406889,219.494545 517.440232,219.494545 L563.068096,219.494545 C564.545313,219.494545 565.742833,220.705819 565.742833,222.2 C565.742833,223.694181 564.545313,224.905455 563.068096,224.905455 L517.440232,224.905455 C517.406889,224.905455 517.373688,224.904837 517.340641,224.903614 C518.771716,224.85063 519.915786,223.660455 519.915786,222.2 C519.915786,220.739545 518.771716,219.54937 517.340641,219.496386 Z M563.068096,224.905455 C564.545313,224.905455 565.742833,223.694181 565.742833,222.2 C565.742833,220.705819 564.545313,219.494545 563.068096,219.494545 L551.087263,219.494545 C549.610047,219.494545 548.412527,220.705819 548.412527,222.2 C548.412527,223.694181 549.610047,224.905455 551.087263,224.905455 L563.068096,224.905455 Z" id="Combined-Shape-Copy-7" fill="#6BDEF4"></path>
            <rect id="Rectangle-55" fill="#6BDEF4" x="131.023609" y="224.905455" width="60.3338954" height="5.41090909" rx="2.70545455"></rect>
            <rect id="Rectangle-55-Copy-5" fill="#6BDEF4" x="504.283305" y="224.905455" width="60.3338954" height="5.41090909" rx="2.70545455"></rect>
            <rect id="Rectangle-55-Copy-2" fill="#6BDEF4" x="122.919056" y="214.083636" width="76.5430017" height="5.41090909" rx="2.70545455"></rect>
            <rect id="Rectangle-55-Copy-6" fill="#6BDEF4" x="496.178752" y="214.083636" width="76.5430017" height="5.41090909" rx="2.70545455"></rect>
        </g>
    </g>
</svg>