<?xml version="1.0" encoding="UTF-8" standalone="no"?>
<svg width="1608px" height="758px" viewBox="0 0 1608 758" version="1.1" xmlns="http://www.w3.org/2000/svg" xmlns:xlink="http://www.w3.org/1999/xlink">
    <!-- Generator: Sketch 39.1 (31720) - http://www.bohemiancoding.com/sketch -->
    <title>Group 57</title>
    <desc>Created with Sketch.</desc>
    <defs>
        <rect id="path-1" x="0" y="0" width="1600" height="750"></rect>
        <filter x="-50%" y="-50%" width="200%" height="200%" filterUnits="objectBoundingBox" id="filter-2">
            <feOffset dx="0" dy="2" in="SourceAlpha" result="shadowOffsetOuter1"></feOffset>
            <feGaussianBlur stdDeviation="2" in="shadowOffsetOuter1" result="shadowBlurOuter1"></feGaussianBlur>
            <feColorMatrix values="0 0 0 0 0   0 0 0 0 0   0 0 0 0 0  0 0 0 0.5 0" type="matrix" in="shadowBlurOuter1"></feColorMatrix>
        </filter>
        <polygon id="path-3" points="154.84 13.5326087 166.577143 13.5326087 169.285714 20.75 152.131429 20.75"></polygon>
        <mask id="mask-4" maskContentUnits="userSpaceOnUse" maskUnits="objectBoundingBox" x="0" y="0" width="17.1542857" height="7.2173913" fill="white">
            <use xlink:href="#path-3"></use>
        </mask>
        <rect id="path-5" x="30.2457143" y="-30.2228261" width="36.1142857" height="96.5326087" rx="7.2"></rect>
        <rect id="path-7" x="30.2457143" y="-30.2228261" width="36.1142857" height="96.5326087" rx="7.2"></rect>
        <rect id="path-9" x="154.84" y="0" width="11.7371429" height="14.4347826"></rect>
        <mask id="mask-10" maskContentUnits="userSpaceOnUse" maskUnits="objectBoundingBox" x="0" y="0" width="11.7371429" height="14.4347826" fill="white">
            <use xlink:href="#path-9"></use>
        </mask>
        <path d="M86.5891929,2.35102882 C88.0998231,1.05259146 90.926302,0 92.9249794,0 L207.131449,0 C209.119977,0 211.945884,1.05176094 213.455897,2.36009821 L282.846703,62.4831355 C283.594386,63.1309584 284.530414,64.3929179 284.936854,65.3006222 L299.613573,98.0782503 C300.222669,99.4385504 299.50256,100.545211 298.019852,100.549997 L2.13559494,101.505242 C0.646310453,101.51005 -0.0967856207,100.38906 0.468726188,99.0186862 L14.2633169,65.5910212 C14.6424568,64.6722726 15.5594169,63.4035024 16.3203066,62.7494922 L86.5891929,2.35102882 Z" id="path-11"></path>
        <path d="M0.272703428,4.02909171 C0.438122405,2.09510332 2.13368882,0.488373293 4.08575964,0.439714063 L13.3436154,0.20894368 C15.2840892,0.160573528 16.9230972,1.69620072 17.0039789,3.62779909 L17.1542857,7.2173913 L0,7.2173913 L0.272703428,4.02909171 Z" id="path-13"></path>
        <path d="M0.272703428,4.02909171 C0.438122405,2.09510332 2.13368882,0.488373293 4.08575964,0.439714063 L13.3436154,0.20894368 C15.2840892,0.160573528 16.9230972,1.69620072 17.0039789,3.62779909 L17.1542857,7.2173913 L0,7.2173913 L0.272703428,4.02909171 Z" id="path-15"></path>
        <path d="M0.421932855,34.2826091 L0.421932895,14.2286583 C1.0615157,8.47094147 6.21193067,3.01579557 11.9249142,2.04438371 L21.496861,0.416809829 L28.6370592,13.1026664 L32.7285714,16.5565216 L36.8306641,13.1026664 C36.8306641,13.1026664 41.1972563,2.19140295 43.6812249,0.416809832 L53.5277441,2.06793676 C59.2435592,3.02640096 64.3959684,8.47401355 65.03521,14.2286583 L65.5210658,34.2826091 L65.0352096,67.4577641 L52.7920143,67.4577641 L53.5277454,77.8848205 L11.9249141,77.8848205 L11.9249141,69.1266124 L0.421932895,66.9890565" id="path-17"></path>
        <rect id="path-19" x="0" y="0" width="13.5428571" height="5.86413043" rx="0.9"></rect>
        <rect id="path-21" x="0" y="0" width="13.5428571" height="5.86413043" rx="0.9"></rect>
        <path d="M0.126330878,21.7192882 C-0.349158047,9.72405653 8.99030567,0 21.0056021,0 L22.2165906,0 C34.2233825,0 43.7881901,9.73450035 43.5801986,21.7418961 L43.207109,43.2804377 C42.9991119,55.2881553 33.0910148,65.0223338 21.0915185,65.0223338 L23.5818346,65.0223338 C11.5757284,65.0223338 1.45698226,55.2878335 0.981907325,43.3030457 L0.126330878,21.7192882 Z" id="path-23"></path>
        <path d="M8.28764335,30.884554 L8.28764335,27.039926 C8.28764335,27.039926 9.44792829,18.0827236 26.1124867,17.6265403 C42.7770452,17.1703569 46.1123375,27.039926 46.1123375,27.039926 L46.1123375,31.4951929 L48.3665115,39.7808005 L48.5485887,39.7808005 L48.5624539,38.3190333 L48.6191382,32.3429954 L49.6348525,27.9487096 L49.239329,25.2560186 C49.239329,25.2560186 50.2624826,22.2993387 50.2624826,21.9930087 C50.2624826,21.6866787 48.1410383,21.4290014 48.1410383,21.4290014 C48.1410383,21.4290014 50.397085,16.5796016 49.6348525,12.3197134 C48.8726199,8.0598251 45.7782714,5.1031092 45.7782714,5.1031092 C45.3961924,4.69151984 44.8797821,4.75717404 44.6243055,5.25077822 L43.6000813,7.22967386 C43.6000813,7.22967386 41.4310821,3.46364839 38.2189777,1.7621167 C35.0068734,0.0605850069 30.2087959,0.00212514126 30.2087959,0.00212514126 C29.648257,-0.0235492192 29.5835163,0.186410793 30.0613571,0.469404182 L33.5847813,2.5560944 C33.5847813,2.5560944 29.9774581,1.45653082 27.041905,1.1129947 C24.1063518,0.76945858 19.9887077,1.05700827 19.9887077,1.05700827 C19.4373221,1.08792872 19.3769864,1.34840065 19.8558182,1.63992959 L21.4648996,2.61959277 C21.4648996,2.61959277 19.1914292,2.42784178 17.1049658,2.61959281 C15.0185024,2.81134384 13.6082404,3.34163872 13.6082404,3.34163872 L17.1049658,5.60203197 C17.1049658,5.60203197 14.2195777,5.55207122 12.4437399,6.12068467 C10.6679021,6.68929811 8.91452951,8.22456438 8.91452951,8.22456438 L11.3295787,9.19837146 C11.3295787,9.19837146 10.4304166,9.31178612 8.91452951,9.54617144 C7.39864245,9.78055676 7.05370659,10.0424556 6.75241699,10.3041361 C6.4511274,10.5658165 8.59711879,11.1296149 8.59711879,11.1296149 C8.59711879,11.1296149 7.22723024,11.2437234 6.12230713,11.8732404 C5.01738402,12.5027574 4.45366376,13.3912738 4.27487758,13.5921612 C3.91055792,14.0015174 6.405497,13.5921612 6.405497,13.5921612 L3.30131941,16.6031251 L2.03142857,19.0351624 L4.82290702,18.5646295 C4.82290702,18.5646295 4.0915707,19.1970196 3.30131941,20.7422838 C2.51106811,22.287548 2.75868599,23.0576564 2.75868599,23.0576564 C2.78884872,23.6147587 3.22673706,23.8860626 3.73851663,23.6628543 L4.16675956,23.4760798 L3.70527414,25.5233694 L4.82290702,29.2591077 L5.48327009,40.3643158 L5.79609323,40.4353174 L8.28764335,30.884554 Z" id="path-25"></path>
        <mask id="mask-26" maskContentUnits="userSpaceOnUse" maskUnits="objectBoundingBox" x="0" y="0" width="48.231054" height="40.4353168" fill="white">
            <use xlink:href="#path-25"></use>
        </mask>
        <polygon id="path-27" points="42.66 -9.68408419e-05 42.66 13.2076457 0 13.2076457 0 -9.68408419e-05 42.66 -9.68408419e-05"></polygon>
    </defs>
    <g id="Page-1" stroke="none" stroke-width="1" fill="none" fill-rule="evenodd">
        <g id="Group-57" transform="translate(4.000000, 2.000000)">
            <g id="Mask">
                <use fill="black" fill-opacity="1" filter="url(#filter-2)" xlink:href="#path-1"></use>
                <use fill="#FFFFFF" fill-rule="evenodd" xlink:href="#path-1"></use>
            </g>
            <g id="Group-55" transform="translate(602.000000, 501.000000)">
                <g id="Group-51-Copy" transform="translate(0.000000, 23.005435)">
                    <use id="Rectangle-41" stroke="#DADADA" mask="url(#mask-4)" stroke-width="3.6" fill="#D9D9D9" xlink:href="#path-3"></use>
                    <g id="Path-45" transform="translate(227.068571, 153.369565)">
                        <mask id="mask-6" fill="white">
                            <use xlink:href="#path-5"></use>
                        </mask>
                        <use id="Mask" fill="#565656" transform="translate(48.302857, 18.043478) rotate(90.000000) translate(-48.302857, -18.043478) " xlink:href="#path-5"></use>
                        <path d="M81.9880692,-2.07306174 L77.7382544,14.0908165 C77.1690338,16.2558079 74.9016513,18.0108802 72.6493985,18.0108802 L-3.46261349,18.0108802 L-3.79570313,8.14599609 L70.1151451,5.579558 L72.4578125,-0.163871433 L81.9880692,-2.07306174 Z" fill="#515151" mask="url(#mask-6)"></path>
                    </g>
                    <g id="Path-45-Copy" transform="translate(48.302857, 171.413043) scale(-1, 1) translate(-48.302857, -171.413043) translate(0.000000, 153.369565)">
                        <mask id="mask-8" fill="white">
                            <use xlink:href="#path-7"></use>
                        </mask>
                        <use id="Mask" fill="#565656" transform="translate(48.302857, 18.043478) rotate(90.000000) translate(-48.302857, -18.043478) " xlink:href="#path-7"></use>
                        <path d="M81.9880692,-2.07306174 L77.7382544,14.0908165 C77.1690338,16.2558079 74.9016513,18.0108802 72.6493985,18.0108802 L-3.46261349,18.0108802 L-3.79570313,8.14599609 L70.1151451,5.579558 L72.4578125,-0.163871433 L81.9880692,-2.07306174 Z" id="Path-45" fill="#515151" mask="url(#mask-8)"></path>
                    </g>
                    <use id="Rectangle-41-Copy" stroke="#DADADA" mask="url(#mask-10)" stroke-width="3.6" fill="#D9D9D9" xlink:href="#path-9"></use>
                    <g id="Group-52" transform="translate(103.377143, 6.315217)" fill="#929292">
                        <rect id="Rectangle-39" x="0" y="0" width="34.3085714" height="16.2391304" rx="2.25"></rect>
                        <rect id="Rectangle-39-Copy" x="82.16" y="0" width="34.3085714" height="16.2391304" rx="2.25"></rect>
                    </g>
                    <path d="M98.7957106,24.3140953 C99.9264189,23.3422136 102.044652,22.5543478 103.549031,22.5543478 L217.749329,22.5543478 C220.235315,22.5543478 223.768235,23.8692847 225.646798,25.496948 L294.365311,85.0374833 C295.112994,85.6853062 296.04499,86.9399256 296.456525,87.8611115 L310.933891,120.267503 C311.341154,121.179127 311.460018,122.691005 311.194104,123.663681 L299.975366,164.700264 C299.711815,165.664297 298.682983,166.445801 297.702089,166.445801 L25.7103275,166.445801 C24.7183828,166.445801 23.6841197,165.674979 23.3989076,164.719672 L11.4871754,124.821768 C11.2025582,123.868454 11.2884028,122.347673 11.672865,121.439304 L25.7673839,88.138163 C26.1545547,87.2233941 27.078025,85.9578503 27.8389147,85.3038401 L98.7957106,24.3140953 Z" id="Path-30" stroke="#696969" stroke-width="4.5" fill="#696969"></path>
                    <g id="Line-Copy-42" transform="translate(11.285714, 22.554348)">
                        <g id="Line">
                            <mask id="mask-12" fill="white">
                                <use xlink:href="#path-11"></use>
                            </mask>
                            <use id="Mask" stroke="#C7C8CA" stroke-width="4.95" fill="#C7C8CA" xlink:href="#path-11"></use>
                            <path d="M17.6057143,62.701087 L282.1444,62.701087" stroke="#B4B4B4" stroke-width="2.7" stroke-linecap="square" mask="url(#mask-12)"></path>
                        </g>
                    </g>
                    <path d="M96.9009007,28.5521846 C97.2778985,28.2292122 97.9962223,27.9673913 98.4839855,27.9673913 L224.292733,27.9673913 C224.790049,27.9673913 225.493591,28.226293 225.871703,28.5521846 L255.163269,53.7983323 C257.801372,56.0720908 257.112777,57.9153363 253.639973,57.9153363 L68.9260203,57.9153363 C65.4466238,57.9153363 64.7732445,56.0758142 67.4134088,53.8139964 L96.9009007,28.5521846 Z" id="Rectangle-36" fill="#FFFFFF"></path>
                    <polygon id="Path-37" fill="#FFFFFF" points="32.9542857 83.7391835 35.875346 81.1956522 286.667944 81.1956522 289.869824 83.7391835"></polygon>
                    <path d="M21.2246326,150.500053 C19.7245934,150.500053 18.9047929,149.352086 19.3934869,147.936199 L19.4919707,147.650863 C19.980696,146.234886 21.5903019,145.08701 23.0824983,145.08701 L300.192379,145.08701 C301.686647,145.08701 303.239778,146.248243 303.661938,147.682549 L303.727269,147.904513 C304.149186,149.33799 303.278328,150.500053 301.775155,150.500053 L21.2246326,150.500053 Z" id="Path-37-Copy" fill="#6BDFF5" transform="translate(161.499894, 147.793531) scale(1, -1) translate(-161.499894, -147.793531) "></path>
                    <path d="M41.9828571,86.2527006 L69.8762054,58.0074038" id="Path-38" stroke="#B4B4B4" stroke-width="0.9"></path>
                    <path d="M250.766366,86.2527006 L279.078021,58.2329473" id="Path-38-Copy" stroke="#B4B4B4" stroke-width="0.9" transform="translate(264.922194, 72.242824) scale(-1, 1) translate(-264.922194, -72.242824) "></path>
                    <path d="M28.0156919,99.0803445 C28.4119616,98.1715258 29.5394629,97.4347826 30.5273744,97.4347826 L291.398309,97.4347826 C292.389203,97.4347826 293.514489,98.1732861 293.909991,99.0803445 L299.719796,112.404751 C301.111692,115.596974 299.420631,118.184783 295.942334,118.184783 L25.9833489,118.184783 C22.5052182,118.184783 20.8132231,115.598736 22.2058876,112.404751 L28.0156919,99.0803445 Z" id="Rectangle-37" fill="#696969"></path>
                    <rect id="Rectangle-38" fill="#FFFFFF" x="32.9542857" y="100.141304" width="27.0857143" height="15.3369565" rx="2.7"></rect>
                    <rect id="Rectangle-38-Copy" fill="#FFFFFF" x="64.5542857" y="100.141304" width="27.0857143" height="15.3369565" rx="2.7"></rect>
                    <rect id="Rectangle-38-Copy-4" fill="#FFFFFF" x="147.617143" y="103.75" width="27.0857143" height="8.11956522" rx="2.7"></rect>
                    <rect id="Rectangle-38-Copy-5" fill="#FFFFFF" x="246.931429" y="132.619565" width="27.0857143" height="8.11956522" rx="0.9"></rect>
                    <rect id="Rectangle-38-Copy-6" fill="#FFFFFF" x="48.3028571" y="132.619565" width="27.0857143" height="8.11956522" rx="0.9"></rect>
                    <rect id="Rectangle-38-Copy-3" fill="#FFFFFF" x="228.874286" y="100.141304" width="27.0857143" height="15.3369565" rx="2.7"></rect>
                    <rect id="Rectangle-38-Copy-2" fill="#FFFFFF" x="260.474286" y="100.141304" width="27.0857143" height="15.3369565" rx="2.7"></rect>
                </g>
                <g id="Group-54" transform="translate(323.674286, 0.000000)">
                    <rect id="Rectangle-40" fill="#FFDCBD" x="2" y="147" width="12" height="11"></rect>
                    <rect id="Rectangle-40-Copy" fill="#FFDCBD" x="58" y="147" width="12" height="11"></rect>
                    <g id="Group-50-Copy-3" transform="translate(49.185714, 242.918478) scale(-1, 1) translate(-49.185714, -242.918478) translate(39.685714, 235.918478)">
                        <path d="M5.86857143,4.96195652 L13.0914286,4.96195652" id="Line-Copy-37" stroke="#FFFFFF" stroke-width="0.9" stroke-linecap="square"></path>
                        <g id="Rectangle-34" transform="translate(0.902857, 4.510870)"></g>
                        <rect id="Rectangle-31" fill="#A9A9A9" x="3.61142857" y="0.902173913" width="11.7371429" height="4.51086957"></rect>
                        <rect id="Rectangle-33" fill="#D1C2A6" x="0" y="11.7282609" width="17.1542857" height="1.35326087"></rect>
                        <g id="Rectangle-34" transform="translate(0.000000, 4.510870)">
                            <mask id="mask-14" fill="white">
                                <use xlink:href="#path-13"></use>
                            </mask>
                            <use id="Mask" fill="#B5B5B5" xlink:href="#path-13"></use>
                            <path d="M14.944748,2.09552798 C15.1111957,2.12127887 15.5843633,2.18237875 16.0106426,2.09552798 C16.6408904,1.96712034 16.7966337,1.35326087 16.7966337,1.35326087 L17.3074516,3.69778708 C17.3074516,3.69778708 16.3914696,4.47503083 15.5890639,3.94584985 C14.7866582,3.41666886 14.8651051,2.08320654 14.944748,2.09552798 Z" fill="#B54033" mask="url(#mask-14)"></path>
                        </g>
                        <path d="M4.58882996,1.34078106 C4.54766031,0.600288126 5.12059097,0 5.86401817,0 L13.0959818,0 C13.8414185,0 14.4117838,0.610287064 14.37117,1.34078106 L14.06883,6.77878416 C14.0276603,7.51927709 13.3878763,8.11956522 12.6426173,8.11956522 L6.31738265,8.11956522 C5.57087683,8.11956522 4.93178377,7.50927815 4.89117004,6.77878416 L4.58882996,1.34078106 Z" id="Rectangle-32" fill="#9A9A9A"></path>
                        <path d="M5.86857143,1.35326087 L13.0914286,1.35326087" id="Line" stroke="#FFFFFF" stroke-width="0.9" stroke-linecap="square"></path>
                        <path d="M5.86857143,3.1576087 L13.0914286,3.1576087" id="Line-Copy-36" stroke="#FFFFFF" stroke-width="0.9" stroke-linecap="square"></path>
                        <path d="M5.86857143,4.96195652 L13.0914286,4.96195652" id="Line-Copy-38" stroke="#FFFFFF" stroke-width="0.9" stroke-linecap="square"></path>
                        <path d="M5.86857143,6.76630435 L13.0914286,6.76630435" id="Line-Copy-39" stroke="#FFFFFF" stroke-width="0.9" stroke-linecap="square"></path>
                    </g>
                    <g id="Group-50-Copy-4" transform="translate(12.325714, 235.918478)">
                        <path d="M5.86857143,4.96195652 L13.0914286,4.96195652" id="Line-Copy-37" stroke="#FFFFFF" stroke-width="0.9" stroke-linecap="square"></path>
                        <g id="Rectangle-34" transform="translate(0.902857, 4.510870)"></g>
                        <rect id="Rectangle-31" fill="#A9A9A9" x="3.61142857" y="0.902173913" width="11.7371429" height="4.51086957"></rect>
                        <rect id="Rectangle-33" fill="#D1C2A6" x="0" y="11.7282609" width="17.1542857" height="1.35326087"></rect>
                        <g id="Rectangle-34" transform="translate(0.000000, 4.510870)">
                            <mask id="mask-16" fill="white">
                                <use xlink:href="#path-15"></use>
                            </mask>
                            <use id="Mask" fill="#B5B5B5" xlink:href="#path-15"></use>
                            <path d="M14.944748,2.09552798 C15.1111957,2.12127887 15.5843633,2.18237875 16.0106426,2.09552798 C16.6408904,1.96712034 16.7966337,1.35326087 16.7966337,1.35326087 L17.3074516,3.69778708 C17.3074516,3.69778708 16.3914696,4.47503083 15.5890639,3.94584985 C14.7866582,3.41666886 14.8651051,2.08320654 14.944748,2.09552798 Z" fill="#B54033" mask="url(#mask-16)"></path>
                        </g>
                        <path d="M4.58882996,1.34078106 C4.54766031,0.600288126 5.12059097,0 5.86401817,0 L13.0959818,0 C13.8414185,0 14.4117838,0.610287064 14.37117,1.34078106 L14.06883,6.77878416 C14.0276603,7.51927709 13.3878763,8.11956522 12.6426173,8.11956522 L6.31738265,8.11956522 C5.57087683,8.11956522 4.93178377,7.50927815 4.89117004,6.77878416 L4.58882996,1.34078106 Z" id="Rectangle-32" fill="#9A9A9A"></path>
                        <path d="M5.86857143,1.35326087 L13.0914286,1.35326087" id="Line" stroke="#FFFFFF" stroke-width="0.9" stroke-linecap="square"></path>
                        <path d="M5.86857143,3.1576087 L13.0914286,3.1576087" id="Line-Copy-36" stroke="#FFFFFF" stroke-width="0.9" stroke-linecap="square"></path>
                        <path d="M5.86857143,4.96195652 L13.0914286,4.96195652" id="Line-Copy-38" stroke="#FFFFFF" stroke-width="0.9" stroke-linecap="square"></path>
                        <path d="M5.86857143,6.76630435 L13.0914286,6.76630435" id="Line-Copy-39" stroke="#FFFFFF" stroke-width="0.9" stroke-linecap="square"></path>
                    </g>
                    <path d="M24.8285714,67.6630435 L47.0614286,67.6630435 L47.0614286,81.9749073 C47.0614286,81.9749073 41.5032143,88.1189458 35.945,88.1189458 C30.3867857,88.1189458 24.8285714,81.9749073 24.8285714,81.9749073 L24.8285714,67.6630435 Z" id="Rectangle-22-Copy" fill="#FFDCBD"></path>
                    <path d="M29.3428571,83.9021739 C29.3428571,83.9021739 32.4994406,85.8104832 35.6826953,85.8104832 C38.8659501,85.8104832 42.978072,83.9021739 42.978072,83.9021739 L42.4342857,96.1385684 L29.3428571,96.1385684 L29.3428571,83.9021739 Z" id="Rectangle-26-Copy" fill="#A62E2B"></path>
                    <g id="Group-49-Copy-5" transform="translate(3.160000, 77.135870)">
                        <mask id="mask-18" fill="white">
                            <use xlink:href="#path-17"></use>
                        </mask>
                        <use id="Mask" fill="#D7E1E3" xlink:href="#path-17"></use>
                        <g id="Group-49" mask="url(#mask-18)" stroke-linecap="square">
                            <g transform="translate(8.125714, 3.608696)">
                                <g id="Group-48" transform="translate(0.000000, 0.297123)">
                                    <path d="M0.14867408,0.296407186 L49.6571429,0.296407186" id="Line" stroke="#464664" stroke-width="0.75"></path>
                                    <path d="M0.14867408,3.03623658 L49.6571429,3.03623658" id="Line-Copy-18" stroke="#464664" stroke-width="0.75"></path>
                                    <path d="M0.14867408,5.71034488 L49.6571429,5.71034488" id="Line-Copy-19" stroke="#464664" stroke-width="0.75"></path>
                                    <path d="M0.14867408,8.38445319 L49.6571429,8.38445319" id="Line-Copy-20" stroke="#464664" stroke-width="0.75"></path>
                                    <path d="M0.14867408,11.0585615 L49.6571429,11.0585615" id="Line-Copy-21" stroke="#464664" stroke-width="0.75"></path>
                                    <path d="M0.14867408,13.7326698 L49.6571429,13.7326698" id="Line-Copy-22" stroke="#464664" stroke-width="0.75"></path>
                                    <path d="M0.14867408,16.4067781 L49.6571429,16.4067781" id="Line-Copy-23" stroke="#464664" stroke-width="0.75"></path>
                                    <path d="M0.14867408,19.0808864 L49.6571429,19.0808864" id="Line-Copy-24" stroke="#464664" stroke-width="0.75"></path>
                                    <path d="M0.14867408,21.7549947 L49.6571429,21.7549947" id="Line-Copy-25" stroke="#464664" stroke-width="0.75"></path>
                                    <path d="M0.14867408,24.429103 L49.6571429,24.429103" id="Line-Copy-26" stroke="#464664" stroke-width="0.75"></path>
                                    <path d="M0.14867408,27.1032113 L49.6571429,27.1032113" id="Line-Copy-27" stroke="#464664" stroke-width="0.75"></path>
                                    <path d="M0.14867408,29.7773196 L49.6571429,29.7773196" id="Line-Copy-28" stroke="#464664" stroke-width="0.75"></path>
                                    <path d="M0.14867408,32.4514279 L49.6571429,32.4514279" id="Line-Copy-29" stroke="#464664" stroke-width="0.75"></path>
                                    <path d="M0.14867408,35.1255362 L49.6571429,35.1255362" id="Line-Copy-30" stroke="#464664" stroke-width="0.75"></path>
                                    <path d="M0.14867408,37.7996445 L49.6571429,37.7996445" id="Line-Copy-31" stroke="#464664" stroke-width="0.75"></path>
                                    <path d="M0.14867408,40.4737528 L49.6571429,40.4737528" id="Line-Copy-32" stroke="#464664" stroke-width="0.75"></path>
                                    <path d="M0.14867408,43.1478612 L49.6571429,43.1478612" id="Line-Copy-33" stroke="#464664" stroke-width="0.75"></path>
                                    <path d="M0.14867408,45.8219695 L49.6571429,45.8219695" id="Line-Copy-34" stroke="#464664" stroke-width="0.75"></path>
                                    <path d="M0.14867408,48.4960778 L49.6571429,48.4960778" id="Line-Copy-35" stroke="#464664" stroke-width="0.75"></path>
                                </g>
                                <g id="Group-48-Copy" transform="translate(24.666161, 24.809783) rotate(90.000000) translate(-24.666161, -24.809783) translate(-0.162410, 0.404507)">
                                    <path d="M0.14867408,0.296407186 L49.6571429,0.296407186" id="Line" stroke="#464664" stroke-width="0.75"></path>
                                    <path d="M0.14867408,3.03623658 L49.6571429,3.03623658" id="Line-Copy-18" stroke="#464664" stroke-width="0.75"></path>
                                    <path d="M0.14867408,5.71034488 L49.6571429,5.71034488" id="Line-Copy-19" stroke="#464664" stroke-width="0.75"></path>
                                    <path d="M0.14867408,8.38445319 L49.6571429,8.38445319" id="Line-Copy-20" stroke="#464664" stroke-width="0.75"></path>
                                    <path d="M0.14867408,11.0585615 L49.6571429,11.0585615" id="Line-Copy-21" stroke="#464664" stroke-width="0.75"></path>
                                    <path d="M0.14867408,13.7326698 L49.6571429,13.7326698" id="Line-Copy-22" stroke="#464664" stroke-width="0.75"></path>
                                    <path d="M0.14867408,16.4067781 L49.6571429,16.4067781" id="Line-Copy-23" stroke="#464664" stroke-width="0.75"></path>
                                    <path d="M0.14867408,19.0808864 L49.6571429,19.0808864" id="Line-Copy-24" stroke="#464664" stroke-width="0.75"></path>
                                    <path d="M0.14867408,21.7549947 L49.6571429,21.7549947" id="Line-Copy-25" stroke="#464664" stroke-width="0.75"></path>
                                    <path d="M0.14867408,24.429103 L49.6571429,24.429103" id="Line-Copy-26" stroke="#464664" stroke-width="0.75"></path>
                                    <path d="M0.14867408,27.1032113 L49.6571429,27.1032113" id="Line-Copy-27" stroke="#464664" stroke-width="0.75"></path>
                                    <path d="M0.14867408,29.7773196 L49.6571429,29.7773196" id="Line-Copy-28" stroke="#464664" stroke-width="0.75"></path>
                                    <path d="M0.14867408,32.4514279 L49.6571429,32.4514279" id="Line-Copy-29" stroke="#464664" stroke-width="0.75"></path>
                                    <path d="M0.14867408,35.1255362 L49.6571429,35.1255362" id="Line-Copy-30" stroke="#464664" stroke-width="0.75"></path>
                                    <path d="M0.14867408,37.7996445 L49.6571429,37.7996445" id="Line-Copy-31" stroke="#464664" stroke-width="0.75"></path>
                                    <path d="M0.14867408,40.4737528 L49.6571429,40.4737528" id="Line-Copy-32" stroke="#464664" stroke-width="0.75"></path>
                                    <path d="M0.14867408,43.1478612 L49.6571429,43.1478612" id="Line-Copy-33" stroke="#464664" stroke-width="0.75"></path>
                                    <path d="M0.14867408,45.8219695 L49.6571429,45.8219695" id="Line-Copy-34" stroke="#464664" stroke-width="0.75"></path>
                                    <path d="M0.14867408,48.4960778 L49.6571429,48.4960778" id="Line-Copy-35" stroke="#464664" stroke-width="0.75"></path>
                                </g>
                            </g>
                        </g>
                        <g id="Group-49-Copy" mask="url(#mask-18)" stroke-linecap="square">
                            <g transform="translate(8.125714, 51.875000)">
                                <g id="Group-48" transform="translate(0.000000, 0.297123)">
                                    <path d="M0.14867408,0.296407186 L49.6571429,0.296407186" id="Line" stroke="#464664" stroke-width="0.75"></path>
                                    <path d="M0.14867408,3.03623658 L49.6571429,3.03623658" id="Line-Copy-18" stroke="#464664" stroke-width="0.75"></path>
                                    <path d="M0.14867408,5.71034488 L49.6571429,5.71034488" id="Line-Copy-19" stroke="#464664" stroke-width="0.75"></path>
                                    <path d="M0.14867408,8.38445319 L49.6571429,8.38445319" id="Line-Copy-20" stroke="#464664" stroke-width="0.75"></path>
                                    <path d="M0.14867408,11.0585615 L49.6571429,11.0585615" id="Line-Copy-21" stroke="#464664" stroke-width="0.75"></path>
                                    <path d="M0.14867408,13.7326698 L49.6571429,13.7326698" id="Line-Copy-22" stroke="#464664" stroke-width="0.75"></path>
                                    <path d="M0.14867408,16.4067781 L49.6571429,16.4067781" id="Line-Copy-23" stroke="#464664" stroke-width="0.75"></path>
                                    <path d="M0.14867408,19.0808864 L49.6571429,19.0808864" id="Line-Copy-24" stroke="#464664" stroke-width="0.75"></path>
                                    <path d="M0.14867408,21.7549947 L49.6571429,21.7549947" id="Line-Copy-25" stroke="#464664" stroke-width="0.75"></path>
                                    <path d="M0.14867408,24.429103 L49.6571429,24.429103" id="Line-Copy-26" stroke="#464664" stroke-width="0.75"></path>
                                    <path d="M0.14867408,27.1032113 L49.6571429,27.1032113" id="Line-Copy-27" stroke="#464664" stroke-width="0.75"></path>
                                    <path d="M0.14867408,29.7773196 L49.6571429,29.7773196" id="Line-Copy-28" stroke="#464664" stroke-width="0.75"></path>
                                    <path d="M0.14867408,32.4514279 L49.6571429,32.4514279" id="Line-Copy-29" stroke="#464664" stroke-width="0.75"></path>
                                    <path d="M0.14867408,35.1255362 L49.6571429,35.1255362" id="Line-Copy-30" stroke="#464664" stroke-width="0.75"></path>
                                    <path d="M0.14867408,37.7996445 L49.6571429,37.7996445" id="Line-Copy-31" stroke="#464664" stroke-width="0.75"></path>
                                    <path d="M0.14867408,40.4737528 L49.6571429,40.4737528" id="Line-Copy-32" stroke="#464664" stroke-width="0.75"></path>
                                    <path d="M0.14867408,43.1478612 L49.6571429,43.1478612" id="Line-Copy-33" stroke="#464664" stroke-width="0.75"></path>
                                    <path d="M0.14867408,45.8219695 L49.6571429,45.8219695" id="Line-Copy-34" stroke="#464664" stroke-width="0.75"></path>
                                    <path d="M0.14867408,48.4960778 L49.6571429,48.4960778" id="Line-Copy-35" stroke="#464664" stroke-width="0.75"></path>
                                </g>
                                <g id="Group-48-Copy" transform="translate(24.666161, 24.809783) rotate(90.000000) translate(-24.666161, -24.809783) translate(-0.162410, 0.404507)">
                                    <path d="M0.14867408,0.296407186 L49.6571429,0.296407186" id="Line" stroke="#464664" stroke-width="0.75"></path>
                                    <path d="M0.14867408,3.03623658 L49.6571429,3.03623658" id="Line-Copy-18" stroke="#464664" stroke-width="0.75"></path>
                                    <path d="M0.14867408,5.71034488 L49.6571429,5.71034488" id="Line-Copy-19" stroke="#464664" stroke-width="0.75"></path>
                                    <path d="M0.14867408,8.38445319 L49.6571429,8.38445319" id="Line-Copy-20" stroke="#464664" stroke-width="0.75"></path>
                                    <path d="M0.14867408,11.0585615 L49.6571429,11.0585615" id="Line-Copy-21" stroke="#464664" stroke-width="0.75"></path>
                                    <path d="M0.14867408,13.7326698 L49.6571429,13.7326698" id="Line-Copy-22" stroke="#464664" stroke-width="0.75"></path>
                                    <path d="M0.14867408,16.4067781 L49.6571429,16.4067781" id="Line-Copy-23" stroke="#464664" stroke-width="0.75"></path>
                                    <path d="M0.14867408,19.0808864 L49.6571429,19.0808864" id="Line-Copy-24" stroke="#464664" stroke-width="0.75"></path>
                                    <path d="M0.14867408,21.7549947 L49.6571429,21.7549947" id="Line-Copy-25" stroke="#464664" stroke-width="0.75"></path>
                                    <path d="M0.14867408,24.429103 L49.6571429,24.429103" id="Line-Copy-26" stroke="#464664" stroke-width="0.75"></path>
                                    <path d="M0.14867408,27.1032113 L49.6571429,27.1032113" id="Line-Copy-27" stroke="#464664" stroke-width="0.75"></path>
                                    <path d="M0.14867408,29.7773196 L49.6571429,29.7773196" id="Line-Copy-28" stroke="#464664" stroke-width="0.75"></path>
                                    <path d="M0.14867408,32.4514279 L49.6571429,32.4514279" id="Line-Copy-29" stroke="#464664" stroke-width="0.75"></path>
                                    <path d="M0.14867408,35.1255362 L49.6571429,35.1255362" id="Line-Copy-30" stroke="#464664" stroke-width="0.75"></path>
                                    <path d="M0.14867408,37.7996445 L49.6571429,37.7996445" id="Line-Copy-31" stroke="#464664" stroke-width="0.75"></path>
                                    <path d="M0.14867408,40.4737528 L49.6571429,40.4737528" id="Line-Copy-32" stroke="#464664" stroke-width="0.75"></path>
                                    <path d="M0.14867408,43.1478612 L49.6571429,43.1478612" id="Line-Copy-33" stroke="#464664" stroke-width="0.75"></path>
                                    <path d="M0.14867408,45.8219695 L49.6571429,45.8219695" id="Line-Copy-34" stroke="#464664" stroke-width="0.75"></path>
                                    <path d="M0.14867408,48.4960778 L49.6571429,48.4960778" id="Line-Copy-35" stroke="#464664" stroke-width="0.75"></path>
                                </g>
                            </g>
                        </g>
                    </g>
                    <path d="M15.3485714,152.467391 L55.5257143,152.467391 L55.5257143,236.369565 L43.1114286,236.369565 C43.1114286,236.369565 37.62375,172.895816 35.4371429,172.895816 C33.2505357,172.895816 27.7628571,236.369565 27.7628571,236.369565 L15.3485714,236.369565 L15.3485714,152.467391 Z" id="Rectangle-28-Copy" fill="#76B1C2"></path>
                    <rect id="Rectangle-29-Copy" fill="#5C9BAA" x="28.8914286" y="150.663043" width="13.9942857" height="2.70652174"></rect>
                    <path d="M31.9473884,81.6890736 C28.096993,80.3009654 25.0042494,77.5869565 25.0042494,77.5869565 L15.4323026,79.2145304 C9.71931906,80.1859423 4.56890409,85.6410882 3.92932129,91.398805 C3.92932129,91.398805 2.66600812,101.296981 2.25714286,111.373023 L2.25714286,146.296759 L15.4323025,146.296759 L15.4323025,155.054967 L31.9473884,155.054967 L31.9473884,81.6890736 Z M40.0731027,81.7463284 C44.0017181,80.3771432 47.1886133,77.5869565 47.1886133,77.5869565 L57.0351325,79.2380835 C62.7509476,80.1965477 67.9033568,85.6441602 68.5425984,91.398805 C68.5425984,91.398805 69.1385586,94.149231 69.8554855,112.351406 C70.5724124,130.55358 69.8554855,146.296759 69.8554855,146.296759 L57.0351338,146.296759 L57.0351338,155.054967 L40.0731027,155.054967 L40.0731027,81.7463284 Z" id="Combined-Shape-Copy-6" fill="#19586C"></path>
                    <path d="M55.5257143,82.548913 C55.5257143,82.548913 58.2325223,82.8753344 61.466144,85.7470491 C64.6997656,88.6187638 65.2816853,93.5807203 65.2816853,93.5807203 M66.3465612,99.5122048 L66.8413178,109.643727" id="Path-25-Copy-2" stroke-opacity="0.358129529" stroke="#FFFFFF" stroke-width="2.025" stroke-linecap="round"></path>
                    <path d="M24.6401088,77.5869565 L21.6685714,78.156652 C21.6685714,78.156652 22.3692239,80.7848709 23.8250907,83.475976 C25.2809575,86.1670812 27.8433119,89.5703855 27.8433119,89.5703855 L31.5947649,81.6829164 C31.5947649,81.6829164 29.6045791,80.7010218 27.9602469,79.7910714 C26.3159147,78.8811209 24.6401088,77.5869565 24.6401088,77.5869565 Z" id="Path-22-Copy-4" fill="#24788F"></path>
                    <path d="M43.3276646,77.5869565 L40.1771429,78.1424454 C40.1771429,78.1424454 40.8777953,80.7706643 42.3336621,83.4617694 C43.7895289,86.1528746 46.3518834,89.5561789 46.3518834,89.5561789 L50.4047112,81.6762536 C50.4047112,81.6762536 48.1131506,80.6868152 46.4688184,79.7768648 C44.8244861,78.8669143 43.3276646,77.5869565 43.3276646,77.5869565 Z" id="Path-22-Copy-3" fill="#24788F" transform="translate(45.290927, 83.571568) scale(-1, 1) translate(-45.290927, -83.571568) "></path>
                    <g id="Group-49-Copy-4" transform="translate(57.782857, 141.190217)">
                        <mask id="mask-20" fill="white">
                            <use xlink:href="#path-19"></use>
                        </mask>
                        <use id="Mask" fill="#D7E1E3" xlink:href="#path-19"></use>
                        <g id="Group-49-Copy" mask="url(#mask-20)" stroke-linecap="square">
                            <g transform="translate(-12.640000, -17.141304)">
                                <g id="Group-48" transform="translate(0.000000, 0.297123)">
                                    <path d="M0.14867408,0.296407186 L49.6571429,0.296407186" id="Line" stroke="#464664" stroke-width="0.75"></path>
                                    <path d="M0.14867408,3.03623658 L49.6571429,3.03623658" id="Line-Copy-18" stroke="#464664" stroke-width="0.75"></path>
                                    <path d="M0.14867408,5.71034488 L49.6571429,5.71034488" id="Line-Copy-19" stroke="#464664" stroke-width="0.75"></path>
                                    <path d="M0.14867408,8.38445319 L49.6571429,8.38445319" id="Line-Copy-20" stroke="#464664" stroke-width="0.75"></path>
                                    <path d="M0.14867408,11.0585615 L49.6571429,11.0585615" id="Line-Copy-21" stroke="#464664" stroke-width="0.75"></path>
                                    <path d="M0.14867408,13.7326698 L49.6571429,13.7326698" id="Line-Copy-22" stroke="#464664" stroke-width="0.75"></path>
                                    <path d="M0.14867408,16.4067781 L49.6571429,16.4067781" id="Line-Copy-23" stroke="#464664" stroke-width="0.75"></path>
                                    <path d="M0.14867408,19.0808864 L49.6571429,19.0808864" id="Line-Copy-24" stroke="#464664" stroke-width="0.75"></path>
                                    <path d="M0.14867408,21.7549947 L49.6571429,21.7549947" id="Line-Copy-25" stroke="#464664" stroke-width="0.75"></path>
                                    <path d="M0.14867408,24.429103 L49.6571429,24.429103" id="Line-Copy-26" stroke="#464664" stroke-width="0.75"></path>
                                    <path d="M0.14867408,27.1032113 L49.6571429,27.1032113" id="Line-Copy-27" stroke="#464664" stroke-width="0.75"></path>
                                    <path d="M0.14867408,29.7773196 L49.6571429,29.7773196" id="Line-Copy-28" stroke="#464664" stroke-width="0.75"></path>
                                    <path d="M0.14867408,32.4514279 L49.6571429,32.4514279" id="Line-Copy-29" stroke="#464664" stroke-width="0.75"></path>
                                    <path d="M0.14867408,35.1255362 L49.6571429,35.1255362" id="Line-Copy-30" stroke="#464664" stroke-width="0.75"></path>
                                    <path d="M0.14867408,37.7996445 L49.6571429,37.7996445" id="Line-Copy-31" stroke="#464664" stroke-width="0.75"></path>
                                    <path d="M0.14867408,40.4737528 L49.6571429,40.4737528" id="Line-Copy-32" stroke="#464664" stroke-width="0.75"></path>
                                    <path d="M0.14867408,43.1478612 L49.6571429,43.1478612" id="Line-Copy-33" stroke="#464664" stroke-width="0.75"></path>
                                    <path d="M0.14867408,45.8219695 L49.6571429,45.8219695" id="Line-Copy-34" stroke="#464664" stroke-width="0.75"></path>
                                    <path d="M0.14867408,48.4960778 L49.6571429,48.4960778" id="Line-Copy-35" stroke="#464664" stroke-width="0.75"></path>
                                </g>
                                <g id="Group-48-Copy" transform="translate(24.666161, 24.809783) rotate(90.000000) translate(-24.666161, -24.809783) translate(-0.162410, 0.404507)">
                                    <path d="M0.14867408,0.296407186 L49.6571429,0.296407186" id="Line" stroke="#464664" stroke-width="0.75"></path>
                                    <path d="M0.14867408,3.03623658 L49.6571429,3.03623658" id="Line-Copy-18" stroke="#464664" stroke-width="0.75"></path>
                                    <path d="M0.14867408,5.71034488 L49.6571429,5.71034488" id="Line-Copy-19" stroke="#464664" stroke-width="0.75"></path>
                                    <path d="M0.14867408,8.38445319 L49.6571429,8.38445319" id="Line-Copy-20" stroke="#464664" stroke-width="0.75"></path>
                                    <path d="M0.14867408,11.0585615 L49.6571429,11.0585615" id="Line-Copy-21" stroke="#464664" stroke-width="0.75"></path>
                                    <path d="M0.14867408,13.7326698 L49.6571429,13.7326698" id="Line-Copy-22" stroke="#464664" stroke-width="0.75"></path>
                                    <path d="M0.14867408,16.4067781 L49.6571429,16.4067781" id="Line-Copy-23" stroke="#464664" stroke-width="0.75"></path>
                                    <path d="M0.14867408,19.0808864 L49.6571429,19.0808864" id="Line-Copy-24" stroke="#464664" stroke-width="0.75"></path>
                                    <path d="M0.14867408,21.7549947 L49.6571429,21.7549947" id="Line-Copy-25" stroke="#464664" stroke-width="0.75"></path>
                                    <path d="M0.14867408,24.429103 L49.6571429,24.429103" id="Line-Copy-26" stroke="#464664" stroke-width="0.75"></path>
                                    <path d="M0.14867408,27.1032113 L49.6571429,27.1032113" id="Line-Copy-27" stroke="#464664" stroke-width="0.75"></path>
                                    <path d="M0.14867408,29.7773196 L49.6571429,29.7773196" id="Line-Copy-28" stroke="#464664" stroke-width="0.75"></path>
                                    <path d="M0.14867408,32.4514279 L49.6571429,32.4514279" id="Line-Copy-29" stroke="#464664" stroke-width="0.75"></path>
                                    <path d="M0.14867408,35.1255362 L49.6571429,35.1255362" id="Line-Copy-30" stroke="#464664" stroke-width="0.75"></path>
                                    <path d="M0.14867408,37.7996445 L49.6571429,37.7996445" id="Line-Copy-31" stroke="#464664" stroke-width="0.75"></path>
                                    <path d="M0.14867408,40.4737528 L49.6571429,40.4737528" id="Line-Copy-32" stroke="#464664" stroke-width="0.75"></path>
                                    <path d="M0.14867408,43.1478612 L49.6571429,43.1478612" id="Line-Copy-33" stroke="#464664" stroke-width="0.75"></path>
                                    <path d="M0.14867408,45.8219695 L49.6571429,45.8219695" id="Line-Copy-34" stroke="#464664" stroke-width="0.75"></path>
                                    <path d="M0.14867408,48.4960778 L49.6571429,48.4960778" id="Line-Copy-35" stroke="#464664" stroke-width="0.75"></path>
                                </g>
                            </g>
                        </g>
                    </g>
                    <path d="M26.646106,78.5759118 L26.646106,154.791866 C26.646106,155.537102 26.0340088,156.141235 25.2965877,156.141235 L16.8128526,156.141233 C14.824729,156.141233 13.2069984,154.52913 13.1998356,152.541165 C13.1998356,152.541165 12.9473705,87.7359808 13.2130365,80.7546971 C13.2130365,78.9918509 16.2070721,78.6956767 16.2070721,78.6956767 L24.7040869,77.1358696 C24.7040869,77.1358696 25.8695528,78.0319528 26.646106,78.5759118 Z" id="Path-27-Copy-3" fill="#A62E2B"></path>
                    <path d="M58.142483,78.8784352 C58.9190361,79.4223943 58.3498413,79.0395534 58.3498413,79.0395534 L58.3498413,155.219952 C58.3498413,155.963111 57.7507151,156.565561 57.0023911,156.56556 L48.4051119,156.565559 C46.4212634,156.565559 44.8069984,154.953456 44.7998356,152.965491 C44.7998356,152.965491 44.5473705,88.1603065 44.8130365,81.1790227 C44.8130365,79.4161765 47.7566994,79.0395534 47.7566994,79.0395534 L56.3664652,77.5869565 C56.3664652,77.5869565 57.3659298,78.3344762 58.142483,78.8784352 Z" id="Path-27-Copy-2" fill="#A62E2B" transform="translate(51.621213, 117.076258) scale(-1, 1) translate(-51.621213, -117.076258) "></path>
                    <ellipse id="Oval-16-Copy-17" fill="#FFFFFF" cx="35.8885714" cy="100.366848" rx="1.12857143" ry="1.12771739"></ellipse>
                    <ellipse id="Oval-16-Copy-16" fill="#FFFFFF" cx="35.8885714" cy="107.133152" rx="1.12857143" ry="1.12771739"></ellipse>
                    <ellipse id="Oval-16-Copy-15" fill="#FFFFFF" cx="35.8885714" cy="113.899457" rx="1.12857143" ry="1.12771739"></ellipse>
                    <ellipse id="Oval-16-Copy-14" fill="#FFFFFF" cx="35.8885714" cy="120.665761" rx="1.12857143" ry="1.12771739"></ellipse>
                    <ellipse id="Oval-16-Copy-13" fill="#FFFFFF" cx="35.8885714" cy="127.432065" rx="1.12857143" ry="1.12771739"></ellipse>
                    <ellipse id="Oval-16-Copy-12" fill="#FFFFFF" cx="35.8885714" cy="134.19837" rx="1.12857143" ry="1.12771739"></ellipse>
                    <ellipse id="Oval-16-Copy-11" fill="#FFFFFF" cx="35.8885714" cy="140.964674" rx="1.12857143" ry="1.12771739"></ellipse>
                    <ellipse id="Oval-16-Copy-10" fill="#FFFFFF" cx="35.8885714" cy="147.730978" rx="1.12857143" ry="1.12771739"></ellipse>
                    <rect id="Rectangle-27-Copy-27" fill="#B74134" x="11.2857143" y="87.0597826" width="13.0914286" height="11.7282609"></rect>
                    <rect id="Rectangle-27-Copy-26" fill="#B74134" transform="translate(53.494286, 92.923913) scale(-1, 1) translate(-53.494286, -92.923913) " x="46.9485714" y="87.0597826" width="13.0914286" height="11.7282609"></rect>
                    <path d="M12.4276459,81.4735371 C12.7447903,80.2767334 13.9873294,79.1418345 15.2223421,78.935426 L23.2163519,77.5993821 C23.7078577,77.5172364 24.1168324,77.8620805 24.1292544,78.3474178 L24.3016796,85.0842157 C24.3143559,85.5794901 23.9184761,85.9809893 23.4248052,85.9809893 L13.4837003,85.9809893 C12.2407853,85.9809893 11.4903852,85.0104659 11.8074442,83.8139843 L12.4276459,81.4735371 Z" id="Rectangle-27-Copy-25" fill="#B74134"></path>
                    <path d="M48.206725,81.3727255 C48.5787718,80.1909536 49.8807479,79.0686951 51.1001722,78.8684878 L58.8333079,77.5988472 C59.3232309,77.5184108 59.7297524,77.8542387 59.741161,78.3430211 L59.8936943,84.8780722 C59.9051648,85.3695046 59.5083074,85.7678892 59.0146365,85.7678892 L49.0735316,85.7678892 C47.8306165,85.7678892 47.1266025,84.8036347 47.496685,83.6281018 L48.206725,81.3727255 Z" id="Rectangle-27-Copy-24" fill="#B74134" transform="translate(53.646788, 81.677423) scale(-1, 1) translate(-53.646788, -81.677423) "></path>
                    <rect id="Rectangle-27-Copy-23" fill="#B74134" x="11.2857143" y="99.6902174" width="13.0914286" height="11.7282609"></rect>
                    <rect id="Rectangle-27-Copy-22" fill="#B74134" transform="translate(53.494286, 105.554348) scale(-1, 1) translate(-53.494286, -105.554348) " x="46.9485714" y="99.6902174" width="13.0914286" height="11.7282609"></rect>
                    <rect id="Rectangle-27-Copy-21" fill="#B74134" x="11.2857143" y="112.320652" width="13.0914286" height="11.7282609"></rect>
                    <rect id="Rectangle-27-Copy-20" fill="#B74134" transform="translate(53.494286, 118.184783) scale(-1, 1) translate(-53.494286, -118.184783) " x="46.9485714" y="112.320652" width="13.0914286" height="11.7282609"></rect>
                    <g id="Group-49-Copy-3" transform="translate(0.000000, 141.190217)">
                        <mask id="mask-22" fill="white">
                            <use xlink:href="#path-21"></use>
                        </mask>
                        <use id="Mask" fill="#D7E1E3" xlink:href="#path-21"></use>
                        <g id="Group-49-Copy" mask="url(#mask-22)" stroke-linecap="square">
                            <g transform="translate(-12.640000, -17.141304)">
                                <g id="Group-48" transform="translate(0.000000, 0.297123)">
                                    <path d="M0.14867408,0.296407186 L49.6571429,0.296407186" id="Line" stroke="#464664" stroke-width="0.75"></path>
                                    <path d="M0.14867408,3.03623658 L49.6571429,3.03623658" id="Line-Copy-18" stroke="#464664" stroke-width="0.75"></path>
                                    <path d="M0.14867408,5.71034488 L49.6571429,5.71034488" id="Line-Copy-19" stroke="#464664" stroke-width="0.75"></path>
                                    <path d="M0.14867408,8.38445319 L49.6571429,8.38445319" id="Line-Copy-20" stroke="#464664" stroke-width="0.75"></path>
                                    <path d="M0.14867408,11.0585615 L49.6571429,11.0585615" id="Line-Copy-21" stroke="#464664" stroke-width="0.75"></path>
                                    <path d="M0.14867408,13.7326698 L49.6571429,13.7326698" id="Line-Copy-22" stroke="#464664" stroke-width="0.75"></path>
                                    <path d="M0.14867408,16.4067781 L49.6571429,16.4067781" id="Line-Copy-23" stroke="#464664" stroke-width="0.75"></path>
                                    <path d="M0.14867408,19.0808864 L49.6571429,19.0808864" id="Line-Copy-24" stroke="#464664" stroke-width="0.75"></path>
                                    <path d="M0.14867408,21.7549947 L49.6571429,21.7549947" id="Line-Copy-25" stroke="#464664" stroke-width="0.75"></path>
                                    <path d="M0.14867408,24.429103 L49.6571429,24.429103" id="Line-Copy-26" stroke="#464664" stroke-width="0.75"></path>
                                    <path d="M0.14867408,27.1032113 L49.6571429,27.1032113" id="Line-Copy-27" stroke="#464664" stroke-width="0.75"></path>
                                    <path d="M0.14867408,29.7773196 L49.6571429,29.7773196" id="Line-Copy-28" stroke="#464664" stroke-width="0.75"></path>
                                    <path d="M0.14867408,32.4514279 L49.6571429,32.4514279" id="Line-Copy-29" stroke="#464664" stroke-width="0.75"></path>
                                    <path d="M0.14867408,35.1255362 L49.6571429,35.1255362" id="Line-Copy-30" stroke="#464664" stroke-width="0.75"></path>
                                    <path d="M0.14867408,37.7996445 L49.6571429,37.7996445" id="Line-Copy-31" stroke="#464664" stroke-width="0.75"></path>
                                    <path d="M0.14867408,40.4737528 L49.6571429,40.4737528" id="Line-Copy-32" stroke="#464664" stroke-width="0.75"></path>
                                    <path d="M0.14867408,43.1478612 L49.6571429,43.1478612" id="Line-Copy-33" stroke="#464664" stroke-width="0.75"></path>
                                    <path d="M0.14867408,45.8219695 L49.6571429,45.8219695" id="Line-Copy-34" stroke="#464664" stroke-width="0.75"></path>
                                    <path d="M0.14867408,48.4960778 L49.6571429,48.4960778" id="Line-Copy-35" stroke="#464664" stroke-width="0.75"></path>
                                </g>
                                <g id="Group-48-Copy" transform="translate(24.666161, 24.809783) rotate(90.000000) translate(-24.666161, -24.809783) translate(-0.162410, 0.404507)">
                                    <path d="M0.14867408,0.296407186 L49.6571429,0.296407186" id="Line" stroke="#464664" stroke-width="0.75"></path>
                                    <path d="M0.14867408,3.03623658 L49.6571429,3.03623658" id="Line-Copy-18" stroke="#464664" stroke-width="0.75"></path>
                                    <path d="M0.14867408,5.71034488 L49.6571429,5.71034488" id="Line-Copy-19" stroke="#464664" stroke-width="0.75"></path>
                                    <path d="M0.14867408,8.38445319 L49.6571429,8.38445319" id="Line-Copy-20" stroke="#464664" stroke-width="0.75"></path>
                                    <path d="M0.14867408,11.0585615 L49.6571429,11.0585615" id="Line-Copy-21" stroke="#464664" stroke-width="0.75"></path>
                                    <path d="M0.14867408,13.7326698 L49.6571429,13.7326698" id="Line-Copy-22" stroke="#464664" stroke-width="0.75"></path>
                                    <path d="M0.14867408,16.4067781 L49.6571429,16.4067781" id="Line-Copy-23" stroke="#464664" stroke-width="0.75"></path>
                                    <path d="M0.14867408,19.0808864 L49.6571429,19.0808864" id="Line-Copy-24" stroke="#464664" stroke-width="0.75"></path>
                                    <path d="M0.14867408,21.7549947 L49.6571429,21.7549947" id="Line-Copy-25" stroke="#464664" stroke-width="0.75"></path>
                                    <path d="M0.14867408,24.429103 L49.6571429,24.429103" id="Line-Copy-26" stroke="#464664" stroke-width="0.75"></path>
                                    <path d="M0.14867408,27.1032113 L49.6571429,27.1032113" id="Line-Copy-27" stroke="#464664" stroke-width="0.75"></path>
                                    <path d="M0.14867408,29.7773196 L49.6571429,29.7773196" id="Line-Copy-28" stroke="#464664" stroke-width="0.75"></path>
                                    <path d="M0.14867408,32.4514279 L49.6571429,32.4514279" id="Line-Copy-29" stroke="#464664" stroke-width="0.75"></path>
                                    <path d="M0.14867408,35.1255362 L49.6571429,35.1255362" id="Line-Copy-30" stroke="#464664" stroke-width="0.75"></path>
                                    <path d="M0.14867408,37.7996445 L49.6571429,37.7996445" id="Line-Copy-31" stroke="#464664" stroke-width="0.75"></path>
                                    <path d="M0.14867408,40.4737528 L49.6571429,40.4737528" id="Line-Copy-32" stroke="#464664" stroke-width="0.75"></path>
                                    <path d="M0.14867408,43.1478612 L49.6571429,43.1478612" id="Line-Copy-33" stroke="#464664" stroke-width="0.75"></path>
                                    <path d="M0.14867408,45.8219695 L49.6571429,45.8219695" id="Line-Copy-34" stroke="#464664" stroke-width="0.75"></path>
                                    <path d="M0.14867408,48.4960778 L49.6571429,48.4960778" id="Line-Copy-35" stroke="#464664" stroke-width="0.75"></path>
                                </g>
                            </g>
                        </g>
                    </g>
                    <rect id="Rectangle-27-Copy-19" fill="#B74134" x="11.2857143" y="124.951087" width="13.0914286" height="11.7282609"></rect>
                    <rect id="Rectangle-27-Copy-18" fill="#B74134" transform="translate(53.494286, 130.815217) scale(-1, 1) translate(-53.494286, -130.815217) " x="46.9485714" y="124.951087" width="13.0914286" height="11.7282609"></rect>
                    <rect id="Rectangle-27-Copy-17" fill="#B74134" x="11.2857143" y="137.581522" width="13.0914286" height="11.7282609"></rect>
                    <rect id="Rectangle-27-Copy-16" fill="#B74134" transform="translate(53.494286, 143.445652) scale(-1, 1) translate(-53.494286, -143.445652) " x="46.9485714" y="137.581522" width="13.0914286" height="11.7282609"></rect>
                    <rect id="Rectangle-27-Copy-15" fill="#B74134" x="11.2857143" y="150.211957" width="13.0914286" height="6.31521739"></rect>
                    <rect id="Rectangle-27-Copy-14" fill="#B74134" transform="translate(53.494286, 153.369565) scale(-1, 1) translate(-53.494286, -153.369565) " x="46.9485714" y="150.211957" width="13.0914286" height="6.31521739"></rect>
                    <rect id="Rectangle-30-Copy-3" fill="#99D0DA" x="41.9828571" y="232.309783" width="14.4457143" height="4.96195652" rx="0.9"></rect>
                    <rect id="Rectangle-30-Copy-2" fill="#99D0DA" x="14.4457143" y="232.309783" width="14.4457143" height="4.96195652" rx="0.9"></rect>
                    <path d="M20.5975138,75.9731715 C20.7095119,74.0359566 22.3367037,72.1642889 24.2537416,71.7884116 L26.8888588,71.2717391 L26.8888589,92.0853935 L23.1716403,92.0853935 C21.2355296,92.0853935 19.7569091,90.5129835 19.8687924,88.5777558 L20.5975138,75.9731715 Z" id="Rectangle-35-Copy-3" fill="#D14E3F"></path>
                    <path d="M45.8775138,75.9731715 C45.9895119,74.0359566 47.6167037,72.1642889 49.5337416,71.7884116 L52.1688588,71.2717391 L52.1688589,92.0853935 L48.4516403,92.0853935 C46.5155296,92.0853935 45.0369091,90.5129835 45.1487924,88.5777558 L45.8775138,75.9731715 Z" id="Rectangle-35-Copy-2" fill="#D14E3F" transform="translate(48.655858, 81.678566) scale(-1, 1) translate(-48.655858, -81.678566) "></path>
                    <g id="Group-39-Copy" transform="translate(9.028571, 0.000000)">
                        <path d="M5.68423754,40.614262 C5.68423754,40.614262 3.13478471,37.6997858 1.26082164,38.8945971 C-0.613141422,40.0894083 -0.044033951,44.109153 0.710808383,46.569715 C1.46565072,49.0302769 2.07160086,52.8548147 3.32183055,54.331895 C4.57206024,55.8089753 6.64366102,56.0795883 6.64366102,56.0795883 L5.68423754,40.614262 Z" id="Path-21-Copy-2" fill="#FFDCBD"></path>
                        <path d="M52.9149518,40.614262 C52.9149518,40.614262 50.365499,37.6997858 48.4915359,38.8945971 C46.6175729,40.0894083 47.1866803,44.109153 47.9415227,46.569715 C48.696365,49.0302769 49.3023152,52.8548147 50.5525448,54.331895 C51.8027745,55.8089753 53.8743753,56.0795883 53.8743753,56.0795883 L52.9149518,40.614262 Z" id="Path-21-Copy-3" fill="#FFDCBD" transform="translate(50.552545, 47.343300) scale(-1, 1) translate(-50.552545, -47.343300) "></path>
                        <g id="Path-24" transform="translate(5.078571, 12.191688)">
                            <mask id="mask-24" fill="white">
                                <use xlink:href="#path-23"></use>
                            </mask>
                            <use id="Mask" fill="#FFDCBD" xlink:href="#path-23"></use>
                            <path d="M0.427801862,28.1548313 L0.70706543,28.2196112 C0.70706543,28.2196112 2.0989873,38.2998753 2.2077403,38.5028337 C2.36198207,38.7906847 11.3955406,50.1768607 11.3955406,50.1768607 C11.3955406,50.1768607 12.8275591,45.1431768 13.8286921,44.5572547 C14.3172835,44.2713022 17.3724214,44.1087471 21.2988537,44.1087471 C25.225286,44.1087471 28.7806889,44.2595203 29.1520013,44.5572547 C29.8772754,45.1388109 31.8793419,50.1768607 31.8793419,50.1768607 C31.8793419,50.1768607 40.7642769,39.6757553 41.2628969,38.5328466 C41.4222394,38.1676107 41.7046447,36.9179465 42.0151867,35.3864212 C42.0194768,35.3652634 43.3131717,27.5866118 43.3131717,27.5866118 L43.4651817,27.5866118 L43.3131717,43.9909782 L43.8096219,54.8953355 L33.2081041,65.4360654 L13.6561,66.2518707 L4.46284424,60.1215492 L-0.673753836,48.8753921 L1.02364955,43.8634854 L0.427801862,28.1548313 Z" fill="#CFAA8A" mask="url(#mask-24)"></path>
                        </g>
                        <path d="M20.2402577,60.0846868 C20.1846187,59.5385502 20.5893193,59.095819 21.1431832,59.095819 L32.2031104,59.095819 C32.7574214,59.095819 33.1619013,59.5406951 33.07272,60.099685 C33.07272,60.099685 32.8443678,66.2076368 26.5634232,66.2076368 C20.2824787,66.2076368 20.2402577,60.0846868 20.2402577,60.0846868 Z" id="Path-23" fill="#3C3C3C"></path>
                        <path d="M17.2671429,42.6709066 C17.2671429,41.5486927 16.3576413,40.6389586 15.2357143,40.6389586 C14.1137873,40.6389586 13.2042857,41.5486927 13.2042857,42.6709066" id="Oval-17" stroke="#3D3D3D" stroke-width="1.0125" stroke-linecap="round"></path>
                        <path d="M40.6285714,42.6709066 C40.6285714,41.5486927 39.7190699,40.6389586 38.5971429,40.6389586 C37.4752158,40.6389586 36.5657143,41.5486927 36.5657143,42.6709066" id="Oval-17-Copy" stroke="#3D3D3D" stroke-width="1.0125" stroke-linecap="round"></path>
                        <use id="Path-22-Copy" stroke="#5A381A" mask="url(#mask-26)" stroke-width="3.0375" fill="#5A381A" xlink:href="#path-25"></use>
                        <path d="M36.1142857,21.6521739 C36.1142857,21.6521739 37.9810018,22.0539207 40.4314021,23.9649037 C42.8818024,25.8758868 43.5063184,27.4169663 43.5063184,27.4169663" id="Path-25" stroke="#FFF1E4" stroke-width="2.025" stroke-linecap="round"></path>
                        <path d="M23.5217981,50.0727724 C23.3736663,51.2231658 23.2963863,52.0846217 23.3745714,52.2174901 C23.5134303,52.4534682 24.1210135,52.929734 24.8578864,53.3312213 C25.5329985,53.699058 26.3166357,54.0041259 26.9477586,54.0041259 C27.5801716,54.0041259 28.3550399,53.7131253 29.0240474,53.3528984 C29.7514028,52.9612541 30.3536268,52.4877817 30.511601,52.2174901 C30.8148769,51.6985893 29.3086639,42.1567186 29.3086639,42.1567186 L27.2819468,39.2099972 L25.8372321,39.539395 L24.6429743,42.8747959 L24.6429743,42.8747959" id="Path-28" stroke="#D4B69C" stroke-width="1.0125" stroke-linecap="round" fill="#FFDCBD"></path>
                        <g id="Page-1" transform="translate(5.642857, 26.614130)">
                            <mask id="mask-28" fill="white">
                                <use xlink:href="#path-27"></use>
                            </mask>
                            <g id="Clip-2"></g>
                        </g>
                        <path d="M46.1586617,39.5924886 L46.1415074,39.9096027 C46.1383474,39.9650864 46.1320274,40.0724451 46.1211931,40.2235592 C46.1026846,40.4775212 46.0792103,40.7608038 46.0503189,41.0657386 C45.967256,41.9363364 45.8557531,42.8064832 45.7117474,43.614831 C45.4440503,45.119206 45.0914846,46.2302332 44.703256,46.7052277 C44.1489017,47.2749505 42.4876446,47.4865103 39.0084846,47.4319288 C35.4164674,47.375994 33.5588389,47.1080484 32.3147017,46.3565375 C32.2966446,46.3457114 32.2776846,46.3335321 32.2582731,46.3195484 C31.7910446,45.9884505 31.2046389,45.062369 30.6114617,43.7645918 C30.3171303,43.1204397 30.0385989,42.427119 29.7853474,41.7333473 C29.6968674,41.4906625 29.6178674,41.265119 29.5497017,41.0630321 C29.5090731,40.9425918 29.4810846,40.8577875 29.4670903,40.8140321 C29.437296,40.7174995 29.3871874,40.6065321 29.3194731,40.4897005 C29.2088731,40.0855266 29.0793131,39.5654234 29.0793131,39.3317603 C29.0793131,39.0119397 29.3194731,38.4070321 29.4255589,38.1553255 C29.5790446,38.1142766 29.7510389,38.0691679 29.9456046,38.0209016 C30.5658674,37.8657277 31.2561017,37.7110049 31.9977989,37.566206 C33.9962731,37.1764668 35.9866217,36.933331 37.8361246,36.9085212 C37.9431131,36.9071679 38.0491989,36.9062658 38.1543817,36.9062658 C38.3552674,36.9067168 38.5588617,36.9098745 38.7651646,36.9157386 C40.5329589,36.9676136 42.4348274,37.2287929 44.3506903,37.6320647 C44.9948789,37.7678418 45.5997931,37.9117386 46.1586617,38.0569886 L46.1586617,39.5924886 Z M24.6602789,41.0531082 C24.5889531,41.2579016 24.3302846,42.022494 24.1939531,42.3806571 C23.9005246,43.1524668 23.5673703,43.8687929 23.1651474,44.5409125 C22.8536617,45.0614668 22.510576,45.5328527 22.1358903,45.9514614 C21.4831246,46.5189288 20.4254274,46.9415973 19.0770103,47.2158582 C18.2657931,47.3805049 17.3931817,47.4838038 16.5070274,47.536581 C15.9102389,47.5722168 15.391096,47.5803364 14.996096,47.5735701 C14.8484789,47.5717658 14.7577417,47.5708636 14.6286331,47.5681571 C14.411496,47.5636462 14.1695303,47.5559777 13.9086046,47.5437984 C13.1646503,47.5090647 12.4211474,47.4468147 11.7313646,47.3502821 C10.369856,47.1599234 9.396576,46.8504777 9.08915314,46.5062984 C8.61831314,45.9979234 8.28064457,45.0249288 8.08743314,43.7334668 C7.91950171,42.6089071 7.87797029,41.4157821 7.908216,40.3922658 C7.91092457,40.2925755 7.91363314,40.2235592 7.91543886,40.1892766 L7.93846171,39.7517223 L8.07163314,38.022706 C8.25130171,37.9712821 8.45399314,37.9121897 8.74606743,37.835956 C9.23722171,37.7069451 9.79563886,37.5774832 10.4095817,37.4565918 C12.2663074,37.0916625 14.2169303,36.8819071 16.1567189,36.9062658 C18.0247303,36.9301734 20.0186903,37.1737603 22.0099417,37.5653038 C22.7466731,37.7101027 23.4310389,37.8652766 24.0440789,38.0199995 C24.1357189,38.0430049 24.2205874,38.0651082 24.3031989,38.0867603 C24.403416,38.2351679 24.7158046,38.7331679 24.7993189,39.3317603 C24.8751589,39.8744179 24.7334103,40.6904342 24.6602789,41.0531082 L24.6602789,41.0531082 Z M47.6109074,37.1430864 C47.5775017,37.1327114 47.5021131,37.1101571 47.3937703,37.078581 C47.2159074,37.026706 47.0105074,36.9694179 46.7798274,36.907619 C46.1225474,36.731244 45.3943931,36.5553201 44.6143246,36.3911245 C42.6298446,35.9729668 40.655296,35.7018636 38.8030846,35.6477332 C38.5841417,35.6414179 38.3683589,35.6378092 38.1548331,35.6378092 C38.0437817,35.6378092 37.9318274,35.6387114 37.8189703,35.6400647 C35.883696,35.6662277 33.8206674,35.9179342 31.7526731,36.321206 C30.9884046,36.4705158 30.2765017,36.6302005 29.6354731,36.7903364 C29.4106617,36.8462712 29.2106789,36.8985973 29.0373303,36.9455103 C28.9691646,36.9640049 28.9195074,36.9779886 28.8784274,36.9892658 L26.8943989,37.1787223 L25.1085474,36.990619 C25.0674674,36.9788908 25.0182617,36.9649071 24.950096,36.9464125 C24.7785531,36.8990484 24.580376,36.8467223 24.3578217,36.7903364 C23.7231131,36.6302005 23.0170789,36.4700647 22.2568731,36.3207549 C20.1956503,35.9152277 18.1272046,35.662619 16.1729703,35.6378092 C14.136576,35.6120973 12.1001817,35.8313255 10.1626503,36.2120429 C9.52117029,36.3383473 8.93702171,36.4736734 8.42103886,36.6089995 C8.23911314,36.6568147 8.07840457,36.7010212 7.94026743,36.7411679 C7.85585029,36.7659777 7.79671314,36.7835701 7.76421029,36.7939451 L6.72457029,36.9784397 C6.31738171,37.052869 5.98603314,37.3925375 5.91786743,37.7949071 L5.65558743,39.3452929 C5.58381029,39.771119 5.81900457,40.2104777 6.21535886,40.3836951 L6.631576,40.5659342 C6.61081029,41.6088473 6.65730743,42.7843799 6.82659314,43.9202168 C7.05411314,45.4426353 7.46446171,46.6240321 8.14431314,47.3574995 C8.71853029,48.0012005 9.892696,48.3742495 11.5539531,48.6065592 C12.2870731,48.708956 13.068496,48.7748147 13.849016,48.8109016 C14.1216789,48.8235321 14.3749303,48.8321027 14.6029017,48.8366136 C14.7405874,48.8393201 14.8403531,48.8402223 14.8954274,48.8402223 C15.4001246,48.849244 15.9513189,48.8406734 16.5828674,48.8027821 C17.5254503,48.7468473 18.456296,48.6367821 19.3320674,48.4586027 C20.8994274,48.1401353 22.1602674,47.6331136 23.0121131,46.8757386 L23.0613189,46.8270212 C23.5037189,46.3375918 23.9014274,45.7895212 24.2603131,45.1900266 C24.7045189,44.4479886 25.0683703,43.6658038 25.386176,42.8294886 C25.5518503,42.3932875 25.857016,41.4857005 25.8642389,41.467206 C25.9039646,41.3670647 25.9278903,41.2912821 25.973936,41.1324995 C26.1125246,40.6570538 26.1802389,40.5993147 26.972496,40.5781136 C27.4929931,40.5636788 27.8329189,40.6985538 28.0599874,40.9236462 C28.1782617,41.0409288 28.2378503,41.1505429 28.2504903,41.1915918 C28.268096,41.2479777 28.2983417,41.3399995 28.3416789,41.4676571 C28.4130046,41.6787658 28.4951646,41.9137821 28.587256,42.1663908 C28.8508903,42.8890321 29.1416103,43.6125755 29.4512903,44.2901082 C30.135656,45.7863636 30.8082846,46.8495755 31.5192846,47.3529886 C31.5635246,47.3845647 31.608216,47.4138853 31.6533589,47.4414016 C33.1602274,48.351244 35.1690846,48.6408418 38.9886217,48.7003853 C42.9025074,48.7617332 44.7014503,48.532581 45.6566731,47.5451516 C46.2620389,46.8076245 46.662456,45.5477386 46.9667189,43.8363147 C47.117496,42.9900755 47.2330617,42.0874505 47.3192846,41.1857277 C47.3490789,40.8704179 47.373456,40.5772114 47.392416,40.3137766 C47.3928674,40.3074614 47.3928674,40.3038527 47.3933189,40.2975375 L47.8041189,40.025081 C48.100256,39.8284071 48.3029474,39.454456 48.3029474,39.1012549 L48.3029474,38.074581 C48.3029474,37.6541679 48.0144846,37.2635266 47.6109074,37.1430864 L47.6109074,37.1430864 Z" id="Fill-1" fill="#321716"></path>
                        <path d="M44.8637727,9.12007782 C44.8637727,8.97286578 45.402131,7.02301926 45.402131,7.02301926 C45.402131,7.02301926 46.3724271,8.00753687 47.1615166,9.73746513 C47.7022554,10.9229319 48.1579007,12.4584392 48.1579007,14.2670426 C48.1579007,18.7149052 45.6659787,22.5347292 45.6659787,22.5347292 L48.4919259,23.0558623 L47.8330507,25.3973648 L47.9746222,26.566763 L48.1579007,28.0806672 L47.5647395,30.8306924 L47.5647395,26.9466259 C47.5647395,26.9466259 46.5849876,24.722724 45.6659787,23.6021716 C44.7469697,22.4816191 43.8249965,21.6993287 43.8249965,21.6993287 C43.8249965,21.6993287 45.2578083,17.4960224 45.2578083,14.2670426 C45.2578083,11.5569519 44.8637727,9.26728987 44.8637727,9.12007782 Z" id="Path-26" stroke="#784B24" stroke-width="1.0125" stroke-linecap="round" stroke-linejoin="round" fill="#784C24"></path>
                        <path d="M42.2148811,19.9027712 C42.2148811,19.9027712 44.1965363,14.5206054 42.2148811,8.90068598 C40.2332258,3.28076658 35.3416992,2.4186431 35.3416992,2.4186431 L37.5278655,5.79621085 C37.5278655,5.79621085 34.8475035,4.86447405 31.323478,4.03586728 C27.7994524,3.20726052 24.7339819,2.78797543 24.7339819,2.78797543 C24.7339819,2.78797543 34.0152079,5.99879604 36.5704259,8.90068598 C39.1256438,11.8025759 37.9605856,17.8090612 37.9605856,17.8090612 L40.2196572,18.5906369 L42.2148811,19.9027712 Z" id="Path-29" stroke="#784C24" stroke-width="1.0125" stroke-linecap="round" stroke-linejoin="round" fill="#784C24"></path>
                        <path d="M45.835022,9.09589387 C45.835022,9.09589387 46.8705803,11.3715275 46.6335854,15.4468473 C46.3965904,19.5221672 44.9474649,21.7978008 44.9474649,21.7978008" id="Path-31" stroke="#5A381A" stroke-width="1.0125" stroke-linecap="round"></path>
                        <path d="M18.5256267,4.25091841 C18.5256267,4.25091841 30.1090163,6.66721451 33.1106491,8.97708246 C36.1122819,11.2869504 34.7348992,16.8243404 34.7348992,16.8243404" id="Path-32" stroke="#784C24" stroke-width="1.0125" stroke-linecap="round"></path>
                        <path d="M13.0106156,7.69173649 C13.0106156,7.69173649 24.8821324,8.77400153 28.3179953,10.3871928 C31.7538581,12.0003841 30.390836,15.8520215 30.390836,15.8520215" id="Path-33" stroke="#784C24" stroke-width="1.0125" stroke-linecap="round"></path>
                        <path d="M11.3982683,11.0896436 C11.3982683,11.0896436 19.618322,11.2218995 22.998638,12.2665958 C26.3789541,13.3112921 26.1216619,15.7359386 26.1216619,15.7359386" id="Path-34" stroke="#784C24" stroke-width="1.0125" stroke-linecap="round"></path>
                        <path d="M6.41640799,16.4726189 C6.41640799,16.4726189 11.8276931,14.1440311 15.390948,14.1474871 C18.9542028,14.150943 21.2818924,16.1409888 21.2818924,16.1409888" id="Path-35" stroke="#784C24" stroke-width="1.0125" stroke-linecap="round"></path>
                        <path d="M5.44805734,20.770665 C5.44805734,20.770665 8.87109608,18.5810541 10.1483397,18.1694641 C11.4255833,17.7578741 16.1586851,17.3529147 16.1586851,17.3529147" id="Path-36" stroke="#784C24" stroke-width="1.0125" stroke-linecap="round"></path>
                    </g>
                </g>
            </g>
            <text id="Hello,-my-name-is-Be" font-family="OpenSans-Extrabold, Open Sans" font-size="24" font-weight="600">
                <tspan x="629.302734" y="366" fill="#3D3D3D">Hello, my name is </tspan>
                <tspan x="854.794922" y="366" fill="#F96F9D">Ben Katz.</tspan>
                <tspan x="969.697266" y="366" fill="#3D3D3D"> </tspan>
                <tspan x="650.777344" y="399" fill="#3D3D3D">Im a UX &amp; IxD Designer,</tspan>
                <tspan x="527.308594" y="432" fill="#3D3D3D">and where were going we dont need roads. </tspan>
            </text>
        </g>
    </g>
</svg>