<?xml version="1.0" encoding="UTF-8"?>
<svg width="280px" height="215px" viewBox="0 0 280 215" version="1.1" xmlns="http://www.w3.org/2000/svg" xmlns:xlink="http://www.w3.org/1999/xlink">
    <!-- Generator: Sketch 43.1 (39012) - http://www.bohemiancoding.com/sketch -->
    <title>Group 13</title>
    <desc>Created with Sketch.</desc>
    <defs>
        <path d="M155,5.99761552 C155,2.68522393 157.682574,0 161.000409,0 L269.999591,0 C273.313525,0 276,2.6953123 276,5.99761552 L276,77.8660946 C276,81.1784861 273.305443,83.8637101 269.998046,83.8637101 L262.361358,83.8637101 L262.361358,95 L245.173441,84.1324074 L161.003879,83.8816003 C157.688028,83.8717198 155,81.1683978 155,77.8660946 L155,5.99761552 Z" id="path-1"></path>
        <filter x="-6.2%" y="-4.7%" width="112.4%" height="115.8%" filterUnits="objectBoundingBox" id="filter-2">
            <feOffset dx="0" dy="3" in="SourceAlpha" result="shadowOffsetOuter1"></feOffset>
            <feGaussianBlur stdDeviation="2" in="shadowOffsetOuter1" result="shadowBlurOuter1"></feGaussianBlur>
            <feColorMatrix values="0 0 0 0 0.701960784   0 0 0 0 0.701960784   0 0 0 0 0.701960784  0 0 0 0.5 0" type="matrix" in="shadowBlurOuter1"></feColorMatrix>
        </filter>
    </defs>
    <g id="Wireframeset" stroke="none" stroke-width="1" fill="none" fill-rule="evenodd">
        <g id="Group-13" transform="translate(0.000000, 1.000000)">
            <g id="BG-Copy-10" transform="translate(0.000000, 40.000000)">
                <rect id="Browser_frame" fill="#EAEDF4" x="0" y="0" width="201" height="174" rx="5"></rect>
                <rect id="Main_AREA" fill="#D3DBE9" x="9.57142857" y="30.7571429" width="181.857143" height="133.242857" rx="5"></rect>
            </g>
            <g id="Top-Copy-10" transform="translate(9.000000, 50.000000)">
                <ellipse id="Close" fill="#FC635E" cx="4.78571429" cy="5.74285714" rx="4.78571429" ry="4.78571429"></ellipse>
                <circle id="Minimise" fill="#FDBD41" cx="21.0571429" cy="5.74285714" r="4.78571429"></circle>
                <ellipse id="Maximise" fill="#35CA4A" cx="37.3285714" cy="5.74285714" rx="4.78571429" ry="4.78571429"></ellipse>
                <rect id="Address_bar" fill="#D3DBE9" x="52.6428571" y="0" width="129.214286" height="11.4857143" rx="5"></rect>
            </g>
            <g id="Rectangle-3-Copy-27" transform="translate(215.500000, 47.500000) scale(-1, 1) translate(-215.500000, -47.500000) ">
                <use fill="black" fill-opacity="1" filter="url(#filter-2)" xlink:href="#path-1"></use>
                <use fill="#FFDB9F" fill-rule="evenodd" xlink:href="#path-1"></use>
            </g>
            <g id="Group-Copy-3" transform="translate(194.000000, 8.000000)">
                <g id="Group-2" transform="translate(0.500000, 0.000000)" stroke="#FFAF28" stroke-width="2.14319451">
                    <ellipse id="Oval-18" transform="translate(15.384611, 15.229384) rotate(60.000000) translate(-15.384611, -15.229384) " cx="15.3846112" cy="15.2293843" rx="5.93399157" ry="5.99305936"></ellipse>
                    <ellipse id="Oval-18" transform="translate(15.384611, 15.229384) rotate(60.000000) translate(-15.384611, -15.229384) " cx="15.3846112" cy="15.2293843" rx="10.6312035" ry="10.737028"></ellipse>
                </g>
                <path d="M39.5211839,38.6746629 C39.5211839,37.3056681 38.2720954,36.1958763 36.7331065,36.1958763 C35.1959819,36.1958763 33.9515541,37.3014738 33.9459612,38.6662744 L33.9459612,36.9365763 C33.9459612,35.1389317 32.2727419,33.682697 30.2089493,33.682697 C28.1442247,33.682697 26.4710054,35.1389317 26.4710054,36.9365763 L26.4710054,34.4225582 C26.4710054,32.6257525 24.8043111,31.1695178 22.7479759,31.1695178 C20.6907084,31.1695178 19.0240142,32.6257525 19.0240142,34.4225582 L19.0240142,15.7045736 C19.0240142,14.0537268 17.567055,12.7149304 15.7689268,12.7149304 C13.9717308,12.7149304 12.5147716,14.0537268 12.5147716,15.7045736 L12.5147716,26.306734 L12.5147716,43.5944881 L12.5147716,35.1993 C7.51513817,33.3538466 5.97290351,36.8166215 5.97290351,38.6184603 L5.97756429,49.7457376 C5.98968231,49.9118289 5.97476782,49.9453827 5.97476782,49.9898415 C5.97476782,53.6983747 15.2394624,59.9075045 15.2394624,63.0489785 L33.8452884,63.0489785 C33.8452884,59.5417681 39.5351662,54.0657887 39.5351662,48.7911321 L39.5351662,41.9990052 L39.5211839,38.6746629 Z" id="1-finger" stroke="#FFDB9F" stroke-width="0.902777778" fill="#FFAF28" stroke-linecap="round" stroke-linejoin="round"></path>
            </g>
            <path d="M78.0551573,164.951991 C77.6075129,161.664797 79.933355,159 83.2604085,159 L117.517145,159 C120.83957,159 123.216828,161.668812 122.548187,164.919952 C122.548187,164.919952 122.249154,184.386434 100.000102,184.386434 C77.7510493,184.386434 78.0551573,164.951991 78.0551573,164.951991 Z" id="Path-23-Copy-13" fill="#A2B3CE"></path>
            <polyline id="Rectangle-11" stroke="#A2B3CE" stroke-width="6" stroke-linecap="round" stroke-linejoin="round" transform="translate(62.013456, 113.013456) rotate(45.000000) translate(-62.013456, -113.013456) " points="51.9276695 106.10965 72.0992424 103.281223 68.5637085 122.745689"></polyline>
            <polyline id="Rectangle-11-Copy" stroke="#A2B3CE" stroke-width="6" stroke-linecap="round" stroke-linejoin="round" transform="translate(138.013456, 113.013456) scale(-1, 1) rotate(45.000000) translate(-138.013456, -113.013456) " points="127.92767 106.10965 148.099242 103.281223 144.563708 122.745689"></polyline>
        </g>
    </g>
</svg>