<?xml version="1.0" encoding="UTF-8"?>
<svg width="228px" height="179px" viewBox="0 0 228 179" version="1.1" xmlns="http://www.w3.org/2000/svg" xmlns:xlink="http://www.w3.org/1999/xlink">
    <!-- Generator: Sketch 41.2 (35397) - http://www.bohemiancoding.com/sketch -->
    <title>Group 78</title>
    <desc>Created with Sketch.</desc>
    <defs>
        <filter x="-50%" y="-50%" width="200%" height="200%" filterUnits="objectBoundingBox" id="filter-1">
            <feOffset dx="0" dy="2" in="SourceAlpha" result="shadowOffsetOuter1"></feOffset>
            <feGaussianBlur stdDeviation="10" in="shadowOffsetOuter1" result="shadowBlurOuter1"></feGaussianBlur>
            <feColorMatrix values="0 0 0 0 0   0 0 0 0 0   0 0 0 0 0  0 0 0 0.5 0" type="matrix" in="shadowBlurOuter1" result="shadowMatrixOuter1"></feColorMatrix>
            <feMerge>
                <feMergeNode in="shadowMatrixOuter1"></feMergeNode>
                <feMergeNode in="SourceGraphic"></feMergeNode>
            </feMerge>
        </filter>
        <circle id="path-2" cx="149" cy="64" r="9.5"></circle>
        <mask id="mask-3" maskContentUnits="userSpaceOnUse" maskUnits="objectBoundingBox" x="0" y="0" width="19" height="19" fill="white">
            <use xlink:href="#path-2"></use>
        </mask>
        <path d="M185.471195,99.6819516 C185.471195,97.602283 183.55479,95.9163751 181.193608,95.9163751 C178.835287,95.9163751 176.926033,97.5959114 176.917452,99.6692085 L176.917452,97.041588 C176.917452,94.3107486 174.350328,92.098552 171.18397,92.098552 C168.016182,92.098552 165.449057,94.3107486 165.449057,97.041588 L165.449057,93.2224906 C165.449057,90.4929255 162.891944,88.2807289 159.737028,88.2807289 C156.580681,88.2807289 154.023568,90.4929255 154.023568,93.2224906 L154.023568,64.7876093 C154.023568,62.2797736 151.788239,60.24598 149.029475,60.24598 C146.27214,60.24598 144.036812,62.2797736 144.036812,64.7876093 L144.036812,80.8935726 L144.036812,107.155761 L144.036812,94.4024553 C136.366162,91.5989885 134,96.8593621 134,99.5965731 L134.007151,116.500252 C134.025743,116.752565 134.00286,116.803537 134.00286,116.871076 C134.00286,122.504786 148.217148,131.937205 148.217148,136.709483 L176.762995,136.709483 C176.762995,131.381607 185.492647,123.062932 185.492647,115.050091 L185.492647,104.732029 L185.471195,99.6819516 Z" id="path-4"></path>
        <filter x="-50%" y="-50%" width="200%" height="200%" filterUnits="objectBoundingBox" id="filter-5">
            <feMorphology radius="0.875" operator="dilate" in="SourceAlpha" result="shadowSpreadOuter1"></feMorphology>
            <feOffset dx="0" dy="0" in="shadowSpreadOuter1" result="shadowOffsetOuter1"></feOffset>
            <feGaussianBlur stdDeviation="4.5" in="shadowOffsetOuter1" result="shadowBlurOuter1"></feGaussianBlur>
            <feComposite in="shadowBlurOuter1" in2="SourceAlpha" operator="out" result="shadowBlurOuter1"></feComposite>
            <feColorMatrix values="0 0 0 0 0   0 0 0 0 0   0 0 0 0 0  0 0 0 0.2 0" type="matrix" in="shadowBlurOuter1"></feColorMatrix>
        </filter>
        <path d="M150.09902,40.1213203 L150.09902,50.5 C150.09902,51.3284271 149.427447,52 148.59902,52 C147.770592,52 147.09902,51.3284271 147.09902,50.5 L147.09902,40.1213203 L144.56066,42.6596797 C143.974874,43.2454661 143.025126,43.2454661 142.43934,42.6596797 C141.853553,42.0738932 141.853553,41.1241458 142.43934,40.5383593 L147.538359,35.4393398 C147.977699,35 148.621767,34.890165 149.163471,35.109835 C149.00343,35.0419733 148.806126,35 148.59902,35 C147.977699,35 147.444609,35.3777597 147.216897,35.9161323 C147.282078,35.7549806 147.391913,35.5857864 147.538359,35.4393398 C148.124146,34.8535534 149.073893,34.8535534 149.65968,35.4393398 L154.758699,40.5383593 C155.344486,41.1241458 155.344486,42.0738932 154.758699,42.6596797 C154.172913,43.2454661 153.223165,43.2454661 152.637379,42.6596797 L150.09902,40.1213203 Z" id="path-6"></path>
        <mask id="mask-7" maskContentUnits="userSpaceOnUse" maskUnits="objectBoundingBox" x="-2" y="-2" width="17.198039" height="21">
            <rect x="140" y="33" width="17.198039" height="21" fill="white"></rect>
            <use xlink:href="#path-6" fill="black"></use>
        </mask>
    </defs>
    <g id="Page-1" stroke="none" stroke-width="1" fill="none" fill-rule="evenodd">
        <g id="Group-78" transform="translate(-4.000000, 5.000000)">
            <rect id="Rectangle-91-Copy" fill="#323232" opacity="0" x="0" y="0" width="235" height="164"></rect>
            <g id="Group-75" filter="url(#filter-1)" transform="translate(25.000000, 14.000000)">
                <rect id="Rectangle" stroke="#868690" stroke-width="1.75" fill="#323232" x="0" y="0" width="177.5" height="122.915254" rx="9.375"></rect>
                <circle id="Oval" fill="#ECA021" cx="11.5" cy="9" r="3"></circle>
                <circle id="Oval-Copy" fill="#4B4B4F" cx="21.5" cy="9" r="3"></circle>
                <circle id="Oval-Copy-2" fill="#4B4B4F" cx="31.5" cy="9" r="3"></circle>
                <rect id="Rectangle-3" fill="#4B4B4F" x="8.75" y="28.1016949" width="23.5421051" height="23.7050847" rx="2"></rect>
                <rect id="Rectangle-3-Copy-2" fill="#4B4B4F" x="8.75" y="58.2033898" width="23.5421051" height="23.7050847" rx="2"></rect>
                <rect id="Rectangle-3-Copy-3" fill="#4B4B4F" x="8.75" y="88.3050847" width="23.5421051" height="23.7050847" rx="2"></rect>
                <path d="M40,44.4691283 C40,43.3610151 40.8946871,42.4627119 41.9997392,42.4627119 L118.898353,42.4627119 C120.002779,42.4627119 120.898092,43.367485 120.898092,44.4691283 L120.898092,110.003753 C120.898092,111.111866 120.003405,112.010169 118.898353,112.010169 L41.9997392,112.010169 C40.8953137,112.010169 40,111.105396 40,110.003753 L40,44.4691283 Z" id="Rectangle-3-Copy-8" fill="#4B4B4F"></path>
                <rect id="Rectangle-3-Copy-5" fill="#4B4B4F" x="40" y="28.1016949" width="80.8980923" height="6.27118644" rx="2"></rect>
                <rect id="Rectangle-3-Copy-10" fill="#4B4B4F" x="128.75" y="28.1016949" width="40.4824561" height="83.9084746" rx="2"></rect>
                <use id="Oval-18" stroke="#ECA021" mask="url(#mask-3)" stroke-width="3.5" xlink:href="#path-2"></use>
                <circle id="Oval-18" stroke="#F5A623" stroke-width="1.75" cx="149" cy="64" r="13"></circle>
                <g id="1-finger">
                    <use fill="black" fill-opacity="1" filter="url(#filter-5)" xlink:href="#path-4"></use>
                    <use stroke="#868690" stroke-width="1.75" stroke-linecap="round" stroke-linejoin="round" fill="#363636" fill-rule="evenodd" xlink:href="#path-4"></use>
                </g>
                <path d="M0.5,17.875 L177.5,17.875" id="Line" stroke="#868690" stroke-width="1.75" stroke-linecap="square"></path>
                <g id="Combined-Shape">
                    <use fill="#ECA021" fill-rule="evenodd" xlink:href="#path-6"></use>
                    <use stroke="#4B4B4F" mask="url(#mask-7)" stroke-width="4" xlink:href="#path-6"></use>
                </g>
                <path d="M46.5,50.2058824 L62.8355811,50.2058824" id="Line-Copy-54" stroke="#ECA021" stroke-width="1.75" stroke-linecap="round"></path>
                <path d="M46.5,88.2058824 L113.50337,88.2058824" id="Line-Copy-73" stroke="#ECA021" stroke-width="1.75" stroke-linecap="round"></path>
                <path d="M46.5,104.205882 L113.50337,104.205882" id="Line-Copy-75" stroke="#ECA021" stroke-width="1.75" stroke-linecap="round"></path>
                <path d="M46.5,58.2058824 L94.5019864,58.2058824" id="Line-Copy-72" stroke="#ECA021" stroke-width="1.75" stroke-linecap="round"></path>
                <path d="M46.5,96.2058824 L94.5019864,96.2058824" id="Line-Copy-74" stroke="#ECA021" stroke-width="1.75" stroke-linecap="round"></path>
            </g>
        </g>
    </g>
</svg>