<?xml version="1.0" encoding="UTF-8"?>
<svg width="422px" height="1485px" viewBox="0 0 422 1485" version="1.1" xmlns="http://www.w3.org/2000/svg" xmlns:xlink="http://www.w3.org/1999/xlink">
    <!-- Generator: Sketch 41.2 (35397) - http://www.bohemiancoding.com/sketch -->
    <title>Group 71</title>
    <desc>Created with Sketch.</desc>
    <defs>
        <path d="M1.61783404,23.9550324 C2.59345493,12.4606898 12.7289656,2.90795564 24.2686203,2.61808983 L78.8159237,1.24791032 C90.3499866,0.958184967 100.088572,10.0700089 100.567288,21.5907089 L101.457552,43.0156522 L0,43.0156522 L1.61783404,23.9550324 Z" id="path-1"></path>
        <path d="M1.61783404,23.9550324 C2.59345493,12.4606898 12.7289656,2.90795564 24.2686203,2.61808983 L78.8159237,1.24791032 C90.3499866,0.958184967 100.088572,10.0700089 100.567288,21.5907089 L101.457552,43.0156522 L0,43.0156522 L1.61783404,23.9550324 Z" id="path-3"></path>
        <path d="M0.495485694,202.32435 L5.26357596,87.2897486 C9.04633359,52.9737561 34.7399307,19.6008477 68.5288817,13.811233 L125.141341,0.484186579 L167.371431,76.0918919 L191.570329,96.6768689 L215.831805,76.0918919 C215.831805,76.0918919 241.65764,11.0607616 256.348859,0.4841866 L314.585253,10.3249031 C348.390951,16.0373497 378.864433,48.5051208 382.645173,82.8028037 L385.518726,202.32435 L382.64517,400.048274 L310.233842,400.048274 L314.58526,462.19353 L68.5288817,462.19353 L68.5288817,409.99461 L0.495485928,397.254777" id="path-5"></path>
        <rect id="path-7" x="0" y="0" width="80.0980673" height="34.9502174" rx="5.346"></rect>
        <rect id="path-9" x="0" y="0" width="80.0980673" height="34.9502174" rx="5.346"></rect>
        <path d="M0.708782409,128.471004 C-2.08225345,57.5184276 53.21315,0 124.211641,0 L131.422311,0 C202.422092,0 258.989586,57.5469367 257.769284,128.538258 L255.526805,258.994852 C254.30653,329.984571 195.752401,387.53311 124.743978,387.53311 L139.472739,387.53311 C68.4636528,387.53311 8.63673878,330.01228 5.84579742,259.062106 L0.708782409,128.471004 Z" id="path-11"></path>
        <path d="M49.0165559,184.071942 L49.0165559,161.157959 C49.0165559,161.157959 55.8789618,107.773033 154.440064,105.05418 C253.001166,102.335327 272.727466,161.157959 272.727466,161.157959 L272.727466,187.71135 L286.059585,237.093571 L287.136465,237.093571 L287.21847,228.381439 L287.553724,192.764253 L293.561079,166.574309 L291.221789,150.525871 C291.221789,150.525871 297.273143,132.904059 297.273143,131.078332 C297.273143,129.252605 284.726043,127.716848 284.726043,127.716848 C284.726043,127.716848 298.069238,98.8144255 293.561079,73.4254916 C289.05292,48.0365576 270.724901,30.3837228 270.724901,30.3837228 C268.479907,27.947665 265.428366,28.3707795 263.914601,31.3180566 L257.868942,43.0888562 C257.868942,43.0888562 245.040583,20.6433444 226.042867,10.5022155 C207.045151,0.361086641 178.667333,0.0126658419 178.667333,0.0126658419 C175.352074,-0.140353346 174.96917,1.11100833 177.826369,2.81617943 L198.634309,15.2343226 C198.634309,15.2343226 177.299106,8.68092367 159.937028,6.63344841 C142.574951,4.58597314 118.319392,6.29492546 118.319392,6.29492546 C115.004204,6.48188652 114.603525,8.03646786 117.435534,9.77398038 L126.952308,15.6127729 C126.952308,15.6127729 113.506063,14.469937 101.165854,15.6127732 C88.8256447,16.7556093 80.4847713,19.9161668 80.4847713,19.9161668 L101.165854,33.3881106 C101.165854,33.3881106 84.100473,33.0903445 73.5974326,36.4792806 C63.0943921,39.8682167 52.7242204,49.0184037 52.7242204,49.0184037 L67.0078217,54.8222939 C67.0078217,54.8222939 61.6898044,55.4982453 52.7242204,56.8951818 C43.7586364,58.2921183 41.7185428,59.8530352 39.9365913,61.4126509 C38.1546398,62.9722666 50.8469219,66.332505 50.8469219,66.332505 C50.8469219,66.332505 42.7448335,67.0125915 36.2098606,70.7645127 C29.6748876,74.5164339 26.3408125,79.8119916 25.2833969,81.0092806 C23.1286595,83.4490437 37.8847628,81.0092808 37.8847628,81.0092808 L19.5253705,98.9546254 L12.0147101,113.449568 L28.52467,110.645192 C28.52467,110.645192 24.1992441,114.414237 19.5253705,123.624011 C14.851497,132.833786 16.3154714,137.445353 16.3154714,137.445353 C16.4941647,140.753687 19.1060811,142.351342 22.1440634,141.01614 L24.6439421,139.917436 L21.9145262,152.119282 L28.52467,174.384282 L32.4303308,240.571322 L34.2804964,240.994492 L49.0165559,184.071942 Z" id="path-13"></path>
        <mask id="mask-14" maskContentUnits="userSpaceOnUse" maskUnits="objectBoundingBox" x="0" y="0" width="285.258433" height="240.994488" fill="white">
            <use xlink:href="#path-13"></use>
        </mask>
        <polygon id="path-15" points="252.308912 -0.000577171418 252.308912 78.7175681 0 78.7175681 0 -0.000577171418 252.308912 -0.000577171418"></polygon>
    </defs>
    <g id="Page-1" stroke="none" stroke-width="1" fill="none" fill-rule="evenodd">
        <g id="Group-71">
            <path d="M11.8288285,876.12 L82.8017996,876.12 L82.8017996,908.9 C82.8017996,927.003894 68.1176838,941.68 50.0160627,941.68 L44.6145654,941.68 C26.5075029,941.68 11.8288285,927.007875 11.8288285,908.9 L11.8288285,876.12 Z" id="Combined-Shape" fill="#FFDCBD"></path>
            <path d="M343.036027,876.12 L414.008998,876.12 L414.008998,908.9 C414.008998,927.003894 399.324882,941.68 381.223261,941.68 L375.821764,941.68 C357.714701,941.68 343.036027,927.007875 343.036027,908.9 L343.036027,876.12 Z" id="Combined-Shape" fill="#FFDCBD"></path>
            <g id="Group-50-Copy-3" transform="translate(290.904690, 1447.794130) scale(-1, 1) translate(-290.904690, -1447.794130) translate(234.717754, 1406.074130)">
                <path d="M34.7091625,29.5732609 L77.4281317,29.5732609" id="Line-Copy-37" stroke="#FFFFFF" stroke-width="5.346" stroke-linecap="square"></path>
                <g id="Rectangle-34" transform="translate(5.339871, 26.884783)"></g>
                <rect id="Rectangle-31" fill="#A9A9A9" x="21.3594846" y="5.37695652" width="69.418325" height="26.8847826"></rect>
                <rect id="Rectangle-33" fill="#D1C2A6" x="0" y="69.9004348" width="101.457552" height="8.06543478"></rect>
                <g id="Rectangle-34" transform="translate(0.000000, 26.884783)">
                    <mask id="mask-2" fill="white">
                        <use xlink:href="#path-1"></use>
                    </mask>
                    <use id="Mask" fill="#B5B5B5" xlink:href="#path-1"></use>
                    <path d="M88.3894305,12.4893468 C89.3738711,12.6428221 92.1723806,13.0069774 94.6935727,12.4893468 C98.4211196,11.7240372 99.3422498,8.06543478 99.3422498,8.06543478 L102.363439,22.038811 C102.363439,22.038811 96.9459415,26.6711838 92.2001816,23.5172651 C87.4544218,20.3633464 87.9183895,12.415911 88.3894305,12.4893468 Z" fill="#B54033" mask="url(#mask-2)"></path>
                </g>
                <path d="M27.1409899,8.00462329 C26.8970821,3.58379192 30.2852962,0 34.7128655,0 L77.4244287,0 C81.8501679,0 85.2405275,3.57807658 84.9963043,8.00462329 L83.2096371,40.3879854 C82.9657292,44.8088168 79.1814465,48.3926087 74.7447876,48.3926087 L37.3925066,48.3926087 C32.9614072,48.3926087 29.1718803,44.8145321 28.9276572,40.3879854 L27.1409899,8.00462329 Z" id="Rectangle-32" fill="#9A9A9A"></path>
                <path d="M34.7091625,8.06543478 L77.4281317,8.06543478" id="Line" stroke="#FFFFFF" stroke-width="5.346" stroke-linecap="square"></path>
                <path d="M34.7091625,18.8193478 L77.4281317,18.8193478" id="Line-Copy-36" stroke="#FFFFFF" stroke-width="5.346" stroke-linecap="square"></path>
                <path d="M34.7091625,29.5732609 L77.4281317,29.5732609" id="Line-Copy-38" stroke="#FFFFFF" stroke-width="5.346" stroke-linecap="square"></path>
                <path d="M34.7091625,40.3271739 L77.4281317,40.3271739" id="Line-Copy-39" stroke="#FFFFFF" stroke-width="5.346" stroke-linecap="square"></path>
            </g>
            <g id="Group-50-Copy-4" transform="translate(72.899380, 1406.074130)">
                <path d="M34.7091625,29.5732609 L77.4281317,29.5732609" id="Line-Copy-37" stroke="#FFFFFF" stroke-width="5.346" stroke-linecap="square"></path>
                <g id="Rectangle-34" transform="translate(5.339871, 26.884783)"></g>
                <rect id="Rectangle-31" fill="#A9A9A9" x="21.3594846" y="5.37695652" width="69.418325" height="26.8847826"></rect>
                <rect id="Rectangle-33" fill="#D1C2A6" x="0" y="69.9004348" width="101.457552" height="8.06543478"></rect>
                <g id="Rectangle-34" transform="translate(0.000000, 26.884783)">
                    <mask id="mask-4" fill="white">
                        <use xlink:href="#path-3"></use>
                    </mask>
                    <use id="Mask" fill="#B5B5B5" xlink:href="#path-3"></use>
                    <path d="M88.3894305,12.4893468 C89.3738711,12.6428221 92.1723806,13.0069774 94.6935727,12.4893468 C98.4211196,11.7240372 99.3422498,8.06543478 99.3422498,8.06543478 L102.363439,22.038811 C102.363439,22.038811 96.9459415,26.6711838 92.2001816,23.5172651 C87.4544218,20.3633464 87.9183895,12.415911 88.3894305,12.4893468 Z" fill="#B54033" mask="url(#mask-4)"></path>
                </g>
                <path d="M27.1409899,8.00462329 C26.8970821,3.58379192 30.2852962,0 34.7128655,0 L77.4244287,0 C81.8501679,0 85.2405275,3.57807658 84.9963043,8.00462329 L83.2096371,40.3879854 C82.9657292,44.8088168 79.1814465,48.3926087 74.7447876,48.3926087 L37.3925066,48.3926087 C32.9614072,48.3926087 29.1718803,44.8145321 28.9276572,40.3879854 L27.1409899,8.00462329 Z" id="Rectangle-32" fill="#9A9A9A"></path>
                <path d="M34.7091625,8.06543478 L77.4281317,8.06543478" id="Line" stroke="#FFFFFF" stroke-width="5.346" stroke-linecap="square"></path>
                <path d="M34.7091625,18.8193478 L77.4281317,18.8193478" id="Line-Copy-36" stroke="#FFFFFF" stroke-width="5.346" stroke-linecap="square"></path>
                <path d="M34.7091625,29.5732609 L77.4281317,29.5732609" id="Line-Copy-38" stroke="#FFFFFF" stroke-width="5.346" stroke-linecap="square"></path>
                <path d="M34.7091625,40.3271739 L77.4281317,40.3271739" id="Line-Copy-39" stroke="#FFFFFF" stroke-width="5.346" stroke-linecap="square"></path>
            </g>
            <path d="M146.846457,403.271739 L278.340784,403.271739 L278.340784,488.570448 C278.340784,488.570448 245.467202,525.188917 212.59362,525.188917 C179.720039,525.188917 146.846457,488.570448 146.846457,488.570448 L146.846457,403.271739 Z" id="Rectangle-22-Copy" fill="#FFDCBD"></path>
            <path d="M173.545813,500.056957 C173.545813,500.056957 192.215155,511.43048 211.042242,511.43048 C229.869329,511.43048 254.190122,500.056957 254.190122,500.056957 L250.973944,572.985868 L173.545813,572.985868 L173.545813,500.056957 Z" id="Rectangle-26-Copy" fill="#A62E2B"></path>
            <g id="Group-49-Copy-5" transform="translate(20.689549, 461.729783)">
                <mask id="mask-6" fill="white">
                    <use xlink:href="#path-5"></use>
                </mask>
                <use id="Mask" fill="#D7E1E3" xlink:href="#path-5"></use>
                <g id="Group-49" mask="url(#mask-6)" stroke-linecap="square">
                    <g transform="translate(46.058840, 19.507826)">
                        <g id="Group-48" transform="translate(0.000000, 1.770854)">
                            <path d="M0.8793201,1.76658683 L293.692914,1.76658683" id="Line" stroke="#464664" stroke-width="4.455"></path>
                            <path d="M0.8793201,18.09597 L293.692914,18.09597" id="Line-Copy-18" stroke="#464664" stroke-width="4.455"></path>
                            <path d="M0.8793201,34.0336555 L293.692914,34.0336555" id="Line-Copy-19" stroke="#464664" stroke-width="4.455"></path>
                            <path d="M0.8793201,49.971341 L293.692914,49.971341" id="Line-Copy-20" stroke="#464664" stroke-width="4.455"></path>
                            <path d="M0.8793201,65.9090265 L293.692914,65.9090265" id="Line-Copy-21" stroke="#464664" stroke-width="4.455"></path>
                            <path d="M0.8793201,81.846712 L293.692914,81.846712" id="Line-Copy-22" stroke="#464664" stroke-width="4.455"></path>
                            <path d="M0.8793201,97.7843975 L293.692914,97.7843975" id="Line-Copy-23" stroke="#464664" stroke-width="4.455"></path>
                            <path d="M0.8793201,113.722083 L293.692914,113.722083" id="Line-Copy-24" stroke="#464664" stroke-width="4.455"></path>
                            <path d="M0.8793201,129.659768 L293.692914,129.659768" id="Line-Copy-25" stroke="#464664" stroke-width="4.455"></path>
                            <path d="M0.8793201,145.597454 L293.692914,145.597454" id="Line-Copy-26" stroke="#464664" stroke-width="4.455"></path>
                            <path d="M0.8793201,161.535139 L293.692914,161.535139" id="Line-Copy-27" stroke="#464664" stroke-width="4.455"></path>
                            <path d="M0.8793201,177.472825 L293.692914,177.472825" id="Line-Copy-28" stroke="#464664" stroke-width="4.455"></path>
                            <path d="M0.8793201,193.41051 L293.692914,193.41051" id="Line-Copy-29" stroke="#464664" stroke-width="4.455"></path>
                            <path d="M0.8793201,209.348196 L293.692914,209.348196" id="Line-Copy-30" stroke="#464664" stroke-width="4.455"></path>
                            <path d="M0.8793201,225.285881 L293.692914,225.285881" id="Line-Copy-31" stroke="#464664" stroke-width="4.455"></path>
                            <path d="M0.8793201,241.223567 L293.692914,241.223567" id="Line-Copy-32" stroke="#464664" stroke-width="4.455"></path>
                            <path d="M0.8793201,257.161252 L293.692914,257.161252" id="Line-Copy-33" stroke="#464664" stroke-width="4.455"></path>
                            <path d="M0.8793201,273.098938 L293.692914,273.098938" id="Line-Copy-34" stroke="#464664" stroke-width="4.455"></path>
                            <path d="M0.8793201,289.036623 L293.692914,289.036623" id="Line-Copy-35" stroke="#464664" stroke-width="4.455"></path>
                        </g>
                        <g id="Group-48-Copy" transform="translate(145.885895, 147.866304) rotate(90.000000) translate(-145.885895, -147.866304) translate(-0.960562, 2.410864)">
                            <path d="M0.8793201,1.76658683 L293.692914,1.76658683" id="Line" stroke="#464664" stroke-width="4.455"></path>
                            <path d="M0.8793201,18.09597 L293.692914,18.09597" id="Line-Copy-18" stroke="#464664" stroke-width="4.455"></path>
                            <path d="M0.8793201,34.0336555 L293.692914,34.0336555" id="Line-Copy-19" stroke="#464664" stroke-width="4.455"></path>
                            <path d="M0.8793201,49.971341 L293.692914,49.971341" id="Line-Copy-20" stroke="#464664" stroke-width="4.455"></path>
                            <path d="M0.8793201,65.9090265 L293.692914,65.9090265" id="Line-Copy-21" stroke="#464664" stroke-width="4.455"></path>
                            <path d="M0.8793201,81.846712 L293.692914,81.846712" id="Line-Copy-22" stroke="#464664" stroke-width="4.455"></path>
                            <path d="M0.8793201,97.7843975 L293.692914,97.7843975" id="Line-Copy-23" stroke="#464664" stroke-width="4.455"></path>
                            <path d="M0.8793201,113.722083 L293.692914,113.722083" id="Line-Copy-24" stroke="#464664" stroke-width="4.455"></path>
                            <path d="M0.8793201,129.659768 L293.692914,129.659768" id="Line-Copy-25" stroke="#464664" stroke-width="4.455"></path>
                            <path d="M0.8793201,145.597454 L293.692914,145.597454" id="Line-Copy-26" stroke="#464664" stroke-width="4.455"></path>
                            <path d="M0.8793201,161.535139 L293.692914,161.535139" id="Line-Copy-27" stroke="#464664" stroke-width="4.455"></path>
                            <path d="M0.8793201,177.472825 L293.692914,177.472825" id="Line-Copy-28" stroke="#464664" stroke-width="4.455"></path>
                            <path d="M0.8793201,193.41051 L293.692914,193.41051" id="Line-Copy-29" stroke="#464664" stroke-width="4.455"></path>
                            <path d="M0.8793201,209.348196 L293.692914,209.348196" id="Line-Copy-30" stroke="#464664" stroke-width="4.455"></path>
                            <path d="M0.8793201,225.285881 L293.692914,225.285881" id="Line-Copy-31" stroke="#464664" stroke-width="4.455"></path>
                            <path d="M0.8793201,241.223567 L293.692914,241.223567" id="Line-Copy-32" stroke="#464664" stroke-width="4.455"></path>
                            <path d="M0.8793201,257.161252 L293.692914,257.161252" id="Line-Copy-33" stroke="#464664" stroke-width="4.455"></path>
                            <path d="M0.8793201,273.098938 L293.692914,273.098938" id="Line-Copy-34" stroke="#464664" stroke-width="4.455"></path>
                            <path d="M0.8793201,289.036623 L293.692914,289.036623" id="Line-Copy-35" stroke="#464664" stroke-width="4.455"></path>
                        </g>
                    </g>
                </g>
                <g id="Group-49-Copy" mask="url(#mask-6)" stroke-linecap="square">
                    <g transform="translate(46.058840, 307.175000)">
                        <g id="Group-48" transform="translate(0.000000, 1.770854)">
                            <path d="M0.8793201,1.76658683 L293.692914,1.76658683" id="Line" stroke="#464664" stroke-width="4.455"></path>
                            <path d="M0.8793201,18.09597 L293.692914,18.09597" id="Line-Copy-18" stroke="#464664" stroke-width="4.455"></path>
                            <path d="M0.8793201,34.0336555 L293.692914,34.0336555" id="Line-Copy-19" stroke="#464664" stroke-width="4.455"></path>
                            <path d="M0.8793201,49.971341 L293.692914,49.971341" id="Line-Copy-20" stroke="#464664" stroke-width="4.455"></path>
                            <path d="M0.8793201,65.9090265 L293.692914,65.9090265" id="Line-Copy-21" stroke="#464664" stroke-width="4.455"></path>
                            <path d="M0.8793201,81.846712 L293.692914,81.846712" id="Line-Copy-22" stroke="#464664" stroke-width="4.455"></path>
                            <path d="M0.8793201,97.7843975 L293.692914,97.7843975" id="Line-Copy-23" stroke="#464664" stroke-width="4.455"></path>
                            <path d="M0.8793201,113.722083 L293.692914,113.722083" id="Line-Copy-24" stroke="#464664" stroke-width="4.455"></path>
                            <path d="M0.8793201,129.659768 L293.692914,129.659768" id="Line-Copy-25" stroke="#464664" stroke-width="4.455"></path>
                            <path d="M0.8793201,145.597454 L293.692914,145.597454" id="Line-Copy-26" stroke="#464664" stroke-width="4.455"></path>
                            <path d="M0.8793201,161.535139 L293.692914,161.535139" id="Line-Copy-27" stroke="#464664" stroke-width="4.455"></path>
                            <path d="M0.8793201,177.472825 L293.692914,177.472825" id="Line-Copy-28" stroke="#464664" stroke-width="4.455"></path>
                            <path d="M0.8793201,193.41051 L293.692914,193.41051" id="Line-Copy-29" stroke="#464664" stroke-width="4.455"></path>
                            <path d="M0.8793201,209.348196 L293.692914,209.348196" id="Line-Copy-30" stroke="#464664" stroke-width="4.455"></path>
                            <path d="M0.8793201,225.285881 L293.692914,225.285881" id="Line-Copy-31" stroke="#464664" stroke-width="4.455"></path>
                            <path d="M0.8793201,241.223567 L293.692914,241.223567" id="Line-Copy-32" stroke="#464664" stroke-width="4.455"></path>
                            <path d="M0.8793201,257.161252 L293.692914,257.161252" id="Line-Copy-33" stroke="#464664" stroke-width="4.455"></path>
                            <path d="M0.8793201,273.098938 L293.692914,273.098938" id="Line-Copy-34" stroke="#464664" stroke-width="4.455"></path>
                            <path d="M0.8793201,289.036623 L293.692914,289.036623" id="Line-Copy-35" stroke="#464664" stroke-width="4.455"></path>
                        </g>
                        <g id="Group-48-Copy" transform="translate(145.885895, 147.866304) rotate(90.000000) translate(-145.885895, -147.866304) translate(-0.960562, 2.410864)">
                            <path d="M0.8793201,1.76658683 L293.692914,1.76658683" id="Line" stroke="#464664" stroke-width="4.455"></path>
                            <path d="M0.8793201,18.09597 L293.692914,18.09597" id="Line-Copy-18" stroke="#464664" stroke-width="4.455"></path>
                            <path d="M0.8793201,34.0336555 L293.692914,34.0336555" id="Line-Copy-19" stroke="#464664" stroke-width="4.455"></path>
                            <path d="M0.8793201,49.971341 L293.692914,49.971341" id="Line-Copy-20" stroke="#464664" stroke-width="4.455"></path>
                            <path d="M0.8793201,65.9090265 L293.692914,65.9090265" id="Line-Copy-21" stroke="#464664" stroke-width="4.455"></path>
                            <path d="M0.8793201,81.846712 L293.692914,81.846712" id="Line-Copy-22" stroke="#464664" stroke-width="4.455"></path>
                            <path d="M0.8793201,97.7843975 L293.692914,97.7843975" id="Line-Copy-23" stroke="#464664" stroke-width="4.455"></path>
                            <path d="M0.8793201,113.722083 L293.692914,113.722083" id="Line-Copy-24" stroke="#464664" stroke-width="4.455"></path>
                            <path d="M0.8793201,129.659768 L293.692914,129.659768" id="Line-Copy-25" stroke="#464664" stroke-width="4.455"></path>
                            <path d="M0.8793201,145.597454 L293.692914,145.597454" id="Line-Copy-26" stroke="#464664" stroke-width="4.455"></path>
                            <path d="M0.8793201,161.535139 L293.692914,161.535139" id="Line-Copy-27" stroke="#464664" stroke-width="4.455"></path>
                            <path d="M0.8793201,177.472825 L293.692914,177.472825" id="Line-Copy-28" stroke="#464664" stroke-width="4.455"></path>
                            <path d="M0.8793201,193.41051 L293.692914,193.41051" id="Line-Copy-29" stroke="#464664" stroke-width="4.455"></path>
                            <path d="M0.8793201,209.348196 L293.692914,209.348196" id="Line-Copy-30" stroke="#464664" stroke-width="4.455"></path>
                            <path d="M0.8793201,225.285881 L293.692914,225.285881" id="Line-Copy-31" stroke="#464664" stroke-width="4.455"></path>
                            <path d="M0.8793201,241.223567 L293.692914,241.223567" id="Line-Copy-32" stroke="#464664" stroke-width="4.455"></path>
                            <path d="M0.8793201,257.161252 L293.692914,257.161252" id="Line-Copy-33" stroke="#464664" stroke-width="4.455"></path>
                            <path d="M0.8793201,273.098938 L293.692914,273.098938" id="Line-Copy-34" stroke="#464664" stroke-width="4.455"></path>
                            <path d="M0.8793201,289.036623 L293.692914,289.036623" id="Line-Copy-35" stroke="#464664" stroke-width="4.455"></path>
                        </g>
                    </g>
                </g>
            </g>
            <path d="M90.7778096,908.705652 L328.402076,908.705652 L328.402076,1408.76261 L254.978848,1408.76261 C254.978848,1408.76261 222.522443,1030.45906 209.589943,1030.45906 C196.657442,1030.45906 164.201038,1408.76261 164.201038,1408.76261 L90.7778096,1408.76261 L90.7778096,908.705652 Z" id="Rectangle-28-Copy" fill="#76B1C2"></path>
            <rect id="Rectangle-29-Copy" fill="#5C9BAA" x="170.875877" y="897.951739" width="82.7680029" height="16.1308696"></rect>
            <path d="M188.950089,486.866878 C166.177256,478.593754 147.885489,462.418261 147.885489,462.418261 L91.2730302,472.118601 C57.4840792,477.908216 27.0223915,510.420885 23.2396338,544.736878 C23.2396338,544.736878 15.7678764,603.730005 13.3496779,663.783215 L13.3496779,871.928684 L91.2730296,871.928684 L91.2730296,924.127605 L188.950089,924.127605 L188.950089,486.866878 Z M237.00893,487.208117 C260.244389,479.047773 279.093007,462.418261 279.093007,462.418261 L337.329401,472.258977 C371.135099,477.971424 401.608581,510.439195 405.389321,544.736878 C405.389321,544.736878 408.914076,561.129417 413.154279,669.614377 C417.394482,778.099338 413.154279,871.928684 413.154279,871.928684 L337.329408,871.928684 L337.329408,924.127605 L237.00893,924.127605 L237.00893,487.208117 Z" id="Combined-Shape-Copy-6" fill="#19586C"></path>
            <path d="M328.402076,491.991522 C328.402076,491.991522 344.41126,493.936993 363.536238,511.052413 C382.661216,528.167832 386.10293,557.741093 386.10293,557.741093 M392.417062,593.094649 L395.311228,653.474702" id="Path-25-Copy-2" stroke-opacity="0.358129529" stroke="#FFFFFF" stroke-width="12.0285" stroke-linecap="round"></path>
            <path d="M145.731811,462.418261 L128.156908,465.813646 C128.156908,465.813646 132.300856,481.477831 140.911456,497.516817 C149.522055,513.555804 164.676881,533.839497 164.676881,533.839497 L186.864528,486.830182 C186.864528,486.830182 175.093745,480.97809 165.368483,475.554785 C155.643221,470.13148 145.731811,462.418261 145.731811,462.418261 Z" id="Path-22-Copy-4" fill="#24788F"></path>
            <path d="M256.257757,462.418261 L237.624266,465.728975 C237.624266,465.728975 241.768215,481.393159 250.378815,497.432146 C258.989414,513.471132 274.14424,533.754826 274.14424,533.754826 L298.114342,486.790472 C298.114342,486.790472 284.561104,480.893419 274.835842,475.470114 C265.11058,470.046809 256.257757,462.418261 256.257757,462.418261 Z" id="Path-22-Copy-3" fill="#24788F" transform="translate(267.869304, 498.086543) scale(-1, 1) translate(-267.869304, -498.086543) "></path>
            <g id="Group-49-Copy-4" transform="translate(341.751754, 841.493696)">
                <mask id="mask-8" fill="white">
                    <use xlink:href="#path-7"></use>
                </mask>
                <use id="Mask" fill="#D7E1E3" xlink:href="#path-7"></use>
                <g id="Group-49-Copy" mask="url(#mask-8)" stroke-linecap="square">
                    <g transform="translate(-74.758196, -102.162174)">
                        <g id="Group-48" transform="translate(0.000000, 1.770854)">
                            <path d="M0.8793201,1.76658683 L293.692914,1.76658683" id="Line" stroke="#464664" stroke-width="4.455"></path>
                            <path d="M0.8793201,18.09597 L293.692914,18.09597" id="Line-Copy-18" stroke="#464664" stroke-width="4.455"></path>
                            <path d="M0.8793201,34.0336555 L293.692914,34.0336555" id="Line-Copy-19" stroke="#464664" stroke-width="4.455"></path>
                            <path d="M0.8793201,49.971341 L293.692914,49.971341" id="Line-Copy-20" stroke="#464664" stroke-width="4.455"></path>
                            <path d="M0.8793201,65.9090265 L293.692914,65.9090265" id="Line-Copy-21" stroke="#464664" stroke-width="4.455"></path>
                            <path d="M0.8793201,81.846712 L293.692914,81.846712" id="Line-Copy-22" stroke="#464664" stroke-width="4.455"></path>
                            <path d="M0.8793201,97.7843975 L293.692914,97.7843975" id="Line-Copy-23" stroke="#464664" stroke-width="4.455"></path>
                            <path d="M0.8793201,113.722083 L293.692914,113.722083" id="Line-Copy-24" stroke="#464664" stroke-width="4.455"></path>
                            <path d="M0.8793201,129.659768 L293.692914,129.659768" id="Line-Copy-25" stroke="#464664" stroke-width="4.455"></path>
                            <path d="M0.8793201,145.597454 L293.692914,145.597454" id="Line-Copy-26" stroke="#464664" stroke-width="4.455"></path>
                            <path d="M0.8793201,161.535139 L293.692914,161.535139" id="Line-Copy-27" stroke="#464664" stroke-width="4.455"></path>
                            <path d="M0.8793201,177.472825 L293.692914,177.472825" id="Line-Copy-28" stroke="#464664" stroke-width="4.455"></path>
                            <path d="M0.8793201,193.41051 L293.692914,193.41051" id="Line-Copy-29" stroke="#464664" stroke-width="4.455"></path>
                            <path d="M0.8793201,209.348196 L293.692914,209.348196" id="Line-Copy-30" stroke="#464664" stroke-width="4.455"></path>
                            <path d="M0.8793201,225.285881 L293.692914,225.285881" id="Line-Copy-31" stroke="#464664" stroke-width="4.455"></path>
                            <path d="M0.8793201,241.223567 L293.692914,241.223567" id="Line-Copy-32" stroke="#464664" stroke-width="4.455"></path>
                            <path d="M0.8793201,257.161252 L293.692914,257.161252" id="Line-Copy-33" stroke="#464664" stroke-width="4.455"></path>
                            <path d="M0.8793201,273.098938 L293.692914,273.098938" id="Line-Copy-34" stroke="#464664" stroke-width="4.455"></path>
                            <path d="M0.8793201,289.036623 L293.692914,289.036623" id="Line-Copy-35" stroke="#464664" stroke-width="4.455"></path>
                        </g>
                        <g id="Group-48-Copy" transform="translate(145.885895, 147.866304) rotate(90.000000) translate(-145.885895, -147.866304) translate(-0.960562, 2.410864)">
                            <path d="M0.8793201,145.597454 L293.692914,145.597454" id="Line-Copy-26" stroke="#464664" stroke-width="4.455"></path>
                            <path d="M0.8793201,161.535139 L293.692914,161.535139" id="Line-Copy-27" stroke="#464664" stroke-width="4.455"></path>
                            <path d="M0.8793201,177.472825 L293.692914,177.472825" id="Line-Copy-28" stroke="#464664" stroke-width="4.455"></path>
                            <path d="M0.8793201,193.41051 L293.692914,193.41051" id="Line-Copy-29" stroke="#464664" stroke-width="4.455"></path>
                            <path d="M0.8793201,209.348196 L293.692914,209.348196" id="Line-Copy-30" stroke="#464664" stroke-width="4.455"></path>
                            <path d="M0.8793201,225.285881 L293.692914,225.285881" id="Line-Copy-31" stroke="#464664" stroke-width="4.455"></path>
                            <path d="M0.8793201,241.223567 L293.692914,241.223567" id="Line-Copy-32" stroke="#464664" stroke-width="4.455"></path>
                            <path d="M0.8793201,257.161252 L293.692914,257.161252" id="Line-Copy-33" stroke="#464664" stroke-width="4.455"></path>
                            <path d="M0.8793201,273.098938 L293.692914,273.098938" id="Line-Copy-34" stroke="#464664" stroke-width="4.455"></path>
                            <path d="M0.8793201,289.036623 L293.692914,289.036623" id="Line-Copy-35" stroke="#464664" stroke-width="4.455"></path>
                        </g>
                    </g>
                </g>
            </g>
            <path d="M157.596109,468.312434 L157.596109,922.583792 C157.596109,927.011994 154.002007,930.60176 149.577744,930.601759 L99.529615,930.601751 C87.7205279,930.601749 78.1117503,921.018502 78.0695484,909.217207 C78.0695484,909.217207 76.5761126,522.906445 78.1473712,481.297994 C78.1473712,470.791431 95.8553383,469.026233 95.8553383,469.026233 L146.110204,459.729783 C146.110204,459.729783 153.003252,465.070438 157.596109,468.312434 Z" id="Path-27-Copy-3" fill="#A62E2B"></path>
            <path d="M343.87873,470.115474 C348.471587,473.35747 345.105133,471.075738 345.105133,471.075738 L345.105133,925.110912 C345.105133,929.540141 341.509487,933.130741 337.080379,933.13074 L286.419188,933.130732 C274.613369,933.13073 265.007241,923.547484 264.965039,911.746188 C264.965039,911.746188 263.471603,525.435427 265.042862,483.826976 C265.042862,473.320412 282.452903,471.075738 282.452903,471.075738 L333.374625,462.418261 C333.374625,462.418261 339.285873,466.873478 343.87873,470.115474 Z" id="Path-27-Copy-2" fill="#A62E2B" transform="translate(305.309235, 697.774500) scale(-1, 1) translate(-305.309235, -697.774500) "></path>
            <ellipse id="Oval-16-Copy-17" fill="#FFFFFF" cx="212.259878" cy="598.186413" rx="6.67483894" ry="6.72119565"></ellipse>
            <ellipse id="Oval-16-Copy-16" fill="#FFFFFF" cx="212.259878" cy="638.513587" rx="6.67483894" ry="6.72119565"></ellipse>
            <ellipse id="Oval-16-Copy-15" fill="#FFFFFF" cx="212.259878" cy="678.840761" rx="6.67483894" ry="6.72119565"></ellipse>
            <ellipse id="Oval-16-Copy-14" fill="#FFFFFF" cx="212.259878" cy="719.167935" rx="6.67483894" ry="6.72119565"></ellipse>
            <ellipse id="Oval-16-Copy-13" fill="#FFFFFF" cx="212.259878" cy="759.495109" rx="6.67483894" ry="6.72119565"></ellipse>
            <ellipse id="Oval-16-Copy-12" fill="#FFFFFF" cx="212.259878" cy="799.822283" rx="6.67483894" ry="6.72119565"></ellipse>
            <ellipse id="Oval-16-Copy-11" fill="#FFFFFF" cx="212.259878" cy="840.149457" rx="6.67483894" ry="6.72119565"></ellipse>
            <ellipse id="Oval-16-Copy-10" fill="#FFFFFF" cx="212.259878" cy="880.47663" rx="6.67483894" ry="6.72119565"></ellipse>
            <path d="M66.7483894,532.250455 C66.7483894,524.864116 72.7275114,518.876304 80.1138517,518.876304 L138.824023,518.876304 C141.780126,518.876304 144.176521,521.262214 144.176521,524.216356 L144.176521,583.436687 C144.176521,586.385916 141.774346,588.776739 138.824023,588.776739 L80.1138517,588.776739 C72.7323107,588.776739 66.7483894,582.78685 66.7483894,575.402588 L66.7483894,532.250455 Z" id="Combined-Shape" fill="#B74134"></path>
            <path d="M355.101432,532.250455 C355.101432,524.864116 349.12231,518.876304 341.73597,518.876304 L283.025798,518.876304 C280.069695,518.876304 277.6733,521.262214 277.6733,524.216356 L277.6733,583.436687 C277.6733,586.385916 280.075475,588.776739 283.025798,588.776739 L341.73597,588.776739 C349.117511,588.776739 355.101432,582.78685 355.101432,575.402588 L355.101432,532.250455 Z" id="Combined-Shape" fill="#B74134"></path>
            <path d="M73.4986323,485.596024 C75.3763514,478.455483 82.7991455,471.67316 90.0706393,470.448503 L137.311123,462.492317 C140.218092,462.002729 142.635205,463.989808 142.710406,466.95061 L143.7302,507.101925 C143.805173,510.053761 141.463776,512.446696 138.513453,512.446696 L79.8032813,512.446696 C72.4217404,512.446696 67.9588982,506.662377 69.8377303,499.517604 L73.4986323,485.596024 Z" id="Combined-Shape" fill="#B74134"></path>
            <path d="M349.464114,484.981444 C347.263676,477.938083 339.57755,471.251789 332.292895,470.046562 L286.641344,462.493637 C283.728691,462.011746 281.312157,464.011263 281.243591,466.97149 L280.343627,505.826227 C280.275184,508.781167 282.621875,511.17662 285.572198,511.17662 L344.282369,511.17662 C351.66391,511.17662 355.865474,505.471489 353.663585,498.423487 L349.464114,484.981444 Z" id="Combined-Shape" fill="#B74134"></path>
            <path d="M66.7483894,607.527846 C66.7483894,600.141507 72.7275114,594.153696 80.1138517,594.153696 L138.824023,594.153696 C141.780126,594.153696 144.176521,596.539605 144.176521,599.493747 L144.176521,658.714079 C144.176521,661.663308 141.774346,664.05413 138.824023,664.05413 L80.1138517,664.05413 C72.7323107,664.05413 66.7483894,658.064241 66.7483894,650.67998 L66.7483894,607.527846 Z" id="Combined-Shape" fill="#B74134"></path>
            <path d="M355.101432,607.527846 C355.101432,600.141507 349.12231,594.153696 341.73597,594.153696 L283.025798,594.153696 C280.069695,594.153696 277.6733,596.539605 277.6733,599.493747 L277.6733,658.714079 C277.6733,661.663308 280.075475,664.05413 283.025798,664.05413 L341.73597,664.05413 C349.117511,664.05413 355.101432,658.064241 355.101432,650.67998 L355.101432,607.527846 Z" id="Combined-Shape" fill="#B74134"></path>
            <path d="M66.7483894,682.805238 C66.7483894,675.418898 72.7275114,669.431087 80.1138517,669.431087 L138.824023,669.431087 C141.780126,669.431087 144.176521,671.816997 144.176521,674.771139 L144.176521,733.99147 C144.176521,736.940699 141.774346,739.331522 138.824023,739.331522 L80.1138517,739.331522 C72.7323107,739.331522 66.7483894,733.341632 66.7483894,725.957371 L66.7483894,682.805238 Z" id="Combined-Shape" fill="#B74134"></path>
            <path d="M355.101432,682.805238 C355.101432,675.418898 349.12231,669.431087 341.73597,669.431087 L283.025798,669.431087 C280.069695,669.431087 277.6733,671.816997 277.6733,674.771139 L277.6733,733.99147 C277.6733,736.940699 280.075475,739.331522 283.025798,739.331522 L341.73597,739.331522 C349.117511,739.331522 355.101432,733.341632 355.101432,725.957371 L355.101432,682.805238 Z" id="Combined-Shape" fill="#B74134"></path>
            <g id="Group-49-Copy-3" transform="translate(0.000000, 841.493696)">
                <mask id="mask-10" fill="white">
                    <use xlink:href="#path-9"></use>
                </mask>
                <use id="Mask" fill="#D7E1E3" xlink:href="#path-9"></use>
                <g id="Group-49-Copy" mask="url(#mask-10)" stroke-linecap="square">
                    <g transform="translate(-74.758196, -102.162174)">
                        <g id="Group-48" transform="translate(0.000000, 1.770854)">
                            <path d="M0.8793201,1.76658683 L293.692914,1.76658683" id="Line" stroke="#464664" stroke-width="4.455"></path>
                            <path d="M0.8793201,18.09597 L293.692914,18.09597" id="Line-Copy-18" stroke="#464664" stroke-width="4.455"></path>
                            <path d="M0.8793201,34.0336555 L293.692914,34.0336555" id="Line-Copy-19" stroke="#464664" stroke-width="4.455"></path>
                            <path d="M0.8793201,49.971341 L293.692914,49.971341" id="Line-Copy-20" stroke="#464664" stroke-width="4.455"></path>
                            <path d="M0.8793201,65.9090265 L293.692914,65.9090265" id="Line-Copy-21" stroke="#464664" stroke-width="4.455"></path>
                            <path d="M0.8793201,81.846712 L293.692914,81.846712" id="Line-Copy-22" stroke="#464664" stroke-width="4.455"></path>
                            <path d="M0.8793201,97.7843975 L293.692914,97.7843975" id="Line-Copy-23" stroke="#464664" stroke-width="4.455"></path>
                            <path d="M0.8793201,113.722083 L293.692914,113.722083" id="Line-Copy-24" stroke="#464664" stroke-width="4.455"></path>
                            <path d="M0.8793201,129.659768 L293.692914,129.659768" id="Line-Copy-25" stroke="#464664" stroke-width="4.455"></path>
                            <path d="M0.8793201,145.597454 L293.692914,145.597454" id="Line-Copy-26" stroke="#464664" stroke-width="4.455"></path>
                            <path d="M0.8793201,161.535139 L293.692914,161.535139" id="Line-Copy-27" stroke="#464664" stroke-width="4.455"></path>
                            <path d="M0.8793201,177.472825 L293.692914,177.472825" id="Line-Copy-28" stroke="#464664" stroke-width="4.455"></path>
                            <path d="M0.8793201,193.41051 L293.692914,193.41051" id="Line-Copy-29" stroke="#464664" stroke-width="4.455"></path>
                            <path d="M0.8793201,209.348196 L293.692914,209.348196" id="Line-Copy-30" stroke="#464664" stroke-width="4.455"></path>
                            <path d="M0.8793201,225.285881 L293.692914,225.285881" id="Line-Copy-31" stroke="#464664" stroke-width="4.455"></path>
                            <path d="M0.8793201,241.223567 L293.692914,241.223567" id="Line-Copy-32" stroke="#464664" stroke-width="4.455"></path>
                            <path d="M0.8793201,257.161252 L293.692914,257.161252" id="Line-Copy-33" stroke="#464664" stroke-width="4.455"></path>
                            <path d="M0.8793201,273.098938 L293.692914,273.098938" id="Line-Copy-34" stroke="#464664" stroke-width="4.455"></path>
                            <path d="M0.8793201,289.036623 L293.692914,289.036623" id="Line-Copy-35" stroke="#464664" stroke-width="4.455"></path>
                        </g>
                        <g id="Group-48-Copy" transform="translate(145.885895, 147.866304) rotate(90.000000) translate(-145.885895, -147.866304) translate(-0.960562, 2.410864)">
                            <path d="M0.8793201,1.76658683 L293.692914,1.76658683" id="Line" stroke="#464664" stroke-width="4.455"></path>
                            <path d="M0.8793201,18.09597 L293.692914,18.09597" id="Line-Copy-18" stroke="#464664" stroke-width="4.455"></path>
                            <path d="M0.8793201,34.0336555 L293.692914,34.0336555" id="Line-Copy-19" stroke="#464664" stroke-width="4.455"></path>
                            <path d="M0.8793201,49.971341 L293.692914,49.971341" id="Line-Copy-20" stroke="#464664" stroke-width="4.455"></path>
                            <path d="M0.8793201,65.9090265 L293.692914,65.9090265" id="Line-Copy-21" stroke="#464664" stroke-width="4.455"></path>
                            <path d="M0.8793201,81.846712 L293.692914,81.846712" id="Line-Copy-22" stroke="#464664" stroke-width="4.455"></path>
                            <path d="M0.8793201,97.7843975 L293.692914,97.7843975" id="Line-Copy-23" stroke="#464664" stroke-width="4.455"></path>
                            <path d="M0.8793201,113.722083 L293.692914,113.722083" id="Line-Copy-24" stroke="#464664" stroke-width="4.455"></path>
                            <path d="M0.8793201,129.659768 L293.692914,129.659768" id="Line-Copy-25" stroke="#464664" stroke-width="4.455"></path>
                            <path d="M0.8793201,145.597454 L293.692914,145.597454" id="Line-Copy-26" stroke="#464664" stroke-width="4.455"></path>
                            <path d="M0.8793201,161.535139 L293.692914,161.535139" id="Line-Copy-27" stroke="#464664" stroke-width="4.455"></path>
                            <path d="M0.8793201,177.472825 L293.692914,177.472825" id="Line-Copy-28" stroke="#464664" stroke-width="4.455"></path>
                            <path d="M0.8793201,193.41051 L293.692914,193.41051" id="Line-Copy-29" stroke="#464664" stroke-width="4.455"></path>
                            <path d="M0.8793201,209.348196 L293.692914,209.348196" id="Line-Copy-30" stroke="#464664" stroke-width="4.455"></path>
                        </g>
                    </g>
                </g>
            </g>
            <path d="M66.7483894,758.082629 C66.7483894,750.69629 72.7275114,744.708478 80.1138517,744.708478 L138.824023,744.708478 C141.780126,744.708478 144.176521,747.094388 144.176521,750.04853 L144.176521,809.268861 C144.176521,812.21809 141.774346,814.608913 138.824023,814.608913 L80.1138517,814.608913 C72.7323107,814.608913 66.7483894,808.619024 66.7483894,801.234762 L66.7483894,758.082629 Z" id="Combined-Shape" fill="#B74134"></path>
            <path d="M355.101432,758.082629 C355.101432,750.69629 349.12231,744.708478 341.73597,744.708478 L283.025798,744.708478 C280.069695,744.708478 277.6733,747.094388 277.6733,750.04853 L277.6733,809.268861 C277.6733,812.21809 280.075475,814.608913 283.025798,814.608913 L341.73597,814.608913 C349.117511,814.608913 355.101432,808.619024 355.101432,801.234762 L355.101432,758.082629 Z" id="Combined-Shape" fill="#B74134"></path>
            <path d="M66.7483894,833.36002 C66.7483894,825.973681 72.7275114,819.98587 80.1138517,819.98587 L138.824023,819.98587 C141.780126,819.98587 144.176521,822.371779 144.176521,825.325921 L144.176521,884.546253 C144.176521,887.495482 141.774346,889.886304 138.824023,889.886304 L80.1138517,889.886304 C72.7323107,889.886304 66.7483894,883.896415 66.7483894,876.512154 L66.7483894,833.36002 Z" id="Combined-Shape" fill="#B74134"></path>
            <path d="M355.101432,833.36002 C355.101432,825.973681 349.12231,819.98587 341.73597,819.98587 L283.025798,819.98587 C280.069695,819.98587 277.6733,822.371779 277.6733,825.325921 L277.6733,884.546253 C277.6733,887.495482 280.075475,889.886304 283.025798,889.886304 L341.73597,889.886304 C349.117511,889.886304 355.101432,883.896415 355.101432,876.512154 L355.101432,833.36002 Z" id="Combined-Shape" fill="#B74134"></path>
            <path d="M66.7483894,908.625979 C66.7483894,901.245953 72.7275114,895.263261 80.1138517,895.263261 L138.824023,895.263261 C141.780126,895.263261 144.176521,897.660617 144.176521,900.615996 L144.176521,927.549221 C144.176521,930.505455 141.774346,932.901957 138.824023,932.901957 L80.1138517,932.901957 C72.7323107,932.901957 66.7483894,926.917197 66.7483894,919.539239 L66.7483894,908.625979 Z" id="Combined-Shape" fill="#B74134"></path>
            <path d="M355.101432,908.625979 C355.101432,901.245953 349.12231,895.263261 341.73597,895.263261 L283.025798,895.263261 C280.069695,895.263261 277.6733,897.660617 277.6733,900.615996 L277.6733,927.549221 C277.6733,930.505455 280.075475,932.901957 283.025798,932.901957 L341.73597,932.901957 C349.117511,932.901957 355.101432,926.917197 355.101432,919.539239 L355.101432,908.625979 Z" id="Combined-Shape" fill="#B74134"></path>
            <rect id="Rectangle-30-Copy-3" fill="#99D0DA" x="248.304009" y="1384.5663" width="85.4379385" height="29.5732609" rx="5.346"></rect>
            <rect id="Rectangle-30-Copy-2" fill="#99D0DA" x="85.4379385" y="1384.5663" width="85.4379385" height="29.5732609" rx="5.346"></rect>
            <path d="M121.831889,452.631721 C122.488957,441.178915 132.15507,430.089964 143.407427,427.866688 L159.03185,424.779565 L159.031851,548.828945 L137.093595,548.828945 C125.616724,548.828945 116.845615,539.543312 117.502608,528.091805 L121.831889,452.631721 Z" id="Rectangle-35-Copy-3" fill="#D14E3F"></path>
            <path d="M271.348282,452.631721 C272.00535,441.178915 281.671463,430.089964 292.923819,427.866688 L308.548242,424.779565 L308.548243,548.828945 L286.609988,548.828945 C275.133116,548.828945 266.362007,539.543312 267.019001,528.091805 L271.348282,452.631721 Z" id="Rectangle-35-Copy-2" fill="#D14E3F" transform="translate(287.770900, 486.804255) scale(-1, 1) translate(-287.770900, -486.804255) "></path>
            <g id="Group-39-Copy" transform="translate(53.873239, 0.000000)">
                <path d="M33.6189355,242.061001 C33.6189355,242.061001 18.5404154,224.690724 7.45702151,231.811799 C-3.62637236,238.932874 -0.260435028,262.890552 4.20401523,277.555501 C8.66846549,292.220451 12.2523057,315.014695 19.646682,323.818094 C27.0410583,332.621493 39.2933634,334.234347 39.2933634,334.234347 L33.6189355,242.061001 Z" id="Path-21-Copy-2" fill="#FFDCBD"></path>
                <path d="M312.960945,242.061001 C312.960945,242.061001 297.882425,224.690724 286.799031,231.811799 C275.715637,238.932874 279.081575,262.890552 283.546025,277.555501 C288.010475,292.220451 291.594315,315.014695 298.988692,323.818094 C306.383068,332.621493 318.635373,334.234347 318.635373,334.234347 L312.960945,242.061001 Z" id="Path-21-Copy-3" fill="#FFDCBD" transform="translate(298.988692, 282.166065) scale(-1, 1) translate(-298.988692, -282.166065) "></path>
                <g id="Path-24" transform="translate(30.036775, 72.662458)">
                    <mask id="mask-12" fill="white">
                        <use xlink:href="#path-11"></use>
                    </mask>
                    <use id="Mask" fill="#FFDCBD" xlink:href="#path-11"></use>
                    <path d="M2.53019743,167.802794 L4.18187786,168.188883 C4.18187786,168.188883 12.4142804,228.267257 13.0574907,229.476889 C13.9697404,231.192481 67.3979477,299.05409 67.3979477,299.05409 C67.3979477,299.05409 75.8674982,269.053334 81.7886137,265.561238 C84.6783456,263.856961 102.747697,262.888133 125.970244,262.888133 C149.192791,262.888133 170.220916,263.786741 172.417012,265.561238 C176.706583,269.027313 188.547634,299.05409 188.547634,299.05409 C188.547634,299.05409 241.09682,236.467502 244.045866,229.655766 C244.988283,227.47896 246.658545,220.030961 248.495219,210.90307 C248.520593,210.77697 256.17204,164.416206 256.17204,164.416206 L257.07109,164.416206 L256.17204,262.18623 L259.108252,327.1762 L196.406484,389.99895 L80.7678327,394.861149 L26.3951096,358.324433 L-3.98485929,291.297337 L6.05428751,261.426373 L2.53019743,167.802794 Z" fill="#CFAA8A" mask="url(#mask-12)"></path>
                </g>
                <path d="M119.721367,358.182921 C119.385613,354.884765 121.796207,352.211081 125.129613,352.211081 L190.382467,352.211081 C193.705112,352.211081 196.129054,354.894699 195.609932,358.171727 C195.609932,358.171727 194.255197,394.597515 157.107089,394.597515 C119.958981,394.597515 119.721367,358.182921 119.721367,358.182921 Z" id="Path-23" fill="#3C3C3C"></path>
                <path d="M102.125036,254.318603 C102.125036,247.630209 96.7458669,242.208193 90.1103257,242.208193 C83.4747846,242.208193 78.0956156,247.630209 78.0956156,254.318603" id="Oval-17" stroke="#3D3D3D" stroke-width="6.01425" stroke-linecap="round"></path>
                <path d="M240.294202,254.318603 C240.294202,247.630209 234.915033,242.208193 228.279492,242.208193 C221.643951,242.208193 216.264782,247.630209 216.264782,254.318603" id="Oval-17-Copy" stroke="#3D3D3D" stroke-width="6.01425" stroke-linecap="round"></path>
                <use id="Path-22-Copy" stroke="#5A381A" mask="url(#mask-14)" stroke-width="18.04275" fill="#5A381A" xlink:href="#path-13"></use>
                <path d="M213.594846,129.046957 C213.594846,129.046957 224.635378,131.441367 239.128061,142.830826 C253.620743,154.220285 257.314389,163.405119 257.314389,163.405119" id="Path-25" stroke="#FFF1E4" stroke-width="12.0285" stroke-linecap="round"></path>
                <path d="M139.117658,298.433724 C138.241545,305.290068 137.784479,310.424345 138.246898,311.216241 C139.068167,312.622671 142.661666,315.461215 147.019837,317.854079 C151.01273,320.046386 155.647485,321.86459 159.380207,321.86459 C163.12056,321.86459 167.703452,320.130227 171.66024,317.983274 C175.962121,315.649074 179.523923,312.827179 180.458248,311.216241 C182.251947,308.123592 173.343579,251.254043 173.343579,251.254043 L161.356735,233.691583 L152.812094,235.654794 L145.748759,255.533783 L145.748759,255.533783" id="Path-28" stroke="#D4B69C" stroke-width="6.01425" stroke-linecap="round" fill="#FFDCBD"></path>
                <g id="Page-1" transform="translate(33.374195, 158.620217)">
                    <mask id="mask-16" fill="white">
                        <use xlink:href="#path-15"></use>
                    </mask>
                    <g id="Clip-2"></g>
                </g>
                <path d="M273.001447,235.971232 L272.899989,237.861232 C272.8813,238.191915 272.843921,238.831773 272.779842,239.732413 C272.670375,241.246026 272.531538,242.934391 272.360662,244.751802 C271.869394,249.940565 271.20992,255.12664 270.358211,259.944393 C268.774939,268.910468 266.689719,275.53219 264.393574,278.363157 C261.114894,281.758705 251.289531,283.019602 230.712337,282.694296 C209.46766,282.360924 198.480875,280.763968 191.122532,276.284964 C191.015735,276.22044 190.903598,276.147851 190.78879,276.064508 C188.025407,274.091165 184.557161,268.571719 181.048865,260.836967 C179.308068,256.99782 177.660717,252.865629 176.162883,248.73075 C175.639576,247.284349 175.172337,245.940109 174.769177,244.735671 C174.528883,244.017847 174.363347,243.512414 174.280579,243.251631 C174.104363,242.676297 173.808,242.014931 173.40751,241.318615 C172.753376,238.909739 171.987104,235.809923 171.987104,234.417292 C171.987104,232.51116 173.40751,228.905911 174.034945,227.40574 C174.942723,227.161089 175.959968,226.892241 177.110711,226.604574 C180.779202,225.679737 184.861534,224.757589 189.248238,223.894588 C201.068042,221.571742 212.839788,220.122653 223.778514,219.974786 C224.411289,219.966721 225.038724,219.961344 225.660819,219.961344 C226.84894,219.964032 228.053081,219.982852 229.273242,220.017802 C239.72871,220.326977 250.977148,221.883606 262.308355,224.287105 C266.118353,225.096337 269.696067,225.953962 273.001447,226.819652 L273.001447,235.971232 Z M145.851105,244.676525 C145.429255,245.897094 143.899382,250.454064 143.093061,252.588716 C141.357603,257.188702 139.387191,261.458006 137.008278,265.463839 C135.166023,268.566342 133.136872,271.375802 130.920825,273.87071 C127.060098,277.252816 120.804439,279.77192 112.829342,281.406515 C108.031467,282.387809 102.870482,283.003471 97.6293983,283.318023 C94.0997435,283.530412 91.0293176,283.578805 88.6931239,283.538478 C87.820055,283.527724 87.283398,283.522347 86.5197964,283.506216 C85.2355574,283.479331 83.8044719,283.433627 82.2612491,283.361038 C77.8611953,283.154025 73.4638114,282.783015 69.3841498,282.207681 C61.3316241,281.073143 55.575243,279.228847 53.7570169,277.177538 C50.9722741,274.147623 48.9751623,268.348576 47.8324299,260.651462 C46.8392138,253.949086 46.5935797,246.838061 46.7724654,240.737904 C46.788485,240.14375 46.8045047,239.732413 46.8151844,239.528089 L46.9513511,236.920265 L47.7389821,226.615328 C48.8016165,226.308841 50.0004175,225.95665 51.7278659,225.502298 C54.6327558,224.733393 57.9354661,223.9618 61.5665785,223.241287 C72.5480235,221.066308 84.0848151,219.816166 95.5575283,219.961344 C106.605722,220.103833 118.398827,221.555612 130.175913,223.889211 C134.533248,224.752212 138.58087,225.677049 142.206643,226.599197 C142.74864,226.736309 143.250588,226.868045 143.739186,226.997092 C144.331911,227.881601 146.179507,230.849681 146.673445,234.417292 C147.121994,237.651531 146.283634,242.514988 145.851105,244.676525 L145.851105,244.676525 Z M281.59063,221.372795 C281.393054,221.31096 280.947175,221.176536 280.306391,220.988343 C279.254436,220.679168 278.039615,220.337731 276.675278,219.969409 C272.787852,218.918214 268.481246,217.869708 263.867597,216.891102 C252.13056,214.398882 240.452262,212.783107 229.497516,212.46049 C228.202598,212.422851 226.926369,212.401343 225.663489,212.401343 C225.006685,212.401343 224.344541,212.40672 223.677057,212.414785 C212.231043,212.570717 200.029438,214.070888 187.798463,216.474388 C183.278262,217.364274 179.067773,218.315995 175.276465,219.270405 C173.946837,219.603776 172.764055,219.91564 171.7388,220.195242 C171.33564,220.305469 171.041947,220.388812 170.798983,220.456024 L159.064616,221.585185 L148.502351,220.464089 C148.259387,220.394189 147.968364,220.310846 147.565203,220.200619 C146.550628,219.918328 145.378526,219.606465 144.062248,219.270405 C140.308319,218.315995 136.132539,217.361585 131.636368,216.471699 C119.445442,214.054757 107.211797,212.549209 95.653646,212.401343 C83.6095666,212.2481 71.5654872,213.5547 60.1061237,215.823776 C56.3121453,216.57655 52.8572486,217.383093 49.8055122,218.189637 C48.7295282,218.474615 47.7790311,218.738086 46.9620309,218.977361 C46.4627529,219.125227 46.1129913,219.230078 45.920756,219.291913 L39.7718943,220.3915 C37.3636125,220.835099 35.4038797,222.859523 35.0007195,225.257646 L33.4494869,234.497946 C33.0249671,237.035869 34.4160036,239.654447 36.760207,240.686823 L39.2218876,241.772968 C39.0990706,247.98873 39.3740739,254.994904 40.3752998,261.764492 C41.7209473,270.838107 44.1479188,277.879231 48.1688417,282.250697 C51.5649998,286.087155 58.5095022,288.310527 68.3348652,289.695093 C72.6708405,290.305378 77.292499,290.697895 81.9088176,290.912974 C83.5214587,290.988251 85.0192926,291.039332 86.36761,291.066217 C87.1819404,291.082348 87.7719962,291.087725 88.0977283,291.087725 C91.0827163,291.141494 94.3427076,291.090413 98.0779475,290.864581 C103.652773,290.53121 109.15818,289.875221 114.337855,288.813272 C123.607871,286.915207 131.065002,283.893357 136.10317,279.379402 L136.394193,279.089046 C139.01073,276.172047 141.362943,272.905546 143.485542,269.332559 C146.112758,264.910012 148.264727,260.248191 150.144361,255.263752 C151.124228,252.663994 152.929104,247.254775 152.971823,247.144548 C153.206777,246.547705 153.348284,246.096041 153.620617,245.149697 C154.440288,242.316041 154.840778,241.971915 159.526515,241.845557 C162.604951,241.759526 164.615412,242.563381 165.95839,243.904931 C166.657913,244.603936 167.010344,245.257236 167.085102,245.501887 C167.18923,245.837947 167.368116,246.386397 167.624429,247.147236 C168.046279,248.405444 168.532208,249.806141 169.076874,251.311689 C170.636117,255.618631 172.355555,259.93095 174.187131,263.969045 C178.234753,272.886727 182.212957,279.22347 186.418106,282.223812 C186.67976,282.412005 186.944083,282.586757 187.211077,282.750754 C196.123322,288.173414 208.004535,289.899417 230.59486,290.254297 C253.743201,290.61993 264.382895,289.254183 270.032478,283.369104 C273.612862,278.973442 275.981095,271.464522 277.780631,261.264435 C278.67239,256.22085 279.355893,250.841205 279.865851,245.466937 C280.042067,243.587691 280.186243,241.84018 280.298381,240.270109 C280.301051,240.23247 280.301051,240.210962 280.303721,240.173324 L282.733362,238.549483 C284.48484,237.377306 285.683641,235.148558 285.683641,233.043479 L285.683641,226.924503 C285.683641,224.418841 283.977552,222.090619 281.59063,221.372795 L281.59063,221.372795 Z" id="Fill-1" fill="#321716"></path>
                <path d="M265.342937,54.3556638 C265.342937,53.47828 268.527011,41.8571948 268.527011,41.8571948 C268.527011,41.8571948 274.265744,47.7249198 278.932746,58.0352922 C282.130899,65.1006744 284.825775,74.2522976 284.825775,85.031574 C284.825775,111.540835 270.087515,134.306986 270.087515,134.306986 L286.801338,137.412939 L282.904477,151.368294 L283.741789,158.337907 L284.825775,167.360776 L281.317573,183.750927 L281.317573,160.60189 C281.317573,160.60189 275.522915,147.347435 270.087515,140.668943 C264.652116,133.99045 259.199184,129.327999 259.199184,129.327999 C259.199184,129.327999 267.673427,104.276294 267.673427,85.031574 C267.673427,68.8794333 265.342937,55.2330476 265.342937,54.3556638 Z" id="Path-26" stroke="#784B24" stroke-width="6.01425" stroke-linecap="round" stroke-linejoin="round" fill="#784C24"></path>
                <path d="M249.676294,118.620517 C249.676294,118.620517 261.396625,86.5428081 249.676294,53.0480885 C237.955964,19.5533688 209.02545,14.4151129 209.02545,14.4151129 L221.955343,34.5454167 C221.955343,34.5454167 206.102572,28.9922653 185.260025,24.053769 C164.417477,19.1152727 146.287015,16.6163336 146.287015,16.6163336 C146.287015,16.6163336 201.18003,35.7528244 216.292648,53.0480885 C231.405265,70.3433526 224.514628,106.142005 224.514628,106.142005 L237.875714,110.800196 L249.676294,118.620517 Z" id="Path-29" stroke="#784C24" stroke-width="6.01425" stroke-linecap="round" stroke-linejoin="round" fill="#784C24"></path>
                <path d="M271.087308,54.2115275 C271.087308,54.2115275 277.212028,67.7743038 275.810342,92.0632102 C274.408656,116.352116 265.837927,129.914893 265.837927,129.914893" id="Path-31" stroke="#5A381A" stroke-width="6.01425" stroke-linecap="round"></path>
                <path d="M109.568231,25.3354738 C109.568231,25.3354738 178.077195,39.7365985 195.830095,53.5034115 C213.582995,67.2702245 205.436583,100.273069 205.436583,100.273069" id="Path-32" stroke="#784C24" stroke-width="6.01425" stroke-linecap="round"></path>
                <path d="M76.9501703,45.8427495 C76.9501703,45.8427495 147.163239,52.2930491 167.484355,61.9076692 C187.805471,71.5222892 179.743994,94.4780483 179.743994,94.4780483" id="Path-33" stroke="#784C24" stroke-width="6.01425" stroke-linecap="round"></path>
                <path d="M67.4140808,66.0942756 C67.4140808,66.0942756 116.030883,66.8825211 136.023473,73.1089111 C156.016062,79.3353012 154.494329,93.7861939 154.494329,93.7861939" id="Path-34" stroke="#784C24" stroke-width="6.01425" stroke-linecap="round"></path>
                <path d="M37.9492949,98.1768087 C37.9492949,98.1768087 69.9538767,84.2984256 91.028442,84.319023 C112.103007,84.3396204 125.869928,96.2002931 125.869928,96.2002931" id="Path-35" stroke="#784C24" stroke-width="6.01425" stroke-linecap="round"></path>
                <path d="M32.222068,123.793164 C32.222068,123.793164 52.4673371,110.743082 60.0214848,108.290006 C67.5756325,105.83693 95.5691576,103.423372 95.5691576,103.423372" id="Path-36" stroke="#784C24" stroke-width="6.01425" stroke-linecap="round"></path>
            </g>
        </g>
    </g>
</svg>