<?xml version="1.0" encoding="UTF-8"?>
<svg width="37px" height="129px" viewBox="0 0 37 129" version="1.1" xmlns="http://www.w3.org/2000/svg" xmlns:xlink="http://www.w3.org/1999/xlink">
    <!-- Generator: Sketch 42 (36781) - http://www.bohemiancoding.com/sketch -->
    <title>Group 80</title>
    <desc>Created with Sketch.</desc>
    <defs>
        <path d="M0.140415526,2.07901132 C0.225590079,1.08107332 1.09864053,0.252000619 2.0934614,0.227149857 L6.88095772,0.107557539 C7.87442062,0.0827406984 8.71373568,0.87523957 8.75538184,1.87194433 L8.83277511,3.72417391 L0,3.72417391 L0.140415526,2.07901132 Z" id="path-1"></path>
        <path d="M0.140415526,2.07901132 C0.225590079,1.08107332 1.09864053,0.252000619 2.0934614,0.227149857 L6.88095772,0.107557539 C7.87442062,0.0827406984 8.71373568,0.87523957 8.75538184,1.87194433 L8.83277511,3.72417391 L0,3.72417391 L0.140415526,2.07901132 Z" id="path-3"></path>
        <path d="M0.217254049,17.6898263 L0.217254069,7.3419877 C0.546576499,4.3710058 3.19853519,1.55615051 6.14016152,1.05490199 L11.0687756,0.215073872 L14.7452775,6.76097588 L16.8520051,8.54316516 L18.9641806,6.76097588 C18.9641806,6.76097588 21.2125475,1.13076392 22.4915477,0.215073873 L27.5615397,1.06705537 C30.504624,1.5616229 33.1576095,4.37259099 33.4867562,7.3419877 L33.7369244,17.6898263 L33.486756,34.8082063 L27.1827109,34.8082063 L27.5615403,40.1885674 L6.14016147,40.1885674 L6.14016147,35.669332 L0.217254069,34.5663532" id="path-5"></path>
        <rect id="path-7" x="0" y="0" width="6.97324351" height="3.0258913" rx="0.464323944"></rect>
        <rect id="path-9" x="0" y="0" width="6.97324351" height="3.0258913" rx="0.464323944"></rect>
        <path d="M0.0641254498,11.1838294 C-0.180195204,5.00717096 4.62912589,0 10.8242499,0 L11.4309413,0 C17.6179145,0 22.5469376,5.00487542 22.4399323,11.1954897 L22.2470213,22.3560346 C22.1401459,28.5391328 17.0520069,33.5515243 10.852348,33.5515243 L12.1500485,33.5515243 C5.96381959,33.5515243 0.750920014,28.5466488 0.506508559,22.3676949 L0.0641254498,11.1838294 Z" id="path-11"></path>
        <path d="M4.26732369,15.9364299 L4.26732369,13.9526018 C4.26732369,13.9526018 4.86475667,9.33068539 13.4453703,9.09529477 C22.0259839,8.85990415 23.7433323,13.9526018 23.7433323,13.9526018 L23.7433323,16.2515196 L24.9040109,20.526893 L24.9977628,20.526893 L25.0049021,19.7726212 L25.0340889,16.6889856 L25.5570822,14.4215342 L25.3534263,13.0321056 C25.3534263,13.0321056 25.8802501,11.5064588 25.8802501,11.3483925 C25.8802501,11.1903262 24.7879143,11.0573647 24.7879143,11.0573647 C24.7879143,11.0573647 25.9495572,8.55507442 25.5570822,6.35697209 C25.1646072,4.15886975 23.5620372,2.62258593 23.5620372,2.62258593 C23.3704313,2.41607021 23.1086872,2.45470181 22.9729465,2.7175245 L22.4497667,3.73051171 C22.4497667,3.73051171 21.3329448,1.78724257 19.679026,0.909252217 C18.0251073,0.0312618635 15.5545678,0.00109657289 15.5545678,0.00109657289 C15.2659452,-0.0121513971 15.2406178,0.100940519 15.489497,0.248649479 L17.2928693,1.31894471 C17.2928693,1.31894471 15.4354516,0.751569902 13.9239295,0.574305265 C12.4124075,0.397040627 10.2922245,0.545416266 10.2922245,0.545416266 C10.008315,0.561371219 9.97724804,0.695774734 10.2237994,0.84620367 L11.0523186,1.35170987 C11.0523186,1.35170987 9.88170427,1.25276636 8.8073802,1.35170989 C7.73305613,1.45065342 7.0069095,1.72428558 7.0069095,1.72428558 L8.8073802,2.8906485 C8.8073802,2.8906485 7.32168824,2.86486875 6.40730589,3.15827329 C5.49292355,3.45167783 4.5901086,4.24387522 4.5901086,4.24387522 L5.83362212,4.74635967 C5.83362212,4.74635967 5.37064179,4.80488164 4.5901086,4.92582446 C3.8095754,5.04676729 3.63196725,5.18190708 3.47683265,5.31693421 C3.32169806,5.45196134 4.4266732,5.74288131 4.4266732,5.74288131 C4.4266732,5.74288131 3.72131492,5.80176127 3.15238786,6.12659204 C2.5834608,6.4514228 2.29320014,6.90989726 2.20114279,7.01355517 C2.01355389,7.22478298 3.29820288,7.01355519 3.29820288,7.01355519 L1.69985579,8.56721254 L1.04598653,9.82214378 L2.48332421,9.57934882 C2.48332421,9.57934882 2.10675772,9.9056621 1.69985579,10.7030184 C1.29295386,11.5003747 1.41995866,11.9201575 1.41995866,11.9201575 C1.4357624,12.1952474 1.66907699,12.3218761 1.92496949,12.2100328 L2.14547261,12.1136572 L1.90785287,13.1700586 L2.48332421,15.0976996 L2.82334644,20.8279869 L2.98441969,20.8646238 L4.26732369,15.9364299 Z" id="path-13"></path>
        <mask id="mask-14" maskContentUnits="userSpaceOnUse" maskUnits="objectBoundingBox" x="0" y="0" width="24.8342636" height="20.8646235" fill="white">
            <use xlink:href="#path-13"></use>
        </mask>
        <polygon id="path-15" points="21.9657171 -4.99698744e-05 21.9657171 6.81514516 0 6.81514516 0 -4.99698744e-05 21.9657171 -4.99698744e-05"></polygon>
    </defs>
    <g id="Page-1" stroke="none" stroke-width="1" fill="none" fill-rule="evenodd">
        <g id="Group-80">
            <path d="M1.02980389,75.852 L7.20862726,75.852 L7.20862726,78.69 C7.20862726,80.2573841 5.92837106,81.528 4.37239123,81.528 L3.86603992,81.528 C2.29963001,81.528 1.02980389,80.2541948 1.02980389,78.69 L1.02980389,75.852 Z" id="Rectangle-40" fill="#FFDCBD"></path>
            <path d="M29.8643129,75.852 L36.0431363,75.852 L36.0431363,78.69 C36.0431363,80.2573841 34.7628801,81.528 33.2069003,81.528 L32.7005489,81.528 C31.134139,81.528 29.8643129,80.2541948 29.8643129,78.69 L29.8643129,75.852 Z" id="Rectangle-40-Copy" fill="#FFDCBD"></path>
            <g id="Group-50-Copy-3" transform="translate(25.325820, 125.345935) scale(-1, 1) translate(-25.325820, -125.345935) translate(20.434252, 121.733935)">
                <path id="Line-Copy-37" stroke="#FFFFFF" stroke-width="0.5" stroke-linecap="square"></path>
                <g id="Rectangle-34" transform="translate(0.464883, 2.327609)"></g>
                <rect id="Rectangle-31" fill="#A9A9A9" x="1.8595316" y="0.465521739" width="6.04347771" height="2.3276087"></rect>
                <path d="M0,6.05178261 L8.83277511,6.05178261 L8.83277511,6.51365858 C8.83277511,6.64422236 8.73357891,6.75006522 8.59651971,6.75006522 L0.236255397,6.75006522 C0.105775144,6.75006522 0,6.64095856 0,6.51365858 L0,6.05178261 Z" id="Rectangle-33" fill="#D1C2A6"></path>
                <g id="Rectangle-34" transform="translate(0.000000, 2.327609)">
                    <mask id="mask-2" fill="white">
                        <use xlink:href="#path-1"></use>
                    </mask>
                    <use id="Mask" fill="#B5B5B5" xlink:href="#path-1"></use>
                    <path d="M7.69507983,1.08129244 C7.78078407,1.0945799 8.02441902,1.12610744 8.24391104,1.08129244 C8.56842688,1.0150341 8.64861939,0.698282609 8.64861939,0.698282609 L8.91164054,1.90805813 C8.91164054,1.90805813 8.43999961,2.30911591 8.02683934,2.03605852 C7.61367907,1.76300113 7.65407156,1.07493458 7.69507983,1.08129244 Z" fill="#B54033" mask="url(#mask-2)"></path>
                </g>
                <path d="M2.36279748,0.691843025 C2.34159915,0.309748673 2.62898627,0 3.01407244,0 L6.74846847,0 C7.12935603,0 7.42065552,0.314908125 7.39974343,0.691843025 L7.24406794,3.49785263 C7.2228696,3.87994698 6.9006623,4.18969565 6.49962789,4.18969565 L3.26291302,4.18969565 C2.87296847,4.18969565 2.53938507,3.87478753 2.51847298,3.49785263 L2.36279748,0.691843025 Z" id="Rectangle-32" fill="#9A9A9A"></path>
                <path id="Line" stroke="#FFFFFF" stroke-width="0.5" stroke-linecap="square"></path>
                <path id="Line-Copy-36" stroke="#FFFFFF" stroke-width="0.5" stroke-linecap="square"></path>
                <path id="Line-Copy-38" stroke="#FFFFFF" stroke-width="0.5" stroke-linecap="square"></path>
                <path id="Line-Copy-39" stroke="#FFFFFF" stroke-width="0.5" stroke-linecap="square"></path>
            </g>
            <g id="Group-50-Copy-4" transform="translate(6.346534, 121.733935)">
                <path id="Line-Copy-37" stroke="#FFFFFF" stroke-width="0.5" stroke-linecap="square"></path>
                <g id="Rectangle-34" transform="translate(0.464883, 2.327609)"></g>
                <rect id="Rectangle-31" fill="#A9A9A9" x="1.8595316" y="0.465521739" width="6.04347771" height="2.3276087"></rect>
                <path d="M0,6.05178261 L8.83277511,6.05178261 L8.83277511,6.51365858 C8.83277511,6.64422236 8.73357891,6.75006522 8.59651971,6.75006522 L0.236255397,6.75006522 C0.105775144,6.75006522 0,6.64095856 0,6.51365858 L0,6.05178261 Z" id="Rectangle-33" fill="#D1C2A6"></path>
                <g id="Rectangle-34" transform="translate(0.000000, 2.327609)">
                    <mask id="mask-4" fill="white">
                        <use xlink:href="#path-3"></use>
                    </mask>
                    <use id="Mask" fill="#B5B5B5" xlink:href="#path-3"></use>
                    <path d="M7.69507983,1.08129244 C7.78078407,1.0945799 8.02441902,1.12610744 8.24391104,1.08129244 C8.56842688,1.0150341 8.64861939,0.698282609 8.64861939,0.698282609 L8.91164054,1.90805813 C8.91164054,1.90805813 8.43999961,2.30911591 8.02683934,2.03605852 C7.61367907,1.76300113 7.65407156,1.07493458 7.69507983,1.08129244 Z" fill="#B54033" mask="url(#mask-4)"></path>
                </g>
                <path d="M2.36279748,0.691843025 C2.34159915,0.309748673 2.62898627,0 3.01407244,0 L6.74846847,0 C7.12935603,0 7.42065552,0.314908125 7.39974343,0.691843025 L7.24406794,3.49785263 C7.2228696,3.87994698 6.9006623,4.18969565 6.49962789,4.18969565 L3.26291302,4.18969565 C2.87296847,4.18969565 2.53938507,3.87478753 2.51847298,3.49785263 L2.36279748,0.691843025 Z" id="Rectangle-32" fill="#9A9A9A"></path>
                <path id="Line" stroke="#FFFFFF" stroke-width="0.5" stroke-linecap="square"></path>
                <path id="Line-Copy-36" stroke="#FFFFFF" stroke-width="0.5" stroke-linecap="square"></path>
                <path id="Line-Copy-38" stroke="#FFFFFF" stroke-width="0.5" stroke-linecap="square"></path>
                <path id="Line-Copy-39" stroke="#FFFFFF" stroke-width="0.5" stroke-linecap="square"></path>
            </g>
            <path d="M12.7842798,34.9141304 L24.2320212,34.9141304 L24.2320212,42.2990522 C24.2320212,42.2990522 21.3700858,45.469376 18.5081505,45.469376 C15.6462151,45.469376 12.7842798,42.2990522 12.7842798,42.2990522 L12.7842798,34.9141304 Z" id="Rectangle-22-Copy" fill="#FFDCBD"></path>
            <path d="M15.1086943,43.2935217 C15.1086943,43.2935217 16.7340252,44.2782093 18.3730893,44.2782093 C20.0121533,44.2782093 22.1294929,43.2935217 22.1294929,43.2935217 L21.8494963,49.6075013 L15.1086943,49.6075013 L15.1086943,43.2935217 Z" id="Rectangle-26-Copy" fill="#A62E2B"></path>
            <g id="Group-49-Copy-5" transform="translate(1.627090, 39.802109)">
                <mask id="mask-6" fill="white">
                    <use xlink:href="#path-5"></use>
                </mask>
                <use id="Mask" fill="#D7E1E3" xlink:href="#path-5"></use>
                <g id="Group-49" mask="url(#mask-6)" stroke-linecap="square">
                    <g transform="translate(4.183946, 1.862087)">
                        <g id="Group-48" transform="translate(0.000000, 0.153316)">
                            <path id="Line" stroke="#464664" stroke-width="0.5"></path>
                            <path id="Line-Copy-18" stroke="#464664" stroke-width="0.5"></path>
                            <path id="Line-Copy-19" stroke="#464664" stroke-width="0.5"></path>
                            <path id="Line-Copy-20" stroke="#464664" stroke-width="0.5"></path>
                            <path id="Line-Copy-21" stroke="#464664" stroke-width="0.5"></path>
                            <path id="Line-Copy-22" stroke="#464664" stroke-width="0.5"></path>
                            <path id="Line-Copy-23" stroke="#464664" stroke-width="0.5"></path>
                            <path id="Line-Copy-24" stroke="#464664" stroke-width="0.5"></path>
                            <path id="Line-Copy-25" stroke="#464664" stroke-width="0.5"></path>
                            <path id="Line-Copy-26" stroke="#464664" stroke-width="0.5"></path>
                            <path id="Line-Copy-27" stroke="#464664" stroke-width="0.5"></path>
                            <path id="Line-Copy-28" stroke="#464664" stroke-width="0.5"></path>
                            <path id="Line-Copy-29" stroke="#464664" stroke-width="0.5"></path>
                            <path id="Line-Copy-30" stroke="#464664" stroke-width="0.5"></path>
                            <path id="Line-Copy-31" stroke="#464664" stroke-width="0.5"></path>
                            <path id="Line-Copy-32" stroke="#464664" stroke-width="0.5"></path>
                            <path id="Line-Copy-33" stroke="#464664" stroke-width="0.5"></path>
                            <path id="Line-Copy-34" stroke="#464664" stroke-width="0.5"></path>
                            <path id="Line-Copy-35" stroke="#464664" stroke-width="0.5"></path>
                        </g>
                        <g id="Group-48-Copy" transform="translate(12.700654, 12.801848) rotate(90.000000) translate(-12.700654, -12.801848) translate(-0.083625, 0.208726)">
                            <path id="Line" stroke="#464664" stroke-width="0.5"></path>
                            <path id="Line-Copy-18" stroke="#464664" stroke-width="0.5"></path>
                            <path id="Line-Copy-19" stroke="#464664" stroke-width="0.5"></path>
                            <path id="Line-Copy-20" stroke="#464664" stroke-width="0.5"></path>
                            <path id="Line-Copy-21" stroke="#464664" stroke-width="0.5"></path>
                            <path id="Line-Copy-22" stroke="#464664" stroke-width="0.5"></path>
                            <path id="Line-Copy-23" stroke="#464664" stroke-width="0.5"></path>
                            <path id="Line-Copy-24" stroke="#464664" stroke-width="0.5"></path>
                            <path id="Line-Copy-25" stroke="#464664" stroke-width="0.5"></path>
                            <path id="Line-Copy-26" stroke="#464664" stroke-width="0.5"></path>
                            <path id="Line-Copy-27" stroke="#464664" stroke-width="0.5"></path>
                            <path id="Line-Copy-28" stroke="#464664" stroke-width="0.5"></path>
                            <path id="Line-Copy-29" stroke="#464664" stroke-width="0.5"></path>
                            <path id="Line-Copy-30" stroke="#464664" stroke-width="0.5"></path>
                            <path id="Line-Copy-31" stroke="#464664" stroke-width="0.5"></path>
                            <path id="Line-Copy-32" stroke="#464664" stroke-width="0.5"></path>
                            <path id="Line-Copy-33" stroke="#464664" stroke-width="0.5"></path>
                            <path id="Line-Copy-34" stroke="#464664" stroke-width="0.5"></path>
                            <path id="Line-Copy-35" stroke="#464664" stroke-width="0.5"></path>
                        </g>
                    </g>
                </g>
                <g id="Group-49-Copy" mask="url(#mask-6)" stroke-linecap="square">
                    <g transform="translate(4.183946, 26.767500)">
                        <g id="Group-48" transform="translate(0.000000, 0.153316)">
                            <path id="Line" stroke="#464664" stroke-width="0.5"></path>
                            <path id="Line-Copy-18" stroke="#464664" stroke-width="0.5"></path>
                            <path id="Line-Copy-19" stroke="#464664" stroke-width="0.5"></path>
                            <path id="Line-Copy-20" stroke="#464664" stroke-width="0.5"></path>
                            <path id="Line-Copy-21" stroke="#464664" stroke-width="0.5"></path>
                            <path id="Line-Copy-22" stroke="#464664" stroke-width="0.5"></path>
                            <path id="Line-Copy-23" stroke="#464664" stroke-width="0.5"></path>
                            <path id="Line-Copy-24" stroke="#464664" stroke-width="0.5"></path>
                            <path id="Line-Copy-25" stroke="#464664" stroke-width="0.5"></path>
                            <path id="Line-Copy-26" stroke="#464664" stroke-width="0.5"></path>
                            <path id="Line-Copy-27" stroke="#464664" stroke-width="0.5"></path>
                            <path id="Line-Copy-28" stroke="#464664" stroke-width="0.5"></path>
                            <path id="Line-Copy-29" stroke="#464664" stroke-width="0.5"></path>
                            <path id="Line-Copy-30" stroke="#464664" stroke-width="0.5"></path>
                            <path id="Line-Copy-31" stroke="#464664" stroke-width="0.5"></path>
                            <path id="Line-Copy-32" stroke="#464664" stroke-width="0.5"></path>
                            <path id="Line-Copy-33" stroke="#464664" stroke-width="0.5"></path>
                            <path id="Line-Copy-34" stroke="#464664" stroke-width="0.5"></path>
                            <path id="Line-Copy-35" stroke="#464664" stroke-width="0.5"></path>
                        </g>
                        <g id="Group-48-Copy" transform="translate(12.700654, 12.801848) rotate(90.000000) translate(-12.700654, -12.801848) translate(-0.083625, 0.208726)">
                            <path id="Line" stroke="#464664" stroke-width="0.5"></path>
                            <path id="Line-Copy-18" stroke="#464664" stroke-width="0.5"></path>
                            <path id="Line-Copy-19" stroke="#464664" stroke-width="0.5"></path>
                            <path id="Line-Copy-20" stroke="#464664" stroke-width="0.5"></path>
                            <path id="Line-Copy-21" stroke="#464664" stroke-width="0.5"></path>
                            <path id="Line-Copy-22" stroke="#464664" stroke-width="0.5"></path>
                            <path id="Line-Copy-23" stroke="#464664" stroke-width="0.5"></path>
                            <path id="Line-Copy-24" stroke="#464664" stroke-width="0.5"></path>
                            <path id="Line-Copy-25" stroke="#464664" stroke-width="0.5"></path>
                            <path id="Line-Copy-26" stroke="#464664" stroke-width="0.5"></path>
                            <path id="Line-Copy-27" stroke="#464664" stroke-width="0.5"></path>
                            <path id="Line-Copy-28" stroke="#464664" stroke-width="0.5"></path>
                            <path id="Line-Copy-29" stroke="#464664" stroke-width="0.5"></path>
                            <path id="Line-Copy-30" stroke="#464664" stroke-width="0.5"></path>
                            <path id="Line-Copy-31" stroke="#464664" stroke-width="0.5"></path>
                            <path id="Line-Copy-32" stroke="#464664" stroke-width="0.5"></path>
                            <path id="Line-Copy-33" stroke="#464664" stroke-width="0.5"></path>
                            <path id="Line-Copy-34" stroke="#464664" stroke-width="0.5"></path>
                            <path id="Line-Copy-35" stroke="#464664" stroke-width="0.5"></path>
                        </g>
                    </g>
                </g>
            </g>
            <path d="M7.90300931,78.6731739 L28.5902984,78.6731739 L28.5902984,121.966696 L22.1981585,121.966696 C22.1981585,121.966696 19.3725421,89.2142409 18.2466538,89.2142409 C17.1207656,89.2142409 14.2951492,121.966696 14.2951492,121.966696 L7.90300931,121.966696 L7.90300931,78.6731739 Z" id="Rectangle-28-Copy" fill="#76B1C2"></path>
            <rect id="Rectangle-29-Copy" fill="#5C9BAA" x="14.8762528" y="77.7421304" width="7.20568496" height="1.39656522"></rect>
            <path d="M16.4497725,42.151562 C14.4671964,41.4352982 12.8747367,40.0348696 12.8747367,40.0348696 L7.94612263,40.8746977 C5.00449631,41.3759462 2.35253761,44.1908015 2.02321518,47.1617834 C2.02321518,47.1617834 1.37273277,52.269242 1.16220725,57.4684797 L1.16220725,75.4891277 L7.94612258,75.4891277 L7.94612258,80.0083631 L16.4497725,80.0083631 L16.4497725,42.151562 Z M20.6337186,42.1811055 C22.6565703,41.4746059 24.2975088,40.0348696 24.2975088,40.0348696 L29.3675008,40.8868511 C32.3105851,41.3814186 34.9635706,44.1923867 35.2927173,47.1617834 C35.2927173,47.1617834 35.5995784,48.5810032 35.9687255,57.9733253 C36.3378725,67.3656474 35.9687255,75.4891277 35.9687255,75.4891277 L29.3675014,75.4891277 L29.3675014,80.0083631 L20.6337186,80.0083631 L20.6337186,42.1811055 Z" id="Combined-Shape-Copy-6" fill="#19586C"></path>
            <path d="M28.5902984,42.5952391 C28.5902984,42.5952391 29.9840391,42.7636725 31.6490372,44.2454773 C33.3140353,45.7272821 33.6136668,48.2876517 33.6136668,48.2876517 M34.1623593,51.3483436 L34.4163389,56.576117" id="Path-25-Copy-2" stroke-opacity="0.358129529" stroke="#FFFFFF" stroke-width="1.04472887" stroke-linecap="round"></path>
            <path d="M12.68724,40.0348696 L11.1571896,40.3288325 C11.1571896,40.3288325 11.5179569,41.6849934 12.2675856,43.0736036 C13.0172142,44.4622139 14.3365755,46.2183189 14.3365755,46.2183189 L16.268206,42.1483849 C16.268206,42.1483849 15.2434554,41.6417273 14.3967856,41.1721928 C13.5501157,40.7026584 12.68724,40.0348696 12.68724,40.0348696 Z" id="Path-22-Copy-4" fill="#24788F"></path>
            <path d="M22.3094989,40.0348696 L20.6872891,40.3215018 C20.6872891,40.3215018 21.0480564,41.6776628 21.797685,43.066273 C22.5473137,44.4548833 23.866675,46.2109883 23.866675,46.2109883 L25.9534839,42.1449469 C25.9534839,42.1449469 24.7735549,41.6343967 23.926885,41.1648622 C23.0802152,40.6953278 22.3094989,40.0348696 22.3094989,40.0348696 Z" id="Path-22-Copy-3" fill="#24788F" transform="translate(23.320387, 43.122929) scale(-1, 1) translate(-23.320387, -43.122929) "></path>
            <g id="Group-49-Copy-4" transform="translate(29.752506, 72.854152)">
                <mask id="mask-8" fill="white">
                    <use xlink:href="#path-7"></use>
                </mask>
                <use id="Mask" fill="#D7E1E3" xlink:href="#path-7"></use>
                <g id="Group-49-Copy" mask="url(#mask-8)" stroke-linecap="square">
                    <g transform="translate(-6.508361, -8.844913)">
                        <g id="Group-48" transform="translate(0.000000, 0.153316)">
                            <path id="Line" stroke="#464664" stroke-width="0.5"></path>
                            <path id="Line-Copy-18" stroke="#464664" stroke-width="0.5"></path>
                            <path id="Line-Copy-19" stroke="#464664" stroke-width="0.5"></path>
                            <path id="Line-Copy-20" stroke="#464664" stroke-width="0.5"></path>
                            <path id="Line-Copy-21" stroke="#464664" stroke-width="0.5"></path>
                            <path id="Line-Copy-22" stroke="#464664" stroke-width="0.5"></path>
                            <path id="Line-Copy-23" stroke="#464664" stroke-width="0.5"></path>
                            <path id="Line-Copy-24" stroke="#464664" stroke-width="0.5"></path>
                            <path id="Line-Copy-25" stroke="#464664" stroke-width="0.5"></path>
                            <path id="Line-Copy-26" stroke="#464664" stroke-width="0.5"></path>
                            <path id="Line-Copy-27" stroke="#464664" stroke-width="0.5"></path>
                            <path id="Line-Copy-28" stroke="#464664" stroke-width="0.5"></path>
                            <path id="Line-Copy-29" stroke="#464664" stroke-width="0.5"></path>
                            <path id="Line-Copy-30" stroke="#464664" stroke-width="0.5"></path>
                            <path id="Line-Copy-31" stroke="#464664" stroke-width="0.5"></path>
                            <path id="Line-Copy-32" stroke="#464664" stroke-width="0.5"></path>
                            <path id="Line-Copy-33" stroke="#464664" stroke-width="0.5"></path>
                            <path id="Line-Copy-34" stroke="#464664" stroke-width="0.5"></path>
                            <path id="Line-Copy-35" stroke="#464664" stroke-width="0.5"></path>
                        </g>
                        <g id="Group-48-Copy" transform="translate(12.700654, 12.801848) rotate(90.000000) translate(-12.700654, -12.801848) translate(-0.083625, 0.208726)">
                            <path id="Line-Copy-26" stroke="#464664" stroke-width="0.5"></path>
                            <path id="Line-Copy-27" stroke="#464664" stroke-width="0.5"></path>
                            <path id="Line-Copy-28" stroke="#464664" stroke-width="0.5"></path>
                            <path id="Line-Copy-29" stroke="#464664" stroke-width="0.5"></path>
                            <path id="Line-Copy-30" stroke="#464664" stroke-width="0.5"></path>
                            <path id="Line-Copy-31" stroke="#464664" stroke-width="0.5"></path>
                            <path id="Line-Copy-32" stroke="#464664" stroke-width="0.5"></path>
                            <path id="Line-Copy-33" stroke="#464664" stroke-width="0.5"></path>
                            <path id="Line-Copy-34" stroke="#464664" stroke-width="0.5"></path>
                            <path id="Line-Copy-35" stroke="#464664" stroke-width="0.5"></path>
                        </g>
                    </g>
                </g>
            </g>
            <path d="M13.7201318,40.5451705 L13.7201318,79.8809904 C13.7201318,80.2608998 13.4049618,80.5688772 13.0316438,80.5688771 L8.65697052,80.5688764 C7.63328184,80.5688762 6.80027754,79.7283862 6.79662105,78.7112411 C6.79662105,78.7112411 6.66662627,45.2717661 6.8034182,41.6694237 C6.8034182,40.759795 8.34505298,40.6069692 8.34505298,40.6069692 L12.7201824,39.8021087 C12.7201824,39.8021087 13.3202831,40.2644876 13.7201318,40.5451705 Z" id="Path-27-Copy-3" fill="#A62E2B"></path>
            <path d="M29.9376777,40.7012726 C30.3375264,40.9819554 30.0444469,40.7844096 30.0444469,40.7844096 L30.0444469,80.093495 C30.0444469,80.4769652 29.726843,80.7878292 29.3506421,80.7878292 L24.9238864,80.7878284 C23.9023989,80.7878283 23.0711791,79.9473383 23.0675226,78.9301932 C23.0675226,78.9301932 22.9375278,45.4907181 23.0743197,41.8883757 C23.0743197,40.9787471 24.5900175,40.7844096 24.5900175,40.7844096 L29.0232027,40.0348696 C29.0232027,40.0348696 29.537829,40.4205897 29.9376777,40.7012726 Z" id="Path-27-Copy-2" fill="#A62E2B" transform="translate(26.579863, 60.411349) scale(-1, 1) translate(-26.579863, -60.411349) "></path>
            <ellipse id="Oval-16-Copy-17" fill="#FFFFFF" cx="18.4790953" cy="51.7892935" rx="0.581103626" ry="0.581902174"></ellipse>
            <ellipse id="Oval-16-Copy-16" fill="#FFFFFF" cx="18.4790953" cy="55.2807065" rx="0.581103626" ry="0.581902174"></ellipse>
            <ellipse id="Oval-16-Copy-15" fill="#FFFFFF" cx="18.4790953" cy="58.7721196" rx="0.581103626" ry="0.581902174"></ellipse>
            <ellipse id="Oval-16-Copy-14" fill="#FFFFFF" cx="18.4790953" cy="62.2635326" rx="0.581103626" ry="0.581902174"></ellipse>
            <ellipse id="Oval-16-Copy-13" fill="#FFFFFF" cx="18.4790953" cy="65.7549457" rx="0.581103626" ry="0.581902174"></ellipse>
            <ellipse id="Oval-16-Copy-12" fill="#FFFFFF" cx="18.4790953" cy="69.2463587" rx="0.581103626" ry="0.581902174"></ellipse>
            <ellipse id="Oval-16-Copy-11" fill="#FFFFFF" cx="18.4790953" cy="72.7377717" rx="0.581103626" ry="0.581902174"></ellipse>
            <ellipse id="Oval-16-Copy-10" fill="#FFFFFF" cx="18.4790953" cy="76.2291848" rx="0.581103626" ry="0.581902174"></ellipse>
            <path d="M5.81103626,46.0896924 C5.81103626,45.4452619 6.33997569,44.9228478 6.96982144,44.9228478 L12.0885157,44.9228478 C12.3444017,44.9228478 12.5518383,45.1242015 12.5518383,45.3777151 L12.5518383,50.5197631 C12.5518383,50.7709794 12.3427078,50.9746304 12.0885157,50.9746304 L6.96982144,50.9746304 C6.32984206,50.9746304 5.81103626,50.4586589 5.81103626,49.8077859 L5.81103626,46.0896924 Z" id="Rectangle-27-Copy-27" fill="#B74134"></path>
            <path d="M24.1739108,46.0896924 C24.1739108,45.4452619 24.7028503,44.9228478 25.332696,44.9228478 L30.4513903,44.9228478 C30.7072763,44.9228478 30.9147129,45.1242015 30.9147129,45.3777151 L30.9147129,50.5197631 C30.9147129,50.7709794 30.7055824,50.9746304 30.4513903,50.9746304 L25.332696,50.9746304 C24.6927166,50.9746304 24.1739108,50.4586589 24.1739108,49.8077859 L24.1739108,46.0896924 Z" id="Rectangle-27-Copy-26" fill="#B74134" transform="translate(27.544312, 47.948739) scale(-1, 1) translate(-27.544312, -47.948739) "></path>
            <path d="M6.39650002,42.0498715 C6.56118951,41.4270595 7.20210313,40.8371866 7.8380136,40.7306798 L11.9637246,40.0396767 C12.2115111,39.9981756 12.417804,40.1768335 12.4244125,40.4355869 L12.5127697,43.8951359 C12.5194141,44.1552922 12.3156699,44.3661905 12.0614778,44.3661905 L6.94278355,44.3661905 C6.30280417,44.3661905 5.91837505,43.8580135 6.08219507,43.2384896 L6.39650002,42.0498715 Z" id="Rectangle-27-Copy-25" fill="#B74134"></path>
            <path d="M24.8217366,41.9883264 C25.0133042,41.378532 25.6836942,40.7994467 26.3115781,40.6961397 L30.2933848,40.0410052 C30.5456471,39.9995 30.7549658,40.1727872 30.7608401,40.4249989 L30.8393798,43.7970853 C30.845286,44.0506644 30.6409433,44.2562308 30.3867512,44.2562308 L25.268057,44.2562308 C24.6280776,44.2562308 24.2655794,43.7586755 24.4561356,43.1521005 L24.8217366,41.9883264 Z" id="Rectangle-27-Copy-24" fill="#B74134" transform="translate(27.622836, 42.145550) scale(-1, 1) translate(-27.622836, -42.145550) "></path>
            <path d="M5.81103626,52.6069967 C5.81103626,51.9625663 6.33997569,51.4401522 6.96982144,51.4401522 L12.0885157,51.4401522 C12.3444017,51.4401522 12.5518383,51.6415058 12.5518383,51.8950195 L12.5518383,57.0370675 C12.5518383,57.2882838 12.3427078,57.4919348 12.0885157,57.4919348 L6.96982144,57.4919348 C6.32984206,57.4919348 5.81103626,56.9759632 5.81103626,56.3250902 L5.81103626,52.6069967 Z" id="Rectangle-27-Copy-23" fill="#B74134"></path>
            <path d="M24.1739108,52.6069967 C24.1739108,51.9625663 24.7028503,51.4401522 25.332696,51.4401522 L30.4513903,51.4401522 C30.7072763,51.4401522 30.9147129,51.6415058 30.9147129,51.8950195 L30.9147129,57.0370675 C30.9147129,57.2882838 30.7055824,57.4919348 30.4513903,57.4919348 L25.332696,57.4919348 C24.6927166,57.4919348 24.1739108,56.9759632 24.1739108,56.3250902 L24.1739108,52.6069967 Z" id="Rectangle-27-Copy-22" fill="#B74134" transform="translate(27.544312, 54.466043) scale(-1, 1) translate(-27.544312, -54.466043) "></path>
            <path d="M5.81103626,59.1243011 C5.81103626,58.4798706 6.33997569,57.9574565 6.96982144,57.9574565 L12.0885157,57.9574565 C12.3444017,57.9574565 12.5518383,58.1588102 12.5518383,58.4123238 L12.5518383,63.5543718 C12.5518383,63.8055881 12.3427078,64.0092391 12.0885157,64.0092391 L6.96982144,64.0092391 C6.32984206,64.0092391 5.81103626,63.4932675 5.81103626,62.8423946 L5.81103626,59.1243011 Z" id="Rectangle-27-Copy-21" fill="#B74134"></path>
            <path d="M24.1739108,59.1243011 C24.1739108,58.4798706 24.7028503,57.9574565 25.332696,57.9574565 L30.4513903,57.9574565 C30.7072763,57.9574565 30.9147129,58.1588102 30.9147129,58.4123238 L30.9147129,63.5543718 C30.9147129,63.8055881 30.7055824,64.0092391 30.4513903,64.0092391 L25.332696,64.0092391 C24.6927166,64.0092391 24.1739108,63.4932675 24.1739108,62.8423946 L24.1739108,59.1243011 Z" id="Rectangle-27-Copy-20" fill="#B74134" transform="translate(27.544312, 60.983348) scale(-1, 1) translate(-27.544312, -60.983348) "></path>
            <g id="Group-49-Copy-3" transform="translate(0.000000, 72.854152)">
                <mask id="mask-10" fill="white">
                    <use xlink:href="#path-9"></use>
                </mask>
                <use id="Mask" fill="#D7E1E3" xlink:href="#path-9"></use>
                <g id="Group-49-Copy" mask="url(#mask-10)" stroke-linecap="square">
                    <g transform="translate(-6.508361, -8.844913)">
                        <g id="Group-48" transform="translate(0.000000, 0.153316)">
                            <path id="Line" stroke="#464664" stroke-width="0.5"></path>
                            <path id="Line-Copy-18" stroke="#464664" stroke-width="0.5"></path>
                            <path id="Line-Copy-19" stroke="#464664" stroke-width="0.5"></path>
                            <path id="Line-Copy-20" stroke="#464664" stroke-width="0.5"></path>
                            <path id="Line-Copy-21" stroke="#464664" stroke-width="0.5"></path>
                            <path id="Line-Copy-22" stroke="#464664" stroke-width="0.5"></path>
                            <path id="Line-Copy-23" stroke="#464664" stroke-width="0.5"></path>
                            <path id="Line-Copy-24" stroke="#464664" stroke-width="0.5"></path>
                            <path id="Line-Copy-25" stroke="#464664" stroke-width="0.5"></path>
                            <path id="Line-Copy-26" stroke="#464664" stroke-width="0.5"></path>
                            <path id="Line-Copy-27" stroke="#464664" stroke-width="0.5"></path>
                            <path id="Line-Copy-28" stroke="#464664" stroke-width="0.5"></path>
                            <path id="Line-Copy-29" stroke="#464664" stroke-width="0.5"></path>
                            <path id="Line-Copy-30" stroke="#464664" stroke-width="0.5"></path>
                            <path id="Line-Copy-31" stroke="#464664" stroke-width="0.5"></path>
                            <path id="Line-Copy-32" stroke="#464664" stroke-width="0.5"></path>
                            <path id="Line-Copy-33" stroke="#464664" stroke-width="0.5"></path>
                            <path id="Line-Copy-34" stroke="#464664" stroke-width="0.5"></path>
                            <path id="Line-Copy-35" stroke="#464664" stroke-width="0.5"></path>
                        </g>
                        <g id="Group-48-Copy" transform="translate(12.700654, 12.801848) rotate(90.000000) translate(-12.700654, -12.801848) translate(-0.083625, 0.208726)">
                            <path id="Line" stroke="#464664" stroke-width="0.5"></path>
                            <path id="Line-Copy-18" stroke="#464664" stroke-width="0.5"></path>
                            <path id="Line-Copy-19" stroke="#464664" stroke-width="0.5"></path>
                            <path id="Line-Copy-20" stroke="#464664" stroke-width="0.5"></path>
                            <path id="Line-Copy-21" stroke="#464664" stroke-width="0.5"></path>
                            <path id="Line-Copy-22" stroke="#464664" stroke-width="0.5"></path>
                            <path id="Line-Copy-23" stroke="#464664" stroke-width="0.5"></path>
                            <path id="Line-Copy-24" stroke="#464664" stroke-width="0.5"></path>
                            <path id="Line-Copy-25" stroke="#464664" stroke-width="0.5"></path>
                            <path id="Line-Copy-26" stroke="#464664" stroke-width="0.5"></path>
                            <path id="Line-Copy-27" stroke="#464664" stroke-width="0.5"></path>
                            <path id="Line-Copy-28" stroke="#464664" stroke-width="0.5"></path>
                            <path id="Line-Copy-29" stroke="#464664" stroke-width="0.5"></path>
                            <path id="Line-Copy-30" stroke="#464664" stroke-width="0.5"></path>
                        </g>
                    </g>
                </g>
            </g>
            <path d="M5.81103626,65.6416054 C5.81103626,64.997175 6.33997569,64.4747609 6.96982144,64.4747609 L12.0885157,64.4747609 C12.3444017,64.4747609 12.5518383,64.6761145 12.5518383,64.9296282 L12.5518383,70.0716762 C12.5518383,70.3228925 12.3427078,70.5265435 12.0885157,70.5265435 L6.96982144,70.5265435 C6.32984206,70.5265435 5.81103626,70.0105719 5.81103626,69.3596989 L5.81103626,65.6416054 Z" id="Rectangle-27-Copy-19" fill="#B74134"></path>
            <path d="M24.1739108,65.6416054 C24.1739108,64.997175 24.7028503,64.4747609 25.332696,64.4747609 L30.4513903,64.4747609 C30.7072763,64.4747609 30.9147129,64.6761145 30.9147129,64.9296282 L30.9147129,70.0716762 C30.9147129,70.3228925 30.7055824,70.5265435 30.4513903,70.5265435 L25.332696,70.5265435 C24.6927166,70.5265435 24.1739108,70.0105719 24.1739108,69.3596989 L24.1739108,65.6416054 Z" id="Rectangle-27-Copy-18" fill="#B74134" transform="translate(27.544312, 67.500652) scale(-1, 1) translate(-27.544312, -67.500652) "></path>
            <path d="M5.81103626,72.1589098 C5.81103626,71.5144793 6.33997569,70.9920652 6.96982144,70.9920652 L12.0885157,70.9920652 C12.3444017,70.9920652 12.5518383,71.1934189 12.5518383,71.4469325 L12.5518383,76.5889805 C12.5518383,76.8401968 12.3427078,77.0438478 12.0885157,77.0438478 L6.96982144,77.0438478 C6.32984206,77.0438478 5.81103626,76.5278762 5.81103626,75.8770033 L5.81103626,72.1589098 Z" id="Rectangle-27-Copy-17" fill="#B74134"></path>
            <path d="M24.1739108,72.1589098 C24.1739108,71.5144793 24.7028503,70.9920652 25.332696,70.9920652 L30.4513903,70.9920652 C30.7072763,70.9920652 30.9147129,71.1934189 30.9147129,71.4469325 L30.9147129,76.5889805 C30.9147129,76.8401968 30.7055824,77.0438478 30.4513903,77.0438478 L25.332696,77.0438478 C24.6927166,77.0438478 24.1739108,76.5278762 24.1739108,75.8770033 L24.1739108,72.1589098 Z" id="Rectangle-27-Copy-16" fill="#B74134" transform="translate(27.544312, 74.017957) scale(-1, 1) translate(-27.544312, -74.017957) "></path>
            <path d="M5.81103626,78.6674237 C5.81103626,78.0278481 6.33997569,77.5093696 6.96982144,77.5093696 L12.0885157,77.5093696 C12.3444017,77.5093696 12.5518383,77.7231788 12.5518383,77.976255 L12.5518383,80.3011363 C12.5518383,80.55899 12.3427078,80.7680217 12.0885157,80.7680217 L6.96982144,80.7680217 C6.32984206,80.7680217 5.81103626,80.2444629 5.81103626,79.6099676 L5.81103626,78.6674237 Z" id="Rectangle-27-Copy-15" fill="#B74134"></path>
            <path d="M24.1739108,78.6674237 C24.1739108,78.0278481 24.7028503,77.5093696 25.332696,77.5093696 L30.4513903,77.5093696 C30.7072763,77.5093696 30.9147129,77.7231788 30.9147129,77.976255 L30.9147129,80.3011363 C30.9147129,80.55899 30.7055824,80.7680217 30.4513903,80.7680217 L25.332696,80.7680217 C24.6927166,80.7680217 24.1739108,80.2444629 24.1739108,79.6099676 L24.1739108,78.6674237 Z" id="Rectangle-27-Copy-14" fill="#B74134" transform="translate(27.544312, 79.138696) scale(-1, 1) translate(-27.544312, -79.138696) "></path>
            <rect id="Rectangle-30-Copy-3" fill="#99D0DA" x="21.6170549" y="119.871848" width="7.43812641" height="2.56036957" rx="0.464323944"></rect>
            <rect id="Rectangle-30-Copy-2" fill="#99D0DA" x="7.43812641" y="119.871848" width="7.43812641" height="2.56036957" rx="0.464323944"></rect>
            <path d="M10.6056999,39.2021565 C10.663368,38.2025536 11.5012122,37.2367731 12.4791851,37.0446111 L13.8451257,36.7762174 L13.8451258,47.516063 L11.942015,47.516063 C10.9390922,47.516063 10.172871,46.7046995 10.2304799,45.706122 L10.6056999,39.2021565 Z" id="Rectangle-35-Copy-3" fill="#D14E3F"></path>
            <path d="M23.6224211,39.2021565 C23.6800892,38.2025536 24.5179334,37.2367731 25.4959063,37.0446111 L26.8618469,36.7762174 L26.861847,47.516063 L24.9587362,47.516063 C23.9558134,47.516063 23.1895922,46.7046995 23.2472011,45.706122 L23.6224211,39.2021565 Z" id="Rectangle-35-Copy-2" fill="#D14E3F" transform="translate(25.052996, 42.146140) scale(-1, 1) translate(-25.052996, -42.146140) "></path>
            <g id="Group-39-Copy" transform="translate(4.648829, 0.000000)">
                <path d="M2.92682497,20.9569592 C2.92682497,20.9569592 1.61410675,19.4530895 0.64919952,20.0696121 C-0.315707712,20.6861347 -0.0226731671,22.760323 0.36599662,24.0299729 C0.754666407,25.2996229 1.06667132,27.2730844 1.71041702,28.0352578 C2.35416272,28.7974313 3.42083399,28.9370676 3.42083399,28.9370676 L2.92682497,20.9569592 Z" id="Path-21-Copy-2" fill="#FFDCBD"></path>
                <path d="M27.2460117,20.9569592 C27.2460117,20.9569592 25.9332935,19.4530895 24.9683863,20.0696121 C24.003479,20.6861347 24.2965136,22.760323 24.6851834,24.0299729 C25.0738531,25.2996229 25.3858581,27.2730844 26.0296038,28.0352578 C26.6733495,28.7974313 27.7400207,28.9370676 27.7400207,28.9370676 L27.2460117,20.9569592 Z" id="Path-21-Copy-3" fill="#FFDCBD" transform="translate(26.029604, 24.429143) scale(-1, 1) translate(-26.029604, -24.429143) "></path>
                <g id="Path-24" transform="translate(2.614966, 6.290911)">
                    <mask id="mask-12" fill="white">
                        <use xlink:href="#path-11"></use>
                    </mask>
                    <use id="Mask" fill="#FFDCBD" xlink:href="#path-11"></use>
                    <path d="M0.220276012,14.5278929 L0.364069366,14.5613194 C0.364069366,14.5613194 1.08077264,19.7627356 1.13676978,19.8674622 C1.21618917,20.0159933 5.86758604,25.8912601 5.86758604,25.8912601 C5.86758604,25.8912601 6.60493514,23.2938792 7.12042049,22.9915434 C7.37199715,22.8439919 8.94509361,22.7601135 10.9668212,22.7601135 C12.9885488,22.7601135 14.8192327,22.8379125 15.0104222,22.9915434 C15.3838673,23.2916264 16.4147352,25.8912601 16.4147352,25.8912601 C16.4147352,25.8912601 20.9896055,20.4726897 21.2463459,19.8829488 C21.3283917,19.6944871 21.4738028,19.0496604 21.6337015,18.2593934 C21.6359104,18.2484759 22.3020364,14.2346917 22.3020364,14.2346917 L22.3803067,14.2346917 L22.3020364,22.6993448 L22.5576596,28.3259931 L17.0989174,33.7650097 L7.03155249,34.1859653 L2.29792719,31.0227194 L-0.346917162,25.2197023 L0.527079148,22.6335585 L0.220276012,14.5278929 Z" fill="#CFAA8A" mask="url(#mask-12)"></path>
                </g>
                <path d="M10.4217481,31.0036984 C10.3930995,30.7218919 10.6093411,30.4934426 10.8978383,30.4934426 L16.5702721,30.4934426 C16.8618581,30.4934426 17.0736545,30.7342217 17.0306511,31.0036984 C17.0306511,31.0036984 16.9116289,34.1631406 13.6775583,34.1631406 C10.4434878,34.1631406 10.4217481,31.0036984 10.4217481,31.0036984 Z" id="Path-23" fill="#3C3C3C"></path>
                <path d="M8.89088547,22.0181878 C8.89088547,21.4391254 8.42258135,20.9697027 7.84489895,20.9697027 C7.26721654,20.9697027 6.79891242,21.4391254 6.79891242,22.0181878" id="Oval-17" stroke="#3D3D3D" stroke-width="0.522364437" stroke-linecap="round"></path>
                <path d="M20.9197305,22.0181878 C20.9197305,21.4391254 20.4514264,20.9697027 19.873744,20.9697027 C19.2960616,20.9697027 18.8277575,21.4391254 18.8277575,22.0181878" id="Oval-17-Copy" stroke="#3D3D3D" stroke-width="0.522364437" stroke-linecap="round"></path>
                <use id="Path-22-Copy" stroke="#5A381A" mask="url(#mask-14)" stroke-width="1.56709331" fill="#5A381A" xlink:href="#path-13"></use>
                <path d="M18.595316,11.1725217 C18.595316,11.1725217 19.5564918,11.3798231 20.8182076,12.3658903 C22.0799235,13.3519576 22.401488,14.1471546 22.401488,14.1471546" id="Path-25" stroke="#FFF1E4" stroke-width="1.04472887" stroke-linecap="round"></path>
                <path d="M12.1114196,25.8375506 C12.0351463,26.4311536 11.9953547,26.8756648 12.0356123,26.9442249 C12.107111,27.0659896 12.4199568,27.3117427 12.7993741,27.5189102 C13.1469906,27.7087139 13.550487,27.866129 13.8754534,27.866129 C14.201084,27.866129 14.6000652,27.7159727 14.9445385,27.5300956 C15.3190552,27.3280071 15.6291415,27.0836954 15.7104828,26.9442249 C15.8666401,26.6764721 14.9445385,21.20597 14.9445385,21.20597 L14.0475275,20.2323586 L13.3036411,20.4023278" id="Path-28" stroke="#D4B69C" stroke-width="0.522364437" stroke-linecap="round" fill="#FFDCBD"></path>
                <g id="Page-1" transform="translate(2.905518, 13.732891)">
                    <mask id="mask-16" fill="white">
                        <use xlink:href="#path-15"></use>
                    </mask>
                    <g id="Clip-2"></g>
                </g>
                <path d="M23.1004439,4.70596016 C23.1004439,4.62999874 23.3776456,3.62387794 23.3776456,3.62387794 C23.3776456,3.62387794 23.877253,4.13188903 24.2835567,5.02453201 C24.5619842,5.63623289 24.7965968,6.42855462 24.7965968,7.36179399 C24.7965968,9.65689108 23.5135013,11.6279203 23.5135013,11.6279203 L24.9685871,11.896825 L24.6293309,13.1050402 L24.7022264,13.7084497 L24.7965968,14.4896243 L24.491177,15.9086373 L24.491177,13.904459 C24.491177,13.904459 23.9867008,12.7569256 23.5135013,12.1787205 C23.0403018,11.6005155 22.565576,11.1968536 22.565576,11.1968536 C22.565576,11.1968536 23.3033336,9.02794758 23.3033336,7.36179399 C23.3033336,5.96338718 23.1004439,4.78192157 23.1004439,4.70596016 Z" id="Path-26" stroke="#784B24" stroke-width="0.522364437" stroke-linecap="round" stroke-linejoin="round" fill="#784C24"></path>
                <path d="M21.7365244,10.26983 C21.7365244,10.26983 22.7568826,7.49263238 21.7365244,4.59275397 C20.7161663,1.69287555 18.1975097,1.24801984 18.1975097,1.24801984 L19.323171,2.9908448 C19.323171,2.9908448 17.9430474,2.51006861 16.1285198,2.08250752 C14.3139922,1.65494643 12.7355755,1.43859532 12.7355755,1.43859532 C12.7355755,1.43859532 17.5144968,3.09537876 18.8301835,4.59275397 C20.1458702,6.09012918 19.5459794,9.18947559 19.5459794,9.18947559 L20.7091798,9.59276864 L21.7365244,10.26983 Z" id="Path-29" stroke="#784C24" stroke-width="0.522364437" stroke-linecap="round" stroke-linejoin="round" fill="#784C24"></path>
                <path d="M23.6005421,4.69348124 C23.6005421,4.69348124 24.1337531,5.86770818 24.0117239,7.97057323 C23.8896947,10.0734383 23.1435372,11.2476652 23.1435372,11.2476652" id="Path-31" stroke="#5A381A" stroke-width="0.522364437" stroke-linecap="round"></path>
                <path d="M9.53888128,2.1934739 C9.53888128,2.1934739 15.5031911,3.44028268 17.0487377,4.63217455 C18.5942842,5.82406642 17.8850672,8.68135963 17.8850672,8.68135963" id="Path-32" stroke="#784C24" stroke-width="0.522364437" stroke-linecap="round"></path>
                <path d="M6.69919129,3.96893603 C6.69919129,3.96893603 12.8118584,4.52738479 14.5809909,5.35979149 C16.3501234,6.19219819 15.6483006,8.17964311 15.6483006,8.17964311" id="Path-33" stroke="#784C24" stroke-width="0.522364437" stroke-linecap="round"></path>
                <path d="M5.86899056,5.72225608 C5.86899056,5.72225608 10.1015122,5.79050015 11.8420435,6.32956345 C13.5825748,6.86862674 13.4500946,8.1197443 13.4500946,8.1197443" id="Path-34" stroke="#784C24" stroke-width="0.522364437" stroke-linecap="round"></path>
                <path d="M3.30382097,8.49987136 C3.30382097,8.49987136 6.0901022,7.29832007 7.92482907,7.30010333 C9.75955594,7.3018866 10.9580878,8.3287502 10.9580878,8.3287502" id="Path-35" stroke="#784C24" stroke-width="0.522364437" stroke-linecap="round"></path>
                <path d="M2.80521533,10.7176632 C2.80521533,10.7176632 4.56774464,9.5878239 5.22539985,9.37544348 C5.88305506,9.16306305 8.32013843,8.95410399 8.32013843,8.95410399" id="Path-36" stroke="#784C24" stroke-width="0.522364437" stroke-linecap="round"></path>
                <path d="M14.43183,19.8365884 C14.5608626,19.8374085 14.7523188,19.7849162 14.8647831,19.7187682 C14.8647831,19.7187682 15.7159002,19.1719433 16.5881216,18.9972439 C17.4603431,18.8225444 17.981282,18.7070007 20.4854416,18.7283394 C22.9896011,18.7496781 25.055896,19.0457607 25.055896,19.0457607 C25.1819607,19.0624712 25.2868745,19.1764518 25.2902289,19.3003925 L25.3158798,20.2481608 C25.3192337,20.3720796 25.2165294,20.4821764 25.0919562,20.4972817 C25.0919562,20.4972817 24.6949631,20.5162349 24.5847576,20.6577376 C24.4745521,20.7992403 24.1845734,23.2613273 23.6442878,24.3762087 C23.1040022,25.4910902 21.6779802,25.8612479 20.7131561,25.913271 C19.748332,25.965294 18.0152804,26.3743047 16.6559841,24.9661775 C15.2966879,23.5580503 15.4807237,22.8186658 14.731508,21.2272532 C14.5444313,20.9548017 13.9675102,20.9649783 13.8598669,20.9693525 C13.7348318,20.9649783 13.1579107,20.9548017 12.970834,21.2272532 C12.2216183,22.8186658 12.4056541,23.5580503 11.0463579,24.9661775 C9.6870616,26.3743047 7.95401003,25.965294 6.98918591,25.913271 C6.0243618,25.8612479 4.59833976,25.4910902 4.05805417,24.3762087 C3.51776857,23.2613273 3.22778992,20.7992403 3.11758439,20.6577376 C3.00737886,20.5162349 2.61038578,20.4972817 2.61038578,20.4972817 C2.48581257,20.4821764 2.38310833,20.3720796 2.38646214,20.2481608 L2.41211306,19.3003925 C2.41546746,19.1764518 2.52038127,19.0624712 2.64644595,19.0457607 C2.64644595,19.0457607 4.71274084,18.7496781 7.21690043,18.7283394 C9.72106002,18.7070007 10.2419989,18.8225444 11.1142204,18.9972439 C11.9864418,19.1719433 12.8375589,19.7187682 12.8375589,19.7187682 C12.9500232,19.7849162 13.1414794,19.8374085 13.270512,19.8365884 L13.842475,19.8329532 L14.43183,19.8365884 Z M7.98481199,19.206048 C7.41264125,19.206048 4.64238787,19.2146181 4.06095282,19.9003915 C3.47951776,20.5861649 3.70009933,23.8419867 5.12339323,24.974556 C5.92413597,25.6117376 8.00729013,25.7332327 8.98126879,25.5886471 C9.95524746,25.4440615 10.4531189,25.045975 10.7072158,24.8032632 C11.0827838,24.4445232 11.7347548,23.6130214 11.9015164,23.016901 C12.068278,22.4207806 12.3758373,21.1537425 12.092941,20.5691342 C11.7829686,19.928573 11.4888538,19.7408343 10.4777962,19.4584693 C9.46673866,19.1761043 8.33536285,19.206048 7.98481199,19.206048 Z M19.71753,19.206048 C19.3669791,19.206048 18.2356033,19.1761043 17.2245458,19.4584693 C16.2134882,19.7408343 15.9193734,19.928573 15.609401,20.5691342 C15.3265047,21.1537425 15.634064,22.4207806 15.8008256,23.016901 C15.9675872,23.6130214 16.6195582,24.4445232 16.9951262,24.8032632 C17.2492231,25.045975 17.7470945,25.4440615 18.7210732,25.5886471 C19.6950519,25.7332327 21.778206,25.6117376 22.5789488,24.974556 C24.0022427,23.8419867 24.2228242,20.5861649 23.6413892,19.9003915 C23.0599541,19.2146181 20.2897007,19.206048 19.71753,19.206048 Z" id="Combined-Shape" fill="#4A321D"></path>
            </g>
        </g>
    </g>
</svg>