<?xml version="1.0" encoding="UTF-8" standalone="no"?>
<svg width="71px" height="248px" viewBox="0 0 71 248" version="1.1" xmlns="http://www.w3.org/2000/svg" xmlns:xlink="http://www.w3.org/1999/xlink">
    <!-- Generator: Sketch 39.1 (31720) - http://www.bohemiancoding.com/sketch -->
    <title>Group 54 Copy 3</title>
    <desc>Created with Sketch.</desc>
    <defs>
        <path d="M0.269446009,3.99685897 C0.432889071,2.0783425 2.12282214,0.484100418 4.0369556,0.43619635 L13.184227,0.20727213 C15.1015221,0.15928894 16.7209523,1.68263111 16.8008678,3.59877669 L16.9493793,7.15965217 L0,7.15965217 L0.269446009,3.99685897 Z" id="path-1"></path>
        <path d="M0.269446009,3.99685897 C0.432889071,2.0783425 2.12282214,0.484100418 4.0369556,0.43619635 L13.184227,0.20727213 C15.1015221,0.15928894 16.7209523,1.68263111 16.8008678,3.59877669 L16.9493793,7.15965217 L0,7.15965217 L0.269446009,3.99685897 Z" id="path-3"></path>
        <path d="M0.416892904,34.0083482 L0.416892943,14.1148291 C1.04883598,8.40317393 6.1377297,2.9916692 11.7824721,2.02802864 L21.2400829,0.41347535 L28.294992,12.9978451 L32.3376315,16.4240695 L36.390725,12.9978451 C36.390725,12.9978451 40.7051587,2.17387172 43.1594565,0.413475354 L52.8883599,2.05139327 C58.5359001,3.00218976 63.6267642,8.40622144 64.25837,14.1148291 L64.7384224,34.0083482 L64.2583697,66.918102 L52.1614183,66.918102 L52.8883611,77.261742 L11.782472,77.261742 L11.782472,68.5735995 L0.416892943,66.4531441" id="path-5"></path>
        <rect id="path-7" x="0" y="0" width="13.3810889" height="5.81721739" rx="0.891"></rect>
        <rect id="path-9" x="0" y="0" width="13.3810889" height="5.81721739" rx="0.891"></rect>
        <path d="M0.121282034,21.4558774 C-0.346572221,9.60612353 8.88291725,0 20.754692,0 L21.9512153,0 C33.8145872,0 43.2657452,9.62177599 43.0611841,21.4782837 L42.6894566,43.0238715 C42.4847986,54.886 32.6957455,64.5021551 20.8395822,64.5021551 L23.3001517,64.5021551 C11.4374573,64.5021551 1.44164187,54.8977856 0.97371836,43.0462777 L0.121282034,21.4558774 Z" id="path-11"></path>
        <path d="M8.18864817,30.6374776 L8.18864817,26.8236066 C8.18864817,26.8236066 9.33507361,17.9380618 25.8005754,17.4855279 C42.2660771,17.032994 45.5615296,26.8236066 45.5615296,26.8236066 L45.5615296,31.2432314 L47.7887777,39.462554 L47.96868,39.462554 L47.9823796,38.0124811 L48.0383868,32.0842515 L49.0419685,27.7251199 L48.6511695,25.0539704 C48.6511695,25.0539704 49.6621016,22.120944 49.6621016,21.8170646 C49.6621016,21.5131853 47.5659978,21.2575694 47.5659978,21.2575694 C47.5659978,21.2575694 49.7950962,16.4469648 49.0419685,12.2211556 C48.2888408,7.9953465 45.2314539,5.06228433 45.2314539,5.06228433 C44.8539388,4.65398768 44.343697,4.71911665 44.0912721,5.20877199 L43.0792821,7.17183647 C43.0792821,7.17183647 40.9361914,3.4359392 37.7624554,1.74801977 C34.5887193,0.0601003268 29.8479545,0.00210814013 29.8479545,0.00210814013 C29.2941112,-0.0233608255 29.2301437,0.184919507 29.7022768,0.465648948 L33.183614,2.53564564 C33.183614,2.53564564 29.61938,1.44487857 26.7188918,1.10409074 C23.8184036,0.763302912 19.7499443,1.0485522 19.7499443,1.0485522 C19.205145,1.07922529 19.14553,1.33761344 19.6186421,1.62681016 L21.2085032,2.59863603 C21.2085032,2.59863603 18.9621893,2.40841905 16.9006485,2.59863607 C14.8391077,2.78885309 13.4456912,3.31490561 13.4456912,3.31490561 L16.9006485,5.55721572 C16.9006485,5.55721572 14.0497261,5.50765465 12.2951005,6.07171919 C10.5404749,6.63578373 8.80804623,8.15876787 8.80804623,8.15876787 L11.1942479,9.12478449 C11.1942479,9.12478449 10.3058261,9.23729183 8.80804623,9.46980207 C7.31026631,9.70231231 6.96945067,9.96211593 6.67175996,10.221703 C6.37406924,10.48129 8.49442696,11.040578 8.49442696,11.040578 C8.49442696,11.040578 7.1409016,11.1537736 6.0491767,11.7782545 C4.95745181,12.4027353 4.40046514,13.2841436 4.22381454,13.4834239 C3.86384664,13.8895053 6.3289839,13.4834239 6.3289839,13.4834239 L3.26188543,16.4703001 L2.00716333,18.8828811 L4.76529781,18.4161125 C4.76529781,18.4161125 4.04269724,19.0434434 3.26188543,20.5763455 C2.48107362,22.1092476 2.72573373,22.8731951 2.72573373,22.8731951 C2.75553616,23.4258406 3.18819397,23.6949741 3.69386038,23.4735515 L4.11698798,23.2882712 L3.66101496,25.3191825 L4.76529781,29.0250348 L5.41777291,40.0414012 L5.7268594,40.1118348 L8.18864817,30.6374776 Z" id="path-13"></path>
        <mask id="mask-14" maskContentUnits="userSpaceOnUse" maskUnits="objectBoundingBox" x="0" y="0" width="47.6549383" height="40.1118343" fill="white">
            <use xlink:href="#path-13"></use>
        </mask>
        <polygon id="path-15" points="42.15043 -9.60661152e-05 42.15043 13.1019845 0 13.1019845 0 -9.60661152e-05 42.15043 -9.60661152e-05"></polygon>
    </defs>
    <g id="Page-1" stroke="none" stroke-width="1" fill="none" fill-rule="evenodd">
        <g id="Group-54-Copy-3">
            <path d="M1.97611017,145.824 L13.8327712,145.824 L13.8327712,151.28 C13.8327712,154.293266 11.3904397,156.736 8.37294621,156.736 L7.43593518,156.736 C4.42055709,156.736 1.97611017,154.287134 1.97611017,151.28 L1.97611017,145.824 Z" id="Combined-Shape" fill="#FFDCBD"></path>
            <path d="M57.3071951,145.824 L69.1638561,145.824 L69.1638561,151.28 C69.1638561,154.293266 66.7215246,156.736 63.7040311,156.736 L62.7670201,156.736 C59.751642,156.736 57.3071951,154.287134 57.3071951,151.28 L57.3071951,145.824 Z" id="Combined-Shape" fill="#FFDCBD"></path>
            <g id="Group-50-Copy-3" transform="translate(48.598195, 240.975130) scale(-1, 1) translate(-48.598195, -240.975130) translate(39.211672, 234.031130)">
                <path d="M5.79847185,4.92226087 L12.9350526,4.92226087" id="Line-Copy-37" stroke="#FFFFFF" stroke-width="0.891" stroke-linecap="square"></path>
                <g id="Rectangle-34" transform="translate(0.892073, 4.474783)"></g>
                <rect id="Rectangle-31" fill="#A9A9A9" x="3.56829037" y="0.894956522" width="11.5969437" height="4.47478261"></rect>
                <rect id="Rectangle-33" fill="#D1C2A6" x="0" y="11.6344348" width="16.9493793" height="1.34243478"></rect>
                <g id="Rectangle-34" transform="translate(0.000000, 4.474783)">
                    <mask id="mask-2" fill="white">
                        <use xlink:href="#path-1"></use>
                    </mask>
                    <use id="Mask" fill="#B5B5B5" xlink:href="#path-1"></use>
                    <path d="M14.7662343,2.07876376 C14.9306938,2.10430864 15.3982095,2.16491972 15.8193969,2.07876376 C16.4421164,1.95138338 16.5959994,1.34243478 16.5959994,1.34243478 L17.1007156,3.66820478 C17.1007156,3.66820478 16.1956749,4.43923059 15.4028539,3.91428305 C14.6100328,3.38933551 14.6875427,2.06654089 14.7662343,2.07876376 Z" fill="#B54033" mask="url(#mask-2)"></path>
                </g>
                <path d="M4.53401679,1.33005481 C4.4933389,0.595485821 5.05942596,0 5.8042155,0 L12.929309,0 C13.6714982,0 14.2396363,0.605404767 14.1995077,1.33005481 L13.900779,6.72455389 C13.8601011,7.45912287 13.2279593,8.0546087 12.4916024,8.0546087 L6.24192207,8.0546087 C5.50433319,8.0546087 4.87287404,7.44920393 4.83274544,6.72455389 L4.53401679,1.33005481 Z" id="Rectangle-32" fill="#9A9A9A"></path>
                <path d="M5.79847185,1.34243478 L12.9350526,1.34243478" id="Line" stroke="#FFFFFF" stroke-width="0.891" stroke-linecap="square"></path>
                <path d="M5.79847185,3.13234783 L12.9350526,3.13234783" id="Line-Copy-36" stroke="#FFFFFF" stroke-width="0.891" stroke-linecap="square"></path>
                <path d="M5.79847185,4.92226087 L12.9350526,4.92226087" id="Line-Copy-38" stroke="#FFFFFF" stroke-width="0.891" stroke-linecap="square"></path>
                <path d="M5.79847185,6.71217391 L12.9350526,6.71217391" id="Line-Copy-39" stroke="#FFFFFF" stroke-width="0.891" stroke-linecap="square"></path>
            </g>
            <g id="Group-50-Copy-4" transform="translate(12.178485, 234.031130)">
                <path d="M5.79847185,4.92226087 L12.9350526,4.92226087" id="Line-Copy-37" stroke="#FFFFFF" stroke-width="0.891" stroke-linecap="square"></path>
                <g id="Rectangle-34" transform="translate(0.892073, 4.474783)"></g>
                <rect id="Rectangle-31" fill="#A9A9A9" x="3.56829037" y="0.894956522" width="11.5969437" height="4.47478261"></rect>
                <rect id="Rectangle-33" fill="#D1C2A6" x="0" y="11.6344348" width="16.9493793" height="1.34243478"></rect>
                <g id="Rectangle-34" transform="translate(0.000000, 4.474783)">
                    <mask id="mask-4" fill="white">
                        <use xlink:href="#path-3"></use>
                    </mask>
                    <use id="Mask" fill="#B5B5B5" xlink:href="#path-3"></use>
                    <path d="M14.7662343,2.07876376 C14.9306938,2.10430864 15.3982095,2.16491972 15.8193969,2.07876376 C16.4421164,1.95138338 16.5959994,1.34243478 16.5959994,1.34243478 L17.1007156,3.66820478 C17.1007156,3.66820478 16.1956749,4.43923059 15.4028539,3.91428305 C14.6100328,3.38933551 14.6875427,2.06654089 14.7662343,2.07876376 Z" fill="#B54033" mask="url(#mask-4)"></path>
                </g>
                <path d="M4.53401679,1.33005481 C4.4933389,0.595485821 5.05942596,0 5.8042155,0 L12.929309,0 C13.6714982,0 14.2396363,0.605404767 14.1995077,1.33005481 L13.900779,6.72455389 C13.8601011,7.45912287 13.2279593,8.0546087 12.4916024,8.0546087 L6.24192207,8.0546087 C5.50433319,8.0546087 4.87287404,7.44920393 4.83274544,6.72455389 L4.53401679,1.33005481 Z" id="Rectangle-32" fill="#9A9A9A"></path>
                <path d="M5.79847185,1.34243478 L12.9350526,1.34243478" id="Line" stroke="#FFFFFF" stroke-width="0.891" stroke-linecap="square"></path>
                <path d="M5.79847185,3.13234783 L12.9350526,3.13234783" id="Line-Copy-36" stroke="#FFFFFF" stroke-width="0.891" stroke-linecap="square"></path>
                <path d="M5.79847185,4.92226087 L12.9350526,4.92226087" id="Line-Copy-38" stroke="#FFFFFF" stroke-width="0.891" stroke-linecap="square"></path>
                <path d="M5.79847185,6.71217391 L12.9350526,6.71217391" id="Line-Copy-39" stroke="#FFFFFF" stroke-width="0.891" stroke-linecap="square"></path>
            </g>
            <path d="M24.5319963,67.1217391 L46.4992839,67.1217391 L46.4992839,81.3191081 C46.4992839,81.3191081 41.007462,87.4139942 35.5156401,87.4139942 C30.0238182,87.4139942 24.5319963,81.3191081 24.5319963,81.3191081 L24.5319963,67.1217391 Z" id="Rectangle-22-Copy" fill="#FFDCBD"></path>
            <path d="M28.9923593,83.2309565 C28.9923593,83.2309565 32.1112376,85.1239993 35.2564686,85.1239993 C38.4016997,85.1239993 42.4647027,83.2309565 42.4647027,83.2309565 L41.9274119,95.3694598 L28.9923593,95.3694598 L28.9923593,83.2309565 Z" id="Rectangle-26-Copy" fill="#A62E2B"></path>
            <g id="Group-49-Copy-5" transform="translate(3.122254, 76.518783)">
                <mask id="mask-6" fill="white">
                    <use xlink:href="#path-5"></use>
                </mask>
                <use id="Mask" fill="#D7E1E3" xlink:href="#path-5"></use>
                <g id="Group-49" mask="url(#mask-6)" stroke-linecap="square">
                    <g transform="translate(8.028653, 3.579826)">
                        <g id="Group-48" transform="translate(0.000000, 0.294746)">
                            <path d="M0.146898181,0.294035928 L49.0639926,0.294035928" id="Line" stroke="#464664" stroke-width="0.7425"></path>
                            <path d="M0.146898181,3.01194668 L49.0639926,3.01194668" id="Line-Copy-18" stroke="#464664" stroke-width="0.7425"></path>
                            <path d="M0.146898181,5.66466212 L49.0639926,5.66466212" id="Line-Copy-19" stroke="#464664" stroke-width="0.7425"></path>
                            <path d="M0.146898181,8.31737756 L49.0639926,8.31737756" id="Line-Copy-20" stroke="#464664" stroke-width="0.7425"></path>
                            <path d="M0.146898181,10.970093 L49.0639926,10.970093" id="Line-Copy-21" stroke="#464664" stroke-width="0.7425"></path>
                            <path d="M0.146898181,13.6228084 L49.0639926,13.6228084" id="Line-Copy-22" stroke="#464664" stroke-width="0.7425"></path>
                            <path d="M0.146898181,16.2755239 L49.0639926,16.2755239" id="Line-Copy-23" stroke="#464664" stroke-width="0.7425"></path>
                            <path d="M0.146898181,18.9282393 L49.0639926,18.9282393" id="Line-Copy-24" stroke="#464664" stroke-width="0.7425"></path>
                            <path d="M0.146898181,21.5809548 L49.0639926,21.5809548" id="Line-Copy-25" stroke="#464664" stroke-width="0.7425"></path>
                            <path d="M0.146898181,24.2336702 L49.0639926,24.2336702" id="Line-Copy-26" stroke="#464664" stroke-width="0.7425"></path>
                            <path d="M0.146898181,26.8863856 L49.0639926,26.8863856" id="Line-Copy-27" stroke="#464664" stroke-width="0.7425"></path>
                            <path d="M0.146898181,29.5391011 L49.0639926,29.5391011" id="Line-Copy-28" stroke="#464664" stroke-width="0.7425"></path>
                            <path d="M0.146898181,32.1918165 L49.0639926,32.1918165" id="Line-Copy-29" stroke="#464664" stroke-width="0.7425"></path>
                            <path d="M0.146898181,34.8445319 L49.0639926,34.8445319" id="Line-Copy-30" stroke="#464664" stroke-width="0.7425"></path>
                            <path d="M0.146898181,37.4972474 L49.0639926,37.4972474" id="Line-Copy-31" stroke="#464664" stroke-width="0.7425"></path>
                            <path d="M0.146898181,40.1499628 L49.0639926,40.1499628" id="Line-Copy-32" stroke="#464664" stroke-width="0.7425"></path>
                            <path d="M0.146898181,42.8026783 L49.0639926,42.8026783" id="Line-Copy-33" stroke="#464664" stroke-width="0.7425"></path>
                            <path d="M0.146898181,45.4553937 L49.0639926,45.4553937" id="Line-Copy-34" stroke="#464664" stroke-width="0.7425"></path>
                            <path d="M0.146898181,48.1081091 L49.0639926,48.1081091" id="Line-Copy-35" stroke="#464664" stroke-width="0.7425"></path>
                        </g>
                        <g id="Group-48-Copy" transform="translate(24.371526, 24.611304) rotate(90.000000) translate(-24.371526, -24.611304) translate(-0.160470, 0.401271)">
                            <path d="M0.146898181,0.294035928 L49.0639926,0.294035928" id="Line" stroke="#464664" stroke-width="0.7425"></path>
                            <path d="M0.146898181,3.01194668 L49.0639926,3.01194668" id="Line-Copy-18" stroke="#464664" stroke-width="0.7425"></path>
                            <path d="M0.146898181,5.66466212 L49.0639926,5.66466212" id="Line-Copy-19" stroke="#464664" stroke-width="0.7425"></path>
                            <path d="M0.146898181,8.31737756 L49.0639926,8.31737756" id="Line-Copy-20" stroke="#464664" stroke-width="0.7425"></path>
                            <path d="M0.146898181,10.970093 L49.0639926,10.970093" id="Line-Copy-21" stroke="#464664" stroke-width="0.7425"></path>
                            <path d="M0.146898181,13.6228084 L49.0639926,13.6228084" id="Line-Copy-22" stroke="#464664" stroke-width="0.7425"></path>
                            <path d="M0.146898181,16.2755239 L49.0639926,16.2755239" id="Line-Copy-23" stroke="#464664" stroke-width="0.7425"></path>
                            <path d="M0.146898181,18.9282393 L49.0639926,18.9282393" id="Line-Copy-24" stroke="#464664" stroke-width="0.7425"></path>
                            <path d="M0.146898181,21.5809548 L49.0639926,21.5809548" id="Line-Copy-25" stroke="#464664" stroke-width="0.7425"></path>
                            <path d="M0.146898181,24.2336702 L49.0639926,24.2336702" id="Line-Copy-26" stroke="#464664" stroke-width="0.7425"></path>
                            <path d="M0.146898181,26.8863856 L49.0639926,26.8863856" id="Line-Copy-27" stroke="#464664" stroke-width="0.7425"></path>
                            <path d="M0.146898181,29.5391011 L49.0639926,29.5391011" id="Line-Copy-28" stroke="#464664" stroke-width="0.7425"></path>
                            <path d="M0.146898181,32.1918165 L49.0639926,32.1918165" id="Line-Copy-29" stroke="#464664" stroke-width="0.7425"></path>
                            <path d="M0.146898181,34.8445319 L49.0639926,34.8445319" id="Line-Copy-30" stroke="#464664" stroke-width="0.7425"></path>
                            <path d="M0.146898181,37.4972474 L49.0639926,37.4972474" id="Line-Copy-31" stroke="#464664" stroke-width="0.7425"></path>
                            <path d="M0.146898181,40.1499628 L49.0639926,40.1499628" id="Line-Copy-32" stroke="#464664" stroke-width="0.7425"></path>
                            <path d="M0.146898181,42.8026783 L49.0639926,42.8026783" id="Line-Copy-33" stroke="#464664" stroke-width="0.7425"></path>
                            <path d="M0.146898181,45.4553937 L49.0639926,45.4553937" id="Line-Copy-34" stroke="#464664" stroke-width="0.7425"></path>
                            <path d="M0.146898181,48.1081091 L49.0639926,48.1081091" id="Line-Copy-35" stroke="#464664" stroke-width="0.7425"></path>
                        </g>
                    </g>
                </g>
                <g id="Group-49-Copy" mask="url(#mask-6)" stroke-linecap="square">
                    <g transform="translate(8.028653, 51.460000)">
                        <g id="Group-48" transform="translate(0.000000, 0.294746)">
                            <path d="M0.146898181,0.294035928 L49.0639926,0.294035928" id="Line" stroke="#464664" stroke-width="0.7425"></path>
                            <path d="M0.146898181,3.01194668 L49.0639926,3.01194668" id="Line-Copy-18" stroke="#464664" stroke-width="0.7425"></path>
                            <path d="M0.146898181,5.66466212 L49.0639926,5.66466212" id="Line-Copy-19" stroke="#464664" stroke-width="0.7425"></path>
                            <path d="M0.146898181,8.31737756 L49.0639926,8.31737756" id="Line-Copy-20" stroke="#464664" stroke-width="0.7425"></path>
                            <path d="M0.146898181,10.970093 L49.0639926,10.970093" id="Line-Copy-21" stroke="#464664" stroke-width="0.7425"></path>
                            <path d="M0.146898181,13.6228084 L49.0639926,13.6228084" id="Line-Copy-22" stroke="#464664" stroke-width="0.7425"></path>
                            <path d="M0.146898181,16.2755239 L49.0639926,16.2755239" id="Line-Copy-23" stroke="#464664" stroke-width="0.7425"></path>
                            <path d="M0.146898181,18.9282393 L49.0639926,18.9282393" id="Line-Copy-24" stroke="#464664" stroke-width="0.7425"></path>
                            <path d="M0.146898181,21.5809548 L49.0639926,21.5809548" id="Line-Copy-25" stroke="#464664" stroke-width="0.7425"></path>
                            <path d="M0.146898181,24.2336702 L49.0639926,24.2336702" id="Line-Copy-26" stroke="#464664" stroke-width="0.7425"></path>
                            <path d="M0.146898181,26.8863856 L49.0639926,26.8863856" id="Line-Copy-27" stroke="#464664" stroke-width="0.7425"></path>
                            <path d="M0.146898181,29.5391011 L49.0639926,29.5391011" id="Line-Copy-28" stroke="#464664" stroke-width="0.7425"></path>
                            <path d="M0.146898181,32.1918165 L49.0639926,32.1918165" id="Line-Copy-29" stroke="#464664" stroke-width="0.7425"></path>
                            <path d="M0.146898181,34.8445319 L49.0639926,34.8445319" id="Line-Copy-30" stroke="#464664" stroke-width="0.7425"></path>
                            <path d="M0.146898181,37.4972474 L49.0639926,37.4972474" id="Line-Copy-31" stroke="#464664" stroke-width="0.7425"></path>
                            <path d="M0.146898181,40.1499628 L49.0639926,40.1499628" id="Line-Copy-32" stroke="#464664" stroke-width="0.7425"></path>
                            <path d="M0.146898181,42.8026783 L49.0639926,42.8026783" id="Line-Copy-33" stroke="#464664" stroke-width="0.7425"></path>
                            <path d="M0.146898181,45.4553937 L49.0639926,45.4553937" id="Line-Copy-34" stroke="#464664" stroke-width="0.7425"></path>
                            <path d="M0.146898181,48.1081091 L49.0639926,48.1081091" id="Line-Copy-35" stroke="#464664" stroke-width="0.7425"></path>
                        </g>
                        <g id="Group-48-Copy" transform="translate(24.371526, 24.611304) rotate(90.000000) translate(-24.371526, -24.611304) translate(-0.160470, 0.401271)">
                            <path d="M0.146898181,0.294035928 L49.0639926,0.294035928" id="Line" stroke="#464664" stroke-width="0.7425"></path>
                            <path d="M0.146898181,3.01194668 L49.0639926,3.01194668" id="Line-Copy-18" stroke="#464664" stroke-width="0.7425"></path>
                            <path d="M0.146898181,5.66466212 L49.0639926,5.66466212" id="Line-Copy-19" stroke="#464664" stroke-width="0.7425"></path>
                            <path d="M0.146898181,8.31737756 L49.0639926,8.31737756" id="Line-Copy-20" stroke="#464664" stroke-width="0.7425"></path>
                            <path d="M0.146898181,10.970093 L49.0639926,10.970093" id="Line-Copy-21" stroke="#464664" stroke-width="0.7425"></path>
                            <path d="M0.146898181,13.6228084 L49.0639926,13.6228084" id="Line-Copy-22" stroke="#464664" stroke-width="0.7425"></path>
                            <path d="M0.146898181,16.2755239 L49.0639926,16.2755239" id="Line-Copy-23" stroke="#464664" stroke-width="0.7425"></path>
                            <path d="M0.146898181,18.9282393 L49.0639926,18.9282393" id="Line-Copy-24" stroke="#464664" stroke-width="0.7425"></path>
                            <path d="M0.146898181,21.5809548 L49.0639926,21.5809548" id="Line-Copy-25" stroke="#464664" stroke-width="0.7425"></path>
                            <path d="M0.146898181,24.2336702 L49.0639926,24.2336702" id="Line-Copy-26" stroke="#464664" stroke-width="0.7425"></path>
                            <path d="M0.146898181,26.8863856 L49.0639926,26.8863856" id="Line-Copy-27" stroke="#464664" stroke-width="0.7425"></path>
                            <path d="M0.146898181,29.5391011 L49.0639926,29.5391011" id="Line-Copy-28" stroke="#464664" stroke-width="0.7425"></path>
                            <path d="M0.146898181,32.1918165 L49.0639926,32.1918165" id="Line-Copy-29" stroke="#464664" stroke-width="0.7425"></path>
                            <path d="M0.146898181,34.8445319 L49.0639926,34.8445319" id="Line-Copy-30" stroke="#464664" stroke-width="0.7425"></path>
                            <path d="M0.146898181,37.4972474 L49.0639926,37.4972474" id="Line-Copy-31" stroke="#464664" stroke-width="0.7425"></path>
                            <path d="M0.146898181,40.1499628 L49.0639926,40.1499628" id="Line-Copy-32" stroke="#464664" stroke-width="0.7425"></path>
                            <path d="M0.146898181,42.8026783 L49.0639926,42.8026783" id="Line-Copy-33" stroke="#464664" stroke-width="0.7425"></path>
                            <path d="M0.146898181,45.4553937 L49.0639926,45.4553937" id="Line-Copy-34" stroke="#464664" stroke-width="0.7425"></path>
                            <path d="M0.146898181,48.1081091 L49.0639926,48.1081091" id="Line-Copy-35" stroke="#464664" stroke-width="0.7425"></path>
                        </g>
                    </g>
                </g>
            </g>
            <path d="M15.1652341,151.247652 L54.8624645,151.247652 L54.8624645,234.478609 L42.5964663,234.478609 C42.5964663,234.478609 37.1743376,171.512649 35.0138493,171.512649 C32.853361,171.512649 27.4312322,234.478609 27.4312322,234.478609 L15.1652341,234.478609 L15.1652341,151.247652 Z" id="Rectangle-28-Copy" fill="#76B1C2"></path>
            <rect id="Rectangle-29-Copy" fill="#5C9BAA" x="28.546323" y="149.457739" width="13.8271252" height="2.68486957"></rect>
            <path d="M31.5657796,81.035561 C27.7613768,79.6585577 24.7055759,76.9662609 24.7055759,76.9662609 L15.247965,78.5808142 C9.60322264,79.5444547 4.51432893,84.9559595 3.88238589,90.6676146 C3.88238589,90.6676146 2.63416289,100.486605 2.23018148,110.482038 L2.23018148,145.126385 L15.2479649,145.126385 L15.2479649,153.814527 L31.5657796,153.814527 L31.5657796,81.035561 Z M39.594433,81.0923578 C43.4761214,79.734126 46.6249494,76.9662609 46.6249494,76.9662609 L56.3538528,78.6041788 C62.001393,79.5549753 67.0922571,84.959007 67.723863,90.6676146 C67.723863,90.6676146 68.3127045,93.3960372 69.0210678,111.452594 C69.7294311,129.509152 69.0210678,145.126385 69.0210678,145.126385 L56.3538541,145.126385 L56.3538541,153.814527 L39.594433,153.814527 L39.594433,81.0923578 Z" id="Combined-Shape-Copy-6" fill="#19586C"></path>
            <path d="M54.8624645,81.8885217 C54.8624645,81.8885217 57.5369399,82.2123317 60.7319362,85.0610727 C63.9269326,87.9098137 64.5019012,92.8320746 64.5019012,92.8320746 M65.5554432,98.7162723 L66.0415182,108.766412" id="Path-25-Copy-2" stroke-opacity="0.358129529" stroke="#FFFFFF" stroke-width="2.00475" stroke-linecap="round"></path>
            <path d="M24.3457849,76.9662609 L21.4097422,77.5313988 C21.4097422,77.5313988 22.1020254,80.1385919 23.540502,82.8081682 C24.9789787,85.4777445 27.510726,88.8538224 27.510726,88.8538224 L31.2173682,81.0294531 C31.2173682,81.0294531 29.250955,80.0554137 27.6262642,79.1527428 C26.0015734,78.2500719 24.3457849,76.9662609 24.3457849,76.9662609 Z" id="Path-22-Copy-4" fill="#24788F"></path>
            <path d="M42.8101194,76.9662609 L39.6972304,77.5173059 C39.6972304,77.5173059 40.3895136,80.124499 41.8279902,82.7940753 C43.2664668,85.4636516 45.7982142,88.8397294 45.7982142,88.8397294 L49.8026313,81.0228436 C49.8026313,81.0228436 47.5384432,80.0413207 45.9137524,79.1386498 C44.2890616,78.235979 42.8101194,76.9662609 42.8101194,76.9662609 Z" id="Path-22-Copy-3" fill="#24788F" transform="translate(44.749931, 82.902995) scale(-1, 1) translate(-44.749931, -82.902995) "></path>
            <g id="Group-49-Copy-4" transform="translate(57.092646, 140.060696)">
                <mask id="mask-8" fill="white">
                    <use xlink:href="#path-7"></use>
                </mask>
                <use id="Mask" fill="#D7E1E3" xlink:href="#path-7"></use>
                <g id="Group-49-Copy" mask="url(#mask-8)" stroke-linecap="square">
                    <g transform="translate(-12.489016, -17.004174)">
                        <g id="Group-48" transform="translate(0.000000, 0.294746)">
                            <path d="M0.146898181,0.294035928 L49.0639926,0.294035928" id="Line" stroke="#464664" stroke-width="0.7425"></path>
                            <path d="M0.146898181,3.01194668 L49.0639926,3.01194668" id="Line-Copy-18" stroke="#464664" stroke-width="0.7425"></path>
                            <path d="M0.146898181,5.66466212 L49.0639926,5.66466212" id="Line-Copy-19" stroke="#464664" stroke-width="0.7425"></path>
                            <path d="M0.146898181,8.31737756 L49.0639926,8.31737756" id="Line-Copy-20" stroke="#464664" stroke-width="0.7425"></path>
                            <path d="M0.146898181,10.970093 L49.0639926,10.970093" id="Line-Copy-21" stroke="#464664" stroke-width="0.7425"></path>
                            <path d="M0.146898181,13.6228084 L49.0639926,13.6228084" id="Line-Copy-22" stroke="#464664" stroke-width="0.7425"></path>
                            <path d="M0.146898181,16.2755239 L49.0639926,16.2755239" id="Line-Copy-23" stroke="#464664" stroke-width="0.7425"></path>
                            <path d="M0.146898181,18.9282393 L49.0639926,18.9282393" id="Line-Copy-24" stroke="#464664" stroke-width="0.7425"></path>
                            <path d="M0.146898181,21.5809548 L49.0639926,21.5809548" id="Line-Copy-25" stroke="#464664" stroke-width="0.7425"></path>
                            <path d="M0.146898181,24.2336702 L49.0639926,24.2336702" id="Line-Copy-26" stroke="#464664" stroke-width="0.7425"></path>
                            <path d="M0.146898181,26.8863856 L49.0639926,26.8863856" id="Line-Copy-27" stroke="#464664" stroke-width="0.7425"></path>
                            <path d="M0.146898181,29.5391011 L49.0639926,29.5391011" id="Line-Copy-28" stroke="#464664" stroke-width="0.7425"></path>
                            <path d="M0.146898181,32.1918165 L49.0639926,32.1918165" id="Line-Copy-29" stroke="#464664" stroke-width="0.7425"></path>
                            <path d="M0.146898181,34.8445319 L49.0639926,34.8445319" id="Line-Copy-30" stroke="#464664" stroke-width="0.7425"></path>
                            <path d="M0.146898181,37.4972474 L49.0639926,37.4972474" id="Line-Copy-31" stroke="#464664" stroke-width="0.7425"></path>
                            <path d="M0.146898181,40.1499628 L49.0639926,40.1499628" id="Line-Copy-32" stroke="#464664" stroke-width="0.7425"></path>
                            <path d="M0.146898181,42.8026783 L49.0639926,42.8026783" id="Line-Copy-33" stroke="#464664" stroke-width="0.7425"></path>
                            <path d="M0.146898181,45.4553937 L49.0639926,45.4553937" id="Line-Copy-34" stroke="#464664" stroke-width="0.7425"></path>
                            <path d="M0.146898181,48.1081091 L49.0639926,48.1081091" id="Line-Copy-35" stroke="#464664" stroke-width="0.7425"></path>
                        </g>
                        <g id="Group-48-Copy" transform="translate(24.371526, 24.611304) rotate(90.000000) translate(-24.371526, -24.611304) translate(-0.160470, 0.401271)">
                            <path d="M0.146898181,24.2336702 L49.0639926,24.2336702" id="Line-Copy-26" stroke="#464664" stroke-width="0.7425"></path>
                            <path d="M0.146898181,26.8863856 L49.0639926,26.8863856" id="Line-Copy-27" stroke="#464664" stroke-width="0.7425"></path>
                            <path d="M0.146898181,29.5391011 L49.0639926,29.5391011" id="Line-Copy-28" stroke="#464664" stroke-width="0.7425"></path>
                            <path d="M0.146898181,32.1918165 L49.0639926,32.1918165" id="Line-Copy-29" stroke="#464664" stroke-width="0.7425"></path>
                            <path d="M0.146898181,34.8445319 L49.0639926,34.8445319" id="Line-Copy-30" stroke="#464664" stroke-width="0.7425"></path>
                            <path d="M0.146898181,37.4972474 L49.0639926,37.4972474" id="Line-Copy-31" stroke="#464664" stroke-width="0.7425"></path>
                            <path d="M0.146898181,40.1499628 L49.0639926,40.1499628" id="Line-Copy-32" stroke="#464664" stroke-width="0.7425"></path>
                            <path d="M0.146898181,42.8026783 L49.0639926,42.8026783" id="Line-Copy-33" stroke="#464664" stroke-width="0.7425"></path>
                            <path d="M0.146898181,45.4553937 L49.0639926,45.4553937" id="Line-Copy-34" stroke="#464664" stroke-width="0.7425"></path>
                            <path d="M0.146898181,48.1081091 L49.0639926,48.1081091" id="Line-Copy-35" stroke="#464664" stroke-width="0.7425"></path>
                        </g>
                    </g>
                </g>
            </g>
            <path d="M26.3278205,77.9473045 L26.3278205,153.553531 C26.3278205,154.292805 25.7230348,154.892105 24.9821303,154.892105 L16.6120245,154.892103 C14.6476489,154.892103 13.049242,153.292897 13.0421647,151.320836 C13.0421647,151.320836 12.7927153,87.0340929 13.0552079,80.1086595 C13.0552079,78.359916 16.0134801,78.0661113 16.0134801,78.0661113 L24.4089987,76.5187826 C24.4089987,76.5187826 25.5605433,77.4076971 26.3278205,77.9473045 Z" id="Path-27-Copy-3" fill="#A62E2B"></path>
            <path d="M57.4479761,78.2474077 C58.2152533,78.7870151 57.6528576,78.407237 57.6528576,78.407237 L57.6528576,153.978192 C57.6528576,154.715406 57.0608879,155.313036 56.3215025,155.313036 L47.8444624,155.313035 C45.8746208,155.313034 44.2717827,153.713828 44.2647055,151.741767 C44.2647055,151.741767 44.015256,87.455024 44.2777487,80.5295906 C44.2777487,78.7808471 47.1862498,78.407237 47.1862498,78.407237 L55.6931727,76.9662609 C55.6931727,76.9662609 56.6806988,77.7078004 57.4479761,78.2474077 Z" id="Path-27-Copy-2" fill="#A62E2B" transform="translate(51.004602, 116.139648) scale(-1, 1) translate(-51.004602, -116.139648) "></path>
            <ellipse id="Oval-16-Copy-17" fill="#FFFFFF" cx="35.4598856" cy="99.563913" rx="1.11509074" ry="1.11869565"></ellipse>
            <ellipse id="Oval-16-Copy-16" fill="#FFFFFF" cx="35.4598856" cy="106.276087" rx="1.11509074" ry="1.11869565"></ellipse>
            <ellipse id="Oval-16-Copy-15" fill="#FFFFFF" cx="35.4598856" cy="112.988261" rx="1.11509074" ry="1.11869565"></ellipse>
            <ellipse id="Oval-16-Copy-14" fill="#FFFFFF" cx="35.4598856" cy="119.700435" rx="1.11509074" ry="1.11869565"></ellipse>
            <ellipse id="Oval-16-Copy-13" fill="#FFFFFF" cx="35.4598856" cy="126.412609" rx="1.11509074" ry="1.11869565"></ellipse>
            <ellipse id="Oval-16-Copy-12" fill="#FFFFFF" cx="35.4598856" cy="133.124783" rx="1.11509074" ry="1.11869565"></ellipse>
            <ellipse id="Oval-16-Copy-11" fill="#FFFFFF" cx="35.4598856" cy="139.836957" rx="1.11509074" ry="1.11869565"></ellipse>
            <ellipse id="Oval-16-Copy-10" fill="#FFFFFF" cx="35.4598856" cy="146.54913" rx="1.11509074" ry="1.11869565"></ellipse>
            <path d="M11.1509074,88.5927744 C11.1509074,87.3614721 12.1444213,86.3633043 13.3745222,86.3633043 L23.1968815,86.3633043 C23.687906,86.3633043 24.08596,86.7637879 24.08596,87.2569205 L24.08596,97.104123 C24.08596,97.5976535 23.6846555,97.9977391 23.1968815,97.9977391 L13.3745222,97.9977391 C12.1464537,97.9977391 11.1509074,97.0057938 11.1509074,95.7682691 L11.1509074,88.5927744 Z" id="Combined-Shape" fill="#B74134"></path>
            <path d="M59.3228274,88.5927744 C59.3228274,87.3614721 58.3293136,86.3633043 57.0992126,86.3633043 L47.2768534,86.3633043 C46.7858289,86.3633043 46.3877748,86.7637879 46.3877748,87.2569205 L46.3877748,97.104123 C46.3877748,97.5976535 46.7890793,97.9977391 47.2768534,97.9977391 L57.0992126,97.9977391 C58.3272812,97.9977391 59.3228274,97.0057938 59.3228274,95.7682691 L59.3228274,88.5927744 Z" id="Combined-Shape" fill="#B74134"></path>
            <path d="M12.2791987,80.8217488 C12.5925549,79.6345195 13.8396031,78.5054528 15.0405126,78.3039426 L22.9390346,76.978587 C23.4246694,76.8970985 23.828759,77.2391838 23.8410326,77.7206384 L24.0113982,84.403542 C24.0239231,84.8948541 23.632772,85.2931414 23.1449979,85.2931414 L13.3226387,85.2931414 C12.0945702,85.2931414 11.3531336,84.3303822 11.6664053,83.1434725 L12.2791987,80.8217488 Z" id="Combined-Shape" fill="#B74134"></path>
            <path d="M58.3810638,80.7217437 C58.0134611,79.5494259 56.727037,78.4361455 55.5221786,78.2375399 L47.8814146,76.9780565 C47.3973437,76.8982635 46.995678,77.2314048 46.9844057,77.7162769 L46.8336943,84.1990477 C46.8223609,84.6865485 47.2144779,85.0817461 47.7022519,85.0817461 L57.5246112,85.0817461 C58.7526797,85.0817461 59.4482844,84.1252056 59.0826225,82.959077 L58.3810638,80.7217437 Z" id="Combined-Shape" fill="#B74134"></path>
            <path d="M11.1509074,101.122166 C11.1509074,99.8908634 12.1444213,98.8926957 13.3745222,98.8926957 L23.1968815,98.8926957 C23.687906,98.8926957 24.08596,99.2931792 24.08596,99.7863118 L24.08596,109.633514 C24.08596,110.127045 23.6846555,110.52713 23.1968815,110.52713 L13.3745222,110.52713 C12.1464537,110.52713 11.1509074,109.535185 11.1509074,108.29766 L11.1509074,101.122166 Z" id="Combined-Shape" fill="#B74134"></path>
            <path d="M59.3228274,101.122166 C59.3228274,99.8908634 58.3293136,98.8926957 57.0992126,98.8926957 L47.2768534,98.8926957 C46.7858289,98.8926957 46.3877748,99.2931792 46.3877748,99.7863118 L46.3877748,109.633514 C46.3877748,110.127045 46.7890793,110.52713 47.2768534,110.52713 L57.0992126,110.52713 C58.3272812,110.52713 59.3228274,109.535185 59.3228274,108.29766 L59.3228274,101.122166 Z" id="Combined-Shape" fill="#B74134"></path>
            <path d="M11.1509074,113.651557 C11.1509074,112.420255 12.1444213,111.422087 13.3745222,111.422087 L23.1968815,111.422087 C23.687906,111.422087 24.08596,111.822571 24.08596,112.315703 L24.08596,122.162906 C24.08596,122.656436 23.6846555,123.056522 23.1968815,123.056522 L13.3745222,123.056522 C12.1464537,123.056522 11.1509074,122.064576 11.1509074,120.827052 L11.1509074,113.651557 Z" id="Combined-Shape" fill="#B74134"></path>
            <path d="M59.3228274,113.651557 C59.3228274,112.420255 58.3293136,111.422087 57.0992126,111.422087 L47.2768534,111.422087 C46.7858289,111.422087 46.3877748,111.822571 46.3877748,112.315703 L46.3877748,122.162906 C46.3877748,122.656436 46.7890793,123.056522 47.2768534,123.056522 L57.0992126,123.056522 C58.3272812,123.056522 59.3228274,122.064576 59.3228274,120.827052 L59.3228274,113.651557 Z" id="Combined-Shape" fill="#B74134"></path>
            <g id="Group-49-Copy-3" transform="translate(0.000000, 140.060696)">
                <mask id="mask-10" fill="white">
                    <use xlink:href="#path-9"></use>
                </mask>
                <use id="Mask" fill="#D7E1E3" xlink:href="#path-9"></use>
                <g id="Group-49-Copy" mask="url(#mask-10)" stroke-linecap="square">
                    <g transform="translate(-12.489016, -17.004174)">
                        <g id="Group-48" transform="translate(0.000000, 0.294746)">
                            <path d="M0.146898181,0.294035928 L49.0639926,0.294035928" id="Line" stroke="#464664" stroke-width="0.7425"></path>
                            <path d="M0.146898181,3.01194668 L49.0639926,3.01194668" id="Line-Copy-18" stroke="#464664" stroke-width="0.7425"></path>
                            <path d="M0.146898181,5.66466212 L49.0639926,5.66466212" id="Line-Copy-19" stroke="#464664" stroke-width="0.7425"></path>
                            <path d="M0.146898181,8.31737756 L49.0639926,8.31737756" id="Line-Copy-20" stroke="#464664" stroke-width="0.7425"></path>
                            <path d="M0.146898181,10.970093 L49.0639926,10.970093" id="Line-Copy-21" stroke="#464664" stroke-width="0.7425"></path>
                            <path d="M0.146898181,13.6228084 L49.0639926,13.6228084" id="Line-Copy-22" stroke="#464664" stroke-width="0.7425"></path>
                            <path d="M0.146898181,16.2755239 L49.0639926,16.2755239" id="Line-Copy-23" stroke="#464664" stroke-width="0.7425"></path>
                            <path d="M0.146898181,18.9282393 L49.0639926,18.9282393" id="Line-Copy-24" stroke="#464664" stroke-width="0.7425"></path>
                            <path d="M0.146898181,21.5809548 L49.0639926,21.5809548" id="Line-Copy-25" stroke="#464664" stroke-width="0.7425"></path>
                            <path d="M0.146898181,24.2336702 L49.0639926,24.2336702" id="Line-Copy-26" stroke="#464664" stroke-width="0.7425"></path>
                            <path d="M0.146898181,26.8863856 L49.0639926,26.8863856" id="Line-Copy-27" stroke="#464664" stroke-width="0.7425"></path>
                            <path d="M0.146898181,29.5391011 L49.0639926,29.5391011" id="Line-Copy-28" stroke="#464664" stroke-width="0.7425"></path>
                            <path d="M0.146898181,32.1918165 L49.0639926,32.1918165" id="Line-Copy-29" stroke="#464664" stroke-width="0.7425"></path>
                            <path d="M0.146898181,34.8445319 L49.0639926,34.8445319" id="Line-Copy-30" stroke="#464664" stroke-width="0.7425"></path>
                            <path d="M0.146898181,37.4972474 L49.0639926,37.4972474" id="Line-Copy-31" stroke="#464664" stroke-width="0.7425"></path>
                            <path d="M0.146898181,40.1499628 L49.0639926,40.1499628" id="Line-Copy-32" stroke="#464664" stroke-width="0.7425"></path>
                            <path d="M0.146898181,42.8026783 L49.0639926,42.8026783" id="Line-Copy-33" stroke="#464664" stroke-width="0.7425"></path>
                            <path d="M0.146898181,45.4553937 L49.0639926,45.4553937" id="Line-Copy-34" stroke="#464664" stroke-width="0.7425"></path>
                            <path d="M0.146898181,48.1081091 L49.0639926,48.1081091" id="Line-Copy-35" stroke="#464664" stroke-width="0.7425"></path>
                        </g>
                        <g id="Group-48-Copy" transform="translate(24.371526, 24.611304) rotate(90.000000) translate(-24.371526, -24.611304) translate(-0.160470, 0.401271)">
                            <path d="M0.146898181,0.294035928 L49.0639926,0.294035928" id="Line" stroke="#464664" stroke-width="0.7425"></path>
                            <path d="M0.146898181,3.01194668 L49.0639926,3.01194668" id="Line-Copy-18" stroke="#464664" stroke-width="0.7425"></path>
                            <path d="M0.146898181,5.66466212 L49.0639926,5.66466212" id="Line-Copy-19" stroke="#464664" stroke-width="0.7425"></path>
                            <path d="M0.146898181,8.31737756 L49.0639926,8.31737756" id="Line-Copy-20" stroke="#464664" stroke-width="0.7425"></path>
                            <path d="M0.146898181,10.970093 L49.0639926,10.970093" id="Line-Copy-21" stroke="#464664" stroke-width="0.7425"></path>
                            <path d="M0.146898181,13.6228084 L49.0639926,13.6228084" id="Line-Copy-22" stroke="#464664" stroke-width="0.7425"></path>
                            <path d="M0.146898181,16.2755239 L49.0639926,16.2755239" id="Line-Copy-23" stroke="#464664" stroke-width="0.7425"></path>
                            <path d="M0.146898181,18.9282393 L49.0639926,18.9282393" id="Line-Copy-24" stroke="#464664" stroke-width="0.7425"></path>
                            <path d="M0.146898181,21.5809548 L49.0639926,21.5809548" id="Line-Copy-25" stroke="#464664" stroke-width="0.7425"></path>
                            <path d="M0.146898181,24.2336702 L49.0639926,24.2336702" id="Line-Copy-26" stroke="#464664" stroke-width="0.7425"></path>
                            <path d="M0.146898181,26.8863856 L49.0639926,26.8863856" id="Line-Copy-27" stroke="#464664" stroke-width="0.7425"></path>
                            <path d="M0.146898181,29.5391011 L49.0639926,29.5391011" id="Line-Copy-28" stroke="#464664" stroke-width="0.7425"></path>
                            <path d="M0.146898181,32.1918165 L49.0639926,32.1918165" id="Line-Copy-29" stroke="#464664" stroke-width="0.7425"></path>
                            <path d="M0.146898181,34.8445319 L49.0639926,34.8445319" id="Line-Copy-30" stroke="#464664" stroke-width="0.7425"></path>
                        </g>
                    </g>
                </g>
            </g>
            <path d="M11.1509074,126.180948 C11.1509074,124.949646 12.1444213,123.951478 13.3745222,123.951478 L23.1968815,123.951478 C23.687906,123.951478 24.08596,124.351962 24.08596,124.845094 L24.08596,134.692297 C24.08596,135.185827 23.6846555,135.585913 23.1968815,135.585913 L13.3745222,135.585913 C12.1464537,135.585913 11.1509074,134.593968 11.1509074,133.356443 L11.1509074,126.180948 Z" id="Combined-Shape" fill="#B74134"></path>
            <path d="M59.3228274,126.180948 C59.3228274,124.949646 58.3293136,123.951478 57.0992126,123.951478 L47.2768534,123.951478 C46.7858289,123.951478 46.3877748,124.351962 46.3877748,124.845094 L46.3877748,134.692297 C46.3877748,135.185827 46.7890793,135.585913 47.2768534,135.585913 L57.0992126,135.585913 C58.3272812,135.585913 59.3228274,134.593968 59.3228274,133.356443 L59.3228274,126.180948 Z" id="Combined-Shape" fill="#B74134"></path>
            <path d="M11.1509074,138.71034 C11.1509074,137.479037 12.1444213,136.48087 13.3745222,136.48087 L23.1968815,136.48087 C23.687906,136.48087 24.08596,136.881353 24.08596,137.374486 L24.08596,147.221688 C24.08596,147.715219 23.6846555,148.115304 23.1968815,148.115304 L13.3745222,148.115304 C12.1464537,148.115304 11.1509074,147.123359 11.1509074,145.885834 L11.1509074,138.71034 Z" id="Combined-Shape" fill="#B74134"></path>
            <path d="M59.3228274,138.71034 C59.3228274,137.479037 58.3293136,136.48087 57.0992126,136.48087 L47.2768534,136.48087 C46.7858289,136.48087 46.3877748,136.881353 46.3877748,137.374486 L46.3877748,147.221688 C46.3877748,147.715219 46.7890793,148.115304 47.2768534,148.115304 L57.0992126,148.115304 C58.3272812,148.115304 59.3228274,147.123359 59.3228274,145.885834 L59.3228274,138.71034 Z" id="Combined-Shape" fill="#B74134"></path>
            <path d="M11.1509074,151.236598 C11.1509074,150.007026 12.1444213,149.010261 13.3745222,149.010261 L23.1968815,149.010261 C23.687906,149.010261 24.08596,149.402146 24.08596,149.907839 L24.08596,154.377378 C24.08596,154.873097 23.6846555,155.274957 23.1968815,155.274957 L13.3745222,155.274957 C12.1464537,155.274957 11.1509074,154.268425 11.1509074,153.04862 L11.1509074,151.236598 Z" id="Combined-Shape" fill="#B74134"></path>
            <path d="M59.3228274,151.236598 C59.3228274,150.007026 58.3293136,149.010261 57.0992126,149.010261 L47.2768534,149.010261 C46.7858289,149.010261 46.3877748,149.402146 46.3877748,149.907839 L46.3877748,154.377378 C46.3877748,154.873097 46.7890793,155.274957 47.2768534,155.274957 L57.0992126,155.274957 C58.3272812,155.274957 59.3228274,154.268425 59.3228274,153.04862 L59.3228274,151.236598 Z" id="Combined-Shape" fill="#B74134"></path>
            <rect id="Rectangle-30-Copy-3" fill="#99D0DA" x="41.4813756" y="230.451304" width="14.2731615" height="4.92226087" rx="0.891"></rect>
            <rect id="Rectangle-30-Copy-2" fill="#99D0DA" x="14.2731615" y="230.451304" width="14.2731615" height="4.92226087" rx="0.891"></rect>
            <path d="M20.3527697,75.342959 C20.4627168,73.433628 22.0698937,71.5869746 23.9640328,71.2141043 L26.5676737,70.7015652 L26.5676739,91.3487103 L22.894857,91.3487103 C20.9818731,91.3487103 19.5209146,89.7888796 19.6301699,87.8915608 L20.3527697,75.342959 Z" id="Rectangle-35-Copy-3" fill="#D14E3F"></path>
            <path d="M45.3308023,75.342959 C45.4407494,73.433628 47.0479263,71.5869746 48.9420654,71.2141043 L51.5457063,70.7015652 L51.5457065,91.3487103 L47.8728896,91.3487103 C45.9599057,91.3487103 44.4989472,89.7888796 44.6082025,87.8915608 L45.3308023,75.342959 Z" id="Rectangle-35-Copy-2" fill="#D14E3F" transform="translate(48.074668, 81.025138) scale(-1, 1) translate(-48.074668, -81.025138) "></path>
            <g id="Group-39-Copy" transform="translate(8.920726, 0.000000)">
                <path d="M5.61633982,40.2893479 C5.61633982,40.2893479 3.09733998,37.3981876 1.24576124,38.5834403 C-0.605817501,39.768693 -0.0435079693,43.7562798 0.702317838,46.1971573 C1.44814365,48.6380347 2.04685577,52.4319762 3.28215158,53.8972398 C4.51744738,55.3625035 6.56430307,55.6309516 6.56430307,55.6309516 L5.61633982,40.2893479 Z" id="Path-21-Copy-2" fill="#FFDCBD"></path>
                <path d="M52.2828873,40.2893479 C52.2828873,40.2893479 49.7638875,37.3981876 47.9123088,38.5834403 C46.06073,39.768693 46.6230395,43.7562798 47.3688654,46.1971573 C48.1146912,48.6380347 48.7134033,52.4319762 49.9486991,53.8972398 C51.1839949,55.3625035 53.2308506,55.6309516 53.2308506,55.6309516 L52.2828873,40.2893479 Z" id="Path-21-Copy-3" fill="#FFDCBD" transform="translate(49.948699, 46.964553) scale(-1, 1) translate(-49.948699, -46.964553) "></path>
                <g id="Path-24" transform="translate(5.017908, 12.094154)">
                    <mask id="mask-12" fill="white">
                        <use xlink:href="#path-11"></use>
                    </mask>
                    <use id="Mask" fill="#FFDCBD" xlink:href="#path-11"></use>
                    <path d="M0.422691806,27.9295926 L0.698619595,27.9938543 C0.698619595,27.9938543 2.07391508,37.9934763 2.18136904,38.194811 C2.3337684,38.4803592 11.2594219,49.7754458 11.2594219,49.7754458 C11.2594219,49.7754458 12.674335,44.7820314 13.6635096,44.2007967 C14.1462648,43.9171318 17.1649094,43.7558771 21.0444407,43.7558771 C24.9239721,43.7558771 28.436906,43.9054441 28.8037832,44.2007967 C29.5203939,44.7777004 31.498546,49.7754458 31.498546,49.7754458 C31.498546,49.7754458 40.2773512,39.3583492 40.7700152,38.2245838 C40.9274543,37.8622698 41.2064864,36.622603 41.513319,35.1033299 C41.5175579,35.0823413 42.7957997,27.3659189 42.7957997,27.3659189 L42.9459939,27.3659189 L42.7957997,43.6390504 L43.2863198,54.4561728 L32.8114362,64.9125769 L13.4929791,65.7218557 L4.40953595,59.6405768 L-0.665705906,48.484389 L1.01142215,43.5125775 L0.422691806,27.9295926 Z" fill="#CFAA8A" mask="url(#mask-12)"></path>
                </g>
                <path d="M19.9984895,59.6040093 C19.9435152,59.0622418 20.3433816,58.6230525 20.9013246,58.6230525 L31.8077522,58.6230525 C32.3613486,58.6230525 32.7657853,59.0643695 32.6776692,59.6188876 C32.6776692,59.6188876 32.4520447,65.6779757 26.2461255,65.6779757 C20.0402063,65.6779757 19.9984895,59.6040093 19.9984895,59.6040093 Z" id="Path-23" fill="#3C3C3C"></path>
                <path d="M17.0608883,42.3295393 C17.0608883,41.2163032 16.1622507,40.313847 15.053725,40.313847 C13.9451993,40.313847 13.0465617,41.2163032 13.0465617,42.3295393" id="Oval-17" stroke="#3D3D3D" stroke-width="1.002375" stroke-linecap="round"></path>
                <path d="M40.1432667,42.3295393 C40.1432667,41.2163032 39.244629,40.313847 38.1361033,40.313847 C37.0275776,40.313847 36.12894,41.2163032 36.12894,42.3295393" id="Oval-17-Copy" stroke="#3D3D3D" stroke-width="1.002375" stroke-linecap="round"></path>
                <use id="Path-22-Copy" stroke="#5A381A" mask="url(#mask-14)" stroke-width="3.007125" fill="#5A381A" xlink:href="#path-13"></use>
                <path d="M35.6829037,21.4789565 C35.6829037,21.4789565 37.527322,21.8774893 39.9484525,23.7731845 C42.369583,25.6688797 42.9866392,27.1976306 42.9866392,27.1976306" id="Path-25" stroke="#FFF1E4" stroke-width="2.00475" stroke-linecap="round"></path>
                <path d="M23.2408322,49.6721902 C23.0944699,50.8133805 23.018113,51.6679447 23.0953641,51.7997501 C23.2325644,52.0338405 23.8328901,52.5062961 24.5609611,52.9045715 C25.228009,53.2694655 26.0022858,53.5720929 26.6258699,53.5720929 C27.2507288,53.5720929 28.0163414,53.2834203 28.6773577,52.9260752 C29.3960249,52.5375641 29.9910553,52.0678795 30.1471426,51.7997501 C30.4467959,51.2850006 28.9585744,41.8194648 28.9585744,41.8194648 L26.9560664,38.8963172 L25.5286087,39.2230799 L24.3486161,42.5317975 L24.3486161,42.5317975" id="Path-28" stroke="#D4B69C" stroke-width="1.002375" stroke-linecap="round" fill="#FFDCBD"></path>
                <g id="Page-1" transform="translate(5.575454, 26.401217)">
                    <mask id="mask-16" fill="white">
                        <use xlink:href="#path-15"></use>
                    </mask>
                    <g id="Clip-2"></g>
                </g>
                <path d="M45.6073005,39.2757487 L45.5903511,39.5903259 C45.5872289,39.6453657 45.5809844,39.7518655 45.5702795,39.9017708 C45.551992,40.153701 45.5287981,40.4347174 45.5002518,40.7372127 C45.4181811,41.6008457 45.3080102,42.4640313 45.1657246,43.2659123 C44.9012251,44.7582523 44.5528707,45.8603913 44.1692795,46.3315859 C43.6215469,46.8967509 41.9801334,47.1066182 38.5425316,47.0524734 C34.9934208,46.9969861 33.1579815,46.731184 31.9287054,45.9856852 C31.910864,45.9749457 31.8921304,45.9628638 31.8729509,45.948992 C31.4113033,45.6205429 30.8319022,44.7018701 30.2458105,43.4144751 C29.9549948,42.7754762 29.6797904,42.0877021 29.429564,41.3994805 C29.3421409,41.1587372 29.2640846,40.9349981 29.1967331,40.7345278 C29.1565898,40.6150511 29.1289356,40.5309252 29.1151085,40.4875198 C29.0856701,40.3917595 29.03616,40.2816798 28.9692546,40.1657829 C28.8599757,39.7648424 28.7319633,39.2489 28.7319633,39.0171062 C28.7319633,38.6998442 28.9692546,38.0997758 29.0740731,37.8500829 C29.2257255,37.8093624 29.3956653,37.7646146 29.5879069,37.7167344 C30.2007608,37.5628019 30.8827503,37.4093169 31.6155879,37.2656763 C33.5901906,36.8790551 35.5567647,36.6378643 37.3841754,36.613253 C37.489886,36.6119106 37.5947045,36.6110156 37.6986309,36.6110156 C37.8971171,36.6114631 38.0982795,36.6145955 38.3021181,36.6204127 C40.0487962,36.6718727 41.9279471,36.9309626 43.8209252,37.3310082 C44.4574189,37.4656991 45.0551076,37.6084447 45.6073005,37.7525327 L45.6073005,39.2757487 Z M24.365714,40.7246833 C24.2952402,40.9278384 24.0396614,41.6863141 23.9049585,42.0416118 C23.6150349,42.8072471 23.2858601,43.5178426 22.8884418,44.1845852 C22.5806767,44.7009751 22.2416891,45.1685899 21.871479,45.5838497 C21.2265105,46.1467774 20.1814475,46.5660645 18.8491371,46.8381313 C18.0476098,47.0014609 17.1854217,47.1039334 16.3098524,47.1562883 C15.7201924,47.1916391 15.2072507,47.1996937 14.8169689,47.1929815 C14.6711151,47.1911916 14.5814618,47.1902967 14.4538954,47.1876118 C14.2393519,47.183137 14.0002765,47.1755299 13.7424675,47.163448 C13.0073997,47.1289922 12.2727779,47.0672402 11.5912344,46.9714798 C10.245989,46.782644 9.28433472,46.4756739 8.980584,46.134248 C8.51536814,45.62994 8.18173299,44.6647294 7.99082946,43.3835991 C7.82490396,42.2680358 7.78386862,41.0844558 7.81375305,40.0691276 C7.81642927,39.9702349 7.81910548,39.9017708 7.82088963,39.8677624 L7.84363748,39.4337085 L7.97521819,37.7185243 C8.15274063,37.6675118 8.35301093,37.6088922 8.64159642,37.5332683 C9.12688391,37.4052895 9.6786308,37.2768633 10.2852402,37.1569391 C12.1197875,36.7949292 14.0471103,36.5868518 15.9637283,36.6110156 C17.8094265,36.634732 19.7795688,36.8763702 21.7470349,37.2647814 C22.4749661,37.4084219 23.1511571,37.5623544 23.7568744,37.7158395 C23.8474198,37.7386609 23.9312746,37.7605873 24.0128993,37.7820662 C24.1119193,37.9292866 24.4205764,38.4233026 24.5030932,39.0171062 C24.5780273,39.5554226 24.4379719,40.3649108 24.365714,40.7246833 L24.365714,40.7246833 Z M47.0421993,36.8459417 C47.0091926,36.8356497 46.9347045,36.8132758 46.8276558,36.7819523 C46.6519175,36.7304923 46.448971,36.6736626 46.2210465,36.6123581 C45.5716176,36.4373941 44.8521611,36.2628775 44.0814104,36.0999955 C42.1206348,35.6851831 40.169672,35.4162487 38.3395851,35.3625513 C38.1232575,35.3562866 37.9100522,35.3527068 37.699077,35.3527068 C37.5893521,35.3527068 37.4787351,35.3536017 37.367226,35.3549442 C35.4550684,35.3808979 33.4166825,35.6305908 31.3733902,36.0306363 C30.6182508,36.1787516 29.9148515,36.3371589 29.28148,36.4960137 C29.0593539,36.551501 28.8617598,36.6034085 28.6904819,36.6499462 C28.6231304,36.6682929 28.5740664,36.6821647 28.5334771,36.6933516 L26.5731476,36.8812925 L24.808628,36.6946941 C24.7680387,36.6830596 24.7194208,36.6691878 24.6520693,36.6508412 C24.4825755,36.603856 24.2867656,36.5519485 24.0668697,36.4960137 C23.4397426,36.3371589 22.7421419,36.1783042 21.9910167,36.0301889 C19.954415,35.6279059 17.9106767,35.3773181 15.9797856,35.3527068 C13.9677158,35.3272005 11.9556461,35.5446749 10.0412583,35.9223466 C9.40744074,36.0476405 8.83026977,36.181884 8.32045028,36.3161275 C8.14069765,36.3635602 7.98190873,36.407413 7.84542163,36.4472386 C7.76201284,36.4718499 7.70358208,36.4893015 7.67146747,36.4995935 L6.64424588,36.6826122 C6.24192114,36.7564461 5.9145305,37.0933972 5.84717902,37.4925478 L5.58803193,39.0305306 C5.51711216,39.4529501 5.74949707,39.8887939 6.14111694,40.0606255 L6.5523624,40.2414068 C6.53184473,41.2759765 6.57778647,42.4421049 6.74505008,43.5688551 C6.96985238,45.0790942 7.37529937,46.2510398 8.04703003,46.9786395 C8.6143882,47.6171909 9.77452861,47.9872555 11.4159422,48.2177068 C12.1403051,48.3192843 12.912394,48.3846162 13.6835907,48.4204144 C13.9529966,48.4329438 14.203223,48.4414459 14.4284713,48.4459207 C14.5645124,48.4486055 14.6630864,48.4495005 14.7175028,48.4495005 C15.2161714,48.4584501 15.7607817,48.449948 16.3847865,48.4123598 C17.3161103,48.3568725 18.2358372,48.2476878 19.1011476,48.0709339 C20.6497856,47.7550142 21.895565,47.2520487 22.7372355,46.5007327 L22.7858534,46.452405 C23.222969,45.9668911 23.615927,45.423205 23.9705258,44.8285064 C24.4094255,44.0924047 24.7689308,43.3164774 25.0829403,42.4868527 C25.2466357,42.0541412 25.5481562,41.1538149 25.5552928,41.1354683 C25.594544,41.0361282 25.6181839,40.9609518 25.6636796,40.8034395 C25.8006127,40.3317974 25.8675182,40.2745202 26.6503119,40.2534887 C27.1645917,40.2391694 27.5004571,40.3729654 27.7248133,40.596257 C27.8416748,40.7126014 27.9005516,40.8213386 27.9130406,40.8620591 C27.9304361,40.9179939 27.9603205,41.0092795 28.00314,41.1359158 C28.0736137,41.3453356 28.1547923,41.5784718 28.2457837,41.8290596 C28.5062689,42.5459198 28.7935163,43.2636749 29.0994972,43.9357873 C29.7756882,45.4200727 30.4402823,46.4747789 31.1427895,46.9741647 C31.186501,47.0054882 31.2306586,47.0345742 31.2752622,47.0618704 C32.7641314,47.9644341 34.7489929,48.2517151 38.522906,48.3107822 C42.3900407,48.3716393 44.1674954,48.1443203 45.1113082,47.1647904 C45.7094428,46.4331635 46.105077,45.1833567 46.4057055,43.4856242 C46.5546816,42.6461549 46.6688669,41.7507509 46.7540598,40.8562419 C46.7834982,40.5434546 46.8075842,40.2525937 46.8263177,39.9912664 C46.8267638,39.9850017 46.8267638,39.9814219 46.8272098,39.9751572 L47.2331028,39.7048803 C47.5257026,39.5097798 47.7259729,39.1388203 47.7259729,38.7884449 L47.7259729,37.7699843 C47.7259729,37.3529346 47.4409557,36.9654184 47.0421993,36.8459417 L47.0421993,36.8459417 Z" id="Fill-1" fill="#321716"></path>
                <path d="M44.3278788,9.0471172 C44.3278788,8.90108285 44.8598065,6.9668351 44.8598065,6.9668351 C44.8598065,6.9668351 45.8185125,7.94347658 46.5981764,9.65956541 C47.1324561,10.8355485 47.5826588,12.3587717 47.5826588,14.1529063 C47.5826588,18.565186 45.1205025,22.3544514 45.1205025,22.3544514 L47.9126941,22.8714154 L47.2616891,25.1941859 L47.4015695,26.3542289 L47.5826588,27.8560218 L46.9965828,30.5840469 L46.9965828,26.7310529 C46.9965828,26.7310529 46.028534,24.5249422 45.1205025,23.4133542 C44.2124711,22.3017662 43.3015107,21.5257341 43.3015107,21.5257341 C43.3015107,21.5257341 44.7172077,17.3560543 44.7172077,14.1529063 C44.7172077,11.4644963 44.3278788,9.19315155 44.3278788,9.0471172 Z" id="Path-26" stroke="#784B24" stroke-width="1.002375" stroke-linecap="round" stroke-linejoin="round" fill="#784C24"></path>
                <path d="M41.710628,19.7435491 C41.710628,19.7435491 43.6686126,14.4044405 41.710628,8.8294805 C39.7526434,3.25452044 34.9195457,2.39929396 34.9195457,2.39929396 L37.0795984,5.74984116 C37.0795984,5.74984116 34.4312531,4.82555826 30.9493217,4.00358035 C27.4673904,3.18160243 24.4385367,2.76567163 24.4385367,2.76567163 C24.4385367,2.76567163 33.6088992,5.95080567 36.1335953,8.8294805 C38.6582914,11.7081553 37.5071497,17.6665887 37.5071497,17.6665887 L39.7392369,18.4419118 L41.710628,19.7435491 Z" id="Path-29" stroke="#784C24" stroke-width="1.002375" stroke-linecap="round" stroke-linejoin="round" fill="#784C24"></path>
                <path d="M45.2875267,9.02312672 C45.2875267,9.02312672 46.3107153,11.2805553 46.0765513,15.3232726 C45.8423872,19.3659899 44.4105714,21.6234184 44.4105714,21.6234184" id="Path-31" stroke="#5A381A" stroke-width="1.002375" stroke-linecap="round"></path>
                <path d="M18.3043397,4.21691107 C18.3043397,4.21691107 29.7493667,6.61387679 32.7151452,8.9052658 C35.6809238,11.1966548 34.3199939,16.6897456 34.3199939,16.6897456" id="Path-32" stroke="#784C24" stroke-width="1.002375" stroke-linecap="round"></path>
                <path d="M12.8552049,7.6302026 C12.8552049,7.6302026 24.5849175,8.70380952 27.9797393,10.3040953 C31.374561,11.904381 30.0278201,15.7252054 30.0278201,15.7252054" id="Path-33" stroke="#784C24" stroke-width="1.002375" stroke-linecap="round"></path>
                <path d="M11.262117,11.0009264 C11.262117,11.0009264 19.3839829,11.1321243 22.7239213,12.1684631 C26.0638598,13.2048018 25.8096409,15.6100511 25.8096409,15.6100511" id="Path-34" stroke="#784C24" stroke-width="1.002375" stroke-linecap="round"></path>
                <path d="M6.33976456,16.340838 C6.33976456,16.340838 11.6864123,14.0308789 15.2071044,14.0343072 C18.7277965,14.0377355 21.0276821,16.0118609 21.0276821,16.0118609" id="Path-35" stroke="#784C24" stroke-width="1.002375" stroke-linecap="round"></path>
                <path d="M5.38298077,20.6044997 C5.38298077,20.6044997 8.76513161,18.4324056 10.0271186,18.0241084 C11.2891057,17.6158111 15.965671,17.2140914 15.965671,17.2140914" id="Path-36" stroke="#784C24" stroke-width="1.002375" stroke-linecap="round"></path>
            </g>
        </g>
    </g>
</svg>