<?xml version="1.0" encoding="UTF-8" standalone="no"?>
<svg width="162px" height="131px" viewBox="0 0 162 131" version="1.1" xmlns="http://www.w3.org/2000/svg" xmlns:xlink="http://www.w3.org/1999/xlink">
    <!-- Generator: Sketch 3.8.3 (29802) - http://www.bohemiancoding.com/sketch -->
    <title>Fill 1</title>
    <desc>Created with Sketch.</desc>
    <defs></defs>
    <g id="Page-1" stroke="none" stroke-width="1" fill="none" fill-rule="evenodd">
        <path d="M112.8163,65.8920517 L158.7783,19.9300517 C163.0743,15.6340517 163.0743,8.66905166 158.7783,4.37405166 C154.4823,0.0780516561 147.5173,0.0780516561 143.2223,4.37405166 L92.5813,55.0140517 C92.0453,54.9340517 91.4973,54.8920517 90.9383,54.8920517 L39.0003,54.8920517 C38.8323,54.8920517 38.6653,54.8960517 38.5003,54.9030517 C38.3343,54.8960517 38.1673,54.8920517 38.0003,54.8920517 C29.1633,54.8920517 22.0003,47.7290517 22.0003,38.8920517 C22.0003,30.0550517 29.1633,22.8920517 38.0003,22.8920517 L77.9573,22.8920517 L75.3183,25.5310517 C71.0223,29.8270517 71.0223,36.7910517 75.3183,41.0870517 C79.6133,45.3830517 86.5783,45.3830517 90.8743,41.0870517 L112.2913,19.6700517 C119.2213,12.7410517 114.3133,0.892051656 104.5133,0.892051656 L37.4873,0.892051656 C37.2873,0.892051656 37.0883,0.897051656 36.8903,0.908051656 C16.4173,1.49505166 0.0003,18.2760517 0.0003,38.8920517 C0.0003,49.4520517 4.3073,59.0050517 11.2603,65.8920517 C4.3073,72.7790517 0.0003,82.3320517 0.0003,92.8920517 C0.0003,113.879052 17.0133,130.892052 38.0003,130.892052 C38.2503,130.892052 38.4973,130.884052 38.7433,130.867052 C38.9893,130.884052 39.2373,130.892052 39.4873,130.892052 L104.5133,130.892052 C114.3133,130.892052 119.2213,119.043052 112.2913,112.114052 L93.0263,92.8490517 C88.7303,88.5530517 81.7653,88.5530517 77.4703,92.8490517 C73.1743,97.1450517 73.1743,104.109052 77.4703,108.405052 L77.9573,108.892052 L39.4873,108.892052 C39.2373,108.892052 38.9893,108.900052 38.7433,108.917052 C38.4973,108.900052 38.2503,108.892052 38.0003,108.892052 C29.1633,108.892052 22.0003,101.729052 22.0003,92.8920517 C22.0003,84.0550517 29.1633,76.8920517 38.0003,76.8920517 C38.1673,76.8920517 38.3343,76.8880517 38.5003,76.8810517 C38.6653,76.8880517 38.8323,76.8920517 39.0003,76.8920517 L90.9383,76.8920517 C91.4973,76.8920517 92.0453,76.8500517 92.5813,76.7700517 L143.2223,127.410052 C147.5173,131.706052 154.4823,131.706052 158.7783,127.410052 C163.0743,123.115052 163.0743,116.150052 158.7783,111.854052 L112.8163,65.8920517 Z" id="Fill-1" fill="#444444"></path>
    </g>
</svg>