<?xml version="1.0" encoding="UTF-8" standalone="no"?>
<svg width="233px" height="178px" viewBox="0 0 233 178" version="1.1" xmlns="http://www.w3.org/2000/svg" xmlns:xlink="http://www.w3.org/1999/xlink">
    <!-- Generator: Sketch 39.1 (31720) - http://www.bohemiancoding.com/sketch -->
    <title>Group 61</title>
    <desc>Created with Sketch.</desc>
    <defs>
        <filter x="-50%" y="-50%" width="200%" height="200%" filterUnits="objectBoundingBox" id="filter-1">
            <feOffset dx="0" dy="3" in="SourceAlpha" result="shadowOffsetOuter1"></feOffset>
            <feGaussianBlur stdDeviation="5" in="shadowOffsetOuter1" result="shadowBlurOuter1"></feGaussianBlur>
            <feColorMatrix values="0 0 0 0 0   0 0 0 0 0   0 0 0 0 0  0 0 0 0.5 0" type="matrix" in="shadowBlurOuter1" result="shadowMatrixOuter1"></feColorMatrix>
            <feMerge>
                <feMergeNode in="shadowMatrixOuter1"></feMergeNode>
                <feMergeNode in="SourceGraphic"></feMergeNode>
            </feMerge>
        </filter>
        <filter x="-50%" y="-50%" width="200%" height="200%" filterUnits="objectBoundingBox" id="filter-2">
            <feOffset dx="0" dy="3" in="SourceAlpha" result="shadowOffsetOuter1"></feOffset>
            <feGaussianBlur stdDeviation="5" in="shadowOffsetOuter1" result="shadowBlurOuter1"></feGaussianBlur>
            <feColorMatrix values="0 0 0 0 0   0 0 0 0 0   0 0 0 0 0  0 0 0 0.5 0" type="matrix" in="shadowBlurOuter1" result="shadowMatrixOuter1"></feColorMatrix>
            <feMerge>
                <feMergeNode in="shadowMatrixOuter1"></feMergeNode>
                <feMergeNode in="SourceGraphic"></feMergeNode>
            </feMerge>
        </filter>
    </defs>
    <g id="Page-1" stroke="none" stroke-width="1" fill="none" fill-rule="evenodd">
        <g id="Group-61" transform="translate(10.000000, 7.000000)">
            <g id="Group-13-Copy-3" filter="url(#filter-1)">
                <g id="Group-11">
                    <g id="Group-7-Copy">
                        <g id="Group-6">
                            <rect id="Rectangle" fill="#78B7FF" x="0" y="0" width="177.5" height="122.915254" rx="9.375"></rect>
                            <rect id="Rectangle-Copy" fill="#FFFFFF" x="0" y="0" width="177.5" height="20.0677966" rx="9.375"></rect>
                            <ellipse id="Oval" fill="#FF5F72" cx="9.67105263" cy="9.72033898" rx="4.67105263" ry="4.70338983"></ellipse>
                            <ellipse id="Oval-Copy" fill="#F8E81C" cx="22.1710526" cy="9.72033898" rx="4.67105263" ry="4.70338983"></ellipse>
                            <ellipse id="Oval-Copy-2" fill="#7ED321" cx="34.6710526" cy="9.72033898" rx="4.67105263" ry="4.70338983"></ellipse>
                            <rect id="Rectangle-3-Copy-8" stroke="#4990E2" stroke-width="3.125" fill="#FFFFFF" x="9.67105263" y="30.1016949" width="111.22704" height="82.779661" rx="3.125"></rect>
                            <rect id="Rectangle-3-Copy-10" stroke="#4990E2" stroke-width="3.125" fill="#FFFFFF" x="127.5" y="30.1016949" width="40.4824561" height="82.779661" rx="3.125"></rect>
                            <g id="Group-12" transform="translate(30.000000, 38.881356)" stroke-width="3.125">
                                <rect id="Rectangle-3-Copy-9" stroke="#4990E2" fill="#78B7FF" x="27.5" y="0" width="18.0076706" height="13.4020367" rx="3.125"></rect>
                                <rect id="Rectangle-3-Copy-11" stroke="#4990E2" fill="#78B7FF" x="27.5" y="27.5932203" width="18.0076706" height="13.4020367" rx="3.125"></rect>
                                <rect id="Rectangle-3-Copy-12" stroke="#4990E2" fill="#78B7FF" x="27.5" y="50.1694915" width="18.0076706" height="13.4020367" rx="3.125"></rect>
                                <rect id="Rectangle-3-Copy-15" stroke="#4990E2" fill="#78B7FF" x="55" y="27.5932203" width="18.0076706" height="13.4020367" rx="3.125"></rect>
                                <rect id="Rectangle-3-Copy-16" stroke="#4990E2" fill="#78B7FF" x="55" y="50.1694915" width="18.0076706" height="13.4020367" rx="3.125"></rect>
                                <rect id="Rectangle-3-Copy-13" stroke="#4990E2" fill="#78B7FF" x="0" y="27.5932203" width="18.0076706" height="13.4020367" rx="3.125"></rect>
                                <rect id="Rectangle-3-Copy-14" stroke="#4990E2" fill="#78B7FF" x="0" y="50.1694915" width="18.0076706" height="13.4020367" rx="3.125"></rect>
                                <path d="M8.75,27.4290916 L8.75,23.3264256 C8.75,21.9491016 9.86731513,20.8325598 11.2520645,20.8325598 L61.5568483,20.8325598 C62.9387003,20.8325598 64.0589127,21.9523092 64.0589127,23.3363713 L64.0589127,27.2610034" id="Path-3" stroke="#4A90E2"></path>
                                <path d="M9.0625,41.3898305 L9.0625,48.9152542" id="Line" stroke="#4A90E2" stroke-linecap="square"></path>
                                <path d="M36.5625,41.3898305 L36.5625,48.9152542" id="Line-Copy-3" stroke="#4A90E2" stroke-linecap="square"></path>
                                <path d="M64.0625,41.3898305 L64.0625,48.9152542" id="Line-Copy-4" stroke="#4A90E2" stroke-linecap="square"></path>
                                <path d="M36.5625,13.7966102 L36.5625,26.3389831" id="Line" stroke="#4A90E2" stroke-linecap="square"></path>
                            </g>
                        </g>
                    </g>
                    <g id="Group-10" filter="url(#filter-2)" transform="translate(160.000000, 72.491525)" stroke="#4A90E2" stroke-width="3.783">
                        <path d="M36.046276,40.6039713 C41.4849573,36.4830355 45,29.9415359 45,22.5762712 C45,10.1077409 34.9264069,0 22.5,0 C10.0735931,0 0,10.1077409 0,22.5762712 C0,30.017606 3.58802589,36.6180717 9.12285356,40.7308807 C9.12072361,41.1827235 9.21123622,41.6699423 9.40429771,42.1778841 L9.62768471,42.7656118 C10.5229899,45.1211459 13.2885419,47.0338983 15.8032107,47.0338983 L29.1967893,47.0338983 C31.7135915,47.0338983 34.5172037,45.1408355 35.4635974,42.8056243 L35.7342183,42.1378716 C35.9535675,41.5966311 36.0535189,41.0793597 36.046276,40.6039713 Z" id="Combined-Shape" fill="#78B7FF"></path>
                        <rect id="Rectangle-6-Copy" fill="#78B7FF" x="11.25" y="47.0338983" width="22.5" height="9.40677966" rx="4.70338983"></rect>
                        <rect id="Rectangle-6-Copy-2" fill="#78B7FF" x="11.25" y="56.440678" width="22.5" height="9.40677966" rx="4.70338983"></rect>
                        <rect id="Rectangle-6-Copy-4" fill="#78B7FF" x="14.0625" y="65.8474576" width="16.875" height="9.40677966" rx="4.70338983"></rect>
                        <path d="M22.5,9.40677966 C15.2512627,9.40677966 9.375,15.3029619 9.375,22.5762712" id="Oval-6" stroke-linecap="round"></path>
                    </g>
                </g>
                <path d="M137.067349,42.7791804 C137.067349,41.8078624 137.378135,40.8237787 137.999716,39.8268997 C138.621298,38.8300207 139.528181,38.0044127 140.720395,37.3500511 C141.912608,36.6956895 143.303503,36.3685136 144.893121,36.3685136 C146.37065,36.3685136 147.674933,36.6420122 148.806007,37.1890176 C149.937081,37.736023 150.810848,38.479837 151.427335,39.4204818 C152.043821,40.3611266 152.35206,41.3835513 152.35206,42.4877865 C152.35206,43.3568605 152.176287,44.1185669 151.824737,44.7729285 C151.473187,45.4272901 151.055409,45.9921797 150.571391,46.4676143 C150.087373,46.943049 149.2187,47.7430963 147.965348,48.8677803 C147.618893,49.1847367 147.341223,49.4633474 147.132331,49.7036208 C146.923439,49.9438942 146.768046,50.1637155 146.666147,50.3630913 C146.564249,50.5624671 146.485279,50.7618399 146.429234,50.9612157 C146.37319,51.1605915 146.289125,51.510772 146.177037,52.0117676 C145.983429,53.0751052 145.377142,53.606766 144.358156,53.606766 C143.828283,53.606766 143.382484,53.4329538 143.020744,53.0853242 C142.659004,52.7376946 142.478137,52.2213702 142.478137,51.5363354 C142.478137,50.6774858 142.610603,49.9336718 142.875539,49.3048712 C143.140475,48.6760706 143.49202,48.1239613 143.930184,47.6485267 C144.368348,47.1730921 144.959351,46.6082024 145.703211,45.9538408 C146.355361,45.3812744 146.826635,44.9493 147.117046,44.6579046 C147.407457,44.3665092 147.65201,44.0418893 147.850712,43.6840353 C148.049415,43.3261813 148.148764,42.9376599 148.148764,42.5184595 C148.148764,41.7005075 147.845621,41.0103709 147.239324,40.4480289 C146.633027,39.8856869 145.850968,39.6045201 144.893121,39.6045201 C143.772236,39.6045201 142.94687,39.8882429 142.416998,40.4556971 C141.887125,41.0231513 141.438778,41.8589835 141.071943,42.9632187 C140.725488,44.1185759 140.068252,44.6962459 139.100215,44.6962459 C138.529583,44.6962459 138.04812,44.494317 137.65581,44.0904532 C137.263501,43.6865894 137.067349,43.2495028 137.067349,42.7791804 L137.067349,42.7791804 Z M144.526288,59.5880102 C143.904706,59.5880102 143.362105,59.3860813 142.898466,58.9822175 C142.434828,58.5783537 142.203012,58.0134641 142.203012,57.2875317 C142.203012,56.6433945 142.427185,56.1015094 142.875539,55.6618602 C143.323893,55.222211 143.874137,55.0023897 144.526288,55.0023897 C145.168249,55.0023897 145.708303,55.222211 146.146467,55.6618602 C146.584631,56.1015094 146.80371,56.6433945 146.80371,57.2875317 C146.80371,58.0032397 146.574441,58.5655733 146.115898,58.9745493 C145.657354,59.3835253 145.127489,59.5880102 144.526288,59.5880102 L144.526288,59.5880102 Z" id="?-copy" fill="#C98AFF" transform="translate(144.709704, 47.978262) rotate(-11.000000) translate(-144.709704, -47.978262) "></path>
                <path d="M134.282526,85.7191269 C134.282526,84.5863462 134.644974,83.4386778 135.369881,82.2760871 C136.094788,81.1134964 137.152423,80.1506473 138.542819,79.3875109 C139.933215,78.6243744 141.555318,78.2428119 143.409179,78.2428119 C145.132319,78.2428119 146.653413,78.5617743 147.972506,79.1997087 C149.291599,79.8376431 150.310613,80.7051016 151.029579,81.8021102 C151.748544,82.8991188 152.108021,84.0915016 152.108021,85.3792944 C152.108021,86.392835 151.90303,87.2811602 151.493042,88.0442966 C151.083053,88.8074331 150.595828,89.4662246 150.031351,90.0206909 C149.466874,90.5751572 148.453802,91.5081968 146.992104,92.8198376 C146.588057,93.1894818 146.264231,93.5144061 146.020614,93.7946203 C145.776998,94.0748344 145.595774,94.3311967 145.476937,94.5637149 C145.3581,94.796233 145.266002,95.0287477 145.200642,95.2612658 C145.135281,95.4937839 145.037242,95.902175 144.906521,96.4864514 C144.68073,97.7265481 143.973659,98.3465872 142.785287,98.3465872 C142.167333,98.3465872 141.647428,98.1438821 141.225556,97.7384659 C140.803684,97.3330496 140.592751,96.7308963 140.592751,95.9319878 C140.592751,94.9303712 140.747237,94.0629127 141.056214,93.3295863 C141.365191,92.5962599 141.775173,91.9523732 142.286173,91.3979068 C142.797173,90.8434405 143.486419,90.184649 144.353931,89.4215126 C145.114489,88.7537682 145.664103,88.2499864 146.002789,87.9101522 C146.341475,87.570318 146.62668,87.1917365 146.858413,86.7743962 C147.090145,86.357056 147.20601,85.9039505 147.20601,85.4150662 C147.20601,84.4611457 146.852474,83.6562873 146.145393,83.0004669 C145.438311,82.3446465 144.526249,82.0167412 143.409179,82.0167412 C142.10197,82.0167412 141.139403,82.3476275 140.521449,83.0094099 C139.903495,83.6711923 139.380619,84.6459652 138.952805,85.933758 C138.548759,87.2811707 137.78227,87.954867 136.653316,87.954867 C135.987828,87.954867 135.42633,87.7193714 134.968807,87.2483732 C134.511284,86.7773749 134.282526,86.2676312 134.282526,85.7191269 L134.282526,85.7191269 Z M142.981367,105.322096 C142.25646,105.322096 141.623662,105.086601 141.082952,104.615602 C140.542243,104.144604 140.271892,103.485813 140.271892,102.639208 C140.271892,101.887996 140.53333,101.256033 141.056214,100.743301 C141.579098,100.230568 142.220809,99.974206 142.981367,99.974206 C143.730042,99.974206 144.35987,100.230568 144.87087,100.743301 C145.38187,101.256033 145.637366,101.887996 145.637366,102.639208 C145.637366,103.473889 145.369986,104.129699 144.835219,104.60666 C144.300451,105.08362 143.682507,105.322096 142.981367,105.322096 L142.981367,105.322096 Z" id="?-copy-3" fill="#C98AFF" transform="translate(143.195273, 91.782454) rotate(-7.000000) translate(-143.195273, -91.782454) "></path>
                <path d="M151.760189,63.4269178 C151.760189,62.7165923 151.987467,61.9969312 152.44203,61.267913 C152.896592,60.5388948 153.559797,59.9351272 154.431663,59.4565921 C155.30353,58.9780571 156.320692,58.7387931 157.483181,58.7387931 C158.563699,58.7387931 159.517521,58.9388028 160.344677,59.3388282 C161.171832,59.7388536 161.810818,60.2828052 162.261655,60.9706993 C162.712492,61.6585935 162.937907,62.4062933 162.937907,63.2138212 C162.937907,63.8493756 162.809365,64.4064119 162.552276,64.884947 C162.295187,65.363482 161.989666,65.7765861 161.635703,66.1242718 C161.28174,66.4719574 160.64648,67.0570325 159.729902,67.8795146 C159.476539,68.111305 159.273479,68.3150532 159.120716,68.4907653 C158.967953,68.6664774 158.854314,68.8272329 158.779796,68.9730365 C158.705277,69.1188402 158.647526,69.2646416 158.606541,69.4104453 C158.565556,69.5562489 158.504079,69.8123361 158.422109,70.1787145 C158.280524,70.956334 157.837145,71.3451378 157.09196,71.3451378 C156.704464,71.3451378 156.378451,71.2180289 156.11391,70.9638071 C155.849369,70.7095854 155.717101,70.331997 155.717101,69.8310306 C155.717101,69.2029534 155.813974,68.6590017 156.007722,68.1991595 C156.20147,67.7393172 156.458555,67.3355593 156.778984,66.9878737 C157.099414,66.6401881 157.531615,66.2270839 158.0756,65.7485489 C158.552518,65.3298307 158.897161,65.0139275 159.109539,64.8008299 C159.321916,64.5877322 159.500758,64.3503376 159.646069,64.0886387 C159.79138,63.8269398 159.864035,63.5428139 159.864035,63.2362524 C159.864035,62.6380836 159.642345,62.1333862 159.19896,61.7221452 C158.755575,61.3109041 158.183654,61.1052867 157.483181,61.1052867 C156.663477,61.1052867 156.059886,61.3127734 155.67239,61.727753 C155.284894,62.1427326 154.957018,62.7539772 154.688751,63.5615051 C154.435388,64.4064185 153.954751,64.8288689 153.246825,64.8288689 C152.829522,64.8288689 152.477427,64.6811982 152.190531,64.3858523 C151.903635,64.0905065 151.760189,63.7708648 151.760189,63.4269178 L151.760189,63.4269178 Z M157.214915,75.7192254 C156.760353,75.7192254 156.363547,75.5715547 156.024488,75.2762089 C155.685429,74.980863 155.515902,74.5677589 155.515902,74.0368841 C155.515902,73.5658261 155.67984,73.1695452 156.007722,72.8480295 C156.335603,72.5265137 156.737997,72.3657583 157.214915,72.3657583 C157.684382,72.3657583 158.079324,72.5265137 158.399754,72.8480295 C158.720183,73.1695452 158.880395,73.5658261 158.880395,74.0368841 C158.880395,74.5602818 158.712731,74.9715167 158.377398,75.2706011 C158.042065,75.5696855 157.654574,75.7192254 157.214915,75.7192254 L157.214915,75.7192254 Z" id="?-copy-2" fill="#C98AFF" transform="translate(157.349048, 67.229009) rotate(13.000000) translate(-157.349048, -67.229009) "></path>
            </g>
            <rect id="Rectangle-57-Copy-2" fill="#FFFFFF" x="0" y="15" width="177.5" height="5"></rect>
        </g>
    </g>
</svg>