<?xml version="1.0" encoding="UTF-8"?>
<svg width="282px" height="218px" viewBox="0 0 282 218" version="1.1" xmlns="http://www.w3.org/2000/svg" xmlns:xlink="http://www.w3.org/1999/xlink">
    <!-- Generator: Sketch 43.1 (39012) - http://www.bohemiancoding.com/sketch -->
    <title>Group 12</title>
    <desc>Created with Sketch.</desc>
    <defs>
        <path d="M156.5,5.99761552 C156.5,2.68522393 159.182574,0 162.500409,0 L271.499591,0 C274.813525,0 277.5,2.6953123 277.5,5.99761552 L277.5,77.8660946 C277.5,81.1784861 274.805443,83.8637101 271.498046,83.8637101 L263.861358,83.8637101 L263.861358,95 L246.673441,84.1324074 L162.503879,83.8816003 C159.188028,83.8717198 156.5,81.1683978 156.5,77.8660946 L156.5,5.99761552 Z" id="path-1"></path>
        <filter x="-6.2%" y="-4.7%" width="112.4%" height="115.8%" filterUnits="objectBoundingBox" id="filter-2">
            <feOffset dx="0" dy="3" in="SourceAlpha" result="shadowOffsetOuter1"></feOffset>
            <feGaussianBlur stdDeviation="2" in="shadowOffsetOuter1" result="shadowBlurOuter1"></feGaussianBlur>
            <feColorMatrix values="0 0 0 0 0.701960784   0 0 0 0 0.701960784   0 0 0 0 0.701960784  0 0 0 0.5 0" type="matrix" in="shadowBlurOuter1"></feColorMatrix>
        </filter>
    </defs>
    <g id="Wireframeset" stroke="none" stroke-width="1" fill="none" fill-rule="evenodd">
        <g id="Group-12" transform="translate(0.000000, 1.000000)">
            <g id="BG-Copy-8" transform="translate(0.000000, 43.000000)">
                <rect id="Browser_frame" fill="#EAEDF4" x="0" y="0" width="201" height="174" rx="5"></rect>
                <rect id="Main_AREA" fill="#D3DBE9" x="9.57142857" y="27.7571429" width="181.857143" height="136.242857" rx="5"></rect>
            </g>
            <g id="Top-Copy-8" transform="translate(9.000000, 50.000000)">
                <ellipse id="Close" fill="#FC635E" cx="4.78571429" cy="5.74285714" rx="4.78571429" ry="4.78571429"></ellipse>
                <circle id="Minimise" fill="#FDBD41" cx="21.0571429" cy="5.74285714" r="4.78571429"></circle>
                <ellipse id="Maximise" fill="#35CA4A" cx="37.3285714" cy="5.74285714" rx="4.78571429" ry="4.78571429"></ellipse>
                <rect id="Address_bar" fill="#D3DBE9" x="52.6428571" y="0" width="129.214286" height="11.4857143" rx="5"></rect>
            </g>
            <g id="Rectangle-3-Copy-29" transform="translate(217.000000, 47.500000) scale(-1, 1) translate(-217.000000, -47.500000) ">
                <use fill="black" fill-opacity="1" filter="url(#filter-2)" xlink:href="#path-1"></use>
                <use fill="#E7CBFF" fill-rule="evenodd" xlink:href="#path-1"></use>
            </g>
            <circle id="Oval-3" fill="#A2B3CE" cx="133" cy="129" r="12"></circle>
            <circle id="Oval-3-Copy" fill="#A2B3CE" cx="71" cy="129" r="12"></circle>
            <circle id="Oval-4" fill="#D3DBE9" cx="70" cy="122" r="5"></circle>
            <circle id="Oval-4-Copy" fill="#D3DBE9" cx="132" cy="125" r="5"></circle>
            <circle id="Oval-4-Copy-2" fill="#D3DBE9" cx="129" cy="104" r="18"></circle>
            <g id="Group-10-Copy-3" transform="translate(201.500000, 16.000000)" stroke="#E6CAFF">
                <path d="M6.48736253,28.9403626 C2.55148508,26.0181036 0,21.328299 0,16.0410348 C0,7.1818159 7.163444,0 16,0 C24.836556,0 32,7.1818159 32,16.0410348 C32,21.2734412 29.501186,25.9207214 25.6346988,28.8488337 C25.639916,29.1845043 25.5694821,29.5493356 25.414842,29.9305936 L25.2147158,30.4239956 C24.5438468,32.0779928 22.5518873,33.4188225 20.7621613,33.4188225 L11.2378387,33.4188225 C9.44962978,33.4188225 7.48301502,32.0597616 6.84635357,30.3860926 L6.68750059,29.9684966 C6.55021242,29.6075906 6.4858479,29.2614088 6.48736253,28.9403626 Z" id="Combined-Shape" fill="#C88AFF"></path>
                <rect id="Rectangle-6-Copy" fill="#C88AFF" x="8" y="33.4188225" width="16" height="6.6837645" rx="3.34188225"></rect>
                <rect id="Rectangle-6-Copy-2" fill="#C88AFF" x="8" y="40.102587" width="16" height="6.6837645" rx="3.34188225"></rect>
                <path d="M10,46.7863515 L22,46.7863515 L22,50.1282337 C22,51.9739043 20.5044548,53.470116 18.657331,53.470116 L13.342669,53.470116 C11.4965639,53.470116 10,51.9701488 10,50.1282337 L10,46.7863515 Z" id="Rectangle-6-Copy-4" fill="#C88AFF"></path>
                <path d="M14.5777778,5.26271186 C9.42312011,5.26271186 5.24444444,9.45210448 5.24444444,14.6199822" id="Oval-6" stroke-width="1.95394737" stroke-linecap="round"></path>
            </g>
            <path d="M77,182.617965 C77,182.617965 95.2636719,173.070805 107.646484,169.146977 C120.029297,165.223149 123.982422,172.625778 123.982422,172.625778" id="Line" stroke="#A2B3CE" stroke-width="6" stroke-linecap="round" stroke-linejoin="round"></path>
            <path d="M49.9716797,117.371752 C49.9716797,117.371752 56.0161133,105.986932 65,101.99328 C73.9838867,97.9996272 80.0283203,107.338549 80.0283203,107.338549" id="Path-2" stroke="#A2B3CE" stroke-width="6" stroke-linecap="round"></path>
            <path d="M116.210937,107.488281 C116.210937,107.488281 118.867187,110.785156 124.828125,110.785156 C130.789063,110.785156 135.916992,104.379883 143.148438,104.379883 C150.379883,104.379883 154.056641,108.640625 154.056641,108.640625" id="Path-4" stroke="#A2B3CE" stroke-width="6" stroke-linecap="round" stroke-linejoin="round"></path>
        </g>
    </g>
</svg>