<?xml version="1.0" encoding="UTF-8"?>
<svg width="243px" height="179px" viewBox="0 0 243 179" version="1.1" xmlns="http://www.w3.org/2000/svg" xmlns:xlink="http://www.w3.org/1999/xlink">
    <!-- Generator: Sketch 41.2 (35397) - http://www.bohemiancoding.com/sketch -->
    <title>Group 79</title>
    <desc>Created with Sketch.</desc>
    <defs>
        <filter x="-50%" y="-50%" width="200%" height="200%" filterUnits="objectBoundingBox" id="filter-1">
            <feOffset dx="0" dy="2" in="SourceAlpha" result="shadowOffsetOuter1"></feOffset>
            <feGaussianBlur stdDeviation="10" in="shadowOffsetOuter1" result="shadowBlurOuter1"></feGaussianBlur>
            <feColorMatrix values="0 0 0 0 0   0 0 0 0 0   0 0 0 0 0  0 0 0 0.5 0" type="matrix" in="shadowBlurOuter1" result="shadowMatrixOuter1"></feColorMatrix>
            <feMerge>
                <feMergeNode in="shadowMatrixOuter1"></feMergeNode>
                <feMergeNode in="SourceGraphic"></feMergeNode>
            </feMerge>
        </filter>
        <filter x="-50%" y="-50%" width="200%" height="200%" filterUnits="objectBoundingBox" id="filter-2">
            <feOffset dx="0" dy="0" in="SourceAlpha" result="shadowOffsetOuter1"></feOffset>
            <feGaussianBlur stdDeviation="4.5" in="shadowOffsetOuter1" result="shadowBlurOuter1"></feGaussianBlur>
            <feColorMatrix values="0 0 0 0 0   0 0 0 0 0   0 0 0 0 0  0 0 0 0.2 0" type="matrix" in="shadowBlurOuter1" result="shadowMatrixOuter1"></feColorMatrix>
            <feMerge>
                <feMergeNode in="shadowMatrixOuter1"></feMergeNode>
                <feMergeNode in="SourceGraphic"></feMergeNode>
            </feMerge>
        </filter>
    </defs>
    <g id="Page-1" stroke="none" stroke-width="1" fill="none" fill-rule="evenodd">
        <g id="Group-79" transform="translate(3.000000, 6.000000)">
            <rect id="Rectangle-91-Copy-2" fill="#323232" opacity="0" x="0" y="0" width="235" height="164"></rect>
            <g id="Group-76" filter="url(#filter-1)" transform="translate(18.000000, 13.000000)">
                <rect id="Rectangle" stroke="#868690" stroke-width="1.75" fill="#323232" x="0" y="0" width="177.5" height="124.915254" rx="9.375"></rect>
                <circle id="Oval" fill="#9570B7" cx="11.5" cy="9" r="3"></circle>
                <circle id="Oval-Copy" fill="#4B4B4F" cx="21.5" cy="9" r="3"></circle>
                <circle id="Oval-Copy-2" fill="#4B4B4F" cx="31.5" cy="9" r="3"></circle>
                <rect id="Rectangle-3-Copy-8" fill="#4B4B4F" x="9.67105263" y="28.1016949" width="111.22704" height="82.779661" rx="2"></rect>
                <rect id="Rectangle-3-Copy-10" fill="#4B4B4F" x="127.5" y="28.1016949" width="40.4824561" height="82.779661" rx="2"></rect>
                <rect id="Rectangle-3-Copy-9" stroke="#C88AFF" stroke-width="1.75" fill="#4B4B4F" x="57.5" y="36.8813559" width="18.0076706" height="13.4020367" rx="2"></rect>
                <rect id="Rectangle-3-Copy-11" stroke="#C88AFF" stroke-width="1.75" fill="#4B4B4F" x="57.5" y="64.4745763" width="18.0076706" height="13.4020367" rx="2"></rect>
                <rect id="Rectangle-3-Copy-12" stroke="#C88AFF" stroke-width="1.75" fill="#4B4B4F" x="57.5" y="87.0508475" width="18.0076706" height="13.4020367" rx="2"></rect>
                <rect id="Rectangle-3-Copy-15" stroke="#C88AFF" stroke-width="1.75" fill="#4B4B4F" x="85" y="64.4745763" width="18.0076706" height="13.4020367" rx="2"></rect>
                <rect id="Rectangle-3-Copy-16" stroke="#C88AFF" stroke-width="1.75" fill="#4B4B4F" x="85" y="87.0508475" width="18.0076706" height="13.4020367" rx="2"></rect>
                <rect id="Rectangle-3-Copy-13" stroke="#C88AFF" stroke-width="1.75" fill="#4B4B4F" x="30" y="64.4745763" width="18.0076706" height="13.4020367" rx="2"></rect>
                <rect id="Rectangle-3-Copy-14" stroke="#C88AFF" stroke-width="1.75" fill="#4B4B4F" x="30" y="87.0508475" width="18.0076706" height="13.4020367" rx="2"></rect>
                <path d="M38.75,65.3104476 L38.75,60.2223576 C38.75,58.8369834 39.8673151,57.7139157 41.2520645,57.7139157 L91.5568483,57.7139157 C92.9387003,57.7139157 94.0589127,58.8421364 94.0589127,60.208145 L94.0589127,65.1423594" id="Path-3" stroke="#C88AFF" stroke-width="1.75"></path>
                <path d="M38.9114583,78.5 L38.9114583,86.7966102" id="Line" stroke="#C88AFF" stroke-width="1.75" stroke-linecap="square"></path>
                <g id="Group-65" transform="translate(65.500000, 77.881356)" stroke="#C88AFF" stroke-width="2" stroke-linecap="square">
                    <path d="M1.04166667,0.618644068 L1.04166667,8.91525424" id="Line-Copy-3"></path>
                </g>
                <path d="M93.9114583,78.5 L93.9114583,86.7966102" id="Line-Copy-4" stroke="#C88AFF" stroke-width="1.75" stroke-linecap="square"></path>
                <path d="M65.875,50.6779661 L65.875,64" id="Line" stroke="#C88AFF" stroke-width="1.75" stroke-linecap="square"></path>
                <g id="Group-10" filter="url(#filter-2)" transform="translate(155.000000, 61.491525)" stroke="#868690" stroke-width="1.75">
                    <path d="M36.046276,40.6039713 C41.4849573,36.4830355 45,29.9415359 45,22.5762712 C45,10.1077409 34.9264069,0 22.5,0 C10.0735931,0 0,10.1077409 0,22.5762712 C0,30.017606 3.58802589,36.6180717 9.12285356,40.7308807 C9.12072361,41.1827235 9.21123622,41.6699423 9.40429771,42.1778841 L9.62768471,42.7656118 C10.5229899,45.1211459 13.2885419,47.0338983 15.8032107,47.0338983 L29.1967893,47.0338983 C31.7135915,47.0338983 34.5172037,45.1408355 35.4635974,42.8056243 L35.7342183,42.1378716 C35.9535675,41.5966311 36.0535189,41.0793597 36.046276,40.6039713 Z" id="Combined-Shape" fill="#323232"></path>
                    <rect id="Rectangle-6-Copy" fill="#323232" x="11.25" y="47.0338983" width="22.5" height="9.40677966" rx="4.70338983"></rect>
                    <rect id="Rectangle-6-Copy-2" fill="#323232" x="11.25" y="56.440678" width="22.5" height="9.40677966" rx="4.70338983"></rect>
                    <rect id="Rectangle-6-Copy-4" fill="#323232" x="14.0625" y="65.8474576" width="16.875" height="9.40677966" rx="4.70338983"></rect>
                    <path d="M20.5,7.40677966 C13.2512627,7.40677966 7.375,13.3029619 7.375,20.5762712" id="Oval-6" stroke-linecap="round"></path>
                </g>
                <path d="M134.434104,39.5899899 C134.434104,38.7698975 134.696503,37.9390268 135.22131,37.097353 C135.746116,36.2556792 136.511806,35.5586111 137.518403,35.0061278 C138.524999,34.4536445 139.699344,34.1774069 141.041472,34.1774069 C142.288964,34.1774069 143.390181,34.4083242 144.345157,34.8701658 C145.300133,35.3320073 146.037862,35.960016 146.558367,36.7542108 C147.078872,37.5484056 147.339121,38.4116478 147.339121,39.3439634 C147.339121,40.0777303 147.190715,40.7208458 146.893898,41.2733291 C146.597081,41.8258124 146.244347,42.3027537 145.835686,42.7041674 C145.427025,43.1055811 144.693598,43.7810681 143.635381,44.7306488 C143.342866,44.9982579 143.108427,45.2334914 142.932057,45.4363564 C142.755688,45.6392214 142.624488,45.8248185 142.538454,45.9931532 C142.452421,46.161488 142.385745,46.3298202 142.338427,46.498155 C142.291108,46.6664897 142.220131,46.9621502 142.125494,47.3851452 C141.962029,48.2829306 141.450136,48.7318166 140.589797,48.7318166 C140.142421,48.7318166 139.766028,48.5850654 139.460608,48.2915587 C139.155188,47.9980519 139.00248,47.5621146 139.00248,46.9837336 C139.00248,46.2585992 139.114322,45.6305905 139.33801,45.0996886 C139.561698,44.5687866 139.858511,44.1026358 140.228456,43.7012222 C140.598402,43.2998085 141.097391,42.8228672 141.725438,42.2703838 C142.276055,41.7869609 142.673956,41.4222411 142.919152,41.1762134 C143.164349,40.9301856 143.370827,40.6561062 143.538593,40.3539669 C143.706359,40.0518276 143.790241,39.7237955 143.790241,39.3698609 C143.790241,38.6792568 143.534294,38.0965683 143.022393,37.6217779 C142.510491,37.1469876 141.850191,36.9095959 141.041472,36.9095959 C140.0951,36.9095959 139.398236,37.1491457 138.95086,37.6282523 C138.503483,38.1073589 138.12494,38.8130595 137.815218,39.7453751 C137.522703,40.7208534 136.967793,41.2085853 136.150471,41.2085853 C135.668681,41.2085853 135.262177,41.0380949 134.930947,40.6971091 C134.599716,40.3561233 134.434104,39.9870873 134.434104,39.5899899 L134.434104,39.5899899 Z M140.731752,53.7818342 C140.206945,53.7818342 139.748822,53.6113439 139.357368,53.2703581 C138.965914,52.9293723 138.770189,52.4524309 138.770189,51.8395197 C138.770189,51.295669 138.959461,50.8381506 139.33801,50.4669509 C139.716559,50.0957511 140.181135,49.910154 140.731752,49.910154 C141.273765,49.910154 141.729738,50.0957511 142.099684,50.4669509 C142.46963,50.8381506 142.6546,51.295669 142.6546,51.8395197 C142.6546,52.4437984 142.461026,52.9185816 142.073874,53.2638837 C141.686721,53.6091857 141.239352,53.7818342 140.731752,53.7818342 L140.731752,53.7818342 Z" id="?-copy" fill="#C98AFF" transform="translate(140.886612, 43.979621) rotate(-11.000000) translate(-140.886612, -43.979621) "></path>
                <path d="M134.146543,84.1790889 C134.146543,83.1435773 134.477869,82.0944563 135.14053,81.0316943 C135.803191,79.9689324 136.77001,79.0887607 138.041016,78.3911529 C139.312022,77.693545 140.794839,77.3447463 142.489514,77.3447463 C144.064692,77.3447463 145.455173,77.6363202 146.660999,78.2194768 C147.866825,78.8026333 148.798339,79.5956053 149.455569,80.5984166 C150.112798,81.6012279 150.441408,82.6912238 150.441408,83.868437 C150.441408,84.7949474 150.254019,85.6069943 149.879235,86.3046022 C149.504451,87.00221 149.059063,87.6044328 148.543056,88.1112884 C148.02705,88.6181441 147.100967,89.4710659 145.764782,90.6700794 C145.39543,91.0079832 145.099409,91.3050071 144.876712,91.56116 C144.654014,91.8173128 144.488351,92.051662 144.379718,92.2642143 C144.271085,92.4767667 144.186896,92.6893159 144.127148,92.9018683 C144.0674,93.1144207 143.977779,93.4877443 143.858283,94.0218503 C143.65188,95.155463 143.005523,95.7222609 141.919194,95.7222609 C141.354302,95.7222609 140.87904,95.5369616 140.493393,95.1663574 C140.107746,94.7957533 139.914925,94.2453053 139.914925,93.5149971 C139.914925,92.5993868 140.056146,91.8064148 140.338592,91.1360573 C140.621037,90.4656998 140.995816,89.877102 141.462937,89.3702463 C141.930059,88.8633906 142.560121,88.2611679 143.353142,87.56356 C144.048393,86.9531532 144.550813,86.4926299 144.860417,86.1819764 C145.170021,85.8713229 145.430736,85.5252492 145.64257,85.1437449 C145.854405,84.7622407 145.96032,84.3480422 145.96032,83.9011372 C145.96032,83.0291274 145.637142,82.2933802 144.990776,81.6938734 C144.344409,81.0943667 143.510664,80.7946178 142.489514,80.7946178 C141.294551,80.7946178 140.414637,81.0970917 139.849746,81.7020485 C139.284854,82.3070053 138.806876,83.1980769 138.415798,84.3752902 C138.046445,85.607004 137.345773,86.2228517 136.31376,86.2228517 C135.705415,86.2228517 135.192132,86.0075775 134.773895,85.5770227 C134.355658,85.1464678 134.146543,84.6804946 134.146543,84.1790889 L134.146543,84.1790889 Z M142.098437,102.098801 C141.435776,102.098801 140.857314,101.883526 140.363034,101.452972 C139.868754,101.022417 139.621618,100.420194 139.621618,99.6462854 C139.621618,98.9595776 139.860607,98.3818798 140.338592,97.9131746 C140.816577,97.4444693 141.403186,97.2101202 142.098437,97.2101202 C142.782825,97.2101202 143.358571,97.4444693 143.825693,97.9131746 C144.292815,98.3818798 144.526372,98.9595776 144.526372,99.6462854 C144.526372,100.409294 144.281951,101.008792 143.793103,101.444797 C143.304255,101.880801 142.739372,102.098801 142.098437,102.098801 L142.098437,102.098801 Z" id="?-copy-3" fill="#C98AFF" transform="translate(142.293975, 89.721773) rotate(-7.000000) translate(-142.293975, -89.721773) "></path>
                <path d="M146.760189,58.4269178 C146.760189,57.7165923 146.987467,56.9969312 147.44203,56.267913 C147.896592,55.5388948 148.559797,54.9351272 149.431663,54.4565921 C150.30353,53.9780571 151.320692,53.7387931 152.483181,53.7387931 C153.563699,53.7387931 154.517521,53.9388028 155.344677,54.3388282 C156.171832,54.7388536 156.810818,55.2828052 157.261655,55.9706993 C157.712492,56.6585935 157.937907,57.4062933 157.937907,58.2138212 C157.937907,58.8493756 157.809365,59.4064119 157.552276,59.884947 C157.295187,60.363482 156.989666,60.7765861 156.635703,61.1242718 C156.28174,61.4719574 155.64648,62.0570325 154.729902,62.8795146 C154.476539,63.111305 154.273479,63.3150532 154.120716,63.4907653 C153.967953,63.6664774 153.854314,63.8272329 153.779796,63.9730365 C153.705277,64.1188402 153.647526,64.2646416 153.606541,64.4104453 C153.565556,64.5562489 153.504079,64.8123361 153.422109,65.1787145 C153.280524,65.956334 152.837145,66.3451378 152.09196,66.3451378 C151.704464,66.3451378 151.378451,66.2180289 151.11391,65.9638071 C150.849369,65.7095854 150.717101,65.331997 150.717101,64.8310306 C150.717101,64.2029534 150.813974,63.6590017 151.007722,63.1991595 C151.20147,62.7393172 151.458555,62.3355593 151.778984,61.9878737 C152.099414,61.6401881 152.531615,61.2270839 153.0756,60.7485489 C153.552518,60.3298307 153.897161,60.0139275 154.109539,59.8008299 C154.321916,59.5877322 154.500758,59.3503376 154.646069,59.0886387 C154.79138,58.8269398 154.864035,58.5428139 154.864035,58.2362524 C154.864035,57.6380836 154.642345,57.1333862 154.19896,56.7221452 C153.755575,56.3109041 153.183654,56.1052867 152.483181,56.1052867 C151.663477,56.1052867 151.059886,56.3127734 150.67239,56.727753 C150.284894,57.1427326 149.957018,57.7539772 149.688751,58.5615051 C149.435388,59.4064185 148.954751,59.8288689 148.246825,59.8288689 C147.829522,59.8288689 147.477427,59.6811982 147.190531,59.3858523 C146.903635,59.0905065 146.760189,58.7708648 146.760189,58.4269178 L146.760189,58.4269178 Z M152.214915,70.7192254 C151.760353,70.7192254 151.363547,70.5715547 151.024488,70.2762089 C150.685429,69.980863 150.515902,69.5677589 150.515902,69.0368841 C150.515902,68.5658261 150.67984,68.1695452 151.007722,67.8480295 C151.335603,67.5265137 151.737997,67.3657583 152.214915,67.3657583 C152.684382,67.3657583 153.079324,67.5265137 153.399754,67.8480295 C153.720183,68.1695452 153.880395,68.5658261 153.880395,69.0368841 C153.880395,69.5602818 153.712731,69.9715167 153.377398,70.2706011 C153.042065,70.5696855 152.654574,70.7192254 152.214915,70.7192254 L152.214915,70.7192254 Z" id="?-copy-2" fill="#C98AFF" transform="translate(152.349048, 62.229009) rotate(13.000000) translate(-152.349048, -62.229009) "></path>
                <path d="M0.5,17.875 L177.5,17.875" id="Line" stroke="#868690" stroke-width="1.75" stroke-linecap="square"></path>
            </g>
        </g>
    </g>
</svg>