<?xml version="1.0" encoding="UTF-8" standalone="no"?>
<svg width="233px" height="178px" viewBox="0 0 233 178" version="1.1" xmlns="http://www.w3.org/2000/svg" xmlns:xlink="http://www.w3.org/1999/xlink">
    <!-- Generator: Sketch 39.1 (31720) - http://www.bohemiancoding.com/sketch -->
    <title>Group 58</title>
    <desc>Created with Sketch.</desc>
    <defs>
        <filter x="-50%" y="-50%" width="200%" height="200%" filterUnits="objectBoundingBox" id="filter-1">
            <feOffset dx="0" dy="3" in="SourceAlpha" result="shadowOffsetOuter1"></feOffset>
            <feGaussianBlur stdDeviation="5" in="shadowOffsetOuter1" result="shadowBlurOuter1"></feGaussianBlur>
            <feColorMatrix values="0 0 0 0 0   0 0 0 0 0   0 0 0 0 0  0 0 0 0.5 0" type="matrix" in="shadowBlurOuter1" result="shadowMatrixOuter1"></feColorMatrix>
            <feMerge>
                <feMergeNode in="shadowMatrixOuter1"></feMergeNode>
                <feMergeNode in="SourceGraphic"></feMergeNode>
            </feMerge>
        </filter>
        <filter x="-50%" y="-50%" width="200%" height="200%" filterUnits="objectBoundingBox" id="filter-2">
            <feOffset dx="0" dy="3" in="SourceAlpha" result="shadowOffsetOuter1"></feOffset>
            <feGaussianBlur stdDeviation="5" in="shadowOffsetOuter1" result="shadowBlurOuter1"></feGaussianBlur>
            <feColorMatrix values="0 0 0 0 0   0 0 0 0 0   0 0 0 0 0  0 0 0 0.506850091 0" type="matrix" in="shadowBlurOuter1" result="shadowMatrixOuter1"></feColorMatrix>
            <feMerge>
                <feMergeNode in="shadowMatrixOuter1"></feMergeNode>
                <feMergeNode in="SourceGraphic"></feMergeNode>
            </feMerge>
        </filter>
    </defs>
    <g id="Page-1" stroke="none" stroke-width="1" fill="none" fill-rule="evenodd">
        <g id="Group-58" transform="translate(10.000000, 7.000000)">
            <g id="Group-14-Copy-3" filter="url(#filter-1)">
                <g id="Group-2">
                    <g id="Group-3">
                        <rect id="Rectangle" fill="#78B7FF" x="0" y="0" width="177.5" height="122.915254" rx="9.375"></rect>
                        <rect id="Rectangle-Copy" fill="#FFFFFF" x="0" y="0" width="177.5" height="20.0677966" rx="9.375"></rect>
                        <ellipse id="Oval" fill="#FF5F72" cx="9.67105263" cy="9.72033898" rx="4.67105263" ry="4.70338983"></ellipse>
                        <ellipse id="Oval-Copy" fill="#F8E81C" cx="22.1710526" cy="9.72033898" rx="4.67105263" ry="4.70338983"></ellipse>
                        <ellipse id="Oval-Copy-2" fill="#7ED321" cx="34.6710526" cy="9.72033898" rx="4.67105263" ry="4.70338983"></ellipse>
                        <g id="Group-8" transform="translate(8.750000, 30.101695)" stroke="#4A90E2" stroke-width="3.125" fill="#FFFFFF">
                            <rect id="Rectangle-3" x="0" y="0" width="23.5421051" height="23.7050847" rx="3.125"></rect>
                            <rect id="Rectangle-3-Copy-2" x="0" y="30.1016949" width="23.5421051" height="23.7050847" rx="3.125"></rect>
                            <rect id="Rectangle-3-Copy-3" x="0" y="60.2033898" width="23.5421051" height="23.7050847" rx="3.125"></rect>
                            <rect id="Rectangle-3-Copy-5" x="31.25" y="0" width="80.8980923" height="6.27118644" rx="3.125"></rect>
                            <rect id="Rectangle-3-Copy-6" x="31.25" y="12.5423729" width="80.8980923" height="6.27118644" rx="3.125"></rect>
                            <rect id="Rectangle-3-Copy-7" x="31.25" y="25.0847458" width="80.8980923" height="6.27118644" rx="3.125"></rect>
                            <rect id="Rectangle-3-Copy-8" x="31.25" y="37.6271186" width="80.8980923" height="46.2813559" rx="3.125"></rect>
                            <rect id="Rectangle-3-Copy-10" x="120" y="23.7050847" width="40.4824561" height="60.2033898" rx="3.125"></rect>
                            <rect id="Rectangle-3-Copy-18" x="120" y="0" width="40.4824561" height="15.6779661" rx="3.125"></rect>
                        </g>
                        <g id="Group-38" filter="url(#filter-2)" transform="translate(130.000000, 71.745763)" stroke-linecap="round" stroke-width="3.75" stroke="#4A90E2" fill="#78B7FF">
                            <g id="Icon">
                                <path d="M74.8157838,60.9200969 C74.8157838,49.0460533 58.1723338,39.4188862 37.6403314,39.4188862 C17.1083291,39.4188862 0.464879032,49.0460533 0.464879032,60.9200969 L0.464879032,73.2121723 C0.464879032,74.2517046 1.30043539,75.094412 2.34122213,75.094412 L72.9893804,75.094412 C74.0256561,75.094412 74.8627491,74.2501923 74.8590919,73.2121723 L74.8157838,60.9200969 Z" id="Stroke-13"></path>
                                <path d="M37.6403314,39.4344746 C48.9323751,39.4344746 58.0868303,30.6100194 58.0868303,19.7250315 C58.0868303,8.84004358 48.9323751,0.0155883777 37.6403314,0.0155883777 C26.3482878,0.0155883777 17.1938326,8.84004358 17.1938326,19.7250315 C17.1938326,30.6100194 26.3482878,39.4344746 37.6403314,39.4344746 L37.6403314,39.4344746 Z" id="Stroke-15"></path>
                            </g>
                        </g>
                        <g id="Icon" transform="translate(65.000000, 76.508475)" stroke="#FF5F72" stroke-width="3.75" fill="#FF5F72" stroke-linecap="round" stroke-linejoin="round">
                            <path d="M2.08355463,12.0445909 L14.3270889,26.6333951 C14.5381487,26.8849735 14.8832694,26.881546 15.0915793,26.6333951 L27.334426,12.0445909 L26.8463071,12.6683956 C27.5667981,11.7697056 28.0831041,10.6866161 28.3189137,9.49590313 C28.4131,9.01948085 28.4632869,8.52592108 28.4632869,8.02070781 C28.4632869,4.02081718 25.3565133,0.777718189 21.5237488,0.777718189 C18.3619758,0.777718189 15.6945092,2.98502716 14.8578322,6.00328225 L14.5690858,5.99779826 C13.7317213,2.97885766 11.0642547,0.772234192 7.90248178,0.772234192 C4.07040475,0.772234192 0.963631148,4.01464768 0.963631148,8.01522382 C0.963631148,8.52043708 1.01313053,9.01331135 1.10731685,9.48973363 C1.3431264,10.6804466 1.85943243,11.7642216 2.5806109,12.6629117" id="Stroke-1"></path>
                        </g>
                        <g id="Group" transform="translate(15.000000, 121.915254)" stroke="#4A90E2" stroke-width="3.75">
                            <path d="M6.25,-1 C4.17893219,-1 2.5,0.684623484 2.5,2.76271186 C2.5,4.84080025 4.17893219,6.52542373 6.25,6.52542373 L6.25,6.52542373" id="Oval-2-Copy" transform="translate(4.375000, 2.762712) scale(1, -1) rotate(90.000000) translate(-4.375000, -2.762712) "></path>
                            <path d="M110.057983,15.9658038 L9.57473557,15.9658038 C6.81386719,15.9658038 4.57574115,13.7240146 4.57574115,10.9664857 L4.57574115,5.63426907" id="Path-2" stroke-linecap="round" stroke-dasharray="5,5"></path>
                            <path d="M113.75,12.5423729 C111.678932,12.5423729 110,14.2269964 110,16.3050847 C110,18.3831731 111.678932,20.0677966 113.75,20.0677966" id="Oval-2"></path>
                        </g>
                    </g>
                    <path d="M136.25,89.6779661 L106.25,89.6779661" id="Line" stroke="#FF5F72" stroke-width="3.75" stroke-linecap="round" stroke-linejoin="round"></path>
                </g>
                <polyline id="Rectangle-5" stroke="#FF5F72" stroke-width="3.75" stroke-linecap="round" stroke-linejoin="round" transform="translate(107.803301, 90.609414) rotate(45.000000) translate(-107.803301, -90.609414) " points="111.553301 94.3721256 104.053301 94.3721256 104.053301 86.8467019 104.053301 86.8467019"></polyline>
            </g>
            <rect id="Rectangle-57" fill="#FFFFFF" x="0" y="15" width="177.5" height="5"></rect>
        </g>
    </g>
</svg>