<?xml version="1.0" encoding="UTF-8"?>
<svg width="282px" height="218px" viewBox="0 0 282 218" version="1.1" xmlns="http://www.w3.org/2000/svg" xmlns:xlink="http://www.w3.org/1999/xlink">
    <!-- Generator: Sketch 43.1 (39012) - http://www.bohemiancoding.com/sketch -->
    <title>Group 11</title>
    <desc>Created with Sketch.</desc>
    <defs>
        <path d="M157,5.99761552 C157,2.68522393 159.682574,0 163.000409,0 L271.999591,0 C275.313525,0 278,2.6953123 278,5.99761552 L278,77.8660946 C278,81.1784861 275.305443,83.8637101 271.998046,83.8637101 L264.361358,83.8637101 L264.361358,95 L247.173441,84.1324074 L163.003879,83.8816003 C159.688028,83.8717198 157,81.1683978 157,77.8660946 L157,5.99761552 Z" id="path-1"></path>
        <filter x="-6.2%" y="-4.7%" width="112.4%" height="115.8%" filterUnits="objectBoundingBox" id="filter-2">
            <feOffset dx="0" dy="3" in="SourceAlpha" result="shadowOffsetOuter1"></feOffset>
            <feGaussianBlur stdDeviation="2" in="shadowOffsetOuter1" result="shadowBlurOuter1"></feGaussianBlur>
            <feColorMatrix values="0 0 0 0 0.70219494   0 0 0 0 0.70219494   0 0 0 0 0.70219494  0 0 0 0.5 0" type="matrix" in="shadowBlurOuter1"></feColorMatrix>
        </filter>
    </defs>
    <g id="Wireframeset" stroke="none" stroke-width="1" fill="none" fill-rule="evenodd">
        <g id="Group-11" transform="translate(0.000000, 1.000000)">
            <g id="BG-Copy-11" transform="translate(0.000000, 43.000000)">
                <rect id="Browser_frame" fill="#EAEEF5" x="0" y="0" width="201" height="174" rx="5"></rect>
                <rect id="Main_AREA" fill="#D3DBE9" x="9.57142857" y="27.7571429" width="181.857143" height="136.242857" rx="5"></rect>
            </g>
            <g id="Top-Copy-11" transform="translate(9.000000, 50.000000)">
                <ellipse id="Close" fill="#FC635E" cx="4.78571429" cy="5.74285714" rx="4.78571429" ry="4.78571429"></ellipse>
                <circle id="Minimise" fill="#FDBD41" cx="21.0571429" cy="5.74285714" r="4.78571429"></circle>
                <ellipse id="Maximise" fill="#35CA4A" cx="37.3285714" cy="5.74285714" rx="4.78571429" ry="4.78571429"></ellipse>
                <rect id="Address_bar" fill="#D3DBE9" x="52.6428571" y="0" width="129.214286" height="11.4857143" rx="5"></rect>
            </g>
            <g id="Rectangle-3-Copy-30" transform="translate(217.500000, 47.500000) scale(-1, 1) translate(-217.500000, -47.500000) ">
                <use fill="black" fill-opacity="1" filter="url(#filter-2)" xlink:href="#path-1"></use>
                <use fill="#FFBFC9" fill-rule="evenodd" xlink:href="#path-1"></use>
            </g>
            <path d="M197.751175,40.7425008 L216.89585,63.7050345 C217.225875,64.1010146 217.765525,64.0956198 218.09125,63.7050345 L237.23485,40.7425008 L236.4716,41.724359 C237.5982,40.3098359 238.405525,38.6050711 238.77425,36.7309089 C238.921525,35.9810282 239,35.2041734 239,34.4089762 C239,28.1132152 234.142075,23.0086317 228.14895,23.0086317 C223.205025,23.0086317 219.034025,26.4828991 217.72575,31.2335821 L217.27425,31.2249504 C215.9649,26.4731884 211.7939,23 206.849975,23 C200.857925,23 196,28.1035046 196,34.4003444 C196,35.1955417 196.0774,35.9713175 196.224675,36.7211982 C196.5934,38.5953604 197.400725,40.3012041 198.5284,41.7157273" id="Stroke-1-Copy-4" stroke="#FF5F72" stroke-width="5.625" fill="#FF5F72" stroke-linecap="round" stroke-linejoin="round" transform="translate(217.500000, 43.500000) scale(-1, 1) translate(-217.500000, -43.500000) "></path>
            <path d="M79,114.5 C79,108.148725 73.8512746,103 67.5,103 C61.1487254,103 56,108.148725 56,114.5" id="Oval-2-Copy-22" stroke="#A2B3CE" stroke-width="6" stroke-linecap="round"></path>
            <path d="M144,114.5 C144,108.148725 138.851275,103 132.5,103 C126.148725,103 121,108.148725 121,114.5" id="Oval-2-Copy-23" stroke="#A2B3CE" stroke-width="6" stroke-linecap="round"></path>
            <path d="M78.0551573,166.951991 C77.6075129,163.664797 79.933355,161 83.2604085,161 L117.517145,161 C120.83957,161 123.216828,163.668812 122.548187,166.919952 C122.548187,166.919952 122.249154,186.386434 100.000102,186.386434 C77.7510493,186.386434 78.0551573,166.951991 78.0551573,166.951991 Z" id="Path-23-Copy-11" fill="#A2B3CE"></path>
        </g>
    </g>
</svg>